%TF.GenerationSoftware,KiCad,Pcbnew,7.0.2-0*%
%TF.CreationDate,2023-11-28T17:04:35-06:00*%
%TF.ProjectId,Flight Computer,466c6967-6874-4204-936f-6d7075746572,1.1*%
%TF.SameCoordinates,Original*%
%TF.FileFunction,Legend,Top*%
%TF.FilePolarity,Positive*%
%FSLAX46Y46*%
G04 Gerber Fmt 4.6, Leading zero omitted, Abs format (unit mm)*
G04 Created by KiCad (PCBNEW 7.0.2-0) date 2023-11-28 17:04:35*
%MOMM*%
%LPD*%
G01*
G04 APERTURE LIST*
G04 Aperture macros list*
%AMRoundRect*
0 Rectangle with rounded corners*
0 $1 Rounding radius*
0 $2 $3 $4 $5 $6 $7 $8 $9 X,Y pos of 4 corners*
0 Add a 4 corners polygon primitive as box body*
4,1,4,$2,$3,$4,$5,$6,$7,$8,$9,$2,$3,0*
0 Add four circle primitives for the rounded corners*
1,1,$1+$1,$2,$3*
1,1,$1+$1,$4,$5*
1,1,$1+$1,$6,$7*
1,1,$1+$1,$8,$9*
0 Add four rect primitives between the rounded corners*
20,1,$1+$1,$2,$3,$4,$5,0*
20,1,$1+$1,$4,$5,$6,$7,0*
20,1,$1+$1,$6,$7,$8,$9,0*
20,1,$1+$1,$8,$9,$2,$3,0*%
G04 Aperture macros list end*
%ADD10C,0.150000*%
%ADD11C,0.153000*%
%ADD12C,0.120000*%
%ADD13C,0.100000*%
%ADD14C,0.650000*%
%ADD15R,1.450000X0.600000*%
%ADD16R,1.450000X0.300000*%
%ADD17O,1.600000X1.000000*%
%ADD18O,2.100000X1.000000*%
%ADD19RoundRect,0.218750X-0.218750X-0.256250X0.218750X-0.256250X0.218750X0.256250X-0.218750X0.256250X0*%
%ADD20RoundRect,0.135000X-0.135000X-0.185000X0.135000X-0.185000X0.135000X0.185000X-0.135000X0.185000X0*%
%ADD21RoundRect,0.150000X-0.587500X-0.150000X0.587500X-0.150000X0.587500X0.150000X-0.587500X0.150000X0*%
%ADD22RoundRect,0.200000X-0.275000X0.200000X-0.275000X-0.200000X0.275000X-0.200000X0.275000X0.200000X0*%
%ADD23RoundRect,0.135000X-0.185000X0.135000X-0.185000X-0.135000X0.185000X-0.135000X0.185000X0.135000X0*%
%ADD24RoundRect,0.150000X0.587500X0.150000X-0.587500X0.150000X-0.587500X-0.150000X0.587500X-0.150000X0*%
%ADD25RoundRect,0.218750X0.218750X0.256250X-0.218750X0.256250X-0.218750X-0.256250X0.218750X-0.256250X0*%
%ADD26RoundRect,0.225000X0.250000X-0.225000X0.250000X0.225000X-0.250000X0.225000X-0.250000X-0.225000X0*%
%ADD27RoundRect,0.135000X0.185000X-0.135000X0.185000X0.135000X-0.185000X0.135000X-0.185000X-0.135000X0*%
%ADD28RoundRect,0.200000X0.200000X0.275000X-0.200000X0.275000X-0.200000X-0.275000X0.200000X-0.275000X0*%
%ADD29RoundRect,0.140000X0.140000X0.170000X-0.140000X0.170000X-0.140000X-0.170000X0.140000X-0.170000X0*%
%ADD30RoundRect,0.243750X0.456250X-0.243750X0.456250X0.243750X-0.456250X0.243750X-0.456250X-0.243750X0*%
%ADD31RoundRect,0.225000X-0.250000X0.225000X-0.250000X-0.225000X0.250000X-0.225000X0.250000X0.225000X0*%
%ADD32RoundRect,0.140000X-0.140000X-0.170000X0.140000X-0.170000X0.140000X0.170000X-0.140000X0.170000X0*%
%ADD33R,0.800000X1.000000*%
%ADD34C,0.900000*%
%ADD35R,1.500000X0.700000*%
%ADD36RoundRect,0.140000X0.170000X-0.140000X0.170000X0.140000X-0.170000X0.140000X-0.170000X-0.140000X0*%
%ADD37RoundRect,0.218750X0.218750X0.381250X-0.218750X0.381250X-0.218750X-0.381250X0.218750X-0.381250X0*%
%ADD38RoundRect,0.200000X0.450000X-0.200000X0.450000X0.200000X-0.450000X0.200000X-0.450000X-0.200000X0*%
%ADD39O,1.300000X0.800000*%
%ADD40RoundRect,0.140000X-0.170000X0.140000X-0.170000X-0.140000X0.170000X-0.140000X0.170000X0.140000X0*%
%ADD41RoundRect,0.135000X0.135000X0.185000X-0.135000X0.185000X-0.135000X-0.185000X0.135000X-0.185000X0*%
%ADD42R,3.700000X1.100000*%
%ADD43RoundRect,0.112500X-0.187500X-0.112500X0.187500X-0.112500X0.187500X0.112500X-0.187500X0.112500X0*%
%ADD44RoundRect,0.075000X-0.725000X-0.075000X0.725000X-0.075000X0.725000X0.075000X-0.725000X0.075000X0*%
%ADD45RoundRect,0.075000X-0.075000X-0.725000X0.075000X-0.725000X0.075000X0.725000X-0.075000X0.725000X0*%
%ADD46RoundRect,0.150000X0.150000X-0.512500X0.150000X0.512500X-0.150000X0.512500X-0.150000X-0.512500X0*%
%ADD47RoundRect,0.200000X0.200000X0.450000X-0.200000X0.450000X-0.200000X-0.450000X0.200000X-0.450000X0*%
%ADD48O,0.800000X1.300000*%
%ADD49RoundRect,0.150000X0.512500X0.150000X-0.512500X0.150000X-0.512500X-0.150000X0.512500X-0.150000X0*%
%ADD50R,0.700000X1.750000*%
%ADD51R,1.450000X1.000000*%
%ADD52R,1.000000X1.550000*%
%ADD53R,0.800000X1.500000*%
%ADD54R,1.300000X1.500000*%
%ADD55R,1.500000X1.500000*%
%ADD56R,0.800000X1.400000*%
%ADD57RoundRect,0.200000X0.275000X-0.200000X0.275000X0.200000X-0.275000X0.200000X-0.275000X-0.200000X0*%
%ADD58RoundRect,0.200000X-0.200000X-0.275000X0.200000X-0.275000X0.200000X0.275000X-0.200000X0.275000X0*%
%ADD59R,1.200000X1.400000*%
%ADD60RoundRect,0.012500X0.112500X-0.325000X0.112500X0.325000X-0.112500X0.325000X-0.112500X-0.325000X0*%
%ADD61RoundRect,0.012500X0.325000X-0.112500X0.325000X0.112500X-0.325000X0.112500X-0.325000X-0.112500X0*%
%ADD62RoundRect,0.200000X-0.450000X0.200000X-0.450000X-0.200000X0.450000X-0.200000X0.450000X0.200000X0*%
%ADD63RoundRect,0.250000X-0.250000X-0.475000X0.250000X-0.475000X0.250000X0.475000X-0.250000X0.475000X0*%
%ADD64RoundRect,0.012500X0.125000X-0.112500X0.125000X0.112500X-0.125000X0.112500X-0.125000X-0.112500X0*%
%ADD65RoundRect,0.012500X0.112500X-0.125000X0.112500X0.125000X-0.112500X0.125000X-0.112500X-0.125000X0*%
%ADD66RoundRect,0.027500X0.545000X0.247500X-0.545000X0.247500X-0.545000X-0.247500X0.545000X-0.247500X0*%
%ADD67RoundRect,0.027500X0.247500X0.545000X-0.247500X0.545000X-0.247500X-0.545000X0.247500X-0.545000X0*%
%ADD68RoundRect,0.150000X0.150000X-0.650000X0.150000X0.650000X-0.150000X0.650000X-0.150000X-0.650000X0*%
%ADD69R,0.700000X0.340000*%
%ADD70RoundRect,0.250000X-0.625000X0.350000X-0.625000X-0.350000X0.625000X-0.350000X0.625000X0.350000X0*%
%ADD71O,1.750000X1.200000*%
%ADD72C,2.000000*%
%ADD73R,2.000000X2.000000*%
G04 APERTURE END LIST*
D10*
X90540000Y-26620000D02*
G75*
G03*
X90540000Y-26620000I-50000J0D01*
G01*
X86006056Y-26260000D02*
G75*
G03*
X86006056Y-26260000I-36056J0D01*
G01*
X99930623Y-30960000D02*
G75*
G03*
X99930623Y-30960000I-80623J0D01*
G01*
X91226158Y-38560000D02*
G75*
G03*
X91226158Y-38560000I-76158J0D01*
G01*
X84512111Y-42690000D02*
G75*
G03*
X84512111Y-42690000I-72111J0D01*
G01*
X114030623Y-43250000D02*
G75*
G03*
X114030623Y-43250000I-80623J0D01*
G01*
D11*
X121377619Y-68711904D02*
X122187142Y-68711904D01*
X122187142Y-68711904D02*
X122282380Y-68664285D01*
X122282380Y-68664285D02*
X122330000Y-68616666D01*
X122330000Y-68616666D02*
X122377619Y-68521428D01*
X122377619Y-68521428D02*
X122377619Y-68330952D01*
X122377619Y-68330952D02*
X122330000Y-68235714D01*
X122330000Y-68235714D02*
X122282380Y-68188095D01*
X122282380Y-68188095D02*
X122187142Y-68140476D01*
X122187142Y-68140476D02*
X121377619Y-68140476D01*
X122330000Y-67711904D02*
X122377619Y-67569047D01*
X122377619Y-67569047D02*
X122377619Y-67330952D01*
X122377619Y-67330952D02*
X122330000Y-67235714D01*
X122330000Y-67235714D02*
X122282380Y-67188095D01*
X122282380Y-67188095D02*
X122187142Y-67140476D01*
X122187142Y-67140476D02*
X122091904Y-67140476D01*
X122091904Y-67140476D02*
X121996666Y-67188095D01*
X121996666Y-67188095D02*
X121949047Y-67235714D01*
X121949047Y-67235714D02*
X121901428Y-67330952D01*
X121901428Y-67330952D02*
X121853809Y-67521428D01*
X121853809Y-67521428D02*
X121806190Y-67616666D01*
X121806190Y-67616666D02*
X121758571Y-67664285D01*
X121758571Y-67664285D02*
X121663333Y-67711904D01*
X121663333Y-67711904D02*
X121568095Y-67711904D01*
X121568095Y-67711904D02*
X121472857Y-67664285D01*
X121472857Y-67664285D02*
X121425238Y-67616666D01*
X121425238Y-67616666D02*
X121377619Y-67521428D01*
X121377619Y-67521428D02*
X121377619Y-67283333D01*
X121377619Y-67283333D02*
X121425238Y-67140476D01*
X121853809Y-66378571D02*
X121901428Y-66235714D01*
X121901428Y-66235714D02*
X121949047Y-66188095D01*
X121949047Y-66188095D02*
X122044285Y-66140476D01*
X122044285Y-66140476D02*
X122187142Y-66140476D01*
X122187142Y-66140476D02*
X122282380Y-66188095D01*
X122282380Y-66188095D02*
X122330000Y-66235714D01*
X122330000Y-66235714D02*
X122377619Y-66330952D01*
X122377619Y-66330952D02*
X122377619Y-66711904D01*
X122377619Y-66711904D02*
X121377619Y-66711904D01*
X121377619Y-66711904D02*
X121377619Y-66378571D01*
X121377619Y-66378571D02*
X121425238Y-66283333D01*
X121425238Y-66283333D02*
X121472857Y-66235714D01*
X121472857Y-66235714D02*
X121568095Y-66188095D01*
X121568095Y-66188095D02*
X121663333Y-66188095D01*
X121663333Y-66188095D02*
X121758571Y-66235714D01*
X121758571Y-66235714D02*
X121806190Y-66283333D01*
X121806190Y-66283333D02*
X121853809Y-66378571D01*
X121853809Y-66378571D02*
X121853809Y-66711904D01*
X122377619Y-64188094D02*
X121377619Y-64188094D01*
X121377619Y-64188094D02*
X121377619Y-63807142D01*
X121377619Y-63807142D02*
X121425238Y-63711904D01*
X121425238Y-63711904D02*
X121472857Y-63664285D01*
X121472857Y-63664285D02*
X121568095Y-63616666D01*
X121568095Y-63616666D02*
X121710952Y-63616666D01*
X121710952Y-63616666D02*
X121806190Y-63664285D01*
X121806190Y-63664285D02*
X121853809Y-63711904D01*
X121853809Y-63711904D02*
X121901428Y-63807142D01*
X121901428Y-63807142D02*
X121901428Y-64188094D01*
X122377619Y-63045237D02*
X122330000Y-63140475D01*
X122330000Y-63140475D02*
X122282380Y-63188094D01*
X122282380Y-63188094D02*
X122187142Y-63235713D01*
X122187142Y-63235713D02*
X121901428Y-63235713D01*
X121901428Y-63235713D02*
X121806190Y-63188094D01*
X121806190Y-63188094D02*
X121758571Y-63140475D01*
X121758571Y-63140475D02*
X121710952Y-63045237D01*
X121710952Y-63045237D02*
X121710952Y-62902380D01*
X121710952Y-62902380D02*
X121758571Y-62807142D01*
X121758571Y-62807142D02*
X121806190Y-62759523D01*
X121806190Y-62759523D02*
X121901428Y-62711904D01*
X121901428Y-62711904D02*
X122187142Y-62711904D01*
X122187142Y-62711904D02*
X122282380Y-62759523D01*
X122282380Y-62759523D02*
X122330000Y-62807142D01*
X122330000Y-62807142D02*
X122377619Y-62902380D01*
X122377619Y-62902380D02*
X122377619Y-63045237D01*
X121710952Y-62378570D02*
X122377619Y-62188094D01*
X122377619Y-62188094D02*
X121901428Y-61997618D01*
X121901428Y-61997618D02*
X122377619Y-61807142D01*
X122377619Y-61807142D02*
X121710952Y-61616666D01*
X122330000Y-60854761D02*
X122377619Y-60949999D01*
X122377619Y-60949999D02*
X122377619Y-61140475D01*
X122377619Y-61140475D02*
X122330000Y-61235713D01*
X122330000Y-61235713D02*
X122234761Y-61283332D01*
X122234761Y-61283332D02*
X121853809Y-61283332D01*
X121853809Y-61283332D02*
X121758571Y-61235713D01*
X121758571Y-61235713D02*
X121710952Y-61140475D01*
X121710952Y-61140475D02*
X121710952Y-60949999D01*
X121710952Y-60949999D02*
X121758571Y-60854761D01*
X121758571Y-60854761D02*
X121853809Y-60807142D01*
X121853809Y-60807142D02*
X121949047Y-60807142D01*
X121949047Y-60807142D02*
X122044285Y-61283332D01*
X122377619Y-60378570D02*
X121710952Y-60378570D01*
X121901428Y-60378570D02*
X121806190Y-60330951D01*
X121806190Y-60330951D02*
X121758571Y-60283332D01*
X121758571Y-60283332D02*
X121710952Y-60188094D01*
X121710952Y-60188094D02*
X121710952Y-60092856D01*
X92219047Y-63250000D02*
X92361904Y-63297619D01*
X92361904Y-63297619D02*
X92599999Y-63297619D01*
X92599999Y-63297619D02*
X92695237Y-63250000D01*
X92695237Y-63250000D02*
X92742856Y-63202380D01*
X92742856Y-63202380D02*
X92790475Y-63107142D01*
X92790475Y-63107142D02*
X92790475Y-63011904D01*
X92790475Y-63011904D02*
X92742856Y-62916666D01*
X92742856Y-62916666D02*
X92695237Y-62869047D01*
X92695237Y-62869047D02*
X92599999Y-62821428D01*
X92599999Y-62821428D02*
X92409523Y-62773809D01*
X92409523Y-62773809D02*
X92314285Y-62726190D01*
X92314285Y-62726190D02*
X92266666Y-62678571D01*
X92266666Y-62678571D02*
X92219047Y-62583333D01*
X92219047Y-62583333D02*
X92219047Y-62488095D01*
X92219047Y-62488095D02*
X92266666Y-62392857D01*
X92266666Y-62392857D02*
X92314285Y-62345238D01*
X92314285Y-62345238D02*
X92409523Y-62297619D01*
X92409523Y-62297619D02*
X92647618Y-62297619D01*
X92647618Y-62297619D02*
X92790475Y-62345238D01*
X93123809Y-62630952D02*
X93361904Y-63297619D01*
X93599999Y-62630952D02*
X93361904Y-63297619D01*
X93361904Y-63297619D02*
X93266666Y-63535714D01*
X93266666Y-63535714D02*
X93219047Y-63583333D01*
X93219047Y-63583333D02*
X93123809Y-63630952D01*
X93933333Y-63250000D02*
X94028571Y-63297619D01*
X94028571Y-63297619D02*
X94219047Y-63297619D01*
X94219047Y-63297619D02*
X94314285Y-63250000D01*
X94314285Y-63250000D02*
X94361904Y-63154761D01*
X94361904Y-63154761D02*
X94361904Y-63107142D01*
X94361904Y-63107142D02*
X94314285Y-63011904D01*
X94314285Y-63011904D02*
X94219047Y-62964285D01*
X94219047Y-62964285D02*
X94076190Y-62964285D01*
X94076190Y-62964285D02*
X93980952Y-62916666D01*
X93980952Y-62916666D02*
X93933333Y-62821428D01*
X93933333Y-62821428D02*
X93933333Y-62773809D01*
X93933333Y-62773809D02*
X93980952Y-62678571D01*
X93980952Y-62678571D02*
X94076190Y-62630952D01*
X94076190Y-62630952D02*
X94219047Y-62630952D01*
X94219047Y-62630952D02*
X94314285Y-62678571D01*
X94647619Y-62630952D02*
X95028571Y-62630952D01*
X94790476Y-62297619D02*
X94790476Y-63154761D01*
X94790476Y-63154761D02*
X94838095Y-63250000D01*
X94838095Y-63250000D02*
X94933333Y-63297619D01*
X94933333Y-63297619D02*
X95028571Y-63297619D01*
X95742857Y-63250000D02*
X95647619Y-63297619D01*
X95647619Y-63297619D02*
X95457143Y-63297619D01*
X95457143Y-63297619D02*
X95361905Y-63250000D01*
X95361905Y-63250000D02*
X95314286Y-63154761D01*
X95314286Y-63154761D02*
X95314286Y-62773809D01*
X95314286Y-62773809D02*
X95361905Y-62678571D01*
X95361905Y-62678571D02*
X95457143Y-62630952D01*
X95457143Y-62630952D02*
X95647619Y-62630952D01*
X95647619Y-62630952D02*
X95742857Y-62678571D01*
X95742857Y-62678571D02*
X95790476Y-62773809D01*
X95790476Y-62773809D02*
X95790476Y-62869047D01*
X95790476Y-62869047D02*
X95314286Y-62964285D01*
X96219048Y-63297619D02*
X96219048Y-62630952D01*
X96219048Y-62726190D02*
X96266667Y-62678571D01*
X96266667Y-62678571D02*
X96361905Y-62630952D01*
X96361905Y-62630952D02*
X96504762Y-62630952D01*
X96504762Y-62630952D02*
X96600000Y-62678571D01*
X96600000Y-62678571D02*
X96647619Y-62773809D01*
X96647619Y-62773809D02*
X96647619Y-63297619D01*
X96647619Y-62773809D02*
X96695238Y-62678571D01*
X96695238Y-62678571D02*
X96790476Y-62630952D01*
X96790476Y-62630952D02*
X96933333Y-62630952D01*
X96933333Y-62630952D02*
X97028572Y-62678571D01*
X97028572Y-62678571D02*
X97076191Y-62773809D01*
X97076191Y-62773809D02*
X97076191Y-63297619D01*
X98171429Y-62630952D02*
X98552381Y-62630952D01*
X98314286Y-63297619D02*
X98314286Y-62440476D01*
X98314286Y-62440476D02*
X98361905Y-62345238D01*
X98361905Y-62345238D02*
X98457143Y-62297619D01*
X98457143Y-62297619D02*
X98552381Y-62297619D01*
X99028572Y-63297619D02*
X98933334Y-63250000D01*
X98933334Y-63250000D02*
X98885715Y-63202380D01*
X98885715Y-63202380D02*
X98838096Y-63107142D01*
X98838096Y-63107142D02*
X98838096Y-62821428D01*
X98838096Y-62821428D02*
X98885715Y-62726190D01*
X98885715Y-62726190D02*
X98933334Y-62678571D01*
X98933334Y-62678571D02*
X99028572Y-62630952D01*
X99028572Y-62630952D02*
X99171429Y-62630952D01*
X99171429Y-62630952D02*
X99266667Y-62678571D01*
X99266667Y-62678571D02*
X99314286Y-62726190D01*
X99314286Y-62726190D02*
X99361905Y-62821428D01*
X99361905Y-62821428D02*
X99361905Y-63107142D01*
X99361905Y-63107142D02*
X99314286Y-63202380D01*
X99314286Y-63202380D02*
X99266667Y-63250000D01*
X99266667Y-63250000D02*
X99171429Y-63297619D01*
X99171429Y-63297619D02*
X99028572Y-63297619D01*
X99790477Y-63297619D02*
X99790477Y-62630952D01*
X99790477Y-62821428D02*
X99838096Y-62726190D01*
X99838096Y-62726190D02*
X99885715Y-62678571D01*
X99885715Y-62678571D02*
X99980953Y-62630952D01*
X99980953Y-62630952D02*
X100076191Y-62630952D01*
X94361904Y-63917619D02*
X94933332Y-63917619D01*
X94647618Y-64917619D02*
X94647618Y-63917619D01*
X95409523Y-64917619D02*
X95314285Y-64870000D01*
X95314285Y-64870000D02*
X95266666Y-64822380D01*
X95266666Y-64822380D02*
X95219047Y-64727142D01*
X95219047Y-64727142D02*
X95219047Y-64441428D01*
X95219047Y-64441428D02*
X95266666Y-64346190D01*
X95266666Y-64346190D02*
X95314285Y-64298571D01*
X95314285Y-64298571D02*
X95409523Y-64250952D01*
X95409523Y-64250952D02*
X95552380Y-64250952D01*
X95552380Y-64250952D02*
X95647618Y-64298571D01*
X95647618Y-64298571D02*
X95695237Y-64346190D01*
X95695237Y-64346190D02*
X95742856Y-64441428D01*
X95742856Y-64441428D02*
X95742856Y-64727142D01*
X95742856Y-64727142D02*
X95695237Y-64822380D01*
X95695237Y-64822380D02*
X95647618Y-64870000D01*
X95647618Y-64870000D02*
X95552380Y-64917619D01*
X95552380Y-64917619D02*
X95409523Y-64917619D01*
X96028571Y-64250952D02*
X96409523Y-64250952D01*
X96171428Y-63917619D02*
X96171428Y-64774761D01*
X96171428Y-64774761D02*
X96219047Y-64870000D01*
X96219047Y-64870000D02*
X96314285Y-64917619D01*
X96314285Y-64917619D02*
X96409523Y-64917619D01*
X97171428Y-64917619D02*
X97171428Y-64393809D01*
X97171428Y-64393809D02*
X97123809Y-64298571D01*
X97123809Y-64298571D02*
X97028571Y-64250952D01*
X97028571Y-64250952D02*
X96838095Y-64250952D01*
X96838095Y-64250952D02*
X96742857Y-64298571D01*
X97171428Y-64870000D02*
X97076190Y-64917619D01*
X97076190Y-64917619D02*
X96838095Y-64917619D01*
X96838095Y-64917619D02*
X96742857Y-64870000D01*
X96742857Y-64870000D02*
X96695238Y-64774761D01*
X96695238Y-64774761D02*
X96695238Y-64679523D01*
X96695238Y-64679523D02*
X96742857Y-64584285D01*
X96742857Y-64584285D02*
X96838095Y-64536666D01*
X96838095Y-64536666D02*
X97076190Y-64536666D01*
X97076190Y-64536666D02*
X97171428Y-64489047D01*
X97790476Y-64917619D02*
X97695238Y-64870000D01*
X97695238Y-64870000D02*
X97647619Y-64774761D01*
X97647619Y-64774761D02*
X97647619Y-63917619D01*
X93028571Y-66537619D02*
X92695238Y-66061428D01*
X92457143Y-66537619D02*
X92457143Y-65537619D01*
X92457143Y-65537619D02*
X92838095Y-65537619D01*
X92838095Y-65537619D02*
X92933333Y-65585238D01*
X92933333Y-65585238D02*
X92980952Y-65632857D01*
X92980952Y-65632857D02*
X93028571Y-65728095D01*
X93028571Y-65728095D02*
X93028571Y-65870952D01*
X93028571Y-65870952D02*
X92980952Y-65966190D01*
X92980952Y-65966190D02*
X92933333Y-66013809D01*
X92933333Y-66013809D02*
X92838095Y-66061428D01*
X92838095Y-66061428D02*
X92457143Y-66061428D01*
X93838095Y-66490000D02*
X93742857Y-66537619D01*
X93742857Y-66537619D02*
X93552381Y-66537619D01*
X93552381Y-66537619D02*
X93457143Y-66490000D01*
X93457143Y-66490000D02*
X93409524Y-66394761D01*
X93409524Y-66394761D02*
X93409524Y-66013809D01*
X93409524Y-66013809D02*
X93457143Y-65918571D01*
X93457143Y-65918571D02*
X93552381Y-65870952D01*
X93552381Y-65870952D02*
X93742857Y-65870952D01*
X93742857Y-65870952D02*
X93838095Y-65918571D01*
X93838095Y-65918571D02*
X93885714Y-66013809D01*
X93885714Y-66013809D02*
X93885714Y-66109047D01*
X93885714Y-66109047D02*
X93409524Y-66204285D01*
X94742857Y-66537619D02*
X94742857Y-66013809D01*
X94742857Y-66013809D02*
X94695238Y-65918571D01*
X94695238Y-65918571D02*
X94600000Y-65870952D01*
X94600000Y-65870952D02*
X94409524Y-65870952D01*
X94409524Y-65870952D02*
X94314286Y-65918571D01*
X94742857Y-66490000D02*
X94647619Y-66537619D01*
X94647619Y-66537619D02*
X94409524Y-66537619D01*
X94409524Y-66537619D02*
X94314286Y-66490000D01*
X94314286Y-66490000D02*
X94266667Y-66394761D01*
X94266667Y-66394761D02*
X94266667Y-66299523D01*
X94266667Y-66299523D02*
X94314286Y-66204285D01*
X94314286Y-66204285D02*
X94409524Y-66156666D01*
X94409524Y-66156666D02*
X94647619Y-66156666D01*
X94647619Y-66156666D02*
X94742857Y-66109047D01*
X95361905Y-66537619D02*
X95266667Y-66490000D01*
X95266667Y-66490000D02*
X95219048Y-66394761D01*
X95219048Y-66394761D02*
X95219048Y-65537619D01*
X95742858Y-66156666D02*
X96504763Y-66156666D01*
X96838096Y-65870952D02*
X97219048Y-65870952D01*
X96980953Y-65537619D02*
X96980953Y-66394761D01*
X96980953Y-66394761D02*
X97028572Y-66490000D01*
X97028572Y-66490000D02*
X97123810Y-66537619D01*
X97123810Y-66537619D02*
X97219048Y-66537619D01*
X97552382Y-66537619D02*
X97552382Y-65870952D01*
X97552382Y-65537619D02*
X97504763Y-65585238D01*
X97504763Y-65585238D02*
X97552382Y-65632857D01*
X97552382Y-65632857D02*
X97600001Y-65585238D01*
X97600001Y-65585238D02*
X97552382Y-65537619D01*
X97552382Y-65537619D02*
X97552382Y-65632857D01*
X98028572Y-66537619D02*
X98028572Y-65870952D01*
X98028572Y-65966190D02*
X98076191Y-65918571D01*
X98076191Y-65918571D02*
X98171429Y-65870952D01*
X98171429Y-65870952D02*
X98314286Y-65870952D01*
X98314286Y-65870952D02*
X98409524Y-65918571D01*
X98409524Y-65918571D02*
X98457143Y-66013809D01*
X98457143Y-66013809D02*
X98457143Y-66537619D01*
X98457143Y-66013809D02*
X98504762Y-65918571D01*
X98504762Y-65918571D02*
X98600000Y-65870952D01*
X98600000Y-65870952D02*
X98742857Y-65870952D01*
X98742857Y-65870952D02*
X98838096Y-65918571D01*
X98838096Y-65918571D02*
X98885715Y-66013809D01*
X98885715Y-66013809D02*
X98885715Y-66537619D01*
X99742857Y-66490000D02*
X99647619Y-66537619D01*
X99647619Y-66537619D02*
X99457143Y-66537619D01*
X99457143Y-66537619D02*
X99361905Y-66490000D01*
X99361905Y-66490000D02*
X99314286Y-66394761D01*
X99314286Y-66394761D02*
X99314286Y-66013809D01*
X99314286Y-66013809D02*
X99361905Y-65918571D01*
X99361905Y-65918571D02*
X99457143Y-65870952D01*
X99457143Y-65870952D02*
X99647619Y-65870952D01*
X99647619Y-65870952D02*
X99742857Y-65918571D01*
X99742857Y-65918571D02*
X99790476Y-66013809D01*
X99790476Y-66013809D02*
X99790476Y-66109047D01*
X99790476Y-66109047D02*
X99314286Y-66204285D01*
X93052381Y-68157619D02*
X93052381Y-67157619D01*
X93528571Y-67490952D02*
X93528571Y-68157619D01*
X93528571Y-67586190D02*
X93576190Y-67538571D01*
X93576190Y-67538571D02*
X93671428Y-67490952D01*
X93671428Y-67490952D02*
X93814285Y-67490952D01*
X93814285Y-67490952D02*
X93909523Y-67538571D01*
X93909523Y-67538571D02*
X93957142Y-67633809D01*
X93957142Y-67633809D02*
X93957142Y-68157619D01*
X94433333Y-67776666D02*
X95195238Y-67776666D01*
X95528571Y-67490952D02*
X95909523Y-67490952D01*
X95671428Y-68157619D02*
X95671428Y-67300476D01*
X95671428Y-67300476D02*
X95719047Y-67205238D01*
X95719047Y-67205238D02*
X95814285Y-67157619D01*
X95814285Y-67157619D02*
X95909523Y-67157619D01*
X96385714Y-68157619D02*
X96290476Y-68110000D01*
X96290476Y-68110000D02*
X96242857Y-68014761D01*
X96242857Y-68014761D02*
X96242857Y-67157619D01*
X96766667Y-68157619D02*
X96766667Y-67490952D01*
X96766667Y-67157619D02*
X96719048Y-67205238D01*
X96719048Y-67205238D02*
X96766667Y-67252857D01*
X96766667Y-67252857D02*
X96814286Y-67205238D01*
X96814286Y-67205238D02*
X96766667Y-67157619D01*
X96766667Y-67157619D02*
X96766667Y-67252857D01*
X97671428Y-67490952D02*
X97671428Y-68300476D01*
X97671428Y-68300476D02*
X97623809Y-68395714D01*
X97623809Y-68395714D02*
X97576190Y-68443333D01*
X97576190Y-68443333D02*
X97480952Y-68490952D01*
X97480952Y-68490952D02*
X97338095Y-68490952D01*
X97338095Y-68490952D02*
X97242857Y-68443333D01*
X97671428Y-68110000D02*
X97576190Y-68157619D01*
X97576190Y-68157619D02*
X97385714Y-68157619D01*
X97385714Y-68157619D02*
X97290476Y-68110000D01*
X97290476Y-68110000D02*
X97242857Y-68062380D01*
X97242857Y-68062380D02*
X97195238Y-67967142D01*
X97195238Y-67967142D02*
X97195238Y-67681428D01*
X97195238Y-67681428D02*
X97242857Y-67586190D01*
X97242857Y-67586190D02*
X97290476Y-67538571D01*
X97290476Y-67538571D02*
X97385714Y-67490952D01*
X97385714Y-67490952D02*
X97576190Y-67490952D01*
X97576190Y-67490952D02*
X97671428Y-67538571D01*
X98147619Y-68157619D02*
X98147619Y-67157619D01*
X98576190Y-68157619D02*
X98576190Y-67633809D01*
X98576190Y-67633809D02*
X98528571Y-67538571D01*
X98528571Y-67538571D02*
X98433333Y-67490952D01*
X98433333Y-67490952D02*
X98290476Y-67490952D01*
X98290476Y-67490952D02*
X98195238Y-67538571D01*
X98195238Y-67538571D02*
X98147619Y-67586190D01*
X98909524Y-67490952D02*
X99290476Y-67490952D01*
X99052381Y-67157619D02*
X99052381Y-68014761D01*
X99052381Y-68014761D02*
X99100000Y-68110000D01*
X99100000Y-68110000D02*
X99195238Y-68157619D01*
X99195238Y-68157619D02*
X99290476Y-68157619D01*
X93076190Y-69730000D02*
X92980952Y-69777619D01*
X92980952Y-69777619D02*
X92790476Y-69777619D01*
X92790476Y-69777619D02*
X92695238Y-69730000D01*
X92695238Y-69730000D02*
X92647619Y-69634761D01*
X92647619Y-69634761D02*
X92647619Y-69253809D01*
X92647619Y-69253809D02*
X92695238Y-69158571D01*
X92695238Y-69158571D02*
X92790476Y-69110952D01*
X92790476Y-69110952D02*
X92980952Y-69110952D01*
X92980952Y-69110952D02*
X93076190Y-69158571D01*
X93076190Y-69158571D02*
X93123809Y-69253809D01*
X93123809Y-69253809D02*
X93123809Y-69349047D01*
X93123809Y-69349047D02*
X92647619Y-69444285D01*
X93457143Y-68777619D02*
X94123809Y-69777619D01*
X94123809Y-68777619D02*
X93457143Y-69777619D01*
X94885714Y-69730000D02*
X94790476Y-69777619D01*
X94790476Y-69777619D02*
X94600000Y-69777619D01*
X94600000Y-69777619D02*
X94504762Y-69730000D01*
X94504762Y-69730000D02*
X94457143Y-69634761D01*
X94457143Y-69634761D02*
X94457143Y-69253809D01*
X94457143Y-69253809D02*
X94504762Y-69158571D01*
X94504762Y-69158571D02*
X94600000Y-69110952D01*
X94600000Y-69110952D02*
X94790476Y-69110952D01*
X94790476Y-69110952D02*
X94885714Y-69158571D01*
X94885714Y-69158571D02*
X94933333Y-69253809D01*
X94933333Y-69253809D02*
X94933333Y-69349047D01*
X94933333Y-69349047D02*
X94457143Y-69444285D01*
X95790476Y-69730000D02*
X95695238Y-69777619D01*
X95695238Y-69777619D02*
X95504762Y-69777619D01*
X95504762Y-69777619D02*
X95409524Y-69730000D01*
X95409524Y-69730000D02*
X95361905Y-69682380D01*
X95361905Y-69682380D02*
X95314286Y-69587142D01*
X95314286Y-69587142D02*
X95314286Y-69301428D01*
X95314286Y-69301428D02*
X95361905Y-69206190D01*
X95361905Y-69206190D02*
X95409524Y-69158571D01*
X95409524Y-69158571D02*
X95504762Y-69110952D01*
X95504762Y-69110952D02*
X95695238Y-69110952D01*
X95695238Y-69110952D02*
X95790476Y-69158571D01*
X96647619Y-69110952D02*
X96647619Y-69777619D01*
X96219048Y-69110952D02*
X96219048Y-69634761D01*
X96219048Y-69634761D02*
X96266667Y-69730000D01*
X96266667Y-69730000D02*
X96361905Y-69777619D01*
X96361905Y-69777619D02*
X96504762Y-69777619D01*
X96504762Y-69777619D02*
X96600000Y-69730000D01*
X96600000Y-69730000D02*
X96647619Y-69682380D01*
X96980953Y-69110952D02*
X97361905Y-69110952D01*
X97123810Y-68777619D02*
X97123810Y-69634761D01*
X97123810Y-69634761D02*
X97171429Y-69730000D01*
X97171429Y-69730000D02*
X97266667Y-69777619D01*
X97266667Y-69777619D02*
X97361905Y-69777619D01*
X97695239Y-69777619D02*
X97695239Y-69110952D01*
X97695239Y-68777619D02*
X97647620Y-68825238D01*
X97647620Y-68825238D02*
X97695239Y-68872857D01*
X97695239Y-68872857D02*
X97742858Y-68825238D01*
X97742858Y-68825238D02*
X97695239Y-68777619D01*
X97695239Y-68777619D02*
X97695239Y-68872857D01*
X98314286Y-69777619D02*
X98219048Y-69730000D01*
X98219048Y-69730000D02*
X98171429Y-69682380D01*
X98171429Y-69682380D02*
X98123810Y-69587142D01*
X98123810Y-69587142D02*
X98123810Y-69301428D01*
X98123810Y-69301428D02*
X98171429Y-69206190D01*
X98171429Y-69206190D02*
X98219048Y-69158571D01*
X98219048Y-69158571D02*
X98314286Y-69110952D01*
X98314286Y-69110952D02*
X98457143Y-69110952D01*
X98457143Y-69110952D02*
X98552381Y-69158571D01*
X98552381Y-69158571D02*
X98600000Y-69206190D01*
X98600000Y-69206190D02*
X98647619Y-69301428D01*
X98647619Y-69301428D02*
X98647619Y-69587142D01*
X98647619Y-69587142D02*
X98600000Y-69682380D01*
X98600000Y-69682380D02*
X98552381Y-69730000D01*
X98552381Y-69730000D02*
X98457143Y-69777619D01*
X98457143Y-69777619D02*
X98314286Y-69777619D01*
X99076191Y-69110952D02*
X99076191Y-69777619D01*
X99076191Y-69206190D02*
X99123810Y-69158571D01*
X99123810Y-69158571D02*
X99219048Y-69110952D01*
X99219048Y-69110952D02*
X99361905Y-69110952D01*
X99361905Y-69110952D02*
X99457143Y-69158571D01*
X99457143Y-69158571D02*
X99504762Y-69253809D01*
X99504762Y-69253809D02*
X99504762Y-69777619D01*
X92634761Y-58012857D02*
X92539523Y-57965238D01*
X92539523Y-57965238D02*
X92444285Y-57870000D01*
X92444285Y-57870000D02*
X92301428Y-57727142D01*
X92301428Y-57727142D02*
X92206190Y-57679523D01*
X92206190Y-57679523D02*
X92110952Y-57679523D01*
X92158571Y-57917619D02*
X92063333Y-57870000D01*
X92063333Y-57870000D02*
X91968095Y-57774761D01*
X91968095Y-57774761D02*
X91920476Y-57584285D01*
X91920476Y-57584285D02*
X91920476Y-57250952D01*
X91920476Y-57250952D02*
X91968095Y-57060476D01*
X91968095Y-57060476D02*
X92063333Y-56965238D01*
X92063333Y-56965238D02*
X92158571Y-56917619D01*
X92158571Y-56917619D02*
X92349047Y-56917619D01*
X92349047Y-56917619D02*
X92444285Y-56965238D01*
X92444285Y-56965238D02*
X92539523Y-57060476D01*
X92539523Y-57060476D02*
X92587142Y-57250952D01*
X92587142Y-57250952D02*
X92587142Y-57584285D01*
X92587142Y-57584285D02*
X92539523Y-57774761D01*
X92539523Y-57774761D02*
X92444285Y-57870000D01*
X92444285Y-57870000D02*
X92349047Y-57917619D01*
X92349047Y-57917619D02*
X92158571Y-57917619D01*
X92968095Y-57870000D02*
X93110952Y-57917619D01*
X93110952Y-57917619D02*
X93349047Y-57917619D01*
X93349047Y-57917619D02*
X93444285Y-57870000D01*
X93444285Y-57870000D02*
X93491904Y-57822380D01*
X93491904Y-57822380D02*
X93539523Y-57727142D01*
X93539523Y-57727142D02*
X93539523Y-57631904D01*
X93539523Y-57631904D02*
X93491904Y-57536666D01*
X93491904Y-57536666D02*
X93444285Y-57489047D01*
X93444285Y-57489047D02*
X93349047Y-57441428D01*
X93349047Y-57441428D02*
X93158571Y-57393809D01*
X93158571Y-57393809D02*
X93063333Y-57346190D01*
X93063333Y-57346190D02*
X93015714Y-57298571D01*
X93015714Y-57298571D02*
X92968095Y-57203333D01*
X92968095Y-57203333D02*
X92968095Y-57108095D01*
X92968095Y-57108095D02*
X93015714Y-57012857D01*
X93015714Y-57012857D02*
X93063333Y-56965238D01*
X93063333Y-56965238D02*
X93158571Y-56917619D01*
X93158571Y-56917619D02*
X93396666Y-56917619D01*
X93396666Y-56917619D02*
X93539523Y-56965238D01*
X93968095Y-57917619D02*
X93968095Y-56917619D01*
X93968095Y-56917619D02*
X94349047Y-56917619D01*
X94349047Y-56917619D02*
X94444285Y-56965238D01*
X94444285Y-56965238D02*
X94491904Y-57012857D01*
X94491904Y-57012857D02*
X94539523Y-57108095D01*
X94539523Y-57108095D02*
X94539523Y-57250952D01*
X94539523Y-57250952D02*
X94491904Y-57346190D01*
X94491904Y-57346190D02*
X94444285Y-57393809D01*
X94444285Y-57393809D02*
X94349047Y-57441428D01*
X94349047Y-57441428D02*
X93968095Y-57441428D01*
X94968095Y-57917619D02*
X94968095Y-56917619D01*
X96539523Y-57393809D02*
X96206190Y-57393809D01*
X96206190Y-57917619D02*
X96206190Y-56917619D01*
X96206190Y-56917619D02*
X96682380Y-56917619D01*
X97206190Y-57917619D02*
X97110952Y-57870000D01*
X97110952Y-57870000D02*
X97063333Y-57774761D01*
X97063333Y-57774761D02*
X97063333Y-56917619D01*
X98015714Y-57917619D02*
X98015714Y-57393809D01*
X98015714Y-57393809D02*
X97968095Y-57298571D01*
X97968095Y-57298571D02*
X97872857Y-57250952D01*
X97872857Y-57250952D02*
X97682381Y-57250952D01*
X97682381Y-57250952D02*
X97587143Y-57298571D01*
X98015714Y-57870000D02*
X97920476Y-57917619D01*
X97920476Y-57917619D02*
X97682381Y-57917619D01*
X97682381Y-57917619D02*
X97587143Y-57870000D01*
X97587143Y-57870000D02*
X97539524Y-57774761D01*
X97539524Y-57774761D02*
X97539524Y-57679523D01*
X97539524Y-57679523D02*
X97587143Y-57584285D01*
X97587143Y-57584285D02*
X97682381Y-57536666D01*
X97682381Y-57536666D02*
X97920476Y-57536666D01*
X97920476Y-57536666D02*
X98015714Y-57489047D01*
X98444286Y-57870000D02*
X98539524Y-57917619D01*
X98539524Y-57917619D02*
X98730000Y-57917619D01*
X98730000Y-57917619D02*
X98825238Y-57870000D01*
X98825238Y-57870000D02*
X98872857Y-57774761D01*
X98872857Y-57774761D02*
X98872857Y-57727142D01*
X98872857Y-57727142D02*
X98825238Y-57631904D01*
X98825238Y-57631904D02*
X98730000Y-57584285D01*
X98730000Y-57584285D02*
X98587143Y-57584285D01*
X98587143Y-57584285D02*
X98491905Y-57536666D01*
X98491905Y-57536666D02*
X98444286Y-57441428D01*
X98444286Y-57441428D02*
X98444286Y-57393809D01*
X98444286Y-57393809D02*
X98491905Y-57298571D01*
X98491905Y-57298571D02*
X98587143Y-57250952D01*
X98587143Y-57250952D02*
X98730000Y-57250952D01*
X98730000Y-57250952D02*
X98825238Y-57298571D01*
X99301429Y-57917619D02*
X99301429Y-56917619D01*
X99730000Y-57917619D02*
X99730000Y-57393809D01*
X99730000Y-57393809D02*
X99682381Y-57298571D01*
X99682381Y-57298571D02*
X99587143Y-57250952D01*
X99587143Y-57250952D02*
X99444286Y-57250952D01*
X99444286Y-57250952D02*
X99349048Y-57298571D01*
X99349048Y-57298571D02*
X99301429Y-57346190D01*
X119430952Y-60027619D02*
X119335714Y-59980000D01*
X119335714Y-59980000D02*
X119288095Y-59932380D01*
X119288095Y-59932380D02*
X119240476Y-59837142D01*
X119240476Y-59837142D02*
X119240476Y-59551428D01*
X119240476Y-59551428D02*
X119288095Y-59456190D01*
X119288095Y-59456190D02*
X119335714Y-59408571D01*
X119335714Y-59408571D02*
X119430952Y-59360952D01*
X119430952Y-59360952D02*
X119573809Y-59360952D01*
X119573809Y-59360952D02*
X119669047Y-59408571D01*
X119669047Y-59408571D02*
X119716666Y-59456190D01*
X119716666Y-59456190D02*
X119764285Y-59551428D01*
X119764285Y-59551428D02*
X119764285Y-59837142D01*
X119764285Y-59837142D02*
X119716666Y-59932380D01*
X119716666Y-59932380D02*
X119669047Y-59980000D01*
X119669047Y-59980000D02*
X119573809Y-60027619D01*
X119573809Y-60027619D02*
X119430952Y-60027619D01*
X120050000Y-59360952D02*
X120430952Y-59360952D01*
X120192857Y-60027619D02*
X120192857Y-59170476D01*
X120192857Y-59170476D02*
X120240476Y-59075238D01*
X120240476Y-59075238D02*
X120335714Y-59027619D01*
X120335714Y-59027619D02*
X120430952Y-59027619D01*
X120621429Y-59360952D02*
X121002381Y-59360952D01*
X120764286Y-60027619D02*
X120764286Y-59170476D01*
X120764286Y-59170476D02*
X120811905Y-59075238D01*
X120811905Y-59075238D02*
X120907143Y-59027619D01*
X120907143Y-59027619D02*
X121002381Y-59027619D01*
X108850476Y-49740000D02*
X108993333Y-49787619D01*
X108993333Y-49787619D02*
X109231428Y-49787619D01*
X109231428Y-49787619D02*
X109326666Y-49740000D01*
X109326666Y-49740000D02*
X109374285Y-49692380D01*
X109374285Y-49692380D02*
X109421904Y-49597142D01*
X109421904Y-49597142D02*
X109421904Y-49501904D01*
X109421904Y-49501904D02*
X109374285Y-49406666D01*
X109374285Y-49406666D02*
X109326666Y-49359047D01*
X109326666Y-49359047D02*
X109231428Y-49311428D01*
X109231428Y-49311428D02*
X109040952Y-49263809D01*
X109040952Y-49263809D02*
X108945714Y-49216190D01*
X108945714Y-49216190D02*
X108898095Y-49168571D01*
X108898095Y-49168571D02*
X108850476Y-49073333D01*
X108850476Y-49073333D02*
X108850476Y-48978095D01*
X108850476Y-48978095D02*
X108898095Y-48882857D01*
X108898095Y-48882857D02*
X108945714Y-48835238D01*
X108945714Y-48835238D02*
X109040952Y-48787619D01*
X109040952Y-48787619D02*
X109279047Y-48787619D01*
X109279047Y-48787619D02*
X109421904Y-48835238D01*
X109707619Y-48787619D02*
X110279047Y-48787619D01*
X109993333Y-49787619D02*
X109993333Y-48787619D01*
X110612381Y-49787619D02*
X110612381Y-48787619D01*
X110612381Y-48787619D02*
X110945714Y-49501904D01*
X110945714Y-49501904D02*
X111279047Y-48787619D01*
X111279047Y-48787619D02*
X111279047Y-49787619D01*
X111660000Y-48787619D02*
X112279047Y-48787619D01*
X112279047Y-48787619D02*
X111945714Y-49168571D01*
X111945714Y-49168571D02*
X112088571Y-49168571D01*
X112088571Y-49168571D02*
X112183809Y-49216190D01*
X112183809Y-49216190D02*
X112231428Y-49263809D01*
X112231428Y-49263809D02*
X112279047Y-49359047D01*
X112279047Y-49359047D02*
X112279047Y-49597142D01*
X112279047Y-49597142D02*
X112231428Y-49692380D01*
X112231428Y-49692380D02*
X112183809Y-49740000D01*
X112183809Y-49740000D02*
X112088571Y-49787619D01*
X112088571Y-49787619D02*
X111802857Y-49787619D01*
X111802857Y-49787619D02*
X111707619Y-49740000D01*
X111707619Y-49740000D02*
X111660000Y-49692380D01*
X112660000Y-48882857D02*
X112707619Y-48835238D01*
X112707619Y-48835238D02*
X112802857Y-48787619D01*
X112802857Y-48787619D02*
X113040952Y-48787619D01*
X113040952Y-48787619D02*
X113136190Y-48835238D01*
X113136190Y-48835238D02*
X113183809Y-48882857D01*
X113183809Y-48882857D02*
X113231428Y-48978095D01*
X113231428Y-48978095D02*
X113231428Y-49073333D01*
X113231428Y-49073333D02*
X113183809Y-49216190D01*
X113183809Y-49216190D02*
X112612381Y-49787619D01*
X112612381Y-49787619D02*
X113231428Y-49787619D01*
X109374285Y-51407619D02*
X108898095Y-51407619D01*
X108898095Y-51407619D02*
X108898095Y-50407619D01*
X110136190Y-50740952D02*
X110136190Y-51407619D01*
X109898095Y-50360000D02*
X109660000Y-51074285D01*
X109660000Y-51074285D02*
X110279047Y-51074285D01*
X110564762Y-50407619D02*
X111231428Y-50407619D01*
X111231428Y-50407619D02*
X110802857Y-51407619D01*
X112040952Y-50407619D02*
X111850476Y-50407619D01*
X111850476Y-50407619D02*
X111755238Y-50455238D01*
X111755238Y-50455238D02*
X111707619Y-50502857D01*
X111707619Y-50502857D02*
X111612381Y-50645714D01*
X111612381Y-50645714D02*
X111564762Y-50836190D01*
X111564762Y-50836190D02*
X111564762Y-51217142D01*
X111564762Y-51217142D02*
X111612381Y-51312380D01*
X111612381Y-51312380D02*
X111660000Y-51360000D01*
X111660000Y-51360000D02*
X111755238Y-51407619D01*
X111755238Y-51407619D02*
X111945714Y-51407619D01*
X111945714Y-51407619D02*
X112040952Y-51360000D01*
X112040952Y-51360000D02*
X112088571Y-51312380D01*
X112088571Y-51312380D02*
X112136190Y-51217142D01*
X112136190Y-51217142D02*
X112136190Y-50979047D01*
X112136190Y-50979047D02*
X112088571Y-50883809D01*
X112088571Y-50883809D02*
X112040952Y-50836190D01*
X112040952Y-50836190D02*
X111945714Y-50788571D01*
X111945714Y-50788571D02*
X111755238Y-50788571D01*
X111755238Y-50788571D02*
X111660000Y-50836190D01*
X111660000Y-50836190D02*
X111612381Y-50883809D01*
X111612381Y-50883809D02*
X111564762Y-50979047D01*
X85481428Y-27733809D02*
X85624285Y-27781428D01*
X85624285Y-27781428D02*
X85671904Y-27829047D01*
X85671904Y-27829047D02*
X85719523Y-27924285D01*
X85719523Y-27924285D02*
X85719523Y-28067142D01*
X85719523Y-28067142D02*
X85671904Y-28162380D01*
X85671904Y-28162380D02*
X85624285Y-28210000D01*
X85624285Y-28210000D02*
X85529047Y-28257619D01*
X85529047Y-28257619D02*
X85148095Y-28257619D01*
X85148095Y-28257619D02*
X85148095Y-27257619D01*
X85148095Y-27257619D02*
X85481428Y-27257619D01*
X85481428Y-27257619D02*
X85576666Y-27305238D01*
X85576666Y-27305238D02*
X85624285Y-27352857D01*
X85624285Y-27352857D02*
X85671904Y-27448095D01*
X85671904Y-27448095D02*
X85671904Y-27543333D01*
X85671904Y-27543333D02*
X85624285Y-27638571D01*
X85624285Y-27638571D02*
X85576666Y-27686190D01*
X85576666Y-27686190D02*
X85481428Y-27733809D01*
X85481428Y-27733809D02*
X85148095Y-27733809D01*
X86148095Y-28257619D02*
X86148095Y-27257619D01*
X86148095Y-27257619D02*
X86481428Y-27971904D01*
X86481428Y-27971904D02*
X86814761Y-27257619D01*
X86814761Y-27257619D02*
X86814761Y-28257619D01*
X87290952Y-28257619D02*
X87290952Y-27257619D01*
X87290952Y-27257619D02*
X87671904Y-27257619D01*
X87671904Y-27257619D02*
X87767142Y-27305238D01*
X87767142Y-27305238D02*
X87814761Y-27352857D01*
X87814761Y-27352857D02*
X87862380Y-27448095D01*
X87862380Y-27448095D02*
X87862380Y-27590952D01*
X87862380Y-27590952D02*
X87814761Y-27686190D01*
X87814761Y-27686190D02*
X87767142Y-27733809D01*
X87767142Y-27733809D02*
X87671904Y-27781428D01*
X87671904Y-27781428D02*
X87290952Y-27781428D01*
X85052857Y-28877619D02*
X85671904Y-28877619D01*
X85671904Y-28877619D02*
X85338571Y-29258571D01*
X85338571Y-29258571D02*
X85481428Y-29258571D01*
X85481428Y-29258571D02*
X85576666Y-29306190D01*
X85576666Y-29306190D02*
X85624285Y-29353809D01*
X85624285Y-29353809D02*
X85671904Y-29449047D01*
X85671904Y-29449047D02*
X85671904Y-29687142D01*
X85671904Y-29687142D02*
X85624285Y-29782380D01*
X85624285Y-29782380D02*
X85576666Y-29830000D01*
X85576666Y-29830000D02*
X85481428Y-29877619D01*
X85481428Y-29877619D02*
X85195714Y-29877619D01*
X85195714Y-29877619D02*
X85100476Y-29830000D01*
X85100476Y-29830000D02*
X85052857Y-29782380D01*
X86243333Y-29306190D02*
X86148095Y-29258571D01*
X86148095Y-29258571D02*
X86100476Y-29210952D01*
X86100476Y-29210952D02*
X86052857Y-29115714D01*
X86052857Y-29115714D02*
X86052857Y-29068095D01*
X86052857Y-29068095D02*
X86100476Y-28972857D01*
X86100476Y-28972857D02*
X86148095Y-28925238D01*
X86148095Y-28925238D02*
X86243333Y-28877619D01*
X86243333Y-28877619D02*
X86433809Y-28877619D01*
X86433809Y-28877619D02*
X86529047Y-28925238D01*
X86529047Y-28925238D02*
X86576666Y-28972857D01*
X86576666Y-28972857D02*
X86624285Y-29068095D01*
X86624285Y-29068095D02*
X86624285Y-29115714D01*
X86624285Y-29115714D02*
X86576666Y-29210952D01*
X86576666Y-29210952D02*
X86529047Y-29258571D01*
X86529047Y-29258571D02*
X86433809Y-29306190D01*
X86433809Y-29306190D02*
X86243333Y-29306190D01*
X86243333Y-29306190D02*
X86148095Y-29353809D01*
X86148095Y-29353809D02*
X86100476Y-29401428D01*
X86100476Y-29401428D02*
X86052857Y-29496666D01*
X86052857Y-29496666D02*
X86052857Y-29687142D01*
X86052857Y-29687142D02*
X86100476Y-29782380D01*
X86100476Y-29782380D02*
X86148095Y-29830000D01*
X86148095Y-29830000D02*
X86243333Y-29877619D01*
X86243333Y-29877619D02*
X86433809Y-29877619D01*
X86433809Y-29877619D02*
X86529047Y-29830000D01*
X86529047Y-29830000D02*
X86576666Y-29782380D01*
X86576666Y-29782380D02*
X86624285Y-29687142D01*
X86624285Y-29687142D02*
X86624285Y-29496666D01*
X86624285Y-29496666D02*
X86576666Y-29401428D01*
X86576666Y-29401428D02*
X86529047Y-29353809D01*
X86529047Y-29353809D02*
X86433809Y-29306190D01*
X87195714Y-29306190D02*
X87100476Y-29258571D01*
X87100476Y-29258571D02*
X87052857Y-29210952D01*
X87052857Y-29210952D02*
X87005238Y-29115714D01*
X87005238Y-29115714D02*
X87005238Y-29068095D01*
X87005238Y-29068095D02*
X87052857Y-28972857D01*
X87052857Y-28972857D02*
X87100476Y-28925238D01*
X87100476Y-28925238D02*
X87195714Y-28877619D01*
X87195714Y-28877619D02*
X87386190Y-28877619D01*
X87386190Y-28877619D02*
X87481428Y-28925238D01*
X87481428Y-28925238D02*
X87529047Y-28972857D01*
X87529047Y-28972857D02*
X87576666Y-29068095D01*
X87576666Y-29068095D02*
X87576666Y-29115714D01*
X87576666Y-29115714D02*
X87529047Y-29210952D01*
X87529047Y-29210952D02*
X87481428Y-29258571D01*
X87481428Y-29258571D02*
X87386190Y-29306190D01*
X87386190Y-29306190D02*
X87195714Y-29306190D01*
X87195714Y-29306190D02*
X87100476Y-29353809D01*
X87100476Y-29353809D02*
X87052857Y-29401428D01*
X87052857Y-29401428D02*
X87005238Y-29496666D01*
X87005238Y-29496666D02*
X87005238Y-29687142D01*
X87005238Y-29687142D02*
X87052857Y-29782380D01*
X87052857Y-29782380D02*
X87100476Y-29830000D01*
X87100476Y-29830000D02*
X87195714Y-29877619D01*
X87195714Y-29877619D02*
X87386190Y-29877619D01*
X87386190Y-29877619D02*
X87481428Y-29830000D01*
X87481428Y-29830000D02*
X87529047Y-29782380D01*
X87529047Y-29782380D02*
X87576666Y-29687142D01*
X87576666Y-29687142D02*
X87576666Y-29496666D01*
X87576666Y-29496666D02*
X87529047Y-29401428D01*
X87529047Y-29401428D02*
X87481428Y-29353809D01*
X87481428Y-29353809D02*
X87386190Y-29306190D01*
X93923809Y-45027619D02*
X93923809Y-45741904D01*
X93923809Y-45741904D02*
X93876190Y-45884761D01*
X93876190Y-45884761D02*
X93780952Y-45980000D01*
X93780952Y-45980000D02*
X93638095Y-46027619D01*
X93638095Y-46027619D02*
X93542857Y-46027619D01*
X94876190Y-46027619D02*
X94400000Y-46027619D01*
X94400000Y-46027619D02*
X94400000Y-45027619D01*
X95780952Y-45932380D02*
X95733333Y-45980000D01*
X95733333Y-45980000D02*
X95590476Y-46027619D01*
X95590476Y-46027619D02*
X95495238Y-46027619D01*
X95495238Y-46027619D02*
X95352381Y-45980000D01*
X95352381Y-45980000D02*
X95257143Y-45884761D01*
X95257143Y-45884761D02*
X95209524Y-45789523D01*
X95209524Y-45789523D02*
X95161905Y-45599047D01*
X95161905Y-45599047D02*
X95161905Y-45456190D01*
X95161905Y-45456190D02*
X95209524Y-45265714D01*
X95209524Y-45265714D02*
X95257143Y-45170476D01*
X95257143Y-45170476D02*
X95352381Y-45075238D01*
X95352381Y-45075238D02*
X95495238Y-45027619D01*
X95495238Y-45027619D02*
X95590476Y-45027619D01*
X95590476Y-45027619D02*
X95733333Y-45075238D01*
X95733333Y-45075238D02*
X95780952Y-45122857D01*
X96495238Y-45027619D02*
X96495238Y-45741904D01*
X96495238Y-45741904D02*
X96447619Y-45884761D01*
X96447619Y-45884761D02*
X96352381Y-45980000D01*
X96352381Y-45980000D02*
X96209524Y-46027619D01*
X96209524Y-46027619D02*
X96114286Y-46027619D01*
X97447619Y-46027619D02*
X96971429Y-46027619D01*
X96971429Y-46027619D02*
X96971429Y-45027619D01*
X98352381Y-45932380D02*
X98304762Y-45980000D01*
X98304762Y-45980000D02*
X98161905Y-46027619D01*
X98161905Y-46027619D02*
X98066667Y-46027619D01*
X98066667Y-46027619D02*
X97923810Y-45980000D01*
X97923810Y-45980000D02*
X97828572Y-45884761D01*
X97828572Y-45884761D02*
X97780953Y-45789523D01*
X97780953Y-45789523D02*
X97733334Y-45599047D01*
X97733334Y-45599047D02*
X97733334Y-45456190D01*
X97733334Y-45456190D02*
X97780953Y-45265714D01*
X97780953Y-45265714D02*
X97828572Y-45170476D01*
X97828572Y-45170476D02*
X97923810Y-45075238D01*
X97923810Y-45075238D02*
X98066667Y-45027619D01*
X98066667Y-45027619D02*
X98161905Y-45027619D01*
X98161905Y-45027619D02*
X98304762Y-45075238D01*
X98304762Y-45075238D02*
X98352381Y-45122857D01*
X99066667Y-45027619D02*
X99066667Y-45741904D01*
X99066667Y-45741904D02*
X99019048Y-45884761D01*
X99019048Y-45884761D02*
X98923810Y-45980000D01*
X98923810Y-45980000D02*
X98780953Y-46027619D01*
X98780953Y-46027619D02*
X98685715Y-46027619D01*
X100019048Y-46027619D02*
X99542858Y-46027619D01*
X99542858Y-46027619D02*
X99542858Y-45027619D01*
X100923810Y-45932380D02*
X100876191Y-45980000D01*
X100876191Y-45980000D02*
X100733334Y-46027619D01*
X100733334Y-46027619D02*
X100638096Y-46027619D01*
X100638096Y-46027619D02*
X100495239Y-45980000D01*
X100495239Y-45980000D02*
X100400001Y-45884761D01*
X100400001Y-45884761D02*
X100352382Y-45789523D01*
X100352382Y-45789523D02*
X100304763Y-45599047D01*
X100304763Y-45599047D02*
X100304763Y-45456190D01*
X100304763Y-45456190D02*
X100352382Y-45265714D01*
X100352382Y-45265714D02*
X100400001Y-45170476D01*
X100400001Y-45170476D02*
X100495239Y-45075238D01*
X100495239Y-45075238D02*
X100638096Y-45027619D01*
X100638096Y-45027619D02*
X100733334Y-45027619D01*
X100733334Y-45027619D02*
X100876191Y-45075238D01*
X100876191Y-45075238D02*
X100923810Y-45122857D01*
X101638096Y-45027619D02*
X101638096Y-45741904D01*
X101638096Y-45741904D02*
X101590477Y-45884761D01*
X101590477Y-45884761D02*
X101495239Y-45980000D01*
X101495239Y-45980000D02*
X101352382Y-46027619D01*
X101352382Y-46027619D02*
X101257144Y-46027619D01*
X102590477Y-46027619D02*
X102114287Y-46027619D01*
X102114287Y-46027619D02*
X102114287Y-45027619D01*
X103495239Y-45932380D02*
X103447620Y-45980000D01*
X103447620Y-45980000D02*
X103304763Y-46027619D01*
X103304763Y-46027619D02*
X103209525Y-46027619D01*
X103209525Y-46027619D02*
X103066668Y-45980000D01*
X103066668Y-45980000D02*
X102971430Y-45884761D01*
X102971430Y-45884761D02*
X102923811Y-45789523D01*
X102923811Y-45789523D02*
X102876192Y-45599047D01*
X102876192Y-45599047D02*
X102876192Y-45456190D01*
X102876192Y-45456190D02*
X102923811Y-45265714D01*
X102923811Y-45265714D02*
X102971430Y-45170476D01*
X102971430Y-45170476D02*
X103066668Y-45075238D01*
X103066668Y-45075238D02*
X103209525Y-45027619D01*
X103209525Y-45027619D02*
X103304763Y-45027619D01*
X103304763Y-45027619D02*
X103447620Y-45075238D01*
X103447620Y-45075238D02*
X103495239Y-45122857D01*
X119580952Y-93127619D02*
X119485714Y-93080000D01*
X119485714Y-93080000D02*
X119438095Y-93032380D01*
X119438095Y-93032380D02*
X119390476Y-92937142D01*
X119390476Y-92937142D02*
X119390476Y-92651428D01*
X119390476Y-92651428D02*
X119438095Y-92556190D01*
X119438095Y-92556190D02*
X119485714Y-92508571D01*
X119485714Y-92508571D02*
X119580952Y-92460952D01*
X119580952Y-92460952D02*
X119723809Y-92460952D01*
X119723809Y-92460952D02*
X119819047Y-92508571D01*
X119819047Y-92508571D02*
X119866666Y-92556190D01*
X119866666Y-92556190D02*
X119914285Y-92651428D01*
X119914285Y-92651428D02*
X119914285Y-92937142D01*
X119914285Y-92937142D02*
X119866666Y-93032380D01*
X119866666Y-93032380D02*
X119819047Y-93080000D01*
X119819047Y-93080000D02*
X119723809Y-93127619D01*
X119723809Y-93127619D02*
X119580952Y-93127619D01*
X120342857Y-92460952D02*
X120342857Y-93127619D01*
X120342857Y-92556190D02*
X120390476Y-92508571D01*
X120390476Y-92508571D02*
X120485714Y-92460952D01*
X120485714Y-92460952D02*
X120628571Y-92460952D01*
X120628571Y-92460952D02*
X120723809Y-92508571D01*
X120723809Y-92508571D02*
X120771428Y-92603809D01*
X120771428Y-92603809D02*
X120771428Y-93127619D01*
X92521428Y-32513809D02*
X92664285Y-32561428D01*
X92664285Y-32561428D02*
X92711904Y-32609047D01*
X92711904Y-32609047D02*
X92759523Y-32704285D01*
X92759523Y-32704285D02*
X92759523Y-32847142D01*
X92759523Y-32847142D02*
X92711904Y-32942380D01*
X92711904Y-32942380D02*
X92664285Y-32990000D01*
X92664285Y-32990000D02*
X92569047Y-33037619D01*
X92569047Y-33037619D02*
X92188095Y-33037619D01*
X92188095Y-33037619D02*
X92188095Y-32037619D01*
X92188095Y-32037619D02*
X92521428Y-32037619D01*
X92521428Y-32037619D02*
X92616666Y-32085238D01*
X92616666Y-32085238D02*
X92664285Y-32132857D01*
X92664285Y-32132857D02*
X92711904Y-32228095D01*
X92711904Y-32228095D02*
X92711904Y-32323333D01*
X92711904Y-32323333D02*
X92664285Y-32418571D01*
X92664285Y-32418571D02*
X92616666Y-32466190D01*
X92616666Y-32466190D02*
X92521428Y-32513809D01*
X92521428Y-32513809D02*
X92188095Y-32513809D01*
X93188095Y-33037619D02*
X93188095Y-32037619D01*
X93188095Y-32037619D02*
X93521428Y-32751904D01*
X93521428Y-32751904D02*
X93854761Y-32037619D01*
X93854761Y-32037619D02*
X93854761Y-33037619D01*
X94330952Y-33037619D02*
X94330952Y-32037619D01*
X92378571Y-33657619D02*
X92473809Y-33657619D01*
X92473809Y-33657619D02*
X92569047Y-33705238D01*
X92569047Y-33705238D02*
X92616666Y-33752857D01*
X92616666Y-33752857D02*
X92664285Y-33848095D01*
X92664285Y-33848095D02*
X92711904Y-34038571D01*
X92711904Y-34038571D02*
X92711904Y-34276666D01*
X92711904Y-34276666D02*
X92664285Y-34467142D01*
X92664285Y-34467142D02*
X92616666Y-34562380D01*
X92616666Y-34562380D02*
X92569047Y-34610000D01*
X92569047Y-34610000D02*
X92473809Y-34657619D01*
X92473809Y-34657619D02*
X92378571Y-34657619D01*
X92378571Y-34657619D02*
X92283333Y-34610000D01*
X92283333Y-34610000D02*
X92235714Y-34562380D01*
X92235714Y-34562380D02*
X92188095Y-34467142D01*
X92188095Y-34467142D02*
X92140476Y-34276666D01*
X92140476Y-34276666D02*
X92140476Y-34038571D01*
X92140476Y-34038571D02*
X92188095Y-33848095D01*
X92188095Y-33848095D02*
X92235714Y-33752857D01*
X92235714Y-33752857D02*
X92283333Y-33705238D01*
X92283333Y-33705238D02*
X92378571Y-33657619D01*
X93283333Y-34086190D02*
X93188095Y-34038571D01*
X93188095Y-34038571D02*
X93140476Y-33990952D01*
X93140476Y-33990952D02*
X93092857Y-33895714D01*
X93092857Y-33895714D02*
X93092857Y-33848095D01*
X93092857Y-33848095D02*
X93140476Y-33752857D01*
X93140476Y-33752857D02*
X93188095Y-33705238D01*
X93188095Y-33705238D02*
X93283333Y-33657619D01*
X93283333Y-33657619D02*
X93473809Y-33657619D01*
X93473809Y-33657619D02*
X93569047Y-33705238D01*
X93569047Y-33705238D02*
X93616666Y-33752857D01*
X93616666Y-33752857D02*
X93664285Y-33848095D01*
X93664285Y-33848095D02*
X93664285Y-33895714D01*
X93664285Y-33895714D02*
X93616666Y-33990952D01*
X93616666Y-33990952D02*
X93569047Y-34038571D01*
X93569047Y-34038571D02*
X93473809Y-34086190D01*
X93473809Y-34086190D02*
X93283333Y-34086190D01*
X93283333Y-34086190D02*
X93188095Y-34133809D01*
X93188095Y-34133809D02*
X93140476Y-34181428D01*
X93140476Y-34181428D02*
X93092857Y-34276666D01*
X93092857Y-34276666D02*
X93092857Y-34467142D01*
X93092857Y-34467142D02*
X93140476Y-34562380D01*
X93140476Y-34562380D02*
X93188095Y-34610000D01*
X93188095Y-34610000D02*
X93283333Y-34657619D01*
X93283333Y-34657619D02*
X93473809Y-34657619D01*
X93473809Y-34657619D02*
X93569047Y-34610000D01*
X93569047Y-34610000D02*
X93616666Y-34562380D01*
X93616666Y-34562380D02*
X93664285Y-34467142D01*
X93664285Y-34467142D02*
X93664285Y-34276666D01*
X93664285Y-34276666D02*
X93616666Y-34181428D01*
X93616666Y-34181428D02*
X93569047Y-34133809D01*
X93569047Y-34133809D02*
X93473809Y-34086190D01*
X94235714Y-34086190D02*
X94140476Y-34038571D01*
X94140476Y-34038571D02*
X94092857Y-33990952D01*
X94092857Y-33990952D02*
X94045238Y-33895714D01*
X94045238Y-33895714D02*
X94045238Y-33848095D01*
X94045238Y-33848095D02*
X94092857Y-33752857D01*
X94092857Y-33752857D02*
X94140476Y-33705238D01*
X94140476Y-33705238D02*
X94235714Y-33657619D01*
X94235714Y-33657619D02*
X94426190Y-33657619D01*
X94426190Y-33657619D02*
X94521428Y-33705238D01*
X94521428Y-33705238D02*
X94569047Y-33752857D01*
X94569047Y-33752857D02*
X94616666Y-33848095D01*
X94616666Y-33848095D02*
X94616666Y-33895714D01*
X94616666Y-33895714D02*
X94569047Y-33990952D01*
X94569047Y-33990952D02*
X94521428Y-34038571D01*
X94521428Y-34038571D02*
X94426190Y-34086190D01*
X94426190Y-34086190D02*
X94235714Y-34086190D01*
X94235714Y-34086190D02*
X94140476Y-34133809D01*
X94140476Y-34133809D02*
X94092857Y-34181428D01*
X94092857Y-34181428D02*
X94045238Y-34276666D01*
X94045238Y-34276666D02*
X94045238Y-34467142D01*
X94045238Y-34467142D02*
X94092857Y-34562380D01*
X94092857Y-34562380D02*
X94140476Y-34610000D01*
X94140476Y-34610000D02*
X94235714Y-34657619D01*
X94235714Y-34657619D02*
X94426190Y-34657619D01*
X94426190Y-34657619D02*
X94521428Y-34610000D01*
X94521428Y-34610000D02*
X94569047Y-34562380D01*
X94569047Y-34562380D02*
X94616666Y-34467142D01*
X94616666Y-34467142D02*
X94616666Y-34276666D01*
X94616666Y-34276666D02*
X94569047Y-34181428D01*
X94569047Y-34181428D02*
X94521428Y-34133809D01*
X94521428Y-34133809D02*
X94426190Y-34086190D01*
X122277619Y-92861904D02*
X121277619Y-92861904D01*
X121277619Y-92861904D02*
X121991904Y-92528571D01*
X121991904Y-92528571D02*
X121277619Y-92195238D01*
X121277619Y-92195238D02*
X122277619Y-92195238D01*
X122277619Y-91290476D02*
X121753809Y-91290476D01*
X121753809Y-91290476D02*
X121658571Y-91338095D01*
X121658571Y-91338095D02*
X121610952Y-91433333D01*
X121610952Y-91433333D02*
X121610952Y-91623809D01*
X121610952Y-91623809D02*
X121658571Y-91719047D01*
X122230000Y-91290476D02*
X122277619Y-91385714D01*
X122277619Y-91385714D02*
X122277619Y-91623809D01*
X122277619Y-91623809D02*
X122230000Y-91719047D01*
X122230000Y-91719047D02*
X122134761Y-91766666D01*
X122134761Y-91766666D02*
X122039523Y-91766666D01*
X122039523Y-91766666D02*
X121944285Y-91719047D01*
X121944285Y-91719047D02*
X121896666Y-91623809D01*
X121896666Y-91623809D02*
X121896666Y-91385714D01*
X121896666Y-91385714D02*
X121849047Y-91290476D01*
X122277619Y-90814285D02*
X121610952Y-90814285D01*
X121277619Y-90814285D02*
X121325238Y-90861904D01*
X121325238Y-90861904D02*
X121372857Y-90814285D01*
X121372857Y-90814285D02*
X121325238Y-90766666D01*
X121325238Y-90766666D02*
X121277619Y-90814285D01*
X121277619Y-90814285D02*
X121372857Y-90814285D01*
X121610952Y-90338095D02*
X122277619Y-90338095D01*
X121706190Y-90338095D02*
X121658571Y-90290476D01*
X121658571Y-90290476D02*
X121610952Y-90195238D01*
X121610952Y-90195238D02*
X121610952Y-90052381D01*
X121610952Y-90052381D02*
X121658571Y-89957143D01*
X121658571Y-89957143D02*
X121753809Y-89909524D01*
X121753809Y-89909524D02*
X122277619Y-89909524D01*
X122277619Y-87909523D02*
X121277619Y-87909523D01*
X121658571Y-87909523D02*
X121610952Y-87814285D01*
X121610952Y-87814285D02*
X121610952Y-87623809D01*
X121610952Y-87623809D02*
X121658571Y-87528571D01*
X121658571Y-87528571D02*
X121706190Y-87480952D01*
X121706190Y-87480952D02*
X121801428Y-87433333D01*
X121801428Y-87433333D02*
X122087142Y-87433333D01*
X122087142Y-87433333D02*
X122182380Y-87480952D01*
X122182380Y-87480952D02*
X122230000Y-87528571D01*
X122230000Y-87528571D02*
X122277619Y-87623809D01*
X122277619Y-87623809D02*
X122277619Y-87814285D01*
X122277619Y-87814285D02*
X122230000Y-87909523D01*
X122277619Y-86576190D02*
X121753809Y-86576190D01*
X121753809Y-86576190D02*
X121658571Y-86623809D01*
X121658571Y-86623809D02*
X121610952Y-86719047D01*
X121610952Y-86719047D02*
X121610952Y-86909523D01*
X121610952Y-86909523D02*
X121658571Y-87004761D01*
X122230000Y-86576190D02*
X122277619Y-86671428D01*
X122277619Y-86671428D02*
X122277619Y-86909523D01*
X122277619Y-86909523D02*
X122230000Y-87004761D01*
X122230000Y-87004761D02*
X122134761Y-87052380D01*
X122134761Y-87052380D02*
X122039523Y-87052380D01*
X122039523Y-87052380D02*
X121944285Y-87004761D01*
X121944285Y-87004761D02*
X121896666Y-86909523D01*
X121896666Y-86909523D02*
X121896666Y-86671428D01*
X121896666Y-86671428D02*
X121849047Y-86576190D01*
X121610952Y-86242856D02*
X121610952Y-85861904D01*
X121277619Y-86099999D02*
X122134761Y-86099999D01*
X122134761Y-86099999D02*
X122230000Y-86052380D01*
X122230000Y-86052380D02*
X122277619Y-85957142D01*
X122277619Y-85957142D02*
X122277619Y-85861904D01*
X121610952Y-85671427D02*
X121610952Y-85290475D01*
X121277619Y-85528570D02*
X122134761Y-85528570D01*
X122134761Y-85528570D02*
X122230000Y-85480951D01*
X122230000Y-85480951D02*
X122277619Y-85385713D01*
X122277619Y-85385713D02*
X122277619Y-85290475D01*
X122230000Y-84576189D02*
X122277619Y-84671427D01*
X122277619Y-84671427D02*
X122277619Y-84861903D01*
X122277619Y-84861903D02*
X122230000Y-84957141D01*
X122230000Y-84957141D02*
X122134761Y-85004760D01*
X122134761Y-85004760D02*
X121753809Y-85004760D01*
X121753809Y-85004760D02*
X121658571Y-84957141D01*
X121658571Y-84957141D02*
X121610952Y-84861903D01*
X121610952Y-84861903D02*
X121610952Y-84671427D01*
X121610952Y-84671427D02*
X121658571Y-84576189D01*
X121658571Y-84576189D02*
X121753809Y-84528570D01*
X121753809Y-84528570D02*
X121849047Y-84528570D01*
X121849047Y-84528570D02*
X121944285Y-85004760D01*
X122277619Y-84099998D02*
X121610952Y-84099998D01*
X121801428Y-84099998D02*
X121706190Y-84052379D01*
X121706190Y-84052379D02*
X121658571Y-84004760D01*
X121658571Y-84004760D02*
X121610952Y-83909522D01*
X121610952Y-83909522D02*
X121610952Y-83814284D01*
X121610952Y-83576188D02*
X122277619Y-83338093D01*
X121610952Y-83099998D02*
X122277619Y-83338093D01*
X122277619Y-83338093D02*
X122515714Y-83433331D01*
X122515714Y-83433331D02*
X122563333Y-83480950D01*
X122563333Y-83480950D02*
X122610952Y-83576188D01*
X119630952Y-69577619D02*
X119535714Y-69530000D01*
X119535714Y-69530000D02*
X119488095Y-69482380D01*
X119488095Y-69482380D02*
X119440476Y-69387142D01*
X119440476Y-69387142D02*
X119440476Y-69101428D01*
X119440476Y-69101428D02*
X119488095Y-69006190D01*
X119488095Y-69006190D02*
X119535714Y-68958571D01*
X119535714Y-68958571D02*
X119630952Y-68910952D01*
X119630952Y-68910952D02*
X119773809Y-68910952D01*
X119773809Y-68910952D02*
X119869047Y-68958571D01*
X119869047Y-68958571D02*
X119916666Y-69006190D01*
X119916666Y-69006190D02*
X119964285Y-69101428D01*
X119964285Y-69101428D02*
X119964285Y-69387142D01*
X119964285Y-69387142D02*
X119916666Y-69482380D01*
X119916666Y-69482380D02*
X119869047Y-69530000D01*
X119869047Y-69530000D02*
X119773809Y-69577619D01*
X119773809Y-69577619D02*
X119630952Y-69577619D01*
X120392857Y-68910952D02*
X120392857Y-69577619D01*
X120392857Y-69006190D02*
X120440476Y-68958571D01*
X120440476Y-68958571D02*
X120535714Y-68910952D01*
X120535714Y-68910952D02*
X120678571Y-68910952D01*
X120678571Y-68910952D02*
X120773809Y-68958571D01*
X120773809Y-68958571D02*
X120821428Y-69053809D01*
X120821428Y-69053809D02*
X120821428Y-69577619D01*
X98790476Y-32541904D02*
X99266666Y-32541904D01*
X98695238Y-32827619D02*
X99028571Y-31827619D01*
X99028571Y-31827619D02*
X99361904Y-32827619D01*
X99695238Y-32827619D02*
X99695238Y-31827619D01*
X99695238Y-31827619D02*
X99933333Y-31827619D01*
X99933333Y-31827619D02*
X100076190Y-31875238D01*
X100076190Y-31875238D02*
X100171428Y-31970476D01*
X100171428Y-31970476D02*
X100219047Y-32065714D01*
X100219047Y-32065714D02*
X100266666Y-32256190D01*
X100266666Y-32256190D02*
X100266666Y-32399047D01*
X100266666Y-32399047D02*
X100219047Y-32589523D01*
X100219047Y-32589523D02*
X100171428Y-32684761D01*
X100171428Y-32684761D02*
X100076190Y-32780000D01*
X100076190Y-32780000D02*
X99933333Y-32827619D01*
X99933333Y-32827619D02*
X99695238Y-32827619D01*
X100600000Y-31827619D02*
X101266666Y-32827619D01*
X101266666Y-31827619D02*
X100600000Y-32827619D01*
X102123809Y-32827619D02*
X101647619Y-32827619D01*
X101647619Y-32827619D02*
X101647619Y-31827619D01*
X98742857Y-33447619D02*
X99361904Y-33447619D01*
X99361904Y-33447619D02*
X99028571Y-33828571D01*
X99028571Y-33828571D02*
X99171428Y-33828571D01*
X99171428Y-33828571D02*
X99266666Y-33876190D01*
X99266666Y-33876190D02*
X99314285Y-33923809D01*
X99314285Y-33923809D02*
X99361904Y-34019047D01*
X99361904Y-34019047D02*
X99361904Y-34257142D01*
X99361904Y-34257142D02*
X99314285Y-34352380D01*
X99314285Y-34352380D02*
X99266666Y-34400000D01*
X99266666Y-34400000D02*
X99171428Y-34447619D01*
X99171428Y-34447619D02*
X98885714Y-34447619D01*
X98885714Y-34447619D02*
X98790476Y-34400000D01*
X98790476Y-34400000D02*
X98742857Y-34352380D01*
X99695238Y-33447619D02*
X100361904Y-33447619D01*
X100361904Y-33447619D02*
X99933333Y-34447619D01*
X101219047Y-33447619D02*
X100742857Y-33447619D01*
X100742857Y-33447619D02*
X100695238Y-33923809D01*
X100695238Y-33923809D02*
X100742857Y-33876190D01*
X100742857Y-33876190D02*
X100838095Y-33828571D01*
X100838095Y-33828571D02*
X101076190Y-33828571D01*
X101076190Y-33828571D02*
X101171428Y-33876190D01*
X101171428Y-33876190D02*
X101219047Y-33923809D01*
X101219047Y-33923809D02*
X101266666Y-34019047D01*
X101266666Y-34019047D02*
X101266666Y-34257142D01*
X101266666Y-34257142D02*
X101219047Y-34352380D01*
X101219047Y-34352380D02*
X101171428Y-34400000D01*
X101171428Y-34400000D02*
X101076190Y-34447619D01*
X101076190Y-34447619D02*
X100838095Y-34447619D01*
X100838095Y-34447619D02*
X100742857Y-34400000D01*
X100742857Y-34400000D02*
X100695238Y-34352380D01*
X119380952Y-83577619D02*
X119285714Y-83530000D01*
X119285714Y-83530000D02*
X119238095Y-83482380D01*
X119238095Y-83482380D02*
X119190476Y-83387142D01*
X119190476Y-83387142D02*
X119190476Y-83101428D01*
X119190476Y-83101428D02*
X119238095Y-83006190D01*
X119238095Y-83006190D02*
X119285714Y-82958571D01*
X119285714Y-82958571D02*
X119380952Y-82910952D01*
X119380952Y-82910952D02*
X119523809Y-82910952D01*
X119523809Y-82910952D02*
X119619047Y-82958571D01*
X119619047Y-82958571D02*
X119666666Y-83006190D01*
X119666666Y-83006190D02*
X119714285Y-83101428D01*
X119714285Y-83101428D02*
X119714285Y-83387142D01*
X119714285Y-83387142D02*
X119666666Y-83482380D01*
X119666666Y-83482380D02*
X119619047Y-83530000D01*
X119619047Y-83530000D02*
X119523809Y-83577619D01*
X119523809Y-83577619D02*
X119380952Y-83577619D01*
X120000000Y-82910952D02*
X120380952Y-82910952D01*
X120142857Y-83577619D02*
X120142857Y-82720476D01*
X120142857Y-82720476D02*
X120190476Y-82625238D01*
X120190476Y-82625238D02*
X120285714Y-82577619D01*
X120285714Y-82577619D02*
X120380952Y-82577619D01*
X120571429Y-82910952D02*
X120952381Y-82910952D01*
X120714286Y-83577619D02*
X120714286Y-82720476D01*
X120714286Y-82720476D02*
X120761905Y-82625238D01*
X120761905Y-82625238D02*
X120857143Y-82577619D01*
X120857143Y-82577619D02*
X120952381Y-82577619D01*
X103102857Y-97699523D02*
X103055238Y-97651904D01*
X103055238Y-97651904D02*
X103007619Y-97556666D01*
X103007619Y-97556666D02*
X103007619Y-97318571D01*
X103007619Y-97318571D02*
X103055238Y-97223333D01*
X103055238Y-97223333D02*
X103102857Y-97175714D01*
X103102857Y-97175714D02*
X103198095Y-97128095D01*
X103198095Y-97128095D02*
X103293333Y-97128095D01*
X103293333Y-97128095D02*
X103436190Y-97175714D01*
X103436190Y-97175714D02*
X104007619Y-97747142D01*
X104007619Y-97747142D02*
X104007619Y-97128095D01*
X103007619Y-96509047D02*
X103007619Y-96413809D01*
X103007619Y-96413809D02*
X103055238Y-96318571D01*
X103055238Y-96318571D02*
X103102857Y-96270952D01*
X103102857Y-96270952D02*
X103198095Y-96223333D01*
X103198095Y-96223333D02*
X103388571Y-96175714D01*
X103388571Y-96175714D02*
X103626666Y-96175714D01*
X103626666Y-96175714D02*
X103817142Y-96223333D01*
X103817142Y-96223333D02*
X103912380Y-96270952D01*
X103912380Y-96270952D02*
X103960000Y-96318571D01*
X103960000Y-96318571D02*
X104007619Y-96413809D01*
X104007619Y-96413809D02*
X104007619Y-96509047D01*
X104007619Y-96509047D02*
X103960000Y-96604285D01*
X103960000Y-96604285D02*
X103912380Y-96651904D01*
X103912380Y-96651904D02*
X103817142Y-96699523D01*
X103817142Y-96699523D02*
X103626666Y-96747142D01*
X103626666Y-96747142D02*
X103388571Y-96747142D01*
X103388571Y-96747142D02*
X103198095Y-96699523D01*
X103198095Y-96699523D02*
X103102857Y-96651904D01*
X103102857Y-96651904D02*
X103055238Y-96604285D01*
X103055238Y-96604285D02*
X103007619Y-96509047D01*
X103102857Y-95794761D02*
X103055238Y-95747142D01*
X103055238Y-95747142D02*
X103007619Y-95651904D01*
X103007619Y-95651904D02*
X103007619Y-95413809D01*
X103007619Y-95413809D02*
X103055238Y-95318571D01*
X103055238Y-95318571D02*
X103102857Y-95270952D01*
X103102857Y-95270952D02*
X103198095Y-95223333D01*
X103198095Y-95223333D02*
X103293333Y-95223333D01*
X103293333Y-95223333D02*
X103436190Y-95270952D01*
X103436190Y-95270952D02*
X104007619Y-95842380D01*
X104007619Y-95842380D02*
X104007619Y-95223333D01*
X103007619Y-94889999D02*
X103007619Y-94270952D01*
X103007619Y-94270952D02*
X103388571Y-94604285D01*
X103388571Y-94604285D02*
X103388571Y-94461428D01*
X103388571Y-94461428D02*
X103436190Y-94366190D01*
X103436190Y-94366190D02*
X103483809Y-94318571D01*
X103483809Y-94318571D02*
X103579047Y-94270952D01*
X103579047Y-94270952D02*
X103817142Y-94270952D01*
X103817142Y-94270952D02*
X103912380Y-94318571D01*
X103912380Y-94318571D02*
X103960000Y-94366190D01*
X103960000Y-94366190D02*
X104007619Y-94461428D01*
X104007619Y-94461428D02*
X104007619Y-94747142D01*
X104007619Y-94747142D02*
X103960000Y-94842380D01*
X103960000Y-94842380D02*
X103912380Y-94889999D01*
X102960000Y-93128095D02*
X104245714Y-93985237D01*
X104007619Y-92270952D02*
X104007619Y-92842380D01*
X104007619Y-92556666D02*
X103007619Y-92556666D01*
X103007619Y-92556666D02*
X103150476Y-92651904D01*
X103150476Y-92651904D02*
X103245714Y-92747142D01*
X103245714Y-92747142D02*
X103293333Y-92842380D01*
X104007619Y-91318571D02*
X104007619Y-91889999D01*
X104007619Y-91604285D02*
X103007619Y-91604285D01*
X103007619Y-91604285D02*
X103150476Y-91699523D01*
X103150476Y-91699523D02*
X103245714Y-91794761D01*
X103245714Y-91794761D02*
X103293333Y-91889999D01*
X102960000Y-90175714D02*
X104245714Y-91032856D01*
X104007619Y-89318571D02*
X104007619Y-89889999D01*
X104007619Y-89604285D02*
X103007619Y-89604285D01*
X103007619Y-89604285D02*
X103150476Y-89699523D01*
X103150476Y-89699523D02*
X103245714Y-89794761D01*
X103245714Y-89794761D02*
X103293333Y-89889999D01*
X103436190Y-88747142D02*
X103388571Y-88842380D01*
X103388571Y-88842380D02*
X103340952Y-88889999D01*
X103340952Y-88889999D02*
X103245714Y-88937618D01*
X103245714Y-88937618D02*
X103198095Y-88937618D01*
X103198095Y-88937618D02*
X103102857Y-88889999D01*
X103102857Y-88889999D02*
X103055238Y-88842380D01*
X103055238Y-88842380D02*
X103007619Y-88747142D01*
X103007619Y-88747142D02*
X103007619Y-88556666D01*
X103007619Y-88556666D02*
X103055238Y-88461428D01*
X103055238Y-88461428D02*
X103102857Y-88413809D01*
X103102857Y-88413809D02*
X103198095Y-88366190D01*
X103198095Y-88366190D02*
X103245714Y-88366190D01*
X103245714Y-88366190D02*
X103340952Y-88413809D01*
X103340952Y-88413809D02*
X103388571Y-88461428D01*
X103388571Y-88461428D02*
X103436190Y-88556666D01*
X103436190Y-88556666D02*
X103436190Y-88747142D01*
X103436190Y-88747142D02*
X103483809Y-88842380D01*
X103483809Y-88842380D02*
X103531428Y-88889999D01*
X103531428Y-88889999D02*
X103626666Y-88937618D01*
X103626666Y-88937618D02*
X103817142Y-88937618D01*
X103817142Y-88937618D02*
X103912380Y-88889999D01*
X103912380Y-88889999D02*
X103960000Y-88842380D01*
X103960000Y-88842380D02*
X104007619Y-88747142D01*
X104007619Y-88747142D02*
X104007619Y-88556666D01*
X104007619Y-88556666D02*
X103960000Y-88461428D01*
X103960000Y-88461428D02*
X103912380Y-88413809D01*
X103912380Y-88413809D02*
X103817142Y-88366190D01*
X103817142Y-88366190D02*
X103626666Y-88366190D01*
X103626666Y-88366190D02*
X103531428Y-88413809D01*
X103531428Y-88413809D02*
X103483809Y-88461428D01*
X103483809Y-88461428D02*
X103436190Y-88556666D01*
D12*
%TO.C,J7*%
X117865000Y-37622500D02*
X119865000Y-37622500D01*
X121765000Y-47022500D02*
X123665000Y-47022500D01*
X117865000Y-47022500D02*
X119865000Y-47022500D01*
X121765000Y-37622500D02*
X123665000Y-37622500D01*
X123665000Y-47022500D02*
X123665000Y-37622500D01*
%TO.C,D12*%
X84855000Y-72265000D02*
X84855000Y-73735000D01*
X84855000Y-73735000D02*
X87140000Y-73735000D01*
X87140000Y-72265000D02*
X84855000Y-72265000D01*
%TO.C,R3*%
X87106359Y-40110000D02*
X87413641Y-40110000D01*
X87106359Y-40870000D02*
X87413641Y-40870000D01*
%TO.C,D8*%
X84855000Y-79765000D02*
X84855000Y-81235000D01*
X84855000Y-81235000D02*
X87140000Y-81235000D01*
X87140000Y-79765000D02*
X84855000Y-79765000D01*
%TO.C,Q2*%
X90000000Y-89940000D02*
X88325000Y-89940000D01*
X90000000Y-89940000D02*
X90650000Y-89940000D01*
X90000000Y-93060000D02*
X89350000Y-93060000D01*
X90000000Y-93060000D02*
X90650000Y-93060000D01*
%TO.C,R18*%
X110472500Y-57722742D02*
X110472500Y-58197258D01*
X109427500Y-57722742D02*
X109427500Y-58197258D01*
%TO.C,R14*%
X105180000Y-79246359D02*
X105180000Y-79553641D01*
X104420000Y-79246359D02*
X104420000Y-79553641D01*
%TO.C,Q1*%
X107100000Y-60470000D02*
X108775000Y-60470000D01*
X107100000Y-60470000D02*
X106450000Y-60470000D01*
X107100000Y-57350000D02*
X107750000Y-57350000D01*
X107100000Y-57350000D02*
X106450000Y-57350000D01*
%TO.C,D9*%
X84855000Y-89515000D02*
X84855000Y-90985000D01*
X84855000Y-90985000D02*
X87140000Y-90985000D01*
X87140000Y-89515000D02*
X84855000Y-89515000D01*
%TO.C,D2*%
X113045000Y-37815000D02*
X113045000Y-36345000D01*
X113045000Y-36345000D02*
X110760000Y-36345000D01*
X110760000Y-37815000D02*
X113045000Y-37815000D01*
%TO.C,R13*%
X105180000Y-77146359D02*
X105180000Y-77453641D01*
X104420000Y-77146359D02*
X104420000Y-77453641D01*
%TO.C,C26*%
X114430000Y-63960580D02*
X114430000Y-63679420D01*
X115450000Y-63960580D02*
X115450000Y-63679420D01*
%TO.C,R9*%
X101820000Y-78753641D02*
X101820000Y-78446359D01*
X102580000Y-78753641D02*
X102580000Y-78446359D01*
%TO.C,R19*%
X116446359Y-47802500D02*
X116753641Y-47802500D01*
X116446359Y-48562500D02*
X116753641Y-48562500D01*
%TO.C,D10*%
X84855000Y-83765000D02*
X84855000Y-85235000D01*
X84855000Y-85235000D02*
X87140000Y-85235000D01*
X87140000Y-83765000D02*
X84855000Y-83765000D01*
%TO.C,R2*%
X89587258Y-46630000D02*
X89112742Y-46630000D01*
X89587258Y-45585000D02*
X89112742Y-45585000D01*
%TO.C,R59*%
X120506359Y-71120000D02*
X120813641Y-71120000D01*
X120506359Y-71880000D02*
X120813641Y-71880000D01*
%TO.C,C10*%
X86107836Y-48142500D02*
X85892164Y-48142500D01*
X86107836Y-47422500D02*
X85892164Y-47422500D01*
%TO.C,F2*%
X114380000Y-67398578D02*
X114380000Y-66881422D01*
X115800000Y-67398578D02*
X115800000Y-66881422D01*
%TO.C,C1*%
X101420000Y-26349420D02*
X101420000Y-26630580D01*
X100400000Y-26349420D02*
X100400000Y-26630580D01*
%TO.C,C8*%
X92392164Y-25510000D02*
X92607836Y-25510000D01*
X92392164Y-26230000D02*
X92607836Y-26230000D01*
%TO.C,C15*%
X94557836Y-55430000D02*
X94342164Y-55430000D01*
X94557836Y-54710000D02*
X94342164Y-54710000D01*
%TO.C,R47*%
X86186359Y-88370000D02*
X86493641Y-88370000D01*
X86186359Y-89130000D02*
X86493641Y-89130000D01*
%TO.C,R15*%
X102580000Y-72146359D02*
X102580000Y-72453641D01*
X101820000Y-72146359D02*
X101820000Y-72453641D01*
%TO.C,R35*%
X104420000Y-81853641D02*
X104420000Y-81546359D01*
X105180000Y-81853641D02*
X105180000Y-81546359D01*
%TO.C,R1*%
X111430000Y-68213641D02*
X111430000Y-67906359D01*
X112190000Y-68213641D02*
X112190000Y-67906359D01*
%TO.C,SW1*%
X119240000Y-67850000D02*
X120030000Y-67850000D01*
X121040000Y-67250000D02*
X121040000Y-61550000D01*
X118190000Y-66000000D02*
X118190000Y-64300000D01*
X121040000Y-65800000D02*
X122330000Y-65800000D01*
X122330000Y-65800000D02*
X122540000Y-65600000D01*
X122540000Y-65600000D02*
X122540000Y-64700000D01*
X122330000Y-64500000D02*
X122540000Y-64700000D01*
X122330000Y-64500000D02*
X121040000Y-64500000D01*
X118190000Y-63000000D02*
X118190000Y-62800000D01*
X120030000Y-60950000D02*
X119240000Y-60950000D01*
%TO.C,D4*%
X122145000Y-75485000D02*
X122145000Y-74015000D01*
X122145000Y-74015000D02*
X119860000Y-74015000D01*
X119860000Y-75485000D02*
X122145000Y-75485000D01*
%TO.C,R21*%
X118112258Y-36092500D02*
X117637742Y-36092500D01*
X118112258Y-35047500D02*
X117637742Y-35047500D01*
%TO.C,R53*%
X90870000Y-20033641D02*
X90870000Y-19726359D01*
X91630000Y-20033641D02*
X91630000Y-19726359D01*
%TO.C,C25*%
X113440000Y-37187836D02*
X113440000Y-36972164D01*
X114160000Y-37187836D02*
X114160000Y-36972164D01*
%TO.C,FB1*%
X86699622Y-50892500D02*
X85900378Y-50892500D01*
X86699622Y-49772500D02*
X85900378Y-49772500D01*
%TO.C,J8*%
X117110000Y-56300000D02*
X122830000Y-56300000D01*
X122830000Y-56300000D02*
X122830000Y-52815000D01*
X117110000Y-55230000D02*
X117110000Y-56300000D01*
X117410000Y-55230000D02*
X117110000Y-55230000D01*
X116820000Y-54940000D02*
X116820000Y-55440000D01*
X117120000Y-54940000D02*
X116820000Y-54940000D01*
X117410000Y-52815000D02*
X117410000Y-55230000D01*
X117410000Y-52815000D02*
X117410000Y-50400000D01*
X117110000Y-50400000D02*
X117110000Y-49330000D01*
X117410000Y-50400000D02*
X117110000Y-50400000D01*
X117110000Y-49330000D02*
X122830000Y-49330000D01*
X122830000Y-49330000D02*
X122830000Y-52815000D01*
%TO.C,C16*%
X89840000Y-49515336D02*
X89840000Y-49299664D01*
X90560000Y-49515336D02*
X90560000Y-49299664D01*
%TO.C,R37*%
X120506359Y-75770000D02*
X120813641Y-75770000D01*
X120506359Y-76530000D02*
X120813641Y-76530000D01*
%TO.C,C3*%
X89590000Y-24362164D02*
X89590000Y-24577836D01*
X88870000Y-24362164D02*
X88870000Y-24577836D01*
%TO.C,R46*%
X109823641Y-44730000D02*
X109516359Y-44730000D01*
X109823641Y-43970000D02*
X109516359Y-43970000D01*
%TO.C,R5*%
X110990000Y-67906359D02*
X110990000Y-68213641D01*
X110230000Y-67906359D02*
X110230000Y-68213641D01*
%TO.C,R17*%
X112363641Y-46230000D02*
X112056359Y-46230000D01*
X112363641Y-45470000D02*
X112056359Y-45470000D01*
%TO.C,L3*%
X105790000Y-66100000D02*
X105940000Y-66100000D01*
X105790000Y-66100000D02*
X105790000Y-61580000D01*
X110310000Y-66100000D02*
X110160000Y-66100000D01*
X110310000Y-66100000D02*
X110310000Y-61580000D01*
X105790000Y-61580000D02*
X105940000Y-61580000D01*
X110310000Y-61580000D02*
X110160000Y-61580000D01*
%TO.C,R58*%
X86186359Y-71120000D02*
X86493641Y-71120000D01*
X86186359Y-71880000D02*
X86493641Y-71880000D01*
%TO.C,D15*%
X116740000Y-57300000D02*
X116740000Y-59000000D01*
X116740000Y-57300000D02*
X119400000Y-57300000D01*
X116740000Y-59000000D02*
X119400000Y-59000000D01*
%TO.C,D13*%
X122145000Y-73735000D02*
X122145000Y-72265000D01*
X122145000Y-72265000D02*
X119860000Y-72265000D01*
X119860000Y-73735000D02*
X122145000Y-73735000D01*
%TO.C,U1*%
X92590000Y-38472500D02*
X92590000Y-39172500D01*
X92590000Y-39172500D02*
X91225000Y-39172500D01*
X92590000Y-52692500D02*
X92590000Y-51992500D01*
X93290000Y-38472500D02*
X92590000Y-38472500D01*
X93290000Y-52692500D02*
X92590000Y-52692500D01*
X106110000Y-38472500D02*
X106810000Y-38472500D01*
X106110000Y-52692500D02*
X106810000Y-52692500D01*
X106810000Y-38472500D02*
X106810000Y-39172500D01*
X106810000Y-52692500D02*
X106810000Y-51992500D01*
%TO.C,D5*%
X122145000Y-81235000D02*
X122145000Y-79765000D01*
X122145000Y-79765000D02*
X119860000Y-79765000D01*
X119860000Y-81235000D02*
X122145000Y-81235000D01*
%TO.C,C7*%
X90690000Y-36810580D02*
X90690000Y-36529420D01*
X91710000Y-36810580D02*
X91710000Y-36529420D01*
%TO.C,R39*%
X86493641Y-76530000D02*
X86186359Y-76530000D01*
X86493641Y-75770000D02*
X86186359Y-75770000D01*
%TO.C,C29*%
X86107836Y-52180000D02*
X85892164Y-52180000D01*
X86107836Y-51460000D02*
X85892164Y-51460000D01*
%TO.C,R27*%
X117803641Y-33812500D02*
X117496359Y-33812500D01*
X117803641Y-33052500D02*
X117496359Y-33052500D01*
%TO.C,R38*%
X120506359Y-81520000D02*
X120813641Y-81520000D01*
X120506359Y-82280000D02*
X120813641Y-82280000D01*
%TO.C,R33*%
X88276359Y-81520000D02*
X88583641Y-81520000D01*
X88276359Y-82280000D02*
X88583641Y-82280000D01*
%TO.C,R40*%
X86493641Y-88030000D02*
X86186359Y-88030000D01*
X86493641Y-87270000D02*
X86186359Y-87270000D01*
%TO.C,R30*%
X118373641Y-76170000D02*
X118066359Y-76170000D01*
X118373641Y-75410000D02*
X118066359Y-75410000D01*
%TO.C,R12*%
X105180000Y-74246359D02*
X105180000Y-74553641D01*
X104420000Y-74246359D02*
X104420000Y-74553641D01*
%TO.C,C12*%
X109520000Y-38932164D02*
X109520000Y-39147836D01*
X108800000Y-38932164D02*
X108800000Y-39147836D01*
%TO.C,FB3*%
X116539622Y-70460000D02*
X115740378Y-70460000D01*
X116539622Y-69340000D02*
X115740378Y-69340000D01*
%TO.C,U8*%
X113410000Y-89200000D02*
X113410000Y-91000000D01*
X113410000Y-89200000D02*
X113410000Y-88400000D01*
X116530000Y-89200000D02*
X116530000Y-90000000D01*
X116530000Y-89200000D02*
X116530000Y-88400000D01*
%TO.C,R48*%
X92080000Y-22233641D02*
X92080000Y-21926359D01*
X92840000Y-22233641D02*
X92840000Y-21926359D01*
%TO.C,R8*%
X101820000Y-81853641D02*
X101820000Y-81546359D01*
X102580000Y-81853641D02*
X102580000Y-81546359D01*
%TO.C,D14*%
X122145000Y-79485000D02*
X122145000Y-78015000D01*
X122145000Y-78015000D02*
X119860000Y-78015000D01*
X119860000Y-79485000D02*
X122145000Y-79485000D01*
%TO.C,D11*%
X84855000Y-78015000D02*
X84855000Y-79485000D01*
X84855000Y-79485000D02*
X87140000Y-79485000D01*
X87140000Y-78015000D02*
X84855000Y-78015000D01*
%TO.C,Q7*%
X117000000Y-81060000D02*
X118675000Y-81060000D01*
X117000000Y-81060000D02*
X116350000Y-81060000D01*
X117000000Y-77940000D02*
X117650000Y-77940000D01*
X117000000Y-77940000D02*
X116350000Y-77940000D01*
%TO.C,C9*%
X89740000Y-41640336D02*
X89740000Y-41424664D01*
X90460000Y-41640336D02*
X90460000Y-41424664D01*
%TO.C,D3*%
X84855000Y-91265000D02*
X84855000Y-92735000D01*
X84855000Y-92735000D02*
X87140000Y-92735000D01*
X87140000Y-91265000D02*
X84855000Y-91265000D01*
%TO.C,C4*%
X84840000Y-25447836D02*
X84840000Y-25232164D01*
X85560000Y-25447836D02*
X85560000Y-25232164D01*
%TO.C,R49*%
X92080000Y-20033641D02*
X92080000Y-19726359D01*
X92840000Y-20033641D02*
X92840000Y-19726359D01*
%TO.C,C24*%
X88340000Y-49648080D02*
X88340000Y-49366920D01*
X89360000Y-49648080D02*
X89360000Y-49366920D01*
%TO.C,R16*%
X102580000Y-74246359D02*
X102580000Y-74553641D01*
X101820000Y-74246359D02*
X101820000Y-74553641D01*
%TO.C,J3*%
X101610000Y-24360000D02*
X101610000Y-18640000D01*
X101610000Y-18640000D02*
X97500000Y-18640000D01*
X100540000Y-24360000D02*
X101610000Y-24360000D01*
X100540000Y-24060000D02*
X100540000Y-24360000D01*
X100250000Y-24650000D02*
X100750000Y-24650000D01*
X100250000Y-24350000D02*
X100250000Y-24650000D01*
X97500000Y-24060000D02*
X100540000Y-24060000D01*
X97500000Y-24060000D02*
X94460000Y-24060000D01*
X94460000Y-24360000D02*
X93390000Y-24360000D01*
X94460000Y-24060000D02*
X94460000Y-24360000D01*
X93390000Y-24360000D02*
X93390000Y-18640000D01*
X93390000Y-18640000D02*
X97500000Y-18640000D01*
%TO.C,U2*%
X111650000Y-43392500D02*
X113450000Y-43392500D01*
X111650000Y-43392500D02*
X110850000Y-43392500D01*
X111650000Y-40272500D02*
X112450000Y-40272500D01*
X111650000Y-40272500D02*
X110850000Y-40272500D01*
%TO.C,J10*%
X115605000Y-34717500D02*
X104345000Y-34717500D01*
X115605000Y-33557500D02*
X115605000Y-34717500D01*
X115605000Y-30307500D02*
X115605000Y-24707500D01*
X102845000Y-34717500D02*
X102735000Y-34717500D01*
X102735000Y-34717500D02*
X102735000Y-32907500D01*
X102735000Y-31007500D02*
X102735000Y-24707500D01*
%TO.C,R28*%
X100627500Y-62357258D02*
X100627500Y-61882742D01*
X101672500Y-62357258D02*
X101672500Y-61882742D01*
%TO.C,R20*%
X120862742Y-35047500D02*
X121337258Y-35047500D01*
X120862742Y-36092500D02*
X121337258Y-36092500D01*
%TO.C,R4*%
X102846359Y-86820000D02*
X103153641Y-86820000D01*
X102846359Y-87580000D02*
X103153641Y-87580000D01*
%TO.C,Y1*%
X87675000Y-43082500D02*
X84375000Y-43082500D01*
X84375000Y-43082500D02*
X84375000Y-47082500D01*
%TO.C,R31*%
X118693641Y-82290000D02*
X118386359Y-82290000D01*
X118693641Y-81530000D02*
X118386359Y-81530000D01*
%TO.C,R36*%
X89173641Y-89540000D02*
X88866359Y-89540000D01*
X89173641Y-88780000D02*
X88866359Y-88780000D01*
%TO.C,R52*%
X90870000Y-22233641D02*
X90870000Y-21926359D01*
X91630000Y-22233641D02*
X91630000Y-21926359D01*
%TO.C,R41*%
X86493641Y-82280000D02*
X86186359Y-82280000D01*
X86493641Y-81520000D02*
X86186359Y-81520000D01*
%TO.C,Q6*%
X117000000Y-75060000D02*
X118675000Y-75060000D01*
X117000000Y-75060000D02*
X116350000Y-75060000D01*
X117000000Y-71940000D02*
X117650000Y-71940000D01*
X117000000Y-71940000D02*
X116350000Y-71940000D01*
%TO.C,R56*%
X86186359Y-82620000D02*
X86493641Y-82620000D01*
X86186359Y-83380000D02*
X86493641Y-83380000D01*
%TO.C,R57*%
X86186359Y-76870000D02*
X86493641Y-76870000D01*
X86186359Y-77630000D02*
X86493641Y-77630000D01*
%TO.C,R45*%
X112033641Y-44730000D02*
X111726359Y-44730000D01*
X112033641Y-43970000D02*
X111726359Y-43970000D01*
%TO.C,J9*%
X117140000Y-32467500D02*
X122860000Y-32467500D01*
X122860000Y-32467500D02*
X122860000Y-28982500D01*
X117140000Y-31397500D02*
X117140000Y-32467500D01*
X117440000Y-31397500D02*
X117140000Y-31397500D01*
X116850000Y-31107500D02*
X116850000Y-31607500D01*
X117150000Y-31107500D02*
X116850000Y-31107500D01*
X117440000Y-28982500D02*
X117440000Y-31397500D01*
X117440000Y-28982500D02*
X117440000Y-26567500D01*
X117140000Y-26567500D02*
X117140000Y-25497500D01*
X117440000Y-26567500D02*
X117140000Y-26567500D01*
X117140000Y-25497500D02*
X122860000Y-25497500D01*
X122860000Y-25497500D02*
X122860000Y-28982500D01*
%TO.C,R32*%
X88286359Y-75770000D02*
X88593641Y-75770000D01*
X88286359Y-76530000D02*
X88593641Y-76530000D01*
%TO.C,R7*%
X101820000Y-83953641D02*
X101820000Y-83646359D01*
X102580000Y-83953641D02*
X102580000Y-83646359D01*
%TO.C,R50*%
X88350000Y-22203641D02*
X88350000Y-21896359D01*
X89110000Y-22203641D02*
X89110000Y-21896359D01*
%TO.C,R55*%
X89600000Y-20033641D02*
X89600000Y-19726359D01*
X90360000Y-20033641D02*
X90360000Y-19726359D01*
D13*
%TO.C,U4*%
X90630000Y-27775000D02*
X90630000Y-27065000D01*
X90630000Y-27065000D02*
X91190000Y-27065000D01*
D12*
%TO.C,R10*%
X101820000Y-76653641D02*
X101820000Y-76346359D01*
X102580000Y-76653641D02*
X102580000Y-76346359D01*
%TO.C,Q5*%
X90000000Y-77940000D02*
X88325000Y-77940000D01*
X90000000Y-77940000D02*
X90650000Y-77940000D01*
X90000000Y-81060000D02*
X89350000Y-81060000D01*
X90000000Y-81060000D02*
X90650000Y-81060000D01*
%TO.C,D6*%
X84855000Y-74015000D02*
X84855000Y-75485000D01*
X84855000Y-75485000D02*
X87140000Y-75485000D01*
X87140000Y-74015000D02*
X84855000Y-74015000D01*
%TO.C,SW2*%
X119200000Y-91520000D02*
X119990000Y-91520000D01*
X121000000Y-90920000D02*
X121000000Y-85220000D01*
X118150000Y-89670000D02*
X118150000Y-87970000D01*
X121000000Y-89470000D02*
X122290000Y-89470000D01*
X122290000Y-89470000D02*
X122500000Y-89270000D01*
X122500000Y-89270000D02*
X122500000Y-88370000D01*
X122290000Y-88170000D02*
X122500000Y-88370000D01*
X122290000Y-88170000D02*
X121000000Y-88170000D01*
X118150000Y-86670000D02*
X118150000Y-86470000D01*
X119990000Y-84620000D02*
X119200000Y-84620000D01*
%TO.C,C27*%
X112620000Y-68137836D02*
X112620000Y-67922164D01*
X113340000Y-68137836D02*
X113340000Y-67922164D01*
%TO.C,R6*%
X103153641Y-86460000D02*
X102846359Y-86460000D01*
X103153641Y-85700000D02*
X102846359Y-85700000D01*
%TO.C,R29*%
X90016359Y-82678000D02*
X90323641Y-82678000D01*
X90016359Y-83438000D02*
X90323641Y-83438000D01*
%TO.C,J5*%
X89920000Y-31230000D02*
X84200000Y-31230000D01*
X84200000Y-31230000D02*
X84200000Y-35340000D01*
X89920000Y-32300000D02*
X89920000Y-31230000D01*
X89620000Y-32300000D02*
X89920000Y-32300000D01*
X90210000Y-32590000D02*
X90210000Y-32090000D01*
X89910000Y-32590000D02*
X90210000Y-32590000D01*
X89620000Y-35340000D02*
X89620000Y-32300000D01*
X89620000Y-35340000D02*
X89620000Y-38380000D01*
X89920000Y-38380000D02*
X89920000Y-39450000D01*
X89620000Y-38380000D02*
X89920000Y-38380000D01*
X89920000Y-39450000D02*
X84200000Y-39450000D01*
X84200000Y-39450000D02*
X84200000Y-35340000D01*
%TO.C,R11*%
X105180000Y-72146359D02*
X105180000Y-72453641D01*
X104420000Y-72146359D02*
X104420000Y-72453641D01*
%TO.C,C30*%
X112018748Y-62625000D02*
X112541252Y-62625000D01*
X112018748Y-64095000D02*
X112541252Y-64095000D01*
D13*
%TO.C,U5*%
X86260000Y-24675000D02*
X86260000Y-24215000D01*
X86260000Y-24215000D02*
X86640000Y-24215000D01*
D12*
%TO.C,C28*%
X117580000Y-22129420D02*
X117580000Y-22410580D01*
X116560000Y-22129420D02*
X116560000Y-22410580D01*
%TO.C,R51*%
X88350000Y-20003641D02*
X88350000Y-19696359D01*
X89110000Y-20003641D02*
X89110000Y-19696359D01*
%TO.C,Q3*%
X90000000Y-83940000D02*
X88325000Y-83940000D01*
X90000000Y-83940000D02*
X90650000Y-83940000D01*
X90000000Y-87060000D02*
X89350000Y-87060000D01*
X90000000Y-87060000D02*
X90650000Y-87060000D01*
%TO.C,D1*%
X113685000Y-48005000D02*
X113685000Y-46535000D01*
X113685000Y-46535000D02*
X111400000Y-46535000D01*
X111400000Y-48005000D02*
X113685000Y-48005000D01*
%TO.C,C13*%
X105582836Y-55380000D02*
X105367164Y-55380000D01*
X105582836Y-54660000D02*
X105367164Y-54660000D01*
D13*
%TO.C,U3*%
X99600000Y-30660000D02*
X98800000Y-30660000D01*
X99600000Y-29760000D02*
X99600000Y-30660000D01*
D12*
%TO.C,D7*%
X84855000Y-85515000D02*
X84855000Y-86985000D01*
X84855000Y-86985000D02*
X87140000Y-86985000D01*
X87140000Y-85515000D02*
X84855000Y-85515000D01*
%TO.C,U7*%
X85775000Y-59745000D02*
X86035000Y-59745000D01*
X86035000Y-59745000D02*
X86035000Y-61420000D01*
X91225000Y-59745000D02*
X90965000Y-59745000D01*
X85775000Y-57020000D02*
X85775000Y-59745000D01*
X85775000Y-57020000D02*
X85775000Y-54295000D01*
X91225000Y-57020000D02*
X91225000Y-59745000D01*
X91225000Y-57020000D02*
X91225000Y-54295000D01*
X85775000Y-54295000D02*
X86035000Y-54295000D01*
X91225000Y-54295000D02*
X90965000Y-54295000D01*
%TO.C,C2*%
X100340000Y-29790336D02*
X100340000Y-29574664D01*
X101060000Y-29790336D02*
X101060000Y-29574664D01*
%TO.C,R26*%
X117933641Y-24860000D02*
X117626359Y-24860000D01*
X117933641Y-24100000D02*
X117626359Y-24100000D01*
%TO.C,R24*%
X111943641Y-38855000D02*
X111636359Y-38855000D01*
X111943641Y-38095000D02*
X111636359Y-38095000D01*
%TO.C,C6*%
X85942164Y-42022500D02*
X86157836Y-42022500D01*
X85942164Y-42742500D02*
X86157836Y-42742500D01*
%TO.C,R54*%
X89600000Y-22203641D02*
X89600000Y-21896359D01*
X90360000Y-22203641D02*
X90360000Y-21896359D01*
%TO.C,C5*%
X93207836Y-31380000D02*
X92992164Y-31380000D01*
X93207836Y-30660000D02*
X92992164Y-30660000D01*
%TO.C,R34*%
X90856359Y-88790000D02*
X91163641Y-88790000D01*
X90856359Y-89550000D02*
X91163641Y-89550000D01*
%TO.C,C11*%
X92190000Y-36927836D02*
X92190000Y-36712164D01*
X92910000Y-36927836D02*
X92910000Y-36712164D01*
%TO.C,R25*%
X104420000Y-83953641D02*
X104420000Y-83646359D01*
X105180000Y-83953641D02*
X105180000Y-83646359D01*
%TO.C,R60*%
X120506359Y-76870000D02*
X120813641Y-76870000D01*
X120506359Y-77630000D02*
X120813641Y-77630000D01*
%TO.C,U6*%
X112980000Y-66670000D02*
X111430000Y-66670000D01*
X111430000Y-64870000D02*
X112730000Y-64870000D01*
%TO.C,C14*%
X89790000Y-44065336D02*
X89790000Y-43849664D01*
X90510000Y-44065336D02*
X90510000Y-43849664D01*
%TO.C,Q8*%
X90000000Y-71940000D02*
X88325000Y-71940000D01*
X90000000Y-71940000D02*
X90650000Y-71940000D01*
X90000000Y-75060000D02*
X89350000Y-75060000D01*
X90000000Y-75060000D02*
X90650000Y-75060000D01*
%TD*%
%LPC*%
D14*
%TO.C,J7*%
X117165000Y-39432500D03*
X117165000Y-45212500D03*
D15*
X115720000Y-45572500D03*
X115720000Y-44772500D03*
D16*
X115720000Y-43572500D03*
X115720000Y-42572500D03*
X115720000Y-42072500D03*
X115720000Y-41072500D03*
D15*
X115720000Y-39872500D03*
X115720000Y-39072500D03*
X115720000Y-39072500D03*
X115720000Y-39872500D03*
D16*
X115720000Y-40572500D03*
X115720000Y-41572500D03*
X115720000Y-43072500D03*
X115720000Y-44072500D03*
D15*
X115720000Y-44772500D03*
X115720000Y-45572500D03*
D17*
X120815000Y-46642500D03*
D18*
X116635000Y-46642500D03*
X116635000Y-38002500D03*
D17*
X120815000Y-38002500D03*
%TD*%
D19*
%TO.C,D12*%
X85552500Y-73000000D03*
X87127500Y-73000000D03*
%TD*%
D20*
%TO.C,R3*%
X86750000Y-40490000D03*
X87770000Y-40490000D03*
%TD*%
D19*
%TO.C,D8*%
X85552500Y-80500000D03*
X87127500Y-80500000D03*
%TD*%
D21*
%TO.C,Q2*%
X89062500Y-90550000D03*
X89062500Y-92450000D03*
X90937500Y-91500000D03*
%TD*%
D22*
%TO.C,R18*%
X109950000Y-57135000D03*
X109950000Y-58785000D03*
%TD*%
D23*
%TO.C,R14*%
X104800000Y-78890000D03*
X104800000Y-79910000D03*
%TD*%
D24*
%TO.C,Q1*%
X108037500Y-59860000D03*
X108037500Y-57960000D03*
X106162500Y-58910000D03*
%TD*%
D19*
%TO.C,D9*%
X85552500Y-90250000D03*
X87127500Y-90250000D03*
%TD*%
D25*
%TO.C,D2*%
X112347500Y-37080000D03*
X110772500Y-37080000D03*
%TD*%
D23*
%TO.C,R13*%
X104800000Y-76790000D03*
X104800000Y-77810000D03*
%TD*%
D26*
%TO.C,C26*%
X114940000Y-64595000D03*
X114940000Y-63045000D03*
%TD*%
D27*
%TO.C,R9*%
X102200000Y-79110000D03*
X102200000Y-78090000D03*
%TD*%
D20*
%TO.C,R19*%
X116090000Y-48182500D03*
X117110000Y-48182500D03*
%TD*%
D19*
%TO.C,D10*%
X85552500Y-84500000D03*
X87127500Y-84500000D03*
%TD*%
D28*
%TO.C,R2*%
X90175000Y-46107500D03*
X88525000Y-46107500D03*
%TD*%
D20*
%TO.C,R59*%
X120150000Y-71500000D03*
X121170000Y-71500000D03*
%TD*%
D29*
%TO.C,C10*%
X86480000Y-47782500D03*
X85520000Y-47782500D03*
%TD*%
D30*
%TO.C,F2*%
X115090000Y-68077500D03*
X115090000Y-66202500D03*
%TD*%
D31*
%TO.C,C1*%
X100910000Y-25715000D03*
X100910000Y-27265000D03*
%TD*%
D32*
%TO.C,C8*%
X92020000Y-25870000D03*
X92980000Y-25870000D03*
%TD*%
D29*
%TO.C,C15*%
X94930000Y-55070000D03*
X93970000Y-55070000D03*
%TD*%
D20*
%TO.C,R47*%
X85830000Y-88750000D03*
X86850000Y-88750000D03*
%TD*%
D23*
%TO.C,R15*%
X102200000Y-71790000D03*
X102200000Y-72810000D03*
%TD*%
D27*
%TO.C,R35*%
X104800000Y-82210000D03*
X104800000Y-81190000D03*
%TD*%
%TO.C,R1*%
X111810000Y-68570000D03*
X111810000Y-67550000D03*
%TD*%
D33*
%TO.C,SW1*%
X118530000Y-68050000D03*
X120740000Y-68050000D03*
D34*
X119640000Y-65900000D03*
X119640000Y-62900000D03*
D33*
X118530000Y-60750000D03*
X120740000Y-60750000D03*
D35*
X117880000Y-66650000D03*
X117880000Y-63650000D03*
X117880000Y-62150000D03*
%TD*%
D25*
%TO.C,D4*%
X121447500Y-74750000D03*
X119872500Y-74750000D03*
%TD*%
D28*
%TO.C,R21*%
X118700000Y-35570000D03*
X117050000Y-35570000D03*
%TD*%
D27*
%TO.C,R53*%
X91250000Y-20390000D03*
X91250000Y-19370000D03*
%TD*%
D36*
%TO.C,C25*%
X113800000Y-37560000D03*
X113800000Y-36600000D03*
%TD*%
D37*
%TO.C,FB1*%
X87362500Y-50332500D03*
X85237500Y-50332500D03*
%TD*%
D38*
%TO.C,J8*%
X118270000Y-54690000D03*
D39*
X118270000Y-53440000D03*
X118270000Y-52190000D03*
X118270000Y-50940000D03*
%TD*%
D36*
%TO.C,C16*%
X90200000Y-49887500D03*
X90200000Y-48927500D03*
%TD*%
D20*
%TO.C,R37*%
X120150000Y-76150000D03*
X121170000Y-76150000D03*
%TD*%
D40*
%TO.C,C3*%
X89230000Y-23990000D03*
X89230000Y-24950000D03*
%TD*%
D41*
%TO.C,R46*%
X110180000Y-44350000D03*
X109160000Y-44350000D03*
%TD*%
D23*
%TO.C,R5*%
X110610000Y-67550000D03*
X110610000Y-68570000D03*
%TD*%
D41*
%TO.C,R17*%
X112720000Y-45850000D03*
X111700000Y-45850000D03*
%TD*%
D42*
%TO.C,L3*%
X108050000Y-65340000D03*
X108050000Y-62340000D03*
%TD*%
D20*
%TO.C,R58*%
X85830000Y-71500000D03*
X86850000Y-71500000D03*
%TD*%
D43*
%TO.C,D15*%
X117300000Y-58150000D03*
X119400000Y-58150000D03*
%TD*%
D25*
%TO.C,D13*%
X121447500Y-73000000D03*
X119872500Y-73000000D03*
%TD*%
D44*
%TO.C,U1*%
X92025000Y-39582500D03*
X92025000Y-40082500D03*
X92025000Y-40582500D03*
X92025000Y-41082500D03*
X92025000Y-41582500D03*
X92025000Y-42082500D03*
X92025000Y-42582500D03*
X92025000Y-43082500D03*
X92025000Y-43582500D03*
X92025000Y-44082500D03*
X92025000Y-44582500D03*
X92025000Y-45082500D03*
X92025000Y-45582500D03*
X92025000Y-46082500D03*
X92025000Y-46582500D03*
X92025000Y-47082500D03*
X92025000Y-47582500D03*
X92025000Y-48082500D03*
X92025000Y-48582500D03*
X92025000Y-49082500D03*
X92025000Y-49582500D03*
X92025000Y-50082500D03*
X92025000Y-50582500D03*
X92025000Y-51082500D03*
X92025000Y-51582500D03*
D45*
X93700000Y-53257500D03*
X94200000Y-53257500D03*
X94700000Y-53257500D03*
X95200000Y-53257500D03*
X95700000Y-53257500D03*
X96200000Y-53257500D03*
X96700000Y-53257500D03*
X97200000Y-53257500D03*
X97700000Y-53257500D03*
X98200000Y-53257500D03*
X98700000Y-53257500D03*
X99200000Y-53257500D03*
X99700000Y-53257500D03*
X100200000Y-53257500D03*
X100700000Y-53257500D03*
X101200000Y-53257500D03*
X101700000Y-53257500D03*
X102200000Y-53257500D03*
X102700000Y-53257500D03*
X103200000Y-53257500D03*
X103700000Y-53257500D03*
X104200000Y-53257500D03*
X104700000Y-53257500D03*
X105200000Y-53257500D03*
X105700000Y-53257500D03*
D44*
X107375000Y-51582500D03*
X107375000Y-51082500D03*
X107375000Y-50582500D03*
X107375000Y-50082500D03*
X107375000Y-49582500D03*
X107375000Y-49082500D03*
X107375000Y-48582500D03*
X107375000Y-48082500D03*
X107375000Y-47582500D03*
X107375000Y-47082500D03*
X107375000Y-46582500D03*
X107375000Y-46082500D03*
X107375000Y-45582500D03*
X107375000Y-45082500D03*
X107375000Y-44582500D03*
X107375000Y-44082500D03*
X107375000Y-43582500D03*
X107375000Y-43082500D03*
X107375000Y-42582500D03*
X107375000Y-42082500D03*
X107375000Y-41582500D03*
X107375000Y-41082500D03*
X107375000Y-40582500D03*
X107375000Y-40082500D03*
X107375000Y-39582500D03*
D45*
X105700000Y-37907500D03*
X105200000Y-37907500D03*
X104700000Y-37907500D03*
X104200000Y-37907500D03*
X103700000Y-37907500D03*
X103200000Y-37907500D03*
X102700000Y-37907500D03*
X102200000Y-37907500D03*
X101700000Y-37907500D03*
X101200000Y-37907500D03*
X100700000Y-37907500D03*
X100200000Y-37907500D03*
X99700000Y-37907500D03*
X99200000Y-37907500D03*
X98700000Y-37907500D03*
X98200000Y-37907500D03*
X97700000Y-37907500D03*
X97200000Y-37907500D03*
X96700000Y-37907500D03*
X96200000Y-37907500D03*
X95700000Y-37907500D03*
X95200000Y-37907500D03*
X94700000Y-37907500D03*
X94200000Y-37907500D03*
X93700000Y-37907500D03*
%TD*%
D25*
%TO.C,D5*%
X121447500Y-80500000D03*
X119872500Y-80500000D03*
%TD*%
D26*
%TO.C,C7*%
X91200000Y-37445000D03*
X91200000Y-35895000D03*
%TD*%
D41*
%TO.C,R39*%
X86850000Y-76150000D03*
X85830000Y-76150000D03*
%TD*%
D29*
%TO.C,C29*%
X86480000Y-51820000D03*
X85520000Y-51820000D03*
%TD*%
D41*
%TO.C,R27*%
X118160000Y-33432500D03*
X117140000Y-33432500D03*
%TD*%
D20*
%TO.C,R38*%
X120150000Y-81900000D03*
X121170000Y-81900000D03*
%TD*%
%TO.C,R33*%
X87920000Y-81900000D03*
X88940000Y-81900000D03*
%TD*%
D41*
%TO.C,R40*%
X86850000Y-87650000D03*
X85830000Y-87650000D03*
%TD*%
%TO.C,R30*%
X118730000Y-75790000D03*
X117710000Y-75790000D03*
%TD*%
D23*
%TO.C,R12*%
X104800000Y-73890000D03*
X104800000Y-74910000D03*
%TD*%
D40*
%TO.C,C12*%
X109160000Y-38560000D03*
X109160000Y-39520000D03*
%TD*%
D37*
%TO.C,FB3*%
X117202500Y-69900000D03*
X115077500Y-69900000D03*
%TD*%
D46*
%TO.C,U8*%
X114020000Y-90337500D03*
X114970000Y-90337500D03*
X115920000Y-90337500D03*
X115920000Y-88062500D03*
X114020000Y-88062500D03*
%TD*%
D27*
%TO.C,R48*%
X92460000Y-22590000D03*
X92460000Y-21570000D03*
%TD*%
%TO.C,R8*%
X102200000Y-82210000D03*
X102200000Y-81190000D03*
%TD*%
D25*
%TO.C,D14*%
X121447500Y-78750000D03*
X119872500Y-78750000D03*
%TD*%
D19*
%TO.C,D11*%
X85552500Y-78750000D03*
X87127500Y-78750000D03*
%TD*%
D24*
%TO.C,Q7*%
X117937500Y-80450000D03*
X117937500Y-78550000D03*
X116062500Y-79500000D03*
%TD*%
D36*
%TO.C,C9*%
X90100000Y-42012500D03*
X90100000Y-41052500D03*
%TD*%
D19*
%TO.C,D3*%
X85552500Y-92000000D03*
X87127500Y-92000000D03*
%TD*%
D36*
%TO.C,C4*%
X85200000Y-25820000D03*
X85200000Y-24860000D03*
%TD*%
D27*
%TO.C,R49*%
X92460000Y-20390000D03*
X92460000Y-19370000D03*
%TD*%
D26*
%TO.C,C24*%
X88850000Y-50282500D03*
X88850000Y-48732500D03*
%TD*%
D23*
%TO.C,R16*%
X102200000Y-73890000D03*
X102200000Y-74910000D03*
%TD*%
D47*
%TO.C,J3*%
X100000000Y-23200000D03*
D48*
X98750000Y-23200000D03*
X97500000Y-23200000D03*
X96250000Y-23200000D03*
X95000000Y-23200000D03*
%TD*%
D49*
%TO.C,U2*%
X112787500Y-42782500D03*
X112787500Y-41832500D03*
X112787500Y-40882500D03*
X110512500Y-40882500D03*
X110512500Y-41832500D03*
X110512500Y-42782500D03*
%TD*%
D50*
%TO.C,J10*%
X105995000Y-23582500D03*
X107095000Y-23582500D03*
X108195000Y-23582500D03*
X109295000Y-23582500D03*
X110395000Y-23582500D03*
X111495000Y-23582500D03*
X112595000Y-23582500D03*
X113695000Y-23582500D03*
D51*
X114820000Y-32807500D03*
D52*
X103595000Y-34382500D03*
D53*
X115145000Y-31307500D03*
D54*
X114895000Y-23707500D03*
D55*
X103545000Y-23707500D03*
D56*
X103195000Y-31957500D03*
%TD*%
D57*
%TO.C,R28*%
X101150000Y-62945000D03*
X101150000Y-61295000D03*
%TD*%
D58*
%TO.C,R20*%
X120275000Y-35570000D03*
X121925000Y-35570000D03*
%TD*%
D20*
%TO.C,R4*%
X102490000Y-87200000D03*
X103510000Y-87200000D03*
%TD*%
D59*
%TO.C,Y1*%
X85175000Y-43982500D03*
X85175000Y-46182500D03*
X86875000Y-46182500D03*
X86875000Y-43982500D03*
%TD*%
D41*
%TO.C,R31*%
X119050000Y-81910000D03*
X118030000Y-81910000D03*
%TD*%
%TO.C,R36*%
X89530000Y-89160000D03*
X88510000Y-89160000D03*
%TD*%
D27*
%TO.C,R52*%
X91250000Y-22590000D03*
X91250000Y-21570000D03*
%TD*%
D41*
%TO.C,R41*%
X86850000Y-81900000D03*
X85830000Y-81900000D03*
%TD*%
D24*
%TO.C,Q6*%
X117937500Y-74450000D03*
X117937500Y-72550000D03*
X116062500Y-73500000D03*
%TD*%
D20*
%TO.C,R56*%
X85830000Y-83000000D03*
X86850000Y-83000000D03*
%TD*%
%TO.C,R57*%
X85830000Y-77250000D03*
X86850000Y-77250000D03*
%TD*%
D41*
%TO.C,R45*%
X112390000Y-44350000D03*
X111370000Y-44350000D03*
%TD*%
D38*
%TO.C,J9*%
X118300000Y-30857500D03*
D39*
X118300000Y-29607500D03*
X118300000Y-28357500D03*
X118300000Y-27107500D03*
%TD*%
D20*
%TO.C,R32*%
X87930000Y-76150000D03*
X88950000Y-76150000D03*
%TD*%
D27*
%TO.C,R7*%
X102200000Y-84310000D03*
X102200000Y-83290000D03*
%TD*%
%TO.C,R50*%
X88730000Y-22560000D03*
X88730000Y-21540000D03*
%TD*%
%TO.C,R55*%
X89980000Y-20390000D03*
X89980000Y-19370000D03*
%TD*%
D60*
%TO.C,U4*%
X91490000Y-27380000D03*
X91990000Y-27380000D03*
X92490000Y-27380000D03*
X92990000Y-27380000D03*
X93490000Y-27380000D03*
X93990000Y-27380000D03*
X94490000Y-27380000D03*
D61*
X95002500Y-28642500D03*
D60*
X94490000Y-29905000D03*
X93990000Y-29905000D03*
X93490000Y-29905000D03*
X92990000Y-29905000D03*
X92490000Y-29905000D03*
X91990000Y-29905000D03*
X91490000Y-29905000D03*
D61*
X90977500Y-28642500D03*
%TD*%
D27*
%TO.C,R10*%
X102200000Y-77010000D03*
X102200000Y-75990000D03*
%TD*%
D21*
%TO.C,Q5*%
X89062500Y-78550000D03*
X89062500Y-80450000D03*
X90937500Y-79500000D03*
%TD*%
D19*
%TO.C,D6*%
X85552500Y-74750000D03*
X87127500Y-74750000D03*
%TD*%
D33*
%TO.C,SW2*%
X118490000Y-91720000D03*
X120700000Y-91720000D03*
D34*
X119600000Y-89570000D03*
X119600000Y-86570000D03*
D33*
X118490000Y-84420000D03*
X120700000Y-84420000D03*
D35*
X117840000Y-90320000D03*
X117840000Y-87320000D03*
X117840000Y-85820000D03*
%TD*%
D36*
%TO.C,C27*%
X112980000Y-68510000D03*
X112980000Y-67550000D03*
%TD*%
D41*
%TO.C,R6*%
X103510000Y-86080000D03*
X102490000Y-86080000D03*
%TD*%
D20*
%TO.C,R29*%
X89660000Y-83058000D03*
X90680000Y-83058000D03*
%TD*%
D62*
%TO.C,J5*%
X88760000Y-32840000D03*
D39*
X88760000Y-34090000D03*
X88760000Y-35340000D03*
X88760000Y-36590000D03*
X88760000Y-37840000D03*
%TD*%
D23*
%TO.C,R11*%
X104800000Y-71790000D03*
X104800000Y-72810000D03*
%TD*%
D63*
%TO.C,C30*%
X111330000Y-63360000D03*
X113230000Y-63360000D03*
%TD*%
D64*
%TO.C,U5*%
X86537500Y-25002500D03*
X86537500Y-25502500D03*
D65*
X86800000Y-26015000D03*
X87300000Y-26015000D03*
X87800000Y-26015000D03*
D64*
X88062500Y-25502500D03*
X88062500Y-25002500D03*
D65*
X87800000Y-24490000D03*
X87300000Y-24490000D03*
X86800000Y-24490000D03*
%TD*%
D31*
%TO.C,C28*%
X117070000Y-21495000D03*
X117070000Y-23045000D03*
%TD*%
D27*
%TO.C,R51*%
X88730000Y-20360000D03*
X88730000Y-19340000D03*
%TD*%
D21*
%TO.C,Q3*%
X89062500Y-84550000D03*
X89062500Y-86450000D03*
X90937500Y-85500000D03*
%TD*%
D25*
%TO.C,D1*%
X112987500Y-47270000D03*
X111412500Y-47270000D03*
%TD*%
D29*
%TO.C,C13*%
X105955000Y-55020000D03*
X104995000Y-55020000D03*
%TD*%
D66*
%TO.C,U3*%
X98900000Y-30010000D03*
X98900000Y-29210000D03*
X98900000Y-28410000D03*
X98900000Y-27610000D03*
X98900000Y-26810000D03*
X98900000Y-26010000D03*
D67*
X97802500Y-25912500D03*
D66*
X96705000Y-26010000D03*
X96705000Y-26810000D03*
X96705000Y-27610000D03*
X96705000Y-28410000D03*
X96705000Y-29210000D03*
X96705000Y-30010000D03*
D67*
X97802500Y-30107500D03*
%TD*%
D19*
%TO.C,D7*%
X85552500Y-86250000D03*
X87127500Y-86250000D03*
%TD*%
D68*
%TO.C,U7*%
X86595000Y-60620000D03*
X87865000Y-60620000D03*
X89135000Y-60620000D03*
X90405000Y-60620000D03*
X90405000Y-53420000D03*
X89135000Y-53420000D03*
X87865000Y-53420000D03*
X86595000Y-53420000D03*
%TD*%
D36*
%TO.C,C2*%
X100700000Y-30162500D03*
X100700000Y-29202500D03*
%TD*%
D41*
%TO.C,R26*%
X118290000Y-24480000D03*
X117270000Y-24480000D03*
%TD*%
%TO.C,R24*%
X112300000Y-38475000D03*
X111280000Y-38475000D03*
%TD*%
D32*
%TO.C,C6*%
X85570000Y-42382500D03*
X86530000Y-42382500D03*
%TD*%
D27*
%TO.C,R54*%
X89980000Y-22560000D03*
X89980000Y-21540000D03*
%TD*%
D29*
%TO.C,C5*%
X93580000Y-31020000D03*
X92620000Y-31020000D03*
%TD*%
D20*
%TO.C,R34*%
X90500000Y-89170000D03*
X91520000Y-89170000D03*
%TD*%
D36*
%TO.C,C11*%
X92550000Y-37300000D03*
X92550000Y-36340000D03*
%TD*%
D27*
%TO.C,R25*%
X104800000Y-84310000D03*
X104800000Y-83290000D03*
%TD*%
D20*
%TO.C,R60*%
X120150000Y-77250000D03*
X121170000Y-77250000D03*
%TD*%
D69*
%TO.C,U6*%
X112830000Y-66270000D03*
X112830000Y-65770000D03*
X112830000Y-65270000D03*
X111330000Y-65270000D03*
X111330000Y-65770000D03*
X111330000Y-66270000D03*
%TD*%
D36*
%TO.C,C14*%
X90150000Y-44437500D03*
X90150000Y-43477500D03*
%TD*%
D21*
%TO.C,Q8*%
X89062500Y-72550000D03*
X89062500Y-74450000D03*
X90937500Y-73500000D03*
%TD*%
D70*
%TO.C,J4*%
X113800000Y-57900000D03*
D71*
X113800000Y-59900000D03*
%TD*%
D72*
%TO.C,J2*%
X95200000Y-95920000D03*
X100200000Y-95920000D03*
X95200000Y-92420000D03*
X100200000Y-92420000D03*
X95200000Y-88920000D03*
X100200000Y-88920000D03*
X95200000Y-85420000D03*
X100200000Y-85420000D03*
X95200000Y-81920000D03*
X100200000Y-81920000D03*
X95200000Y-78420000D03*
X100200000Y-78420000D03*
X95200000Y-74920000D03*
X100200000Y-74920000D03*
X95200000Y-71420000D03*
X100200000Y-71420000D03*
%TD*%
D73*
%TO.C,BZ1*%
X103500000Y-64590000D03*
D72*
X103500000Y-59590000D03*
%TD*%
%TO.C,J1*%
X111790000Y-71420000D03*
X106790000Y-71420000D03*
X111790000Y-74920000D03*
X106790000Y-74920000D03*
X111790000Y-78420000D03*
X106790000Y-78420000D03*
X111790000Y-81920000D03*
X106790000Y-81920000D03*
X111790000Y-85420000D03*
X106790000Y-85420000D03*
X111790000Y-88920000D03*
X106790000Y-88920000D03*
X111790000Y-92420000D03*
X106790000Y-92420000D03*
X111790000Y-95920000D03*
X106790000Y-95920000D03*
%TD*%
%LPD*%
M02*
