%TF.GenerationSoftware,KiCad,Pcbnew,7.0.2-0*%
%TF.CreationDate,2023-10-14T20:17:38-05:00*%
%TF.ProjectId,Flight Computer,466c6967-6874-4204-936f-6d7075746572,1.1*%
%TF.SameCoordinates,Original*%
%TF.FileFunction,Drillmap*%
%TF.FilePolarity,Positive*%
%FSLAX45Y45*%
G04 Gerber Fmt 4.5, Leading zero omitted, Abs format (unit mm)*
G04 Created by KiCad (PCBNEW 7.0.2-0) date 2023-10-14 20:17:38*
%MOMM*%
%LPD*%
G01*
G04 APERTURE LIST*
%ADD10C,0.100000*%
%ADD11C,0.150000*%
%ADD12C,0.200000*%
%ADD13C,0.030000*%
%ADD14C,0.050000*%
%ADD15C,0.060000*%
%ADD16C,0.075000*%
%ADD17C,0.085000*%
G04 APERTURE END LIST*
D10*
X13690000Y-14050000D02*
G75*
G03*
X13690000Y-14050000I-110000J0D01*
G01*
X16990000Y-14050000D02*
G75*
G03*
X16990000Y-14050000I-110000J0D01*
G01*
X13690000Y-6650000D02*
G75*
G03*
X13690000Y-6650000I-110000J0D01*
G01*
X16990000Y-6650000D02*
G75*
G03*
X16990000Y-6650000I-110000J0D01*
G01*
X17180000Y-6651250D02*
G75*
G03*
X16880000Y-6351250I-300000J0D01*
G01*
X13580000Y-6351250D02*
G75*
G03*
X13280000Y-6651250I0J-300000D01*
G01*
D11*
X16957600Y-6951000D02*
G75*
G03*
X16957600Y-6951000I-57600J0D01*
G01*
D10*
X16880000Y-6351250D02*
X13580000Y-6351250D01*
X16880000Y-14351250D02*
G75*
G03*
X17180000Y-14051250I0J300000D01*
G01*
X13279764Y-14039118D02*
G75*
G03*
X13580000Y-14351250I312366J-2D01*
G01*
D11*
X13652600Y-13700000D02*
G75*
G03*
X13652600Y-13700000I-57600J0D01*
G01*
X16932600Y-13710000D02*
G75*
G03*
X16932600Y-13710000I-57600J0D01*
G01*
D10*
X13580000Y-14351250D02*
X16880000Y-14351250D01*
X17180000Y-14051250D02*
X17180000Y-6651250D01*
X13280000Y-6651250D02*
X13280000Y-14039118D01*
D12*
D13*
X13345000Y-9286250D02*
X13375000Y-9316250D01*
X13375000Y-9286250D02*
X13345000Y-9316250D01*
X13347000Y-9665000D02*
X13377000Y-9695000D01*
X13377000Y-9665000D02*
X13347000Y-9695000D01*
X13380000Y-6980000D02*
X13410000Y-7010000D01*
X13410000Y-6980000D02*
X13380000Y-7010000D01*
X13390000Y-9406250D02*
X13420000Y-9436250D01*
X13420000Y-9406250D02*
X13390000Y-9436250D01*
X13407500Y-11778000D02*
X13437500Y-11808000D01*
X13437500Y-11778000D02*
X13407500Y-11808000D01*
X13407500Y-12277000D02*
X13437500Y-12307000D01*
X13437500Y-12277000D02*
X13407500Y-12307000D01*
X13407500Y-12777000D02*
X13437500Y-12807000D01*
X13437500Y-12777000D02*
X13407500Y-12807000D01*
X13407500Y-13278000D02*
X13437500Y-13308000D01*
X13437500Y-13278000D02*
X13407500Y-13308000D01*
X13478969Y-10781769D02*
X13508969Y-10811769D01*
X13508969Y-10781769D02*
X13478969Y-10811769D01*
X13505000Y-7650000D02*
X13535000Y-7680000D01*
X13535000Y-7650000D02*
X13505000Y-7680000D01*
X13505000Y-7750000D02*
X13535000Y-7780000D01*
X13535000Y-7750000D02*
X13505000Y-7780000D01*
X13510000Y-11345000D02*
X13540000Y-11375000D01*
X13540000Y-11345000D02*
X13510000Y-11375000D01*
X13518000Y-8648250D02*
X13548000Y-8678250D01*
X13548000Y-8648250D02*
X13518000Y-8678250D01*
X13525000Y-9950000D02*
X13555000Y-9980000D01*
X13555000Y-9950000D02*
X13525000Y-9980000D01*
X13543877Y-8286123D02*
X13573877Y-8316123D01*
X13573877Y-8286123D02*
X13543877Y-8316123D01*
X13582000Y-9665000D02*
X13612000Y-9695000D01*
X13612000Y-9665000D02*
X13582000Y-9695000D01*
X13620000Y-10970000D02*
X13650000Y-11000000D01*
X13650000Y-10970000D02*
X13620000Y-11000000D01*
X13620000Y-11090000D02*
X13650000Y-11120000D01*
X13650000Y-11090000D02*
X13620000Y-11120000D01*
X13620000Y-11215000D02*
X13650000Y-11245000D01*
X13650000Y-11215000D02*
X13620000Y-11245000D01*
X13620000Y-11345000D02*
X13650000Y-11375000D01*
X13650000Y-11345000D02*
X13620000Y-11375000D01*
X13657000Y-7970000D02*
X13687000Y-8000000D01*
X13687000Y-7970000D02*
X13657000Y-8000000D01*
X13665000Y-9356250D02*
X13695000Y-9386250D01*
X13695000Y-9356250D02*
X13665000Y-9386250D01*
X13720000Y-8090000D02*
X13750000Y-8120000D01*
X13750000Y-8090000D02*
X13720000Y-8120000D01*
X13725000Y-13400000D02*
X13755000Y-13430000D01*
X13755000Y-13400000D02*
X13725000Y-13430000D01*
X13730000Y-12896250D02*
X13760000Y-12926250D01*
X13760000Y-12896250D02*
X13730000Y-12926250D01*
X13735000Y-12400000D02*
X13765000Y-12430000D01*
X13765000Y-12400000D02*
X13735000Y-12430000D01*
X13750000Y-7970000D02*
X13780000Y-8000000D01*
X13780000Y-7970000D02*
X13750000Y-8000000D01*
X13755658Y-7165658D02*
X13785658Y-7195658D01*
X13785658Y-7165658D02*
X13755658Y-7195658D01*
X13780000Y-11575000D02*
X13810000Y-11605000D01*
X13810000Y-11575000D02*
X13780000Y-11605000D01*
X13810000Y-8588250D02*
X13840000Y-8618250D01*
X13840000Y-8588250D02*
X13810000Y-8618250D01*
X13810000Y-8684250D02*
X13840000Y-8714250D01*
X13840000Y-8684250D02*
X13810000Y-8714250D01*
X13820000Y-8830000D02*
X13850000Y-8860000D01*
X13850000Y-8830000D02*
X13820000Y-8860000D01*
X13820000Y-8926750D02*
X13850000Y-8956750D01*
X13850000Y-8926750D02*
X13820000Y-8956750D01*
X13860000Y-7415000D02*
X13890000Y-7445000D01*
X13890000Y-7415000D02*
X13860000Y-7445000D01*
X13875883Y-7045433D02*
X13905883Y-7075433D01*
X13905883Y-7045433D02*
X13875883Y-7075433D01*
X13890000Y-11410000D02*
X13920000Y-11440000D01*
X13920000Y-11410000D02*
X13890000Y-11440000D01*
X13890000Y-11500000D02*
X13920000Y-11530000D01*
X13920000Y-11500000D02*
X13890000Y-11530000D01*
X13897500Y-10087500D02*
X13927500Y-10117500D01*
X13927500Y-10087500D02*
X13897500Y-10117500D01*
X13905000Y-8072500D02*
X13935000Y-8102500D01*
X13935000Y-8072500D02*
X13905000Y-8102500D01*
X13905000Y-8225000D02*
X13935000Y-8255000D01*
X13935000Y-8225000D02*
X13905000Y-8255000D01*
X13930000Y-7755000D02*
X13960000Y-7785000D01*
X13960000Y-7755000D02*
X13930000Y-7785000D01*
X13930000Y-10420000D02*
X13960000Y-10450000D01*
X13960000Y-10420000D02*
X13930000Y-10450000D01*
X13940658Y-6980658D02*
X13970658Y-7010658D01*
X13970658Y-6980658D02*
X13940658Y-7010658D01*
X13949598Y-9641630D02*
X13979598Y-9671630D01*
X13979598Y-9641630D02*
X13949598Y-9671630D01*
X13965000Y-7400000D02*
X13995000Y-7430000D01*
X13995000Y-7400000D02*
X13965000Y-7430000D01*
X14060000Y-11446250D02*
X14090000Y-11476250D01*
X14090000Y-11446250D02*
X14060000Y-11476250D01*
X14065354Y-7368412D02*
X14095354Y-7398412D01*
X14095354Y-7368412D02*
X14065354Y-7398412D01*
X14067000Y-7006950D02*
X14097000Y-7036950D01*
X14097000Y-7006950D02*
X14067000Y-7036950D01*
X14130776Y-7312282D02*
X14160776Y-7342282D01*
X14160776Y-7312282D02*
X14130776Y-7342282D01*
X14131787Y-10486787D02*
X14161787Y-10516787D01*
X14161787Y-10486787D02*
X14131787Y-10516787D01*
X14145498Y-7659502D02*
X14175498Y-7689502D01*
X14175498Y-7659502D02*
X14145498Y-7689502D01*
X14157500Y-10347500D02*
X14187500Y-10377500D01*
X14187500Y-10347500D02*
X14157500Y-10377500D01*
X14163000Y-7006950D02*
X14193000Y-7036950D01*
X14193000Y-7006950D02*
X14163000Y-7036950D01*
X14175795Y-9839205D02*
X14205795Y-9869205D01*
X14205795Y-9839205D02*
X14175795Y-9869205D01*
X14185000Y-7385000D02*
X14215000Y-7415000D01*
X14215000Y-7385000D02*
X14185000Y-7415000D01*
X14185000Y-11446250D02*
X14215000Y-11476250D01*
X14215000Y-11446250D02*
X14185000Y-11476250D01*
X14244069Y-8556736D02*
X14274069Y-8586736D01*
X14274069Y-8556736D02*
X14244069Y-8586736D01*
X14244817Y-8785000D02*
X14274817Y-8815000D01*
X14274817Y-8785000D02*
X14244817Y-8815000D01*
X14245266Y-8646678D02*
X14275266Y-8676678D01*
X14275266Y-8646678D02*
X14245266Y-8676678D01*
X14254549Y-9553958D02*
X14284549Y-9583958D01*
X14284549Y-9553958D02*
X14254549Y-9583958D01*
X14255000Y-7655000D02*
X14285000Y-7685000D01*
X14285000Y-7655000D02*
X14255000Y-7685000D01*
X14255060Y-9470000D02*
X14285060Y-9500000D01*
X14285060Y-9470000D02*
X14255060Y-9500000D01*
X14260000Y-10050000D02*
X14290000Y-10080000D01*
X14290000Y-10050000D02*
X14260000Y-10080000D01*
X14274594Y-7125050D02*
X14304594Y-7155050D01*
X14304594Y-7125050D02*
X14274594Y-7155050D01*
X14275000Y-10770000D02*
X14305000Y-10800000D01*
X14305000Y-10770000D02*
X14275000Y-10800000D01*
X14300000Y-10330000D02*
X14330000Y-10360000D01*
X14330000Y-10330000D02*
X14300000Y-10360000D01*
X14308708Y-8399738D02*
X14338708Y-8429738D01*
X14338708Y-8399738D02*
X14308708Y-8429738D01*
X14342673Y-10052327D02*
X14372673Y-10082327D01*
X14372673Y-10052327D02*
X14342673Y-10082327D01*
X14374897Y-9682860D02*
X14404897Y-9712860D01*
X14404897Y-9682860D02*
X14374897Y-9712860D01*
X14390000Y-7176250D02*
X14420000Y-7206250D01*
X14420000Y-7176250D02*
X14390000Y-7206250D01*
X14395000Y-7286250D02*
X14425000Y-7316250D01*
X14425000Y-7286250D02*
X14395000Y-7316250D01*
X14403000Y-8400000D02*
X14433000Y-8430000D01*
X14433000Y-8400000D02*
X14403000Y-8430000D01*
X14425000Y-10865000D02*
X14455000Y-10895000D01*
X14455000Y-10865000D02*
X14425000Y-10895000D01*
X14435000Y-8152000D02*
X14465000Y-8182000D01*
X14465000Y-8152000D02*
X14435000Y-8182000D01*
X14435183Y-10372795D02*
X14465183Y-10402795D01*
X14465183Y-10372795D02*
X14435183Y-10402795D01*
X14485000Y-8082750D02*
X14515000Y-8112750D01*
X14515000Y-8082750D02*
X14485000Y-8112750D01*
X14500000Y-7791200D02*
X14530000Y-7821200D01*
X14530000Y-7791200D02*
X14500000Y-7821200D01*
X14510000Y-7662450D02*
X14540000Y-7692450D01*
X14540000Y-7662450D02*
X14510000Y-7692450D01*
X14511939Y-10444743D02*
X14541939Y-10474743D01*
X14541939Y-10444743D02*
X14511939Y-10474743D01*
X14519538Y-7906712D02*
X14549538Y-7936712D01*
X14549538Y-7906712D02*
X14519538Y-7936712D01*
X14523969Y-9673900D02*
X14553969Y-9703900D01*
X14553969Y-9673900D02*
X14523969Y-9703900D01*
X14537500Y-10344500D02*
X14567500Y-10374500D01*
X14567500Y-10344500D02*
X14537500Y-10374500D01*
X14555000Y-10955000D02*
X14585000Y-10985000D01*
X14585000Y-10955000D02*
X14555000Y-10985000D01*
X14562000Y-7028000D02*
X14592000Y-7058000D01*
X14592000Y-7028000D02*
X14562000Y-7058000D01*
X14587550Y-8400000D02*
X14617550Y-8430000D01*
X14617550Y-8400000D02*
X14587550Y-8430000D01*
X14615500Y-10415500D02*
X14645500Y-10445500D01*
X14645500Y-10415500D02*
X14615500Y-10445500D01*
X14630824Y-9673800D02*
X14660824Y-9703800D01*
X14660824Y-9673800D02*
X14630824Y-9703800D01*
X14650000Y-11465000D02*
X14680000Y-11495000D01*
X14680000Y-11465000D02*
X14650000Y-11495000D01*
X14650250Y-6988000D02*
X14680250Y-7018000D01*
X14680250Y-6988000D02*
X14650250Y-7018000D01*
X14680000Y-7852245D02*
X14710000Y-7882245D01*
X14710000Y-7852245D02*
X14680000Y-7882245D01*
X14682395Y-8399950D02*
X14712395Y-8429950D01*
X14712395Y-8399950D02*
X14682395Y-8429950D01*
X14715000Y-11665000D02*
X14745000Y-11695000D01*
X14745000Y-11665000D02*
X14715000Y-11695000D01*
X14715000Y-12155000D02*
X14745000Y-12185000D01*
X14745000Y-12155000D02*
X14715000Y-12185000D01*
X14715000Y-12620000D02*
X14745000Y-12650000D01*
X14745000Y-12620000D02*
X14715000Y-12650000D01*
X14715000Y-13121250D02*
X14745000Y-13151250D01*
X14745000Y-13121250D02*
X14715000Y-13151250D01*
X14725449Y-7685000D02*
X14755449Y-7715000D01*
X14755449Y-7685000D02*
X14725449Y-7715000D01*
X14740000Y-8816250D02*
X14770000Y-8846250D01*
X14770000Y-8816250D02*
X14740000Y-8846250D01*
X14755000Y-9271250D02*
X14785000Y-9301250D01*
X14785000Y-9271250D02*
X14755000Y-9301250D01*
X14794966Y-8686967D02*
X14824966Y-8716967D01*
X14824966Y-8686967D02*
X14794966Y-8716967D01*
X14810000Y-11605000D02*
X14840000Y-11635000D01*
X14840000Y-11605000D02*
X14810000Y-11635000D01*
X14810000Y-12100000D02*
X14840000Y-12130000D01*
X14840000Y-12100000D02*
X14810000Y-12130000D01*
X14815000Y-12620000D02*
X14845000Y-12650000D01*
X14845000Y-12620000D02*
X14815000Y-12650000D01*
X14815000Y-13121250D02*
X14845000Y-13151250D01*
X14845000Y-13121250D02*
X14815000Y-13151250D01*
X14865000Y-8105000D02*
X14895000Y-8135000D01*
X14895000Y-8105000D02*
X14865000Y-8135000D01*
X14865000Y-9446250D02*
X14895000Y-9476250D01*
X14895000Y-9446250D02*
X14865000Y-9476250D01*
X14870000Y-13595000D02*
X14900000Y-13625000D01*
X14900000Y-13595000D02*
X14870000Y-13625000D01*
X14877500Y-6692500D02*
X14907500Y-6722500D01*
X14907500Y-6692500D02*
X14877500Y-6722500D01*
X14910000Y-12620000D02*
X14940000Y-12650000D01*
X14940000Y-12620000D02*
X14910000Y-12650000D01*
X14910000Y-13120000D02*
X14940000Y-13150000D01*
X14940000Y-13120000D02*
X14910000Y-13150000D01*
X14915000Y-6915000D02*
X14945000Y-6945000D01*
X14945000Y-6915000D02*
X14915000Y-6945000D01*
X14915000Y-11605000D02*
X14945000Y-11635000D01*
X14945000Y-11605000D02*
X14915000Y-11635000D01*
X14915000Y-12101250D02*
X14945000Y-12131250D01*
X14945000Y-12101250D02*
X14915000Y-12131250D01*
X14935000Y-7345000D02*
X14965000Y-7375000D01*
X14965000Y-7345000D02*
X14935000Y-7375000D01*
X14947478Y-11469795D02*
X14977478Y-11499795D01*
X14977478Y-11469795D02*
X14947478Y-11499795D01*
X14954000Y-7261000D02*
X14984000Y-7291000D01*
X14984000Y-7261000D02*
X14954000Y-7291000D01*
X14991621Y-7462574D02*
X15021621Y-7492574D01*
X15021621Y-7462574D02*
X14991621Y-7492574D01*
X15014079Y-11387762D02*
X15044079Y-11417762D01*
X15044079Y-11387762D02*
X15014079Y-11417762D01*
X15015000Y-10486250D02*
X15045000Y-10516250D01*
X15045000Y-10486250D02*
X15015000Y-10516250D01*
X15015000Y-10736250D02*
X15045000Y-10766250D01*
X15045000Y-10736250D02*
X15015000Y-10766250D01*
X15028000Y-11476000D02*
X15058000Y-11506000D01*
X15058000Y-11476000D02*
X15028000Y-11506000D01*
X15032450Y-8103100D02*
X15062450Y-8133100D01*
X15062450Y-8103100D02*
X15032450Y-8133100D01*
X15040000Y-7030000D02*
X15070000Y-7060000D01*
X15070000Y-7030000D02*
X15040000Y-7060000D01*
X15045000Y-12520000D02*
X15075000Y-12550000D01*
X15075000Y-12520000D02*
X15045000Y-12550000D01*
X15055000Y-12895000D02*
X15085000Y-12925000D01*
X15085000Y-12895000D02*
X15055000Y-12925000D01*
X15060000Y-12025000D02*
X15090000Y-12055000D01*
X15090000Y-12025000D02*
X15060000Y-12055000D01*
X15064236Y-8492014D02*
X15094236Y-8522014D01*
X15094236Y-8492014D02*
X15064236Y-8522014D01*
X15085000Y-7835000D02*
X15115000Y-7865000D01*
X15115000Y-7835000D02*
X15085000Y-7865000D01*
X15090043Y-11314409D02*
X15120043Y-11344409D01*
X15120043Y-11314409D02*
X15090043Y-11344409D01*
X15100129Y-11399495D02*
X15130129Y-11429495D01*
X15130129Y-11399495D02*
X15100129Y-11429495D01*
X15115000Y-12235000D02*
X15145000Y-12265000D01*
X15145000Y-12235000D02*
X15115000Y-12265000D01*
X15155000Y-9952000D02*
X15185000Y-9982000D01*
X15185000Y-9952000D02*
X15155000Y-9982000D01*
X15177970Y-11327988D02*
X15207970Y-11357988D01*
X15207970Y-11327988D02*
X15177970Y-11357988D01*
X15190000Y-13335000D02*
X15220000Y-13365000D01*
X15220000Y-13335000D02*
X15190000Y-13365000D01*
X15200000Y-7783800D02*
X15230000Y-7813800D01*
X15230000Y-7783800D02*
X15200000Y-7813800D01*
X15265000Y-8496200D02*
X15295000Y-8526200D01*
X15295000Y-8496200D02*
X15265000Y-8526200D01*
X15285000Y-9521300D02*
X15315000Y-9551300D01*
X15315000Y-9521300D02*
X15285000Y-9551300D01*
X15290000Y-12270000D02*
X15320000Y-12300000D01*
X15320000Y-12270000D02*
X15290000Y-12300000D01*
X15301050Y-7647000D02*
X15331050Y-7677000D01*
X15331050Y-7647000D02*
X15301050Y-7677000D01*
X15305042Y-9985000D02*
X15335042Y-10015000D01*
X15335042Y-9985000D02*
X15305042Y-10015000D01*
X15310000Y-11266250D02*
X15340000Y-11296250D01*
X15340000Y-11266250D02*
X15310000Y-11296250D01*
X15320000Y-11825000D02*
X15350000Y-11855000D01*
X15350000Y-11825000D02*
X15320000Y-11855000D01*
X15355000Y-11950000D02*
X15385000Y-11980000D01*
X15385000Y-11950000D02*
X15355000Y-11980000D01*
X15360000Y-9451350D02*
X15390000Y-9481350D01*
X15390000Y-9451350D02*
X15360000Y-9481350D01*
X15374000Y-10084000D02*
X15404000Y-10114000D01*
X15404000Y-10084000D02*
X15374000Y-10114000D01*
X15385000Y-7915000D02*
X15415000Y-7945000D01*
X15415000Y-7915000D02*
X15385000Y-7945000D01*
X15405000Y-11266250D02*
X15435000Y-11296250D01*
X15435000Y-11266250D02*
X15405000Y-11296250D01*
X15408700Y-8893550D02*
X15438700Y-8923550D01*
X15438700Y-8893550D02*
X15408700Y-8923550D01*
X15436000Y-8744250D02*
X15466000Y-8774250D01*
X15466000Y-8744250D02*
X15436000Y-8774250D01*
X15445000Y-11546250D02*
X15475000Y-11576250D01*
X15475000Y-11546250D02*
X15445000Y-11576250D01*
X15485000Y-7174000D02*
X15515000Y-7204000D01*
X15515000Y-7174000D02*
X15485000Y-7204000D01*
X15487841Y-7087841D02*
X15517841Y-7117841D01*
X15517841Y-7087841D02*
X15487841Y-7117841D01*
X15495000Y-12520000D02*
X15525000Y-12550000D01*
X15525000Y-12520000D02*
X15495000Y-12550000D01*
X15500000Y-11266250D02*
X15530000Y-11296250D01*
X15530000Y-11266250D02*
X15500000Y-11296250D01*
X15502000Y-7555000D02*
X15532000Y-7585000D01*
X15532000Y-7555000D02*
X15502000Y-7585000D01*
X15516250Y-9985000D02*
X15546250Y-10015000D01*
X15546250Y-9985000D02*
X15516250Y-10015000D01*
X15540000Y-11946250D02*
X15570000Y-11976250D01*
X15570000Y-11946250D02*
X15540000Y-11976250D01*
X15570000Y-12455000D02*
X15600000Y-12485000D01*
X15600000Y-12455000D02*
X15570000Y-12485000D01*
X15590000Y-10825000D02*
X15620000Y-10855000D01*
X15620000Y-10825000D02*
X15590000Y-10855000D01*
X15601000Y-7585000D02*
X15631000Y-7615000D01*
X15631000Y-7585000D02*
X15601000Y-7615000D01*
X15645000Y-11946250D02*
X15675000Y-11976250D01*
X15675000Y-11946250D02*
X15645000Y-11976250D01*
X15665000Y-12454000D02*
X15695000Y-12484000D01*
X15695000Y-12454000D02*
X15665000Y-12484000D01*
X15678250Y-12968000D02*
X15708250Y-12998000D01*
X15708250Y-12968000D02*
X15678250Y-12998000D01*
X15690000Y-11251250D02*
X15720000Y-11281250D01*
X15720000Y-11251250D02*
X15690000Y-11281250D01*
X15715000Y-11445000D02*
X15745000Y-11475000D01*
X15745000Y-11445000D02*
X15715000Y-11475000D01*
X15720000Y-11900000D02*
X15750000Y-11930000D01*
X15750000Y-11900000D02*
X15720000Y-11930000D01*
X15720000Y-12385000D02*
X15750000Y-12415000D01*
X15750000Y-12385000D02*
X15720000Y-12415000D01*
X15760000Y-10685000D02*
X15790000Y-10715000D01*
X15790000Y-10685000D02*
X15760000Y-10715000D01*
X15768800Y-8963000D02*
X15798800Y-8993000D01*
X15798800Y-8963000D02*
X15768800Y-8993000D01*
X15768800Y-9068000D02*
X15798800Y-9098000D01*
X15798800Y-9068000D02*
X15768800Y-9098000D01*
X15775000Y-9726250D02*
X15805000Y-9756250D01*
X15805000Y-9726250D02*
X15775000Y-9756250D01*
X15780000Y-8211250D02*
X15810000Y-8241250D01*
X15810000Y-8211250D02*
X15780000Y-8241250D01*
X15790000Y-8311250D02*
X15820000Y-8341250D01*
X15820000Y-8311250D02*
X15790000Y-8341250D01*
X15792500Y-12913750D02*
X15822500Y-12943750D01*
X15822500Y-12913750D02*
X15792500Y-12943750D01*
X15839277Y-10902615D02*
X15869277Y-10932615D01*
X15869277Y-10902615D02*
X15839277Y-10932615D01*
X15846092Y-10463908D02*
X15876092Y-10493908D01*
X15876092Y-10463908D02*
X15846092Y-10493908D01*
X15906250Y-9981250D02*
X15936250Y-10011250D01*
X15936250Y-9981250D02*
X15906250Y-10011250D01*
X15913874Y-8486300D02*
X15943874Y-8516300D01*
X15943874Y-8486300D02*
X15913874Y-8516300D01*
X15915000Y-9821250D02*
X15945000Y-9851250D01*
X15945000Y-9821250D02*
X15915000Y-9851250D01*
X15970000Y-9686250D02*
X16000000Y-9716250D01*
X16000000Y-9686250D02*
X15970000Y-9716250D01*
X15972000Y-7667250D02*
X16002000Y-7697250D01*
X16002000Y-7667250D02*
X15972000Y-7697250D01*
X16089000Y-11384000D02*
X16119000Y-11414000D01*
X16119000Y-11384000D02*
X16089000Y-11414000D01*
X16125000Y-7095000D02*
X16155000Y-7125000D01*
X16155000Y-7095000D02*
X16125000Y-7125000D01*
X16170000Y-9386250D02*
X16200000Y-9416250D01*
X16200000Y-9386250D02*
X16170000Y-9416250D01*
X16195000Y-10066250D02*
X16225000Y-10096250D01*
X16225000Y-10066250D02*
X16195000Y-10096250D01*
X16216538Y-8935462D02*
X16246538Y-8965462D01*
X16246538Y-8935462D02*
X16216538Y-8965462D01*
X16234000Y-7095000D02*
X16264000Y-7125000D01*
X16264000Y-7095000D02*
X16234000Y-7125000D01*
X16307000Y-8339000D02*
X16337000Y-8369000D01*
X16337000Y-8339000D02*
X16307000Y-8369000D01*
X16307450Y-11663750D02*
X16337450Y-11693750D01*
X16337450Y-11663750D02*
X16307450Y-11693750D01*
X16353060Y-8514762D02*
X16383060Y-8544762D01*
X16383060Y-8514762D02*
X16353060Y-8544762D01*
X16360000Y-9060000D02*
X16390000Y-9090000D01*
X16390000Y-9060000D02*
X16360000Y-9090000D01*
X16360000Y-12163750D02*
X16390000Y-12193750D01*
X16390000Y-12163750D02*
X16360000Y-12193750D01*
X16398125Y-10658125D02*
X16428125Y-10688125D01*
X16428125Y-10658125D02*
X16398125Y-10688125D01*
X16495000Y-11026250D02*
X16525000Y-11056250D01*
X16525000Y-11026250D02*
X16495000Y-11056250D01*
X16537450Y-9964000D02*
X16567450Y-9994000D01*
X16567450Y-9964000D02*
X16537450Y-9994000D01*
X16540000Y-11415000D02*
X16570000Y-11445000D01*
X16570000Y-11415000D02*
X16540000Y-11445000D01*
X16560000Y-6760000D02*
X16590000Y-6790000D01*
X16590000Y-6760000D02*
X16560000Y-6790000D01*
X16570500Y-7950000D02*
X16600500Y-7980000D01*
X16600500Y-7950000D02*
X16570500Y-7980000D01*
X16590000Y-9666250D02*
X16620000Y-9696250D01*
X16620000Y-9666250D02*
X16590000Y-9696250D01*
X16645050Y-9343805D02*
X16675050Y-9373805D01*
X16675050Y-9343805D02*
X16645050Y-9373805D01*
X16650050Y-8871250D02*
X16680050Y-8901250D01*
X16680050Y-8871250D02*
X16650050Y-8901250D01*
X16654000Y-7694000D02*
X16684000Y-7724000D01*
X16684000Y-7694000D02*
X16654000Y-7724000D01*
X16660050Y-7896250D02*
X16690050Y-7926250D01*
X16690050Y-7896250D02*
X16660050Y-7926250D01*
X16665000Y-11025000D02*
X16695000Y-11055000D01*
X16695000Y-11025000D02*
X16665000Y-11055000D01*
X16694000Y-9802000D02*
X16724000Y-9832000D01*
X16724000Y-9802000D02*
X16694000Y-9832000D01*
X16740000Y-10650000D02*
X16770000Y-10680000D01*
X16770000Y-10650000D02*
X16740000Y-10680000D01*
X16869000Y-7194000D02*
X16899000Y-7224000D01*
X16899000Y-7194000D02*
X16869000Y-7224000D01*
X16870000Y-11451250D02*
X16900000Y-11481250D01*
X16900000Y-11451250D02*
X16870000Y-11481250D01*
X16935000Y-10766250D02*
X16965000Y-10796250D01*
X16965000Y-10766250D02*
X16935000Y-10796250D01*
X17027500Y-12432500D02*
X17057500Y-12462500D01*
X17057500Y-12432500D02*
X17027500Y-12462500D01*
X17035000Y-11970000D02*
X17065000Y-12000000D01*
X17065000Y-11970000D02*
X17035000Y-12000000D01*
X17045500Y-7945000D02*
X17075500Y-7975000D01*
X17075500Y-7945000D02*
X17045500Y-7975000D01*
X15975000Y-11003750D02*
G75*
G03*
X15975000Y-11003750I-15000J0D01*
G01*
X15975000Y-11103750D02*
G75*
G03*
X15975000Y-11103750I-15000J0D01*
G01*
X16050000Y-11053750D02*
G75*
G03*
X16050000Y-11053750I-15000J0D01*
G01*
X16125000Y-11003750D02*
G75*
G03*
X16125000Y-11003750I-15000J0D01*
G01*
X16125000Y-11103750D02*
G75*
G03*
X16125000Y-11103750I-15000J0D01*
G01*
D14*
X16710000Y-7183750D02*
X16710000Y-7233750D01*
X16685000Y-7208750D02*
X16735000Y-7208750D01*
X16710000Y-7308750D02*
X16710000Y-7358750D01*
X16685000Y-7333750D02*
X16735000Y-7333750D01*
X16710000Y-7433750D02*
X16710000Y-7483750D01*
X16685000Y-7458750D02*
X16735000Y-7458750D01*
X16710000Y-7558750D02*
X16710000Y-7608750D01*
X16685000Y-7583750D02*
X16735000Y-7583750D01*
X16710000Y-9917500D02*
X16710000Y-9967500D01*
X16685000Y-9942500D02*
X16735000Y-9942500D01*
X16710000Y-10042500D02*
X16710000Y-10092500D01*
X16685000Y-10067500D02*
X16735000Y-10067500D01*
X16710000Y-10167500D02*
X16710000Y-10217500D01*
X16685000Y-10192500D02*
X16735000Y-10192500D01*
X16710000Y-10292500D02*
X16710000Y-10342500D01*
X16685000Y-10317500D02*
X16735000Y-10317500D01*
D15*
X16565213Y-8319463D02*
X16565213Y-8277037D01*
X16522787Y-8277037D01*
X16522787Y-8319463D01*
X16565213Y-8319463D01*
D12*
X16489000Y-8328250D02*
X16599000Y-8328250D01*
X16599000Y-8328250D02*
G75*
G03*
X16599000Y-8268250I0J30000D01*
G01*
X16599000Y-8268250D02*
X16489000Y-8268250D01*
X16489000Y-8268250D02*
G75*
G03*
X16489000Y-8328250I0J-30000D01*
G01*
D15*
X16565213Y-9183463D02*
X16565213Y-9141037D01*
X16522787Y-9141037D01*
X16522787Y-9183463D01*
X16565213Y-9183463D01*
D12*
X16489000Y-9192250D02*
X16599000Y-9192250D01*
X16599000Y-9192250D02*
G75*
G03*
X16599000Y-9132250I0J30000D01*
G01*
X16599000Y-9132250D02*
X16489000Y-9132250D01*
X16489000Y-9132250D02*
G75*
G03*
X16489000Y-9192250I0J-30000D01*
G01*
D15*
X16985213Y-8319463D02*
X16985213Y-8277037D01*
X16942787Y-8277037D01*
X16942787Y-8319463D01*
X16985213Y-8319463D01*
D12*
X16924000Y-8328250D02*
X17004000Y-8328250D01*
X17004000Y-8328250D02*
G75*
G03*
X17004000Y-8268250I0J30000D01*
G01*
X17004000Y-8268250D02*
X16924000Y-8268250D01*
X16924000Y-8268250D02*
G75*
G03*
X16924000Y-8328250I0J-30000D01*
G01*
D15*
X16985213Y-9183463D02*
X16985213Y-9141037D01*
X16942787Y-9141037D01*
X16942787Y-9183463D01*
X16985213Y-9183463D01*
D12*
X16924000Y-9192250D02*
X17004000Y-9192250D01*
X17004000Y-9192250D02*
G75*
G03*
X17004000Y-9132250I0J30000D01*
G01*
X17004000Y-9132250D02*
X16924000Y-9132250D01*
X16924000Y-9132250D02*
G75*
G03*
X16924000Y-9192250I0J-30000D01*
G01*
D16*
X15130000Y-13832500D02*
X15167500Y-13795000D01*
X15130000Y-13757500D01*
X15092500Y-13795000D01*
X15130000Y-13832500D01*
X15330000Y-13832500D02*
X15367500Y-13795000D01*
X15330000Y-13757500D01*
X15292500Y-13795000D01*
X15330000Y-13832500D01*
D17*
X13887500Y-11753750D02*
X13972500Y-11838750D01*
X13972500Y-11753750D02*
X13887500Y-11838750D01*
X13972500Y-11796250D02*
G75*
G03*
X13972500Y-11796250I-42500J0D01*
G01*
X13887500Y-12003750D02*
X13972500Y-12088750D01*
X13972500Y-12003750D02*
X13887500Y-12088750D01*
X13972500Y-12046250D02*
G75*
G03*
X13972500Y-12046250I-42500J0D01*
G01*
X13887500Y-12253750D02*
X13972500Y-12338750D01*
X13972500Y-12253750D02*
X13887500Y-12338750D01*
X13972500Y-12296250D02*
G75*
G03*
X13972500Y-12296250I-42500J0D01*
G01*
X13887500Y-12503750D02*
X13972500Y-12588750D01*
X13972500Y-12503750D02*
X13887500Y-12588750D01*
X13972500Y-12546250D02*
G75*
G03*
X13972500Y-12546250I-42500J0D01*
G01*
X13887500Y-12753750D02*
X13972500Y-12838750D01*
X13972500Y-12753750D02*
X13887500Y-12838750D01*
X13972500Y-12796250D02*
G75*
G03*
X13972500Y-12796250I-42500J0D01*
G01*
X13887500Y-13003750D02*
X13972500Y-13088750D01*
X13972500Y-13003750D02*
X13887500Y-13088750D01*
X13972500Y-13046250D02*
G75*
G03*
X13972500Y-13046250I-42500J0D01*
G01*
X13887500Y-13253750D02*
X13972500Y-13338750D01*
X13972500Y-13253750D02*
X13887500Y-13338750D01*
X13972500Y-13296250D02*
G75*
G03*
X13972500Y-13296250I-42500J0D01*
G01*
X13887500Y-13503750D02*
X13972500Y-13588750D01*
X13972500Y-13503750D02*
X13887500Y-13588750D01*
X13972500Y-13546250D02*
G75*
G03*
X13972500Y-13546250I-42500J0D01*
G01*
X14387500Y-11753750D02*
X14472500Y-11838750D01*
X14472500Y-11753750D02*
X14387500Y-11838750D01*
X14472500Y-11796250D02*
G75*
G03*
X14472500Y-11796250I-42500J0D01*
G01*
X14387500Y-12003750D02*
X14472500Y-12088750D01*
X14472500Y-12003750D02*
X14387500Y-12088750D01*
X14472500Y-12046250D02*
G75*
G03*
X14472500Y-12046250I-42500J0D01*
G01*
X14387500Y-12253750D02*
X14472500Y-12338750D01*
X14472500Y-12253750D02*
X14387500Y-12338750D01*
X14472500Y-12296250D02*
G75*
G03*
X14472500Y-12296250I-42500J0D01*
G01*
X14387500Y-12503750D02*
X14472500Y-12588750D01*
X14472500Y-12503750D02*
X14387500Y-12588750D01*
X14472500Y-12546250D02*
G75*
G03*
X14472500Y-12546250I-42500J0D01*
G01*
X14387500Y-12753750D02*
X14472500Y-12838750D01*
X14472500Y-12753750D02*
X14387500Y-12838750D01*
X14472500Y-12796250D02*
G75*
G03*
X14472500Y-12796250I-42500J0D01*
G01*
X14387500Y-13003750D02*
X14472500Y-13088750D01*
X14472500Y-13003750D02*
X14387500Y-13088750D01*
X14472500Y-13046250D02*
G75*
G03*
X14472500Y-13046250I-42500J0D01*
G01*
X14387500Y-13253750D02*
X14472500Y-13338750D01*
X14472500Y-13253750D02*
X14387500Y-13338750D01*
X14472500Y-13296250D02*
G75*
G03*
X14472500Y-13296250I-42500J0D01*
G01*
X14387500Y-13503750D02*
X14472500Y-13588750D01*
X14472500Y-13503750D02*
X14387500Y-13588750D01*
X14472500Y-13546250D02*
G75*
G03*
X14472500Y-13546250I-42500J0D01*
G01*
X15992500Y-11751250D02*
X16077500Y-11836250D01*
X16077500Y-11751250D02*
X15992500Y-11836250D01*
X16077500Y-11793750D02*
G75*
G03*
X16077500Y-11793750I-42500J0D01*
G01*
X15992500Y-12001250D02*
X16077500Y-12086250D01*
X16077500Y-12001250D02*
X15992500Y-12086250D01*
X16077500Y-12043750D02*
G75*
G03*
X16077500Y-12043750I-42500J0D01*
G01*
X15992500Y-12251250D02*
X16077500Y-12336250D01*
X16077500Y-12251250D02*
X15992500Y-12336250D01*
X16077500Y-12293750D02*
G75*
G03*
X16077500Y-12293750I-42500J0D01*
G01*
X15992500Y-12501250D02*
X16077500Y-12586250D01*
X16077500Y-12501250D02*
X15992500Y-12586250D01*
X16077500Y-12543750D02*
G75*
G03*
X16077500Y-12543750I-42500J0D01*
G01*
X15992500Y-12751250D02*
X16077500Y-12836250D01*
X16077500Y-12751250D02*
X15992500Y-12836250D01*
X16077500Y-12793750D02*
G75*
G03*
X16077500Y-12793750I-42500J0D01*
G01*
X15992500Y-13001250D02*
X16077500Y-13086250D01*
X16077500Y-13001250D02*
X15992500Y-13086250D01*
X16077500Y-13043750D02*
G75*
G03*
X16077500Y-13043750I-42500J0D01*
G01*
X15992500Y-13251250D02*
X16077500Y-13336250D01*
X16077500Y-13251250D02*
X15992500Y-13336250D01*
X16077500Y-13293750D02*
G75*
G03*
X16077500Y-13293750I-42500J0D01*
G01*
X15992500Y-13501250D02*
X16077500Y-13586250D01*
X16077500Y-13501250D02*
X15992500Y-13586250D01*
X16077500Y-13543750D02*
G75*
G03*
X16077500Y-13543750I-42500J0D01*
G01*
X16492500Y-11751250D02*
X16577500Y-11836250D01*
X16577500Y-11751250D02*
X16492500Y-11836250D01*
X16577500Y-11793750D02*
G75*
G03*
X16577500Y-11793750I-42500J0D01*
G01*
X16492500Y-12001250D02*
X16577500Y-12086250D01*
X16577500Y-12001250D02*
X16492500Y-12086250D01*
X16577500Y-12043750D02*
G75*
G03*
X16577500Y-12043750I-42500J0D01*
G01*
X16492500Y-12251250D02*
X16577500Y-12336250D01*
X16577500Y-12251250D02*
X16492500Y-12336250D01*
X16577500Y-12293750D02*
G75*
G03*
X16577500Y-12293750I-42500J0D01*
G01*
X16492500Y-12501250D02*
X16577500Y-12586250D01*
X16577500Y-12501250D02*
X16492500Y-12586250D01*
X16577500Y-12543750D02*
G75*
G03*
X16577500Y-12543750I-42500J0D01*
G01*
X16492500Y-12751250D02*
X16577500Y-12836250D01*
X16577500Y-12751250D02*
X16492500Y-12836250D01*
X16577500Y-12793750D02*
G75*
G03*
X16577500Y-12793750I-42500J0D01*
G01*
X16492500Y-13001250D02*
X16577500Y-13086250D01*
X16577500Y-13001250D02*
X16492500Y-13086250D01*
X16577500Y-13043750D02*
G75*
G03*
X16577500Y-13043750I-42500J0D01*
G01*
X16492500Y-13251250D02*
X16577500Y-13336250D01*
X16577500Y-13251250D02*
X16492500Y-13336250D01*
X16577500Y-13293750D02*
G75*
G03*
X16577500Y-13293750I-42500J0D01*
G01*
X16492500Y-13501250D02*
X16577500Y-13586250D01*
X16577500Y-13501250D02*
X16492500Y-13586250D01*
X16577500Y-13543750D02*
G75*
G03*
X16577500Y-13543750I-42500J0D01*
G01*
D10*
X14106000Y-6517500D02*
X14206000Y-6617500D01*
X14206000Y-6517500D02*
X14106000Y-6617500D01*
X14156000Y-6517500D02*
X14156000Y-6617500D01*
X14106000Y-6567500D02*
X14206000Y-6567500D01*
X14106000Y-6771500D02*
X14206000Y-6871500D01*
X14206000Y-6771500D02*
X14106000Y-6871500D01*
X14156000Y-6771500D02*
X14156000Y-6871500D01*
X14106000Y-6821500D02*
X14206000Y-6821500D01*
X14360000Y-6517500D02*
X14460000Y-6617500D01*
X14460000Y-6517500D02*
X14360000Y-6617500D01*
X14410000Y-6517500D02*
X14410000Y-6617500D01*
X14360000Y-6567500D02*
X14460000Y-6567500D01*
X14360000Y-6771500D02*
X14460000Y-6871500D01*
X14460000Y-6771500D02*
X14360000Y-6871500D01*
X14410000Y-6771500D02*
X14410000Y-6871500D01*
X14360000Y-6821500D02*
X14460000Y-6821500D01*
X15180000Y-10271250D02*
X15280000Y-10371250D01*
X15280000Y-10271250D02*
X15180000Y-10371250D01*
X15230000Y-10271250D02*
X15230000Y-10371250D01*
X15180000Y-10321250D02*
X15280000Y-10321250D01*
X15180000Y-10771250D02*
X15280000Y-10871250D01*
X15280000Y-10771250D02*
X15180000Y-10871250D01*
X15230000Y-10771250D02*
X15230000Y-10871250D01*
X15180000Y-10821250D02*
X15280000Y-10821250D01*
D12*
X13522383Y-14668774D02*
X13522383Y-14468774D01*
X13522383Y-14468774D02*
X13570002Y-14468774D01*
X13570002Y-14468774D02*
X13598574Y-14478298D01*
X13598574Y-14478298D02*
X13617621Y-14497345D01*
X13617621Y-14497345D02*
X13627145Y-14516393D01*
X13627145Y-14516393D02*
X13636669Y-14554488D01*
X13636669Y-14554488D02*
X13636669Y-14583059D01*
X13636669Y-14583059D02*
X13627145Y-14621155D01*
X13627145Y-14621155D02*
X13617621Y-14640202D01*
X13617621Y-14640202D02*
X13598574Y-14659250D01*
X13598574Y-14659250D02*
X13570002Y-14668774D01*
X13570002Y-14668774D02*
X13522383Y-14668774D01*
X13722383Y-14668774D02*
X13722383Y-14535440D01*
X13722383Y-14573536D02*
X13731907Y-14554488D01*
X13731907Y-14554488D02*
X13741431Y-14544964D01*
X13741431Y-14544964D02*
X13760479Y-14535440D01*
X13760479Y-14535440D02*
X13779526Y-14535440D01*
X13846193Y-14668774D02*
X13846193Y-14535440D01*
X13846193Y-14468774D02*
X13836669Y-14478298D01*
X13836669Y-14478298D02*
X13846193Y-14487821D01*
X13846193Y-14487821D02*
X13855717Y-14478298D01*
X13855717Y-14478298D02*
X13846193Y-14468774D01*
X13846193Y-14468774D02*
X13846193Y-14487821D01*
X13970002Y-14668774D02*
X13950955Y-14659250D01*
X13950955Y-14659250D02*
X13941431Y-14640202D01*
X13941431Y-14640202D02*
X13941431Y-14468774D01*
X14074764Y-14668774D02*
X14055717Y-14659250D01*
X14055717Y-14659250D02*
X14046193Y-14640202D01*
X14046193Y-14640202D02*
X14046193Y-14468774D01*
X14303336Y-14668774D02*
X14303336Y-14468774D01*
X14303336Y-14468774D02*
X14370002Y-14611631D01*
X14370002Y-14611631D02*
X14436669Y-14468774D01*
X14436669Y-14468774D02*
X14436669Y-14668774D01*
X14617621Y-14668774D02*
X14617621Y-14564012D01*
X14617621Y-14564012D02*
X14608098Y-14544964D01*
X14608098Y-14544964D02*
X14589050Y-14535440D01*
X14589050Y-14535440D02*
X14550955Y-14535440D01*
X14550955Y-14535440D02*
X14531907Y-14544964D01*
X14617621Y-14659250D02*
X14598574Y-14668774D01*
X14598574Y-14668774D02*
X14550955Y-14668774D01*
X14550955Y-14668774D02*
X14531907Y-14659250D01*
X14531907Y-14659250D02*
X14522383Y-14640202D01*
X14522383Y-14640202D02*
X14522383Y-14621155D01*
X14522383Y-14621155D02*
X14531907Y-14602107D01*
X14531907Y-14602107D02*
X14550955Y-14592583D01*
X14550955Y-14592583D02*
X14598574Y-14592583D01*
X14598574Y-14592583D02*
X14617621Y-14583059D01*
X14712860Y-14535440D02*
X14712860Y-14735440D01*
X14712860Y-14544964D02*
X14731907Y-14535440D01*
X14731907Y-14535440D02*
X14770002Y-14535440D01*
X14770002Y-14535440D02*
X14789050Y-14544964D01*
X14789050Y-14544964D02*
X14798574Y-14554488D01*
X14798574Y-14554488D02*
X14808098Y-14573536D01*
X14808098Y-14573536D02*
X14808098Y-14630678D01*
X14808098Y-14630678D02*
X14798574Y-14649726D01*
X14798574Y-14649726D02*
X14789050Y-14659250D01*
X14789050Y-14659250D02*
X14770002Y-14668774D01*
X14770002Y-14668774D02*
X14731907Y-14668774D01*
X14731907Y-14668774D02*
X14712860Y-14659250D01*
X14893812Y-14649726D02*
X14903336Y-14659250D01*
X14903336Y-14659250D02*
X14893812Y-14668774D01*
X14893812Y-14668774D02*
X14884288Y-14659250D01*
X14884288Y-14659250D02*
X14893812Y-14649726D01*
X14893812Y-14649726D02*
X14893812Y-14668774D01*
X14893812Y-14544964D02*
X14903336Y-14554488D01*
X14903336Y-14554488D02*
X14893812Y-14564012D01*
X14893812Y-14564012D02*
X14884288Y-14554488D01*
X14884288Y-14554488D02*
X14893812Y-14544964D01*
X14893812Y-14544964D02*
X14893812Y-14564012D01*
D13*
X13244764Y-14981250D02*
X13274764Y-15011250D01*
X13274764Y-14981250D02*
X13244764Y-15011250D01*
D12*
X13560479Y-14888774D02*
X13579526Y-14888774D01*
X13579526Y-14888774D02*
X13598574Y-14898298D01*
X13598574Y-14898298D02*
X13608098Y-14907821D01*
X13608098Y-14907821D02*
X13617621Y-14926869D01*
X13617621Y-14926869D02*
X13627145Y-14964964D01*
X13627145Y-14964964D02*
X13627145Y-15012583D01*
X13627145Y-15012583D02*
X13617621Y-15050678D01*
X13617621Y-15050678D02*
X13608098Y-15069726D01*
X13608098Y-15069726D02*
X13598574Y-15079250D01*
X13598574Y-15079250D02*
X13579526Y-15088774D01*
X13579526Y-15088774D02*
X13560479Y-15088774D01*
X13560479Y-15088774D02*
X13541431Y-15079250D01*
X13541431Y-15079250D02*
X13531907Y-15069726D01*
X13531907Y-15069726D02*
X13522383Y-15050678D01*
X13522383Y-15050678D02*
X13512860Y-15012583D01*
X13512860Y-15012583D02*
X13512860Y-14964964D01*
X13512860Y-14964964D02*
X13522383Y-14926869D01*
X13522383Y-14926869D02*
X13531907Y-14907821D01*
X13531907Y-14907821D02*
X13541431Y-14898298D01*
X13541431Y-14898298D02*
X13560479Y-14888774D01*
X13712860Y-15069726D02*
X13722383Y-15079250D01*
X13722383Y-15079250D02*
X13712860Y-15088774D01*
X13712860Y-15088774D02*
X13703336Y-15079250D01*
X13703336Y-15079250D02*
X13712860Y-15069726D01*
X13712860Y-15069726D02*
X13712860Y-15088774D01*
X13789050Y-14888774D02*
X13912860Y-14888774D01*
X13912860Y-14888774D02*
X13846193Y-14964964D01*
X13846193Y-14964964D02*
X13874764Y-14964964D01*
X13874764Y-14964964D02*
X13893812Y-14974488D01*
X13893812Y-14974488D02*
X13903336Y-14984012D01*
X13903336Y-14984012D02*
X13912860Y-15003059D01*
X13912860Y-15003059D02*
X13912860Y-15050678D01*
X13912860Y-15050678D02*
X13903336Y-15069726D01*
X13903336Y-15069726D02*
X13893812Y-15079250D01*
X13893812Y-15079250D02*
X13874764Y-15088774D01*
X13874764Y-15088774D02*
X13817621Y-15088774D01*
X13817621Y-15088774D02*
X13798574Y-15079250D01*
X13798574Y-15079250D02*
X13789050Y-15069726D01*
X14036669Y-14888774D02*
X14055717Y-14888774D01*
X14055717Y-14888774D02*
X14074764Y-14898298D01*
X14074764Y-14898298D02*
X14084288Y-14907821D01*
X14084288Y-14907821D02*
X14093812Y-14926869D01*
X14093812Y-14926869D02*
X14103336Y-14964964D01*
X14103336Y-14964964D02*
X14103336Y-15012583D01*
X14103336Y-15012583D02*
X14093812Y-15050678D01*
X14093812Y-15050678D02*
X14084288Y-15069726D01*
X14084288Y-15069726D02*
X14074764Y-15079250D01*
X14074764Y-15079250D02*
X14055717Y-15088774D01*
X14055717Y-15088774D02*
X14036669Y-15088774D01*
X14036669Y-15088774D02*
X14017621Y-15079250D01*
X14017621Y-15079250D02*
X14008098Y-15069726D01*
X14008098Y-15069726D02*
X13998574Y-15050678D01*
X13998574Y-15050678D02*
X13989050Y-15012583D01*
X13989050Y-15012583D02*
X13989050Y-14964964D01*
X13989050Y-14964964D02*
X13998574Y-14926869D01*
X13998574Y-14926869D02*
X14008098Y-14907821D01*
X14008098Y-14907821D02*
X14017621Y-14898298D01*
X14017621Y-14898298D02*
X14036669Y-14888774D01*
X14227145Y-14888774D02*
X14246193Y-14888774D01*
X14246193Y-14888774D02*
X14265241Y-14898298D01*
X14265241Y-14898298D02*
X14274764Y-14907821D01*
X14274764Y-14907821D02*
X14284288Y-14926869D01*
X14284288Y-14926869D02*
X14293812Y-14964964D01*
X14293812Y-14964964D02*
X14293812Y-15012583D01*
X14293812Y-15012583D02*
X14284288Y-15050678D01*
X14284288Y-15050678D02*
X14274764Y-15069726D01*
X14274764Y-15069726D02*
X14265241Y-15079250D01*
X14265241Y-15079250D02*
X14246193Y-15088774D01*
X14246193Y-15088774D02*
X14227145Y-15088774D01*
X14227145Y-15088774D02*
X14208098Y-15079250D01*
X14208098Y-15079250D02*
X14198574Y-15069726D01*
X14198574Y-15069726D02*
X14189050Y-15050678D01*
X14189050Y-15050678D02*
X14179526Y-15012583D01*
X14179526Y-15012583D02*
X14179526Y-14964964D01*
X14179526Y-14964964D02*
X14189050Y-14926869D01*
X14189050Y-14926869D02*
X14198574Y-14907821D01*
X14198574Y-14907821D02*
X14208098Y-14898298D01*
X14208098Y-14898298D02*
X14227145Y-14888774D01*
X14379526Y-15088774D02*
X14379526Y-14955440D01*
X14379526Y-14974488D02*
X14389050Y-14964964D01*
X14389050Y-14964964D02*
X14408098Y-14955440D01*
X14408098Y-14955440D02*
X14436669Y-14955440D01*
X14436669Y-14955440D02*
X14455717Y-14964964D01*
X14455717Y-14964964D02*
X14465241Y-14984012D01*
X14465241Y-14984012D02*
X14465241Y-15088774D01*
X14465241Y-14984012D02*
X14474764Y-14964964D01*
X14474764Y-14964964D02*
X14493812Y-14955440D01*
X14493812Y-14955440D02*
X14522383Y-14955440D01*
X14522383Y-14955440D02*
X14541431Y-14964964D01*
X14541431Y-14964964D02*
X14550955Y-14984012D01*
X14550955Y-14984012D02*
X14550955Y-15088774D01*
X14646193Y-15088774D02*
X14646193Y-14955440D01*
X14646193Y-14974488D02*
X14655717Y-14964964D01*
X14655717Y-14964964D02*
X14674764Y-14955440D01*
X14674764Y-14955440D02*
X14703336Y-14955440D01*
X14703336Y-14955440D02*
X14722383Y-14964964D01*
X14722383Y-14964964D02*
X14731907Y-14984012D01*
X14731907Y-14984012D02*
X14731907Y-15088774D01*
X14731907Y-14984012D02*
X14741431Y-14964964D01*
X14741431Y-14964964D02*
X14760479Y-14955440D01*
X14760479Y-14955440D02*
X14789050Y-14955440D01*
X14789050Y-14955440D02*
X14808098Y-14964964D01*
X14808098Y-14964964D02*
X14817622Y-14984012D01*
X14817622Y-14984012D02*
X14817622Y-15088774D01*
X15208098Y-14879250D02*
X15036669Y-15136393D01*
X15465241Y-14888774D02*
X15484288Y-14888774D01*
X15484288Y-14888774D02*
X15503336Y-14898298D01*
X15503336Y-14898298D02*
X15512860Y-14907821D01*
X15512860Y-14907821D02*
X15522384Y-14926869D01*
X15522384Y-14926869D02*
X15531907Y-14964964D01*
X15531907Y-14964964D02*
X15531907Y-15012583D01*
X15531907Y-15012583D02*
X15522384Y-15050678D01*
X15522384Y-15050678D02*
X15512860Y-15069726D01*
X15512860Y-15069726D02*
X15503336Y-15079250D01*
X15503336Y-15079250D02*
X15484288Y-15088774D01*
X15484288Y-15088774D02*
X15465241Y-15088774D01*
X15465241Y-15088774D02*
X15446193Y-15079250D01*
X15446193Y-15079250D02*
X15436669Y-15069726D01*
X15436669Y-15069726D02*
X15427145Y-15050678D01*
X15427145Y-15050678D02*
X15417622Y-15012583D01*
X15417622Y-15012583D02*
X15417622Y-14964964D01*
X15417622Y-14964964D02*
X15427145Y-14926869D01*
X15427145Y-14926869D02*
X15436669Y-14907821D01*
X15436669Y-14907821D02*
X15446193Y-14898298D01*
X15446193Y-14898298D02*
X15465241Y-14888774D01*
X15617622Y-15069726D02*
X15627145Y-15079250D01*
X15627145Y-15079250D02*
X15617622Y-15088774D01*
X15617622Y-15088774D02*
X15608098Y-15079250D01*
X15608098Y-15079250D02*
X15617622Y-15069726D01*
X15617622Y-15069726D02*
X15617622Y-15088774D01*
X15750955Y-14888774D02*
X15770003Y-14888774D01*
X15770003Y-14888774D02*
X15789050Y-14898298D01*
X15789050Y-14898298D02*
X15798574Y-14907821D01*
X15798574Y-14907821D02*
X15808098Y-14926869D01*
X15808098Y-14926869D02*
X15817622Y-14964964D01*
X15817622Y-14964964D02*
X15817622Y-15012583D01*
X15817622Y-15012583D02*
X15808098Y-15050678D01*
X15808098Y-15050678D02*
X15798574Y-15069726D01*
X15798574Y-15069726D02*
X15789050Y-15079250D01*
X15789050Y-15079250D02*
X15770003Y-15088774D01*
X15770003Y-15088774D02*
X15750955Y-15088774D01*
X15750955Y-15088774D02*
X15731907Y-15079250D01*
X15731907Y-15079250D02*
X15722384Y-15069726D01*
X15722384Y-15069726D02*
X15712860Y-15050678D01*
X15712860Y-15050678D02*
X15703336Y-15012583D01*
X15703336Y-15012583D02*
X15703336Y-14964964D01*
X15703336Y-14964964D02*
X15712860Y-14926869D01*
X15712860Y-14926869D02*
X15722384Y-14907821D01*
X15722384Y-14907821D02*
X15731907Y-14898298D01*
X15731907Y-14898298D02*
X15750955Y-14888774D01*
X16008098Y-15088774D02*
X15893812Y-15088774D01*
X15950955Y-15088774D02*
X15950955Y-14888774D01*
X15950955Y-14888774D02*
X15931907Y-14917345D01*
X15931907Y-14917345D02*
X15912860Y-14936393D01*
X15912860Y-14936393D02*
X15893812Y-14945917D01*
X16198574Y-15088774D02*
X16084288Y-15088774D01*
X16141431Y-15088774D02*
X16141431Y-14888774D01*
X16141431Y-14888774D02*
X16122384Y-14917345D01*
X16122384Y-14917345D02*
X16103336Y-14936393D01*
X16103336Y-14936393D02*
X16084288Y-14945917D01*
X16312860Y-14974488D02*
X16293812Y-14964964D01*
X16293812Y-14964964D02*
X16284288Y-14955440D01*
X16284288Y-14955440D02*
X16274765Y-14936393D01*
X16274765Y-14936393D02*
X16274765Y-14926869D01*
X16274765Y-14926869D02*
X16284288Y-14907821D01*
X16284288Y-14907821D02*
X16293812Y-14898298D01*
X16293812Y-14898298D02*
X16312860Y-14888774D01*
X16312860Y-14888774D02*
X16350955Y-14888774D01*
X16350955Y-14888774D02*
X16370003Y-14898298D01*
X16370003Y-14898298D02*
X16379526Y-14907821D01*
X16379526Y-14907821D02*
X16389050Y-14926869D01*
X16389050Y-14926869D02*
X16389050Y-14936393D01*
X16389050Y-14936393D02*
X16379526Y-14955440D01*
X16379526Y-14955440D02*
X16370003Y-14964964D01*
X16370003Y-14964964D02*
X16350955Y-14974488D01*
X16350955Y-14974488D02*
X16312860Y-14974488D01*
X16312860Y-14974488D02*
X16293812Y-14984012D01*
X16293812Y-14984012D02*
X16284288Y-14993536D01*
X16284288Y-14993536D02*
X16274765Y-15012583D01*
X16274765Y-15012583D02*
X16274765Y-15050678D01*
X16274765Y-15050678D02*
X16284288Y-15069726D01*
X16284288Y-15069726D02*
X16293812Y-15079250D01*
X16293812Y-15079250D02*
X16312860Y-15088774D01*
X16312860Y-15088774D02*
X16350955Y-15088774D01*
X16350955Y-15088774D02*
X16370003Y-15079250D01*
X16370003Y-15079250D02*
X16379526Y-15069726D01*
X16379526Y-15069726D02*
X16389050Y-15050678D01*
X16389050Y-15050678D02*
X16389050Y-15012583D01*
X16389050Y-15012583D02*
X16379526Y-14993536D01*
X16379526Y-14993536D02*
X16370003Y-14984012D01*
X16370003Y-14984012D02*
X16350955Y-14974488D01*
X16465241Y-14888774D02*
X16465241Y-14926869D01*
X16541431Y-14888774D02*
X16541431Y-14926869D01*
X16836670Y-15164964D02*
X16827146Y-15155440D01*
X16827146Y-15155440D02*
X16808098Y-15126869D01*
X16808098Y-15126869D02*
X16798574Y-15107821D01*
X16798574Y-15107821D02*
X16789050Y-15079250D01*
X16789050Y-15079250D02*
X16779527Y-15031631D01*
X16779527Y-15031631D02*
X16779527Y-14993536D01*
X16779527Y-14993536D02*
X16789050Y-14945917D01*
X16789050Y-14945917D02*
X16798574Y-14917345D01*
X16798574Y-14917345D02*
X16808098Y-14898298D01*
X16808098Y-14898298D02*
X16827146Y-14869726D01*
X16827146Y-14869726D02*
X16836670Y-14860202D01*
X16903336Y-14907821D02*
X16912860Y-14898298D01*
X16912860Y-14898298D02*
X16931908Y-14888774D01*
X16931908Y-14888774D02*
X16979527Y-14888774D01*
X16979527Y-14888774D02*
X16998574Y-14898298D01*
X16998574Y-14898298D02*
X17008098Y-14907821D01*
X17008098Y-14907821D02*
X17017622Y-14926869D01*
X17017622Y-14926869D02*
X17017622Y-14945917D01*
X17017622Y-14945917D02*
X17008098Y-14974488D01*
X17008098Y-14974488D02*
X16893812Y-15088774D01*
X16893812Y-15088774D02*
X17017622Y-15088774D01*
X17208098Y-15088774D02*
X17093812Y-15088774D01*
X17150955Y-15088774D02*
X17150955Y-14888774D01*
X17150955Y-14888774D02*
X17131908Y-14917345D01*
X17131908Y-14917345D02*
X17112860Y-14936393D01*
X17112860Y-14936393D02*
X17093812Y-14945917D01*
X17398574Y-15088774D02*
X17284289Y-15088774D01*
X17341431Y-15088774D02*
X17341431Y-14888774D01*
X17341431Y-14888774D02*
X17322384Y-14917345D01*
X17322384Y-14917345D02*
X17303336Y-14936393D01*
X17303336Y-14936393D02*
X17284289Y-14945917D01*
X17636670Y-15088774D02*
X17636670Y-14888774D01*
X17722384Y-15088774D02*
X17722384Y-14984012D01*
X17722384Y-14984012D02*
X17712860Y-14964964D01*
X17712860Y-14964964D02*
X17693812Y-14955440D01*
X17693812Y-14955440D02*
X17665241Y-14955440D01*
X17665241Y-14955440D02*
X17646193Y-14964964D01*
X17646193Y-14964964D02*
X17636670Y-14974488D01*
X17846193Y-15088774D02*
X17827146Y-15079250D01*
X17827146Y-15079250D02*
X17817622Y-15069726D01*
X17817622Y-15069726D02*
X17808098Y-15050678D01*
X17808098Y-15050678D02*
X17808098Y-14993536D01*
X17808098Y-14993536D02*
X17817622Y-14974488D01*
X17817622Y-14974488D02*
X17827146Y-14964964D01*
X17827146Y-14964964D02*
X17846193Y-14955440D01*
X17846193Y-14955440D02*
X17874765Y-14955440D01*
X17874765Y-14955440D02*
X17893812Y-14964964D01*
X17893812Y-14964964D02*
X17903336Y-14974488D01*
X17903336Y-14974488D02*
X17912860Y-14993536D01*
X17912860Y-14993536D02*
X17912860Y-15050678D01*
X17912860Y-15050678D02*
X17903336Y-15069726D01*
X17903336Y-15069726D02*
X17893812Y-15079250D01*
X17893812Y-15079250D02*
X17874765Y-15088774D01*
X17874765Y-15088774D02*
X17846193Y-15088774D01*
X18027146Y-15088774D02*
X18008098Y-15079250D01*
X18008098Y-15079250D02*
X17998574Y-15060202D01*
X17998574Y-15060202D02*
X17998574Y-14888774D01*
X18179527Y-15079250D02*
X18160479Y-15088774D01*
X18160479Y-15088774D02*
X18122384Y-15088774D01*
X18122384Y-15088774D02*
X18103336Y-15079250D01*
X18103336Y-15079250D02*
X18093812Y-15060202D01*
X18093812Y-15060202D02*
X18093812Y-14984012D01*
X18093812Y-14984012D02*
X18103336Y-14964964D01*
X18103336Y-14964964D02*
X18122384Y-14955440D01*
X18122384Y-14955440D02*
X18160479Y-14955440D01*
X18160479Y-14955440D02*
X18179527Y-14964964D01*
X18179527Y-14964964D02*
X18189051Y-14984012D01*
X18189051Y-14984012D02*
X18189051Y-15003059D01*
X18189051Y-15003059D02*
X18093812Y-15022107D01*
X18265241Y-15079250D02*
X18284289Y-15088774D01*
X18284289Y-15088774D02*
X18322384Y-15088774D01*
X18322384Y-15088774D02*
X18341432Y-15079250D01*
X18341432Y-15079250D02*
X18350955Y-15060202D01*
X18350955Y-15060202D02*
X18350955Y-15050678D01*
X18350955Y-15050678D02*
X18341432Y-15031631D01*
X18341432Y-15031631D02*
X18322384Y-15022107D01*
X18322384Y-15022107D02*
X18293812Y-15022107D01*
X18293812Y-15022107D02*
X18274765Y-15012583D01*
X18274765Y-15012583D02*
X18265241Y-14993536D01*
X18265241Y-14993536D02*
X18265241Y-14984012D01*
X18265241Y-14984012D02*
X18274765Y-14964964D01*
X18274765Y-14964964D02*
X18293812Y-14955440D01*
X18293812Y-14955440D02*
X18322384Y-14955440D01*
X18322384Y-14955440D02*
X18341432Y-14964964D01*
X18417622Y-15164964D02*
X18427146Y-15155440D01*
X18427146Y-15155440D02*
X18446193Y-15126869D01*
X18446193Y-15126869D02*
X18455717Y-15107821D01*
X18455717Y-15107821D02*
X18465241Y-15079250D01*
X18465241Y-15079250D02*
X18474765Y-15031631D01*
X18474765Y-15031631D02*
X18474765Y-14993536D01*
X18474765Y-14993536D02*
X18465241Y-14945917D01*
X18465241Y-14945917D02*
X18455717Y-14917345D01*
X18455717Y-14917345D02*
X18446193Y-14898298D01*
X18446193Y-14898298D02*
X18427146Y-14869726D01*
X18427146Y-14869726D02*
X18417622Y-14860202D01*
D13*
X13274764Y-15260250D02*
G75*
G03*
X13274764Y-15260250I-15000J0D01*
G01*
D12*
X13560479Y-15152774D02*
X13579526Y-15152774D01*
X13579526Y-15152774D02*
X13598574Y-15162298D01*
X13598574Y-15162298D02*
X13608098Y-15171821D01*
X13608098Y-15171821D02*
X13617621Y-15190869D01*
X13617621Y-15190869D02*
X13627145Y-15228964D01*
X13627145Y-15228964D02*
X13627145Y-15276583D01*
X13627145Y-15276583D02*
X13617621Y-15314678D01*
X13617621Y-15314678D02*
X13608098Y-15333726D01*
X13608098Y-15333726D02*
X13598574Y-15343250D01*
X13598574Y-15343250D02*
X13579526Y-15352774D01*
X13579526Y-15352774D02*
X13560479Y-15352774D01*
X13560479Y-15352774D02*
X13541431Y-15343250D01*
X13541431Y-15343250D02*
X13531907Y-15333726D01*
X13531907Y-15333726D02*
X13522383Y-15314678D01*
X13522383Y-15314678D02*
X13512860Y-15276583D01*
X13512860Y-15276583D02*
X13512860Y-15228964D01*
X13512860Y-15228964D02*
X13522383Y-15190869D01*
X13522383Y-15190869D02*
X13531907Y-15171821D01*
X13531907Y-15171821D02*
X13541431Y-15162298D01*
X13541431Y-15162298D02*
X13560479Y-15152774D01*
X13712860Y-15333726D02*
X13722383Y-15343250D01*
X13722383Y-15343250D02*
X13712860Y-15352774D01*
X13712860Y-15352774D02*
X13703336Y-15343250D01*
X13703336Y-15343250D02*
X13712860Y-15333726D01*
X13712860Y-15333726D02*
X13712860Y-15352774D01*
X13789050Y-15152774D02*
X13912860Y-15152774D01*
X13912860Y-15152774D02*
X13846193Y-15228964D01*
X13846193Y-15228964D02*
X13874764Y-15228964D01*
X13874764Y-15228964D02*
X13893812Y-15238488D01*
X13893812Y-15238488D02*
X13903336Y-15248012D01*
X13903336Y-15248012D02*
X13912860Y-15267059D01*
X13912860Y-15267059D02*
X13912860Y-15314678D01*
X13912860Y-15314678D02*
X13903336Y-15333726D01*
X13903336Y-15333726D02*
X13893812Y-15343250D01*
X13893812Y-15343250D02*
X13874764Y-15352774D01*
X13874764Y-15352774D02*
X13817621Y-15352774D01*
X13817621Y-15352774D02*
X13798574Y-15343250D01*
X13798574Y-15343250D02*
X13789050Y-15333726D01*
X14036669Y-15152774D02*
X14055717Y-15152774D01*
X14055717Y-15152774D02*
X14074764Y-15162298D01*
X14074764Y-15162298D02*
X14084288Y-15171821D01*
X14084288Y-15171821D02*
X14093812Y-15190869D01*
X14093812Y-15190869D02*
X14103336Y-15228964D01*
X14103336Y-15228964D02*
X14103336Y-15276583D01*
X14103336Y-15276583D02*
X14093812Y-15314678D01*
X14093812Y-15314678D02*
X14084288Y-15333726D01*
X14084288Y-15333726D02*
X14074764Y-15343250D01*
X14074764Y-15343250D02*
X14055717Y-15352774D01*
X14055717Y-15352774D02*
X14036669Y-15352774D01*
X14036669Y-15352774D02*
X14017621Y-15343250D01*
X14017621Y-15343250D02*
X14008098Y-15333726D01*
X14008098Y-15333726D02*
X13998574Y-15314678D01*
X13998574Y-15314678D02*
X13989050Y-15276583D01*
X13989050Y-15276583D02*
X13989050Y-15228964D01*
X13989050Y-15228964D02*
X13998574Y-15190869D01*
X13998574Y-15190869D02*
X14008098Y-15171821D01*
X14008098Y-15171821D02*
X14017621Y-15162298D01*
X14017621Y-15162298D02*
X14036669Y-15152774D01*
X14227145Y-15152774D02*
X14246193Y-15152774D01*
X14246193Y-15152774D02*
X14265241Y-15162298D01*
X14265241Y-15162298D02*
X14274764Y-15171821D01*
X14274764Y-15171821D02*
X14284288Y-15190869D01*
X14284288Y-15190869D02*
X14293812Y-15228964D01*
X14293812Y-15228964D02*
X14293812Y-15276583D01*
X14293812Y-15276583D02*
X14284288Y-15314678D01*
X14284288Y-15314678D02*
X14274764Y-15333726D01*
X14274764Y-15333726D02*
X14265241Y-15343250D01*
X14265241Y-15343250D02*
X14246193Y-15352774D01*
X14246193Y-15352774D02*
X14227145Y-15352774D01*
X14227145Y-15352774D02*
X14208098Y-15343250D01*
X14208098Y-15343250D02*
X14198574Y-15333726D01*
X14198574Y-15333726D02*
X14189050Y-15314678D01*
X14189050Y-15314678D02*
X14179526Y-15276583D01*
X14179526Y-15276583D02*
X14179526Y-15228964D01*
X14179526Y-15228964D02*
X14189050Y-15190869D01*
X14189050Y-15190869D02*
X14198574Y-15171821D01*
X14198574Y-15171821D02*
X14208098Y-15162298D01*
X14208098Y-15162298D02*
X14227145Y-15152774D01*
X14379526Y-15352774D02*
X14379526Y-15219440D01*
X14379526Y-15238488D02*
X14389050Y-15228964D01*
X14389050Y-15228964D02*
X14408098Y-15219440D01*
X14408098Y-15219440D02*
X14436669Y-15219440D01*
X14436669Y-15219440D02*
X14455717Y-15228964D01*
X14455717Y-15228964D02*
X14465241Y-15248012D01*
X14465241Y-15248012D02*
X14465241Y-15352774D01*
X14465241Y-15248012D02*
X14474764Y-15228964D01*
X14474764Y-15228964D02*
X14493812Y-15219440D01*
X14493812Y-15219440D02*
X14522383Y-15219440D01*
X14522383Y-15219440D02*
X14541431Y-15228964D01*
X14541431Y-15228964D02*
X14550955Y-15248012D01*
X14550955Y-15248012D02*
X14550955Y-15352774D01*
X14646193Y-15352774D02*
X14646193Y-15219440D01*
X14646193Y-15238488D02*
X14655717Y-15228964D01*
X14655717Y-15228964D02*
X14674764Y-15219440D01*
X14674764Y-15219440D02*
X14703336Y-15219440D01*
X14703336Y-15219440D02*
X14722383Y-15228964D01*
X14722383Y-15228964D02*
X14731907Y-15248012D01*
X14731907Y-15248012D02*
X14731907Y-15352774D01*
X14731907Y-15248012D02*
X14741431Y-15228964D01*
X14741431Y-15228964D02*
X14760479Y-15219440D01*
X14760479Y-15219440D02*
X14789050Y-15219440D01*
X14789050Y-15219440D02*
X14808098Y-15228964D01*
X14808098Y-15228964D02*
X14817622Y-15248012D01*
X14817622Y-15248012D02*
X14817622Y-15352774D01*
X15208098Y-15143250D02*
X15036669Y-15400393D01*
X15465241Y-15152774D02*
X15484288Y-15152774D01*
X15484288Y-15152774D02*
X15503336Y-15162298D01*
X15503336Y-15162298D02*
X15512860Y-15171821D01*
X15512860Y-15171821D02*
X15522384Y-15190869D01*
X15522384Y-15190869D02*
X15531907Y-15228964D01*
X15531907Y-15228964D02*
X15531907Y-15276583D01*
X15531907Y-15276583D02*
X15522384Y-15314678D01*
X15522384Y-15314678D02*
X15512860Y-15333726D01*
X15512860Y-15333726D02*
X15503336Y-15343250D01*
X15503336Y-15343250D02*
X15484288Y-15352774D01*
X15484288Y-15352774D02*
X15465241Y-15352774D01*
X15465241Y-15352774D02*
X15446193Y-15343250D01*
X15446193Y-15343250D02*
X15436669Y-15333726D01*
X15436669Y-15333726D02*
X15427145Y-15314678D01*
X15427145Y-15314678D02*
X15417622Y-15276583D01*
X15417622Y-15276583D02*
X15417622Y-15228964D01*
X15417622Y-15228964D02*
X15427145Y-15190869D01*
X15427145Y-15190869D02*
X15436669Y-15171821D01*
X15436669Y-15171821D02*
X15446193Y-15162298D01*
X15446193Y-15162298D02*
X15465241Y-15152774D01*
X15617622Y-15333726D02*
X15627145Y-15343250D01*
X15627145Y-15343250D02*
X15617622Y-15352774D01*
X15617622Y-15352774D02*
X15608098Y-15343250D01*
X15608098Y-15343250D02*
X15617622Y-15333726D01*
X15617622Y-15333726D02*
X15617622Y-15352774D01*
X15750955Y-15152774D02*
X15770003Y-15152774D01*
X15770003Y-15152774D02*
X15789050Y-15162298D01*
X15789050Y-15162298D02*
X15798574Y-15171821D01*
X15798574Y-15171821D02*
X15808098Y-15190869D01*
X15808098Y-15190869D02*
X15817622Y-15228964D01*
X15817622Y-15228964D02*
X15817622Y-15276583D01*
X15817622Y-15276583D02*
X15808098Y-15314678D01*
X15808098Y-15314678D02*
X15798574Y-15333726D01*
X15798574Y-15333726D02*
X15789050Y-15343250D01*
X15789050Y-15343250D02*
X15770003Y-15352774D01*
X15770003Y-15352774D02*
X15750955Y-15352774D01*
X15750955Y-15352774D02*
X15731907Y-15343250D01*
X15731907Y-15343250D02*
X15722384Y-15333726D01*
X15722384Y-15333726D02*
X15712860Y-15314678D01*
X15712860Y-15314678D02*
X15703336Y-15276583D01*
X15703336Y-15276583D02*
X15703336Y-15228964D01*
X15703336Y-15228964D02*
X15712860Y-15190869D01*
X15712860Y-15190869D02*
X15722384Y-15171821D01*
X15722384Y-15171821D02*
X15731907Y-15162298D01*
X15731907Y-15162298D02*
X15750955Y-15152774D01*
X16008098Y-15352774D02*
X15893812Y-15352774D01*
X15950955Y-15352774D02*
X15950955Y-15152774D01*
X15950955Y-15152774D02*
X15931907Y-15181345D01*
X15931907Y-15181345D02*
X15912860Y-15200393D01*
X15912860Y-15200393D02*
X15893812Y-15209917D01*
X16198574Y-15352774D02*
X16084288Y-15352774D01*
X16141431Y-15352774D02*
X16141431Y-15152774D01*
X16141431Y-15152774D02*
X16122384Y-15181345D01*
X16122384Y-15181345D02*
X16103336Y-15200393D01*
X16103336Y-15200393D02*
X16084288Y-15209917D01*
X16312860Y-15238488D02*
X16293812Y-15228964D01*
X16293812Y-15228964D02*
X16284288Y-15219440D01*
X16284288Y-15219440D02*
X16274765Y-15200393D01*
X16274765Y-15200393D02*
X16274765Y-15190869D01*
X16274765Y-15190869D02*
X16284288Y-15171821D01*
X16284288Y-15171821D02*
X16293812Y-15162298D01*
X16293812Y-15162298D02*
X16312860Y-15152774D01*
X16312860Y-15152774D02*
X16350955Y-15152774D01*
X16350955Y-15152774D02*
X16370003Y-15162298D01*
X16370003Y-15162298D02*
X16379526Y-15171821D01*
X16379526Y-15171821D02*
X16389050Y-15190869D01*
X16389050Y-15190869D02*
X16389050Y-15200393D01*
X16389050Y-15200393D02*
X16379526Y-15219440D01*
X16379526Y-15219440D02*
X16370003Y-15228964D01*
X16370003Y-15228964D02*
X16350955Y-15238488D01*
X16350955Y-15238488D02*
X16312860Y-15238488D01*
X16312860Y-15238488D02*
X16293812Y-15248012D01*
X16293812Y-15248012D02*
X16284288Y-15257536D01*
X16284288Y-15257536D02*
X16274765Y-15276583D01*
X16274765Y-15276583D02*
X16274765Y-15314678D01*
X16274765Y-15314678D02*
X16284288Y-15333726D01*
X16284288Y-15333726D02*
X16293812Y-15343250D01*
X16293812Y-15343250D02*
X16312860Y-15352774D01*
X16312860Y-15352774D02*
X16350955Y-15352774D01*
X16350955Y-15352774D02*
X16370003Y-15343250D01*
X16370003Y-15343250D02*
X16379526Y-15333726D01*
X16379526Y-15333726D02*
X16389050Y-15314678D01*
X16389050Y-15314678D02*
X16389050Y-15276583D01*
X16389050Y-15276583D02*
X16379526Y-15257536D01*
X16379526Y-15257536D02*
X16370003Y-15248012D01*
X16370003Y-15248012D02*
X16350955Y-15238488D01*
X16465241Y-15152774D02*
X16465241Y-15190869D01*
X16541431Y-15152774D02*
X16541431Y-15190869D01*
X16836670Y-15428964D02*
X16827146Y-15419440D01*
X16827146Y-15419440D02*
X16808098Y-15390869D01*
X16808098Y-15390869D02*
X16798574Y-15371821D01*
X16798574Y-15371821D02*
X16789050Y-15343250D01*
X16789050Y-15343250D02*
X16779527Y-15295631D01*
X16779527Y-15295631D02*
X16779527Y-15257536D01*
X16779527Y-15257536D02*
X16789050Y-15209917D01*
X16789050Y-15209917D02*
X16798574Y-15181345D01*
X16798574Y-15181345D02*
X16808098Y-15162298D01*
X16808098Y-15162298D02*
X16827146Y-15133726D01*
X16827146Y-15133726D02*
X16836670Y-15124202D01*
X17008098Y-15152774D02*
X16912860Y-15152774D01*
X16912860Y-15152774D02*
X16903336Y-15248012D01*
X16903336Y-15248012D02*
X16912860Y-15238488D01*
X16912860Y-15238488D02*
X16931908Y-15228964D01*
X16931908Y-15228964D02*
X16979527Y-15228964D01*
X16979527Y-15228964D02*
X16998574Y-15238488D01*
X16998574Y-15238488D02*
X17008098Y-15248012D01*
X17008098Y-15248012D02*
X17017622Y-15267059D01*
X17017622Y-15267059D02*
X17017622Y-15314678D01*
X17017622Y-15314678D02*
X17008098Y-15333726D01*
X17008098Y-15333726D02*
X16998574Y-15343250D01*
X16998574Y-15343250D02*
X16979527Y-15352774D01*
X16979527Y-15352774D02*
X16931908Y-15352774D01*
X16931908Y-15352774D02*
X16912860Y-15343250D01*
X16912860Y-15343250D02*
X16903336Y-15333726D01*
X17255717Y-15352774D02*
X17255717Y-15152774D01*
X17341431Y-15352774D02*
X17341431Y-15248012D01*
X17341431Y-15248012D02*
X17331908Y-15228964D01*
X17331908Y-15228964D02*
X17312860Y-15219440D01*
X17312860Y-15219440D02*
X17284289Y-15219440D01*
X17284289Y-15219440D02*
X17265241Y-15228964D01*
X17265241Y-15228964D02*
X17255717Y-15238488D01*
X17465241Y-15352774D02*
X17446193Y-15343250D01*
X17446193Y-15343250D02*
X17436670Y-15333726D01*
X17436670Y-15333726D02*
X17427146Y-15314678D01*
X17427146Y-15314678D02*
X17427146Y-15257536D01*
X17427146Y-15257536D02*
X17436670Y-15238488D01*
X17436670Y-15238488D02*
X17446193Y-15228964D01*
X17446193Y-15228964D02*
X17465241Y-15219440D01*
X17465241Y-15219440D02*
X17493812Y-15219440D01*
X17493812Y-15219440D02*
X17512860Y-15228964D01*
X17512860Y-15228964D02*
X17522384Y-15238488D01*
X17522384Y-15238488D02*
X17531908Y-15257536D01*
X17531908Y-15257536D02*
X17531908Y-15314678D01*
X17531908Y-15314678D02*
X17522384Y-15333726D01*
X17522384Y-15333726D02*
X17512860Y-15343250D01*
X17512860Y-15343250D02*
X17493812Y-15352774D01*
X17493812Y-15352774D02*
X17465241Y-15352774D01*
X17646193Y-15352774D02*
X17627146Y-15343250D01*
X17627146Y-15343250D02*
X17617622Y-15324202D01*
X17617622Y-15324202D02*
X17617622Y-15152774D01*
X17798574Y-15343250D02*
X17779527Y-15352774D01*
X17779527Y-15352774D02*
X17741431Y-15352774D01*
X17741431Y-15352774D02*
X17722384Y-15343250D01*
X17722384Y-15343250D02*
X17712860Y-15324202D01*
X17712860Y-15324202D02*
X17712860Y-15248012D01*
X17712860Y-15248012D02*
X17722384Y-15228964D01*
X17722384Y-15228964D02*
X17741431Y-15219440D01*
X17741431Y-15219440D02*
X17779527Y-15219440D01*
X17779527Y-15219440D02*
X17798574Y-15228964D01*
X17798574Y-15228964D02*
X17808098Y-15248012D01*
X17808098Y-15248012D02*
X17808098Y-15267059D01*
X17808098Y-15267059D02*
X17712860Y-15286107D01*
X17884289Y-15343250D02*
X17903336Y-15352774D01*
X17903336Y-15352774D02*
X17941431Y-15352774D01*
X17941431Y-15352774D02*
X17960479Y-15343250D01*
X17960479Y-15343250D02*
X17970003Y-15324202D01*
X17970003Y-15324202D02*
X17970003Y-15314678D01*
X17970003Y-15314678D02*
X17960479Y-15295631D01*
X17960479Y-15295631D02*
X17941431Y-15286107D01*
X17941431Y-15286107D02*
X17912860Y-15286107D01*
X17912860Y-15286107D02*
X17893812Y-15276583D01*
X17893812Y-15276583D02*
X17884289Y-15257536D01*
X17884289Y-15257536D02*
X17884289Y-15248012D01*
X17884289Y-15248012D02*
X17893812Y-15228964D01*
X17893812Y-15228964D02*
X17912860Y-15219440D01*
X17912860Y-15219440D02*
X17941431Y-15219440D01*
X17941431Y-15219440D02*
X17960479Y-15228964D01*
X18036670Y-15428964D02*
X18046193Y-15419440D01*
X18046193Y-15419440D02*
X18065241Y-15390869D01*
X18065241Y-15390869D02*
X18074765Y-15371821D01*
X18074765Y-15371821D02*
X18084289Y-15343250D01*
X18084289Y-15343250D02*
X18093812Y-15295631D01*
X18093812Y-15295631D02*
X18093812Y-15257536D01*
X18093812Y-15257536D02*
X18084289Y-15209917D01*
X18084289Y-15209917D02*
X18074765Y-15181345D01*
X18074765Y-15181345D02*
X18065241Y-15162298D01*
X18065241Y-15162298D02*
X18046193Y-15133726D01*
X18046193Y-15133726D02*
X18036670Y-15124202D01*
D14*
X13249764Y-15499250D02*
X13249764Y-15549250D01*
X13224764Y-15524250D02*
X13274764Y-15524250D01*
D12*
X13560479Y-15416774D02*
X13579526Y-15416774D01*
X13579526Y-15416774D02*
X13598574Y-15426298D01*
X13598574Y-15426298D02*
X13608098Y-15435821D01*
X13608098Y-15435821D02*
X13617621Y-15454869D01*
X13617621Y-15454869D02*
X13627145Y-15492964D01*
X13627145Y-15492964D02*
X13627145Y-15540583D01*
X13627145Y-15540583D02*
X13617621Y-15578678D01*
X13617621Y-15578678D02*
X13608098Y-15597726D01*
X13608098Y-15597726D02*
X13598574Y-15607250D01*
X13598574Y-15607250D02*
X13579526Y-15616774D01*
X13579526Y-15616774D02*
X13560479Y-15616774D01*
X13560479Y-15616774D02*
X13541431Y-15607250D01*
X13541431Y-15607250D02*
X13531907Y-15597726D01*
X13531907Y-15597726D02*
X13522383Y-15578678D01*
X13522383Y-15578678D02*
X13512860Y-15540583D01*
X13512860Y-15540583D02*
X13512860Y-15492964D01*
X13512860Y-15492964D02*
X13522383Y-15454869D01*
X13522383Y-15454869D02*
X13531907Y-15435821D01*
X13531907Y-15435821D02*
X13541431Y-15426298D01*
X13541431Y-15426298D02*
X13560479Y-15416774D01*
X13712860Y-15597726D02*
X13722383Y-15607250D01*
X13722383Y-15607250D02*
X13712860Y-15616774D01*
X13712860Y-15616774D02*
X13703336Y-15607250D01*
X13703336Y-15607250D02*
X13712860Y-15597726D01*
X13712860Y-15597726D02*
X13712860Y-15616774D01*
X13903336Y-15416774D02*
X13808098Y-15416774D01*
X13808098Y-15416774D02*
X13798574Y-15512012D01*
X13798574Y-15512012D02*
X13808098Y-15502488D01*
X13808098Y-15502488D02*
X13827145Y-15492964D01*
X13827145Y-15492964D02*
X13874764Y-15492964D01*
X13874764Y-15492964D02*
X13893812Y-15502488D01*
X13893812Y-15502488D02*
X13903336Y-15512012D01*
X13903336Y-15512012D02*
X13912860Y-15531059D01*
X13912860Y-15531059D02*
X13912860Y-15578678D01*
X13912860Y-15578678D02*
X13903336Y-15597726D01*
X13903336Y-15597726D02*
X13893812Y-15607250D01*
X13893812Y-15607250D02*
X13874764Y-15616774D01*
X13874764Y-15616774D02*
X13827145Y-15616774D01*
X13827145Y-15616774D02*
X13808098Y-15607250D01*
X13808098Y-15607250D02*
X13798574Y-15597726D01*
X14036669Y-15416774D02*
X14055717Y-15416774D01*
X14055717Y-15416774D02*
X14074764Y-15426298D01*
X14074764Y-15426298D02*
X14084288Y-15435821D01*
X14084288Y-15435821D02*
X14093812Y-15454869D01*
X14093812Y-15454869D02*
X14103336Y-15492964D01*
X14103336Y-15492964D02*
X14103336Y-15540583D01*
X14103336Y-15540583D02*
X14093812Y-15578678D01*
X14093812Y-15578678D02*
X14084288Y-15597726D01*
X14084288Y-15597726D02*
X14074764Y-15607250D01*
X14074764Y-15607250D02*
X14055717Y-15616774D01*
X14055717Y-15616774D02*
X14036669Y-15616774D01*
X14036669Y-15616774D02*
X14017621Y-15607250D01*
X14017621Y-15607250D02*
X14008098Y-15597726D01*
X14008098Y-15597726D02*
X13998574Y-15578678D01*
X13998574Y-15578678D02*
X13989050Y-15540583D01*
X13989050Y-15540583D02*
X13989050Y-15492964D01*
X13989050Y-15492964D02*
X13998574Y-15454869D01*
X13998574Y-15454869D02*
X14008098Y-15435821D01*
X14008098Y-15435821D02*
X14017621Y-15426298D01*
X14017621Y-15426298D02*
X14036669Y-15416774D01*
X14227145Y-15416774D02*
X14246193Y-15416774D01*
X14246193Y-15416774D02*
X14265241Y-15426298D01*
X14265241Y-15426298D02*
X14274764Y-15435821D01*
X14274764Y-15435821D02*
X14284288Y-15454869D01*
X14284288Y-15454869D02*
X14293812Y-15492964D01*
X14293812Y-15492964D02*
X14293812Y-15540583D01*
X14293812Y-15540583D02*
X14284288Y-15578678D01*
X14284288Y-15578678D02*
X14274764Y-15597726D01*
X14274764Y-15597726D02*
X14265241Y-15607250D01*
X14265241Y-15607250D02*
X14246193Y-15616774D01*
X14246193Y-15616774D02*
X14227145Y-15616774D01*
X14227145Y-15616774D02*
X14208098Y-15607250D01*
X14208098Y-15607250D02*
X14198574Y-15597726D01*
X14198574Y-15597726D02*
X14189050Y-15578678D01*
X14189050Y-15578678D02*
X14179526Y-15540583D01*
X14179526Y-15540583D02*
X14179526Y-15492964D01*
X14179526Y-15492964D02*
X14189050Y-15454869D01*
X14189050Y-15454869D02*
X14198574Y-15435821D01*
X14198574Y-15435821D02*
X14208098Y-15426298D01*
X14208098Y-15426298D02*
X14227145Y-15416774D01*
X14379526Y-15616774D02*
X14379526Y-15483440D01*
X14379526Y-15502488D02*
X14389050Y-15492964D01*
X14389050Y-15492964D02*
X14408098Y-15483440D01*
X14408098Y-15483440D02*
X14436669Y-15483440D01*
X14436669Y-15483440D02*
X14455717Y-15492964D01*
X14455717Y-15492964D02*
X14465241Y-15512012D01*
X14465241Y-15512012D02*
X14465241Y-15616774D01*
X14465241Y-15512012D02*
X14474764Y-15492964D01*
X14474764Y-15492964D02*
X14493812Y-15483440D01*
X14493812Y-15483440D02*
X14522383Y-15483440D01*
X14522383Y-15483440D02*
X14541431Y-15492964D01*
X14541431Y-15492964D02*
X14550955Y-15512012D01*
X14550955Y-15512012D02*
X14550955Y-15616774D01*
X14646193Y-15616774D02*
X14646193Y-15483440D01*
X14646193Y-15502488D02*
X14655717Y-15492964D01*
X14655717Y-15492964D02*
X14674764Y-15483440D01*
X14674764Y-15483440D02*
X14703336Y-15483440D01*
X14703336Y-15483440D02*
X14722383Y-15492964D01*
X14722383Y-15492964D02*
X14731907Y-15512012D01*
X14731907Y-15512012D02*
X14731907Y-15616774D01*
X14731907Y-15512012D02*
X14741431Y-15492964D01*
X14741431Y-15492964D02*
X14760479Y-15483440D01*
X14760479Y-15483440D02*
X14789050Y-15483440D01*
X14789050Y-15483440D02*
X14808098Y-15492964D01*
X14808098Y-15492964D02*
X14817622Y-15512012D01*
X14817622Y-15512012D02*
X14817622Y-15616774D01*
X15208098Y-15407250D02*
X15036669Y-15664393D01*
X15465241Y-15416774D02*
X15484288Y-15416774D01*
X15484288Y-15416774D02*
X15503336Y-15426298D01*
X15503336Y-15426298D02*
X15512860Y-15435821D01*
X15512860Y-15435821D02*
X15522384Y-15454869D01*
X15522384Y-15454869D02*
X15531907Y-15492964D01*
X15531907Y-15492964D02*
X15531907Y-15540583D01*
X15531907Y-15540583D02*
X15522384Y-15578678D01*
X15522384Y-15578678D02*
X15512860Y-15597726D01*
X15512860Y-15597726D02*
X15503336Y-15607250D01*
X15503336Y-15607250D02*
X15484288Y-15616774D01*
X15484288Y-15616774D02*
X15465241Y-15616774D01*
X15465241Y-15616774D02*
X15446193Y-15607250D01*
X15446193Y-15607250D02*
X15436669Y-15597726D01*
X15436669Y-15597726D02*
X15427145Y-15578678D01*
X15427145Y-15578678D02*
X15417622Y-15540583D01*
X15417622Y-15540583D02*
X15417622Y-15492964D01*
X15417622Y-15492964D02*
X15427145Y-15454869D01*
X15427145Y-15454869D02*
X15436669Y-15435821D01*
X15436669Y-15435821D02*
X15446193Y-15426298D01*
X15446193Y-15426298D02*
X15465241Y-15416774D01*
X15617622Y-15597726D02*
X15627145Y-15607250D01*
X15627145Y-15607250D02*
X15617622Y-15616774D01*
X15617622Y-15616774D02*
X15608098Y-15607250D01*
X15608098Y-15607250D02*
X15617622Y-15597726D01*
X15617622Y-15597726D02*
X15617622Y-15616774D01*
X15750955Y-15416774D02*
X15770003Y-15416774D01*
X15770003Y-15416774D02*
X15789050Y-15426298D01*
X15789050Y-15426298D02*
X15798574Y-15435821D01*
X15798574Y-15435821D02*
X15808098Y-15454869D01*
X15808098Y-15454869D02*
X15817622Y-15492964D01*
X15817622Y-15492964D02*
X15817622Y-15540583D01*
X15817622Y-15540583D02*
X15808098Y-15578678D01*
X15808098Y-15578678D02*
X15798574Y-15597726D01*
X15798574Y-15597726D02*
X15789050Y-15607250D01*
X15789050Y-15607250D02*
X15770003Y-15616774D01*
X15770003Y-15616774D02*
X15750955Y-15616774D01*
X15750955Y-15616774D02*
X15731907Y-15607250D01*
X15731907Y-15607250D02*
X15722384Y-15597726D01*
X15722384Y-15597726D02*
X15712860Y-15578678D01*
X15712860Y-15578678D02*
X15703336Y-15540583D01*
X15703336Y-15540583D02*
X15703336Y-15492964D01*
X15703336Y-15492964D02*
X15712860Y-15454869D01*
X15712860Y-15454869D02*
X15722384Y-15435821D01*
X15722384Y-15435821D02*
X15731907Y-15426298D01*
X15731907Y-15426298D02*
X15750955Y-15416774D01*
X16008098Y-15616774D02*
X15893812Y-15616774D01*
X15950955Y-15616774D02*
X15950955Y-15416774D01*
X15950955Y-15416774D02*
X15931907Y-15445345D01*
X15931907Y-15445345D02*
X15912860Y-15464393D01*
X15912860Y-15464393D02*
X15893812Y-15473917D01*
X16103336Y-15616774D02*
X16141431Y-15616774D01*
X16141431Y-15616774D02*
X16160479Y-15607250D01*
X16160479Y-15607250D02*
X16170003Y-15597726D01*
X16170003Y-15597726D02*
X16189050Y-15569155D01*
X16189050Y-15569155D02*
X16198574Y-15531059D01*
X16198574Y-15531059D02*
X16198574Y-15454869D01*
X16198574Y-15454869D02*
X16189050Y-15435821D01*
X16189050Y-15435821D02*
X16179526Y-15426298D01*
X16179526Y-15426298D02*
X16160479Y-15416774D01*
X16160479Y-15416774D02*
X16122384Y-15416774D01*
X16122384Y-15416774D02*
X16103336Y-15426298D01*
X16103336Y-15426298D02*
X16093812Y-15435821D01*
X16093812Y-15435821D02*
X16084288Y-15454869D01*
X16084288Y-15454869D02*
X16084288Y-15502488D01*
X16084288Y-15502488D02*
X16093812Y-15521536D01*
X16093812Y-15521536D02*
X16103336Y-15531059D01*
X16103336Y-15531059D02*
X16122384Y-15540583D01*
X16122384Y-15540583D02*
X16160479Y-15540583D01*
X16160479Y-15540583D02*
X16179526Y-15531059D01*
X16179526Y-15531059D02*
X16189050Y-15521536D01*
X16189050Y-15521536D02*
X16198574Y-15502488D01*
X16265241Y-15416774D02*
X16398574Y-15416774D01*
X16398574Y-15416774D02*
X16312860Y-15616774D01*
X16465241Y-15416774D02*
X16465241Y-15454869D01*
X16541431Y-15416774D02*
X16541431Y-15454869D01*
X16836670Y-15692964D02*
X16827146Y-15683440D01*
X16827146Y-15683440D02*
X16808098Y-15654869D01*
X16808098Y-15654869D02*
X16798574Y-15635821D01*
X16798574Y-15635821D02*
X16789050Y-15607250D01*
X16789050Y-15607250D02*
X16779527Y-15559631D01*
X16779527Y-15559631D02*
X16779527Y-15521536D01*
X16779527Y-15521536D02*
X16789050Y-15473917D01*
X16789050Y-15473917D02*
X16798574Y-15445345D01*
X16798574Y-15445345D02*
X16808098Y-15426298D01*
X16808098Y-15426298D02*
X16827146Y-15397726D01*
X16827146Y-15397726D02*
X16836670Y-15388202D01*
X16941431Y-15502488D02*
X16922384Y-15492964D01*
X16922384Y-15492964D02*
X16912860Y-15483440D01*
X16912860Y-15483440D02*
X16903336Y-15464393D01*
X16903336Y-15464393D02*
X16903336Y-15454869D01*
X16903336Y-15454869D02*
X16912860Y-15435821D01*
X16912860Y-15435821D02*
X16922384Y-15426298D01*
X16922384Y-15426298D02*
X16941431Y-15416774D01*
X16941431Y-15416774D02*
X16979527Y-15416774D01*
X16979527Y-15416774D02*
X16998574Y-15426298D01*
X16998574Y-15426298D02*
X17008098Y-15435821D01*
X17008098Y-15435821D02*
X17017622Y-15454869D01*
X17017622Y-15454869D02*
X17017622Y-15464393D01*
X17017622Y-15464393D02*
X17008098Y-15483440D01*
X17008098Y-15483440D02*
X16998574Y-15492964D01*
X16998574Y-15492964D02*
X16979527Y-15502488D01*
X16979527Y-15502488D02*
X16941431Y-15502488D01*
X16941431Y-15502488D02*
X16922384Y-15512012D01*
X16922384Y-15512012D02*
X16912860Y-15521536D01*
X16912860Y-15521536D02*
X16903336Y-15540583D01*
X16903336Y-15540583D02*
X16903336Y-15578678D01*
X16903336Y-15578678D02*
X16912860Y-15597726D01*
X16912860Y-15597726D02*
X16922384Y-15607250D01*
X16922384Y-15607250D02*
X16941431Y-15616774D01*
X16941431Y-15616774D02*
X16979527Y-15616774D01*
X16979527Y-15616774D02*
X16998574Y-15607250D01*
X16998574Y-15607250D02*
X17008098Y-15597726D01*
X17008098Y-15597726D02*
X17017622Y-15578678D01*
X17017622Y-15578678D02*
X17017622Y-15540583D01*
X17017622Y-15540583D02*
X17008098Y-15521536D01*
X17008098Y-15521536D02*
X16998574Y-15512012D01*
X16998574Y-15512012D02*
X16979527Y-15502488D01*
X17255717Y-15616774D02*
X17255717Y-15416774D01*
X17341431Y-15616774D02*
X17341431Y-15512012D01*
X17341431Y-15512012D02*
X17331908Y-15492964D01*
X17331908Y-15492964D02*
X17312860Y-15483440D01*
X17312860Y-15483440D02*
X17284289Y-15483440D01*
X17284289Y-15483440D02*
X17265241Y-15492964D01*
X17265241Y-15492964D02*
X17255717Y-15502488D01*
X17465241Y-15616774D02*
X17446193Y-15607250D01*
X17446193Y-15607250D02*
X17436670Y-15597726D01*
X17436670Y-15597726D02*
X17427146Y-15578678D01*
X17427146Y-15578678D02*
X17427146Y-15521536D01*
X17427146Y-15521536D02*
X17436670Y-15502488D01*
X17436670Y-15502488D02*
X17446193Y-15492964D01*
X17446193Y-15492964D02*
X17465241Y-15483440D01*
X17465241Y-15483440D02*
X17493812Y-15483440D01*
X17493812Y-15483440D02*
X17512860Y-15492964D01*
X17512860Y-15492964D02*
X17522384Y-15502488D01*
X17522384Y-15502488D02*
X17531908Y-15521536D01*
X17531908Y-15521536D02*
X17531908Y-15578678D01*
X17531908Y-15578678D02*
X17522384Y-15597726D01*
X17522384Y-15597726D02*
X17512860Y-15607250D01*
X17512860Y-15607250D02*
X17493812Y-15616774D01*
X17493812Y-15616774D02*
X17465241Y-15616774D01*
X17646193Y-15616774D02*
X17627146Y-15607250D01*
X17627146Y-15607250D02*
X17617622Y-15588202D01*
X17617622Y-15588202D02*
X17617622Y-15416774D01*
X17798574Y-15607250D02*
X17779527Y-15616774D01*
X17779527Y-15616774D02*
X17741431Y-15616774D01*
X17741431Y-15616774D02*
X17722384Y-15607250D01*
X17722384Y-15607250D02*
X17712860Y-15588202D01*
X17712860Y-15588202D02*
X17712860Y-15512012D01*
X17712860Y-15512012D02*
X17722384Y-15492964D01*
X17722384Y-15492964D02*
X17741431Y-15483440D01*
X17741431Y-15483440D02*
X17779527Y-15483440D01*
X17779527Y-15483440D02*
X17798574Y-15492964D01*
X17798574Y-15492964D02*
X17808098Y-15512012D01*
X17808098Y-15512012D02*
X17808098Y-15531059D01*
X17808098Y-15531059D02*
X17712860Y-15550107D01*
X17884289Y-15607250D02*
X17903336Y-15616774D01*
X17903336Y-15616774D02*
X17941431Y-15616774D01*
X17941431Y-15616774D02*
X17960479Y-15607250D01*
X17960479Y-15607250D02*
X17970003Y-15588202D01*
X17970003Y-15588202D02*
X17970003Y-15578678D01*
X17970003Y-15578678D02*
X17960479Y-15559631D01*
X17960479Y-15559631D02*
X17941431Y-15550107D01*
X17941431Y-15550107D02*
X17912860Y-15550107D01*
X17912860Y-15550107D02*
X17893812Y-15540583D01*
X17893812Y-15540583D02*
X17884289Y-15521536D01*
X17884289Y-15521536D02*
X17884289Y-15512012D01*
X17884289Y-15512012D02*
X17893812Y-15492964D01*
X17893812Y-15492964D02*
X17912860Y-15483440D01*
X17912860Y-15483440D02*
X17941431Y-15483440D01*
X17941431Y-15483440D02*
X17960479Y-15492964D01*
X18036670Y-15692964D02*
X18046193Y-15683440D01*
X18046193Y-15683440D02*
X18065241Y-15654869D01*
X18065241Y-15654869D02*
X18074765Y-15635821D01*
X18074765Y-15635821D02*
X18084289Y-15607250D01*
X18084289Y-15607250D02*
X18093812Y-15559631D01*
X18093812Y-15559631D02*
X18093812Y-15521536D01*
X18093812Y-15521536D02*
X18084289Y-15473917D01*
X18084289Y-15473917D02*
X18074765Y-15445345D01*
X18074765Y-15445345D02*
X18065241Y-15426298D01*
X18065241Y-15426298D02*
X18046193Y-15397726D01*
X18046193Y-15397726D02*
X18036670Y-15388202D01*
D15*
X13265978Y-15809463D02*
X13265978Y-15767037D01*
X13223551Y-15767037D01*
X13223551Y-15809463D01*
X13265978Y-15809463D01*
D12*
X13560479Y-15680774D02*
X13579526Y-15680774D01*
X13579526Y-15680774D02*
X13598574Y-15690298D01*
X13598574Y-15690298D02*
X13608098Y-15699821D01*
X13608098Y-15699821D02*
X13617621Y-15718869D01*
X13617621Y-15718869D02*
X13627145Y-15756964D01*
X13627145Y-15756964D02*
X13627145Y-15804583D01*
X13627145Y-15804583D02*
X13617621Y-15842678D01*
X13617621Y-15842678D02*
X13608098Y-15861726D01*
X13608098Y-15861726D02*
X13598574Y-15871250D01*
X13598574Y-15871250D02*
X13579526Y-15880774D01*
X13579526Y-15880774D02*
X13560479Y-15880774D01*
X13560479Y-15880774D02*
X13541431Y-15871250D01*
X13541431Y-15871250D02*
X13531907Y-15861726D01*
X13531907Y-15861726D02*
X13522383Y-15842678D01*
X13522383Y-15842678D02*
X13512860Y-15804583D01*
X13512860Y-15804583D02*
X13512860Y-15756964D01*
X13512860Y-15756964D02*
X13522383Y-15718869D01*
X13522383Y-15718869D02*
X13531907Y-15699821D01*
X13531907Y-15699821D02*
X13541431Y-15690298D01*
X13541431Y-15690298D02*
X13560479Y-15680774D01*
X13712860Y-15861726D02*
X13722383Y-15871250D01*
X13722383Y-15871250D02*
X13712860Y-15880774D01*
X13712860Y-15880774D02*
X13703336Y-15871250D01*
X13703336Y-15871250D02*
X13712860Y-15861726D01*
X13712860Y-15861726D02*
X13712860Y-15880774D01*
X13893812Y-15680774D02*
X13855717Y-15680774D01*
X13855717Y-15680774D02*
X13836669Y-15690298D01*
X13836669Y-15690298D02*
X13827145Y-15699821D01*
X13827145Y-15699821D02*
X13808098Y-15728393D01*
X13808098Y-15728393D02*
X13798574Y-15766488D01*
X13798574Y-15766488D02*
X13798574Y-15842678D01*
X13798574Y-15842678D02*
X13808098Y-15861726D01*
X13808098Y-15861726D02*
X13817621Y-15871250D01*
X13817621Y-15871250D02*
X13836669Y-15880774D01*
X13836669Y-15880774D02*
X13874764Y-15880774D01*
X13874764Y-15880774D02*
X13893812Y-15871250D01*
X13893812Y-15871250D02*
X13903336Y-15861726D01*
X13903336Y-15861726D02*
X13912860Y-15842678D01*
X13912860Y-15842678D02*
X13912860Y-15795059D01*
X13912860Y-15795059D02*
X13903336Y-15776012D01*
X13903336Y-15776012D02*
X13893812Y-15766488D01*
X13893812Y-15766488D02*
X13874764Y-15756964D01*
X13874764Y-15756964D02*
X13836669Y-15756964D01*
X13836669Y-15756964D02*
X13817621Y-15766488D01*
X13817621Y-15766488D02*
X13808098Y-15776012D01*
X13808098Y-15776012D02*
X13798574Y-15795059D01*
X14036669Y-15680774D02*
X14055717Y-15680774D01*
X14055717Y-15680774D02*
X14074764Y-15690298D01*
X14074764Y-15690298D02*
X14084288Y-15699821D01*
X14084288Y-15699821D02*
X14093812Y-15718869D01*
X14093812Y-15718869D02*
X14103336Y-15756964D01*
X14103336Y-15756964D02*
X14103336Y-15804583D01*
X14103336Y-15804583D02*
X14093812Y-15842678D01*
X14093812Y-15842678D02*
X14084288Y-15861726D01*
X14084288Y-15861726D02*
X14074764Y-15871250D01*
X14074764Y-15871250D02*
X14055717Y-15880774D01*
X14055717Y-15880774D02*
X14036669Y-15880774D01*
X14036669Y-15880774D02*
X14017621Y-15871250D01*
X14017621Y-15871250D02*
X14008098Y-15861726D01*
X14008098Y-15861726D02*
X13998574Y-15842678D01*
X13998574Y-15842678D02*
X13989050Y-15804583D01*
X13989050Y-15804583D02*
X13989050Y-15756964D01*
X13989050Y-15756964D02*
X13998574Y-15718869D01*
X13998574Y-15718869D02*
X14008098Y-15699821D01*
X14008098Y-15699821D02*
X14017621Y-15690298D01*
X14017621Y-15690298D02*
X14036669Y-15680774D01*
X14227145Y-15680774D02*
X14246193Y-15680774D01*
X14246193Y-15680774D02*
X14265241Y-15690298D01*
X14265241Y-15690298D02*
X14274764Y-15699821D01*
X14274764Y-15699821D02*
X14284288Y-15718869D01*
X14284288Y-15718869D02*
X14293812Y-15756964D01*
X14293812Y-15756964D02*
X14293812Y-15804583D01*
X14293812Y-15804583D02*
X14284288Y-15842678D01*
X14284288Y-15842678D02*
X14274764Y-15861726D01*
X14274764Y-15861726D02*
X14265241Y-15871250D01*
X14265241Y-15871250D02*
X14246193Y-15880774D01*
X14246193Y-15880774D02*
X14227145Y-15880774D01*
X14227145Y-15880774D02*
X14208098Y-15871250D01*
X14208098Y-15871250D02*
X14198574Y-15861726D01*
X14198574Y-15861726D02*
X14189050Y-15842678D01*
X14189050Y-15842678D02*
X14179526Y-15804583D01*
X14179526Y-15804583D02*
X14179526Y-15756964D01*
X14179526Y-15756964D02*
X14189050Y-15718869D01*
X14189050Y-15718869D02*
X14198574Y-15699821D01*
X14198574Y-15699821D02*
X14208098Y-15690298D01*
X14208098Y-15690298D02*
X14227145Y-15680774D01*
X14379526Y-15880774D02*
X14379526Y-15747440D01*
X14379526Y-15766488D02*
X14389050Y-15756964D01*
X14389050Y-15756964D02*
X14408098Y-15747440D01*
X14408098Y-15747440D02*
X14436669Y-15747440D01*
X14436669Y-15747440D02*
X14455717Y-15756964D01*
X14455717Y-15756964D02*
X14465241Y-15776012D01*
X14465241Y-15776012D02*
X14465241Y-15880774D01*
X14465241Y-15776012D02*
X14474764Y-15756964D01*
X14474764Y-15756964D02*
X14493812Y-15747440D01*
X14493812Y-15747440D02*
X14522383Y-15747440D01*
X14522383Y-15747440D02*
X14541431Y-15756964D01*
X14541431Y-15756964D02*
X14550955Y-15776012D01*
X14550955Y-15776012D02*
X14550955Y-15880774D01*
X14646193Y-15880774D02*
X14646193Y-15747440D01*
X14646193Y-15766488D02*
X14655717Y-15756964D01*
X14655717Y-15756964D02*
X14674764Y-15747440D01*
X14674764Y-15747440D02*
X14703336Y-15747440D01*
X14703336Y-15747440D02*
X14722383Y-15756964D01*
X14722383Y-15756964D02*
X14731907Y-15776012D01*
X14731907Y-15776012D02*
X14731907Y-15880774D01*
X14731907Y-15776012D02*
X14741431Y-15756964D01*
X14741431Y-15756964D02*
X14760479Y-15747440D01*
X14760479Y-15747440D02*
X14789050Y-15747440D01*
X14789050Y-15747440D02*
X14808098Y-15756964D01*
X14808098Y-15756964D02*
X14817622Y-15776012D01*
X14817622Y-15776012D02*
X14817622Y-15880774D01*
X15208098Y-15671250D02*
X15036669Y-15928393D01*
X15465241Y-15680774D02*
X15484288Y-15680774D01*
X15484288Y-15680774D02*
X15503336Y-15690298D01*
X15503336Y-15690298D02*
X15512860Y-15699821D01*
X15512860Y-15699821D02*
X15522384Y-15718869D01*
X15522384Y-15718869D02*
X15531907Y-15756964D01*
X15531907Y-15756964D02*
X15531907Y-15804583D01*
X15531907Y-15804583D02*
X15522384Y-15842678D01*
X15522384Y-15842678D02*
X15512860Y-15861726D01*
X15512860Y-15861726D02*
X15503336Y-15871250D01*
X15503336Y-15871250D02*
X15484288Y-15880774D01*
X15484288Y-15880774D02*
X15465241Y-15880774D01*
X15465241Y-15880774D02*
X15446193Y-15871250D01*
X15446193Y-15871250D02*
X15436669Y-15861726D01*
X15436669Y-15861726D02*
X15427145Y-15842678D01*
X15427145Y-15842678D02*
X15417622Y-15804583D01*
X15417622Y-15804583D02*
X15417622Y-15756964D01*
X15417622Y-15756964D02*
X15427145Y-15718869D01*
X15427145Y-15718869D02*
X15436669Y-15699821D01*
X15436669Y-15699821D02*
X15446193Y-15690298D01*
X15446193Y-15690298D02*
X15465241Y-15680774D01*
X15617622Y-15861726D02*
X15627145Y-15871250D01*
X15627145Y-15871250D02*
X15617622Y-15880774D01*
X15617622Y-15880774D02*
X15608098Y-15871250D01*
X15608098Y-15871250D02*
X15617622Y-15861726D01*
X15617622Y-15861726D02*
X15617622Y-15880774D01*
X15750955Y-15680774D02*
X15770003Y-15680774D01*
X15770003Y-15680774D02*
X15789050Y-15690298D01*
X15789050Y-15690298D02*
X15798574Y-15699821D01*
X15798574Y-15699821D02*
X15808098Y-15718869D01*
X15808098Y-15718869D02*
X15817622Y-15756964D01*
X15817622Y-15756964D02*
X15817622Y-15804583D01*
X15817622Y-15804583D02*
X15808098Y-15842678D01*
X15808098Y-15842678D02*
X15798574Y-15861726D01*
X15798574Y-15861726D02*
X15789050Y-15871250D01*
X15789050Y-15871250D02*
X15770003Y-15880774D01*
X15770003Y-15880774D02*
X15750955Y-15880774D01*
X15750955Y-15880774D02*
X15731907Y-15871250D01*
X15731907Y-15871250D02*
X15722384Y-15861726D01*
X15722384Y-15861726D02*
X15712860Y-15842678D01*
X15712860Y-15842678D02*
X15703336Y-15804583D01*
X15703336Y-15804583D02*
X15703336Y-15756964D01*
X15703336Y-15756964D02*
X15712860Y-15718869D01*
X15712860Y-15718869D02*
X15722384Y-15699821D01*
X15722384Y-15699821D02*
X15731907Y-15690298D01*
X15731907Y-15690298D02*
X15750955Y-15680774D01*
X15893812Y-15699821D02*
X15903336Y-15690298D01*
X15903336Y-15690298D02*
X15922384Y-15680774D01*
X15922384Y-15680774D02*
X15970003Y-15680774D01*
X15970003Y-15680774D02*
X15989050Y-15690298D01*
X15989050Y-15690298D02*
X15998574Y-15699821D01*
X15998574Y-15699821D02*
X16008098Y-15718869D01*
X16008098Y-15718869D02*
X16008098Y-15737917D01*
X16008098Y-15737917D02*
X15998574Y-15766488D01*
X15998574Y-15766488D02*
X15884288Y-15880774D01*
X15884288Y-15880774D02*
X16008098Y-15880774D01*
X16074765Y-15680774D02*
X16198574Y-15680774D01*
X16198574Y-15680774D02*
X16131907Y-15756964D01*
X16131907Y-15756964D02*
X16160479Y-15756964D01*
X16160479Y-15756964D02*
X16179526Y-15766488D01*
X16179526Y-15766488D02*
X16189050Y-15776012D01*
X16189050Y-15776012D02*
X16198574Y-15795059D01*
X16198574Y-15795059D02*
X16198574Y-15842678D01*
X16198574Y-15842678D02*
X16189050Y-15861726D01*
X16189050Y-15861726D02*
X16179526Y-15871250D01*
X16179526Y-15871250D02*
X16160479Y-15880774D01*
X16160479Y-15880774D02*
X16103336Y-15880774D01*
X16103336Y-15880774D02*
X16084288Y-15871250D01*
X16084288Y-15871250D02*
X16074765Y-15861726D01*
X16370003Y-15680774D02*
X16331907Y-15680774D01*
X16331907Y-15680774D02*
X16312860Y-15690298D01*
X16312860Y-15690298D02*
X16303336Y-15699821D01*
X16303336Y-15699821D02*
X16284288Y-15728393D01*
X16284288Y-15728393D02*
X16274765Y-15766488D01*
X16274765Y-15766488D02*
X16274765Y-15842678D01*
X16274765Y-15842678D02*
X16284288Y-15861726D01*
X16284288Y-15861726D02*
X16293812Y-15871250D01*
X16293812Y-15871250D02*
X16312860Y-15880774D01*
X16312860Y-15880774D02*
X16350955Y-15880774D01*
X16350955Y-15880774D02*
X16370003Y-15871250D01*
X16370003Y-15871250D02*
X16379526Y-15861726D01*
X16379526Y-15861726D02*
X16389050Y-15842678D01*
X16389050Y-15842678D02*
X16389050Y-15795059D01*
X16389050Y-15795059D02*
X16379526Y-15776012D01*
X16379526Y-15776012D02*
X16370003Y-15766488D01*
X16370003Y-15766488D02*
X16350955Y-15756964D01*
X16350955Y-15756964D02*
X16312860Y-15756964D01*
X16312860Y-15756964D02*
X16293812Y-15766488D01*
X16293812Y-15766488D02*
X16284288Y-15776012D01*
X16284288Y-15776012D02*
X16274765Y-15795059D01*
X16465241Y-15680774D02*
X16465241Y-15718869D01*
X16541431Y-15680774D02*
X16541431Y-15718869D01*
X16836670Y-15956964D02*
X16827146Y-15947440D01*
X16827146Y-15947440D02*
X16808098Y-15918869D01*
X16808098Y-15918869D02*
X16798574Y-15899821D01*
X16798574Y-15899821D02*
X16789050Y-15871250D01*
X16789050Y-15871250D02*
X16779527Y-15823631D01*
X16779527Y-15823631D02*
X16779527Y-15785536D01*
X16779527Y-15785536D02*
X16789050Y-15737917D01*
X16789050Y-15737917D02*
X16798574Y-15709345D01*
X16798574Y-15709345D02*
X16808098Y-15690298D01*
X16808098Y-15690298D02*
X16827146Y-15661726D01*
X16827146Y-15661726D02*
X16836670Y-15652202D01*
X16950955Y-15680774D02*
X16970003Y-15680774D01*
X16970003Y-15680774D02*
X16989050Y-15690298D01*
X16989050Y-15690298D02*
X16998574Y-15699821D01*
X16998574Y-15699821D02*
X17008098Y-15718869D01*
X17008098Y-15718869D02*
X17017622Y-15756964D01*
X17017622Y-15756964D02*
X17017622Y-15804583D01*
X17017622Y-15804583D02*
X17008098Y-15842678D01*
X17008098Y-15842678D02*
X16998574Y-15861726D01*
X16998574Y-15861726D02*
X16989050Y-15871250D01*
X16989050Y-15871250D02*
X16970003Y-15880774D01*
X16970003Y-15880774D02*
X16950955Y-15880774D01*
X16950955Y-15880774D02*
X16931908Y-15871250D01*
X16931908Y-15871250D02*
X16922384Y-15861726D01*
X16922384Y-15861726D02*
X16912860Y-15842678D01*
X16912860Y-15842678D02*
X16903336Y-15804583D01*
X16903336Y-15804583D02*
X16903336Y-15756964D01*
X16903336Y-15756964D02*
X16912860Y-15718869D01*
X16912860Y-15718869D02*
X16922384Y-15699821D01*
X16922384Y-15699821D02*
X16931908Y-15690298D01*
X16931908Y-15690298D02*
X16950955Y-15680774D01*
X17255717Y-15880774D02*
X17255717Y-15680774D01*
X17341431Y-15880774D02*
X17341431Y-15776012D01*
X17341431Y-15776012D02*
X17331908Y-15756964D01*
X17331908Y-15756964D02*
X17312860Y-15747440D01*
X17312860Y-15747440D02*
X17284289Y-15747440D01*
X17284289Y-15747440D02*
X17265241Y-15756964D01*
X17265241Y-15756964D02*
X17255717Y-15766488D01*
X17465241Y-15880774D02*
X17446193Y-15871250D01*
X17446193Y-15871250D02*
X17436670Y-15861726D01*
X17436670Y-15861726D02*
X17427146Y-15842678D01*
X17427146Y-15842678D02*
X17427146Y-15785536D01*
X17427146Y-15785536D02*
X17436670Y-15766488D01*
X17436670Y-15766488D02*
X17446193Y-15756964D01*
X17446193Y-15756964D02*
X17465241Y-15747440D01*
X17465241Y-15747440D02*
X17493812Y-15747440D01*
X17493812Y-15747440D02*
X17512860Y-15756964D01*
X17512860Y-15756964D02*
X17522384Y-15766488D01*
X17522384Y-15766488D02*
X17531908Y-15785536D01*
X17531908Y-15785536D02*
X17531908Y-15842678D01*
X17531908Y-15842678D02*
X17522384Y-15861726D01*
X17522384Y-15861726D02*
X17512860Y-15871250D01*
X17512860Y-15871250D02*
X17493812Y-15880774D01*
X17493812Y-15880774D02*
X17465241Y-15880774D01*
X17646193Y-15880774D02*
X17627146Y-15871250D01*
X17627146Y-15871250D02*
X17617622Y-15852202D01*
X17617622Y-15852202D02*
X17617622Y-15680774D01*
X17798574Y-15871250D02*
X17779527Y-15880774D01*
X17779527Y-15880774D02*
X17741431Y-15880774D01*
X17741431Y-15880774D02*
X17722384Y-15871250D01*
X17722384Y-15871250D02*
X17712860Y-15852202D01*
X17712860Y-15852202D02*
X17712860Y-15776012D01*
X17712860Y-15776012D02*
X17722384Y-15756964D01*
X17722384Y-15756964D02*
X17741431Y-15747440D01*
X17741431Y-15747440D02*
X17779527Y-15747440D01*
X17779527Y-15747440D02*
X17798574Y-15756964D01*
X17798574Y-15756964D02*
X17808098Y-15776012D01*
X17808098Y-15776012D02*
X17808098Y-15795059D01*
X17808098Y-15795059D02*
X17712860Y-15814107D01*
X17884289Y-15871250D02*
X17903336Y-15880774D01*
X17903336Y-15880774D02*
X17941431Y-15880774D01*
X17941431Y-15880774D02*
X17960479Y-15871250D01*
X17960479Y-15871250D02*
X17970003Y-15852202D01*
X17970003Y-15852202D02*
X17970003Y-15842678D01*
X17970003Y-15842678D02*
X17960479Y-15823631D01*
X17960479Y-15823631D02*
X17941431Y-15814107D01*
X17941431Y-15814107D02*
X17912860Y-15814107D01*
X17912860Y-15814107D02*
X17893812Y-15804583D01*
X17893812Y-15804583D02*
X17884289Y-15785536D01*
X17884289Y-15785536D02*
X17884289Y-15776012D01*
X17884289Y-15776012D02*
X17893812Y-15756964D01*
X17893812Y-15756964D02*
X17912860Y-15747440D01*
X17912860Y-15747440D02*
X17941431Y-15747440D01*
X17941431Y-15747440D02*
X17960479Y-15756964D01*
X18208098Y-15804583D02*
X18360479Y-15804583D01*
X18284289Y-15880774D02*
X18284289Y-15728393D01*
X18693813Y-15747440D02*
X18693813Y-15880774D01*
X18646193Y-15671250D02*
X18598574Y-15814107D01*
X18598574Y-15814107D02*
X18722384Y-15814107D01*
X18941432Y-15871250D02*
X18960479Y-15880774D01*
X18960479Y-15880774D02*
X18998574Y-15880774D01*
X18998574Y-15880774D02*
X19017622Y-15871250D01*
X19017622Y-15871250D02*
X19027146Y-15852202D01*
X19027146Y-15852202D02*
X19027146Y-15842678D01*
X19027146Y-15842678D02*
X19017622Y-15823631D01*
X19017622Y-15823631D02*
X18998574Y-15814107D01*
X18998574Y-15814107D02*
X18970003Y-15814107D01*
X18970003Y-15814107D02*
X18950955Y-15804583D01*
X18950955Y-15804583D02*
X18941432Y-15785536D01*
X18941432Y-15785536D02*
X18941432Y-15776012D01*
X18941432Y-15776012D02*
X18950955Y-15756964D01*
X18950955Y-15756964D02*
X18970003Y-15747440D01*
X18970003Y-15747440D02*
X18998574Y-15747440D01*
X18998574Y-15747440D02*
X19017622Y-15756964D01*
X19141432Y-15880774D02*
X19122384Y-15871250D01*
X19122384Y-15871250D02*
X19112860Y-15852202D01*
X19112860Y-15852202D02*
X19112860Y-15680774D01*
X19246194Y-15880774D02*
X19227146Y-15871250D01*
X19227146Y-15871250D02*
X19217622Y-15861726D01*
X19217622Y-15861726D02*
X19208098Y-15842678D01*
X19208098Y-15842678D02*
X19208098Y-15785536D01*
X19208098Y-15785536D02*
X19217622Y-15766488D01*
X19217622Y-15766488D02*
X19227146Y-15756964D01*
X19227146Y-15756964D02*
X19246194Y-15747440D01*
X19246194Y-15747440D02*
X19274765Y-15747440D01*
X19274765Y-15747440D02*
X19293813Y-15756964D01*
X19293813Y-15756964D02*
X19303336Y-15766488D01*
X19303336Y-15766488D02*
X19312860Y-15785536D01*
X19312860Y-15785536D02*
X19312860Y-15842678D01*
X19312860Y-15842678D02*
X19303336Y-15861726D01*
X19303336Y-15861726D02*
X19293813Y-15871250D01*
X19293813Y-15871250D02*
X19274765Y-15880774D01*
X19274765Y-15880774D02*
X19246194Y-15880774D01*
X19370003Y-15747440D02*
X19446194Y-15747440D01*
X19398575Y-15680774D02*
X19398575Y-15852202D01*
X19398575Y-15852202D02*
X19408098Y-15871250D01*
X19408098Y-15871250D02*
X19427146Y-15880774D01*
X19427146Y-15880774D02*
X19446194Y-15880774D01*
X19503336Y-15871250D02*
X19522384Y-15880774D01*
X19522384Y-15880774D02*
X19560479Y-15880774D01*
X19560479Y-15880774D02*
X19579527Y-15871250D01*
X19579527Y-15871250D02*
X19589051Y-15852202D01*
X19589051Y-15852202D02*
X19589051Y-15842678D01*
X19589051Y-15842678D02*
X19579527Y-15823631D01*
X19579527Y-15823631D02*
X19560479Y-15814107D01*
X19560479Y-15814107D02*
X19531908Y-15814107D01*
X19531908Y-15814107D02*
X19512860Y-15804583D01*
X19512860Y-15804583D02*
X19503336Y-15785536D01*
X19503336Y-15785536D02*
X19503336Y-15776012D01*
X19503336Y-15776012D02*
X19512860Y-15756964D01*
X19512860Y-15756964D02*
X19531908Y-15747440D01*
X19531908Y-15747440D02*
X19560479Y-15747440D01*
X19560479Y-15747440D02*
X19579527Y-15756964D01*
X19655717Y-15956964D02*
X19665241Y-15947440D01*
X19665241Y-15947440D02*
X19684289Y-15918869D01*
X19684289Y-15918869D02*
X19693813Y-15899821D01*
X19693813Y-15899821D02*
X19703336Y-15871250D01*
X19703336Y-15871250D02*
X19712860Y-15823631D01*
X19712860Y-15823631D02*
X19712860Y-15785536D01*
X19712860Y-15785536D02*
X19703336Y-15737917D01*
X19703336Y-15737917D02*
X19693813Y-15709345D01*
X19693813Y-15709345D02*
X19684289Y-15690298D01*
X19684289Y-15690298D02*
X19665241Y-15661726D01*
X19665241Y-15661726D02*
X19655717Y-15652202D01*
D16*
X13237264Y-16089750D02*
X13274764Y-16052250D01*
X13237264Y-16014750D01*
X13199764Y-16052250D01*
X13237264Y-16089750D01*
D12*
X13560479Y-15944774D02*
X13579526Y-15944774D01*
X13579526Y-15944774D02*
X13598574Y-15954298D01*
X13598574Y-15954298D02*
X13608098Y-15963821D01*
X13608098Y-15963821D02*
X13617621Y-15982869D01*
X13617621Y-15982869D02*
X13627145Y-16020964D01*
X13627145Y-16020964D02*
X13627145Y-16068583D01*
X13627145Y-16068583D02*
X13617621Y-16106678D01*
X13617621Y-16106678D02*
X13608098Y-16125726D01*
X13608098Y-16125726D02*
X13598574Y-16135250D01*
X13598574Y-16135250D02*
X13579526Y-16144774D01*
X13579526Y-16144774D02*
X13560479Y-16144774D01*
X13560479Y-16144774D02*
X13541431Y-16135250D01*
X13541431Y-16135250D02*
X13531907Y-16125726D01*
X13531907Y-16125726D02*
X13522383Y-16106678D01*
X13522383Y-16106678D02*
X13512860Y-16068583D01*
X13512860Y-16068583D02*
X13512860Y-16020964D01*
X13512860Y-16020964D02*
X13522383Y-15982869D01*
X13522383Y-15982869D02*
X13531907Y-15963821D01*
X13531907Y-15963821D02*
X13541431Y-15954298D01*
X13541431Y-15954298D02*
X13560479Y-15944774D01*
X13712860Y-16125726D02*
X13722383Y-16135250D01*
X13722383Y-16135250D02*
X13712860Y-16144774D01*
X13712860Y-16144774D02*
X13703336Y-16135250D01*
X13703336Y-16135250D02*
X13712860Y-16125726D01*
X13712860Y-16125726D02*
X13712860Y-16144774D01*
X13789050Y-15944774D02*
X13922383Y-15944774D01*
X13922383Y-15944774D02*
X13836669Y-16144774D01*
X14093812Y-15944774D02*
X13998574Y-15944774D01*
X13998574Y-15944774D02*
X13989050Y-16040012D01*
X13989050Y-16040012D02*
X13998574Y-16030488D01*
X13998574Y-16030488D02*
X14017621Y-16020964D01*
X14017621Y-16020964D02*
X14065241Y-16020964D01*
X14065241Y-16020964D02*
X14084288Y-16030488D01*
X14084288Y-16030488D02*
X14093812Y-16040012D01*
X14093812Y-16040012D02*
X14103336Y-16059059D01*
X14103336Y-16059059D02*
X14103336Y-16106678D01*
X14103336Y-16106678D02*
X14093812Y-16125726D01*
X14093812Y-16125726D02*
X14084288Y-16135250D01*
X14084288Y-16135250D02*
X14065241Y-16144774D01*
X14065241Y-16144774D02*
X14017621Y-16144774D01*
X14017621Y-16144774D02*
X13998574Y-16135250D01*
X13998574Y-16135250D02*
X13989050Y-16125726D01*
X14227145Y-15944774D02*
X14246193Y-15944774D01*
X14246193Y-15944774D02*
X14265241Y-15954298D01*
X14265241Y-15954298D02*
X14274764Y-15963821D01*
X14274764Y-15963821D02*
X14284288Y-15982869D01*
X14284288Y-15982869D02*
X14293812Y-16020964D01*
X14293812Y-16020964D02*
X14293812Y-16068583D01*
X14293812Y-16068583D02*
X14284288Y-16106678D01*
X14284288Y-16106678D02*
X14274764Y-16125726D01*
X14274764Y-16125726D02*
X14265241Y-16135250D01*
X14265241Y-16135250D02*
X14246193Y-16144774D01*
X14246193Y-16144774D02*
X14227145Y-16144774D01*
X14227145Y-16144774D02*
X14208098Y-16135250D01*
X14208098Y-16135250D02*
X14198574Y-16125726D01*
X14198574Y-16125726D02*
X14189050Y-16106678D01*
X14189050Y-16106678D02*
X14179526Y-16068583D01*
X14179526Y-16068583D02*
X14179526Y-16020964D01*
X14179526Y-16020964D02*
X14189050Y-15982869D01*
X14189050Y-15982869D02*
X14198574Y-15963821D01*
X14198574Y-15963821D02*
X14208098Y-15954298D01*
X14208098Y-15954298D02*
X14227145Y-15944774D01*
X14379526Y-16144774D02*
X14379526Y-16011440D01*
X14379526Y-16030488D02*
X14389050Y-16020964D01*
X14389050Y-16020964D02*
X14408098Y-16011440D01*
X14408098Y-16011440D02*
X14436669Y-16011440D01*
X14436669Y-16011440D02*
X14455717Y-16020964D01*
X14455717Y-16020964D02*
X14465241Y-16040012D01*
X14465241Y-16040012D02*
X14465241Y-16144774D01*
X14465241Y-16040012D02*
X14474764Y-16020964D01*
X14474764Y-16020964D02*
X14493812Y-16011440D01*
X14493812Y-16011440D02*
X14522383Y-16011440D01*
X14522383Y-16011440D02*
X14541431Y-16020964D01*
X14541431Y-16020964D02*
X14550955Y-16040012D01*
X14550955Y-16040012D02*
X14550955Y-16144774D01*
X14646193Y-16144774D02*
X14646193Y-16011440D01*
X14646193Y-16030488D02*
X14655717Y-16020964D01*
X14655717Y-16020964D02*
X14674764Y-16011440D01*
X14674764Y-16011440D02*
X14703336Y-16011440D01*
X14703336Y-16011440D02*
X14722383Y-16020964D01*
X14722383Y-16020964D02*
X14731907Y-16040012D01*
X14731907Y-16040012D02*
X14731907Y-16144774D01*
X14731907Y-16040012D02*
X14741431Y-16020964D01*
X14741431Y-16020964D02*
X14760479Y-16011440D01*
X14760479Y-16011440D02*
X14789050Y-16011440D01*
X14789050Y-16011440D02*
X14808098Y-16020964D01*
X14808098Y-16020964D02*
X14817622Y-16040012D01*
X14817622Y-16040012D02*
X14817622Y-16144774D01*
X15208098Y-15935250D02*
X15036669Y-16192393D01*
X15465241Y-15944774D02*
X15484288Y-15944774D01*
X15484288Y-15944774D02*
X15503336Y-15954298D01*
X15503336Y-15954298D02*
X15512860Y-15963821D01*
X15512860Y-15963821D02*
X15522384Y-15982869D01*
X15522384Y-15982869D02*
X15531907Y-16020964D01*
X15531907Y-16020964D02*
X15531907Y-16068583D01*
X15531907Y-16068583D02*
X15522384Y-16106678D01*
X15522384Y-16106678D02*
X15512860Y-16125726D01*
X15512860Y-16125726D02*
X15503336Y-16135250D01*
X15503336Y-16135250D02*
X15484288Y-16144774D01*
X15484288Y-16144774D02*
X15465241Y-16144774D01*
X15465241Y-16144774D02*
X15446193Y-16135250D01*
X15446193Y-16135250D02*
X15436669Y-16125726D01*
X15436669Y-16125726D02*
X15427145Y-16106678D01*
X15427145Y-16106678D02*
X15417622Y-16068583D01*
X15417622Y-16068583D02*
X15417622Y-16020964D01*
X15417622Y-16020964D02*
X15427145Y-15982869D01*
X15427145Y-15982869D02*
X15436669Y-15963821D01*
X15436669Y-15963821D02*
X15446193Y-15954298D01*
X15446193Y-15954298D02*
X15465241Y-15944774D01*
X15617622Y-16125726D02*
X15627145Y-16135250D01*
X15627145Y-16135250D02*
X15617622Y-16144774D01*
X15617622Y-16144774D02*
X15608098Y-16135250D01*
X15608098Y-16135250D02*
X15617622Y-16125726D01*
X15617622Y-16125726D02*
X15617622Y-16144774D01*
X15750955Y-15944774D02*
X15770003Y-15944774D01*
X15770003Y-15944774D02*
X15789050Y-15954298D01*
X15789050Y-15954298D02*
X15798574Y-15963821D01*
X15798574Y-15963821D02*
X15808098Y-15982869D01*
X15808098Y-15982869D02*
X15817622Y-16020964D01*
X15817622Y-16020964D02*
X15817622Y-16068583D01*
X15817622Y-16068583D02*
X15808098Y-16106678D01*
X15808098Y-16106678D02*
X15798574Y-16125726D01*
X15798574Y-16125726D02*
X15789050Y-16135250D01*
X15789050Y-16135250D02*
X15770003Y-16144774D01*
X15770003Y-16144774D02*
X15750955Y-16144774D01*
X15750955Y-16144774D02*
X15731907Y-16135250D01*
X15731907Y-16135250D02*
X15722384Y-16125726D01*
X15722384Y-16125726D02*
X15712860Y-16106678D01*
X15712860Y-16106678D02*
X15703336Y-16068583D01*
X15703336Y-16068583D02*
X15703336Y-16020964D01*
X15703336Y-16020964D02*
X15712860Y-15982869D01*
X15712860Y-15982869D02*
X15722384Y-15963821D01*
X15722384Y-15963821D02*
X15731907Y-15954298D01*
X15731907Y-15954298D02*
X15750955Y-15944774D01*
X15893812Y-15963821D02*
X15903336Y-15954298D01*
X15903336Y-15954298D02*
X15922384Y-15944774D01*
X15922384Y-15944774D02*
X15970003Y-15944774D01*
X15970003Y-15944774D02*
X15989050Y-15954298D01*
X15989050Y-15954298D02*
X15998574Y-15963821D01*
X15998574Y-15963821D02*
X16008098Y-15982869D01*
X16008098Y-15982869D02*
X16008098Y-16001917D01*
X16008098Y-16001917D02*
X15998574Y-16030488D01*
X15998574Y-16030488D02*
X15884288Y-16144774D01*
X15884288Y-16144774D02*
X16008098Y-16144774D01*
X16103336Y-16144774D02*
X16141431Y-16144774D01*
X16141431Y-16144774D02*
X16160479Y-16135250D01*
X16160479Y-16135250D02*
X16170003Y-16125726D01*
X16170003Y-16125726D02*
X16189050Y-16097155D01*
X16189050Y-16097155D02*
X16198574Y-16059059D01*
X16198574Y-16059059D02*
X16198574Y-15982869D01*
X16198574Y-15982869D02*
X16189050Y-15963821D01*
X16189050Y-15963821D02*
X16179526Y-15954298D01*
X16179526Y-15954298D02*
X16160479Y-15944774D01*
X16160479Y-15944774D02*
X16122384Y-15944774D01*
X16122384Y-15944774D02*
X16103336Y-15954298D01*
X16103336Y-15954298D02*
X16093812Y-15963821D01*
X16093812Y-15963821D02*
X16084288Y-15982869D01*
X16084288Y-15982869D02*
X16084288Y-16030488D01*
X16084288Y-16030488D02*
X16093812Y-16049536D01*
X16093812Y-16049536D02*
X16103336Y-16059059D01*
X16103336Y-16059059D02*
X16122384Y-16068583D01*
X16122384Y-16068583D02*
X16160479Y-16068583D01*
X16160479Y-16068583D02*
X16179526Y-16059059D01*
X16179526Y-16059059D02*
X16189050Y-16049536D01*
X16189050Y-16049536D02*
X16198574Y-16030488D01*
X16379526Y-15944774D02*
X16284288Y-15944774D01*
X16284288Y-15944774D02*
X16274765Y-16040012D01*
X16274765Y-16040012D02*
X16284288Y-16030488D01*
X16284288Y-16030488D02*
X16303336Y-16020964D01*
X16303336Y-16020964D02*
X16350955Y-16020964D01*
X16350955Y-16020964D02*
X16370003Y-16030488D01*
X16370003Y-16030488D02*
X16379526Y-16040012D01*
X16379526Y-16040012D02*
X16389050Y-16059059D01*
X16389050Y-16059059D02*
X16389050Y-16106678D01*
X16389050Y-16106678D02*
X16379526Y-16125726D01*
X16379526Y-16125726D02*
X16370003Y-16135250D01*
X16370003Y-16135250D02*
X16350955Y-16144774D01*
X16350955Y-16144774D02*
X16303336Y-16144774D01*
X16303336Y-16144774D02*
X16284288Y-16135250D01*
X16284288Y-16135250D02*
X16274765Y-16125726D01*
X16465241Y-15944774D02*
X16465241Y-15982869D01*
X16541431Y-15944774D02*
X16541431Y-15982869D01*
X16836670Y-16220964D02*
X16827146Y-16211440D01*
X16827146Y-16211440D02*
X16808098Y-16182869D01*
X16808098Y-16182869D02*
X16798574Y-16163821D01*
X16798574Y-16163821D02*
X16789050Y-16135250D01*
X16789050Y-16135250D02*
X16779527Y-16087631D01*
X16779527Y-16087631D02*
X16779527Y-16049536D01*
X16779527Y-16049536D02*
X16789050Y-16001917D01*
X16789050Y-16001917D02*
X16798574Y-15973345D01*
X16798574Y-15973345D02*
X16808098Y-15954298D01*
X16808098Y-15954298D02*
X16827146Y-15925726D01*
X16827146Y-15925726D02*
X16836670Y-15916202D01*
X16903336Y-15963821D02*
X16912860Y-15954298D01*
X16912860Y-15954298D02*
X16931908Y-15944774D01*
X16931908Y-15944774D02*
X16979527Y-15944774D01*
X16979527Y-15944774D02*
X16998574Y-15954298D01*
X16998574Y-15954298D02*
X17008098Y-15963821D01*
X17008098Y-15963821D02*
X17017622Y-15982869D01*
X17017622Y-15982869D02*
X17017622Y-16001917D01*
X17017622Y-16001917D02*
X17008098Y-16030488D01*
X17008098Y-16030488D02*
X16893812Y-16144774D01*
X16893812Y-16144774D02*
X17017622Y-16144774D01*
X17255717Y-16144774D02*
X17255717Y-15944774D01*
X17341431Y-16144774D02*
X17341431Y-16040012D01*
X17341431Y-16040012D02*
X17331908Y-16020964D01*
X17331908Y-16020964D02*
X17312860Y-16011440D01*
X17312860Y-16011440D02*
X17284289Y-16011440D01*
X17284289Y-16011440D02*
X17265241Y-16020964D01*
X17265241Y-16020964D02*
X17255717Y-16030488D01*
X17465241Y-16144774D02*
X17446193Y-16135250D01*
X17446193Y-16135250D02*
X17436670Y-16125726D01*
X17436670Y-16125726D02*
X17427146Y-16106678D01*
X17427146Y-16106678D02*
X17427146Y-16049536D01*
X17427146Y-16049536D02*
X17436670Y-16030488D01*
X17436670Y-16030488D02*
X17446193Y-16020964D01*
X17446193Y-16020964D02*
X17465241Y-16011440D01*
X17465241Y-16011440D02*
X17493812Y-16011440D01*
X17493812Y-16011440D02*
X17512860Y-16020964D01*
X17512860Y-16020964D02*
X17522384Y-16030488D01*
X17522384Y-16030488D02*
X17531908Y-16049536D01*
X17531908Y-16049536D02*
X17531908Y-16106678D01*
X17531908Y-16106678D02*
X17522384Y-16125726D01*
X17522384Y-16125726D02*
X17512860Y-16135250D01*
X17512860Y-16135250D02*
X17493812Y-16144774D01*
X17493812Y-16144774D02*
X17465241Y-16144774D01*
X17646193Y-16144774D02*
X17627146Y-16135250D01*
X17627146Y-16135250D02*
X17617622Y-16116202D01*
X17617622Y-16116202D02*
X17617622Y-15944774D01*
X17798574Y-16135250D02*
X17779527Y-16144774D01*
X17779527Y-16144774D02*
X17741431Y-16144774D01*
X17741431Y-16144774D02*
X17722384Y-16135250D01*
X17722384Y-16135250D02*
X17712860Y-16116202D01*
X17712860Y-16116202D02*
X17712860Y-16040012D01*
X17712860Y-16040012D02*
X17722384Y-16020964D01*
X17722384Y-16020964D02*
X17741431Y-16011440D01*
X17741431Y-16011440D02*
X17779527Y-16011440D01*
X17779527Y-16011440D02*
X17798574Y-16020964D01*
X17798574Y-16020964D02*
X17808098Y-16040012D01*
X17808098Y-16040012D02*
X17808098Y-16059059D01*
X17808098Y-16059059D02*
X17712860Y-16078107D01*
X17884289Y-16135250D02*
X17903336Y-16144774D01*
X17903336Y-16144774D02*
X17941431Y-16144774D01*
X17941431Y-16144774D02*
X17960479Y-16135250D01*
X17960479Y-16135250D02*
X17970003Y-16116202D01*
X17970003Y-16116202D02*
X17970003Y-16106678D01*
X17970003Y-16106678D02*
X17960479Y-16087631D01*
X17960479Y-16087631D02*
X17941431Y-16078107D01*
X17941431Y-16078107D02*
X17912860Y-16078107D01*
X17912860Y-16078107D02*
X17893812Y-16068583D01*
X17893812Y-16068583D02*
X17884289Y-16049536D01*
X17884289Y-16049536D02*
X17884289Y-16040012D01*
X17884289Y-16040012D02*
X17893812Y-16020964D01*
X17893812Y-16020964D02*
X17912860Y-16011440D01*
X17912860Y-16011440D02*
X17941431Y-16011440D01*
X17941431Y-16011440D02*
X17960479Y-16020964D01*
X18036670Y-16220964D02*
X18046193Y-16211440D01*
X18046193Y-16211440D02*
X18065241Y-16182869D01*
X18065241Y-16182869D02*
X18074765Y-16163821D01*
X18074765Y-16163821D02*
X18084289Y-16135250D01*
X18084289Y-16135250D02*
X18093812Y-16087631D01*
X18093812Y-16087631D02*
X18093812Y-16049536D01*
X18093812Y-16049536D02*
X18084289Y-16001917D01*
X18084289Y-16001917D02*
X18074765Y-15973345D01*
X18074765Y-15973345D02*
X18065241Y-15954298D01*
X18065241Y-15954298D02*
X18046193Y-15925726D01*
X18046193Y-15925726D02*
X18036670Y-15916202D01*
D17*
X13189764Y-16273750D02*
X13274764Y-16358750D01*
X13274764Y-16273750D02*
X13189764Y-16358750D01*
X13274764Y-16316250D02*
G75*
G03*
X13274764Y-16316250I-42500J0D01*
G01*
D12*
X13560479Y-16208774D02*
X13579526Y-16208774D01*
X13579526Y-16208774D02*
X13598574Y-16218298D01*
X13598574Y-16218298D02*
X13608098Y-16227821D01*
X13608098Y-16227821D02*
X13617621Y-16246869D01*
X13617621Y-16246869D02*
X13627145Y-16284964D01*
X13627145Y-16284964D02*
X13627145Y-16332583D01*
X13627145Y-16332583D02*
X13617621Y-16370678D01*
X13617621Y-16370678D02*
X13608098Y-16389726D01*
X13608098Y-16389726D02*
X13598574Y-16399250D01*
X13598574Y-16399250D02*
X13579526Y-16408774D01*
X13579526Y-16408774D02*
X13560479Y-16408774D01*
X13560479Y-16408774D02*
X13541431Y-16399250D01*
X13541431Y-16399250D02*
X13531907Y-16389726D01*
X13531907Y-16389726D02*
X13522383Y-16370678D01*
X13522383Y-16370678D02*
X13512860Y-16332583D01*
X13512860Y-16332583D02*
X13512860Y-16284964D01*
X13512860Y-16284964D02*
X13522383Y-16246869D01*
X13522383Y-16246869D02*
X13531907Y-16227821D01*
X13531907Y-16227821D02*
X13541431Y-16218298D01*
X13541431Y-16218298D02*
X13560479Y-16208774D01*
X13712860Y-16389726D02*
X13722383Y-16399250D01*
X13722383Y-16399250D02*
X13712860Y-16408774D01*
X13712860Y-16408774D02*
X13703336Y-16399250D01*
X13703336Y-16399250D02*
X13712860Y-16389726D01*
X13712860Y-16389726D02*
X13712860Y-16408774D01*
X13836669Y-16294488D02*
X13817621Y-16284964D01*
X13817621Y-16284964D02*
X13808098Y-16275440D01*
X13808098Y-16275440D02*
X13798574Y-16256393D01*
X13798574Y-16256393D02*
X13798574Y-16246869D01*
X13798574Y-16246869D02*
X13808098Y-16227821D01*
X13808098Y-16227821D02*
X13817621Y-16218298D01*
X13817621Y-16218298D02*
X13836669Y-16208774D01*
X13836669Y-16208774D02*
X13874764Y-16208774D01*
X13874764Y-16208774D02*
X13893812Y-16218298D01*
X13893812Y-16218298D02*
X13903336Y-16227821D01*
X13903336Y-16227821D02*
X13912860Y-16246869D01*
X13912860Y-16246869D02*
X13912860Y-16256393D01*
X13912860Y-16256393D02*
X13903336Y-16275440D01*
X13903336Y-16275440D02*
X13893812Y-16284964D01*
X13893812Y-16284964D02*
X13874764Y-16294488D01*
X13874764Y-16294488D02*
X13836669Y-16294488D01*
X13836669Y-16294488D02*
X13817621Y-16304012D01*
X13817621Y-16304012D02*
X13808098Y-16313536D01*
X13808098Y-16313536D02*
X13798574Y-16332583D01*
X13798574Y-16332583D02*
X13798574Y-16370678D01*
X13798574Y-16370678D02*
X13808098Y-16389726D01*
X13808098Y-16389726D02*
X13817621Y-16399250D01*
X13817621Y-16399250D02*
X13836669Y-16408774D01*
X13836669Y-16408774D02*
X13874764Y-16408774D01*
X13874764Y-16408774D02*
X13893812Y-16399250D01*
X13893812Y-16399250D02*
X13903336Y-16389726D01*
X13903336Y-16389726D02*
X13912860Y-16370678D01*
X13912860Y-16370678D02*
X13912860Y-16332583D01*
X13912860Y-16332583D02*
X13903336Y-16313536D01*
X13903336Y-16313536D02*
X13893812Y-16304012D01*
X13893812Y-16304012D02*
X13874764Y-16294488D01*
X14093812Y-16208774D02*
X13998574Y-16208774D01*
X13998574Y-16208774D02*
X13989050Y-16304012D01*
X13989050Y-16304012D02*
X13998574Y-16294488D01*
X13998574Y-16294488D02*
X14017621Y-16284964D01*
X14017621Y-16284964D02*
X14065241Y-16284964D01*
X14065241Y-16284964D02*
X14084288Y-16294488D01*
X14084288Y-16294488D02*
X14093812Y-16304012D01*
X14093812Y-16304012D02*
X14103336Y-16323059D01*
X14103336Y-16323059D02*
X14103336Y-16370678D01*
X14103336Y-16370678D02*
X14093812Y-16389726D01*
X14093812Y-16389726D02*
X14084288Y-16399250D01*
X14084288Y-16399250D02*
X14065241Y-16408774D01*
X14065241Y-16408774D02*
X14017621Y-16408774D01*
X14017621Y-16408774D02*
X13998574Y-16399250D01*
X13998574Y-16399250D02*
X13989050Y-16389726D01*
X14227145Y-16208774D02*
X14246193Y-16208774D01*
X14246193Y-16208774D02*
X14265241Y-16218298D01*
X14265241Y-16218298D02*
X14274764Y-16227821D01*
X14274764Y-16227821D02*
X14284288Y-16246869D01*
X14284288Y-16246869D02*
X14293812Y-16284964D01*
X14293812Y-16284964D02*
X14293812Y-16332583D01*
X14293812Y-16332583D02*
X14284288Y-16370678D01*
X14284288Y-16370678D02*
X14274764Y-16389726D01*
X14274764Y-16389726D02*
X14265241Y-16399250D01*
X14265241Y-16399250D02*
X14246193Y-16408774D01*
X14246193Y-16408774D02*
X14227145Y-16408774D01*
X14227145Y-16408774D02*
X14208098Y-16399250D01*
X14208098Y-16399250D02*
X14198574Y-16389726D01*
X14198574Y-16389726D02*
X14189050Y-16370678D01*
X14189050Y-16370678D02*
X14179526Y-16332583D01*
X14179526Y-16332583D02*
X14179526Y-16284964D01*
X14179526Y-16284964D02*
X14189050Y-16246869D01*
X14189050Y-16246869D02*
X14198574Y-16227821D01*
X14198574Y-16227821D02*
X14208098Y-16218298D01*
X14208098Y-16218298D02*
X14227145Y-16208774D01*
X14379526Y-16408774D02*
X14379526Y-16275440D01*
X14379526Y-16294488D02*
X14389050Y-16284964D01*
X14389050Y-16284964D02*
X14408098Y-16275440D01*
X14408098Y-16275440D02*
X14436669Y-16275440D01*
X14436669Y-16275440D02*
X14455717Y-16284964D01*
X14455717Y-16284964D02*
X14465241Y-16304012D01*
X14465241Y-16304012D02*
X14465241Y-16408774D01*
X14465241Y-16304012D02*
X14474764Y-16284964D01*
X14474764Y-16284964D02*
X14493812Y-16275440D01*
X14493812Y-16275440D02*
X14522383Y-16275440D01*
X14522383Y-16275440D02*
X14541431Y-16284964D01*
X14541431Y-16284964D02*
X14550955Y-16304012D01*
X14550955Y-16304012D02*
X14550955Y-16408774D01*
X14646193Y-16408774D02*
X14646193Y-16275440D01*
X14646193Y-16294488D02*
X14655717Y-16284964D01*
X14655717Y-16284964D02*
X14674764Y-16275440D01*
X14674764Y-16275440D02*
X14703336Y-16275440D01*
X14703336Y-16275440D02*
X14722383Y-16284964D01*
X14722383Y-16284964D02*
X14731907Y-16304012D01*
X14731907Y-16304012D02*
X14731907Y-16408774D01*
X14731907Y-16304012D02*
X14741431Y-16284964D01*
X14741431Y-16284964D02*
X14760479Y-16275440D01*
X14760479Y-16275440D02*
X14789050Y-16275440D01*
X14789050Y-16275440D02*
X14808098Y-16284964D01*
X14808098Y-16284964D02*
X14817622Y-16304012D01*
X14817622Y-16304012D02*
X14817622Y-16408774D01*
X15208098Y-16199250D02*
X15036669Y-16456393D01*
X15465241Y-16208774D02*
X15484288Y-16208774D01*
X15484288Y-16208774D02*
X15503336Y-16218298D01*
X15503336Y-16218298D02*
X15512860Y-16227821D01*
X15512860Y-16227821D02*
X15522384Y-16246869D01*
X15522384Y-16246869D02*
X15531907Y-16284964D01*
X15531907Y-16284964D02*
X15531907Y-16332583D01*
X15531907Y-16332583D02*
X15522384Y-16370678D01*
X15522384Y-16370678D02*
X15512860Y-16389726D01*
X15512860Y-16389726D02*
X15503336Y-16399250D01*
X15503336Y-16399250D02*
X15484288Y-16408774D01*
X15484288Y-16408774D02*
X15465241Y-16408774D01*
X15465241Y-16408774D02*
X15446193Y-16399250D01*
X15446193Y-16399250D02*
X15436669Y-16389726D01*
X15436669Y-16389726D02*
X15427145Y-16370678D01*
X15427145Y-16370678D02*
X15417622Y-16332583D01*
X15417622Y-16332583D02*
X15417622Y-16284964D01*
X15417622Y-16284964D02*
X15427145Y-16246869D01*
X15427145Y-16246869D02*
X15436669Y-16227821D01*
X15436669Y-16227821D02*
X15446193Y-16218298D01*
X15446193Y-16218298D02*
X15465241Y-16208774D01*
X15617622Y-16389726D02*
X15627145Y-16399250D01*
X15627145Y-16399250D02*
X15617622Y-16408774D01*
X15617622Y-16408774D02*
X15608098Y-16399250D01*
X15608098Y-16399250D02*
X15617622Y-16389726D01*
X15617622Y-16389726D02*
X15617622Y-16408774D01*
X15750955Y-16208774D02*
X15770003Y-16208774D01*
X15770003Y-16208774D02*
X15789050Y-16218298D01*
X15789050Y-16218298D02*
X15798574Y-16227821D01*
X15798574Y-16227821D02*
X15808098Y-16246869D01*
X15808098Y-16246869D02*
X15817622Y-16284964D01*
X15817622Y-16284964D02*
X15817622Y-16332583D01*
X15817622Y-16332583D02*
X15808098Y-16370678D01*
X15808098Y-16370678D02*
X15798574Y-16389726D01*
X15798574Y-16389726D02*
X15789050Y-16399250D01*
X15789050Y-16399250D02*
X15770003Y-16408774D01*
X15770003Y-16408774D02*
X15750955Y-16408774D01*
X15750955Y-16408774D02*
X15731907Y-16399250D01*
X15731907Y-16399250D02*
X15722384Y-16389726D01*
X15722384Y-16389726D02*
X15712860Y-16370678D01*
X15712860Y-16370678D02*
X15703336Y-16332583D01*
X15703336Y-16332583D02*
X15703336Y-16284964D01*
X15703336Y-16284964D02*
X15712860Y-16246869D01*
X15712860Y-16246869D02*
X15722384Y-16227821D01*
X15722384Y-16227821D02*
X15731907Y-16218298D01*
X15731907Y-16218298D02*
X15750955Y-16208774D01*
X15884288Y-16208774D02*
X16008098Y-16208774D01*
X16008098Y-16208774D02*
X15941431Y-16284964D01*
X15941431Y-16284964D02*
X15970003Y-16284964D01*
X15970003Y-16284964D02*
X15989050Y-16294488D01*
X15989050Y-16294488D02*
X15998574Y-16304012D01*
X15998574Y-16304012D02*
X16008098Y-16323059D01*
X16008098Y-16323059D02*
X16008098Y-16370678D01*
X16008098Y-16370678D02*
X15998574Y-16389726D01*
X15998574Y-16389726D02*
X15989050Y-16399250D01*
X15989050Y-16399250D02*
X15970003Y-16408774D01*
X15970003Y-16408774D02*
X15912860Y-16408774D01*
X15912860Y-16408774D02*
X15893812Y-16399250D01*
X15893812Y-16399250D02*
X15884288Y-16389726D01*
X16074765Y-16208774D02*
X16198574Y-16208774D01*
X16198574Y-16208774D02*
X16131907Y-16284964D01*
X16131907Y-16284964D02*
X16160479Y-16284964D01*
X16160479Y-16284964D02*
X16179526Y-16294488D01*
X16179526Y-16294488D02*
X16189050Y-16304012D01*
X16189050Y-16304012D02*
X16198574Y-16323059D01*
X16198574Y-16323059D02*
X16198574Y-16370678D01*
X16198574Y-16370678D02*
X16189050Y-16389726D01*
X16189050Y-16389726D02*
X16179526Y-16399250D01*
X16179526Y-16399250D02*
X16160479Y-16408774D01*
X16160479Y-16408774D02*
X16103336Y-16408774D01*
X16103336Y-16408774D02*
X16084288Y-16399250D01*
X16084288Y-16399250D02*
X16074765Y-16389726D01*
X16379526Y-16208774D02*
X16284288Y-16208774D01*
X16284288Y-16208774D02*
X16274765Y-16304012D01*
X16274765Y-16304012D02*
X16284288Y-16294488D01*
X16284288Y-16294488D02*
X16303336Y-16284964D01*
X16303336Y-16284964D02*
X16350955Y-16284964D01*
X16350955Y-16284964D02*
X16370003Y-16294488D01*
X16370003Y-16294488D02*
X16379526Y-16304012D01*
X16379526Y-16304012D02*
X16389050Y-16323059D01*
X16389050Y-16323059D02*
X16389050Y-16370678D01*
X16389050Y-16370678D02*
X16379526Y-16389726D01*
X16379526Y-16389726D02*
X16370003Y-16399250D01*
X16370003Y-16399250D02*
X16350955Y-16408774D01*
X16350955Y-16408774D02*
X16303336Y-16408774D01*
X16303336Y-16408774D02*
X16284288Y-16399250D01*
X16284288Y-16399250D02*
X16274765Y-16389726D01*
X16465241Y-16208774D02*
X16465241Y-16246869D01*
X16541431Y-16208774D02*
X16541431Y-16246869D01*
X16836670Y-16484964D02*
X16827146Y-16475440D01*
X16827146Y-16475440D02*
X16808098Y-16446869D01*
X16808098Y-16446869D02*
X16798574Y-16427821D01*
X16798574Y-16427821D02*
X16789050Y-16399250D01*
X16789050Y-16399250D02*
X16779527Y-16351631D01*
X16779527Y-16351631D02*
X16779527Y-16313536D01*
X16779527Y-16313536D02*
X16789050Y-16265917D01*
X16789050Y-16265917D02*
X16798574Y-16237345D01*
X16798574Y-16237345D02*
X16808098Y-16218298D01*
X16808098Y-16218298D02*
X16827146Y-16189726D01*
X16827146Y-16189726D02*
X16836670Y-16180202D01*
X16893812Y-16208774D02*
X17017622Y-16208774D01*
X17017622Y-16208774D02*
X16950955Y-16284964D01*
X16950955Y-16284964D02*
X16979527Y-16284964D01*
X16979527Y-16284964D02*
X16998574Y-16294488D01*
X16998574Y-16294488D02*
X17008098Y-16304012D01*
X17008098Y-16304012D02*
X17017622Y-16323059D01*
X17017622Y-16323059D02*
X17017622Y-16370678D01*
X17017622Y-16370678D02*
X17008098Y-16389726D01*
X17008098Y-16389726D02*
X16998574Y-16399250D01*
X16998574Y-16399250D02*
X16979527Y-16408774D01*
X16979527Y-16408774D02*
X16922384Y-16408774D01*
X16922384Y-16408774D02*
X16903336Y-16399250D01*
X16903336Y-16399250D02*
X16893812Y-16389726D01*
X17093812Y-16227821D02*
X17103336Y-16218298D01*
X17103336Y-16218298D02*
X17122384Y-16208774D01*
X17122384Y-16208774D02*
X17170003Y-16208774D01*
X17170003Y-16208774D02*
X17189050Y-16218298D01*
X17189050Y-16218298D02*
X17198574Y-16227821D01*
X17198574Y-16227821D02*
X17208098Y-16246869D01*
X17208098Y-16246869D02*
X17208098Y-16265917D01*
X17208098Y-16265917D02*
X17198574Y-16294488D01*
X17198574Y-16294488D02*
X17084289Y-16408774D01*
X17084289Y-16408774D02*
X17208098Y-16408774D01*
X17446193Y-16408774D02*
X17446193Y-16208774D01*
X17531908Y-16408774D02*
X17531908Y-16304012D01*
X17531908Y-16304012D02*
X17522384Y-16284964D01*
X17522384Y-16284964D02*
X17503336Y-16275440D01*
X17503336Y-16275440D02*
X17474765Y-16275440D01*
X17474765Y-16275440D02*
X17455717Y-16284964D01*
X17455717Y-16284964D02*
X17446193Y-16294488D01*
X17655717Y-16408774D02*
X17636670Y-16399250D01*
X17636670Y-16399250D02*
X17627146Y-16389726D01*
X17627146Y-16389726D02*
X17617622Y-16370678D01*
X17617622Y-16370678D02*
X17617622Y-16313536D01*
X17617622Y-16313536D02*
X17627146Y-16294488D01*
X17627146Y-16294488D02*
X17636670Y-16284964D01*
X17636670Y-16284964D02*
X17655717Y-16275440D01*
X17655717Y-16275440D02*
X17684289Y-16275440D01*
X17684289Y-16275440D02*
X17703336Y-16284964D01*
X17703336Y-16284964D02*
X17712860Y-16294488D01*
X17712860Y-16294488D02*
X17722384Y-16313536D01*
X17722384Y-16313536D02*
X17722384Y-16370678D01*
X17722384Y-16370678D02*
X17712860Y-16389726D01*
X17712860Y-16389726D02*
X17703336Y-16399250D01*
X17703336Y-16399250D02*
X17684289Y-16408774D01*
X17684289Y-16408774D02*
X17655717Y-16408774D01*
X17836670Y-16408774D02*
X17817622Y-16399250D01*
X17817622Y-16399250D02*
X17808098Y-16380202D01*
X17808098Y-16380202D02*
X17808098Y-16208774D01*
X17989051Y-16399250D02*
X17970003Y-16408774D01*
X17970003Y-16408774D02*
X17931908Y-16408774D01*
X17931908Y-16408774D02*
X17912860Y-16399250D01*
X17912860Y-16399250D02*
X17903336Y-16380202D01*
X17903336Y-16380202D02*
X17903336Y-16304012D01*
X17903336Y-16304012D02*
X17912860Y-16284964D01*
X17912860Y-16284964D02*
X17931908Y-16275440D01*
X17931908Y-16275440D02*
X17970003Y-16275440D01*
X17970003Y-16275440D02*
X17989051Y-16284964D01*
X17989051Y-16284964D02*
X17998574Y-16304012D01*
X17998574Y-16304012D02*
X17998574Y-16323059D01*
X17998574Y-16323059D02*
X17903336Y-16342107D01*
X18074765Y-16399250D02*
X18093812Y-16408774D01*
X18093812Y-16408774D02*
X18131908Y-16408774D01*
X18131908Y-16408774D02*
X18150955Y-16399250D01*
X18150955Y-16399250D02*
X18160479Y-16380202D01*
X18160479Y-16380202D02*
X18160479Y-16370678D01*
X18160479Y-16370678D02*
X18150955Y-16351631D01*
X18150955Y-16351631D02*
X18131908Y-16342107D01*
X18131908Y-16342107D02*
X18103336Y-16342107D01*
X18103336Y-16342107D02*
X18084289Y-16332583D01*
X18084289Y-16332583D02*
X18074765Y-16313536D01*
X18074765Y-16313536D02*
X18074765Y-16304012D01*
X18074765Y-16304012D02*
X18084289Y-16284964D01*
X18084289Y-16284964D02*
X18103336Y-16275440D01*
X18103336Y-16275440D02*
X18131908Y-16275440D01*
X18131908Y-16275440D02*
X18150955Y-16284964D01*
X18227146Y-16484964D02*
X18236670Y-16475440D01*
X18236670Y-16475440D02*
X18255717Y-16446869D01*
X18255717Y-16446869D02*
X18265241Y-16427821D01*
X18265241Y-16427821D02*
X18274765Y-16399250D01*
X18274765Y-16399250D02*
X18284289Y-16351631D01*
X18284289Y-16351631D02*
X18284289Y-16313536D01*
X18284289Y-16313536D02*
X18274765Y-16265917D01*
X18274765Y-16265917D02*
X18265241Y-16237345D01*
X18265241Y-16237345D02*
X18255717Y-16218298D01*
X18255717Y-16218298D02*
X18236670Y-16189726D01*
X18236670Y-16189726D02*
X18227146Y-16180202D01*
D10*
X13174764Y-16530250D02*
X13274764Y-16630250D01*
X13274764Y-16530250D02*
X13174764Y-16630250D01*
X13224764Y-16530250D02*
X13224764Y-16630250D01*
X13174764Y-16580250D02*
X13274764Y-16580250D01*
D12*
X13627145Y-16672774D02*
X13512860Y-16672774D01*
X13570002Y-16672774D02*
X13570002Y-16472774D01*
X13570002Y-16472774D02*
X13550955Y-16501345D01*
X13550955Y-16501345D02*
X13531907Y-16520393D01*
X13531907Y-16520393D02*
X13512860Y-16529917D01*
X13712860Y-16653726D02*
X13722383Y-16663250D01*
X13722383Y-16663250D02*
X13712860Y-16672774D01*
X13712860Y-16672774D02*
X13703336Y-16663250D01*
X13703336Y-16663250D02*
X13712860Y-16653726D01*
X13712860Y-16653726D02*
X13712860Y-16672774D01*
X13846193Y-16472774D02*
X13865241Y-16472774D01*
X13865241Y-16472774D02*
X13884288Y-16482298D01*
X13884288Y-16482298D02*
X13893812Y-16491821D01*
X13893812Y-16491821D02*
X13903336Y-16510869D01*
X13903336Y-16510869D02*
X13912860Y-16548964D01*
X13912860Y-16548964D02*
X13912860Y-16596583D01*
X13912860Y-16596583D02*
X13903336Y-16634678D01*
X13903336Y-16634678D02*
X13893812Y-16653726D01*
X13893812Y-16653726D02*
X13884288Y-16663250D01*
X13884288Y-16663250D02*
X13865241Y-16672774D01*
X13865241Y-16672774D02*
X13846193Y-16672774D01*
X13846193Y-16672774D02*
X13827145Y-16663250D01*
X13827145Y-16663250D02*
X13817621Y-16653726D01*
X13817621Y-16653726D02*
X13808098Y-16634678D01*
X13808098Y-16634678D02*
X13798574Y-16596583D01*
X13798574Y-16596583D02*
X13798574Y-16548964D01*
X13798574Y-16548964D02*
X13808098Y-16510869D01*
X13808098Y-16510869D02*
X13817621Y-16491821D01*
X13817621Y-16491821D02*
X13827145Y-16482298D01*
X13827145Y-16482298D02*
X13846193Y-16472774D01*
X14036669Y-16472774D02*
X14055717Y-16472774D01*
X14055717Y-16472774D02*
X14074764Y-16482298D01*
X14074764Y-16482298D02*
X14084288Y-16491821D01*
X14084288Y-16491821D02*
X14093812Y-16510869D01*
X14093812Y-16510869D02*
X14103336Y-16548964D01*
X14103336Y-16548964D02*
X14103336Y-16596583D01*
X14103336Y-16596583D02*
X14093812Y-16634678D01*
X14093812Y-16634678D02*
X14084288Y-16653726D01*
X14084288Y-16653726D02*
X14074764Y-16663250D01*
X14074764Y-16663250D02*
X14055717Y-16672774D01*
X14055717Y-16672774D02*
X14036669Y-16672774D01*
X14036669Y-16672774D02*
X14017621Y-16663250D01*
X14017621Y-16663250D02*
X14008098Y-16653726D01*
X14008098Y-16653726D02*
X13998574Y-16634678D01*
X13998574Y-16634678D02*
X13989050Y-16596583D01*
X13989050Y-16596583D02*
X13989050Y-16548964D01*
X13989050Y-16548964D02*
X13998574Y-16510869D01*
X13998574Y-16510869D02*
X14008098Y-16491821D01*
X14008098Y-16491821D02*
X14017621Y-16482298D01*
X14017621Y-16482298D02*
X14036669Y-16472774D01*
X14227145Y-16472774D02*
X14246193Y-16472774D01*
X14246193Y-16472774D02*
X14265241Y-16482298D01*
X14265241Y-16482298D02*
X14274764Y-16491821D01*
X14274764Y-16491821D02*
X14284288Y-16510869D01*
X14284288Y-16510869D02*
X14293812Y-16548964D01*
X14293812Y-16548964D02*
X14293812Y-16596583D01*
X14293812Y-16596583D02*
X14284288Y-16634678D01*
X14284288Y-16634678D02*
X14274764Y-16653726D01*
X14274764Y-16653726D02*
X14265241Y-16663250D01*
X14265241Y-16663250D02*
X14246193Y-16672774D01*
X14246193Y-16672774D02*
X14227145Y-16672774D01*
X14227145Y-16672774D02*
X14208098Y-16663250D01*
X14208098Y-16663250D02*
X14198574Y-16653726D01*
X14198574Y-16653726D02*
X14189050Y-16634678D01*
X14189050Y-16634678D02*
X14179526Y-16596583D01*
X14179526Y-16596583D02*
X14179526Y-16548964D01*
X14179526Y-16548964D02*
X14189050Y-16510869D01*
X14189050Y-16510869D02*
X14198574Y-16491821D01*
X14198574Y-16491821D02*
X14208098Y-16482298D01*
X14208098Y-16482298D02*
X14227145Y-16472774D01*
X14379526Y-16672774D02*
X14379526Y-16539440D01*
X14379526Y-16558488D02*
X14389050Y-16548964D01*
X14389050Y-16548964D02*
X14408098Y-16539440D01*
X14408098Y-16539440D02*
X14436669Y-16539440D01*
X14436669Y-16539440D02*
X14455717Y-16548964D01*
X14455717Y-16548964D02*
X14465241Y-16568012D01*
X14465241Y-16568012D02*
X14465241Y-16672774D01*
X14465241Y-16568012D02*
X14474764Y-16548964D01*
X14474764Y-16548964D02*
X14493812Y-16539440D01*
X14493812Y-16539440D02*
X14522383Y-16539440D01*
X14522383Y-16539440D02*
X14541431Y-16548964D01*
X14541431Y-16548964D02*
X14550955Y-16568012D01*
X14550955Y-16568012D02*
X14550955Y-16672774D01*
X14646193Y-16672774D02*
X14646193Y-16539440D01*
X14646193Y-16558488D02*
X14655717Y-16548964D01*
X14655717Y-16548964D02*
X14674764Y-16539440D01*
X14674764Y-16539440D02*
X14703336Y-16539440D01*
X14703336Y-16539440D02*
X14722383Y-16548964D01*
X14722383Y-16548964D02*
X14731907Y-16568012D01*
X14731907Y-16568012D02*
X14731907Y-16672774D01*
X14731907Y-16568012D02*
X14741431Y-16548964D01*
X14741431Y-16548964D02*
X14760479Y-16539440D01*
X14760479Y-16539440D02*
X14789050Y-16539440D01*
X14789050Y-16539440D02*
X14808098Y-16548964D01*
X14808098Y-16548964D02*
X14817622Y-16568012D01*
X14817622Y-16568012D02*
X14817622Y-16672774D01*
X15208098Y-16463250D02*
X15036669Y-16720393D01*
X15465241Y-16472774D02*
X15484288Y-16472774D01*
X15484288Y-16472774D02*
X15503336Y-16482298D01*
X15503336Y-16482298D02*
X15512860Y-16491821D01*
X15512860Y-16491821D02*
X15522384Y-16510869D01*
X15522384Y-16510869D02*
X15531907Y-16548964D01*
X15531907Y-16548964D02*
X15531907Y-16596583D01*
X15531907Y-16596583D02*
X15522384Y-16634678D01*
X15522384Y-16634678D02*
X15512860Y-16653726D01*
X15512860Y-16653726D02*
X15503336Y-16663250D01*
X15503336Y-16663250D02*
X15484288Y-16672774D01*
X15484288Y-16672774D02*
X15465241Y-16672774D01*
X15465241Y-16672774D02*
X15446193Y-16663250D01*
X15446193Y-16663250D02*
X15436669Y-16653726D01*
X15436669Y-16653726D02*
X15427145Y-16634678D01*
X15427145Y-16634678D02*
X15417622Y-16596583D01*
X15417622Y-16596583D02*
X15417622Y-16548964D01*
X15417622Y-16548964D02*
X15427145Y-16510869D01*
X15427145Y-16510869D02*
X15436669Y-16491821D01*
X15436669Y-16491821D02*
X15446193Y-16482298D01*
X15446193Y-16482298D02*
X15465241Y-16472774D01*
X15617622Y-16653726D02*
X15627145Y-16663250D01*
X15627145Y-16663250D02*
X15617622Y-16672774D01*
X15617622Y-16672774D02*
X15608098Y-16663250D01*
X15608098Y-16663250D02*
X15617622Y-16653726D01*
X15617622Y-16653726D02*
X15617622Y-16672774D01*
X15750955Y-16472774D02*
X15770003Y-16472774D01*
X15770003Y-16472774D02*
X15789050Y-16482298D01*
X15789050Y-16482298D02*
X15798574Y-16491821D01*
X15798574Y-16491821D02*
X15808098Y-16510869D01*
X15808098Y-16510869D02*
X15817622Y-16548964D01*
X15817622Y-16548964D02*
X15817622Y-16596583D01*
X15817622Y-16596583D02*
X15808098Y-16634678D01*
X15808098Y-16634678D02*
X15798574Y-16653726D01*
X15798574Y-16653726D02*
X15789050Y-16663250D01*
X15789050Y-16663250D02*
X15770003Y-16672774D01*
X15770003Y-16672774D02*
X15750955Y-16672774D01*
X15750955Y-16672774D02*
X15731907Y-16663250D01*
X15731907Y-16663250D02*
X15722384Y-16653726D01*
X15722384Y-16653726D02*
X15712860Y-16634678D01*
X15712860Y-16634678D02*
X15703336Y-16596583D01*
X15703336Y-16596583D02*
X15703336Y-16548964D01*
X15703336Y-16548964D02*
X15712860Y-16510869D01*
X15712860Y-16510869D02*
X15722384Y-16491821D01*
X15722384Y-16491821D02*
X15731907Y-16482298D01*
X15731907Y-16482298D02*
X15750955Y-16472774D01*
X15884288Y-16472774D02*
X16008098Y-16472774D01*
X16008098Y-16472774D02*
X15941431Y-16548964D01*
X15941431Y-16548964D02*
X15970003Y-16548964D01*
X15970003Y-16548964D02*
X15989050Y-16558488D01*
X15989050Y-16558488D02*
X15998574Y-16568012D01*
X15998574Y-16568012D02*
X16008098Y-16587059D01*
X16008098Y-16587059D02*
X16008098Y-16634678D01*
X16008098Y-16634678D02*
X15998574Y-16653726D01*
X15998574Y-16653726D02*
X15989050Y-16663250D01*
X15989050Y-16663250D02*
X15970003Y-16672774D01*
X15970003Y-16672774D02*
X15912860Y-16672774D01*
X15912860Y-16672774D02*
X15893812Y-16663250D01*
X15893812Y-16663250D02*
X15884288Y-16653726D01*
X16103336Y-16672774D02*
X16141431Y-16672774D01*
X16141431Y-16672774D02*
X16160479Y-16663250D01*
X16160479Y-16663250D02*
X16170003Y-16653726D01*
X16170003Y-16653726D02*
X16189050Y-16625155D01*
X16189050Y-16625155D02*
X16198574Y-16587059D01*
X16198574Y-16587059D02*
X16198574Y-16510869D01*
X16198574Y-16510869D02*
X16189050Y-16491821D01*
X16189050Y-16491821D02*
X16179526Y-16482298D01*
X16179526Y-16482298D02*
X16160479Y-16472774D01*
X16160479Y-16472774D02*
X16122384Y-16472774D01*
X16122384Y-16472774D02*
X16103336Y-16482298D01*
X16103336Y-16482298D02*
X16093812Y-16491821D01*
X16093812Y-16491821D02*
X16084288Y-16510869D01*
X16084288Y-16510869D02*
X16084288Y-16558488D01*
X16084288Y-16558488D02*
X16093812Y-16577536D01*
X16093812Y-16577536D02*
X16103336Y-16587059D01*
X16103336Y-16587059D02*
X16122384Y-16596583D01*
X16122384Y-16596583D02*
X16160479Y-16596583D01*
X16160479Y-16596583D02*
X16179526Y-16587059D01*
X16179526Y-16587059D02*
X16189050Y-16577536D01*
X16189050Y-16577536D02*
X16198574Y-16558488D01*
X16370003Y-16539440D02*
X16370003Y-16672774D01*
X16322384Y-16463250D02*
X16274765Y-16606107D01*
X16274765Y-16606107D02*
X16398574Y-16606107D01*
X16465241Y-16472774D02*
X16465241Y-16510869D01*
X16541431Y-16472774D02*
X16541431Y-16510869D01*
X16836670Y-16748964D02*
X16827146Y-16739440D01*
X16827146Y-16739440D02*
X16808098Y-16710869D01*
X16808098Y-16710869D02*
X16798574Y-16691821D01*
X16798574Y-16691821D02*
X16789050Y-16663250D01*
X16789050Y-16663250D02*
X16779527Y-16615631D01*
X16779527Y-16615631D02*
X16779527Y-16577536D01*
X16779527Y-16577536D02*
X16789050Y-16529917D01*
X16789050Y-16529917D02*
X16798574Y-16501345D01*
X16798574Y-16501345D02*
X16808098Y-16482298D01*
X16808098Y-16482298D02*
X16827146Y-16453726D01*
X16827146Y-16453726D02*
X16836670Y-16444202D01*
X16998574Y-16472774D02*
X16960479Y-16472774D01*
X16960479Y-16472774D02*
X16941431Y-16482298D01*
X16941431Y-16482298D02*
X16931908Y-16491821D01*
X16931908Y-16491821D02*
X16912860Y-16520393D01*
X16912860Y-16520393D02*
X16903336Y-16558488D01*
X16903336Y-16558488D02*
X16903336Y-16634678D01*
X16903336Y-16634678D02*
X16912860Y-16653726D01*
X16912860Y-16653726D02*
X16922384Y-16663250D01*
X16922384Y-16663250D02*
X16941431Y-16672774D01*
X16941431Y-16672774D02*
X16979527Y-16672774D01*
X16979527Y-16672774D02*
X16998574Y-16663250D01*
X16998574Y-16663250D02*
X17008098Y-16653726D01*
X17008098Y-16653726D02*
X17017622Y-16634678D01*
X17017622Y-16634678D02*
X17017622Y-16587059D01*
X17017622Y-16587059D02*
X17008098Y-16568012D01*
X17008098Y-16568012D02*
X16998574Y-16558488D01*
X16998574Y-16558488D02*
X16979527Y-16548964D01*
X16979527Y-16548964D02*
X16941431Y-16548964D01*
X16941431Y-16548964D02*
X16922384Y-16558488D01*
X16922384Y-16558488D02*
X16912860Y-16568012D01*
X16912860Y-16568012D02*
X16903336Y-16587059D01*
X17255717Y-16672774D02*
X17255717Y-16472774D01*
X17341431Y-16672774D02*
X17341431Y-16568012D01*
X17341431Y-16568012D02*
X17331908Y-16548964D01*
X17331908Y-16548964D02*
X17312860Y-16539440D01*
X17312860Y-16539440D02*
X17284289Y-16539440D01*
X17284289Y-16539440D02*
X17265241Y-16548964D01*
X17265241Y-16548964D02*
X17255717Y-16558488D01*
X17465241Y-16672774D02*
X17446193Y-16663250D01*
X17446193Y-16663250D02*
X17436670Y-16653726D01*
X17436670Y-16653726D02*
X17427146Y-16634678D01*
X17427146Y-16634678D02*
X17427146Y-16577536D01*
X17427146Y-16577536D02*
X17436670Y-16558488D01*
X17436670Y-16558488D02*
X17446193Y-16548964D01*
X17446193Y-16548964D02*
X17465241Y-16539440D01*
X17465241Y-16539440D02*
X17493812Y-16539440D01*
X17493812Y-16539440D02*
X17512860Y-16548964D01*
X17512860Y-16548964D02*
X17522384Y-16558488D01*
X17522384Y-16558488D02*
X17531908Y-16577536D01*
X17531908Y-16577536D02*
X17531908Y-16634678D01*
X17531908Y-16634678D02*
X17522384Y-16653726D01*
X17522384Y-16653726D02*
X17512860Y-16663250D01*
X17512860Y-16663250D02*
X17493812Y-16672774D01*
X17493812Y-16672774D02*
X17465241Y-16672774D01*
X17646193Y-16672774D02*
X17627146Y-16663250D01*
X17627146Y-16663250D02*
X17617622Y-16644202D01*
X17617622Y-16644202D02*
X17617622Y-16472774D01*
X17798574Y-16663250D02*
X17779527Y-16672774D01*
X17779527Y-16672774D02*
X17741431Y-16672774D01*
X17741431Y-16672774D02*
X17722384Y-16663250D01*
X17722384Y-16663250D02*
X17712860Y-16644202D01*
X17712860Y-16644202D02*
X17712860Y-16568012D01*
X17712860Y-16568012D02*
X17722384Y-16548964D01*
X17722384Y-16548964D02*
X17741431Y-16539440D01*
X17741431Y-16539440D02*
X17779527Y-16539440D01*
X17779527Y-16539440D02*
X17798574Y-16548964D01*
X17798574Y-16548964D02*
X17808098Y-16568012D01*
X17808098Y-16568012D02*
X17808098Y-16587059D01*
X17808098Y-16587059D02*
X17712860Y-16606107D01*
X17884289Y-16663250D02*
X17903336Y-16672774D01*
X17903336Y-16672774D02*
X17941431Y-16672774D01*
X17941431Y-16672774D02*
X17960479Y-16663250D01*
X17960479Y-16663250D02*
X17970003Y-16644202D01*
X17970003Y-16644202D02*
X17970003Y-16634678D01*
X17970003Y-16634678D02*
X17960479Y-16615631D01*
X17960479Y-16615631D02*
X17941431Y-16606107D01*
X17941431Y-16606107D02*
X17912860Y-16606107D01*
X17912860Y-16606107D02*
X17893812Y-16596583D01*
X17893812Y-16596583D02*
X17884289Y-16577536D01*
X17884289Y-16577536D02*
X17884289Y-16568012D01*
X17884289Y-16568012D02*
X17893812Y-16548964D01*
X17893812Y-16548964D02*
X17912860Y-16539440D01*
X17912860Y-16539440D02*
X17941431Y-16539440D01*
X17941431Y-16539440D02*
X17960479Y-16548964D01*
X18036670Y-16748964D02*
X18046193Y-16739440D01*
X18046193Y-16739440D02*
X18065241Y-16710869D01*
X18065241Y-16710869D02*
X18074765Y-16691821D01*
X18074765Y-16691821D02*
X18084289Y-16663250D01*
X18084289Y-16663250D02*
X18093812Y-16615631D01*
X18093812Y-16615631D02*
X18093812Y-16577536D01*
X18093812Y-16577536D02*
X18084289Y-16529917D01*
X18084289Y-16529917D02*
X18074765Y-16501345D01*
X18074765Y-16501345D02*
X18065241Y-16482298D01*
X18065241Y-16482298D02*
X18046193Y-16453726D01*
X18046193Y-16453726D02*
X18036670Y-16444202D01*
M02*
