%TF.GenerationSoftware,KiCad,Pcbnew,7.0.2-0*%
%TF.CreationDate,2023-10-14T20:17:31-05:00*%
%TF.ProjectId,Flight Computer,466c6967-6874-4204-936f-6d7075746572,1.1*%
%TF.SameCoordinates,Original*%
%TF.FileFunction,Soldermask,Bot*%
%TF.FilePolarity,Negative*%
%FSLAX46Y46*%
G04 Gerber Fmt 4.6, Leading zero omitted, Abs format (unit mm)*
G04 Created by KiCad (PCBNEW 7.0.2-0) date 2023-10-14 20:17:31*
%MOMM*%
%LPD*%
G01*
G04 APERTURE LIST*
G04 Aperture macros list*
%AMRoundRect*
0 Rectangle with rounded corners*
0 $1 Rounding radius*
0 $2 $3 $4 $5 $6 $7 $8 $9 X,Y pos of 4 corners*
0 Add a 4 corners polygon primitive as box body*
4,1,4,$2,$3,$4,$5,$6,$7,$8,$9,$2,$3,0*
0 Add four circle primitives for the rounded corners*
1,1,$1+$1,$2,$3*
1,1,$1+$1,$4,$5*
1,1,$1+$1,$6,$7*
1,1,$1+$1,$8,$9*
0 Add four rect primitives between the rounded corners*
20,1,$1+$1,$2,$3,$4,$5,0*
20,1,$1+$1,$4,$5,$6,$7,0*
20,1,$1+$1,$6,$7,$8,$9,0*
20,1,$1+$1,$8,$9,$2,$3,0*%
G04 Aperture macros list end*
%ADD10RoundRect,0.200000X0.450000X-0.200000X0.450000X0.200000X-0.450000X0.200000X-0.450000X-0.200000X0*%
%ADD11O,1.300000X0.800000*%
%ADD12C,0.650000*%
%ADD13O,2.100000X1.000000*%
%ADD14O,1.800000X1.000000*%
%ADD15C,0.600000*%
%ADD16C,1.500000*%
%ADD17RoundRect,0.250000X0.350000X0.625000X-0.350000X0.625000X-0.350000X-0.625000X0.350000X-0.625000X0*%
%ADD18O,1.200000X1.750000*%
%ADD19C,1.600000*%
%ADD20C,1.524000*%
%ADD21R,3.000000X1.500000*%
%ADD22R,1.500000X3.000000*%
%ADD23R,2.000000X2.000000*%
%ADD24C,2.000000*%
%ADD25R,1.700000X1.700000*%
%ADD26O,1.700000X1.700000*%
G04 APERTURE END LIST*
D10*
%TO.C,J8*%
X167100000Y-103175000D03*
D11*
X167100000Y-101925000D03*
X167100000Y-100675000D03*
X167100000Y-99425000D03*
%TD*%
D12*
%TO.C,J7*%
X165960000Y-90192500D03*
X165960000Y-84412500D03*
D13*
X165440000Y-91622500D03*
D14*
X169640000Y-91622500D03*
D13*
X165440000Y-82982500D03*
D14*
X169640000Y-82982500D03*
%TD*%
D10*
%TO.C,J9*%
X167100000Y-75837500D03*
D11*
X167100000Y-74587500D03*
X167100000Y-73337500D03*
X167100000Y-72087500D03*
%TD*%
D15*
%TO.C,U8*%
X161100000Y-110037500D03*
X159600000Y-110037500D03*
X160350000Y-110537500D03*
X161100000Y-111037500D03*
X159600000Y-111037500D03*
%TD*%
D16*
%TO.C,TP10*%
X141150000Y-89000000D03*
%TD*%
%TO.C,TP15*%
X140300000Y-102200000D03*
%TD*%
D17*
%TO.C,J4*%
X153300000Y-137950000D03*
D18*
X151300000Y-137950000D03*
%TD*%
D16*
%TO.C,TP5*%
X146400000Y-73000000D03*
%TD*%
%TO.C,TP4*%
X145550000Y-75400000D03*
%TD*%
%TO.C,TP1*%
X165500000Y-105500000D03*
%TD*%
%TO.C,TP11*%
X141150000Y-91950000D03*
%TD*%
%TO.C,TP6*%
X135600000Y-84300000D03*
%TD*%
%TO.C,TP7*%
X148700000Y-70900000D03*
%TD*%
D19*
%TO.C,J2*%
X139300000Y-135462500D03*
X144300000Y-135462500D03*
X139300000Y-132962500D03*
X144300000Y-132962500D03*
X139300000Y-130462500D03*
X144300000Y-130462500D03*
D20*
X139300000Y-127962500D03*
D19*
X144300000Y-127962500D03*
X139300000Y-125462500D03*
X144300000Y-125462500D03*
X139300000Y-122962500D03*
X144300000Y-122962500D03*
X139300000Y-120462500D03*
X144300000Y-120462500D03*
X139300000Y-117962500D03*
X144300000Y-117962500D03*
%TD*%
D21*
%TO.C,U11*%
X159800000Y-86412500D03*
X159800000Y-88312500D03*
X159800000Y-90212500D03*
X159800000Y-92112500D03*
X159800000Y-94012500D03*
D22*
X156400000Y-97412500D03*
X154500000Y-97412500D03*
X152600000Y-97412500D03*
X150700000Y-97412500D03*
X148800000Y-97412500D03*
D21*
X145400000Y-94012500D03*
X145400000Y-92112500D03*
X145400000Y-90212500D03*
X145400000Y-88312500D03*
X145400000Y-86412500D03*
D22*
X148800000Y-83012500D03*
X150700000Y-83012500D03*
X152600000Y-83012500D03*
X154500000Y-83012500D03*
X156400000Y-83012500D03*
%TD*%
D16*
%TO.C,TP9*%
X139500000Y-71800000D03*
%TD*%
D23*
%TO.C,BZ1*%
X152300000Y-108212500D03*
D24*
X152300000Y-103212500D03*
%TD*%
D16*
%TO.C,TP3*%
X146950000Y-79750000D03*
%TD*%
%TO.C,TP2*%
X167550000Y-108150000D03*
%TD*%
%TO.C,TP13*%
X154850000Y-78000000D03*
%TD*%
%TO.C,TP14*%
X151000000Y-77250000D03*
%TD*%
D19*
%TO.C,J1*%
X165350000Y-117937500D03*
X160350000Y-117937500D03*
X165350000Y-120437500D03*
X160350000Y-120437500D03*
X165350000Y-122937500D03*
X160350000Y-122937500D03*
D20*
X165350000Y-125437500D03*
D19*
X160350000Y-125437500D03*
X165350000Y-127937500D03*
X160350000Y-127937500D03*
X165350000Y-130437500D03*
X160350000Y-130437500D03*
X165350000Y-132937500D03*
X160350000Y-132937500D03*
X165350000Y-135437500D03*
X160350000Y-135437500D03*
%TD*%
D25*
%TO.C,J3*%
X144100000Y-65675000D03*
D26*
X141560000Y-65675000D03*
X144100000Y-68215000D03*
X141560000Y-68215000D03*
%TD*%
D16*
%TO.C,TP8*%
X137450000Y-73550000D03*
%TD*%
%TO.C,TP12*%
X164300000Y-102300000D03*
%TD*%
M02*
