%TF.GenerationSoftware,KiCad,Pcbnew,7.0.2-0*%
%TF.CreationDate,2023-10-14T20:17:31-05:00*%
%TF.ProjectId,Flight Computer,466c6967-6874-4204-936f-6d7075746572,1.1*%
%TF.SameCoordinates,Original*%
%TF.FileFunction,Paste,Top*%
%TF.FilePolarity,Positive*%
%FSLAX46Y46*%
G04 Gerber Fmt 4.6, Leading zero omitted, Abs format (unit mm)*
G04 Created by KiCad (PCBNEW 7.0.2-0) date 2023-10-14 20:17:31*
%MOMM*%
%LPD*%
G01*
G04 APERTURE LIST*
G04 Aperture macros list*
%AMRoundRect*
0 Rectangle with rounded corners*
0 $1 Rounding radius*
0 $2 $3 $4 $5 $6 $7 $8 $9 X,Y pos of 4 corners*
0 Add a 4 corners polygon primitive as box body*
4,1,4,$2,$3,$4,$5,$6,$7,$8,$9,$2,$3,0*
0 Add four circle primitives for the rounded corners*
1,1,$1+$1,$2,$3*
1,1,$1+$1,$4,$5*
1,1,$1+$1,$6,$7*
1,1,$1+$1,$8,$9*
0 Add four rect primitives between the rounded corners*
20,1,$1+$1,$2,$3,$4,$5,0*
20,1,$1+$1,$4,$5,$6,$7,0*
20,1,$1+$1,$6,$7,$8,$9,0*
20,1,$1+$1,$8,$9,$2,$3,0*%
G04 Aperture macros list end*
%ADD10RoundRect,0.150000X-0.587500X-0.150000X0.587500X-0.150000X0.587500X0.150000X-0.587500X0.150000X0*%
%ADD11RoundRect,0.135000X-0.185000X0.135000X-0.185000X-0.135000X0.185000X-0.135000X0.185000X0.135000X0*%
%ADD12RoundRect,0.218750X-0.218750X-0.256250X0.218750X-0.256250X0.218750X0.256250X-0.218750X0.256250X0*%
%ADD13RoundRect,0.150000X0.587500X0.150000X-0.587500X0.150000X-0.587500X-0.150000X0.587500X-0.150000X0*%
%ADD14RoundRect,0.200000X-0.275000X0.200000X-0.275000X-0.200000X0.275000X-0.200000X0.275000X0.200000X0*%
%ADD15RoundRect,0.218750X0.218750X0.256250X-0.218750X0.256250X-0.218750X-0.256250X0.218750X-0.256250X0*%
%ADD16RoundRect,0.135000X0.185000X-0.135000X0.185000X0.135000X-0.185000X0.135000X-0.185000X-0.135000X0*%
%ADD17RoundRect,0.135000X-0.135000X-0.185000X0.135000X-0.185000X0.135000X0.185000X-0.135000X0.185000X0*%
%ADD18RoundRect,0.200000X0.200000X0.275000X-0.200000X0.275000X-0.200000X-0.275000X0.200000X-0.275000X0*%
%ADD19RoundRect,0.140000X0.140000X0.170000X-0.140000X0.170000X-0.140000X-0.170000X0.140000X-0.170000X0*%
%ADD20RoundRect,0.225000X-0.250000X0.225000X-0.250000X-0.225000X0.250000X-0.225000X0.250000X0.225000X0*%
%ADD21RoundRect,0.140000X-0.140000X-0.170000X0.140000X-0.170000X0.140000X0.170000X-0.140000X0.170000X0*%
%ADD22RoundRect,0.218750X-0.381250X0.218750X-0.381250X-0.218750X0.381250X-0.218750X0.381250X0.218750X0*%
%ADD23RoundRect,0.140000X-0.170000X0.140000X-0.170000X-0.140000X0.170000X-0.140000X0.170000X0.140000X0*%
%ADD24RoundRect,0.218750X0.218750X0.381250X-0.218750X0.381250X-0.218750X-0.381250X0.218750X-0.381250X0*%
%ADD25RoundRect,0.140000X0.170000X-0.140000X0.170000X0.140000X-0.170000X0.140000X-0.170000X-0.140000X0*%
%ADD26RoundRect,0.135000X0.135000X0.185000X-0.135000X0.185000X-0.135000X-0.185000X0.135000X-0.185000X0*%
%ADD27RoundRect,0.075000X-0.725000X-0.075000X0.725000X-0.075000X0.725000X0.075000X-0.725000X0.075000X0*%
%ADD28RoundRect,0.075000X-0.075000X-0.725000X0.075000X-0.725000X0.075000X0.725000X-0.075000X0.725000X0*%
%ADD29RoundRect,0.225000X0.250000X-0.225000X0.250000X0.225000X-0.250000X0.225000X-0.250000X-0.225000X0*%
%ADD30RoundRect,0.200000X-0.200000X-0.275000X0.200000X-0.275000X0.200000X0.275000X-0.200000X0.275000X0*%
%ADD31R,1.240000X0.600000*%
%ADD32R,1.240000X0.300000*%
%ADD33RoundRect,0.150000X0.512500X0.150000X-0.512500X0.150000X-0.512500X-0.150000X0.512500X-0.150000X0*%
%ADD34R,0.700000X1.750000*%
%ADD35R,1.450000X1.000000*%
%ADD36R,1.000000X1.550000*%
%ADD37R,0.800000X1.500000*%
%ADD38R,1.300000X1.500000*%
%ADD39R,1.500000X1.500000*%
%ADD40R,0.800000X1.400000*%
%ADD41RoundRect,0.250000X-0.250000X-0.475000X0.250000X-0.475000X0.250000X0.475000X-0.250000X0.475000X0*%
%ADD42R,1.200000X1.400000*%
%ADD43RoundRect,0.250000X-0.475000X0.250000X-0.475000X-0.250000X0.475000X-0.250000X0.475000X0.250000X0*%
%ADD44R,1.100000X3.700000*%
%ADD45R,3.700000X1.100000*%
%ADD46RoundRect,0.012500X0.112500X-0.325000X0.112500X0.325000X-0.112500X0.325000X-0.112500X-0.325000X0*%
%ADD47RoundRect,0.012500X0.325000X-0.112500X0.325000X0.112500X-0.325000X0.112500X-0.325000X-0.112500X0*%
%ADD48RoundRect,0.243750X0.456250X-0.243750X0.456250X0.243750X-0.456250X0.243750X-0.456250X-0.243750X0*%
%ADD49R,0.230000X0.230000*%
%ADD50O,0.230000X0.800000*%
%ADD51R,1.050000X0.680000*%
%ADD52R,0.500000X0.260000*%
%ADD53RoundRect,0.012500X0.112500X0.125000X-0.112500X0.125000X-0.112500X-0.125000X0.112500X-0.125000X0*%
%ADD54RoundRect,0.012500X0.125000X0.112500X-0.125000X0.112500X-0.125000X-0.112500X0.125000X-0.112500X0*%
%ADD55RoundRect,0.027500X0.545000X0.247500X-0.545000X0.247500X-0.545000X-0.247500X0.545000X-0.247500X0*%
%ADD56RoundRect,0.027500X0.247500X0.545000X-0.247500X0.545000X-0.247500X-0.545000X0.247500X-0.545000X0*%
%ADD57RoundRect,0.150000X0.150000X-0.650000X0.150000X0.650000X-0.150000X0.650000X-0.150000X-0.650000X0*%
%ADD58RoundRect,0.225000X0.225000X0.375000X-0.225000X0.375000X-0.225000X-0.375000X0.225000X-0.375000X0*%
G04 APERTURE END LIST*
D10*
%TO.C,Q9*%
X168362500Y-109997500D03*
X168362500Y-111897500D03*
X170237500Y-110947500D03*
%TD*%
D11*
%TO.C,R3*%
X137950000Y-81090000D03*
X137950000Y-82110000D03*
%TD*%
D12*
%TO.C,D8*%
X134312500Y-123700000D03*
X135887500Y-123700000D03*
%TD*%
D13*
%TO.C,Q2*%
X148537500Y-133912500D03*
X148537500Y-132012500D03*
X146662500Y-132962500D03*
%TD*%
D14*
%TO.C,R18*%
X161150000Y-100837500D03*
X161150000Y-102487500D03*
%TD*%
D11*
%TO.C,R14*%
X154250000Y-124140000D03*
X154250000Y-125160000D03*
%TD*%
D13*
%TO.C,Q1*%
X159237500Y-102612500D03*
X159237500Y-100712500D03*
X157362500Y-101662500D03*
%TD*%
D15*
%TO.C,D2*%
X161787500Y-98362500D03*
X160212500Y-98362500D03*
%TD*%
D11*
%TO.C,R13*%
X154250000Y-121840000D03*
X154250000Y-122860000D03*
%TD*%
D16*
%TO.C,R9*%
X150270000Y-124080000D03*
X150270000Y-123060000D03*
%TD*%
D17*
%TO.C,R19*%
X164890000Y-93162500D03*
X165910000Y-93162500D03*
%TD*%
D18*
%TO.C,R2*%
X138975000Y-91087500D03*
X137325000Y-91087500D03*
%TD*%
D19*
%TO.C,C10*%
X135280000Y-92762500D03*
X134320000Y-92762500D03*
%TD*%
D17*
%TO.C,R22*%
X160020000Y-114600000D03*
X161040000Y-114600000D03*
%TD*%
D20*
%TO.C,C1*%
X149700000Y-70475000D03*
X149700000Y-72025000D03*
%TD*%
D16*
%TO.C,R23*%
X157100000Y-108022500D03*
X157100000Y-107002500D03*
%TD*%
D21*
%TO.C,C8*%
X140820000Y-70850000D03*
X141780000Y-70850000D03*
%TD*%
D19*
%TO.C,C15*%
X143730000Y-100050000D03*
X142770000Y-100050000D03*
%TD*%
D11*
%TO.C,R15*%
X150280000Y-116790000D03*
X150280000Y-117810000D03*
%TD*%
D16*
%TO.C,R35*%
X158060000Y-130957500D03*
X158060000Y-129937500D03*
%TD*%
D22*
%TO.C,FB2*%
X148844000Y-109757500D03*
X148844000Y-111882500D03*
%TD*%
D15*
%TO.C,D4*%
X170287500Y-118800000D03*
X168712500Y-118800000D03*
%TD*%
D18*
%TO.C,R21*%
X167500000Y-80550000D03*
X165850000Y-80550000D03*
%TD*%
D17*
%TO.C,R53*%
X136890000Y-71200000D03*
X137910000Y-71200000D03*
%TD*%
D23*
%TO.C,C25*%
X162580000Y-82580000D03*
X162580000Y-83540000D03*
%TD*%
D24*
%TO.C,FB1*%
X136162500Y-95312500D03*
X134037500Y-95312500D03*
%TD*%
D25*
%TO.C,C16*%
X139000000Y-94867500D03*
X139000000Y-93907500D03*
%TD*%
D19*
%TO.C,C18*%
X158980000Y-113450000D03*
X158020000Y-113450000D03*
%TD*%
D17*
%TO.C,R37*%
X168340000Y-117300000D03*
X169360000Y-117300000D03*
%TD*%
D19*
%TO.C,C3*%
X137680000Y-79250000D03*
X136720000Y-79250000D03*
%TD*%
D26*
%TO.C,R46*%
X158980000Y-89180000D03*
X157960000Y-89180000D03*
%TD*%
%TO.C,R17*%
X161520000Y-90830000D03*
X160500000Y-90830000D03*
%TD*%
D27*
%TO.C,U1*%
X140825000Y-84562500D03*
X140825000Y-85062500D03*
X140825000Y-85562500D03*
X140825000Y-86062500D03*
X140825000Y-86562500D03*
X140825000Y-87062500D03*
X140825000Y-87562500D03*
X140825000Y-88062500D03*
X140825000Y-88562500D03*
X140825000Y-89062500D03*
X140825000Y-89562500D03*
X140825000Y-90062500D03*
X140825000Y-90562500D03*
X140825000Y-91062500D03*
X140825000Y-91562500D03*
X140825000Y-92062500D03*
X140825000Y-92562500D03*
X140825000Y-93062500D03*
X140825000Y-93562500D03*
X140825000Y-94062500D03*
X140825000Y-94562500D03*
X140825000Y-95062500D03*
X140825000Y-95562500D03*
X140825000Y-96062500D03*
X140825000Y-96562500D03*
D28*
X142500000Y-98237500D03*
X143000000Y-98237500D03*
X143500000Y-98237500D03*
X144000000Y-98237500D03*
X144500000Y-98237500D03*
X145000000Y-98237500D03*
X145500000Y-98237500D03*
X146000000Y-98237500D03*
X146500000Y-98237500D03*
X147000000Y-98237500D03*
X147500000Y-98237500D03*
X148000000Y-98237500D03*
X148500000Y-98237500D03*
X149000000Y-98237500D03*
X149500000Y-98237500D03*
X150000000Y-98237500D03*
X150500000Y-98237500D03*
X151000000Y-98237500D03*
X151500000Y-98237500D03*
X152000000Y-98237500D03*
X152500000Y-98237500D03*
X153000000Y-98237500D03*
X153500000Y-98237500D03*
X154000000Y-98237500D03*
X154500000Y-98237500D03*
D27*
X156175000Y-96562500D03*
X156175000Y-96062500D03*
X156175000Y-95562500D03*
X156175000Y-95062500D03*
X156175000Y-94562500D03*
X156175000Y-94062500D03*
X156175000Y-93562500D03*
X156175000Y-93062500D03*
X156175000Y-92562500D03*
X156175000Y-92062500D03*
X156175000Y-91562500D03*
X156175000Y-91062500D03*
X156175000Y-90562500D03*
X156175000Y-90062500D03*
X156175000Y-89562500D03*
X156175000Y-89062500D03*
X156175000Y-88562500D03*
X156175000Y-88062500D03*
X156175000Y-87562500D03*
X156175000Y-87062500D03*
X156175000Y-86562500D03*
X156175000Y-86062500D03*
X156175000Y-85562500D03*
X156175000Y-85062500D03*
X156175000Y-84562500D03*
D28*
X154500000Y-82887500D03*
X154000000Y-82887500D03*
X153500000Y-82887500D03*
X153000000Y-82887500D03*
X152500000Y-82887500D03*
X152000000Y-82887500D03*
X151500000Y-82887500D03*
X151000000Y-82887500D03*
X150500000Y-82887500D03*
X150000000Y-82887500D03*
X149500000Y-82887500D03*
X149000000Y-82887500D03*
X148500000Y-82887500D03*
X148000000Y-82887500D03*
X147500000Y-82887500D03*
X147000000Y-82887500D03*
X146500000Y-82887500D03*
X146000000Y-82887500D03*
X145500000Y-82887500D03*
X145000000Y-82887500D03*
X144500000Y-82887500D03*
X144000000Y-82887500D03*
X143500000Y-82887500D03*
X143000000Y-82887500D03*
X142500000Y-82887500D03*
%TD*%
D15*
%TO.C,D5*%
X170337500Y-123700000D03*
X168762500Y-123700000D03*
%TD*%
D29*
%TO.C,C7*%
X140000000Y-82425000D03*
X140000000Y-80875000D03*
%TD*%
D26*
%TO.C,R39*%
X137010000Y-120200000D03*
X135990000Y-120200000D03*
%TD*%
D19*
%TO.C,C29*%
X135280000Y-96800000D03*
X134320000Y-96800000D03*
%TD*%
D26*
%TO.C,R27*%
X166960000Y-78412500D03*
X165940000Y-78412500D03*
%TD*%
D17*
%TO.C,R38*%
X168340000Y-122300000D03*
X169360000Y-122300000D03*
%TD*%
%TO.C,R33*%
X148040000Y-125262500D03*
X149060000Y-125262500D03*
%TD*%
%TO.C,R44*%
X139240000Y-107850000D03*
X140260000Y-107850000D03*
%TD*%
%TO.C,R1*%
X168590000Y-108500000D03*
X169610000Y-108500000D03*
%TD*%
D26*
%TO.C,R40*%
X136960000Y-130150000D03*
X135940000Y-130150000D03*
%TD*%
D30*
%TO.C,R42*%
X136275000Y-108000000D03*
X137925000Y-108000000D03*
%TD*%
D31*
%TO.C,J7*%
X164840000Y-90502500D03*
X164840000Y-89702500D03*
D32*
X164840000Y-88552500D03*
X164840000Y-87552500D03*
X164840000Y-87052500D03*
X164840000Y-86052500D03*
D31*
X164840000Y-84902500D03*
X164840000Y-84102500D03*
X164840000Y-84102500D03*
X164840000Y-84902500D03*
D32*
X164840000Y-85552500D03*
X164840000Y-86552500D03*
X164840000Y-88052500D03*
X164840000Y-89052500D03*
D31*
X164840000Y-89702500D03*
X164840000Y-90502500D03*
%TD*%
D26*
%TO.C,R30*%
X156310000Y-115550000D03*
X155290000Y-115550000D03*
%TD*%
D11*
%TO.C,R12*%
X154260000Y-118950000D03*
X154260000Y-119970000D03*
%TD*%
D23*
%TO.C,C12*%
X157850000Y-84007500D03*
X157850000Y-84967500D03*
%TD*%
D17*
%TO.C,R48*%
X134690000Y-69970000D03*
X135710000Y-69970000D03*
%TD*%
D26*
%TO.C,R8*%
X151260000Y-126650000D03*
X150240000Y-126650000D03*
%TD*%
D10*
%TO.C,Q7*%
X156122500Y-121987500D03*
X156122500Y-123887500D03*
X157997500Y-122937500D03*
%TD*%
D25*
%TO.C,C9*%
X138900000Y-86992500D03*
X138900000Y-86032500D03*
%TD*%
D12*
%TO.C,D3*%
X134312500Y-133700000D03*
X135887500Y-133700000D03*
%TD*%
D25*
%TO.C,C4*%
X135850000Y-77580000D03*
X135850000Y-76620000D03*
%TD*%
D17*
%TO.C,R49*%
X136890000Y-69970000D03*
X137910000Y-69970000D03*
%TD*%
D29*
%TO.C,C24*%
X137650000Y-95262500D03*
X137650000Y-93712500D03*
%TD*%
D11*
%TO.C,R16*%
X150280000Y-118890000D03*
X150280000Y-119910000D03*
%TD*%
D33*
%TO.C,U2*%
X161587500Y-87762500D03*
X161587500Y-86812500D03*
X161587500Y-85862500D03*
X159312500Y-85862500D03*
X159312500Y-86812500D03*
X159312500Y-87762500D03*
%TD*%
D34*
%TO.C,J10*%
X154795000Y-68562500D03*
X155895000Y-68562500D03*
X156995000Y-68562500D03*
X158095000Y-68562500D03*
X159195000Y-68562500D03*
X160295000Y-68562500D03*
X161395000Y-68562500D03*
X162495000Y-68562500D03*
D35*
X163620000Y-77787500D03*
D36*
X152395000Y-79362500D03*
D37*
X163945000Y-76287500D03*
D38*
X163695000Y-68687500D03*
D39*
X152345000Y-68687500D03*
D40*
X151995000Y-76937500D03*
%TD*%
D18*
%TO.C,R28*%
X153150000Y-105512500D03*
X151500000Y-105512500D03*
%TD*%
D30*
%TO.C,R20*%
X169075000Y-80550000D03*
X170725000Y-80550000D03*
%TD*%
D41*
%TO.C,C20*%
X136050000Y-114712500D03*
X137950000Y-114712500D03*
%TD*%
D17*
%TO.C,R4*%
X150190000Y-132950000D03*
X151210000Y-132950000D03*
%TD*%
D42*
%TO.C,Y1*%
X133975000Y-88962500D03*
X133975000Y-91162500D03*
X135675000Y-91162500D03*
X135675000Y-88962500D03*
%TD*%
D26*
%TO.C,R31*%
X156610000Y-120550000D03*
X155590000Y-120550000D03*
%TD*%
%TO.C,R36*%
X136960000Y-135200000D03*
X135940000Y-135200000D03*
%TD*%
D17*
%TO.C,R52*%
X134690000Y-71200000D03*
X135710000Y-71200000D03*
%TD*%
D26*
%TO.C,R41*%
X136960000Y-125200000D03*
X135940000Y-125200000D03*
%TD*%
D10*
%TO.C,Q6*%
X156122500Y-116987500D03*
X156122500Y-118887500D03*
X157997500Y-117937500D03*
%TD*%
D43*
%TO.C,C21*%
X156950000Y-109650000D03*
X156950000Y-111550000D03*
%TD*%
%TO.C,C23*%
X152500000Y-110048000D03*
X152500000Y-111948000D03*
%TD*%
D44*
%TO.C,L2*%
X138500000Y-111212500D03*
X135500000Y-111212500D03*
%TD*%
D41*
%TO.C,C17*%
X162750000Y-114300000D03*
X164650000Y-114300000D03*
%TD*%
D26*
%TO.C,R45*%
X161190000Y-89180000D03*
X160170000Y-89180000D03*
%TD*%
D45*
%TO.C,L1*%
X164900000Y-111912500D03*
X164900000Y-108912500D03*
%TD*%
D17*
%TO.C,R32*%
X148030000Y-120262500D03*
X149050000Y-120262500D03*
%TD*%
%TO.C,R7*%
X150240000Y-127950000D03*
X151260000Y-127950000D03*
%TD*%
D10*
%TO.C,Q4*%
X159775000Y-104612500D03*
X159775000Y-106512500D03*
X161650000Y-105562500D03*
%TD*%
D17*
%TO.C,R50*%
X134690000Y-72450000D03*
X135710000Y-72450000D03*
%TD*%
%TO.C,R55*%
X136890000Y-73700000D03*
X137910000Y-73700000D03*
%TD*%
D46*
%TO.C,U4*%
X140300000Y-72337500D03*
X140800000Y-72337500D03*
X141300000Y-72337500D03*
X141800000Y-72337500D03*
X142300000Y-72337500D03*
X142800000Y-72337500D03*
X143300000Y-72337500D03*
D47*
X143812500Y-73600000D03*
D46*
X143300000Y-74862500D03*
X142800000Y-74862500D03*
X142300000Y-74862500D03*
X141800000Y-74862500D03*
X141300000Y-74862500D03*
X140800000Y-74862500D03*
X140300000Y-74862500D03*
D47*
X139787500Y-73600000D03*
%TD*%
D16*
%TO.C,R10*%
X150270000Y-121990000D03*
X150270000Y-120970000D03*
%TD*%
D13*
%TO.C,Q5*%
X148537500Y-123912500D03*
X148537500Y-122012500D03*
X146662500Y-122962500D03*
%TD*%
D12*
%TO.C,D6*%
X134312500Y-118700000D03*
X135887500Y-118700000D03*
%TD*%
D17*
%TO.C,R5*%
X157990000Y-114600000D03*
X159010000Y-114600000D03*
%TD*%
D29*
%TO.C,C19*%
X144650000Y-111325000D03*
X144650000Y-109775000D03*
%TD*%
D48*
%TO.C,F1*%
X146660000Y-112887500D03*
X146660000Y-111012500D03*
%TD*%
D26*
%TO.C,R6*%
X151210000Y-131650000D03*
X150190000Y-131650000D03*
%TD*%
D17*
%TO.C,R29*%
X148080000Y-130262500D03*
X149100000Y-130262500D03*
%TD*%
D49*
%TO.C,U8*%
X161350000Y-108777500D03*
D50*
X161350000Y-109062500D03*
D49*
X160850000Y-108777500D03*
D50*
X160850000Y-109062500D03*
D49*
X160350000Y-108777500D03*
D50*
X160350000Y-109062500D03*
D49*
X159850000Y-108777500D03*
D50*
X159850000Y-109062500D03*
D49*
X159350000Y-108777500D03*
D50*
X159350000Y-109062500D03*
X159350000Y-112012500D03*
D49*
X159350000Y-112297500D03*
D50*
X159850000Y-112012500D03*
D49*
X159850000Y-112297500D03*
D50*
X160350000Y-112012500D03*
D49*
X160350000Y-112297500D03*
D50*
X160850000Y-112012500D03*
D49*
X160850000Y-112297500D03*
D50*
X161350000Y-112012500D03*
D49*
X161350000Y-112297500D03*
D51*
X160985000Y-110087500D03*
X159715000Y-110087500D03*
D52*
X161980000Y-110287500D03*
X158720000Y-110287500D03*
X161980000Y-110787500D03*
X158720000Y-110787500D03*
D51*
X160985000Y-110987500D03*
X159715000Y-110987500D03*
%TD*%
D11*
%TO.C,R11*%
X154260000Y-116740000D03*
X154260000Y-117760000D03*
%TD*%
D53*
%TO.C,U5*%
X137757500Y-77925000D03*
X138257500Y-77925000D03*
D54*
X138770000Y-77662500D03*
X138770000Y-77162500D03*
X138770000Y-76662500D03*
D53*
X138257500Y-76400000D03*
X137757500Y-76400000D03*
D54*
X137245000Y-76662500D03*
X137245000Y-77162500D03*
X137245000Y-77662500D03*
%TD*%
D20*
%TO.C,C28*%
X149750000Y-67075000D03*
X149750000Y-68625000D03*
%TD*%
D17*
%TO.C,R51*%
X136890000Y-72450000D03*
X137910000Y-72450000D03*
%TD*%
D13*
%TO.C,Q3*%
X148537500Y-128912500D03*
X148537500Y-127012500D03*
X146662500Y-127962500D03*
%TD*%
D15*
%TO.C,D1*%
X161787500Y-92250000D03*
X160212500Y-92250000D03*
%TD*%
D19*
%TO.C,C13*%
X154755000Y-100000000D03*
X153795000Y-100000000D03*
%TD*%
D55*
%TO.C,U3*%
X147750000Y-75012500D03*
X147750000Y-74212500D03*
X147750000Y-73412500D03*
X147750000Y-72612500D03*
X147750000Y-71812500D03*
X147750000Y-71012500D03*
D56*
X146652500Y-70915000D03*
D55*
X145555000Y-71012500D03*
X145555000Y-71812500D03*
X145555000Y-72612500D03*
X145555000Y-73412500D03*
X145555000Y-74212500D03*
X145555000Y-75012500D03*
D56*
X146652500Y-75110000D03*
%TD*%
D12*
%TO.C,D7*%
X134312500Y-128650000D03*
X135887500Y-128650000D03*
%TD*%
D57*
%TO.C,U7*%
X135395000Y-105600000D03*
X136665000Y-105600000D03*
X137935000Y-105600000D03*
X139205000Y-105600000D03*
X139205000Y-98400000D03*
X137935000Y-98400000D03*
X136665000Y-98400000D03*
X135395000Y-98400000D03*
%TD*%
D25*
%TO.C,C2*%
X149500000Y-75142500D03*
X149500000Y-74182500D03*
%TD*%
D11*
%TO.C,R26*%
X165750000Y-68490000D03*
X165750000Y-69510000D03*
%TD*%
D43*
%TO.C,C22*%
X154700000Y-109650000D03*
X154700000Y-111550000D03*
%TD*%
D26*
%TO.C,R24*%
X161640000Y-97007500D03*
X160620000Y-97007500D03*
%TD*%
D21*
%TO.C,C6*%
X134370000Y-87362500D03*
X135330000Y-87362500D03*
%TD*%
D17*
%TO.C,R54*%
X134690000Y-73700000D03*
X135710000Y-73700000D03*
%TD*%
D19*
%TO.C,C5*%
X142380000Y-76000000D03*
X141420000Y-76000000D03*
%TD*%
D17*
%TO.C,R34*%
X148040000Y-135262500D03*
X149060000Y-135262500D03*
%TD*%
%TO.C,R43*%
X141340000Y-107850000D03*
X142360000Y-107850000D03*
%TD*%
D25*
%TO.C,C11*%
X141350000Y-82280000D03*
X141350000Y-81320000D03*
%TD*%
D16*
%TO.C,R25*%
X158060000Y-133110000D03*
X158060000Y-132090000D03*
%TD*%
D33*
%TO.C,U9*%
X142787500Y-111300000D03*
X142787500Y-110350000D03*
X142787500Y-109400000D03*
X140512500Y-109400000D03*
X140512500Y-111300000D03*
%TD*%
D25*
%TO.C,C14*%
X138950000Y-89417500D03*
X138950000Y-88457500D03*
%TD*%
D58*
%TO.C,D15*%
X144450000Y-113450000D03*
X141150000Y-113450000D03*
%TD*%
D13*
%TO.C,Q8*%
X148537500Y-118912500D03*
X148537500Y-117012500D03*
X146662500Y-117962500D03*
%TD*%
M02*
