%TF.GenerationSoftware,KiCad,Pcbnew,7.0.2-0*%
%TF.CreationDate,2023-10-14T20:17:31-05:00*%
%TF.ProjectId,Flight Computer,466c6967-6874-4204-936f-6d7075746572,1.1*%
%TF.SameCoordinates,Original*%
%TF.FileFunction,Legend,Top*%
%TF.FilePolarity,Positive*%
%FSLAX46Y46*%
G04 Gerber Fmt 4.6, Leading zero omitted, Abs format (unit mm)*
G04 Created by KiCad (PCBNEW 7.0.2-0) date 2023-10-14 20:17:31*
%MOMM*%
%LPD*%
G01*
G04 APERTURE LIST*
G04 Aperture macros list*
%AMRoundRect*
0 Rectangle with rounded corners*
0 $1 Rounding radius*
0 $2 $3 $4 $5 $6 $7 $8 $9 X,Y pos of 4 corners*
0 Add a 4 corners polygon primitive as box body*
4,1,4,$2,$3,$4,$5,$6,$7,$8,$9,$2,$3,0*
0 Add four circle primitives for the rounded corners*
1,1,$1+$1,$2,$3*
1,1,$1+$1,$4,$5*
1,1,$1+$1,$6,$7*
1,1,$1+$1,$8,$9*
0 Add four rect primitives between the rounded corners*
20,1,$1+$1,$2,$3,$4,$5,0*
20,1,$1+$1,$4,$5,$6,$7,0*
20,1,$1+$1,$6,$7,$8,$9,0*
20,1,$1+$1,$8,$9,$2,$3,0*%
G04 Aperture macros list end*
%ADD10C,0.150000*%
%ADD11C,0.153000*%
%ADD12C,0.200000*%
%ADD13C,0.120000*%
%ADD14C,0.100000*%
%ADD15RoundRect,0.150000X-0.587500X-0.150000X0.587500X-0.150000X0.587500X0.150000X-0.587500X0.150000X0*%
%ADD16RoundRect,0.135000X-0.185000X0.135000X-0.185000X-0.135000X0.185000X-0.135000X0.185000X0.135000X0*%
%ADD17RoundRect,0.218750X-0.218750X-0.256250X0.218750X-0.256250X0.218750X0.256250X-0.218750X0.256250X0*%
%ADD18RoundRect,0.150000X0.587500X0.150000X-0.587500X0.150000X-0.587500X-0.150000X0.587500X-0.150000X0*%
%ADD19RoundRect,0.200000X-0.275000X0.200000X-0.275000X-0.200000X0.275000X-0.200000X0.275000X0.200000X0*%
%ADD20RoundRect,0.218750X0.218750X0.256250X-0.218750X0.256250X-0.218750X-0.256250X0.218750X-0.256250X0*%
%ADD21RoundRect,0.135000X0.185000X-0.135000X0.185000X0.135000X-0.185000X0.135000X-0.185000X-0.135000X0*%
%ADD22RoundRect,0.135000X-0.135000X-0.185000X0.135000X-0.185000X0.135000X0.185000X-0.135000X0.185000X0*%
%ADD23RoundRect,0.200000X0.200000X0.275000X-0.200000X0.275000X-0.200000X-0.275000X0.200000X-0.275000X0*%
%ADD24RoundRect,0.140000X0.140000X0.170000X-0.140000X0.170000X-0.140000X-0.170000X0.140000X-0.170000X0*%
%ADD25RoundRect,0.225000X-0.250000X0.225000X-0.250000X-0.225000X0.250000X-0.225000X0.250000X0.225000X0*%
%ADD26RoundRect,0.140000X-0.140000X-0.170000X0.140000X-0.170000X0.140000X0.170000X-0.140000X0.170000X0*%
%ADD27RoundRect,0.218750X-0.381250X0.218750X-0.381250X-0.218750X0.381250X-0.218750X0.381250X0.218750X0*%
%ADD28RoundRect,0.140000X-0.170000X0.140000X-0.170000X-0.140000X0.170000X-0.140000X0.170000X0.140000X0*%
%ADD29RoundRect,0.218750X0.218750X0.381250X-0.218750X0.381250X-0.218750X-0.381250X0.218750X-0.381250X0*%
%ADD30RoundRect,0.200000X0.450000X-0.200000X0.450000X0.200000X-0.450000X0.200000X-0.450000X-0.200000X0*%
%ADD31O,1.300000X0.800000*%
%ADD32RoundRect,0.140000X0.170000X-0.140000X0.170000X0.140000X-0.170000X0.140000X-0.170000X-0.140000X0*%
%ADD33RoundRect,0.135000X0.135000X0.185000X-0.135000X0.185000X-0.135000X-0.185000X0.135000X-0.185000X0*%
%ADD34RoundRect,0.075000X-0.725000X-0.075000X0.725000X-0.075000X0.725000X0.075000X-0.725000X0.075000X0*%
%ADD35RoundRect,0.075000X-0.075000X-0.725000X0.075000X-0.725000X0.075000X0.725000X-0.075000X0.725000X0*%
%ADD36RoundRect,0.225000X0.250000X-0.225000X0.250000X0.225000X-0.250000X0.225000X-0.250000X-0.225000X0*%
%ADD37RoundRect,0.200000X-0.200000X-0.275000X0.200000X-0.275000X0.200000X0.275000X-0.200000X0.275000X0*%
%ADD38C,0.650000*%
%ADD39R,1.240000X0.600000*%
%ADD40R,1.240000X0.300000*%
%ADD41O,2.100000X1.000000*%
%ADD42O,1.800000X1.000000*%
%ADD43RoundRect,0.150000X0.512500X0.150000X-0.512500X0.150000X-0.512500X-0.150000X0.512500X-0.150000X0*%
%ADD44R,0.700000X1.750000*%
%ADD45R,1.450000X1.000000*%
%ADD46R,1.000000X1.550000*%
%ADD47R,0.800000X1.500000*%
%ADD48R,1.300000X1.500000*%
%ADD49R,1.500000X1.500000*%
%ADD50R,0.800000X1.400000*%
%ADD51RoundRect,0.250000X-0.250000X-0.475000X0.250000X-0.475000X0.250000X0.475000X-0.250000X0.475000X0*%
%ADD52R,1.200000X1.400000*%
%ADD53RoundRect,0.250000X-0.475000X0.250000X-0.475000X-0.250000X0.475000X-0.250000X0.475000X0.250000X0*%
%ADD54R,1.100000X3.700000*%
%ADD55R,3.700000X1.100000*%
%ADD56RoundRect,0.012500X0.112500X-0.325000X0.112500X0.325000X-0.112500X0.325000X-0.112500X-0.325000X0*%
%ADD57RoundRect,0.012500X0.325000X-0.112500X0.325000X0.112500X-0.325000X0.112500X-0.325000X-0.112500X0*%
%ADD58RoundRect,0.243750X0.456250X-0.243750X0.456250X0.243750X-0.456250X0.243750X-0.456250X-0.243750X0*%
%ADD59RoundRect,0.070000X-0.140000X0.140000X-0.140000X-0.140000X0.140000X-0.140000X0.140000X0.140000X0*%
%ADD60O,0.420000X0.990000*%
%ADD61C,0.600000*%
%ADD62R,1.050000X0.680000*%
%ADD63R,0.500000X0.260000*%
%ADD64R,0.700000X0.280000*%
%ADD65R,2.400000X1.650000*%
%ADD66RoundRect,0.012500X0.112500X0.125000X-0.112500X0.125000X-0.112500X-0.125000X0.112500X-0.125000X0*%
%ADD67RoundRect,0.012500X0.125000X0.112500X-0.125000X0.112500X-0.125000X-0.112500X0.125000X-0.112500X0*%
%ADD68RoundRect,0.027500X0.545000X0.247500X-0.545000X0.247500X-0.545000X-0.247500X0.545000X-0.247500X0*%
%ADD69RoundRect,0.027500X0.247500X0.545000X-0.247500X0.545000X-0.247500X-0.545000X0.247500X-0.545000X0*%
%ADD70RoundRect,0.150000X0.150000X-0.650000X0.150000X0.650000X-0.150000X0.650000X-0.150000X-0.650000X0*%
%ADD71RoundRect,0.225000X0.225000X0.375000X-0.225000X0.375000X-0.225000X-0.375000X0.225000X-0.375000X0*%
%ADD72RoundRect,0.250000X0.350000X0.625000X-0.350000X0.625000X-0.350000X-0.625000X0.350000X-0.625000X0*%
%ADD73O,1.200000X1.750000*%
%ADD74C,1.600000*%
%ADD75C,1.524000*%
%ADD76R,2.000000X2.000000*%
%ADD77C,2.000000*%
%ADD78R,1.700000X1.700000*%
%ADD79O,1.700000X1.700000*%
G04 APERTURE END LIST*
D10*
X139340000Y-71600000D02*
G75*
G03*
X139340000Y-71600000I-50000J0D01*
G01*
X137286056Y-78430000D02*
G75*
G03*
X137286056Y-78430000I-36056J0D01*
G01*
X148730623Y-75940000D02*
G75*
G03*
X148730623Y-75940000I-80623J0D01*
G01*
X140026158Y-83540000D02*
G75*
G03*
X140026158Y-83540000I-76158J0D01*
G01*
X133312111Y-87670000D02*
G75*
G03*
X133312111Y-87670000I-72111J0D01*
G01*
X162522111Y-108160000D02*
G75*
G03*
X162522111Y-108160000I-72111J0D01*
G01*
X162830623Y-88230000D02*
G75*
G03*
X162830623Y-88230000I-80623J0D01*
G01*
D11*
X139628095Y-113466666D02*
X140390000Y-113466666D01*
X140009047Y-113847619D02*
X140009047Y-113085714D01*
X143823809Y-90627619D02*
X143823809Y-91341904D01*
X143823809Y-91341904D02*
X143776190Y-91484761D01*
X143776190Y-91484761D02*
X143680952Y-91580000D01*
X143680952Y-91580000D02*
X143538095Y-91627619D01*
X143538095Y-91627619D02*
X143442857Y-91627619D01*
X144776190Y-91627619D02*
X144300000Y-91627619D01*
X144300000Y-91627619D02*
X144300000Y-90627619D01*
X145680952Y-91532380D02*
X145633333Y-91580000D01*
X145633333Y-91580000D02*
X145490476Y-91627619D01*
X145490476Y-91627619D02*
X145395238Y-91627619D01*
X145395238Y-91627619D02*
X145252381Y-91580000D01*
X145252381Y-91580000D02*
X145157143Y-91484761D01*
X145157143Y-91484761D02*
X145109524Y-91389523D01*
X145109524Y-91389523D02*
X145061905Y-91199047D01*
X145061905Y-91199047D02*
X145061905Y-91056190D01*
X145061905Y-91056190D02*
X145109524Y-90865714D01*
X145109524Y-90865714D02*
X145157143Y-90770476D01*
X145157143Y-90770476D02*
X145252381Y-90675238D01*
X145252381Y-90675238D02*
X145395238Y-90627619D01*
X145395238Y-90627619D02*
X145490476Y-90627619D01*
X145490476Y-90627619D02*
X145633333Y-90675238D01*
X145633333Y-90675238D02*
X145680952Y-90722857D01*
X146395238Y-90627619D02*
X146395238Y-91341904D01*
X146395238Y-91341904D02*
X146347619Y-91484761D01*
X146347619Y-91484761D02*
X146252381Y-91580000D01*
X146252381Y-91580000D02*
X146109524Y-91627619D01*
X146109524Y-91627619D02*
X146014286Y-91627619D01*
X147347619Y-91627619D02*
X146871429Y-91627619D01*
X146871429Y-91627619D02*
X146871429Y-90627619D01*
X148252381Y-91532380D02*
X148204762Y-91580000D01*
X148204762Y-91580000D02*
X148061905Y-91627619D01*
X148061905Y-91627619D02*
X147966667Y-91627619D01*
X147966667Y-91627619D02*
X147823810Y-91580000D01*
X147823810Y-91580000D02*
X147728572Y-91484761D01*
X147728572Y-91484761D02*
X147680953Y-91389523D01*
X147680953Y-91389523D02*
X147633334Y-91199047D01*
X147633334Y-91199047D02*
X147633334Y-91056190D01*
X147633334Y-91056190D02*
X147680953Y-90865714D01*
X147680953Y-90865714D02*
X147728572Y-90770476D01*
X147728572Y-90770476D02*
X147823810Y-90675238D01*
X147823810Y-90675238D02*
X147966667Y-90627619D01*
X147966667Y-90627619D02*
X148061905Y-90627619D01*
X148061905Y-90627619D02*
X148204762Y-90675238D01*
X148204762Y-90675238D02*
X148252381Y-90722857D01*
X148966667Y-90627619D02*
X148966667Y-91341904D01*
X148966667Y-91341904D02*
X148919048Y-91484761D01*
X148919048Y-91484761D02*
X148823810Y-91580000D01*
X148823810Y-91580000D02*
X148680953Y-91627619D01*
X148680953Y-91627619D02*
X148585715Y-91627619D01*
X149919048Y-91627619D02*
X149442858Y-91627619D01*
X149442858Y-91627619D02*
X149442858Y-90627619D01*
X150823810Y-91532380D02*
X150776191Y-91580000D01*
X150776191Y-91580000D02*
X150633334Y-91627619D01*
X150633334Y-91627619D02*
X150538096Y-91627619D01*
X150538096Y-91627619D02*
X150395239Y-91580000D01*
X150395239Y-91580000D02*
X150300001Y-91484761D01*
X150300001Y-91484761D02*
X150252382Y-91389523D01*
X150252382Y-91389523D02*
X150204763Y-91199047D01*
X150204763Y-91199047D02*
X150204763Y-91056190D01*
X150204763Y-91056190D02*
X150252382Y-90865714D01*
X150252382Y-90865714D02*
X150300001Y-90770476D01*
X150300001Y-90770476D02*
X150395239Y-90675238D01*
X150395239Y-90675238D02*
X150538096Y-90627619D01*
X150538096Y-90627619D02*
X150633334Y-90627619D01*
X150633334Y-90627619D02*
X150776191Y-90675238D01*
X150776191Y-90675238D02*
X150823810Y-90722857D01*
X151538096Y-90627619D02*
X151538096Y-91341904D01*
X151538096Y-91341904D02*
X151490477Y-91484761D01*
X151490477Y-91484761D02*
X151395239Y-91580000D01*
X151395239Y-91580000D02*
X151252382Y-91627619D01*
X151252382Y-91627619D02*
X151157144Y-91627619D01*
X152490477Y-91627619D02*
X152014287Y-91627619D01*
X152014287Y-91627619D02*
X152014287Y-90627619D01*
X153395239Y-91532380D02*
X153347620Y-91580000D01*
X153347620Y-91580000D02*
X153204763Y-91627619D01*
X153204763Y-91627619D02*
X153109525Y-91627619D01*
X153109525Y-91627619D02*
X152966668Y-91580000D01*
X152966668Y-91580000D02*
X152871430Y-91484761D01*
X152871430Y-91484761D02*
X152823811Y-91389523D01*
X152823811Y-91389523D02*
X152776192Y-91199047D01*
X152776192Y-91199047D02*
X152776192Y-91056190D01*
X152776192Y-91056190D02*
X152823811Y-90865714D01*
X152823811Y-90865714D02*
X152871430Y-90770476D01*
X152871430Y-90770476D02*
X152966668Y-90675238D01*
X152966668Y-90675238D02*
X153109525Y-90627619D01*
X153109525Y-90627619D02*
X153204763Y-90627619D01*
X153204763Y-90627619D02*
X153347620Y-90675238D01*
X153347620Y-90675238D02*
X153395239Y-90722857D01*
D12*
X157340476Y-141180000D02*
X157483333Y-141227619D01*
X157483333Y-141227619D02*
X157721428Y-141227619D01*
X157721428Y-141227619D02*
X157816666Y-141180000D01*
X157816666Y-141180000D02*
X157864285Y-141132380D01*
X157864285Y-141132380D02*
X157911904Y-141037142D01*
X157911904Y-141037142D02*
X157911904Y-140941904D01*
X157911904Y-140941904D02*
X157864285Y-140846666D01*
X157864285Y-140846666D02*
X157816666Y-140799047D01*
X157816666Y-140799047D02*
X157721428Y-140751428D01*
X157721428Y-140751428D02*
X157530952Y-140703809D01*
X157530952Y-140703809D02*
X157435714Y-140656190D01*
X157435714Y-140656190D02*
X157388095Y-140608571D01*
X157388095Y-140608571D02*
X157340476Y-140513333D01*
X157340476Y-140513333D02*
X157340476Y-140418095D01*
X157340476Y-140418095D02*
X157388095Y-140322857D01*
X157388095Y-140322857D02*
X157435714Y-140275238D01*
X157435714Y-140275238D02*
X157530952Y-140227619D01*
X157530952Y-140227619D02*
X157769047Y-140227619D01*
X157769047Y-140227619D02*
X157911904Y-140275238D01*
X158197619Y-140227619D02*
X158769047Y-140227619D01*
X158483333Y-141227619D02*
X158483333Y-140227619D01*
X159673809Y-141227619D02*
X159340476Y-140751428D01*
X159102381Y-141227619D02*
X159102381Y-140227619D01*
X159102381Y-140227619D02*
X159483333Y-140227619D01*
X159483333Y-140227619D02*
X159578571Y-140275238D01*
X159578571Y-140275238D02*
X159626190Y-140322857D01*
X159626190Y-140322857D02*
X159673809Y-140418095D01*
X159673809Y-140418095D02*
X159673809Y-140560952D01*
X159673809Y-140560952D02*
X159626190Y-140656190D01*
X159626190Y-140656190D02*
X159578571Y-140703809D01*
X159578571Y-140703809D02*
X159483333Y-140751428D01*
X159483333Y-140751428D02*
X159102381Y-140751428D01*
X160102381Y-141227619D02*
X160102381Y-140227619D01*
X160483333Y-140227619D02*
X161149999Y-141227619D01*
X161149999Y-140227619D02*
X160483333Y-141227619D01*
X162197619Y-140560952D02*
X162435714Y-141227619D01*
X162435714Y-141227619D02*
X162673809Y-140560952D01*
X163578571Y-141227619D02*
X163007143Y-141227619D01*
X163292857Y-141227619D02*
X163292857Y-140227619D01*
X163292857Y-140227619D02*
X163197619Y-140370476D01*
X163197619Y-140370476D02*
X163102381Y-140465714D01*
X163102381Y-140465714D02*
X163007143Y-140513333D01*
X164007143Y-141132380D02*
X164054762Y-141180000D01*
X164054762Y-141180000D02*
X164007143Y-141227619D01*
X164007143Y-141227619D02*
X163959524Y-141180000D01*
X163959524Y-141180000D02*
X164007143Y-141132380D01*
X164007143Y-141132380D02*
X164007143Y-141227619D01*
X165007142Y-141227619D02*
X164435714Y-141227619D01*
X164721428Y-141227619D02*
X164721428Y-140227619D01*
X164721428Y-140227619D02*
X164626190Y-140370476D01*
X164626190Y-140370476D02*
X164530952Y-140465714D01*
X164530952Y-140465714D02*
X164435714Y-140513333D01*
D13*
%TO.C,Q9*%
X169300000Y-109387500D02*
X167625000Y-109387500D01*
X169300000Y-109387500D02*
X169950000Y-109387500D01*
X169300000Y-112507500D02*
X168650000Y-112507500D01*
X169300000Y-112507500D02*
X169950000Y-112507500D01*
%TO.C,R3*%
X138330000Y-81446359D02*
X138330000Y-81753641D01*
X137570000Y-81446359D02*
X137570000Y-81753641D01*
%TO.C,D8*%
X133615000Y-122965000D02*
X133615000Y-124435000D01*
X133615000Y-124435000D02*
X135900000Y-124435000D01*
X135900000Y-122965000D02*
X133615000Y-122965000D01*
%TO.C,Q2*%
X147600000Y-134522500D02*
X149275000Y-134522500D01*
X147600000Y-134522500D02*
X146950000Y-134522500D01*
X147600000Y-131402500D02*
X148250000Y-131402500D01*
X147600000Y-131402500D02*
X146950000Y-131402500D01*
%TO.C,R18*%
X161672500Y-101425242D02*
X161672500Y-101899758D01*
X160627500Y-101425242D02*
X160627500Y-101899758D01*
%TO.C,R14*%
X154630000Y-124496359D02*
X154630000Y-124803641D01*
X153870000Y-124496359D02*
X153870000Y-124803641D01*
%TO.C,Q1*%
X158300000Y-103222500D02*
X159975000Y-103222500D01*
X158300000Y-103222500D02*
X157650000Y-103222500D01*
X158300000Y-100102500D02*
X158950000Y-100102500D01*
X158300000Y-100102500D02*
X157650000Y-100102500D01*
%TO.C,D2*%
X162485000Y-99097500D02*
X162485000Y-97627500D01*
X162485000Y-97627500D02*
X160200000Y-97627500D01*
X160200000Y-99097500D02*
X162485000Y-99097500D01*
%TO.C,R13*%
X154630000Y-122196359D02*
X154630000Y-122503641D01*
X153870000Y-122196359D02*
X153870000Y-122503641D01*
%TO.C,R9*%
X149890000Y-123723641D02*
X149890000Y-123416359D01*
X150650000Y-123723641D02*
X150650000Y-123416359D01*
%TO.C,R19*%
X165246359Y-92782500D02*
X165553641Y-92782500D01*
X165246359Y-93542500D02*
X165553641Y-93542500D01*
%TO.C,R2*%
X138387258Y-91610000D02*
X137912742Y-91610000D01*
X138387258Y-90565000D02*
X137912742Y-90565000D01*
%TO.C,C10*%
X134907836Y-93122500D02*
X134692164Y-93122500D01*
X134907836Y-92402500D02*
X134692164Y-92402500D01*
%TO.C,R22*%
X160376359Y-114220000D02*
X160683641Y-114220000D01*
X160376359Y-114980000D02*
X160683641Y-114980000D01*
%TO.C,C1*%
X150210000Y-71109420D02*
X150210000Y-71390580D01*
X149190000Y-71109420D02*
X149190000Y-71390580D01*
%TO.C,R23*%
X156720000Y-107666141D02*
X156720000Y-107358859D01*
X157480000Y-107666141D02*
X157480000Y-107358859D01*
%TO.C,C8*%
X141192164Y-70490000D02*
X141407836Y-70490000D01*
X141192164Y-71210000D02*
X141407836Y-71210000D01*
%TO.C,C15*%
X143357836Y-100410000D02*
X143142164Y-100410000D01*
X143357836Y-99690000D02*
X143142164Y-99690000D01*
%TO.C,R15*%
X150660000Y-117146359D02*
X150660000Y-117453641D01*
X149900000Y-117146359D02*
X149900000Y-117453641D01*
%TO.C,R35*%
X157680000Y-130601141D02*
X157680000Y-130293859D01*
X158440000Y-130601141D02*
X158440000Y-130293859D01*
%TO.C,FB2*%
X149404000Y-110420378D02*
X149404000Y-111219622D01*
X148284000Y-110420378D02*
X148284000Y-111219622D01*
%TO.C,D4*%
X170985000Y-119535000D02*
X170985000Y-118065000D01*
X170985000Y-118065000D02*
X168700000Y-118065000D01*
X168700000Y-119535000D02*
X170985000Y-119535000D01*
%TO.C,R21*%
X166912258Y-81072500D02*
X166437742Y-81072500D01*
X166912258Y-80027500D02*
X166437742Y-80027500D01*
%TO.C,R53*%
X137246359Y-70820000D02*
X137553641Y-70820000D01*
X137246359Y-71580000D02*
X137553641Y-71580000D01*
%TO.C,C25*%
X162940000Y-82952164D02*
X162940000Y-83167836D01*
X162220000Y-82952164D02*
X162220000Y-83167836D01*
%TO.C,FB1*%
X135499622Y-95872500D02*
X134700378Y-95872500D01*
X135499622Y-94752500D02*
X134700378Y-94752500D01*
%TO.C,J8*%
X165940000Y-104785000D02*
X171660000Y-104785000D01*
X171660000Y-104785000D02*
X171660000Y-101300000D01*
X165940000Y-103715000D02*
X165940000Y-104785000D01*
X166240000Y-103715000D02*
X165940000Y-103715000D01*
X165650000Y-103425000D02*
X165650000Y-103925000D01*
X165950000Y-103425000D02*
X165650000Y-103425000D01*
X166240000Y-101300000D02*
X166240000Y-103715000D01*
X166240000Y-101300000D02*
X166240000Y-98885000D01*
X165940000Y-98885000D02*
X165940000Y-97815000D01*
X166240000Y-98885000D02*
X165940000Y-98885000D01*
X165940000Y-97815000D02*
X171660000Y-97815000D01*
X171660000Y-97815000D02*
X171660000Y-101300000D01*
%TO.C,C16*%
X138640000Y-94495336D02*
X138640000Y-94279664D01*
X139360000Y-94495336D02*
X139360000Y-94279664D01*
%TO.C,C18*%
X158607836Y-113810000D02*
X158392164Y-113810000D01*
X158607836Y-113090000D02*
X158392164Y-113090000D01*
%TO.C,R37*%
X168696359Y-116920000D02*
X169003641Y-116920000D01*
X168696359Y-117680000D02*
X169003641Y-117680000D01*
%TO.C,C3*%
X137307836Y-79610000D02*
X137092164Y-79610000D01*
X137307836Y-78890000D02*
X137092164Y-78890000D01*
%TO.C,R46*%
X158623641Y-89560000D02*
X158316359Y-89560000D01*
X158623641Y-88800000D02*
X158316359Y-88800000D01*
%TO.C,G\u002A\u002A\u002A*%
G36*
X142290498Y-137562166D02*
G01*
X142318261Y-137582504D01*
X142354308Y-137612553D01*
X142395083Y-137649149D01*
X142437031Y-137689127D01*
X142476595Y-137729325D01*
X142501913Y-137756972D01*
X142608329Y-137893753D01*
X142694844Y-138039760D01*
X142761608Y-138195405D01*
X142808767Y-138361101D01*
X142836470Y-138537258D01*
X142844901Y-138712134D01*
X142837229Y-138892980D01*
X142813708Y-139072259D01*
X142773582Y-139253510D01*
X142716096Y-139440271D01*
X142655194Y-139600694D01*
X142628062Y-139666246D01*
X142607140Y-139713956D01*
X142590528Y-139746680D01*
X142576325Y-139767278D01*
X142562631Y-139778606D01*
X142547546Y-139783521D01*
X142532778Y-139784773D01*
X142496677Y-139784020D01*
X142454747Y-139780452D01*
X142445062Y-139779215D01*
X142395376Y-139772297D01*
X142358748Y-139683369D01*
X142297713Y-139547573D01*
X142233683Y-139428766D01*
X142167887Y-139329143D01*
X142142147Y-139296128D01*
X142116253Y-139264598D01*
X142044275Y-139289072D01*
X141978996Y-139305178D01*
X141906306Y-139313325D01*
X141834777Y-139313152D01*
X141772984Y-139304297D01*
X141761094Y-139301008D01*
X141660556Y-139259724D01*
X141574800Y-139203785D01*
X141505003Y-139135007D01*
X141452342Y-139055206D01*
X141417996Y-138966196D01*
X141403141Y-138869794D01*
X141403340Y-138866295D01*
X141590551Y-138866295D01*
X141591622Y-138875886D01*
X141611935Y-138948183D01*
X141650328Y-139011582D01*
X141703477Y-139063193D01*
X141768057Y-139100126D01*
X141840744Y-139119490D01*
X141874377Y-139121700D01*
X141911397Y-139120392D01*
X141938684Y-139116676D01*
X141949270Y-139112184D01*
X141944742Y-139099792D01*
X141925513Y-139077108D01*
X141894668Y-139047177D01*
X141855293Y-139013047D01*
X141822111Y-138986597D01*
X141795132Y-138965794D01*
X141757474Y-138936675D01*
X141716014Y-138904559D01*
X141703547Y-138894890D01*
X141656015Y-138859652D01*
X141622749Y-138839478D01*
X141601948Y-138834065D01*
X141591815Y-138843105D01*
X141590551Y-138866295D01*
X141403340Y-138866295D01*
X141408954Y-138767815D01*
X141410261Y-138759965D01*
X141423169Y-138685839D01*
X141296304Y-138562110D01*
X141218081Y-138483853D01*
X141153130Y-138413841D01*
X141097141Y-138346717D01*
X141045799Y-138277123D01*
X140994792Y-138199704D01*
X140963220Y-138148371D01*
X140933596Y-138096683D01*
X140909934Y-138052059D01*
X141136005Y-138052059D01*
X141148838Y-138081106D01*
X141173214Y-138121005D01*
X141207188Y-138169181D01*
X141248815Y-138223060D01*
X141296149Y-138280066D01*
X141347243Y-138337627D01*
X141400153Y-138393166D01*
X141424387Y-138417154D01*
X141459569Y-138450770D01*
X141494612Y-138483015D01*
X141531824Y-138515774D01*
X141573516Y-138550933D01*
X141621997Y-138590377D01*
X141679576Y-138635992D01*
X141748562Y-138689663D01*
X141831265Y-138753277D01*
X141906460Y-138810765D01*
X142047644Y-138925254D01*
X142168911Y-139038482D01*
X142272303Y-139152684D01*
X142359857Y-139270098D01*
X142427977Y-139382516D01*
X142455367Y-139429535D01*
X142476854Y-139459648D01*
X142491247Y-139471249D01*
X142493575Y-139471078D01*
X142502440Y-139458873D01*
X142515843Y-139429791D01*
X142531934Y-139388248D01*
X142548094Y-139341039D01*
X142569709Y-139272127D01*
X142587776Y-139209373D01*
X142604232Y-139145348D01*
X142621010Y-139072619D01*
X142635518Y-139005295D01*
X142642297Y-138958385D01*
X142647062Y-138894916D01*
X142649853Y-138819964D01*
X142650714Y-138738601D01*
X142649685Y-138655903D01*
X142646809Y-138576945D01*
X142642127Y-138506801D01*
X142635682Y-138450546D01*
X142630724Y-138424476D01*
X142606876Y-138335260D01*
X142581770Y-138258171D01*
X142556453Y-138195869D01*
X142531973Y-138151016D01*
X142515064Y-138130669D01*
X142487230Y-138113888D01*
X142441920Y-138095865D01*
X142383728Y-138078015D01*
X142317249Y-138061756D01*
X142250197Y-138049008D01*
X142087770Y-138033497D01*
X141917114Y-138038479D01*
X141738125Y-138063962D01*
X141550704Y-138109957D01*
X141524379Y-138117852D01*
X141473952Y-138131922D01*
X141432599Y-138138773D01*
X141394593Y-138137628D01*
X141354209Y-138127709D01*
X141305720Y-138108237D01*
X141246829Y-138080130D01*
X141203471Y-138059678D01*
X141167652Y-138044607D01*
X141143851Y-138036694D01*
X141136662Y-138036438D01*
X141136005Y-138052059D01*
X140909934Y-138052059D01*
X140902533Y-138038101D01*
X140871879Y-137976624D01*
X140843479Y-137916248D01*
X140819180Y-137860974D01*
X140800829Y-137814799D01*
X140790272Y-137781721D01*
X140788446Y-137769920D01*
X140797092Y-137757414D01*
X140819288Y-137737647D01*
X140849423Y-137714627D01*
X140881885Y-137692366D01*
X140911062Y-137674874D01*
X140931343Y-137666161D01*
X140934113Y-137665820D01*
X140949554Y-137672077D01*
X140976291Y-137688370D01*
X141004198Y-137708012D01*
X141060807Y-137747887D01*
X141129056Y-137792408D01*
X141201746Y-137837152D01*
X141271675Y-137877699D01*
X141331644Y-137909625D01*
X141335827Y-137911690D01*
X141410780Y-137948412D01*
X141485893Y-137927656D01*
X141602363Y-137898953D01*
X141722528Y-137875701D01*
X141842371Y-137858281D01*
X141957873Y-137847072D01*
X142065015Y-137842453D01*
X142159779Y-137844803D01*
X142238148Y-137854503D01*
X142245164Y-137855943D01*
X142287068Y-137862503D01*
X142309307Y-137859517D01*
X142312142Y-137846326D01*
X142295828Y-137822271D01*
X142269137Y-137794738D01*
X142237325Y-137765154D01*
X142208490Y-137739876D01*
X142190741Y-137725773D01*
X142172625Y-137707511D01*
X142166827Y-137693055D01*
X142173412Y-137675794D01*
X142190271Y-137648786D01*
X142213062Y-137617607D01*
X142237439Y-137587835D01*
X142259061Y-137565048D01*
X142273583Y-137554821D01*
X142274575Y-137554703D01*
X142290498Y-137562166D01*
G37*
G36*
X142079932Y-136342890D02*
G01*
X142344763Y-136375439D01*
X142604570Y-136429159D01*
X142858315Y-136503618D01*
X143104958Y-136598382D01*
X143343460Y-136713019D01*
X143572782Y-136847097D01*
X143791886Y-137000184D01*
X143999732Y-137171845D01*
X144134217Y-137299076D01*
X144193419Y-137359556D01*
X144247632Y-137418192D01*
X144301828Y-137480634D01*
X144360975Y-137552530D01*
X144397934Y-137598801D01*
X144538309Y-137792572D01*
X144666088Y-138003341D01*
X144780086Y-138229026D01*
X144850711Y-138393916D01*
X144867172Y-138435034D01*
X144881463Y-138470401D01*
X144890693Y-138492867D01*
X144891155Y-138493960D01*
X144919079Y-138568687D01*
X144947586Y-138661355D01*
X144975692Y-138767730D01*
X145002413Y-138883575D01*
X145026765Y-139004655D01*
X145047765Y-139126736D01*
X145062885Y-139233172D01*
X145068799Y-139294865D01*
X145073391Y-139372725D01*
X145076630Y-139461811D01*
X145078484Y-139557180D01*
X145078923Y-139653891D01*
X145077915Y-139747003D01*
X145075429Y-139831573D01*
X145071435Y-139902660D01*
X145067374Y-139944595D01*
X145049561Y-140070380D01*
X145027814Y-140197514D01*
X145003026Y-140322081D01*
X144976091Y-140440168D01*
X144947903Y-140547858D01*
X144919355Y-140641239D01*
X144891342Y-140716395D01*
X144891019Y-140717155D01*
X144882971Y-140736650D01*
X144868947Y-140771168D01*
X144851224Y-140815091D01*
X144839215Y-140844989D01*
X144809712Y-140914888D01*
X144774780Y-140991823D01*
X144737190Y-141070153D01*
X144699713Y-141144242D01*
X144665118Y-141208453D01*
X144638369Y-141253717D01*
X144618957Y-141285293D01*
X144605515Y-141309005D01*
X144601225Y-141318794D01*
X144595113Y-141330001D01*
X144578445Y-141355625D01*
X144553729Y-141392092D01*
X144523471Y-141435826D01*
X144490175Y-141483255D01*
X144456349Y-141530802D01*
X144424498Y-141574895D01*
X144397128Y-141611957D01*
X144380081Y-141634223D01*
X144334567Y-141690148D01*
X144284037Y-141748362D01*
X144224436Y-141813430D01*
X144167759Y-141873216D01*
X144120130Y-141922568D01*
X144078633Y-141964523D01*
X144039991Y-142001991D01*
X144000928Y-142037882D01*
X143958169Y-142075104D01*
X143908435Y-142116568D01*
X143848452Y-142165184D01*
X143774942Y-142223860D01*
X143755775Y-142239087D01*
X143682573Y-142292927D01*
X143591881Y-142352497D01*
X143487036Y-142415751D01*
X143371375Y-142480641D01*
X143301019Y-142518029D01*
X143172823Y-142584812D01*
X143165414Y-142651421D01*
X143160476Y-142697668D01*
X143154795Y-142753556D01*
X143149872Y-142804179D01*
X143144281Y-142847704D01*
X143137396Y-142877723D01*
X143130199Y-142890090D01*
X143129490Y-142890196D01*
X143115453Y-142883003D01*
X143091306Y-142864438D01*
X143067100Y-142842953D01*
X143035459Y-142813895D01*
X142994080Y-142776804D01*
X142950132Y-142738084D01*
X142933708Y-142723806D01*
X142668041Y-142484294D01*
X142402454Y-142225754D01*
X142384808Y-142207893D01*
X142204401Y-142017477D01*
X142042835Y-141831520D01*
X141900483Y-141650547D01*
X141777716Y-141475078D01*
X141674910Y-141305636D01*
X141592436Y-141142743D01*
X141548611Y-141037189D01*
X141509901Y-140923570D01*
X141483647Y-140818675D01*
X141468244Y-140714010D01*
X141462086Y-140601080D01*
X141461829Y-140578205D01*
X141462087Y-140505798D01*
X141464378Y-140448812D01*
X141469653Y-140400463D01*
X141478862Y-140353966D01*
X141492952Y-140302536D01*
X141506477Y-140259195D01*
X141548382Y-140155469D01*
X141606931Y-140049865D01*
X141678190Y-139948921D01*
X141728968Y-139889436D01*
X141765089Y-139852084D01*
X141806475Y-139812073D01*
X141849651Y-139772433D01*
X141891145Y-139736194D01*
X141927483Y-139706384D01*
X141955190Y-139686034D01*
X141970793Y-139678174D01*
X141971215Y-139678163D01*
X141982754Y-139686962D01*
X142002483Y-139709993D01*
X142026630Y-139742750D01*
X142032975Y-139752020D01*
X142082537Y-139825524D01*
X142044091Y-139858077D01*
X142010418Y-139886396D01*
X141973249Y-139917384D01*
X141962908Y-139925950D01*
X141921211Y-139965773D01*
X141874131Y-140019284D01*
X141826376Y-140080358D01*
X141782650Y-140142874D01*
X141747663Y-140200707D01*
X141739194Y-140216994D01*
X141716534Y-140268876D01*
X141694236Y-140329828D01*
X141676945Y-140387103D01*
X141676248Y-140389826D01*
X141661545Y-140477125D01*
X141656857Y-140577036D01*
X141661628Y-140682612D01*
X141675302Y-140786907D01*
X141697322Y-140882976D01*
X141721152Y-140950590D01*
X141730004Y-140971782D01*
X141744146Y-141006255D01*
X141760567Y-141046666D01*
X141761074Y-141047920D01*
X141802946Y-141138919D01*
X141859018Y-141241471D01*
X141926998Y-141352218D01*
X142004593Y-141467805D01*
X142089513Y-141584874D01*
X142179465Y-141700069D01*
X142272157Y-141810032D01*
X142311341Y-141853836D01*
X142369251Y-141915891D01*
X142440172Y-141989510D01*
X142520680Y-142071282D01*
X142607352Y-142157800D01*
X142696766Y-142245652D01*
X142785499Y-142331430D01*
X142870127Y-142411724D01*
X142891585Y-142431794D01*
X142932909Y-142467009D01*
X142963835Y-142486291D01*
X142983218Y-142489122D01*
X142989894Y-142476258D01*
X142991057Y-142459917D01*
X142993816Y-142426754D01*
X142997719Y-142382087D01*
X143000997Y-142345645D01*
X143010825Y-142236903D01*
X143018921Y-142145322D01*
X143025677Y-142065936D01*
X143031485Y-141993774D01*
X143036737Y-141923869D01*
X143041825Y-141851253D01*
X143047142Y-141770958D01*
X143050569Y-141717593D01*
X143055537Y-141631855D01*
X143059888Y-141541911D01*
X143063377Y-141454080D01*
X143065758Y-141374681D01*
X143066785Y-141310033D01*
X143066807Y-141300744D01*
X143065828Y-141240639D01*
X143063141Y-141168029D01*
X143059070Y-141087693D01*
X143053941Y-141004414D01*
X143048080Y-140922970D01*
X143041813Y-140848143D01*
X143035464Y-140784713D01*
X143029359Y-140737460D01*
X143027826Y-140728271D01*
X143022576Y-140698741D01*
X143015375Y-140657942D01*
X143010153Y-140628227D01*
X143000484Y-140577556D01*
X142987612Y-140516308D01*
X142972910Y-140450410D01*
X142957749Y-140385787D01*
X142943501Y-140328366D01*
X142931539Y-140284074D01*
X142927135Y-140269598D01*
X142913394Y-140229389D01*
X142894891Y-140178091D01*
X142874189Y-140122509D01*
X142853847Y-140069450D01*
X142836426Y-140025719D01*
X142827192Y-140003968D01*
X142818274Y-139972650D01*
X142819760Y-139947185D01*
X142830928Y-139934068D01*
X142835029Y-139933479D01*
X142849822Y-139928965D01*
X142877612Y-139917308D01*
X142902616Y-139905689D01*
X142935997Y-139890542D01*
X142961900Y-139880513D01*
X142972036Y-139878054D01*
X142981655Y-139888233D01*
X142996471Y-139916382D01*
X143015275Y-139959184D01*
X143036859Y-140013320D01*
X143060012Y-140075474D01*
X143083527Y-140142326D01*
X143106194Y-140210558D01*
X143126804Y-140276853D01*
X143144148Y-140337893D01*
X143154260Y-140378118D01*
X143162932Y-140415404D01*
X143170546Y-140448141D01*
X143172357Y-140455930D01*
X143179981Y-140492983D01*
X143189703Y-140546469D01*
X143200615Y-140610791D01*
X143211805Y-140680354D01*
X143222365Y-140749561D01*
X143231385Y-140812818D01*
X143235605Y-140844989D01*
X143240870Y-140902812D01*
X143244911Y-140982119D01*
X143247706Y-141082193D01*
X143249236Y-141202319D01*
X143249511Y-141328533D01*
X143249033Y-141439310D01*
X143247905Y-141536222D01*
X143245888Y-141623965D01*
X143242740Y-141707234D01*
X143238220Y-141790727D01*
X143232087Y-141879138D01*
X143224099Y-141977164D01*
X143214017Y-142089501D01*
X143206137Y-142173347D01*
X143200763Y-142238165D01*
X143198148Y-142289318D01*
X143198367Y-142324022D01*
X143201498Y-142339496D01*
X143201527Y-142339526D01*
X143217543Y-142340857D01*
X143248892Y-142330113D01*
X143293245Y-142308728D01*
X143348275Y-142278132D01*
X143411655Y-142239758D01*
X143481058Y-142195037D01*
X143554157Y-142145401D01*
X143628623Y-142092283D01*
X143702130Y-142037113D01*
X143735603Y-142010946D01*
X143797815Y-141959009D01*
X143868907Y-141895367D01*
X143943986Y-141824758D01*
X144018163Y-141751923D01*
X144086549Y-141681598D01*
X144144251Y-141618523D01*
X144162403Y-141597391D01*
X144324951Y-141387060D01*
X144467359Y-141167404D01*
X144589695Y-140938268D01*
X144692029Y-140699495D01*
X144774429Y-140450931D01*
X144836965Y-140192419D01*
X144869710Y-140000175D01*
X144878276Y-139919229D01*
X144883846Y-139822007D01*
X144886540Y-139713142D01*
X144886479Y-139597271D01*
X144883783Y-139479029D01*
X144878572Y-139363053D01*
X144870966Y-139253978D01*
X144861086Y-139156439D01*
X144849052Y-139075074D01*
X144845208Y-139055317D01*
X144807196Y-138885449D01*
X144766780Y-138732224D01*
X144721911Y-138590053D01*
X144670540Y-138453352D01*
X144610617Y-138316531D01*
X144540093Y-138174005D01*
X144482303Y-138065995D01*
X144455322Y-138020245D01*
X144418151Y-137961897D01*
X144374200Y-137895937D01*
X144326883Y-137827353D01*
X144279611Y-137761130D01*
X144235795Y-137702256D01*
X144216094Y-137676936D01*
X144165685Y-137617093D01*
X144102313Y-137547500D01*
X144030274Y-137472429D01*
X143953861Y-137396148D01*
X143877367Y-137322926D01*
X143805087Y-137257034D01*
X143741313Y-137202741D01*
X143730540Y-137194111D01*
X143688752Y-137161948D01*
X143639971Y-137125839D01*
X143587541Y-137088092D01*
X143534802Y-137051018D01*
X143485099Y-137016925D01*
X143441773Y-136988123D01*
X143408168Y-136966922D01*
X143387624Y-136955631D01*
X143383599Y-136954398D01*
X143370349Y-136948586D01*
X143348165Y-136934505D01*
X143346836Y-136933571D01*
X143322508Y-136918647D01*
X143282999Y-136896863D01*
X143233271Y-136870768D01*
X143178288Y-136842908D01*
X143123012Y-136815832D01*
X143072405Y-136792086D01*
X143062236Y-136787492D01*
X142869497Y-136709883D01*
X142665497Y-136643839D01*
X142459475Y-136592314D01*
X142439168Y-136588084D01*
X142332276Y-136567378D01*
X142236622Y-136551704D01*
X142146004Y-136540481D01*
X142054216Y-136533129D01*
X141955054Y-136529067D01*
X141842313Y-136527716D01*
X141794442Y-136527793D01*
X141674831Y-136529515D01*
X141569281Y-136534011D01*
X141470897Y-136542009D01*
X141372781Y-136554238D01*
X141268038Y-136571424D01*
X141149770Y-136594297D01*
X141134129Y-136597502D01*
X141022544Y-136624638D01*
X140898490Y-136661955D01*
X140767914Y-136707185D01*
X140636762Y-136758055D01*
X140510982Y-136812296D01*
X140396521Y-136867636D01*
X140325667Y-136906187D01*
X140281712Y-136931559D01*
X140240839Y-136955169D01*
X140209956Y-136973023D01*
X140202939Y-136977085D01*
X140055372Y-137071518D01*
X139905535Y-137184316D01*
X139756710Y-137312318D01*
X139612178Y-137452359D01*
X139475219Y-137601278D01*
X139349114Y-137755912D01*
X139246339Y-137899256D01*
X139158567Y-138039723D01*
X139075566Y-138190486D01*
X138999873Y-138346110D01*
X138934026Y-138501162D01*
X138880560Y-138650210D01*
X138854281Y-138738936D01*
X138840707Y-138789488D01*
X138827151Y-138839955D01*
X138816356Y-138880125D01*
X138815578Y-138883019D01*
X138805252Y-138924430D01*
X138794842Y-138972921D01*
X138783620Y-139032332D01*
X138770855Y-139106502D01*
X138757499Y-139188709D01*
X138750005Y-139251671D01*
X138744308Y-139332165D01*
X138740404Y-139425562D01*
X138738286Y-139527236D01*
X138737951Y-139632557D01*
X138739392Y-139736899D01*
X138742606Y-139835633D01*
X138747586Y-139924133D01*
X138754328Y-139997770D01*
X138758420Y-140027965D01*
X138800215Y-140253347D01*
X138852921Y-140463498D01*
X138918103Y-140663361D01*
X138997327Y-140857877D01*
X139068319Y-141006011D01*
X139118942Y-141099667D01*
X139178339Y-141200164D01*
X139242949Y-141302061D01*
X139309207Y-141399920D01*
X139373552Y-141488303D01*
X139432082Y-141561373D01*
X139581597Y-141727323D01*
X139731487Y-141875220D01*
X139885923Y-142008912D01*
X140049076Y-142132253D01*
X140054792Y-142136286D01*
X140146864Y-142197183D01*
X140253066Y-142260919D01*
X140366410Y-142323693D01*
X140479911Y-142381707D01*
X140586579Y-142431162D01*
X140632823Y-142450552D01*
X140681424Y-142470173D01*
X140725764Y-142488223D01*
X140759502Y-142502116D01*
X140771772Y-142507273D01*
X140801518Y-142518150D01*
X140847921Y-142532916D01*
X140906047Y-142550162D01*
X140970960Y-142568483D01*
X141037727Y-142586469D01*
X141101413Y-142602714D01*
X141133041Y-142610327D01*
X141271690Y-142638404D01*
X141421393Y-142660910D01*
X141575016Y-142677155D01*
X141725425Y-142686450D01*
X141865486Y-142688105D01*
X141919756Y-142686344D01*
X141992328Y-142682234D01*
X142043575Y-142677278D01*
X142074404Y-142670518D01*
X142085724Y-142660999D01*
X142078441Y-142647762D01*
X142053462Y-142629850D01*
X142011695Y-142606307D01*
X142001004Y-142600625D01*
X141780356Y-142474498D01*
X141569900Y-142335045D01*
X141371881Y-142184130D01*
X141188544Y-142023615D01*
X141022133Y-141855365D01*
X140874894Y-141681243D01*
X140843398Y-141639781D01*
X140721354Y-141459131D01*
X140618021Y-141271246D01*
X140534402Y-141078298D01*
X140471500Y-140882461D01*
X140447848Y-140782778D01*
X140437884Y-140718417D01*
X140430941Y-140638944D01*
X140427014Y-140549934D01*
X140426099Y-140456963D01*
X140428190Y-140365604D01*
X140433283Y-140281433D01*
X140441373Y-140210024D01*
X140448379Y-140172472D01*
X140470361Y-140090691D01*
X140498412Y-140005782D01*
X140530295Y-139923334D01*
X140563770Y-139848938D01*
X140596600Y-139788180D01*
X140611295Y-139765750D01*
X140627871Y-139731790D01*
X140632477Y-139697857D01*
X140624026Y-139672348D01*
X140623468Y-139671698D01*
X140614427Y-139653890D01*
X140601939Y-139619073D01*
X140587393Y-139571937D01*
X140572176Y-139517174D01*
X140557675Y-139459474D01*
X140547997Y-139416586D01*
X140538870Y-139357468D01*
X140532507Y-139282770D01*
X140528917Y-139198312D01*
X140528111Y-139109916D01*
X140530100Y-139023404D01*
X140534893Y-138944597D01*
X140542501Y-138879316D01*
X140546994Y-138855229D01*
X140586127Y-138710173D01*
X140635384Y-138584817D01*
X140694813Y-138479040D01*
X140709659Y-138457833D01*
X140731220Y-138431152D01*
X140749091Y-138414023D01*
X140756046Y-138410590D01*
X140769594Y-138417453D01*
X140794694Y-138435626D01*
X140826425Y-138461491D01*
X140833404Y-138467504D01*
X140898839Y-138524417D01*
X140865184Y-138573333D01*
X140803178Y-138682307D01*
X140757043Y-138804166D01*
X140726907Y-138936095D01*
X140712898Y-139075282D01*
X140715143Y-139218913D01*
X140733770Y-139364175D01*
X140768906Y-139508255D01*
X140816786Y-139639363D01*
X140834046Y-139680572D01*
X140847277Y-139714041D01*
X140854436Y-139734521D01*
X140855142Y-139737917D01*
X140849086Y-139751283D01*
X140833446Y-139776229D01*
X140817872Y-139798598D01*
X140739029Y-139926286D01*
X140678615Y-140064977D01*
X140636918Y-140212817D01*
X140614228Y-140367958D01*
X140610833Y-140528548D01*
X140627022Y-140692735D01*
X140656429Y-140833873D01*
X140714012Y-141013388D01*
X140792811Y-141191390D01*
X140891811Y-141366689D01*
X141010000Y-141538096D01*
X141146362Y-141704421D01*
X141299885Y-141864475D01*
X141469554Y-142017067D01*
X141654355Y-142161008D01*
X141853275Y-142295108D01*
X141953202Y-142355473D01*
X141985280Y-142373448D01*
X142029061Y-142396996D01*
X142080966Y-142424297D01*
X142137419Y-142453533D01*
X142194843Y-142482883D01*
X142249660Y-142510529D01*
X142298293Y-142534651D01*
X142337165Y-142553430D01*
X142362698Y-142565046D01*
X142371009Y-142567965D01*
X142383737Y-142572247D01*
X142410366Y-142583373D01*
X142438839Y-142596080D01*
X142468503Y-142610423D01*
X142487482Y-142624122D01*
X142497384Y-142641952D01*
X142499818Y-142668693D01*
X142496394Y-142709121D01*
X142490995Y-142750952D01*
X142488093Y-142772745D01*
X142483987Y-142788833D01*
X142475512Y-142800653D01*
X142459507Y-142809642D01*
X142432808Y-142817237D01*
X142392252Y-142824875D01*
X142334676Y-142833993D01*
X142294661Y-142840151D01*
X142044144Y-142868023D01*
X141788456Y-142875594D01*
X141530677Y-142863203D01*
X141273890Y-142831194D01*
X141021175Y-142779907D01*
X140775615Y-142709685D01*
X140623791Y-142655023D01*
X140573473Y-142634089D01*
X140510103Y-142605835D01*
X140438725Y-142572698D01*
X140364388Y-142537116D01*
X140292136Y-142501526D01*
X140227017Y-142468365D01*
X140174077Y-142440070D01*
X140149278Y-142425857D01*
X140013454Y-142340887D01*
X139890005Y-142255467D01*
X139773381Y-142165238D01*
X139658035Y-142065840D01*
X139538418Y-141952912D01*
X139503526Y-141918396D01*
X139318608Y-141719204D01*
X139153486Y-141510312D01*
X139007837Y-141291131D01*
X138881340Y-141061074D01*
X138773672Y-140819552D01*
X138684511Y-140565976D01*
X138613534Y-140299758D01*
X138611147Y-140289190D01*
X138589286Y-140180122D01*
X138572388Y-140068206D01*
X138559919Y-139948461D01*
X138551344Y-139815906D01*
X138546704Y-139688927D01*
X138544616Y-139558604D01*
X138545980Y-139444048D01*
X138551198Y-139339003D01*
X138560673Y-139237213D01*
X138574807Y-139132424D01*
X138587448Y-139055317D01*
X138600568Y-138980724D01*
X138611526Y-138921836D01*
X138621736Y-138872416D01*
X138632614Y-138826226D01*
X138645572Y-138777029D01*
X138662027Y-138718587D01*
X138670440Y-138689374D01*
X138754050Y-138439738D01*
X138858063Y-138197491D01*
X138981446Y-137964134D01*
X139123164Y-137741169D01*
X139282183Y-137530096D01*
X139457468Y-137332416D01*
X139647985Y-137149631D01*
X139838980Y-136993531D01*
X139933516Y-136925710D01*
X140039073Y-136855961D01*
X140150402Y-136787377D01*
X140262255Y-136723050D01*
X140369382Y-136666073D01*
X140466534Y-136619539D01*
X140493873Y-136607689D01*
X140633853Y-136551268D01*
X140765378Y-136503849D01*
X140896636Y-136462822D01*
X141035815Y-136425579D01*
X141149715Y-136398696D01*
X141240487Y-136381161D01*
X141347144Y-136365339D01*
X141463365Y-136351870D01*
X141582831Y-136341390D01*
X141699220Y-136334537D01*
X141806212Y-136331950D01*
X141811116Y-136331944D01*
X142079932Y-136342890D01*
G37*
%TO.C,R17*%
X161163641Y-91210000D02*
X160856359Y-91210000D01*
X161163641Y-90450000D02*
X160856359Y-90450000D01*
%TO.C,U1*%
X141390000Y-83452500D02*
X141390000Y-84152500D01*
X141390000Y-84152500D02*
X140025000Y-84152500D01*
X141390000Y-97672500D02*
X141390000Y-96972500D01*
X142090000Y-83452500D02*
X141390000Y-83452500D01*
X142090000Y-97672500D02*
X141390000Y-97672500D01*
X154910000Y-83452500D02*
X155610000Y-83452500D01*
X154910000Y-97672500D02*
X155610000Y-97672500D01*
X155610000Y-83452500D02*
X155610000Y-84152500D01*
X155610000Y-97672500D02*
X155610000Y-96972500D01*
%TO.C,D5*%
X171035000Y-124435000D02*
X171035000Y-122965000D01*
X171035000Y-122965000D02*
X168750000Y-122965000D01*
X168750000Y-124435000D02*
X171035000Y-124435000D01*
%TO.C,C7*%
X139490000Y-81790580D02*
X139490000Y-81509420D01*
X140510000Y-81790580D02*
X140510000Y-81509420D01*
%TO.C,R39*%
X136653641Y-120580000D02*
X136346359Y-120580000D01*
X136653641Y-119820000D02*
X136346359Y-119820000D01*
%TO.C,C29*%
X134907836Y-97160000D02*
X134692164Y-97160000D01*
X134907836Y-96440000D02*
X134692164Y-96440000D01*
%TO.C,R27*%
X166603641Y-78792500D02*
X166296359Y-78792500D01*
X166603641Y-78032500D02*
X166296359Y-78032500D01*
%TO.C,R38*%
X168696359Y-121920000D02*
X169003641Y-121920000D01*
X168696359Y-122680000D02*
X169003641Y-122680000D01*
%TO.C,R33*%
X148396359Y-124882500D02*
X148703641Y-124882500D01*
X148396359Y-125642500D02*
X148703641Y-125642500D01*
%TO.C,R44*%
X139596359Y-107470000D02*
X139903641Y-107470000D01*
X139596359Y-108230000D02*
X139903641Y-108230000D01*
%TO.C,R1*%
X168946359Y-108120000D02*
X169253641Y-108120000D01*
X168946359Y-108880000D02*
X169253641Y-108880000D01*
%TO.C,R40*%
X136603641Y-130530000D02*
X136296359Y-130530000D01*
X136603641Y-129770000D02*
X136296359Y-129770000D01*
%TO.C,R42*%
X136862742Y-107477500D02*
X137337258Y-107477500D01*
X136862742Y-108522500D02*
X137337258Y-108522500D01*
%TO.C,J7*%
X166715000Y-91882500D02*
X168635000Y-91882500D01*
X172350000Y-91882500D02*
X170645000Y-91882500D01*
X168635000Y-82722500D02*
X166715000Y-82722500D01*
X170645000Y-82722500D02*
X172350000Y-82722500D01*
X172350000Y-82722500D02*
X172350000Y-91882500D01*
%TO.C,R30*%
X155953641Y-115930000D02*
X155646359Y-115930000D01*
X155953641Y-115170000D02*
X155646359Y-115170000D01*
%TO.C,R12*%
X154640000Y-119306359D02*
X154640000Y-119613641D01*
X153880000Y-119306359D02*
X153880000Y-119613641D01*
%TO.C,C12*%
X158210000Y-84379664D02*
X158210000Y-84595336D01*
X157490000Y-84379664D02*
X157490000Y-84595336D01*
%TO.C,R48*%
X135046359Y-69590000D02*
X135353641Y-69590000D01*
X135046359Y-70350000D02*
X135353641Y-70350000D01*
%TO.C,R8*%
X150903641Y-127030000D02*
X150596359Y-127030000D01*
X150903641Y-126270000D02*
X150596359Y-126270000D01*
%TO.C,Q7*%
X157060000Y-121377500D02*
X155385000Y-121377500D01*
X157060000Y-121377500D02*
X157710000Y-121377500D01*
X157060000Y-124497500D02*
X156410000Y-124497500D01*
X157060000Y-124497500D02*
X157710000Y-124497500D01*
%TO.C,C9*%
X138540000Y-86620336D02*
X138540000Y-86404664D01*
X139260000Y-86620336D02*
X139260000Y-86404664D01*
%TO.C,D3*%
X133615000Y-132965000D02*
X133615000Y-134435000D01*
X133615000Y-134435000D02*
X135900000Y-134435000D01*
X135900000Y-132965000D02*
X133615000Y-132965000D01*
%TO.C,C4*%
X135490000Y-77207836D02*
X135490000Y-76992164D01*
X136210000Y-77207836D02*
X136210000Y-76992164D01*
%TO.C,R49*%
X137246359Y-69590000D02*
X137553641Y-69590000D01*
X137246359Y-70350000D02*
X137553641Y-70350000D01*
%TO.C,C24*%
X137140000Y-94628080D02*
X137140000Y-94346920D01*
X138160000Y-94628080D02*
X138160000Y-94346920D01*
%TO.C,R16*%
X150660000Y-119246359D02*
X150660000Y-119553641D01*
X149900000Y-119246359D02*
X149900000Y-119553641D01*
%TO.C,U2*%
X160450000Y-88372500D02*
X162250000Y-88372500D01*
X160450000Y-88372500D02*
X159650000Y-88372500D01*
X160450000Y-85252500D02*
X161250000Y-85252500D01*
X160450000Y-85252500D02*
X159650000Y-85252500D01*
%TO.C,J10*%
X164405000Y-79697500D02*
X153145000Y-79697500D01*
X164405000Y-78537500D02*
X164405000Y-79697500D01*
X164405000Y-75287500D02*
X164405000Y-69687500D01*
X151645000Y-79697500D02*
X151535000Y-79697500D01*
X151535000Y-79697500D02*
X151535000Y-77887500D01*
X151535000Y-75987500D02*
X151535000Y-69687500D01*
%TO.C,R28*%
X152562258Y-106035000D02*
X152087742Y-106035000D01*
X152562258Y-104990000D02*
X152087742Y-104990000D01*
%TO.C,R20*%
X169662742Y-80027500D02*
X170137258Y-80027500D01*
X169662742Y-81072500D02*
X170137258Y-81072500D01*
%TO.C,C20*%
X136738748Y-113977500D02*
X137261252Y-113977500D01*
X136738748Y-115447500D02*
X137261252Y-115447500D01*
%TO.C,R4*%
X150546359Y-132570000D02*
X150853641Y-132570000D01*
X150546359Y-133330000D02*
X150853641Y-133330000D01*
%TO.C,Y1*%
X136475000Y-88062500D02*
X133175000Y-88062500D01*
X133175000Y-88062500D02*
X133175000Y-92062500D01*
%TO.C,R31*%
X156253641Y-120930000D02*
X155946359Y-120930000D01*
X156253641Y-120170000D02*
X155946359Y-120170000D01*
%TO.C,R36*%
X136603641Y-135580000D02*
X136296359Y-135580000D01*
X136603641Y-134820000D02*
X136296359Y-134820000D01*
%TO.C,R52*%
X135046359Y-70820000D02*
X135353641Y-70820000D01*
X135046359Y-71580000D02*
X135353641Y-71580000D01*
%TO.C,R41*%
X136603641Y-125580000D02*
X136296359Y-125580000D01*
X136603641Y-124820000D02*
X136296359Y-124820000D01*
%TO.C,Q6*%
X157060000Y-116377500D02*
X155385000Y-116377500D01*
X157060000Y-116377500D02*
X157710000Y-116377500D01*
X157060000Y-119497500D02*
X156410000Y-119497500D01*
X157060000Y-119497500D02*
X157710000Y-119497500D01*
%TO.C,C21*%
X157685000Y-110338748D02*
X157685000Y-110861252D01*
X156215000Y-110338748D02*
X156215000Y-110861252D01*
%TO.C,C23*%
X153235000Y-110736748D02*
X153235000Y-111259252D01*
X151765000Y-110736748D02*
X151765000Y-111259252D01*
%TO.C,L2*%
X139260000Y-113472500D02*
X139260000Y-113322500D01*
X139260000Y-113472500D02*
X134740000Y-113472500D01*
X139260000Y-108952500D02*
X139260000Y-109102500D01*
X139260000Y-108952500D02*
X134740000Y-108952500D01*
X134740000Y-113472500D02*
X134740000Y-113322500D01*
X134740000Y-108952500D02*
X134740000Y-109102500D01*
%TO.C,C17*%
X163438748Y-113565000D02*
X163961252Y-113565000D01*
X163438748Y-115035000D02*
X163961252Y-115035000D01*
%TO.C,R45*%
X160833641Y-89560000D02*
X160526359Y-89560000D01*
X160833641Y-88800000D02*
X160526359Y-88800000D01*
%TO.C,J9*%
X165940000Y-77447500D02*
X171660000Y-77447500D01*
X171660000Y-77447500D02*
X171660000Y-73962500D01*
X165940000Y-76377500D02*
X165940000Y-77447500D01*
X166240000Y-76377500D02*
X165940000Y-76377500D01*
X165650000Y-76087500D02*
X165650000Y-76587500D01*
X165950000Y-76087500D02*
X165650000Y-76087500D01*
X166240000Y-73962500D02*
X166240000Y-76377500D01*
X166240000Y-73962500D02*
X166240000Y-71547500D01*
X165940000Y-71547500D02*
X165940000Y-70477500D01*
X166240000Y-71547500D02*
X165940000Y-71547500D01*
X165940000Y-70477500D02*
X171660000Y-70477500D01*
X171660000Y-70477500D02*
X171660000Y-73962500D01*
%TO.C,L1*%
X162640000Y-112672500D02*
X162790000Y-112672500D01*
X162640000Y-112672500D02*
X162640000Y-108152500D01*
X167160000Y-112672500D02*
X167010000Y-112672500D01*
X167160000Y-112672500D02*
X167160000Y-108152500D01*
X162640000Y-108152500D02*
X162790000Y-108152500D01*
X167160000Y-108152500D02*
X167010000Y-108152500D01*
%TO.C,R32*%
X148386359Y-119882500D02*
X148693641Y-119882500D01*
X148386359Y-120642500D02*
X148693641Y-120642500D01*
%TO.C,R7*%
X150596359Y-127570000D02*
X150903641Y-127570000D01*
X150596359Y-128330000D02*
X150903641Y-128330000D01*
%TO.C,Q4*%
X160712500Y-104002500D02*
X159037500Y-104002500D01*
X160712500Y-104002500D02*
X161362500Y-104002500D01*
X160712500Y-107122500D02*
X160062500Y-107122500D01*
X160712500Y-107122500D02*
X161362500Y-107122500D01*
%TO.C,R50*%
X135046359Y-72070000D02*
X135353641Y-72070000D01*
X135046359Y-72830000D02*
X135353641Y-72830000D01*
%TO.C,R55*%
X137246359Y-73320000D02*
X137553641Y-73320000D01*
X137246359Y-74080000D02*
X137553641Y-74080000D01*
D14*
%TO.C,U4*%
X139440000Y-72732500D02*
X139440000Y-72022500D01*
X139440000Y-72022500D02*
X140000000Y-72022500D01*
D13*
%TO.C,R10*%
X149890000Y-121633641D02*
X149890000Y-121326359D01*
X150650000Y-121633641D02*
X150650000Y-121326359D01*
%TO.C,Q5*%
X147600000Y-124522500D02*
X149275000Y-124522500D01*
X147600000Y-124522500D02*
X146950000Y-124522500D01*
X147600000Y-121402500D02*
X148250000Y-121402500D01*
X147600000Y-121402500D02*
X146950000Y-121402500D01*
%TO.C,D6*%
X133615000Y-117965000D02*
X133615000Y-119435000D01*
X133615000Y-119435000D02*
X135900000Y-119435000D01*
X135900000Y-117965000D02*
X133615000Y-117965000D01*
%TO.C,R5*%
X158346359Y-114220000D02*
X158653641Y-114220000D01*
X158346359Y-114980000D02*
X158653641Y-114980000D01*
%TO.C,C19*%
X144140000Y-110690580D02*
X144140000Y-110409420D01*
X145160000Y-110690580D02*
X145160000Y-110409420D01*
%TO.C,F1*%
X145950000Y-112208578D02*
X145950000Y-111691422D01*
X147370000Y-112208578D02*
X147370000Y-111691422D01*
%TO.C,R6*%
X150853641Y-132030000D02*
X150546359Y-132030000D01*
X150853641Y-131270000D02*
X150546359Y-131270000D01*
%TO.C,R29*%
X148436359Y-129882500D02*
X148743641Y-129882500D01*
X148436359Y-130642500D02*
X148743641Y-130642500D01*
%TO.C,U8*%
X161975000Y-108912500D02*
X161975000Y-109887500D01*
X158725000Y-108912500D02*
X158950000Y-108912500D01*
X158725000Y-108912500D02*
X158725000Y-109887500D01*
X161975000Y-111187500D02*
X161975000Y-112162500D01*
X158725000Y-111187500D02*
X158725000Y-112162500D01*
X161750000Y-112162500D02*
X161975000Y-112162500D01*
X158950000Y-112162500D02*
X158725000Y-112162500D01*
%TO.C,R11*%
X154640000Y-117096359D02*
X154640000Y-117403641D01*
X153880000Y-117096359D02*
X153880000Y-117403641D01*
D14*
%TO.C,U5*%
X137430000Y-78202500D02*
X136970000Y-78202500D01*
X136970000Y-78202500D02*
X136970000Y-77822500D01*
D13*
%TO.C,C28*%
X150260000Y-67709420D02*
X150260000Y-67990580D01*
X149240000Y-67709420D02*
X149240000Y-67990580D01*
%TO.C,R51*%
X137246359Y-72070000D02*
X137553641Y-72070000D01*
X137246359Y-72830000D02*
X137553641Y-72830000D01*
%TO.C,Q3*%
X147600000Y-129522500D02*
X149275000Y-129522500D01*
X147600000Y-129522500D02*
X146950000Y-129522500D01*
X147600000Y-126402500D02*
X148250000Y-126402500D01*
X147600000Y-126402500D02*
X146950000Y-126402500D01*
%TO.C,D1*%
X162485000Y-92985000D02*
X162485000Y-91515000D01*
X162485000Y-91515000D02*
X160200000Y-91515000D01*
X160200000Y-92985000D02*
X162485000Y-92985000D01*
%TO.C,C13*%
X154382836Y-100360000D02*
X154167164Y-100360000D01*
X154382836Y-99640000D02*
X154167164Y-99640000D01*
D14*
%TO.C,U3*%
X148450000Y-75662500D02*
X147650000Y-75662500D01*
X148450000Y-74762500D02*
X148450000Y-75662500D01*
D13*
%TO.C,D7*%
X133615000Y-127915000D02*
X133615000Y-129385000D01*
X133615000Y-129385000D02*
X135900000Y-129385000D01*
X135900000Y-127915000D02*
X133615000Y-127915000D01*
%TO.C,U7*%
X134575000Y-104725000D02*
X134835000Y-104725000D01*
X134835000Y-104725000D02*
X134835000Y-106400000D01*
X140025000Y-104725000D02*
X139765000Y-104725000D01*
X134575000Y-102000000D02*
X134575000Y-104725000D01*
X134575000Y-102000000D02*
X134575000Y-99275000D01*
X140025000Y-102000000D02*
X140025000Y-104725000D01*
X140025000Y-102000000D02*
X140025000Y-99275000D01*
X134575000Y-99275000D02*
X134835000Y-99275000D01*
X140025000Y-99275000D02*
X139765000Y-99275000D01*
%TO.C,C2*%
X149140000Y-74770336D02*
X149140000Y-74554664D01*
X149860000Y-74770336D02*
X149860000Y-74554664D01*
%TO.C,R26*%
X166130000Y-68846359D02*
X166130000Y-69153641D01*
X165370000Y-68846359D02*
X165370000Y-69153641D01*
%TO.C,C22*%
X155435000Y-110338748D02*
X155435000Y-110861252D01*
X153965000Y-110338748D02*
X153965000Y-110861252D01*
%TO.C,R24*%
X161283641Y-97387500D02*
X160976359Y-97387500D01*
X161283641Y-96627500D02*
X160976359Y-96627500D01*
%TO.C,C6*%
X134742164Y-87002500D02*
X134957836Y-87002500D01*
X134742164Y-87722500D02*
X134957836Y-87722500D01*
%TO.C,R54*%
X135046359Y-73320000D02*
X135353641Y-73320000D01*
X135046359Y-74080000D02*
X135353641Y-74080000D01*
%TO.C,C5*%
X142007836Y-76360000D02*
X141792164Y-76360000D01*
X142007836Y-75640000D02*
X141792164Y-75640000D01*
%TO.C,R34*%
X148396359Y-134882500D02*
X148703641Y-134882500D01*
X148396359Y-135642500D02*
X148703641Y-135642500D01*
%TO.C,R43*%
X141696359Y-107470000D02*
X142003641Y-107470000D01*
X141696359Y-108230000D02*
X142003641Y-108230000D01*
%TO.C,C11*%
X140990000Y-81907836D02*
X140990000Y-81692164D01*
X141710000Y-81907836D02*
X141710000Y-81692164D01*
%TO.C,R25*%
X157680000Y-132753641D02*
X157680000Y-132446359D01*
X158440000Y-132753641D02*
X158440000Y-132446359D01*
%TO.C,U9*%
X141650000Y-111910000D02*
X143450000Y-111910000D01*
X141650000Y-111910000D02*
X140850000Y-111910000D01*
X141650000Y-108790000D02*
X142450000Y-108790000D01*
X141650000Y-108790000D02*
X140850000Y-108790000D01*
%TO.C,C14*%
X138590000Y-89045336D02*
X138590000Y-88829664D01*
X139310000Y-89045336D02*
X139310000Y-88829664D01*
%TO.C,D15*%
X145160000Y-114450000D02*
X145160000Y-112450000D01*
X145160000Y-114450000D02*
X141150000Y-114450000D01*
X145160000Y-112450000D02*
X141150000Y-112450000D01*
%TO.C,Q8*%
X147600000Y-119522500D02*
X149275000Y-119522500D01*
X147600000Y-119522500D02*
X146950000Y-119522500D01*
X147600000Y-116402500D02*
X148250000Y-116402500D01*
X147600000Y-116402500D02*
X146950000Y-116402500D01*
%TD*%
%LPC*%
D15*
%TO.C,Q9*%
X168362500Y-109997500D03*
X168362500Y-111897500D03*
X170237500Y-110947500D03*
%TD*%
D16*
%TO.C,R3*%
X137950000Y-81090000D03*
X137950000Y-82110000D03*
%TD*%
D17*
%TO.C,D8*%
X134312500Y-123700000D03*
X135887500Y-123700000D03*
%TD*%
D18*
%TO.C,Q2*%
X148537500Y-133912500D03*
X148537500Y-132012500D03*
X146662500Y-132962500D03*
%TD*%
D19*
%TO.C,R18*%
X161150000Y-100837500D03*
X161150000Y-102487500D03*
%TD*%
D16*
%TO.C,R14*%
X154250000Y-124140000D03*
X154250000Y-125160000D03*
%TD*%
D18*
%TO.C,Q1*%
X159237500Y-102612500D03*
X159237500Y-100712500D03*
X157362500Y-101662500D03*
%TD*%
D20*
%TO.C,D2*%
X161787500Y-98362500D03*
X160212500Y-98362500D03*
%TD*%
D16*
%TO.C,R13*%
X154250000Y-121840000D03*
X154250000Y-122860000D03*
%TD*%
D21*
%TO.C,R9*%
X150270000Y-124080000D03*
X150270000Y-123060000D03*
%TD*%
D22*
%TO.C,R19*%
X164890000Y-93162500D03*
X165910000Y-93162500D03*
%TD*%
D23*
%TO.C,R2*%
X138975000Y-91087500D03*
X137325000Y-91087500D03*
%TD*%
D24*
%TO.C,C10*%
X135280000Y-92762500D03*
X134320000Y-92762500D03*
%TD*%
D22*
%TO.C,R22*%
X160020000Y-114600000D03*
X161040000Y-114600000D03*
%TD*%
D25*
%TO.C,C1*%
X149700000Y-70475000D03*
X149700000Y-72025000D03*
%TD*%
D21*
%TO.C,R23*%
X157100000Y-108022500D03*
X157100000Y-107002500D03*
%TD*%
D26*
%TO.C,C8*%
X140820000Y-70850000D03*
X141780000Y-70850000D03*
%TD*%
D24*
%TO.C,C15*%
X143730000Y-100050000D03*
X142770000Y-100050000D03*
%TD*%
D16*
%TO.C,R15*%
X150280000Y-116790000D03*
X150280000Y-117810000D03*
%TD*%
D21*
%TO.C,R35*%
X158060000Y-130957500D03*
X158060000Y-129937500D03*
%TD*%
D27*
%TO.C,FB2*%
X148844000Y-109757500D03*
X148844000Y-111882500D03*
%TD*%
D20*
%TO.C,D4*%
X170287500Y-118800000D03*
X168712500Y-118800000D03*
%TD*%
D23*
%TO.C,R21*%
X167500000Y-80550000D03*
X165850000Y-80550000D03*
%TD*%
D22*
%TO.C,R53*%
X136890000Y-71200000D03*
X137910000Y-71200000D03*
%TD*%
D28*
%TO.C,C25*%
X162580000Y-82580000D03*
X162580000Y-83540000D03*
%TD*%
D29*
%TO.C,FB1*%
X136162500Y-95312500D03*
X134037500Y-95312500D03*
%TD*%
D30*
%TO.C,J8*%
X167100000Y-103175000D03*
D31*
X167100000Y-101925000D03*
X167100000Y-100675000D03*
X167100000Y-99425000D03*
%TD*%
D32*
%TO.C,C16*%
X139000000Y-94867500D03*
X139000000Y-93907500D03*
%TD*%
D24*
%TO.C,C18*%
X158980000Y-113450000D03*
X158020000Y-113450000D03*
%TD*%
D22*
%TO.C,R37*%
X168340000Y-117300000D03*
X169360000Y-117300000D03*
%TD*%
D24*
%TO.C,C3*%
X137680000Y-79250000D03*
X136720000Y-79250000D03*
%TD*%
D33*
%TO.C,R46*%
X158980000Y-89180000D03*
X157960000Y-89180000D03*
%TD*%
%TO.C,R17*%
X161520000Y-90830000D03*
X160500000Y-90830000D03*
%TD*%
D34*
%TO.C,U1*%
X140825000Y-84562500D03*
X140825000Y-85062500D03*
X140825000Y-85562500D03*
X140825000Y-86062500D03*
X140825000Y-86562500D03*
X140825000Y-87062500D03*
X140825000Y-87562500D03*
X140825000Y-88062500D03*
X140825000Y-88562500D03*
X140825000Y-89062500D03*
X140825000Y-89562500D03*
X140825000Y-90062500D03*
X140825000Y-90562500D03*
X140825000Y-91062500D03*
X140825000Y-91562500D03*
X140825000Y-92062500D03*
X140825000Y-92562500D03*
X140825000Y-93062500D03*
X140825000Y-93562500D03*
X140825000Y-94062500D03*
X140825000Y-94562500D03*
X140825000Y-95062500D03*
X140825000Y-95562500D03*
X140825000Y-96062500D03*
X140825000Y-96562500D03*
D35*
X142500000Y-98237500D03*
X143000000Y-98237500D03*
X143500000Y-98237500D03*
X144000000Y-98237500D03*
X144500000Y-98237500D03*
X145000000Y-98237500D03*
X145500000Y-98237500D03*
X146000000Y-98237500D03*
X146500000Y-98237500D03*
X147000000Y-98237500D03*
X147500000Y-98237500D03*
X148000000Y-98237500D03*
X148500000Y-98237500D03*
X149000000Y-98237500D03*
X149500000Y-98237500D03*
X150000000Y-98237500D03*
X150500000Y-98237500D03*
X151000000Y-98237500D03*
X151500000Y-98237500D03*
X152000000Y-98237500D03*
X152500000Y-98237500D03*
X153000000Y-98237500D03*
X153500000Y-98237500D03*
X154000000Y-98237500D03*
X154500000Y-98237500D03*
D34*
X156175000Y-96562500D03*
X156175000Y-96062500D03*
X156175000Y-95562500D03*
X156175000Y-95062500D03*
X156175000Y-94562500D03*
X156175000Y-94062500D03*
X156175000Y-93562500D03*
X156175000Y-93062500D03*
X156175000Y-92562500D03*
X156175000Y-92062500D03*
X156175000Y-91562500D03*
X156175000Y-91062500D03*
X156175000Y-90562500D03*
X156175000Y-90062500D03*
X156175000Y-89562500D03*
X156175000Y-89062500D03*
X156175000Y-88562500D03*
X156175000Y-88062500D03*
X156175000Y-87562500D03*
X156175000Y-87062500D03*
X156175000Y-86562500D03*
X156175000Y-86062500D03*
X156175000Y-85562500D03*
X156175000Y-85062500D03*
X156175000Y-84562500D03*
D35*
X154500000Y-82887500D03*
X154000000Y-82887500D03*
X153500000Y-82887500D03*
X153000000Y-82887500D03*
X152500000Y-82887500D03*
X152000000Y-82887500D03*
X151500000Y-82887500D03*
X151000000Y-82887500D03*
X150500000Y-82887500D03*
X150000000Y-82887500D03*
X149500000Y-82887500D03*
X149000000Y-82887500D03*
X148500000Y-82887500D03*
X148000000Y-82887500D03*
X147500000Y-82887500D03*
X147000000Y-82887500D03*
X146500000Y-82887500D03*
X146000000Y-82887500D03*
X145500000Y-82887500D03*
X145000000Y-82887500D03*
X144500000Y-82887500D03*
X144000000Y-82887500D03*
X143500000Y-82887500D03*
X143000000Y-82887500D03*
X142500000Y-82887500D03*
%TD*%
D20*
%TO.C,D5*%
X170337500Y-123700000D03*
X168762500Y-123700000D03*
%TD*%
D36*
%TO.C,C7*%
X140000000Y-82425000D03*
X140000000Y-80875000D03*
%TD*%
D33*
%TO.C,R39*%
X137010000Y-120200000D03*
X135990000Y-120200000D03*
%TD*%
D24*
%TO.C,C29*%
X135280000Y-96800000D03*
X134320000Y-96800000D03*
%TD*%
D33*
%TO.C,R27*%
X166960000Y-78412500D03*
X165940000Y-78412500D03*
%TD*%
D22*
%TO.C,R38*%
X168340000Y-122300000D03*
X169360000Y-122300000D03*
%TD*%
%TO.C,R33*%
X148040000Y-125262500D03*
X149060000Y-125262500D03*
%TD*%
%TO.C,R44*%
X139240000Y-107850000D03*
X140260000Y-107850000D03*
%TD*%
%TO.C,R1*%
X168590000Y-108500000D03*
X169610000Y-108500000D03*
%TD*%
D33*
%TO.C,R40*%
X136960000Y-130150000D03*
X135940000Y-130150000D03*
%TD*%
D37*
%TO.C,R42*%
X136275000Y-108000000D03*
X137925000Y-108000000D03*
%TD*%
D38*
%TO.C,J7*%
X165960000Y-90192500D03*
X165960000Y-84412500D03*
D39*
X164840000Y-90502500D03*
X164840000Y-89702500D03*
D40*
X164840000Y-88552500D03*
X164840000Y-87552500D03*
X164840000Y-87052500D03*
X164840000Y-86052500D03*
D39*
X164840000Y-84902500D03*
X164840000Y-84102500D03*
X164840000Y-84102500D03*
X164840000Y-84902500D03*
D40*
X164840000Y-85552500D03*
X164840000Y-86552500D03*
X164840000Y-88052500D03*
X164840000Y-89052500D03*
D39*
X164840000Y-89702500D03*
X164840000Y-90502500D03*
D41*
X165440000Y-91622500D03*
D42*
X169640000Y-91622500D03*
D41*
X165440000Y-82982500D03*
D42*
X169640000Y-82982500D03*
%TD*%
D33*
%TO.C,R30*%
X156310000Y-115550000D03*
X155290000Y-115550000D03*
%TD*%
D16*
%TO.C,R12*%
X154260000Y-118950000D03*
X154260000Y-119970000D03*
%TD*%
D28*
%TO.C,C12*%
X157850000Y-84007500D03*
X157850000Y-84967500D03*
%TD*%
D22*
%TO.C,R48*%
X134690000Y-69970000D03*
X135710000Y-69970000D03*
%TD*%
D33*
%TO.C,R8*%
X151260000Y-126650000D03*
X150240000Y-126650000D03*
%TD*%
D15*
%TO.C,Q7*%
X156122500Y-121987500D03*
X156122500Y-123887500D03*
X157997500Y-122937500D03*
%TD*%
D32*
%TO.C,C9*%
X138900000Y-86992500D03*
X138900000Y-86032500D03*
%TD*%
D17*
%TO.C,D3*%
X134312500Y-133700000D03*
X135887500Y-133700000D03*
%TD*%
D32*
%TO.C,C4*%
X135850000Y-77580000D03*
X135850000Y-76620000D03*
%TD*%
D22*
%TO.C,R49*%
X136890000Y-69970000D03*
X137910000Y-69970000D03*
%TD*%
D36*
%TO.C,C24*%
X137650000Y-95262500D03*
X137650000Y-93712500D03*
%TD*%
D16*
%TO.C,R16*%
X150280000Y-118890000D03*
X150280000Y-119910000D03*
%TD*%
D43*
%TO.C,U2*%
X161587500Y-87762500D03*
X161587500Y-86812500D03*
X161587500Y-85862500D03*
X159312500Y-85862500D03*
X159312500Y-86812500D03*
X159312500Y-87762500D03*
%TD*%
D44*
%TO.C,J10*%
X154795000Y-68562500D03*
X155895000Y-68562500D03*
X156995000Y-68562500D03*
X158095000Y-68562500D03*
X159195000Y-68562500D03*
X160295000Y-68562500D03*
X161395000Y-68562500D03*
X162495000Y-68562500D03*
D45*
X163620000Y-77787500D03*
D46*
X152395000Y-79362500D03*
D47*
X163945000Y-76287500D03*
D48*
X163695000Y-68687500D03*
D49*
X152345000Y-68687500D03*
D50*
X151995000Y-76937500D03*
%TD*%
D23*
%TO.C,R28*%
X153150000Y-105512500D03*
X151500000Y-105512500D03*
%TD*%
D37*
%TO.C,R20*%
X169075000Y-80550000D03*
X170725000Y-80550000D03*
%TD*%
D51*
%TO.C,C20*%
X136050000Y-114712500D03*
X137950000Y-114712500D03*
%TD*%
D22*
%TO.C,R4*%
X150190000Y-132950000D03*
X151210000Y-132950000D03*
%TD*%
D52*
%TO.C,Y1*%
X133975000Y-88962500D03*
X133975000Y-91162500D03*
X135675000Y-91162500D03*
X135675000Y-88962500D03*
%TD*%
D33*
%TO.C,R31*%
X156610000Y-120550000D03*
X155590000Y-120550000D03*
%TD*%
%TO.C,R36*%
X136960000Y-135200000D03*
X135940000Y-135200000D03*
%TD*%
D22*
%TO.C,R52*%
X134690000Y-71200000D03*
X135710000Y-71200000D03*
%TD*%
D33*
%TO.C,R41*%
X136960000Y-125200000D03*
X135940000Y-125200000D03*
%TD*%
D15*
%TO.C,Q6*%
X156122500Y-116987500D03*
X156122500Y-118887500D03*
X157997500Y-117937500D03*
%TD*%
D53*
%TO.C,C21*%
X156950000Y-109650000D03*
X156950000Y-111550000D03*
%TD*%
%TO.C,C23*%
X152500000Y-110048000D03*
X152500000Y-111948000D03*
%TD*%
D54*
%TO.C,L2*%
X138500000Y-111212500D03*
X135500000Y-111212500D03*
%TD*%
D51*
%TO.C,C17*%
X162750000Y-114300000D03*
X164650000Y-114300000D03*
%TD*%
D33*
%TO.C,R45*%
X161190000Y-89180000D03*
X160170000Y-89180000D03*
%TD*%
D30*
%TO.C,J9*%
X167100000Y-75837500D03*
D31*
X167100000Y-74587500D03*
X167100000Y-73337500D03*
X167100000Y-72087500D03*
%TD*%
D55*
%TO.C,L1*%
X164900000Y-111912500D03*
X164900000Y-108912500D03*
%TD*%
D22*
%TO.C,R32*%
X148030000Y-120262500D03*
X149050000Y-120262500D03*
%TD*%
%TO.C,R7*%
X150240000Y-127950000D03*
X151260000Y-127950000D03*
%TD*%
D15*
%TO.C,Q4*%
X159775000Y-104612500D03*
X159775000Y-106512500D03*
X161650000Y-105562500D03*
%TD*%
D22*
%TO.C,R50*%
X134690000Y-72450000D03*
X135710000Y-72450000D03*
%TD*%
%TO.C,R55*%
X136890000Y-73700000D03*
X137910000Y-73700000D03*
%TD*%
D56*
%TO.C,U4*%
X140300000Y-72337500D03*
X140800000Y-72337500D03*
X141300000Y-72337500D03*
X141800000Y-72337500D03*
X142300000Y-72337500D03*
X142800000Y-72337500D03*
X143300000Y-72337500D03*
D57*
X143812500Y-73600000D03*
D56*
X143300000Y-74862500D03*
X142800000Y-74862500D03*
X142300000Y-74862500D03*
X141800000Y-74862500D03*
X141300000Y-74862500D03*
X140800000Y-74862500D03*
X140300000Y-74862500D03*
D57*
X139787500Y-73600000D03*
%TD*%
D21*
%TO.C,R10*%
X150270000Y-121990000D03*
X150270000Y-120970000D03*
%TD*%
D18*
%TO.C,Q5*%
X148537500Y-123912500D03*
X148537500Y-122012500D03*
X146662500Y-122962500D03*
%TD*%
D17*
%TO.C,D6*%
X134312500Y-118700000D03*
X135887500Y-118700000D03*
%TD*%
D22*
%TO.C,R5*%
X157990000Y-114600000D03*
X159010000Y-114600000D03*
%TD*%
D36*
%TO.C,C19*%
X144650000Y-111325000D03*
X144650000Y-109775000D03*
%TD*%
D58*
%TO.C,F1*%
X146660000Y-112887500D03*
X146660000Y-111012500D03*
%TD*%
D33*
%TO.C,R6*%
X151210000Y-131650000D03*
X150190000Y-131650000D03*
%TD*%
D22*
%TO.C,R29*%
X148080000Y-130262500D03*
X149100000Y-130262500D03*
%TD*%
D59*
%TO.C,U8*%
X161350000Y-108777500D03*
D60*
X161350000Y-109062500D03*
D59*
X160850000Y-108777500D03*
D60*
X160850000Y-109062500D03*
D59*
X160350000Y-108777500D03*
D60*
X160350000Y-109062500D03*
D59*
X159850000Y-108777500D03*
D60*
X159850000Y-109062500D03*
D59*
X159350000Y-108777500D03*
D60*
X159350000Y-109062500D03*
X159350000Y-112012500D03*
D59*
X159350000Y-112297500D03*
D60*
X159850000Y-112012500D03*
D59*
X159850000Y-112297500D03*
D60*
X160350000Y-112012500D03*
D59*
X160350000Y-112297500D03*
D60*
X160850000Y-112012500D03*
D59*
X160850000Y-112297500D03*
D60*
X161350000Y-112012500D03*
D59*
X161350000Y-112297500D03*
D61*
X161100000Y-110037500D03*
X159600000Y-110037500D03*
D62*
X160985000Y-110087500D03*
X159715000Y-110087500D03*
D63*
X161980000Y-110287500D03*
D64*
X161900000Y-110287500D03*
X158800000Y-110287500D03*
D63*
X158720000Y-110287500D03*
D61*
X160350000Y-110537500D03*
D65*
X160350000Y-110537500D03*
D63*
X161980000Y-110787500D03*
D64*
X161900000Y-110787500D03*
X158800000Y-110787500D03*
D63*
X158720000Y-110787500D03*
D62*
X160985000Y-110987500D03*
X159715000Y-110987500D03*
D61*
X161100000Y-111037500D03*
X159600000Y-111037500D03*
%TD*%
D16*
%TO.C,R11*%
X154260000Y-116740000D03*
X154260000Y-117760000D03*
%TD*%
D66*
%TO.C,U5*%
X137757500Y-77925000D03*
X138257500Y-77925000D03*
D67*
X138770000Y-77662500D03*
X138770000Y-77162500D03*
X138770000Y-76662500D03*
D66*
X138257500Y-76400000D03*
X137757500Y-76400000D03*
D67*
X137245000Y-76662500D03*
X137245000Y-77162500D03*
X137245000Y-77662500D03*
%TD*%
D25*
%TO.C,C28*%
X149750000Y-67075000D03*
X149750000Y-68625000D03*
%TD*%
D22*
%TO.C,R51*%
X136890000Y-72450000D03*
X137910000Y-72450000D03*
%TD*%
D18*
%TO.C,Q3*%
X148537500Y-128912500D03*
X148537500Y-127012500D03*
X146662500Y-127962500D03*
%TD*%
D20*
%TO.C,D1*%
X161787500Y-92250000D03*
X160212500Y-92250000D03*
%TD*%
D24*
%TO.C,C13*%
X154755000Y-100000000D03*
X153795000Y-100000000D03*
%TD*%
D68*
%TO.C,U3*%
X147750000Y-75012500D03*
X147750000Y-74212500D03*
X147750000Y-73412500D03*
X147750000Y-72612500D03*
X147750000Y-71812500D03*
X147750000Y-71012500D03*
D69*
X146652500Y-70915000D03*
D68*
X145555000Y-71012500D03*
X145555000Y-71812500D03*
X145555000Y-72612500D03*
X145555000Y-73412500D03*
X145555000Y-74212500D03*
X145555000Y-75012500D03*
D69*
X146652500Y-75110000D03*
%TD*%
D17*
%TO.C,D7*%
X134312500Y-128650000D03*
X135887500Y-128650000D03*
%TD*%
D70*
%TO.C,U7*%
X135395000Y-105600000D03*
X136665000Y-105600000D03*
X137935000Y-105600000D03*
X139205000Y-105600000D03*
X139205000Y-98400000D03*
X137935000Y-98400000D03*
X136665000Y-98400000D03*
X135395000Y-98400000D03*
%TD*%
D32*
%TO.C,C2*%
X149500000Y-75142500D03*
X149500000Y-74182500D03*
%TD*%
D16*
%TO.C,R26*%
X165750000Y-68490000D03*
X165750000Y-69510000D03*
%TD*%
D53*
%TO.C,C22*%
X154700000Y-109650000D03*
X154700000Y-111550000D03*
%TD*%
D33*
%TO.C,R24*%
X161640000Y-97007500D03*
X160620000Y-97007500D03*
%TD*%
D26*
%TO.C,C6*%
X134370000Y-87362500D03*
X135330000Y-87362500D03*
%TD*%
D22*
%TO.C,R54*%
X134690000Y-73700000D03*
X135710000Y-73700000D03*
%TD*%
D24*
%TO.C,C5*%
X142380000Y-76000000D03*
X141420000Y-76000000D03*
%TD*%
D22*
%TO.C,R34*%
X148040000Y-135262500D03*
X149060000Y-135262500D03*
%TD*%
%TO.C,R43*%
X141340000Y-107850000D03*
X142360000Y-107850000D03*
%TD*%
D32*
%TO.C,C11*%
X141350000Y-82280000D03*
X141350000Y-81320000D03*
%TD*%
D21*
%TO.C,R25*%
X158060000Y-133110000D03*
X158060000Y-132090000D03*
%TD*%
D43*
%TO.C,U9*%
X142787500Y-111300000D03*
X142787500Y-110350000D03*
X142787500Y-109400000D03*
X140512500Y-109400000D03*
X140512500Y-111300000D03*
%TD*%
D32*
%TO.C,C14*%
X138950000Y-89417500D03*
X138950000Y-88457500D03*
%TD*%
D71*
%TO.C,D15*%
X144450000Y-113450000D03*
X141150000Y-113450000D03*
%TD*%
D18*
%TO.C,Q8*%
X148537500Y-118912500D03*
X148537500Y-117012500D03*
X146662500Y-117962500D03*
%TD*%
D72*
%TO.C,J4*%
X153300000Y-137950000D03*
D73*
X151300000Y-137950000D03*
%TD*%
D74*
%TO.C,J2*%
X139300000Y-135462500D03*
X144300000Y-135462500D03*
X139300000Y-132962500D03*
X144300000Y-132962500D03*
X139300000Y-130462500D03*
X144300000Y-130462500D03*
D75*
X139300000Y-127962500D03*
D74*
X144300000Y-127962500D03*
X139300000Y-125462500D03*
X144300000Y-125462500D03*
X139300000Y-122962500D03*
X144300000Y-122962500D03*
X139300000Y-120462500D03*
X144300000Y-120462500D03*
X139300000Y-117962500D03*
X144300000Y-117962500D03*
%TD*%
D76*
%TO.C,BZ1*%
X152300000Y-108212500D03*
D77*
X152300000Y-103212500D03*
%TD*%
D74*
%TO.C,J1*%
X165350000Y-117937500D03*
X160350000Y-117937500D03*
X165350000Y-120437500D03*
X160350000Y-120437500D03*
X165350000Y-122937500D03*
X160350000Y-122937500D03*
D75*
X165350000Y-125437500D03*
D74*
X160350000Y-125437500D03*
X165350000Y-127937500D03*
X160350000Y-127937500D03*
X165350000Y-130437500D03*
X160350000Y-130437500D03*
X165350000Y-132937500D03*
X160350000Y-132937500D03*
X165350000Y-135437500D03*
X160350000Y-135437500D03*
%TD*%
D78*
%TO.C,J3*%
X144100000Y-65675000D03*
D79*
X141560000Y-65675000D03*
X144100000Y-68215000D03*
X141560000Y-68215000D03*
%TD*%
%LPD*%
M02*
