%TF.GenerationSoftware,KiCad,Pcbnew,7.0.2-0*%
%TF.CreationDate,2023-10-23T21:08:08-05:00*%
%TF.ProjectId,Flight Computer,466c6967-6874-4204-936f-6d7075746572,1.1*%
%TF.SameCoordinates,Original*%
%TF.FileFunction,Copper,L2,Inr*%
%TF.FilePolarity,Positive*%
%FSLAX46Y46*%
G04 Gerber Fmt 4.6, Leading zero omitted, Abs format (unit mm)*
G04 Created by KiCad (PCBNEW 7.0.2-0) date 2023-10-23 21:08:08*
%MOMM*%
%LPD*%
G01*
G04 APERTURE LIST*
G04 Aperture macros list*
%AMRoundRect*
0 Rectangle with rounded corners*
0 $1 Rounding radius*
0 $2 $3 $4 $5 $6 $7 $8 $9 X,Y pos of 4 corners*
0 Add a 4 corners polygon primitive as box body*
4,1,4,$2,$3,$4,$5,$6,$7,$8,$9,$2,$3,0*
0 Add four circle primitives for the rounded corners*
1,1,$1+$1,$2,$3*
1,1,$1+$1,$4,$5*
1,1,$1+$1,$6,$7*
1,1,$1+$1,$8,$9*
0 Add four rect primitives between the rounded corners*
20,1,$1+$1,$2,$3,$4,$5,0*
20,1,$1+$1,$4,$5,$6,$7,0*
20,1,$1+$1,$6,$7,$8,$9,0*
20,1,$1+$1,$8,$9,$2,$3,0*%
G04 Aperture macros list end*
%TA.AperFunction,ComponentPad*%
%ADD10RoundRect,0.200000X0.450000X-0.200000X0.450000X0.200000X-0.450000X0.200000X-0.450000X-0.200000X0*%
%TD*%
%TA.AperFunction,ComponentPad*%
%ADD11O,1.300000X0.800000*%
%TD*%
%TA.AperFunction,ComponentPad*%
%ADD12O,2.100000X1.000000*%
%TD*%
%TA.AperFunction,ComponentPad*%
%ADD13O,1.800000X1.000000*%
%TD*%
%TA.AperFunction,ComponentPad*%
%ADD14RoundRect,0.200000X0.200000X0.450000X-0.200000X0.450000X-0.200000X-0.450000X0.200000X-0.450000X0*%
%TD*%
%TA.AperFunction,ComponentPad*%
%ADD15O,0.800000X1.300000*%
%TD*%
%TA.AperFunction,ComponentPad*%
%ADD16C,0.600000*%
%TD*%
%TA.AperFunction,ComponentPad*%
%ADD17RoundRect,0.200000X-0.450000X0.200000X-0.450000X-0.200000X0.450000X-0.200000X0.450000X0.200000X0*%
%TD*%
%TA.AperFunction,ComponentPad*%
%ADD18RoundRect,0.250000X-0.625000X0.350000X-0.625000X-0.350000X0.625000X-0.350000X0.625000X0.350000X0*%
%TD*%
%TA.AperFunction,ComponentPad*%
%ADD19O,1.750000X1.200000*%
%TD*%
%TA.AperFunction,ComponentPad*%
%ADD20C,2.000000*%
%TD*%
%TA.AperFunction,ComponentPad*%
%ADD21R,2.000000X2.000000*%
%TD*%
%TA.AperFunction,ViaPad*%
%ADD22C,0.500000*%
%TD*%
%TA.AperFunction,ViaPad*%
%ADD23C,0.525000*%
%TD*%
G04 APERTURE END LIST*
D10*
%TO.N,+5V*%
%TO.C,J8*%
X118270000Y-54690000D03*
D11*
%TO.N,/UART3 RX*%
X118270000Y-53440000D03*
%TO.N,/UART3 TX*%
X118270000Y-52190000D03*
%TO.N,GND*%
X118270000Y-50940000D03*
%TD*%
D12*
%TO.N,Net-(J7-SHIELD)*%
%TO.C,J7*%
X116640000Y-46642500D03*
D13*
X120840000Y-46642500D03*
D12*
X116640000Y-38002500D03*
D13*
X120840000Y-38002500D03*
%TD*%
D14*
%TO.N,/NRST*%
%TO.C,J6*%
X100080000Y-23220000D03*
D15*
%TO.N,/SWCLK*%
X98830000Y-23220000D03*
%TO.N,/SWDIO*%
X97580000Y-23220000D03*
%TO.N,GND*%
X96330000Y-23220000D03*
%TD*%
D10*
%TO.N,+3.3V*%
%TO.C,J9*%
X118300000Y-30857500D03*
D11*
%TO.N,/I2C2 SDA*%
X118300000Y-29607500D03*
%TO.N,/I2C2 SCL*%
X118300000Y-28357500D03*
%TO.N,GND*%
X118300000Y-27107500D03*
%TD*%
D16*
%TO.N,GND*%
%TO.C,U8*%
X112300000Y-65057500D03*
X110800000Y-65057500D03*
X111550000Y-65557500D03*
X112300000Y-66057500D03*
X110800000Y-66057500D03*
%TD*%
D17*
%TO.N,+3.3V*%
%TO.C,J5*%
X88760000Y-32840000D03*
D11*
%TO.N,/SPI2 MISO*%
X88760000Y-34090000D03*
%TO.N,/SPI2 MOSI*%
X88760000Y-35340000D03*
%TO.N,/SPI2 SCK*%
X88760000Y-36590000D03*
%TO.N,GND*%
X88760000Y-37840000D03*
%TD*%
D18*
%TO.N,GND*%
%TO.C,J4*%
X115140000Y-59430000D03*
D19*
%TO.N,/Main battery connector*%
X115140000Y-61430000D03*
%TD*%
D20*
%TO.N,+12V*%
%TO.C,J2*%
X95200000Y-95920000D03*
X100200000Y-95920000D03*
%TO.N,/Pyrotechnic Channels/Pyro Channel A*%
X95200000Y-92420000D03*
X100200000Y-92420000D03*
%TO.N,+12V*%
X95200000Y-88920000D03*
X100200000Y-88920000D03*
%TO.N,/Pyrotechnic Channels/Pyro Channel B*%
X95200000Y-85420000D03*
X100200000Y-85420000D03*
%TO.N,+12V*%
X95200000Y-81920000D03*
X100200000Y-81920000D03*
%TO.N,/Pyrotechnic Channels/Pyro Channel C*%
X95200000Y-78420000D03*
X100200000Y-78420000D03*
%TO.N,+12V*%
X95200000Y-74920000D03*
X100200000Y-74920000D03*
%TO.N,/Pyrotechnic Channels/Pyro Channel D*%
X95200000Y-71420000D03*
X100200000Y-71420000D03*
%TD*%
D21*
%TO.N,+5V*%
%TO.C,BZ1*%
X103500000Y-64590000D03*
D20*
%TO.N,Net-(BZ1-+)*%
X103500000Y-59590000D03*
%TD*%
%TO.N,/Pyrotechnic Channels/Pyro Channel E*%
%TO.C,J1*%
X111790000Y-71420000D03*
X106790000Y-71420000D03*
%TO.N,+12V*%
X111790000Y-74920000D03*
X106790000Y-74920000D03*
%TO.N,/Pyrotechnic Channels/Pyro Channel F*%
X111790000Y-78420000D03*
X106790000Y-78420000D03*
%TO.N,+12V*%
X111790000Y-81920000D03*
X106790000Y-81920000D03*
%TO.N,/Main battery connector*%
X111790000Y-85420000D03*
X106790000Y-85420000D03*
%TO.N,/Main battery in*%
X111790000Y-88920000D03*
X106790000Y-88920000D03*
%TO.N,+12V*%
X111790000Y-92420000D03*
X106790000Y-92420000D03*
%TO.N,GND*%
X111790000Y-95920000D03*
X106790000Y-95920000D03*
%TD*%
D22*
%TO.N,+5V*%
X107250000Y-63420000D03*
X113440000Y-58530000D03*
X108500000Y-69620000D03*
X113440000Y-59660000D03*
%TO.N,+3.3V*%
X87550000Y-64400000D03*
X87170000Y-51820000D03*
X87710000Y-56570000D03*
X86010000Y-53430000D03*
X89520000Y-23100000D03*
X87550000Y-68620000D03*
X101750000Y-25470000D03*
X90080000Y-42560000D03*
X87550000Y-67320000D03*
X89550000Y-44437500D03*
X90770000Y-23100000D03*
X93900000Y-31720000D03*
X85210000Y-26390000D03*
X117830000Y-21480000D03*
X93190000Y-69460000D03*
X87550000Y-65900000D03*
X86450000Y-68620000D03*
X89820000Y-24010000D03*
X94776731Y-55693270D03*
X106512500Y-55020000D03*
X109420000Y-37920000D03*
X110780000Y-36320000D03*
X92020000Y-25239500D03*
X93250000Y-23120000D03*
X113515378Y-44524622D03*
X85250000Y-49232500D03*
X91950000Y-69632500D03*
X101674500Y-36201000D03*
X118300000Y-32160000D03*
X117950500Y-34132500D03*
X118280000Y-25370000D03*
X91210000Y-38170000D03*
X101266208Y-29795738D03*
X92040000Y-23150000D03*
%TO.N,GND*%
X88000000Y-48732500D03*
X92980000Y-25239500D03*
X117020000Y-77540000D03*
X89080000Y-91670000D03*
X90250000Y-70170000D03*
X90730000Y-74760000D03*
X84800000Y-48032500D03*
X101720000Y-23710000D03*
X120700000Y-62832500D03*
X95160000Y-27110000D03*
X86180000Y-40500000D03*
X100700000Y-28620000D03*
X118000000Y-65420000D03*
X90290000Y-92740000D03*
X108430000Y-56150000D03*
X109180000Y-36920000D03*
X114420000Y-38560000D03*
X110750000Y-26100000D03*
X85550000Y-73880000D03*
X91210000Y-35180000D03*
X102200000Y-75420000D03*
X117100000Y-72070000D03*
X89550000Y-43470000D03*
X89830000Y-24960000D03*
X85560000Y-91120000D03*
X95600000Y-63820000D03*
X103350000Y-33007998D03*
X85180000Y-24260000D03*
X97420000Y-62060000D03*
X117920000Y-79300000D03*
X108250000Y-67682500D03*
X110070000Y-60180000D03*
X98900000Y-47882500D03*
X104630000Y-61370000D03*
X93950000Y-55670000D03*
X90250000Y-69270000D03*
X90150000Y-19340000D03*
X121450000Y-73870000D03*
X113050000Y-49032500D03*
X86810000Y-26700000D03*
X104800000Y-75470000D03*
X84820000Y-51820000D03*
X109060000Y-45920000D03*
X89090000Y-93240000D03*
X89450000Y-41310000D03*
X89040000Y-87230000D03*
X101500000Y-60032500D03*
X90270000Y-86710000D03*
X117870000Y-23040000D03*
X90650000Y-59370000D03*
X92667869Y-60037869D03*
X116300000Y-65432500D03*
X121450000Y-79630000D03*
X102500000Y-85400000D03*
X89130000Y-73680000D03*
X117720000Y-48140000D03*
X89050000Y-75310000D03*
X100000000Y-36220000D03*
X89050000Y-85680000D03*
X117055000Y-34670000D03*
X121805000Y-34620000D03*
X107140000Y-61350000D03*
X102200000Y-80500000D03*
X104400419Y-55020000D03*
X120040000Y-27110000D03*
X105400000Y-67832500D03*
X85550000Y-79630000D03*
X100000000Y-50370000D03*
X90410000Y-80700000D03*
X106350000Y-67832500D03*
X101510000Y-27870000D03*
X92804977Y-31765023D03*
X91400000Y-19340000D03*
X108760000Y-52432500D03*
X109050000Y-44950000D03*
X104800000Y-80600000D03*
X118200000Y-77900000D03*
X89150000Y-70920000D03*
X116750000Y-69320000D03*
X117930000Y-73350000D03*
X88740000Y-81100000D03*
X89130000Y-79690000D03*
X104510000Y-66580000D03*
X118430000Y-71650000D03*
X92650000Y-19370000D03*
X107140000Y-60400000D03*
X114950000Y-45770000D03*
X112240000Y-69010000D03*
X96900000Y-64720000D03*
X116810000Y-76550000D03*
X85550000Y-85380000D03*
X94350000Y-58470000D03*
X110210000Y-39990000D03*
D23*
X118030000Y-82640000D03*
D22*
X86530000Y-41652500D03*
X111250000Y-39270000D03*
X92657760Y-28292825D03*
X94100000Y-62870000D03*
%TO.N,/SWDIO*%
X93320000Y-41120000D03*
X95360000Y-22390000D03*
%TO.N,/SWCLK*%
X93220000Y-40240000D03*
%TO.N,/NRST*%
X93430000Y-42780000D03*
%TO.N,/UART3 TX*%
X116860000Y-54732500D03*
%TO.N,/I2C2 SDA*%
X104550000Y-49580000D03*
%TO.N,/I2C2 SCL*%
X103840000Y-50390000D03*
%TO.N,/SDMMC Data 2*%
X106228415Y-26048415D03*
X107360000Y-31020000D03*
%TO.N,/SDMMC Data 3*%
X106370000Y-30720000D03*
X106200000Y-26910000D03*
%TO.N,/SDMMC Command*%
X102200000Y-33520000D03*
%TO.N,/SDMMC Clock*%
X105200000Y-34320000D03*
%TO.N,/SDMMC Data 0*%
X112600000Y-26120000D03*
X105437002Y-44105497D03*
%TO.N,/SDMMC Data 1*%
X105710000Y-42612500D03*
X113690000Y-26120000D03*
%TO.N,/SD Card Detect*%
X111070000Y-31842500D03*
X104360500Y-31640000D03*
%TO.N,/Pyro Channel A Trigger*%
X95701831Y-58897951D03*
X88590000Y-88230000D03*
%TO.N,/Pyro Channel B Trigger*%
X96725000Y-58615000D03*
X88510000Y-83390000D03*
%TO.N,/Pyro Channel C Trigger*%
X96469395Y-59617434D03*
X88760000Y-77400000D03*
%TO.N,/Pyro Channel E Trigger*%
X114830000Y-74450000D03*
X102900000Y-54690000D03*
%TO.N,/Pyro Channel F Trigger*%
X117060000Y-80980000D03*
X105090000Y-56010000D03*
%TO.N,/Pyro Channel D Trigger*%
X97505000Y-59325000D03*
X86139691Y-62987691D03*
%TO.N,/Pyro A Continuity Voltage*%
X101918415Y-68741585D03*
X93294710Y-50582500D03*
%TO.N,/Pyro B Continuity Voltage*%
X101016830Y-68583170D03*
X93500324Y-51449676D03*
%TO.N,/Pyro C Continuity Voltage*%
X92468412Y-52179334D03*
X101100000Y-69400000D03*
%TO.N,/Pyro E Continuity Voltage*%
X96589693Y-51908998D03*
X102750000Y-68080000D03*
%TO.N,/Pyro F Continuity Voltage*%
X101863415Y-67936585D03*
X95098967Y-51998603D03*
%TO.N,/Pyro D Continuity Voltage*%
X100173659Y-69226341D03*
X93107954Y-53562045D03*
%TO.N,/Ignition Battery Voltage*%
X104230000Y-81870000D03*
X97658242Y-51908000D03*
%TO.N,/Main battery in*%
X121021250Y-68711250D03*
%TO.N,Net-(U8-PG)*%
X109742767Y-64196153D03*
X108950000Y-62020000D03*
%TO.N,/High G Interrupt*%
X97225500Y-39170000D03*
X96970000Y-25450000D03*
%TO.N,/Chip Select Low G Gyro*%
X96200000Y-35997500D03*
X94095937Y-26420500D03*
%TO.N,/SPI1 SCK*%
X95300000Y-28032500D03*
X96370000Y-34020000D03*
X98604495Y-32020000D03*
%TO.N,/SPI1 MOSI*%
X96450000Y-31794500D03*
X96350000Y-33082000D03*
%TO.N,/SPI1 MISO*%
X98150000Y-33692454D03*
%TO.N,/Low G Gyro Interrupt*%
X95700000Y-36690000D03*
X93200000Y-29020000D03*
%TO.N,/Chip Select Low G Accel*%
X95380000Y-39170000D03*
X92003544Y-28854118D03*
%TO.N,/Low G Accel Interrupt*%
X94437076Y-39167384D03*
X91000000Y-29170000D03*
%TO.N,/Altimeter Interrupt*%
X88910000Y-39120000D03*
X88745000Y-27675000D03*
%TO.N,/QSPI Clock*%
X92925000Y-58645000D03*
X90325000Y-56045000D03*
%TO.N,/GPS Reset*%
X101947286Y-40045072D03*
%TO.N,/GPS External Interrupt*%
X104000000Y-40050000D03*
%TO.N,/UART2 TX*%
X98750000Y-43332500D03*
%TO.N,/UART2 RX*%
X99299665Y-42039665D03*
%TO.N,/USB 5V in*%
X117850500Y-43882500D03*
X114880601Y-40317617D03*
%TO.N,/Chip Select Altimeter*%
X88670000Y-26760000D03*
X89530000Y-39747500D03*
X91380000Y-23710000D03*
%TO.N,/Chip Select High G Accel*%
X98173946Y-39169500D03*
X97852500Y-25050000D03*
%TO.N,/SPI2 MISO*%
X93930000Y-43610000D03*
%TO.N,/SPI2 MOSI*%
X92790000Y-38680000D03*
X94603872Y-42876128D03*
%TO.N,/SPI2 SCK*%
X93630000Y-41950000D03*
%TO.N,/Pyro A Continuity LED*%
X101380000Y-47900000D03*
X93420000Y-48510000D03*
X104610000Y-44980000D03*
X85000000Y-57680000D03*
%TO.N,/Pyro B Continuity LED*%
X84865000Y-58645000D03*
X94149198Y-49135593D03*
X102320000Y-47710000D03*
X105310000Y-45590000D03*
%TO.N,/Pyro C Continuity LED*%
X85755000Y-58745000D03*
X103230000Y-47510000D03*
X105060000Y-46370000D03*
X93400000Y-49610000D03*
%TO.N,/Pyro D Continuity LED*%
X94150789Y-50083030D03*
X103280000Y-48310000D03*
X105120000Y-47230000D03*
X85650000Y-59640000D03*
%TO.N,/Pyro E Continuity LED*%
X110710000Y-51450000D03*
X117740000Y-70400000D03*
%TO.N,/Pyro F Continuity LED*%
X110940000Y-52970000D03*
X118040000Y-76960000D03*
%TD*%
%TA.AperFunction,Conductor*%
%TO.N,GND*%
G36*
X120002777Y-18833155D02*
G01*
X120296701Y-18849662D01*
X120307724Y-18850904D01*
X120595224Y-18899752D01*
X120606018Y-18902215D01*
X120886251Y-18982949D01*
X120896722Y-18986613D01*
X121166134Y-19098208D01*
X121176136Y-19103025D01*
X121431354Y-19244078D01*
X121440755Y-19249985D01*
X121678575Y-19418728D01*
X121687254Y-19425649D01*
X121717388Y-19452578D01*
X121904697Y-19619967D01*
X121912532Y-19627802D01*
X122006053Y-19732452D01*
X122106850Y-19845245D01*
X122113771Y-19853924D01*
X122282514Y-20091744D01*
X122288421Y-20101145D01*
X122429474Y-20356363D01*
X122434291Y-20366365D01*
X122545884Y-20635773D01*
X122549551Y-20646252D01*
X122556205Y-20669347D01*
X122629785Y-20924750D01*
X122630280Y-20926466D01*
X122632750Y-20937290D01*
X122681594Y-21224770D01*
X122682837Y-21235802D01*
X122699344Y-21529722D01*
X122699500Y-21535273D01*
X122699500Y-95484905D01*
X122699499Y-95529728D01*
X122699343Y-95535277D01*
X122682837Y-95829197D01*
X122681594Y-95840229D01*
X122632750Y-96127709D01*
X122630280Y-96138533D01*
X122549551Y-96418747D01*
X122545884Y-96429226D01*
X122434291Y-96698634D01*
X122429474Y-96708636D01*
X122288421Y-96963854D01*
X122282514Y-96973255D01*
X122113771Y-97211075D01*
X122106850Y-97219754D01*
X121912540Y-97437189D01*
X121904689Y-97445040D01*
X121687254Y-97639350D01*
X121678575Y-97646271D01*
X121440755Y-97815014D01*
X121431354Y-97820921D01*
X121176136Y-97961974D01*
X121166134Y-97966791D01*
X120896726Y-98078384D01*
X120886247Y-98082051D01*
X120606033Y-98162780D01*
X120595209Y-98165250D01*
X120307729Y-98214094D01*
X120296697Y-98215337D01*
X120002778Y-98231844D01*
X119997227Y-98232000D01*
X87013894Y-98232000D01*
X87004645Y-98231567D01*
X86709649Y-98203886D01*
X86698941Y-98202287D01*
X86407123Y-98142227D01*
X86396652Y-98139467D01*
X86113150Y-98047901D01*
X86103044Y-98044015D01*
X85831227Y-97922031D01*
X85821606Y-97917064D01*
X85647937Y-97815014D01*
X85564738Y-97766125D01*
X85555733Y-97760149D01*
X85316876Y-97582056D01*
X85308568Y-97575123D01*
X85090595Y-97372014D01*
X85083089Y-97364211D01*
X85055804Y-97332548D01*
X84888598Y-97138511D01*
X84882005Y-97129956D01*
X84713317Y-96884353D01*
X84707688Y-96875111D01*
X84700814Y-96862298D01*
X84566844Y-96612581D01*
X84562261Y-96602789D01*
X84450921Y-96326426D01*
X84447436Y-96316194D01*
X84366940Y-96029314D01*
X84364595Y-96018770D01*
X84315912Y-95724832D01*
X84314732Y-95714097D01*
X84303009Y-95500000D01*
X84844700Y-95500000D01*
X84863866Y-95731305D01*
X84911650Y-95919999D01*
X84920844Y-95956304D01*
X85014073Y-96168843D01*
X85014076Y-96168849D01*
X85141021Y-96363153D01*
X85298216Y-96533913D01*
X85481374Y-96676470D01*
X85685497Y-96786936D01*
X85905019Y-96862298D01*
X86133951Y-96900500D01*
X86133953Y-96900500D01*
X86366047Y-96900500D01*
X86366049Y-96900500D01*
X86594981Y-96862298D01*
X86814503Y-96786936D01*
X87018626Y-96676470D01*
X87201784Y-96533913D01*
X87358979Y-96363153D01*
X87485924Y-96168849D01*
X87579157Y-95956300D01*
X87588350Y-95919999D01*
X93894531Y-95919999D01*
X93914364Y-96146689D01*
X93973262Y-96366500D01*
X94069430Y-96572731D01*
X94069431Y-96572733D01*
X94069432Y-96572734D01*
X94199953Y-96759139D01*
X94360861Y-96920047D01*
X94547266Y-97050568D01*
X94547267Y-97050568D01*
X94547268Y-97050569D01*
X94753499Y-97146737D01*
X94753500Y-97146737D01*
X94753504Y-97146739D01*
X94973308Y-97205635D01*
X95124435Y-97218857D01*
X95199999Y-97225468D01*
X95199999Y-97225467D01*
X95200000Y-97225468D01*
X95426692Y-97205635D01*
X95646496Y-97146739D01*
X95852734Y-97050568D01*
X96039139Y-96920047D01*
X96200047Y-96759139D01*
X96330568Y-96572734D01*
X96426739Y-96366496D01*
X96485635Y-96146692D01*
X96505468Y-95920000D01*
X96505468Y-95919999D01*
X98894531Y-95919999D01*
X98914364Y-96146689D01*
X98973262Y-96366500D01*
X99069430Y-96572731D01*
X99069431Y-96572733D01*
X99069432Y-96572734D01*
X99199953Y-96759139D01*
X99360861Y-96920047D01*
X99547266Y-97050568D01*
X99547267Y-97050568D01*
X99547268Y-97050569D01*
X99753499Y-97146737D01*
X99753500Y-97146737D01*
X99753504Y-97146739D01*
X99973308Y-97205635D01*
X100124436Y-97218857D01*
X100199999Y-97225468D01*
X100199999Y-97225467D01*
X100200000Y-97225468D01*
X100426692Y-97205635D01*
X100646496Y-97146739D01*
X100852734Y-97050568D01*
X101039139Y-96920047D01*
X101200047Y-96759139D01*
X101330568Y-96572734D01*
X101426739Y-96366496D01*
X101485635Y-96146692D01*
X101505468Y-95920000D01*
X101505468Y-95919999D01*
X105284859Y-95919999D01*
X105305387Y-96167736D01*
X105366411Y-96408716D01*
X105466270Y-96636371D01*
X105566563Y-96789881D01*
X106264070Y-96092373D01*
X106266884Y-96105915D01*
X106336442Y-96240156D01*
X106439638Y-96350652D01*
X106568819Y-96429209D01*
X106620002Y-96443550D01*
X105919942Y-97143610D01*
X105966767Y-97180055D01*
X106185390Y-97298367D01*
X106420508Y-97379083D01*
X106665708Y-97420000D01*
X106914292Y-97420000D01*
X107159491Y-97379083D01*
X107394609Y-97298367D01*
X107613232Y-97180055D01*
X107660056Y-97143610D01*
X106961568Y-96445121D01*
X107078458Y-96394349D01*
X107195739Y-96298934D01*
X107282928Y-96175415D01*
X107313355Y-96089801D01*
X108013435Y-96789881D01*
X108113729Y-96636371D01*
X108213588Y-96408716D01*
X108274612Y-96167736D01*
X108295140Y-95919999D01*
X110284859Y-95919999D01*
X110305387Y-96167736D01*
X110366411Y-96408716D01*
X110466270Y-96636371D01*
X110566563Y-96789881D01*
X111264070Y-96092373D01*
X111266884Y-96105915D01*
X111336442Y-96240156D01*
X111439638Y-96350652D01*
X111568819Y-96429209D01*
X111620002Y-96443550D01*
X110919942Y-97143610D01*
X110966767Y-97180055D01*
X111185390Y-97298367D01*
X111420508Y-97379083D01*
X111665708Y-97420000D01*
X111914292Y-97420000D01*
X112159491Y-97379083D01*
X112394609Y-97298367D01*
X112613232Y-97180055D01*
X112660056Y-97143610D01*
X111961568Y-96445121D01*
X112078458Y-96394349D01*
X112195739Y-96298934D01*
X112282928Y-96175415D01*
X112313355Y-96089801D01*
X113013435Y-96789881D01*
X113113729Y-96636371D01*
X113213588Y-96408716D01*
X113274612Y-96167736D01*
X113295140Y-95920000D01*
X113274612Y-95672263D01*
X113230989Y-95500000D01*
X119344700Y-95500000D01*
X119363866Y-95731305D01*
X119411650Y-95919999D01*
X119420844Y-95956304D01*
X119514073Y-96168843D01*
X119514076Y-96168849D01*
X119641021Y-96363153D01*
X119798216Y-96533913D01*
X119981374Y-96676470D01*
X120185497Y-96786936D01*
X120405019Y-96862298D01*
X120633951Y-96900500D01*
X120633953Y-96900500D01*
X120866047Y-96900500D01*
X120866049Y-96900500D01*
X121094981Y-96862298D01*
X121314503Y-96786936D01*
X121518626Y-96676470D01*
X121701784Y-96533913D01*
X121858979Y-96363153D01*
X121985924Y-96168849D01*
X122079157Y-95956300D01*
X122136134Y-95731305D01*
X122155300Y-95500000D01*
X122136134Y-95268695D01*
X122079157Y-95043700D01*
X122072284Y-95028032D01*
X122024875Y-94919950D01*
X121985924Y-94831151D01*
X121858979Y-94636847D01*
X121701784Y-94466087D01*
X121518626Y-94323530D01*
X121314503Y-94213064D01*
X121314502Y-94213063D01*
X121314501Y-94213063D01*
X121094981Y-94137702D01*
X120866049Y-94099500D01*
X120633951Y-94099500D01*
X120481329Y-94124968D01*
X120405018Y-94137702D01*
X120185498Y-94213063D01*
X119981373Y-94323530D01*
X119798217Y-94466086D01*
X119641021Y-94636846D01*
X119514073Y-94831156D01*
X119420844Y-95043695D01*
X119411432Y-95080861D01*
X119363866Y-95268695D01*
X119344700Y-95500000D01*
X113230989Y-95500000D01*
X113213588Y-95431283D01*
X113113729Y-95203628D01*
X113013435Y-95050117D01*
X112315929Y-95747622D01*
X112313116Y-95734085D01*
X112243558Y-95599844D01*
X112140362Y-95489348D01*
X112011181Y-95410791D01*
X111959994Y-95396449D01*
X112660056Y-94696388D01*
X112660057Y-94696388D01*
X112613231Y-94659944D01*
X112394609Y-94541632D01*
X112159491Y-94460916D01*
X111914292Y-94420000D01*
X111665708Y-94420000D01*
X111420508Y-94460916D01*
X111185393Y-94541631D01*
X110966766Y-94659946D01*
X110919943Y-94696389D01*
X111618432Y-95394878D01*
X111501542Y-95445651D01*
X111384261Y-95541066D01*
X111297072Y-95664585D01*
X111266644Y-95750198D01*
X110566564Y-95050118D01*
X110466268Y-95203632D01*
X110366411Y-95431283D01*
X110305387Y-95672263D01*
X110284859Y-95919999D01*
X108295140Y-95919999D01*
X108274612Y-95672263D01*
X108213588Y-95431283D01*
X108113729Y-95203628D01*
X108013435Y-95050117D01*
X107315929Y-95747622D01*
X107313116Y-95734085D01*
X107243558Y-95599844D01*
X107140362Y-95489348D01*
X107011181Y-95410791D01*
X106959994Y-95396449D01*
X107660056Y-94696388D01*
X107660057Y-94696388D01*
X107613231Y-94659944D01*
X107394609Y-94541632D01*
X107159491Y-94460916D01*
X106914292Y-94420000D01*
X106665708Y-94420000D01*
X106420508Y-94460916D01*
X106185393Y-94541631D01*
X105966766Y-94659946D01*
X105919943Y-94696389D01*
X106618432Y-95394878D01*
X106501542Y-95445651D01*
X106384261Y-95541066D01*
X106297072Y-95664585D01*
X106266644Y-95750198D01*
X105566564Y-95050118D01*
X105466268Y-95203632D01*
X105366411Y-95431283D01*
X105305387Y-95672263D01*
X105284859Y-95919999D01*
X101505468Y-95919999D01*
X101485635Y-95693308D01*
X101426739Y-95473504D01*
X101418991Y-95456889D01*
X101330569Y-95267268D01*
X101286008Y-95203628D01*
X101200047Y-95080861D01*
X101039139Y-94919953D01*
X100852734Y-94789432D01*
X100852733Y-94789431D01*
X100852731Y-94789430D01*
X100646500Y-94693262D01*
X100426689Y-94634364D01*
X100200000Y-94614531D01*
X99973310Y-94634364D01*
X99753499Y-94693262D01*
X99547268Y-94789430D01*
X99360864Y-94919950D01*
X99199950Y-95080864D01*
X99069430Y-95267268D01*
X98973262Y-95473499D01*
X98914364Y-95693310D01*
X98894531Y-95919999D01*
X96505468Y-95919999D01*
X96485635Y-95693308D01*
X96426739Y-95473504D01*
X96418991Y-95456889D01*
X96330569Y-95267268D01*
X96286008Y-95203628D01*
X96200047Y-95080861D01*
X96039139Y-94919953D01*
X95852734Y-94789432D01*
X95852733Y-94789431D01*
X95852731Y-94789430D01*
X95646500Y-94693262D01*
X95426689Y-94634364D01*
X95199999Y-94614531D01*
X94973310Y-94634364D01*
X94753499Y-94693262D01*
X94547268Y-94789430D01*
X94360864Y-94919950D01*
X94199950Y-95080864D01*
X94069430Y-95267268D01*
X93973262Y-95473499D01*
X93914364Y-95693310D01*
X93894531Y-95919999D01*
X87588350Y-95919999D01*
X87636134Y-95731305D01*
X87655300Y-95500000D01*
X87636134Y-95268695D01*
X87579157Y-95043700D01*
X87572284Y-95028032D01*
X87524875Y-94919950D01*
X87485924Y-94831151D01*
X87358979Y-94636847D01*
X87242209Y-94510000D01*
X89188672Y-94510000D01*
X89207931Y-94693238D01*
X89264867Y-94868468D01*
X89356991Y-95028032D01*
X89480276Y-95164954D01*
X89629336Y-95273252D01*
X89797655Y-95348193D01*
X89977876Y-95386500D01*
X89977878Y-95386500D01*
X90162122Y-95386500D01*
X90162124Y-95386500D01*
X90342345Y-95348193D01*
X90510664Y-95273252D01*
X90659724Y-95164954D01*
X90783009Y-95028032D01*
X90875133Y-94868468D01*
X90932069Y-94693238D01*
X90951328Y-94510000D01*
X90932069Y-94326762D01*
X90875133Y-94151532D01*
X90783009Y-93991968D01*
X90659724Y-93855046D01*
X90510664Y-93746748D01*
X90462869Y-93725468D01*
X90342346Y-93671807D01*
X90282271Y-93659038D01*
X90162124Y-93633500D01*
X89977876Y-93633500D01*
X89887765Y-93652653D01*
X89797653Y-93671807D01*
X89629337Y-93746747D01*
X89480276Y-93855045D01*
X89356991Y-93991968D01*
X89264867Y-94151531D01*
X89264867Y-94151532D01*
X89207931Y-94326762D01*
X89188672Y-94510000D01*
X87242209Y-94510000D01*
X87201784Y-94466087D01*
X87018626Y-94323530D01*
X86814503Y-94213064D01*
X86814502Y-94213063D01*
X86814501Y-94213063D01*
X86594981Y-94137702D01*
X86594980Y-94137702D01*
X86366049Y-94099500D01*
X86133951Y-94099500D01*
X85981329Y-94124968D01*
X85905018Y-94137702D01*
X85685498Y-94213063D01*
X85481373Y-94323530D01*
X85298217Y-94466086D01*
X85141021Y-94636846D01*
X85014073Y-94831156D01*
X84920844Y-95043695D01*
X84911432Y-95080861D01*
X84863866Y-95268695D01*
X84844700Y-95500000D01*
X84303009Y-95500000D01*
X84300648Y-95456889D01*
X84300500Y-95451476D01*
X84300500Y-92419999D01*
X93894531Y-92419999D01*
X93914364Y-92646689D01*
X93973262Y-92866500D01*
X94069430Y-93072731D01*
X94069431Y-93072733D01*
X94069432Y-93072734D01*
X94199953Y-93259139D01*
X94360861Y-93420047D01*
X94547266Y-93550568D01*
X94547267Y-93550568D01*
X94547268Y-93550569D01*
X94753499Y-93646737D01*
X94753500Y-93646737D01*
X94753504Y-93646739D01*
X94973308Y-93705635D01*
X95124436Y-93718856D01*
X95199999Y-93725468D01*
X95199999Y-93725467D01*
X95200000Y-93725468D01*
X95426692Y-93705635D01*
X95646496Y-93646739D01*
X95852734Y-93550568D01*
X96039139Y-93420047D01*
X96200047Y-93259139D01*
X96330568Y-93072734D01*
X96426739Y-92866496D01*
X96485635Y-92646692D01*
X96505468Y-92420000D01*
X96505468Y-92419999D01*
X98894531Y-92419999D01*
X98914364Y-92646689D01*
X98973262Y-92866500D01*
X99069430Y-93072731D01*
X99069431Y-93072733D01*
X99069432Y-93072734D01*
X99199953Y-93259139D01*
X99360861Y-93420047D01*
X99547266Y-93550568D01*
X99547267Y-93550568D01*
X99547268Y-93550569D01*
X99753499Y-93646737D01*
X99753500Y-93646737D01*
X99753504Y-93646739D01*
X99973308Y-93705635D01*
X100200000Y-93725468D01*
X100426692Y-93705635D01*
X100646496Y-93646739D01*
X100852734Y-93550568D01*
X101039139Y-93420047D01*
X101200047Y-93259139D01*
X101330568Y-93072734D01*
X101426739Y-92866496D01*
X101485635Y-92646692D01*
X101505468Y-92420000D01*
X105484531Y-92420000D01*
X105504364Y-92646689D01*
X105563262Y-92866500D01*
X105659430Y-93072731D01*
X105659431Y-93072733D01*
X105659432Y-93072734D01*
X105789953Y-93259139D01*
X105950861Y-93420047D01*
X106137266Y-93550568D01*
X106137267Y-93550568D01*
X106137268Y-93550569D01*
X106343499Y-93646737D01*
X106343500Y-93646737D01*
X106343504Y-93646739D01*
X106563308Y-93705635D01*
X106714436Y-93718856D01*
X106789999Y-93725468D01*
X106789999Y-93725467D01*
X106790000Y-93725468D01*
X107016692Y-93705635D01*
X107236496Y-93646739D01*
X107442734Y-93550568D01*
X107629139Y-93420047D01*
X107790047Y-93259139D01*
X107920568Y-93072734D01*
X108016739Y-92866496D01*
X108075635Y-92646692D01*
X108095468Y-92420000D01*
X108095468Y-92419999D01*
X110484531Y-92419999D01*
X110504364Y-92646689D01*
X110563262Y-92866500D01*
X110659430Y-93072731D01*
X110659431Y-93072733D01*
X110659432Y-93072734D01*
X110789953Y-93259139D01*
X110950861Y-93420047D01*
X111137266Y-93550568D01*
X111137267Y-93550568D01*
X111137268Y-93550569D01*
X111343499Y-93646737D01*
X111343500Y-93646737D01*
X111343504Y-93646739D01*
X111563308Y-93705635D01*
X111790000Y-93725468D01*
X112016692Y-93705635D01*
X112236496Y-93646739D01*
X112442734Y-93550568D01*
X112629139Y-93420047D01*
X112790047Y-93259139D01*
X112920568Y-93072734D01*
X113016739Y-92866496D01*
X113075635Y-92646692D01*
X113095468Y-92420000D01*
X113075635Y-92193308D01*
X113055992Y-92120000D01*
X119068672Y-92120000D01*
X119087931Y-92303238D01*
X119144867Y-92478468D01*
X119236991Y-92638032D01*
X119360276Y-92774954D01*
X119509336Y-92883252D01*
X119677655Y-92958193D01*
X119857876Y-92996500D01*
X119857878Y-92996500D01*
X120042122Y-92996500D01*
X120042124Y-92996500D01*
X120222345Y-92958193D01*
X120390664Y-92883252D01*
X120539724Y-92774954D01*
X120663009Y-92638032D01*
X120755133Y-92478468D01*
X120812069Y-92303238D01*
X120831328Y-92120000D01*
X120812069Y-91936762D01*
X120755133Y-91761532D01*
X120663009Y-91601968D01*
X120539724Y-91465046D01*
X120390664Y-91356748D01*
X120390662Y-91356747D01*
X120222346Y-91281807D01*
X120162271Y-91269038D01*
X120042124Y-91243500D01*
X119857876Y-91243500D01*
X119767765Y-91262653D01*
X119677653Y-91281807D01*
X119509337Y-91356747D01*
X119360276Y-91465045D01*
X119236991Y-91601968D01*
X119144867Y-91761531D01*
X119144867Y-91761532D01*
X119087931Y-91936762D01*
X119068672Y-92120000D01*
X113055992Y-92120000D01*
X113016739Y-91973504D01*
X112920568Y-91767266D01*
X112790047Y-91580861D01*
X112629139Y-91419953D01*
X112442734Y-91289432D01*
X112442733Y-91289431D01*
X112442731Y-91289430D01*
X112236500Y-91193262D01*
X112016689Y-91134364D01*
X111790000Y-91114531D01*
X111563310Y-91134364D01*
X111343499Y-91193262D01*
X111137268Y-91289430D01*
X110950864Y-91419950D01*
X110789950Y-91580864D01*
X110659430Y-91767268D01*
X110563262Y-91973499D01*
X110504364Y-92193310D01*
X110484531Y-92419999D01*
X108095468Y-92419999D01*
X108075635Y-92193308D01*
X108016739Y-91973504D01*
X107920568Y-91767266D01*
X107790047Y-91580861D01*
X107629139Y-91419953D01*
X107442734Y-91289432D01*
X107442733Y-91289431D01*
X107442731Y-91289430D01*
X107236500Y-91193262D01*
X107016689Y-91134364D01*
X106789999Y-91114531D01*
X106563310Y-91134364D01*
X106343499Y-91193262D01*
X106137268Y-91289430D01*
X105950864Y-91419950D01*
X105789950Y-91580864D01*
X105659430Y-91767268D01*
X105563262Y-91973499D01*
X105504364Y-92193310D01*
X105484531Y-92420000D01*
X101505468Y-92420000D01*
X101485635Y-92193308D01*
X101426739Y-91973504D01*
X101330568Y-91767266D01*
X101200047Y-91580861D01*
X101039139Y-91419953D01*
X100852734Y-91289432D01*
X100852733Y-91289431D01*
X100852731Y-91289430D01*
X100646500Y-91193262D01*
X100426689Y-91134364D01*
X100199999Y-91114531D01*
X99973310Y-91134364D01*
X99753499Y-91193262D01*
X99547268Y-91289430D01*
X99360864Y-91419950D01*
X99199950Y-91580864D01*
X99069430Y-91767268D01*
X98973262Y-91973499D01*
X98914364Y-92193310D01*
X98894531Y-92419999D01*
X96505468Y-92419999D01*
X96485635Y-92193308D01*
X96426739Y-91973504D01*
X96330568Y-91767266D01*
X96200047Y-91580861D01*
X96039139Y-91419953D01*
X95852734Y-91289432D01*
X95852733Y-91289431D01*
X95852731Y-91289430D01*
X95646500Y-91193262D01*
X95426689Y-91134364D01*
X95199999Y-91114531D01*
X94973310Y-91134364D01*
X94753499Y-91193262D01*
X94547268Y-91289430D01*
X94360864Y-91419950D01*
X94199950Y-91580864D01*
X94069430Y-91767268D01*
X93973262Y-91973499D01*
X93914364Y-92193310D01*
X93894531Y-92419999D01*
X84300500Y-92419999D01*
X84300500Y-88920000D01*
X93894531Y-88920000D01*
X93914364Y-89146689D01*
X93973262Y-89366500D01*
X94069430Y-89572731D01*
X94069431Y-89572733D01*
X94069432Y-89572734D01*
X94199953Y-89759139D01*
X94360861Y-89920047D01*
X94547266Y-90050568D01*
X94547267Y-90050568D01*
X94547268Y-90050569D01*
X94753499Y-90146737D01*
X94753500Y-90146737D01*
X94753504Y-90146739D01*
X94973308Y-90205635D01*
X95200000Y-90225468D01*
X95426692Y-90205635D01*
X95646496Y-90146739D01*
X95852734Y-90050568D01*
X96039139Y-89920047D01*
X96200047Y-89759139D01*
X96330568Y-89572734D01*
X96426739Y-89366496D01*
X96485635Y-89146692D01*
X96505468Y-88920000D01*
X98894531Y-88920000D01*
X98914364Y-89146689D01*
X98973262Y-89366500D01*
X99069430Y-89572731D01*
X99069431Y-89572733D01*
X99069432Y-89572734D01*
X99199953Y-89759139D01*
X99360861Y-89920047D01*
X99547266Y-90050568D01*
X99547267Y-90050568D01*
X99547268Y-90050569D01*
X99753499Y-90146737D01*
X99753500Y-90146737D01*
X99753504Y-90146739D01*
X99973308Y-90205635D01*
X100124435Y-90218857D01*
X100199999Y-90225468D01*
X100199999Y-90225467D01*
X100200000Y-90225468D01*
X100426692Y-90205635D01*
X100646496Y-90146739D01*
X100852734Y-90050568D01*
X101039139Y-89920047D01*
X101200047Y-89759139D01*
X101330568Y-89572734D01*
X101426739Y-89366496D01*
X101485635Y-89146692D01*
X101505468Y-88920000D01*
X101505468Y-88919999D01*
X105484531Y-88919999D01*
X105504364Y-89146689D01*
X105563262Y-89366500D01*
X105659430Y-89572731D01*
X105659431Y-89572733D01*
X105659432Y-89572734D01*
X105789953Y-89759139D01*
X105950861Y-89920047D01*
X106137266Y-90050568D01*
X106137267Y-90050568D01*
X106137268Y-90050569D01*
X106343499Y-90146737D01*
X106343500Y-90146737D01*
X106343504Y-90146739D01*
X106563308Y-90205635D01*
X106714436Y-90218857D01*
X106789999Y-90225468D01*
X106789999Y-90225467D01*
X106790000Y-90225468D01*
X107016692Y-90205635D01*
X107236496Y-90146739D01*
X107442734Y-90050568D01*
X107629139Y-89920047D01*
X107790047Y-89759139D01*
X107920568Y-89572734D01*
X108016739Y-89366496D01*
X108075635Y-89146692D01*
X108095468Y-88920000D01*
X110484531Y-88920000D01*
X110504364Y-89146689D01*
X110563262Y-89366500D01*
X110659430Y-89572731D01*
X110659431Y-89572733D01*
X110659432Y-89572734D01*
X110789953Y-89759139D01*
X110950861Y-89920047D01*
X111137266Y-90050568D01*
X111137267Y-90050568D01*
X111137268Y-90050569D01*
X111343499Y-90146737D01*
X111343500Y-90146737D01*
X111343504Y-90146739D01*
X111563308Y-90205635D01*
X111790000Y-90225468D01*
X112016692Y-90205635D01*
X112236496Y-90146739D01*
X112442734Y-90050568D01*
X112629139Y-89920047D01*
X112790047Y-89759139D01*
X112920568Y-89572734D01*
X113016739Y-89366496D01*
X113075635Y-89146692D01*
X113095468Y-88920000D01*
X113075635Y-88693308D01*
X113016739Y-88473504D01*
X112920568Y-88267266D01*
X112790047Y-88080861D01*
X112629139Y-87919953D01*
X112442734Y-87789432D01*
X112442733Y-87789431D01*
X112442731Y-87789430D01*
X112236500Y-87693262D01*
X112016689Y-87634364D01*
X111790000Y-87614531D01*
X111563310Y-87634364D01*
X111343499Y-87693262D01*
X111137268Y-87789430D01*
X110950864Y-87919950D01*
X110789950Y-88080864D01*
X110659430Y-88267268D01*
X110563262Y-88473499D01*
X110504364Y-88693310D01*
X110484531Y-88920000D01*
X108095468Y-88920000D01*
X108075635Y-88693308D01*
X108016739Y-88473504D01*
X107920568Y-88267266D01*
X107790047Y-88080861D01*
X107629139Y-87919953D01*
X107442734Y-87789432D01*
X107442733Y-87789431D01*
X107442731Y-87789430D01*
X107236500Y-87693262D01*
X107016689Y-87634364D01*
X106789999Y-87614531D01*
X106563310Y-87634364D01*
X106343499Y-87693262D01*
X106137268Y-87789430D01*
X105950864Y-87919950D01*
X105789950Y-88080864D01*
X105659430Y-88267268D01*
X105563262Y-88473499D01*
X105504364Y-88693310D01*
X105484531Y-88919999D01*
X101505468Y-88919999D01*
X101485635Y-88693308D01*
X101426739Y-88473504D01*
X101330568Y-88267266D01*
X101200047Y-88080861D01*
X101039139Y-87919953D01*
X100852734Y-87789432D01*
X100852733Y-87789431D01*
X100852731Y-87789430D01*
X100646500Y-87693262D01*
X100426689Y-87634364D01*
X100199999Y-87614531D01*
X99973310Y-87634364D01*
X99753499Y-87693262D01*
X99547268Y-87789430D01*
X99360864Y-87919950D01*
X99199950Y-88080864D01*
X99069430Y-88267268D01*
X98973262Y-88473499D01*
X98914364Y-88693310D01*
X98894531Y-88920000D01*
X96505468Y-88920000D01*
X96485635Y-88693308D01*
X96426739Y-88473504D01*
X96330568Y-88267266D01*
X96200047Y-88080861D01*
X96039139Y-87919953D01*
X95852734Y-87789432D01*
X95852733Y-87789431D01*
X95852731Y-87789430D01*
X95646500Y-87693262D01*
X95426689Y-87634364D01*
X95200000Y-87614531D01*
X94973310Y-87634364D01*
X94753499Y-87693262D01*
X94547268Y-87789430D01*
X94360864Y-87919950D01*
X94199950Y-88080864D01*
X94069430Y-88267268D01*
X93973262Y-88473499D01*
X93914364Y-88693310D01*
X93894531Y-88920000D01*
X84300500Y-88920000D01*
X84300500Y-88230000D01*
X88034750Y-88230000D01*
X88053669Y-88373709D01*
X88092892Y-88468401D01*
X88109139Y-88507625D01*
X88147450Y-88557552D01*
X88197378Y-88622621D01*
X88247306Y-88660932D01*
X88312375Y-88710861D01*
X88407067Y-88750083D01*
X88446290Y-88766330D01*
X88463008Y-88768531D01*
X88590000Y-88785250D01*
X88733709Y-88766330D01*
X88867625Y-88710861D01*
X88982621Y-88622621D01*
X89070861Y-88507625D01*
X89126330Y-88373709D01*
X89145250Y-88230000D01*
X89126330Y-88086291D01*
X89070861Y-87952375D01*
X89020932Y-87887306D01*
X88982621Y-87837378D01*
X88917552Y-87787450D01*
X88867625Y-87749139D01*
X88828401Y-87732892D01*
X88733709Y-87693669D01*
X88590000Y-87674750D01*
X88446290Y-87693669D01*
X88312375Y-87749139D01*
X88197378Y-87837378D01*
X88109139Y-87952375D01*
X88053669Y-88086290D01*
X88034750Y-88230000D01*
X84300500Y-88230000D01*
X84300500Y-85420000D01*
X93894531Y-85420000D01*
X93914364Y-85646689D01*
X93973262Y-85866500D01*
X94069430Y-86072731D01*
X94069431Y-86072733D01*
X94069432Y-86072734D01*
X94199953Y-86259139D01*
X94360861Y-86420047D01*
X94547266Y-86550568D01*
X94547267Y-86550568D01*
X94547268Y-86550569D01*
X94753499Y-86646737D01*
X94753500Y-86646737D01*
X94753504Y-86646739D01*
X94973308Y-86705635D01*
X95200000Y-86725468D01*
X95426692Y-86705635D01*
X95646496Y-86646739D01*
X95852734Y-86550568D01*
X96039139Y-86420047D01*
X96200047Y-86259139D01*
X96330568Y-86072734D01*
X96426739Y-85866496D01*
X96485635Y-85646692D01*
X96505468Y-85420000D01*
X98894531Y-85420000D01*
X98914364Y-85646689D01*
X98973262Y-85866500D01*
X99069430Y-86072731D01*
X99069431Y-86072733D01*
X99069432Y-86072734D01*
X99199953Y-86259139D01*
X99360861Y-86420047D01*
X99547266Y-86550568D01*
X99547267Y-86550568D01*
X99547268Y-86550569D01*
X99753499Y-86646737D01*
X99753500Y-86646737D01*
X99753504Y-86646739D01*
X99973308Y-86705635D01*
X100124436Y-86718856D01*
X100199999Y-86725468D01*
X100199999Y-86725467D01*
X100200000Y-86725468D01*
X100426692Y-86705635D01*
X100646496Y-86646739D01*
X100852734Y-86550568D01*
X101039139Y-86420047D01*
X101200047Y-86259139D01*
X101330568Y-86072734D01*
X101426739Y-85866496D01*
X101485635Y-85646692D01*
X101505468Y-85420000D01*
X105484531Y-85420000D01*
X105504364Y-85646689D01*
X105563262Y-85866500D01*
X105659430Y-86072731D01*
X105659431Y-86072733D01*
X105659432Y-86072734D01*
X105789953Y-86259139D01*
X105950861Y-86420047D01*
X106137266Y-86550568D01*
X106137267Y-86550568D01*
X106137268Y-86550569D01*
X106343499Y-86646737D01*
X106343500Y-86646737D01*
X106343504Y-86646739D01*
X106563308Y-86705635D01*
X106714435Y-86718856D01*
X106789999Y-86725468D01*
X106789999Y-86725467D01*
X106790000Y-86725468D01*
X107016692Y-86705635D01*
X107236496Y-86646739D01*
X107442734Y-86550568D01*
X107629139Y-86420047D01*
X107790047Y-86259139D01*
X107920568Y-86072734D01*
X108016739Y-85866496D01*
X108075635Y-85646692D01*
X108095468Y-85420000D01*
X110484531Y-85420000D01*
X110504364Y-85646689D01*
X110563262Y-85866500D01*
X110659430Y-86072731D01*
X110659431Y-86072733D01*
X110659432Y-86072734D01*
X110789953Y-86259139D01*
X110950861Y-86420047D01*
X111137266Y-86550568D01*
X111137267Y-86550568D01*
X111137268Y-86550569D01*
X111343499Y-86646737D01*
X111343500Y-86646737D01*
X111343504Y-86646739D01*
X111563308Y-86705635D01*
X111790000Y-86725468D01*
X112016692Y-86705635D01*
X112236496Y-86646739D01*
X112442734Y-86550568D01*
X112629139Y-86420047D01*
X112790047Y-86259139D01*
X112920568Y-86072734D01*
X113016739Y-85866496D01*
X113075635Y-85646692D01*
X113095468Y-85420000D01*
X113075635Y-85193308D01*
X113016739Y-84973504D01*
X112920568Y-84767266D01*
X112790047Y-84580861D01*
X112629139Y-84419953D01*
X112442734Y-84289432D01*
X112442733Y-84289431D01*
X112442731Y-84289430D01*
X112236500Y-84193262D01*
X112016689Y-84134364D01*
X111790000Y-84114531D01*
X111563310Y-84134364D01*
X111343499Y-84193262D01*
X111137268Y-84289430D01*
X110950864Y-84419950D01*
X110789950Y-84580864D01*
X110659430Y-84767268D01*
X110563262Y-84973499D01*
X110504364Y-85193310D01*
X110484531Y-85420000D01*
X108095468Y-85420000D01*
X108075635Y-85193308D01*
X108016739Y-84973504D01*
X107920568Y-84767266D01*
X107790047Y-84580861D01*
X107629139Y-84419953D01*
X107442734Y-84289432D01*
X107442733Y-84289431D01*
X107442731Y-84289430D01*
X107236500Y-84193262D01*
X107016689Y-84134364D01*
X106789999Y-84114531D01*
X106563310Y-84134364D01*
X106343499Y-84193262D01*
X106137268Y-84289430D01*
X105950864Y-84419950D01*
X105789950Y-84580864D01*
X105659430Y-84767268D01*
X105563262Y-84973499D01*
X105504364Y-85193310D01*
X105484531Y-85420000D01*
X101505468Y-85420000D01*
X101485635Y-85193308D01*
X101426739Y-84973504D01*
X101330568Y-84767266D01*
X101200047Y-84580861D01*
X101039139Y-84419953D01*
X100852734Y-84289432D01*
X100852733Y-84289431D01*
X100852731Y-84289430D01*
X100646500Y-84193262D01*
X100426689Y-84134364D01*
X100199999Y-84114531D01*
X99973310Y-84134364D01*
X99753499Y-84193262D01*
X99547268Y-84289430D01*
X99360864Y-84419950D01*
X99199950Y-84580864D01*
X99069430Y-84767268D01*
X98973262Y-84973499D01*
X98914364Y-85193310D01*
X98894531Y-85420000D01*
X96505468Y-85420000D01*
X96485635Y-85193308D01*
X96426739Y-84973504D01*
X96330568Y-84767266D01*
X96200047Y-84580861D01*
X96039139Y-84419953D01*
X95852734Y-84289432D01*
X95852733Y-84289431D01*
X95852731Y-84289430D01*
X95646500Y-84193262D01*
X95426689Y-84134364D01*
X95200000Y-84114531D01*
X94973310Y-84134364D01*
X94753499Y-84193262D01*
X94547268Y-84289430D01*
X94360864Y-84419950D01*
X94199950Y-84580864D01*
X94069430Y-84767268D01*
X93973262Y-84973499D01*
X93914364Y-85193310D01*
X93894531Y-85420000D01*
X84300500Y-85420000D01*
X84300500Y-83389999D01*
X87954750Y-83389999D01*
X87973669Y-83533709D01*
X88012892Y-83628401D01*
X88029139Y-83667625D01*
X88067450Y-83717552D01*
X88117378Y-83782621D01*
X88167306Y-83820932D01*
X88232375Y-83870861D01*
X88327067Y-83910083D01*
X88366290Y-83926330D01*
X88385210Y-83928820D01*
X88510000Y-83945250D01*
X88653709Y-83926330D01*
X88787625Y-83870861D01*
X88902621Y-83782621D01*
X88990861Y-83667625D01*
X89046330Y-83533709D01*
X89065250Y-83390000D01*
X89046330Y-83246291D01*
X88990861Y-83112375D01*
X88940932Y-83047306D01*
X88902621Y-82997378D01*
X88837552Y-82947450D01*
X88787625Y-82909139D01*
X88748401Y-82892892D01*
X88653709Y-82853669D01*
X88526717Y-82836951D01*
X88510000Y-82834750D01*
X88509999Y-82834750D01*
X88366290Y-82853669D01*
X88232375Y-82909139D01*
X88117378Y-82997378D01*
X88029139Y-83112375D01*
X87973669Y-83246290D01*
X87954750Y-83389999D01*
X84300500Y-83389999D01*
X84300500Y-81920000D01*
X93894531Y-81920000D01*
X93914364Y-82146689D01*
X93973262Y-82366500D01*
X94069430Y-82572731D01*
X94069431Y-82572733D01*
X94069432Y-82572734D01*
X94199953Y-82759139D01*
X94360861Y-82920047D01*
X94547266Y-83050568D01*
X94547267Y-83050568D01*
X94547268Y-83050569D01*
X94753499Y-83146737D01*
X94753500Y-83146737D01*
X94753504Y-83146739D01*
X94973308Y-83205635D01*
X95200000Y-83225468D01*
X95426692Y-83205635D01*
X95646496Y-83146739D01*
X95852734Y-83050568D01*
X96039139Y-82920047D01*
X96200047Y-82759139D01*
X96330568Y-82572734D01*
X96426739Y-82366496D01*
X96485635Y-82146692D01*
X96505468Y-81920000D01*
X98894531Y-81920000D01*
X98914364Y-82146689D01*
X98973262Y-82366500D01*
X99069430Y-82572731D01*
X99069431Y-82572733D01*
X99069432Y-82572734D01*
X99199953Y-82759139D01*
X99360861Y-82920047D01*
X99547266Y-83050568D01*
X99547267Y-83050568D01*
X99547268Y-83050569D01*
X99753499Y-83146737D01*
X99753500Y-83146737D01*
X99753504Y-83146739D01*
X99973308Y-83205635D01*
X100200000Y-83225468D01*
X100426692Y-83205635D01*
X100646496Y-83146739D01*
X100852734Y-83050568D01*
X101039139Y-82920047D01*
X101200047Y-82759139D01*
X101330568Y-82572734D01*
X101426739Y-82366496D01*
X101485635Y-82146692D01*
X101505468Y-81920000D01*
X101501093Y-81869999D01*
X103674750Y-81869999D01*
X103693669Y-82013709D01*
X103732892Y-82108401D01*
X103749139Y-82147625D01*
X103787450Y-82197552D01*
X103837378Y-82262621D01*
X103887306Y-82300932D01*
X103952375Y-82350861D01*
X104047067Y-82390083D01*
X104086290Y-82406330D01*
X104103008Y-82408531D01*
X104230000Y-82425250D01*
X104373709Y-82406330D01*
X104507625Y-82350861D01*
X104622621Y-82262621D01*
X104710861Y-82147625D01*
X104766330Y-82013709D01*
X104778667Y-81920000D01*
X105484531Y-81920000D01*
X105504364Y-82146689D01*
X105563262Y-82366500D01*
X105659430Y-82572731D01*
X105659431Y-82572733D01*
X105659432Y-82572734D01*
X105789953Y-82759139D01*
X105950861Y-82920047D01*
X106137266Y-83050568D01*
X106137267Y-83050568D01*
X106137268Y-83050569D01*
X106343499Y-83146737D01*
X106343500Y-83146737D01*
X106343504Y-83146739D01*
X106563308Y-83205635D01*
X106790000Y-83225468D01*
X107016692Y-83205635D01*
X107236496Y-83146739D01*
X107442734Y-83050568D01*
X107629139Y-82920047D01*
X107790047Y-82759139D01*
X107920568Y-82572734D01*
X108016739Y-82366496D01*
X108075635Y-82146692D01*
X108095468Y-81920000D01*
X110484531Y-81920000D01*
X110504364Y-82146689D01*
X110563262Y-82366500D01*
X110659430Y-82572731D01*
X110659431Y-82572733D01*
X110659432Y-82572734D01*
X110789953Y-82759139D01*
X110950861Y-82920047D01*
X111137266Y-83050568D01*
X111137267Y-83050568D01*
X111137268Y-83050569D01*
X111343499Y-83146737D01*
X111343500Y-83146737D01*
X111343504Y-83146739D01*
X111563308Y-83205635D01*
X111790000Y-83225468D01*
X112016692Y-83205635D01*
X112236496Y-83146739D01*
X112442734Y-83050568D01*
X112629139Y-82920047D01*
X112790047Y-82759139D01*
X112920568Y-82572734D01*
X113016739Y-82366496D01*
X113075635Y-82146692D01*
X113095468Y-81920000D01*
X113075635Y-81693308D01*
X113016739Y-81473504D01*
X113010843Y-81460861D01*
X112920569Y-81267268D01*
X112913816Y-81257624D01*
X112790047Y-81080861D01*
X112689185Y-80979999D01*
X116504750Y-80979999D01*
X116523669Y-81123709D01*
X116562892Y-81218401D01*
X116579139Y-81257625D01*
X116617450Y-81307552D01*
X116667378Y-81372621D01*
X116717306Y-81410932D01*
X116782375Y-81460861D01*
X116877067Y-81500083D01*
X116916290Y-81516330D01*
X116935209Y-81518820D01*
X117060000Y-81535250D01*
X117203709Y-81516330D01*
X117337625Y-81460861D01*
X117452621Y-81372621D01*
X117540861Y-81257625D01*
X117596330Y-81123709D01*
X117615250Y-80980000D01*
X117596330Y-80836291D01*
X117540861Y-80702375D01*
X117488674Y-80634364D01*
X117452621Y-80587378D01*
X117387552Y-80537450D01*
X117337625Y-80499139D01*
X117298401Y-80482892D01*
X117203709Y-80443669D01*
X117076717Y-80426951D01*
X117060000Y-80424750D01*
X117059999Y-80424750D01*
X116916290Y-80443669D01*
X116782375Y-80499139D01*
X116667378Y-80587378D01*
X116579139Y-80702375D01*
X116523669Y-80836290D01*
X116504750Y-80979999D01*
X112689185Y-80979999D01*
X112629139Y-80919953D01*
X112442734Y-80789432D01*
X112442733Y-80789431D01*
X112442731Y-80789430D01*
X112236500Y-80693262D01*
X112016689Y-80634364D01*
X111790000Y-80614531D01*
X111563310Y-80634364D01*
X111343499Y-80693262D01*
X111137268Y-80789430D01*
X110950864Y-80919950D01*
X110789950Y-81080864D01*
X110659430Y-81267268D01*
X110563262Y-81473499D01*
X110504364Y-81693310D01*
X110484531Y-81920000D01*
X108095468Y-81920000D01*
X108075635Y-81693308D01*
X108016739Y-81473504D01*
X108010843Y-81460861D01*
X107920569Y-81267268D01*
X107913816Y-81257624D01*
X107790047Y-81080861D01*
X107629139Y-80919953D01*
X107442734Y-80789432D01*
X107442733Y-80789431D01*
X107442731Y-80789430D01*
X107236500Y-80693262D01*
X107016689Y-80634364D01*
X106790000Y-80614531D01*
X106563310Y-80634364D01*
X106343499Y-80693262D01*
X106137268Y-80789430D01*
X105950864Y-80919950D01*
X105789950Y-81080864D01*
X105659430Y-81267268D01*
X105563262Y-81473499D01*
X105504364Y-81693310D01*
X105484531Y-81920000D01*
X104778667Y-81920000D01*
X104785250Y-81870000D01*
X104766330Y-81726291D01*
X104710861Y-81592375D01*
X104652509Y-81516330D01*
X104622621Y-81477378D01*
X104557552Y-81427450D01*
X104507625Y-81389139D01*
X104467746Y-81372621D01*
X104373709Y-81333669D01*
X104230000Y-81314750D01*
X104086290Y-81333669D01*
X103952375Y-81389139D01*
X103837378Y-81477378D01*
X103749139Y-81592375D01*
X103693669Y-81726290D01*
X103674750Y-81869999D01*
X101501093Y-81869999D01*
X101485635Y-81693308D01*
X101426739Y-81473504D01*
X101420843Y-81460861D01*
X101330569Y-81267268D01*
X101323816Y-81257624D01*
X101200047Y-81080861D01*
X101039139Y-80919953D01*
X100852734Y-80789432D01*
X100852733Y-80789431D01*
X100852731Y-80789430D01*
X100646500Y-80693262D01*
X100426689Y-80634364D01*
X100200000Y-80614531D01*
X99973310Y-80634364D01*
X99753499Y-80693262D01*
X99547268Y-80789430D01*
X99360864Y-80919950D01*
X99199950Y-81080864D01*
X99069430Y-81267268D01*
X98973262Y-81473499D01*
X98914364Y-81693310D01*
X98894531Y-81920000D01*
X96505468Y-81920000D01*
X96485635Y-81693308D01*
X96426739Y-81473504D01*
X96420843Y-81460861D01*
X96330569Y-81267268D01*
X96323816Y-81257624D01*
X96200047Y-81080861D01*
X96039139Y-80919953D01*
X95852734Y-80789432D01*
X95852733Y-80789431D01*
X95852731Y-80789430D01*
X95646500Y-80693262D01*
X95426689Y-80634364D01*
X95199999Y-80614531D01*
X94973310Y-80634364D01*
X94753499Y-80693262D01*
X94547268Y-80789430D01*
X94360864Y-80919950D01*
X94199950Y-81080864D01*
X94069430Y-81267268D01*
X93973262Y-81473499D01*
X93914364Y-81693310D01*
X93894531Y-81920000D01*
X84300500Y-81920000D01*
X84300500Y-78419999D01*
X93894531Y-78419999D01*
X93914364Y-78646689D01*
X93973262Y-78866500D01*
X94069430Y-79072731D01*
X94069431Y-79072733D01*
X94069432Y-79072734D01*
X94199953Y-79259139D01*
X94360861Y-79420047D01*
X94547266Y-79550568D01*
X94547267Y-79550568D01*
X94547268Y-79550569D01*
X94753499Y-79646737D01*
X94753500Y-79646737D01*
X94753504Y-79646739D01*
X94973308Y-79705635D01*
X95124436Y-79718856D01*
X95199999Y-79725468D01*
X95199999Y-79725467D01*
X95200000Y-79725468D01*
X95426692Y-79705635D01*
X95646496Y-79646739D01*
X95852734Y-79550568D01*
X96039139Y-79420047D01*
X96200047Y-79259139D01*
X96330568Y-79072734D01*
X96426739Y-78866496D01*
X96485635Y-78646692D01*
X96505468Y-78420000D01*
X96505468Y-78419999D01*
X98894531Y-78419999D01*
X98914364Y-78646689D01*
X98973262Y-78866500D01*
X99069430Y-79072731D01*
X99069431Y-79072733D01*
X99069432Y-79072734D01*
X99199953Y-79259139D01*
X99360861Y-79420047D01*
X99547266Y-79550568D01*
X99547267Y-79550568D01*
X99547268Y-79550569D01*
X99753499Y-79646737D01*
X99753500Y-79646737D01*
X99753504Y-79646739D01*
X99973308Y-79705635D01*
X100200000Y-79725468D01*
X100426692Y-79705635D01*
X100646496Y-79646739D01*
X100852734Y-79550568D01*
X101039139Y-79420047D01*
X101200047Y-79259139D01*
X101330568Y-79072734D01*
X101426739Y-78866496D01*
X101485635Y-78646692D01*
X101505468Y-78420000D01*
X101505468Y-78419999D01*
X105484531Y-78419999D01*
X105504364Y-78646689D01*
X105563262Y-78866500D01*
X105659430Y-79072731D01*
X105659431Y-79072733D01*
X105659432Y-79072734D01*
X105789953Y-79259139D01*
X105950861Y-79420047D01*
X106137266Y-79550568D01*
X106137267Y-79550568D01*
X106137268Y-79550569D01*
X106343499Y-79646737D01*
X106343500Y-79646737D01*
X106343504Y-79646739D01*
X106563308Y-79705635D01*
X106790000Y-79725468D01*
X107016692Y-79705635D01*
X107236496Y-79646739D01*
X107442734Y-79550568D01*
X107629139Y-79420047D01*
X107790047Y-79259139D01*
X107920568Y-79072734D01*
X108016739Y-78866496D01*
X108075635Y-78646692D01*
X108095468Y-78420000D01*
X108095468Y-78419999D01*
X110484531Y-78419999D01*
X110504364Y-78646689D01*
X110563262Y-78866500D01*
X110659430Y-79072731D01*
X110659431Y-79072733D01*
X110659432Y-79072734D01*
X110789953Y-79259139D01*
X110950861Y-79420047D01*
X111137266Y-79550568D01*
X111137267Y-79550568D01*
X111137268Y-79550569D01*
X111343499Y-79646737D01*
X111343500Y-79646737D01*
X111343504Y-79646739D01*
X111563308Y-79705635D01*
X111790000Y-79725468D01*
X112016692Y-79705635D01*
X112236496Y-79646739D01*
X112442734Y-79550568D01*
X112629139Y-79420047D01*
X112790047Y-79259139D01*
X112920568Y-79072734D01*
X113016739Y-78866496D01*
X113075635Y-78646692D01*
X113095468Y-78420000D01*
X113075635Y-78193308D01*
X113016739Y-77973504D01*
X113008226Y-77955249D01*
X112920569Y-77767268D01*
X112857800Y-77677624D01*
X112790047Y-77580861D01*
X112629139Y-77419953D01*
X112442734Y-77289432D01*
X112442733Y-77289431D01*
X112442731Y-77289430D01*
X112236500Y-77193262D01*
X112016689Y-77134364D01*
X111789999Y-77114531D01*
X111563310Y-77134364D01*
X111343499Y-77193262D01*
X111137268Y-77289430D01*
X110950864Y-77419950D01*
X110789950Y-77580864D01*
X110659430Y-77767268D01*
X110563262Y-77973499D01*
X110504364Y-78193310D01*
X110484531Y-78419999D01*
X108095468Y-78419999D01*
X108075635Y-78193308D01*
X108016739Y-77973504D01*
X108008226Y-77955249D01*
X107920569Y-77767268D01*
X107857800Y-77677624D01*
X107790047Y-77580861D01*
X107629139Y-77419953D01*
X107442734Y-77289432D01*
X107442733Y-77289431D01*
X107442731Y-77289430D01*
X107236500Y-77193262D01*
X107016689Y-77134364D01*
X106789999Y-77114531D01*
X106563310Y-77134364D01*
X106343499Y-77193262D01*
X106137268Y-77289430D01*
X105950864Y-77419950D01*
X105789950Y-77580864D01*
X105659430Y-77767268D01*
X105563262Y-77973499D01*
X105504364Y-78193310D01*
X105484531Y-78419999D01*
X101505468Y-78419999D01*
X101485635Y-78193308D01*
X101426739Y-77973504D01*
X101418226Y-77955249D01*
X101330569Y-77767268D01*
X101267800Y-77677624D01*
X101200047Y-77580861D01*
X101039139Y-77419953D01*
X100852734Y-77289432D01*
X100852733Y-77289431D01*
X100852731Y-77289430D01*
X100646500Y-77193262D01*
X100426689Y-77134364D01*
X100200000Y-77114531D01*
X99973310Y-77134364D01*
X99753499Y-77193262D01*
X99547268Y-77289430D01*
X99360864Y-77419950D01*
X99199950Y-77580864D01*
X99069430Y-77767268D01*
X98973262Y-77973499D01*
X98914364Y-78193310D01*
X98894531Y-78419999D01*
X96505468Y-78419999D01*
X96485635Y-78193308D01*
X96426739Y-77973504D01*
X96418226Y-77955249D01*
X96330569Y-77767268D01*
X96267800Y-77677624D01*
X96200047Y-77580861D01*
X96039139Y-77419953D01*
X95852734Y-77289432D01*
X95852733Y-77289431D01*
X95852731Y-77289430D01*
X95646500Y-77193262D01*
X95426689Y-77134364D01*
X95200000Y-77114531D01*
X94973310Y-77134364D01*
X94753499Y-77193262D01*
X94547268Y-77289430D01*
X94360864Y-77419950D01*
X94199950Y-77580864D01*
X94069430Y-77767268D01*
X93973262Y-77973499D01*
X93914364Y-78193310D01*
X93894531Y-78419999D01*
X84300500Y-78419999D01*
X84300500Y-77400000D01*
X88204750Y-77400000D01*
X88223669Y-77543709D01*
X88262892Y-77638401D01*
X88279139Y-77677625D01*
X88317450Y-77727552D01*
X88367378Y-77792621D01*
X88417306Y-77830932D01*
X88482375Y-77880861D01*
X88577067Y-77920083D01*
X88616290Y-77936330D01*
X88633008Y-77938531D01*
X88760000Y-77955250D01*
X88903709Y-77936330D01*
X89037625Y-77880861D01*
X89152621Y-77792621D01*
X89240861Y-77677625D01*
X89296330Y-77543709D01*
X89315250Y-77400000D01*
X89296330Y-77256291D01*
X89288598Y-77237625D01*
X89270223Y-77193262D01*
X89240861Y-77122375D01*
X89190932Y-77057306D01*
X89152621Y-77007378D01*
X89090875Y-76960000D01*
X117484750Y-76960000D01*
X117503669Y-77103709D01*
X117542892Y-77198401D01*
X117559139Y-77237625D01*
X117573462Y-77256291D01*
X117647378Y-77352621D01*
X117697306Y-77390932D01*
X117762375Y-77440861D01*
X117857067Y-77480083D01*
X117896290Y-77496330D01*
X117913008Y-77498531D01*
X118040000Y-77515250D01*
X118183709Y-77496330D01*
X118317625Y-77440861D01*
X118432621Y-77352621D01*
X118520861Y-77237625D01*
X118576330Y-77103709D01*
X118595250Y-76960000D01*
X118576330Y-76816291D01*
X118520861Y-76682375D01*
X118470932Y-76617306D01*
X118432621Y-76567378D01*
X118367552Y-76517450D01*
X118317625Y-76479139D01*
X118278401Y-76462892D01*
X118183709Y-76423669D01*
X118040000Y-76404750D01*
X117896290Y-76423669D01*
X117762375Y-76479139D01*
X117647378Y-76567378D01*
X117559139Y-76682375D01*
X117503669Y-76816290D01*
X117484750Y-76960000D01*
X89090875Y-76960000D01*
X89087552Y-76957450D01*
X89037625Y-76919139D01*
X88998401Y-76902892D01*
X88903709Y-76863669D01*
X88760000Y-76844750D01*
X88616290Y-76863669D01*
X88482375Y-76919139D01*
X88367378Y-77007378D01*
X88279139Y-77122375D01*
X88223669Y-77256290D01*
X88204750Y-77400000D01*
X84300500Y-77400000D01*
X84300500Y-74919999D01*
X93894531Y-74919999D01*
X93914364Y-75146689D01*
X93973262Y-75366500D01*
X94069430Y-75572731D01*
X94069431Y-75572733D01*
X94069432Y-75572734D01*
X94199953Y-75759139D01*
X94360861Y-75920047D01*
X94547266Y-76050568D01*
X94547267Y-76050568D01*
X94547268Y-76050569D01*
X94753499Y-76146737D01*
X94753500Y-76146737D01*
X94753504Y-76146739D01*
X94973308Y-76205635D01*
X95200000Y-76225468D01*
X95426692Y-76205635D01*
X95646496Y-76146739D01*
X95852734Y-76050568D01*
X96039139Y-75920047D01*
X96200047Y-75759139D01*
X96330568Y-75572734D01*
X96426739Y-75366496D01*
X96485635Y-75146692D01*
X96505468Y-74920000D01*
X96505468Y-74919999D01*
X98894531Y-74919999D01*
X98914364Y-75146689D01*
X98973262Y-75366500D01*
X99069430Y-75572731D01*
X99069431Y-75572733D01*
X99069432Y-75572734D01*
X99199953Y-75759139D01*
X99360861Y-75920047D01*
X99547266Y-76050568D01*
X99547267Y-76050568D01*
X99547268Y-76050569D01*
X99753499Y-76146737D01*
X99753500Y-76146737D01*
X99753504Y-76146739D01*
X99973308Y-76205635D01*
X100124435Y-76218857D01*
X100199999Y-76225468D01*
X100199999Y-76225467D01*
X100200000Y-76225468D01*
X100426692Y-76205635D01*
X100646496Y-76146739D01*
X100852734Y-76050568D01*
X101039139Y-75920047D01*
X101200047Y-75759139D01*
X101330568Y-75572734D01*
X101426739Y-75366496D01*
X101485635Y-75146692D01*
X101505468Y-74920000D01*
X105484531Y-74920000D01*
X105504364Y-75146689D01*
X105563262Y-75366500D01*
X105659430Y-75572731D01*
X105659431Y-75572733D01*
X105659432Y-75572734D01*
X105789953Y-75759139D01*
X105950861Y-75920047D01*
X106137266Y-76050568D01*
X106137267Y-76050568D01*
X106137268Y-76050569D01*
X106343499Y-76146737D01*
X106343500Y-76146737D01*
X106343504Y-76146739D01*
X106563308Y-76205635D01*
X106714436Y-76218857D01*
X106789999Y-76225468D01*
X106789999Y-76225467D01*
X106790000Y-76225468D01*
X107016692Y-76205635D01*
X107236496Y-76146739D01*
X107442734Y-76050568D01*
X107629139Y-75920047D01*
X107790047Y-75759139D01*
X107920568Y-75572734D01*
X108016739Y-75366496D01*
X108075635Y-75146692D01*
X108095468Y-74920000D01*
X108095468Y-74919999D01*
X110484531Y-74919999D01*
X110504364Y-75146689D01*
X110563262Y-75366500D01*
X110659430Y-75572731D01*
X110659431Y-75572733D01*
X110659432Y-75572734D01*
X110789953Y-75759139D01*
X110950861Y-75920047D01*
X111137266Y-76050568D01*
X111137267Y-76050568D01*
X111137268Y-76050569D01*
X111343499Y-76146737D01*
X111343500Y-76146737D01*
X111343504Y-76146739D01*
X111563308Y-76205635D01*
X111790000Y-76225468D01*
X112016692Y-76205635D01*
X112236496Y-76146739D01*
X112442734Y-76050568D01*
X112629139Y-75920047D01*
X112790047Y-75759139D01*
X112920568Y-75572734D01*
X113016739Y-75366496D01*
X113075635Y-75146692D01*
X113095468Y-74920000D01*
X113075635Y-74693308D01*
X113016739Y-74473504D01*
X113005779Y-74450000D01*
X114274750Y-74450000D01*
X114293669Y-74593709D01*
X114332892Y-74688401D01*
X114349139Y-74727625D01*
X114387450Y-74777552D01*
X114437378Y-74842621D01*
X114487306Y-74880932D01*
X114552375Y-74930861D01*
X114647067Y-74970083D01*
X114686290Y-74986330D01*
X114703008Y-74988531D01*
X114830000Y-75005250D01*
X114973709Y-74986330D01*
X115107625Y-74930861D01*
X115222621Y-74842621D01*
X115310861Y-74727625D01*
X115366330Y-74593709D01*
X115385250Y-74450000D01*
X115366330Y-74306291D01*
X115310861Y-74172375D01*
X115240642Y-74080864D01*
X115222621Y-74057378D01*
X115157552Y-74007450D01*
X115107625Y-73969139D01*
X115068401Y-73952892D01*
X114973709Y-73913669D01*
X114830000Y-73894750D01*
X114686290Y-73913669D01*
X114552375Y-73969139D01*
X114437378Y-74057378D01*
X114349139Y-74172375D01*
X114293669Y-74306290D01*
X114274750Y-74450000D01*
X113005779Y-74450000D01*
X112920568Y-74267266D01*
X112790047Y-74080861D01*
X112629139Y-73919953D01*
X112620164Y-73913669D01*
X112442731Y-73789430D01*
X112236500Y-73693262D01*
X112016689Y-73634364D01*
X111790000Y-73614531D01*
X111563310Y-73634364D01*
X111343499Y-73693262D01*
X111137268Y-73789430D01*
X110950864Y-73919950D01*
X110789950Y-74080864D01*
X110659430Y-74267268D01*
X110563262Y-74473499D01*
X110504364Y-74693310D01*
X110484531Y-74919999D01*
X108095468Y-74919999D01*
X108075635Y-74693308D01*
X108016739Y-74473504D01*
X107920568Y-74267266D01*
X107790047Y-74080861D01*
X107629139Y-73919953D01*
X107620164Y-73913669D01*
X107442731Y-73789430D01*
X107236500Y-73693262D01*
X107016689Y-73634364D01*
X106789999Y-73614531D01*
X106563310Y-73634364D01*
X106343499Y-73693262D01*
X106137268Y-73789430D01*
X105950864Y-73919950D01*
X105789950Y-74080864D01*
X105659430Y-74267268D01*
X105563262Y-74473499D01*
X105504364Y-74693310D01*
X105484531Y-74920000D01*
X101505468Y-74920000D01*
X101485635Y-74693308D01*
X101426739Y-74473504D01*
X101330568Y-74267266D01*
X101200047Y-74080861D01*
X101039139Y-73919953D01*
X101030164Y-73913669D01*
X100852731Y-73789430D01*
X100646500Y-73693262D01*
X100426689Y-73634364D01*
X100199999Y-73614531D01*
X99973310Y-73634364D01*
X99753499Y-73693262D01*
X99547268Y-73789430D01*
X99360864Y-73919950D01*
X99199950Y-74080864D01*
X99069430Y-74267268D01*
X98973262Y-74473499D01*
X98914364Y-74693310D01*
X98894531Y-74919999D01*
X96505468Y-74919999D01*
X96485635Y-74693308D01*
X96426739Y-74473504D01*
X96330568Y-74267266D01*
X96200047Y-74080861D01*
X96039139Y-73919953D01*
X96030164Y-73913669D01*
X95852731Y-73789430D01*
X95646500Y-73693262D01*
X95426689Y-73634364D01*
X95200000Y-73614531D01*
X94973310Y-73634364D01*
X94753499Y-73693262D01*
X94547268Y-73789430D01*
X94360864Y-73919950D01*
X94199950Y-74080864D01*
X94069430Y-74267268D01*
X93973262Y-74473499D01*
X93914364Y-74693310D01*
X93894531Y-74919999D01*
X84300500Y-74919999D01*
X84300500Y-71420000D01*
X93894531Y-71420000D01*
X93914364Y-71646689D01*
X93973262Y-71866500D01*
X94069430Y-72072731D01*
X94069431Y-72072733D01*
X94069432Y-72072734D01*
X94199953Y-72259139D01*
X94360861Y-72420047D01*
X94547266Y-72550568D01*
X94547267Y-72550568D01*
X94547268Y-72550569D01*
X94753499Y-72646737D01*
X94753500Y-72646737D01*
X94753504Y-72646739D01*
X94973308Y-72705635D01*
X95200000Y-72725468D01*
X95426692Y-72705635D01*
X95646496Y-72646739D01*
X95852734Y-72550568D01*
X96039139Y-72420047D01*
X96200047Y-72259139D01*
X96330568Y-72072734D01*
X96426739Y-71866496D01*
X96485635Y-71646692D01*
X96505468Y-71420000D01*
X98894531Y-71420000D01*
X98914364Y-71646689D01*
X98973262Y-71866500D01*
X99069430Y-72072731D01*
X99069431Y-72072733D01*
X99069432Y-72072734D01*
X99199953Y-72259139D01*
X99360861Y-72420047D01*
X99547266Y-72550568D01*
X99547267Y-72550568D01*
X99547268Y-72550569D01*
X99753499Y-72646737D01*
X99753500Y-72646737D01*
X99753504Y-72646739D01*
X99973308Y-72705635D01*
X100124436Y-72718857D01*
X100199999Y-72725468D01*
X100199999Y-72725467D01*
X100200000Y-72725468D01*
X100426692Y-72705635D01*
X100646496Y-72646739D01*
X100852734Y-72550568D01*
X101039139Y-72420047D01*
X101200047Y-72259139D01*
X101330568Y-72072734D01*
X101426739Y-71866496D01*
X101485635Y-71646692D01*
X101505468Y-71420000D01*
X101505468Y-71419999D01*
X105484531Y-71419999D01*
X105504364Y-71646689D01*
X105563262Y-71866500D01*
X105659430Y-72072731D01*
X105659431Y-72072733D01*
X105659432Y-72072734D01*
X105789953Y-72259139D01*
X105950861Y-72420047D01*
X106137266Y-72550568D01*
X106137267Y-72550568D01*
X106137268Y-72550569D01*
X106343499Y-72646737D01*
X106343500Y-72646737D01*
X106343504Y-72646739D01*
X106563308Y-72705635D01*
X106714435Y-72718856D01*
X106789999Y-72725468D01*
X106789999Y-72725467D01*
X106790000Y-72725468D01*
X107016692Y-72705635D01*
X107236496Y-72646739D01*
X107442734Y-72550568D01*
X107629139Y-72420047D01*
X107790047Y-72259139D01*
X107920568Y-72072734D01*
X108016739Y-71866496D01*
X108075635Y-71646692D01*
X108095468Y-71420000D01*
X110484531Y-71420000D01*
X110504364Y-71646689D01*
X110563262Y-71866500D01*
X110659430Y-72072731D01*
X110659431Y-72072733D01*
X110659432Y-72072734D01*
X110789953Y-72259139D01*
X110950861Y-72420047D01*
X111137266Y-72550568D01*
X111137267Y-72550568D01*
X111137268Y-72550569D01*
X111343499Y-72646737D01*
X111343500Y-72646737D01*
X111343504Y-72646739D01*
X111563308Y-72705635D01*
X111790000Y-72725468D01*
X112016692Y-72705635D01*
X112236496Y-72646739D01*
X112442734Y-72550568D01*
X112629139Y-72420047D01*
X112790047Y-72259139D01*
X112920568Y-72072734D01*
X113016739Y-71866496D01*
X113075635Y-71646692D01*
X113095468Y-71420000D01*
X113075635Y-71193308D01*
X113016739Y-70973504D01*
X113008226Y-70955249D01*
X112920569Y-70767268D01*
X112857800Y-70677624D01*
X112790047Y-70580861D01*
X112629139Y-70419953D01*
X112600643Y-70400000D01*
X117184750Y-70400000D01*
X117203669Y-70543709D01*
X117242892Y-70638401D01*
X117259139Y-70677625D01*
X117297450Y-70727552D01*
X117347378Y-70792621D01*
X117397306Y-70830932D01*
X117462375Y-70880861D01*
X117557067Y-70920083D01*
X117596290Y-70936330D01*
X117615209Y-70938820D01*
X117740000Y-70955250D01*
X117883709Y-70936330D01*
X118017625Y-70880861D01*
X118132621Y-70792621D01*
X118220861Y-70677625D01*
X118276330Y-70543709D01*
X118295250Y-70400000D01*
X118276330Y-70256291D01*
X118220861Y-70122375D01*
X118138661Y-70015250D01*
X118132621Y-70007378D01*
X118067552Y-69957450D01*
X118017625Y-69919139D01*
X117965685Y-69897625D01*
X117883709Y-69863669D01*
X117756717Y-69846951D01*
X117740000Y-69844750D01*
X117739999Y-69844750D01*
X117596290Y-69863669D01*
X117462375Y-69919139D01*
X117347378Y-70007378D01*
X117259139Y-70122375D01*
X117203669Y-70256290D01*
X117184750Y-70400000D01*
X112600643Y-70400000D01*
X112442734Y-70289432D01*
X112442733Y-70289431D01*
X112442731Y-70289430D01*
X112236500Y-70193262D01*
X112016689Y-70134364D01*
X111790000Y-70114531D01*
X111563310Y-70134364D01*
X111343499Y-70193262D01*
X111137268Y-70289430D01*
X110950864Y-70419950D01*
X110789950Y-70580864D01*
X110659430Y-70767268D01*
X110563262Y-70973499D01*
X110504364Y-71193310D01*
X110484531Y-71420000D01*
X108095468Y-71420000D01*
X108075635Y-71193308D01*
X108016739Y-70973504D01*
X108008226Y-70955249D01*
X107920569Y-70767268D01*
X107857800Y-70677624D01*
X107790047Y-70580861D01*
X107629139Y-70419953D01*
X107442734Y-70289432D01*
X107442733Y-70289431D01*
X107442731Y-70289430D01*
X107236500Y-70193262D01*
X107016689Y-70134364D01*
X106789999Y-70114531D01*
X106563310Y-70134364D01*
X106343499Y-70193262D01*
X106137268Y-70289430D01*
X105950864Y-70419950D01*
X105789950Y-70580864D01*
X105659430Y-70767268D01*
X105563262Y-70973499D01*
X105504364Y-71193310D01*
X105484531Y-71419999D01*
X101505468Y-71419999D01*
X101485635Y-71193308D01*
X101426739Y-70973504D01*
X101418226Y-70955249D01*
X101330569Y-70767268D01*
X101267800Y-70677624D01*
X101200047Y-70580861D01*
X101039139Y-70419953D01*
X100852734Y-70289432D01*
X100852733Y-70289431D01*
X100852731Y-70289430D01*
X100646500Y-70193262D01*
X100426689Y-70134364D01*
X100200000Y-70114531D01*
X99973310Y-70134364D01*
X99753499Y-70193262D01*
X99547268Y-70289430D01*
X99360864Y-70419950D01*
X99199950Y-70580864D01*
X99069430Y-70767268D01*
X98973262Y-70973499D01*
X98914364Y-71193310D01*
X98894531Y-71420000D01*
X96505468Y-71420000D01*
X96485635Y-71193308D01*
X96426739Y-70973504D01*
X96418226Y-70955249D01*
X96330569Y-70767268D01*
X96267800Y-70677624D01*
X96200047Y-70580861D01*
X96039139Y-70419953D01*
X95852734Y-70289432D01*
X95852733Y-70289431D01*
X95852731Y-70289430D01*
X95646500Y-70193262D01*
X95426689Y-70134364D01*
X95200000Y-70114531D01*
X94973310Y-70134364D01*
X94753499Y-70193262D01*
X94547268Y-70289430D01*
X94360864Y-70419950D01*
X94199950Y-70580864D01*
X94069430Y-70767268D01*
X93973262Y-70973499D01*
X93914364Y-71193310D01*
X93894531Y-71420000D01*
X84300500Y-71420000D01*
X84300500Y-69632499D01*
X91394750Y-69632499D01*
X91413669Y-69776209D01*
X91420468Y-69792622D01*
X91469139Y-69910125D01*
X91476056Y-69919139D01*
X91557378Y-70025121D01*
X91607306Y-70063432D01*
X91672375Y-70113361D01*
X91767067Y-70152583D01*
X91806290Y-70168830D01*
X91823008Y-70171031D01*
X91950000Y-70187750D01*
X92093709Y-70168830D01*
X92227625Y-70113361D01*
X92342621Y-70025121D01*
X92430861Y-69910125D01*
X92486330Y-69776209D01*
X92495696Y-69705065D01*
X92522037Y-69649841D01*
X92575807Y-69620646D01*
X92636469Y-69628632D01*
X92680852Y-69670749D01*
X92685312Y-69680102D01*
X92709139Y-69737625D01*
X92747450Y-69787552D01*
X92797378Y-69852621D01*
X92834182Y-69880861D01*
X92912375Y-69940861D01*
X93007067Y-69980083D01*
X93046290Y-69996330D01*
X93065209Y-69998820D01*
X93190000Y-70015250D01*
X93333709Y-69996330D01*
X93467625Y-69940861D01*
X93582621Y-69852621D01*
X93670861Y-69737625D01*
X93726330Y-69603709D01*
X93745250Y-69460000D01*
X93726330Y-69316291D01*
X93713533Y-69285397D01*
X93705706Y-69266499D01*
X93689072Y-69226341D01*
X99618409Y-69226341D01*
X99637328Y-69370050D01*
X99674587Y-69460000D01*
X99692798Y-69503966D01*
X99723294Y-69543709D01*
X99781037Y-69618962D01*
X99821280Y-69649841D01*
X99896034Y-69707202D01*
X99969483Y-69737625D01*
X100029949Y-69762671D01*
X100037834Y-69763709D01*
X100173659Y-69781591D01*
X100317368Y-69762671D01*
X100451284Y-69707202D01*
X100492677Y-69675439D01*
X100550349Y-69655016D01*
X100609015Y-69672393D01*
X100631484Y-69693714D01*
X100641834Y-69707202D01*
X100707379Y-69792621D01*
X100822375Y-69880861D01*
X100893026Y-69910125D01*
X100956290Y-69936330D01*
X100975209Y-69938820D01*
X101100000Y-69955250D01*
X101243709Y-69936330D01*
X101377625Y-69880861D01*
X101492621Y-69792621D01*
X101580861Y-69677625D01*
X101604730Y-69620000D01*
X107944750Y-69620000D01*
X107963669Y-69763709D01*
X107997238Y-69844750D01*
X108019139Y-69897625D01*
X108048839Y-69936330D01*
X108107378Y-70012621D01*
X108123669Y-70025121D01*
X108222375Y-70100861D01*
X108303260Y-70134364D01*
X108356290Y-70156330D01*
X108375210Y-70158820D01*
X108500000Y-70175250D01*
X108643709Y-70156330D01*
X108777625Y-70100861D01*
X108892621Y-70012621D01*
X108980861Y-69897625D01*
X109036330Y-69763709D01*
X109055250Y-69620000D01*
X109036330Y-69476291D01*
X108980861Y-69342375D01*
X108902212Y-69239878D01*
X108892621Y-69227378D01*
X108827552Y-69177450D01*
X108777625Y-69139139D01*
X108738401Y-69122892D01*
X108643709Y-69083669D01*
X108516717Y-69066951D01*
X108500000Y-69064750D01*
X108499999Y-69064750D01*
X108356290Y-69083669D01*
X108222375Y-69139139D01*
X108107378Y-69227378D01*
X108019139Y-69342375D01*
X107963669Y-69476290D01*
X107944750Y-69620000D01*
X101604730Y-69620000D01*
X101636330Y-69543709D01*
X101655250Y-69400000D01*
X101653626Y-69387671D01*
X101664774Y-69327515D01*
X101709155Y-69285397D01*
X101764701Y-69276598D01*
X101791135Y-69280078D01*
X101918415Y-69296835D01*
X102062124Y-69277915D01*
X102196040Y-69222446D01*
X102311036Y-69134206D01*
X102399276Y-69019210D01*
X102454745Y-68885294D01*
X102473665Y-68741585D01*
X102470955Y-68721005D01*
X102472763Y-68711249D01*
X120466000Y-68711249D01*
X120484919Y-68854959D01*
X120523755Y-68948716D01*
X120540389Y-68988875D01*
X120563666Y-69019210D01*
X120628628Y-69103871D01*
X120668162Y-69134206D01*
X120743625Y-69192111D01*
X120828771Y-69227379D01*
X120877540Y-69247580D01*
X120894258Y-69249781D01*
X121021250Y-69266500D01*
X121164959Y-69247580D01*
X121298875Y-69192111D01*
X121413871Y-69103871D01*
X121502111Y-68988875D01*
X121557580Y-68854959D01*
X121576500Y-68711250D01*
X121559638Y-68583170D01*
X121557580Y-68567540D01*
X121539455Y-68523783D01*
X121502111Y-68433625D01*
X121432092Y-68342375D01*
X121413871Y-68318628D01*
X121348802Y-68268700D01*
X121298875Y-68230389D01*
X121259651Y-68214142D01*
X121164959Y-68174919D01*
X121037967Y-68158201D01*
X121021250Y-68156000D01*
X121021249Y-68156000D01*
X120877540Y-68174919D01*
X120743625Y-68230389D01*
X120628628Y-68318628D01*
X120540389Y-68433625D01*
X120484919Y-68567540D01*
X120466000Y-68711249D01*
X102472763Y-68711249D01*
X102482104Y-68660848D01*
X102526486Y-68618730D01*
X102587147Y-68610742D01*
X102605785Y-68616263D01*
X102606289Y-68616329D01*
X102606291Y-68616330D01*
X102750000Y-68635250D01*
X102893709Y-68616330D01*
X103027625Y-68560861D01*
X103142621Y-68472621D01*
X103230861Y-68357625D01*
X103286330Y-68223709D01*
X103305250Y-68080000D01*
X103286330Y-67936291D01*
X103230861Y-67802375D01*
X103161990Y-67712621D01*
X103142621Y-67687378D01*
X103077552Y-67637450D01*
X103027625Y-67599139D01*
X102988401Y-67582892D01*
X102893709Y-67543669D01*
X102750000Y-67524750D01*
X102606290Y-67543669D01*
X102472375Y-67599138D01*
X102441398Y-67622908D01*
X102383722Y-67643331D01*
X102325057Y-67625953D01*
X102302590Y-67604633D01*
X102256035Y-67543962D01*
X102185159Y-67489577D01*
X102141040Y-67455724D01*
X102101816Y-67439477D01*
X102007124Y-67400254D01*
X101863415Y-67381335D01*
X101719705Y-67400254D01*
X101585790Y-67455724D01*
X101470793Y-67543963D01*
X101382554Y-67658960D01*
X101327084Y-67792875D01*
X101308165Y-67936585D01*
X101309650Y-67947870D01*
X101298499Y-68008031D01*
X101254115Y-68050147D01*
X101193453Y-68058132D01*
X101173613Y-68052255D01*
X101160538Y-68046839D01*
X101016830Y-68027920D01*
X100873120Y-68046839D01*
X100739205Y-68102309D01*
X100624208Y-68190548D01*
X100535969Y-68305545D01*
X100480499Y-68439460D01*
X100461580Y-68583170D01*
X100462393Y-68589349D01*
X100451242Y-68649510D01*
X100406859Y-68691626D01*
X100346197Y-68699611D01*
X100326355Y-68693733D01*
X100317369Y-68690010D01*
X100173659Y-68671091D01*
X100029949Y-68690010D01*
X99896034Y-68745480D01*
X99781037Y-68833719D01*
X99692798Y-68948716D01*
X99637328Y-69082631D01*
X99618409Y-69226341D01*
X93689072Y-69226341D01*
X93670861Y-69182375D01*
X93620932Y-69117306D01*
X93582621Y-69067378D01*
X93511259Y-69012621D01*
X93467625Y-68979139D01*
X93428401Y-68962892D01*
X93333709Y-68923669D01*
X93190000Y-68904750D01*
X93046290Y-68923669D01*
X92912375Y-68979139D01*
X92797378Y-69067378D01*
X92709139Y-69182375D01*
X92653669Y-69316290D01*
X92644303Y-69387434D01*
X92617961Y-69442659D01*
X92564190Y-69471853D01*
X92503529Y-69463867D01*
X92459147Y-69421749D01*
X92454697Y-69412421D01*
X92430861Y-69354875D01*
X92430858Y-69354871D01*
X92342621Y-69239878D01*
X92233738Y-69156330D01*
X92227625Y-69151639D01*
X92185537Y-69134206D01*
X92093709Y-69096169D01*
X91950000Y-69077250D01*
X91806290Y-69096169D01*
X91672375Y-69151639D01*
X91557378Y-69239878D01*
X91469139Y-69354875D01*
X91413669Y-69488790D01*
X91394750Y-69632499D01*
X84300500Y-69632499D01*
X84300500Y-68619999D01*
X85894750Y-68619999D01*
X85913669Y-68763709D01*
X85942669Y-68833720D01*
X85969139Y-68897625D01*
X86007450Y-68947552D01*
X86057378Y-69012621D01*
X86107306Y-69050932D01*
X86172375Y-69100861D01*
X86264788Y-69139139D01*
X86306290Y-69156330D01*
X86323008Y-69158531D01*
X86450000Y-69175250D01*
X86593709Y-69156330D01*
X86727625Y-69100861D01*
X86842621Y-69012621D01*
X86921458Y-68909878D01*
X86971882Y-68875223D01*
X87033047Y-68876824D01*
X87078542Y-68909879D01*
X87157378Y-69012621D01*
X87207306Y-69050932D01*
X87272375Y-69100861D01*
X87364788Y-69139139D01*
X87406290Y-69156330D01*
X87423008Y-69158531D01*
X87550000Y-69175250D01*
X87693709Y-69156330D01*
X87827625Y-69100861D01*
X87942621Y-69012621D01*
X88030861Y-68897625D01*
X88086330Y-68763709D01*
X88105250Y-68620000D01*
X88086330Y-68476291D01*
X88030861Y-68342375D01*
X87944931Y-68230389D01*
X87942621Y-68227378D01*
X87874254Y-68174919D01*
X87827625Y-68139139D01*
X87797287Y-68126572D01*
X87693710Y-68083669D01*
X87596918Y-68070927D01*
X87575845Y-68068152D01*
X87554900Y-68058162D01*
X87524153Y-68068152D01*
X87513304Y-68069581D01*
X87406290Y-68083669D01*
X87272375Y-68139139D01*
X87157378Y-68227378D01*
X87078542Y-68330120D01*
X87028117Y-68364776D01*
X86966953Y-68363174D01*
X86921458Y-68330120D01*
X86842621Y-68227378D01*
X86774254Y-68174919D01*
X86727625Y-68139139D01*
X86688401Y-68122892D01*
X86593709Y-68083669D01*
X86450000Y-68064750D01*
X86306290Y-68083669D01*
X86172375Y-68139139D01*
X86057378Y-68227378D01*
X85969139Y-68342375D01*
X85913669Y-68476290D01*
X85894750Y-68619999D01*
X84300500Y-68619999D01*
X84300500Y-67319999D01*
X86994750Y-67319999D01*
X87013669Y-67463709D01*
X87046790Y-67543669D01*
X87069139Y-67597625D01*
X87090876Y-67625953D01*
X87157378Y-67712621D01*
X87207306Y-67750932D01*
X87272375Y-67800861D01*
X87367067Y-67840083D01*
X87406290Y-67856330D01*
X87469270Y-67864621D01*
X87524153Y-67871847D01*
X87545098Y-67881837D01*
X87575844Y-67871847D01*
X87652662Y-67861733D01*
X87693710Y-67856330D01*
X87724046Y-67843763D01*
X87827625Y-67800861D01*
X87942621Y-67712621D01*
X88030861Y-67597625D01*
X88086330Y-67463709D01*
X88105250Y-67320000D01*
X88086330Y-67176291D01*
X88030861Y-67042375D01*
X87980932Y-66977306D01*
X87942621Y-66927378D01*
X87858149Y-66862561D01*
X87827625Y-66839139D01*
X87788401Y-66822892D01*
X87693709Y-66783669D01*
X87621478Y-66774160D01*
X110436891Y-66774160D01*
X110450699Y-66782836D01*
X110620853Y-66842376D01*
X110800000Y-66862561D01*
X110979143Y-66842376D01*
X111149304Y-66782835D01*
X111163107Y-66774161D01*
X111163106Y-66774160D01*
X111936891Y-66774160D01*
X111950699Y-66782836D01*
X112120853Y-66842376D01*
X112300000Y-66862561D01*
X112479143Y-66842376D01*
X112649304Y-66782835D01*
X112663107Y-66774161D01*
X112299999Y-66411053D01*
X111936891Y-66774160D01*
X111163106Y-66774160D01*
X110799999Y-66411053D01*
X110436891Y-66774160D01*
X87621478Y-66774160D01*
X87550000Y-66764750D01*
X87406290Y-66783669D01*
X87272375Y-66839139D01*
X87157378Y-66927378D01*
X87069139Y-67042375D01*
X87013669Y-67176290D01*
X86994750Y-67319999D01*
X84300500Y-67319999D01*
X84300500Y-65900000D01*
X86994750Y-65900000D01*
X87013669Y-66043709D01*
X87051543Y-66135145D01*
X87069139Y-66177625D01*
X87072880Y-66182500D01*
X87157378Y-66292621D01*
X87207306Y-66330932D01*
X87272375Y-66380861D01*
X87362279Y-66418100D01*
X87406290Y-66436330D01*
X87423008Y-66438531D01*
X87550000Y-66455250D01*
X87693709Y-66436330D01*
X87827625Y-66380861D01*
X87942621Y-66292621D01*
X88030861Y-66177625D01*
X88080618Y-66057500D01*
X109994938Y-66057500D01*
X110015123Y-66236643D01*
X110074664Y-66406806D01*
X110083337Y-66420608D01*
X110446446Y-66057500D01*
X110644709Y-66057500D01*
X110665514Y-66135145D01*
X110722355Y-66191986D01*
X110780254Y-66207500D01*
X110819746Y-66207500D01*
X110877645Y-66191986D01*
X110887131Y-66182500D01*
X111278553Y-66182500D01*
X111516661Y-66420607D01*
X111538920Y-66418100D01*
X111561089Y-66418101D01*
X111583337Y-66420608D01*
X111821446Y-66182500D01*
X111696446Y-66057500D01*
X112144709Y-66057500D01*
X112165514Y-66135145D01*
X112222355Y-66191986D01*
X112280254Y-66207500D01*
X112319746Y-66207500D01*
X112377645Y-66191986D01*
X112434486Y-66135146D01*
X112455291Y-66057500D01*
X112455291Y-66057499D01*
X112653553Y-66057499D01*
X113016661Y-66420607D01*
X113025335Y-66406804D01*
X113084876Y-66236643D01*
X113105061Y-66057500D01*
X113084876Y-65878353D01*
X113025336Y-65708199D01*
X113016660Y-65694391D01*
X112653553Y-66057499D01*
X112455291Y-66057499D01*
X112434486Y-65979855D01*
X112377645Y-65923014D01*
X112319746Y-65907500D01*
X112280254Y-65907500D01*
X112222355Y-65923014D01*
X112165514Y-65979854D01*
X112144709Y-66057500D01*
X111696446Y-66057500D01*
X111550000Y-65911054D01*
X111278553Y-66182500D01*
X110887131Y-66182500D01*
X110934486Y-66135146D01*
X110955291Y-66057500D01*
X110934486Y-65979855D01*
X110877645Y-65923014D01*
X110819746Y-65907500D01*
X110780254Y-65907500D01*
X110722355Y-65923014D01*
X110665514Y-65979854D01*
X110644709Y-66057500D01*
X110446446Y-66057500D01*
X110446447Y-66057499D01*
X110083338Y-65694390D01*
X110074663Y-65708197D01*
X110015123Y-65878353D01*
X109994938Y-66057500D01*
X88080618Y-66057500D01*
X88086330Y-66043709D01*
X88105250Y-65900000D01*
X88086330Y-65756291D01*
X88034858Y-65632025D01*
X102199500Y-65632025D01*
X102199501Y-65634864D01*
X102199828Y-65637687D01*
X102199829Y-65637697D01*
X102202415Y-65659990D01*
X102247793Y-65762764D01*
X102247794Y-65762765D01*
X102327235Y-65842206D01*
X102430009Y-65887585D01*
X102455135Y-65890500D01*
X104544864Y-65890499D01*
X104569991Y-65887585D01*
X104672765Y-65842206D01*
X104752206Y-65762765D01*
X104797585Y-65659991D01*
X104800500Y-65634865D01*
X104800500Y-65557500D01*
X110653554Y-65557500D01*
X110800000Y-65703946D01*
X110946446Y-65557500D01*
X111394709Y-65557500D01*
X111415514Y-65635145D01*
X111472355Y-65691986D01*
X111530254Y-65707500D01*
X111569746Y-65707500D01*
X111627645Y-65691986D01*
X111684486Y-65635146D01*
X111705291Y-65557500D01*
X112153554Y-65557500D01*
X112300000Y-65703946D01*
X112446446Y-65557500D01*
X112300000Y-65411054D01*
X112153554Y-65557500D01*
X111705291Y-65557500D01*
X111684486Y-65479855D01*
X111627645Y-65423014D01*
X111569746Y-65407500D01*
X111530254Y-65407500D01*
X111472355Y-65423014D01*
X111415514Y-65479854D01*
X111394709Y-65557500D01*
X110946446Y-65557500D01*
X110946447Y-65557499D01*
X110800000Y-65411053D01*
X110653554Y-65557500D01*
X104800500Y-65557500D01*
X104800499Y-64196152D01*
X109187517Y-64196152D01*
X109206436Y-64339862D01*
X109245659Y-64434554D01*
X109261906Y-64473778D01*
X109300217Y-64523705D01*
X109350145Y-64588774D01*
X109400073Y-64627085D01*
X109465142Y-64677014D01*
X109559834Y-64716236D01*
X109599057Y-64732483D01*
X109615775Y-64734684D01*
X109742767Y-64751403D01*
X109886476Y-64732483D01*
X109892219Y-64730103D01*
X109953215Y-64725300D01*
X110005385Y-64757267D01*
X110028802Y-64813794D01*
X110023553Y-64854262D01*
X110015123Y-64878353D01*
X109994938Y-65057500D01*
X110015123Y-65236643D01*
X110074664Y-65406806D01*
X110083337Y-65420608D01*
X110446447Y-65057500D01*
X110644709Y-65057500D01*
X110665514Y-65135145D01*
X110722355Y-65191986D01*
X110780254Y-65207500D01*
X110819746Y-65207500D01*
X110877645Y-65191986D01*
X110934486Y-65135146D01*
X110955291Y-65057500D01*
X110934486Y-64979855D01*
X110887130Y-64932499D01*
X111278553Y-64932499D01*
X111550000Y-65203946D01*
X111696446Y-65057500D01*
X112144709Y-65057500D01*
X112165514Y-65135145D01*
X112222355Y-65191986D01*
X112280254Y-65207500D01*
X112319746Y-65207500D01*
X112377645Y-65191986D01*
X112434486Y-65135146D01*
X112455291Y-65057500D01*
X112455291Y-65057499D01*
X112653553Y-65057499D01*
X113016660Y-65420608D01*
X113016661Y-65420607D01*
X113025335Y-65406804D01*
X113084876Y-65236643D01*
X113105061Y-65057500D01*
X113084876Y-64878353D01*
X113025336Y-64708199D01*
X113016660Y-64694391D01*
X112653553Y-65057499D01*
X112455291Y-65057499D01*
X112434486Y-64979855D01*
X112377645Y-64923014D01*
X112319746Y-64907500D01*
X112280254Y-64907500D01*
X112222355Y-64923014D01*
X112165514Y-64979854D01*
X112144709Y-65057500D01*
X111696446Y-65057500D01*
X111821447Y-64932499D01*
X111583337Y-64694390D01*
X111561088Y-64696898D01*
X111538917Y-64696899D01*
X111516660Y-64694391D01*
X111278553Y-64932499D01*
X110887130Y-64932499D01*
X110877645Y-64923014D01*
X110819746Y-64907500D01*
X110780254Y-64907500D01*
X110722355Y-64923014D01*
X110665514Y-64979854D01*
X110644709Y-65057500D01*
X110446447Y-65057500D01*
X110800001Y-64703947D01*
X111163108Y-64340837D01*
X111936890Y-64340837D01*
X112299999Y-64703945D01*
X112663107Y-64340837D01*
X112649306Y-64332164D01*
X112479143Y-64272623D01*
X112299999Y-64252438D01*
X112120853Y-64272623D01*
X111950697Y-64332163D01*
X111936890Y-64340837D01*
X111163108Y-64340837D01*
X111149306Y-64332164D01*
X110979143Y-64272623D01*
X110799999Y-64252438D01*
X110620853Y-64272623D01*
X110450698Y-64332163D01*
X110443038Y-64336977D01*
X110383707Y-64351927D01*
X110326920Y-64329147D01*
X110294368Y-64277340D01*
X110292214Y-64240229D01*
X110298017Y-64196153D01*
X110279097Y-64052444D01*
X110223628Y-63918528D01*
X110167016Y-63844750D01*
X110135388Y-63803531D01*
X110070319Y-63753603D01*
X110020392Y-63715292D01*
X109981168Y-63699045D01*
X109886476Y-63659822D01*
X109742767Y-63640903D01*
X109599057Y-63659822D01*
X109465142Y-63715292D01*
X109350145Y-63803531D01*
X109261906Y-63918528D01*
X109206436Y-64052443D01*
X109187517Y-64196152D01*
X104800499Y-64196152D01*
X104800499Y-63545136D01*
X104797585Y-63520009D01*
X104753427Y-63420000D01*
X106694750Y-63420000D01*
X106713669Y-63563709D01*
X106745644Y-63640903D01*
X106769139Y-63697625D01*
X106807450Y-63747552D01*
X106857378Y-63812621D01*
X106899250Y-63844750D01*
X106972375Y-63900861D01*
X107067067Y-63940083D01*
X107106290Y-63956330D01*
X107125209Y-63958820D01*
X107250000Y-63975250D01*
X107393709Y-63956330D01*
X107527625Y-63900861D01*
X107642621Y-63812621D01*
X107730861Y-63697625D01*
X107786330Y-63563709D01*
X107805250Y-63420000D01*
X107788453Y-63292414D01*
X107786330Y-63276290D01*
X107770083Y-63237067D01*
X107730861Y-63142375D01*
X107680932Y-63077306D01*
X107642621Y-63027378D01*
X107577552Y-62977450D01*
X107527625Y-62939139D01*
X107488401Y-62922892D01*
X107393709Y-62883669D01*
X107266717Y-62866951D01*
X107250000Y-62864750D01*
X107249999Y-62864750D01*
X107106290Y-62883669D01*
X106972375Y-62939139D01*
X106857378Y-63027378D01*
X106769139Y-63142375D01*
X106713669Y-63276290D01*
X106694750Y-63420000D01*
X104753427Y-63420000D01*
X104752206Y-63417235D01*
X104672765Y-63337794D01*
X104672764Y-63337793D01*
X104569989Y-63292414D01*
X104547714Y-63289830D01*
X104547704Y-63289829D01*
X104544865Y-63289500D01*
X104542000Y-63289500D01*
X102457991Y-63289500D01*
X102457973Y-63289500D01*
X102455136Y-63289501D01*
X102452313Y-63289828D01*
X102452302Y-63289829D01*
X102430009Y-63292415D01*
X102327235Y-63337793D01*
X102247793Y-63417235D01*
X102202414Y-63520010D01*
X102199830Y-63542285D01*
X102199829Y-63542296D01*
X102199500Y-63545135D01*
X102199500Y-63547991D01*
X102199500Y-63547999D01*
X102199500Y-65632008D01*
X102199500Y-65632025D01*
X88034858Y-65632025D01*
X88030861Y-65622375D01*
X87980932Y-65557306D01*
X87942621Y-65507378D01*
X87877552Y-65457450D01*
X87827625Y-65419139D01*
X87788401Y-65402892D01*
X87693709Y-65363669D01*
X87566717Y-65346951D01*
X87550000Y-65344750D01*
X87549999Y-65344750D01*
X87406290Y-65363669D01*
X87272375Y-65419139D01*
X87157378Y-65507378D01*
X87069139Y-65622375D01*
X87013669Y-65756290D01*
X86994750Y-65900000D01*
X84300500Y-65900000D01*
X84300500Y-64400000D01*
X86994750Y-64400000D01*
X87013669Y-64543709D01*
X87032336Y-64588774D01*
X87069139Y-64677625D01*
X87105722Y-64725300D01*
X87157378Y-64792621D01*
X87184972Y-64813794D01*
X87272375Y-64880861D01*
X87367067Y-64920083D01*
X87406290Y-64936330D01*
X87423008Y-64938531D01*
X87550000Y-64955250D01*
X87693709Y-64936330D01*
X87827625Y-64880861D01*
X87942621Y-64792621D01*
X88030861Y-64677625D01*
X88086330Y-64543709D01*
X88105250Y-64400000D01*
X88086330Y-64256291D01*
X88030861Y-64122375D01*
X87977200Y-64052443D01*
X87942621Y-64007378D01*
X87876093Y-63956330D01*
X87827625Y-63919139D01*
X87783495Y-63900860D01*
X87693709Y-63863669D01*
X87550000Y-63844750D01*
X87406290Y-63863669D01*
X87272375Y-63919139D01*
X87157378Y-64007378D01*
X87069139Y-64122375D01*
X87013669Y-64256290D01*
X86994750Y-64400000D01*
X84300500Y-64400000D01*
X84300500Y-62987690D01*
X85584441Y-62987690D01*
X85603360Y-63131400D01*
X85642583Y-63226092D01*
X85658830Y-63265316D01*
X85679623Y-63292414D01*
X85747069Y-63380312D01*
X85795189Y-63417235D01*
X85862066Y-63468552D01*
X85956758Y-63507774D01*
X85995981Y-63524021D01*
X86012699Y-63526222D01*
X86139691Y-63542941D01*
X86283400Y-63524021D01*
X86417316Y-63468552D01*
X86532312Y-63380312D01*
X86620552Y-63265316D01*
X86676021Y-63131400D01*
X86694941Y-62987691D01*
X86676021Y-62843982D01*
X86620552Y-62710066D01*
X86570623Y-62644997D01*
X86532312Y-62595069D01*
X86467243Y-62545141D01*
X86417316Y-62506830D01*
X86378092Y-62490583D01*
X86283400Y-62451360D01*
X86139691Y-62432441D01*
X85995981Y-62451360D01*
X85862066Y-62506830D01*
X85747069Y-62595069D01*
X85658830Y-62710066D01*
X85603360Y-62843981D01*
X85584441Y-62987690D01*
X84300500Y-62987690D01*
X84300500Y-62020000D01*
X108394750Y-62020000D01*
X108396840Y-62035873D01*
X108413669Y-62163709D01*
X108452386Y-62257178D01*
X108469139Y-62297625D01*
X108482988Y-62315673D01*
X108557378Y-62412621D01*
X108607306Y-62450932D01*
X108672375Y-62500861D01*
X108767067Y-62540083D01*
X108806290Y-62556330D01*
X108825210Y-62558820D01*
X108950000Y-62575250D01*
X109093709Y-62556330D01*
X109227625Y-62500861D01*
X109342621Y-62412621D01*
X109430861Y-62297625D01*
X109486330Y-62163709D01*
X109505250Y-62020000D01*
X109487178Y-61882730D01*
X109486330Y-61876290D01*
X109470083Y-61837067D01*
X109430861Y-61742375D01*
X109380932Y-61677306D01*
X109342621Y-61627378D01*
X109277552Y-61577450D01*
X109227625Y-61539139D01*
X109188401Y-61522892D01*
X109093709Y-61483669D01*
X108950000Y-61464750D01*
X108806290Y-61483669D01*
X108672375Y-61539139D01*
X108557378Y-61627378D01*
X108469139Y-61742375D01*
X108413669Y-61876290D01*
X108394750Y-62019999D01*
X108394750Y-62020000D01*
X84300500Y-62020000D01*
X84300500Y-59105269D01*
X84319407Y-59047078D01*
X84368907Y-59011114D01*
X84430093Y-59011114D01*
X84460045Y-59032283D01*
X84462038Y-59029687D01*
X84515115Y-59070414D01*
X84587375Y-59125861D01*
X84676659Y-59162843D01*
X84721290Y-59181330D01*
X84740210Y-59183820D01*
X84865000Y-59200250D01*
X85008709Y-59181330D01*
X85106187Y-59140953D01*
X85167182Y-59136153D01*
X85219351Y-59168123D01*
X85242766Y-59224650D01*
X85228482Y-59284145D01*
X85222614Y-59292685D01*
X85169137Y-59362377D01*
X85113669Y-59496290D01*
X85094750Y-59639999D01*
X85113669Y-59783709D01*
X85133879Y-59832499D01*
X85169139Y-59917625D01*
X85180702Y-59932694D01*
X85257378Y-60032621D01*
X85283443Y-60052621D01*
X85372375Y-60120861D01*
X85451811Y-60153764D01*
X85506290Y-60176330D01*
X85525209Y-60178820D01*
X85650000Y-60195250D01*
X85793709Y-60176330D01*
X85927625Y-60120861D01*
X86042621Y-60032621D01*
X86130861Y-59917625D01*
X86186330Y-59783709D01*
X86205250Y-59640000D01*
X86186330Y-59496291D01*
X86174905Y-59468709D01*
X86130862Y-59362377D01*
X86130861Y-59362376D01*
X86130861Y-59362375D01*
X86088790Y-59307547D01*
X86068367Y-59249874D01*
X86085744Y-59191208D01*
X86107062Y-59168743D01*
X86147621Y-59137621D01*
X86235861Y-59022625D01*
X86291330Y-58888709D01*
X86310250Y-58745000D01*
X86297084Y-58644999D01*
X92369750Y-58644999D01*
X92388669Y-58788709D01*
X92412296Y-58845748D01*
X92444139Y-58922625D01*
X92482450Y-58972552D01*
X92532378Y-59037621D01*
X92575115Y-59070414D01*
X92647375Y-59125861D01*
X92736659Y-59162843D01*
X92781290Y-59181330D01*
X92798008Y-59183531D01*
X92925000Y-59200250D01*
X93068709Y-59181330D01*
X93202625Y-59125861D01*
X93317621Y-59037621D01*
X93405861Y-58922625D01*
X93416081Y-58897951D01*
X95146581Y-58897951D01*
X95165500Y-59041660D01*
X95187951Y-59095861D01*
X95220970Y-59175576D01*
X95256638Y-59222059D01*
X95309209Y-59290572D01*
X95354076Y-59324999D01*
X95424206Y-59378812D01*
X95518898Y-59418034D01*
X95558121Y-59434281D01*
X95577041Y-59436771D01*
X95701831Y-59453201D01*
X95811978Y-59438699D01*
X95872137Y-59449849D01*
X95914255Y-59494231D01*
X95923052Y-59549773D01*
X95914145Y-59617433D01*
X95933064Y-59761143D01*
X95960529Y-59827448D01*
X95988534Y-59895059D01*
X96021196Y-59937625D01*
X96076773Y-60010055D01*
X96126701Y-60048366D01*
X96191770Y-60098295D01*
X96273821Y-60132281D01*
X96325685Y-60153764D01*
X96342403Y-60155965D01*
X96469395Y-60172684D01*
X96613104Y-60153764D01*
X96747020Y-60098295D01*
X96862016Y-60010055D01*
X96950256Y-59895059D01*
X96995754Y-59785214D01*
X97035489Y-59738690D01*
X97094983Y-59724406D01*
X97147484Y-59744559D01*
X97173294Y-59764363D01*
X97227375Y-59805861D01*
X97322067Y-59845083D01*
X97361290Y-59861330D01*
X97380209Y-59863820D01*
X97505000Y-59880250D01*
X97648709Y-59861330D01*
X97782625Y-59805861D01*
X97897621Y-59717621D01*
X97985861Y-59602625D01*
X97991091Y-59589999D01*
X102194531Y-59589999D01*
X102214364Y-59816689D01*
X102273262Y-60036500D01*
X102369430Y-60242731D01*
X102369431Y-60242733D01*
X102369432Y-60242734D01*
X102499953Y-60429139D01*
X102660861Y-60590047D01*
X102847266Y-60720568D01*
X102847267Y-60720568D01*
X102847268Y-60720569D01*
X103053499Y-60816737D01*
X103053500Y-60816737D01*
X103053504Y-60816739D01*
X103273308Y-60875635D01*
X103500000Y-60895468D01*
X103726692Y-60875635D01*
X103946496Y-60816739D01*
X104152734Y-60720568D01*
X104339139Y-60590047D01*
X104500047Y-60429139D01*
X104630568Y-60242734D01*
X104726739Y-60036496D01*
X104785635Y-59816692D01*
X104799344Y-59660000D01*
X112884750Y-59660000D01*
X112903669Y-59803709D01*
X112927537Y-59861330D01*
X112959139Y-59937625D01*
X112997450Y-59987552D01*
X113047378Y-60052621D01*
X113097306Y-60090932D01*
X113162375Y-60140861D01*
X113239204Y-60172684D01*
X113296290Y-60196330D01*
X113313008Y-60198531D01*
X113440000Y-60215250D01*
X113583709Y-60196330D01*
X113717625Y-60140861D01*
X113724835Y-60135328D01*
X113782509Y-60114904D01*
X113841175Y-60132281D01*
X113869363Y-60161898D01*
X113922681Y-60248341D01*
X114046658Y-60372318D01*
X114195878Y-60464357D01*
X114329957Y-60508787D01*
X114379247Y-60545038D01*
X114397815Y-60603338D01*
X114378570Y-60661418D01*
X114348318Y-60688498D01*
X114332783Y-60697467D01*
X114192113Y-60824126D01*
X114080848Y-60977271D01*
X114003856Y-61150195D01*
X113964500Y-61335355D01*
X113964500Y-61524644D01*
X114003856Y-61709804D01*
X114080848Y-61882728D01*
X114192113Y-62035873D01*
X114332781Y-62162531D01*
X114332783Y-62162532D01*
X114332784Y-62162533D01*
X114496716Y-62257179D01*
X114676744Y-62315674D01*
X114817808Y-62330500D01*
X114820389Y-62330500D01*
X115459611Y-62330500D01*
X115462192Y-62330500D01*
X115603256Y-62315674D01*
X115783284Y-62257179D01*
X115947216Y-62162533D01*
X116087888Y-62035871D01*
X116199151Y-61882730D01*
X116276144Y-61709803D01*
X116315500Y-61524646D01*
X116315500Y-61335354D01*
X116276144Y-61150197D01*
X116199151Y-60977270D01*
X116087888Y-60824129D01*
X116087886Y-60824126D01*
X115947216Y-60697467D01*
X115931682Y-60688498D01*
X115890741Y-60643028D01*
X115884347Y-60582177D01*
X115914940Y-60529190D01*
X115950043Y-60508787D01*
X116084121Y-60464357D01*
X116233341Y-60372318D01*
X116357318Y-60248341D01*
X116449357Y-60099121D01*
X116504506Y-59932694D01*
X116514742Y-59832499D01*
X116515000Y-59827448D01*
X116515000Y-59680001D01*
X116514999Y-59680000D01*
X115419560Y-59680000D01*
X115458278Y-59637941D01*
X115508551Y-59523330D01*
X115518886Y-59398605D01*
X115488163Y-59277281D01*
X115424606Y-59180000D01*
X116514998Y-59180000D01*
X116514998Y-59179999D01*
X116514999Y-59032552D01*
X116514742Y-59027517D01*
X116504505Y-58927302D01*
X116449357Y-58760877D01*
X116357318Y-58611658D01*
X116233341Y-58487681D01*
X116084121Y-58395642D01*
X115917694Y-58340493D01*
X115817499Y-58330257D01*
X115812449Y-58330000D01*
X115390001Y-58330000D01*
X115389999Y-58330001D01*
X115389998Y-59149382D01*
X115320948Y-59095637D01*
X115202576Y-59055000D01*
X115108927Y-59055000D01*
X115016554Y-59070414D01*
X114906486Y-59129981D01*
X114889999Y-59147889D01*
X114889999Y-58330001D01*
X114889998Y-58330000D01*
X114467552Y-58330000D01*
X114462517Y-58330257D01*
X114362302Y-58340494D01*
X114195876Y-58395642D01*
X114123039Y-58440569D01*
X114063586Y-58455025D01*
X114006990Y-58431774D01*
X113979603Y-58394193D01*
X113976330Y-58386291D01*
X113920861Y-58252375D01*
X113853155Y-58164139D01*
X113832621Y-58137378D01*
X113731453Y-58059750D01*
X113717625Y-58049139D01*
X113678401Y-58032892D01*
X113583709Y-57993669D01*
X113440000Y-57974750D01*
X113296290Y-57993669D01*
X113162375Y-58049139D01*
X113047378Y-58137378D01*
X112959139Y-58252375D01*
X112903669Y-58386290D01*
X112884750Y-58529999D01*
X112903669Y-58673709D01*
X112927076Y-58730217D01*
X112959139Y-58807625D01*
X112988392Y-58845748D01*
X113047378Y-58922621D01*
X113169669Y-59016458D01*
X113204325Y-59066882D01*
X113202724Y-59128047D01*
X113169669Y-59173542D01*
X113047378Y-59267378D01*
X112959139Y-59382375D01*
X112903669Y-59516290D01*
X112884750Y-59660000D01*
X104799344Y-59660000D01*
X104805468Y-59590000D01*
X104785635Y-59363308D01*
X104726739Y-59143504D01*
X104723994Y-59137618D01*
X104630569Y-58937268D01*
X104620315Y-58922624D01*
X104500047Y-58750861D01*
X104339139Y-58589953D01*
X104253516Y-58530000D01*
X104172735Y-58473437D01*
X104152734Y-58459432D01*
X104152733Y-58459431D01*
X104152731Y-58459430D01*
X103946500Y-58363262D01*
X103726689Y-58304364D01*
X103500000Y-58284531D01*
X103273310Y-58304364D01*
X103053499Y-58363262D01*
X102847268Y-58459430D01*
X102660864Y-58589950D01*
X102499950Y-58750864D01*
X102369430Y-58937268D01*
X102273262Y-59143499D01*
X102214364Y-59363310D01*
X102194531Y-59589999D01*
X97991091Y-59589999D01*
X98041330Y-59468709D01*
X98060250Y-59325000D01*
X98041330Y-59181291D01*
X98040795Y-59180000D01*
X98023240Y-59137618D01*
X97985861Y-59047375D01*
X97935932Y-58982306D01*
X97897621Y-58932378D01*
X97832552Y-58882450D01*
X97782625Y-58844139D01*
X97743401Y-58827892D01*
X97648709Y-58788669D01*
X97521717Y-58771951D01*
X97505000Y-58769750D01*
X97504999Y-58769750D01*
X97383468Y-58785750D01*
X97323307Y-58774600D01*
X97281190Y-58730217D01*
X97272393Y-58674676D01*
X97280250Y-58615000D01*
X97261330Y-58471291D01*
X97205861Y-58337375D01*
X97146729Y-58260313D01*
X97117621Y-58222378D01*
X97044977Y-58166637D01*
X97002625Y-58134139D01*
X96963401Y-58117892D01*
X96868709Y-58078669D01*
X96725000Y-58059750D01*
X96581290Y-58078669D01*
X96447375Y-58134139D01*
X96332378Y-58222378D01*
X96244139Y-58337374D01*
X96204620Y-58432781D01*
X96164883Y-58479307D01*
X96105388Y-58493590D01*
X96052889Y-58473437D01*
X95979455Y-58417089D01*
X95845540Y-58361620D01*
X95701831Y-58342701D01*
X95558121Y-58361620D01*
X95424206Y-58417090D01*
X95309209Y-58505329D01*
X95220970Y-58620326D01*
X95165500Y-58754241D01*
X95146581Y-58897951D01*
X93416081Y-58897951D01*
X93461330Y-58788709D01*
X93480250Y-58645000D01*
X93461330Y-58501291D01*
X93458140Y-58493590D01*
X93436178Y-58440569D01*
X93405861Y-58367375D01*
X93342293Y-58284532D01*
X93317621Y-58252378D01*
X93247177Y-58198325D01*
X93202625Y-58164139D01*
X93138020Y-58137379D01*
X93068709Y-58108669D01*
X92925000Y-58089750D01*
X92781290Y-58108669D01*
X92647375Y-58164139D01*
X92532378Y-58252378D01*
X92444139Y-58367375D01*
X92388669Y-58501290D01*
X92369750Y-58644999D01*
X86297084Y-58644999D01*
X86291330Y-58601291D01*
X86286632Y-58589950D01*
X86275083Y-58562067D01*
X86235861Y-58467375D01*
X86173642Y-58386290D01*
X86147621Y-58352378D01*
X86062900Y-58287370D01*
X86032625Y-58264139D01*
X85993401Y-58247892D01*
X85898709Y-58208669D01*
X85755000Y-58189750D01*
X85611290Y-58208669D01*
X85477377Y-58264137D01*
X85423281Y-58305647D01*
X85365605Y-58326070D01*
X85306939Y-58308692D01*
X85284471Y-58287370D01*
X85281101Y-58282978D01*
X85260678Y-58225302D01*
X85278056Y-58166637D01*
X85299377Y-58144170D01*
X85392621Y-58072621D01*
X85416102Y-58042020D01*
X85480861Y-57957625D01*
X85536330Y-57823709D01*
X85555250Y-57680000D01*
X85536330Y-57536291D01*
X85534223Y-57531205D01*
X85509036Y-57470396D01*
X85480861Y-57402375D01*
X85430932Y-57337306D01*
X85392621Y-57287378D01*
X85327552Y-57237450D01*
X85277625Y-57199139D01*
X85238401Y-57182892D01*
X85143709Y-57143669D01*
X85000000Y-57124750D01*
X84856290Y-57143669D01*
X84722375Y-57199139D01*
X84607378Y-57287378D01*
X84519139Y-57402374D01*
X84490964Y-57470396D01*
X84451227Y-57516922D01*
X84391732Y-57531205D01*
X84335204Y-57507790D01*
X84303235Y-57455621D01*
X84300500Y-57432510D01*
X84300500Y-56569999D01*
X87154750Y-56569999D01*
X87173669Y-56713709D01*
X87212892Y-56808401D01*
X87229139Y-56847625D01*
X87267450Y-56897552D01*
X87317378Y-56962621D01*
X87367306Y-57000932D01*
X87432375Y-57050861D01*
X87527067Y-57090083D01*
X87566290Y-57106330D01*
X87583008Y-57108531D01*
X87710000Y-57125250D01*
X87853709Y-57106330D01*
X87987625Y-57050861D01*
X88102621Y-56962621D01*
X88190861Y-56847625D01*
X88246330Y-56713709D01*
X88265250Y-56570000D01*
X88246330Y-56426291D01*
X88190861Y-56292375D01*
X88111315Y-56188709D01*
X88102621Y-56177378D01*
X88037552Y-56127450D01*
X87987625Y-56089139D01*
X87948401Y-56072892D01*
X87881062Y-56044999D01*
X89769750Y-56044999D01*
X89788669Y-56188709D01*
X89813444Y-56248520D01*
X89844139Y-56322625D01*
X89882450Y-56372552D01*
X89932378Y-56437621D01*
X89982306Y-56475932D01*
X90047375Y-56525861D01*
X90142067Y-56565083D01*
X90181290Y-56581330D01*
X90198008Y-56583531D01*
X90325000Y-56600250D01*
X90468709Y-56581330D01*
X90602625Y-56525861D01*
X90717621Y-56437621D01*
X90805861Y-56322625D01*
X90861330Y-56188709D01*
X90880250Y-56045000D01*
X90861330Y-55901291D01*
X90805861Y-55767375D01*
X90748997Y-55693269D01*
X94221481Y-55693269D01*
X94240400Y-55836979D01*
X94279623Y-55931671D01*
X94295870Y-55970895D01*
X94329521Y-56014750D01*
X94384109Y-56085891D01*
X94434037Y-56124202D01*
X94499106Y-56174131D01*
X94593798Y-56213353D01*
X94633021Y-56229600D01*
X94649739Y-56231801D01*
X94776731Y-56248520D01*
X94920440Y-56229600D01*
X95054356Y-56174131D01*
X95169352Y-56085891D01*
X95227586Y-56009999D01*
X104534750Y-56009999D01*
X104553669Y-56153709D01*
X104592892Y-56248401D01*
X104609139Y-56287625D01*
X104635995Y-56322624D01*
X104697378Y-56402621D01*
X104728226Y-56426291D01*
X104812375Y-56490861D01*
X104896874Y-56525861D01*
X104946290Y-56546330D01*
X104963008Y-56548531D01*
X105090000Y-56565250D01*
X105233709Y-56546330D01*
X105367625Y-56490861D01*
X105482621Y-56402621D01*
X105570861Y-56287625D01*
X105626330Y-56153709D01*
X105645250Y-56010000D01*
X105626330Y-55866291D01*
X105570861Y-55732375D01*
X105509477Y-55652378D01*
X105482621Y-55617378D01*
X105394238Y-55549560D01*
X105367625Y-55529139D01*
X105318208Y-55508670D01*
X105233709Y-55473669D01*
X105106717Y-55456951D01*
X105090000Y-55454750D01*
X105089999Y-55454750D01*
X104946290Y-55473669D01*
X104812375Y-55529139D01*
X104697378Y-55617378D01*
X104609139Y-55732375D01*
X104553669Y-55866290D01*
X104534750Y-56009999D01*
X95227586Y-56009999D01*
X95257592Y-55970895D01*
X95313061Y-55836979D01*
X95331981Y-55693270D01*
X95313061Y-55549561D01*
X95257592Y-55415645D01*
X95207663Y-55350576D01*
X95169352Y-55300648D01*
X95097154Y-55245249D01*
X95054356Y-55212409D01*
X95015132Y-55196162D01*
X94920440Y-55156939D01*
X94793448Y-55140221D01*
X94776731Y-55138020D01*
X94776730Y-55138020D01*
X94633021Y-55156939D01*
X94499106Y-55212409D01*
X94384109Y-55300648D01*
X94295870Y-55415645D01*
X94240400Y-55549560D01*
X94221481Y-55693269D01*
X90748997Y-55693269D01*
X90717621Y-55652378D01*
X90652552Y-55602450D01*
X90602625Y-55564139D01*
X90563401Y-55547892D01*
X90468709Y-55508669D01*
X90325000Y-55489750D01*
X90181290Y-55508669D01*
X90047375Y-55564139D01*
X89932378Y-55652378D01*
X89844139Y-55767375D01*
X89788669Y-55901290D01*
X89769750Y-56044999D01*
X87881062Y-56044999D01*
X87853709Y-56033669D01*
X87710000Y-56014750D01*
X87566290Y-56033669D01*
X87432375Y-56089139D01*
X87317378Y-56177378D01*
X87229139Y-56292375D01*
X87173669Y-56426290D01*
X87154750Y-56569999D01*
X84300500Y-56569999D01*
X84300500Y-54689999D01*
X102344750Y-54689999D01*
X102363669Y-54833709D01*
X102402892Y-54928401D01*
X102419139Y-54967625D01*
X102451750Y-55010124D01*
X102507378Y-55082621D01*
X102557306Y-55120932D01*
X102622375Y-55170861D01*
X102717067Y-55210083D01*
X102756290Y-55226330D01*
X102773008Y-55228531D01*
X102900000Y-55245250D01*
X103043709Y-55226330D01*
X103177625Y-55170861D01*
X103292621Y-55082621D01*
X103340672Y-55020000D01*
X105957250Y-55020000D01*
X105976169Y-55163709D01*
X106006088Y-55235939D01*
X106031639Y-55297625D01*
X106048528Y-55319635D01*
X106119878Y-55412621D01*
X106169806Y-55450932D01*
X106234875Y-55500861D01*
X106329567Y-55540083D01*
X106368790Y-55556330D01*
X106387709Y-55558820D01*
X106512500Y-55575250D01*
X106656209Y-55556330D01*
X106790125Y-55500861D01*
X106905121Y-55412621D01*
X106993361Y-55297625D01*
X107048830Y-55163709D01*
X107067750Y-55020000D01*
X107048830Y-54876291D01*
X106993361Y-54742375D01*
X106985784Y-54732500D01*
X116304750Y-54732500D01*
X116323669Y-54876209D01*
X116361535Y-54967624D01*
X116379139Y-55010125D01*
X116417450Y-55060052D01*
X116467378Y-55125121D01*
X116484189Y-55138020D01*
X116582375Y-55213361D01*
X116659361Y-55245249D01*
X116716290Y-55268830D01*
X116733008Y-55271031D01*
X116860000Y-55287750D01*
X117003709Y-55268830D01*
X117083116Y-55235938D01*
X117144111Y-55231138D01*
X117196280Y-55263107D01*
X117219695Y-55319635D01*
X117220000Y-55327402D01*
X117220000Y-55740000D01*
X117220001Y-55740000D01*
X119469999Y-55740000D01*
X119470000Y-55740000D01*
X119470000Y-49990000D01*
X117220000Y-49990000D01*
X117220000Y-49990001D01*
X117220000Y-50503053D01*
X117211441Y-50543319D01*
X117159334Y-50660352D01*
X117153032Y-50689999D01*
X117164471Y-50704124D01*
X117179191Y-50708907D01*
X117215155Y-50758407D01*
X117220000Y-50789000D01*
X117220000Y-51091000D01*
X117201093Y-51149191D01*
X117164622Y-51175688D01*
X117153032Y-51190000D01*
X117159334Y-51219648D01*
X117211440Y-51336680D01*
X117219999Y-51376946D01*
X117220000Y-54137595D01*
X117201093Y-54195786D01*
X117151593Y-54231750D01*
X117090407Y-54231750D01*
X117083116Y-54229060D01*
X117003708Y-54196169D01*
X116860000Y-54177250D01*
X116716290Y-54196169D01*
X116582375Y-54251639D01*
X116467378Y-54339878D01*
X116379139Y-54454875D01*
X116323669Y-54588790D01*
X116304750Y-54732500D01*
X106985784Y-54732500D01*
X106943432Y-54677306D01*
X106905121Y-54627378D01*
X106840052Y-54577450D01*
X106790125Y-54539139D01*
X106750901Y-54522892D01*
X106656209Y-54483669D01*
X106529217Y-54466951D01*
X106512500Y-54464750D01*
X106512499Y-54464750D01*
X106368790Y-54483669D01*
X106234875Y-54539139D01*
X106119878Y-54627378D01*
X106031639Y-54742375D01*
X105976169Y-54876290D01*
X105957250Y-55020000D01*
X103340672Y-55020000D01*
X103380861Y-54967625D01*
X103436330Y-54833709D01*
X103455250Y-54690000D01*
X103436330Y-54546291D01*
X103380861Y-54412375D01*
X103306025Y-54314847D01*
X103292621Y-54297378D01*
X103203586Y-54229060D01*
X103177625Y-54209139D01*
X103138401Y-54192892D01*
X103043709Y-54153669D01*
X102916717Y-54136951D01*
X102900000Y-54134750D01*
X102899999Y-54134750D01*
X102756290Y-54153669D01*
X102622375Y-54209139D01*
X102507378Y-54297378D01*
X102419139Y-54412375D01*
X102363669Y-54546290D01*
X102344750Y-54689999D01*
X84300500Y-54689999D01*
X84300500Y-53429999D01*
X85454750Y-53429999D01*
X85473669Y-53573709D01*
X85512892Y-53668401D01*
X85529139Y-53707625D01*
X85567450Y-53757552D01*
X85617378Y-53822621D01*
X85667306Y-53860932D01*
X85732375Y-53910861D01*
X85827067Y-53950083D01*
X85866290Y-53966330D01*
X85885210Y-53968820D01*
X86010000Y-53985250D01*
X86153709Y-53966330D01*
X86287625Y-53910861D01*
X86402621Y-53822621D01*
X86490861Y-53707625D01*
X86546330Y-53573709D01*
X86547866Y-53562045D01*
X92552704Y-53562045D01*
X92571623Y-53705754D01*
X92610846Y-53800446D01*
X92627093Y-53839670D01*
X92665404Y-53889597D01*
X92715332Y-53954666D01*
X92765260Y-53992977D01*
X92830329Y-54042906D01*
X92925021Y-54082128D01*
X92964244Y-54098375D01*
X92980962Y-54100576D01*
X93107954Y-54117295D01*
X93251663Y-54098375D01*
X93385579Y-54042906D01*
X93500575Y-53954666D01*
X93588815Y-53839670D01*
X93644284Y-53705754D01*
X93663204Y-53562045D01*
X93645820Y-53430000D01*
X93644284Y-53418335D01*
X93621206Y-53362621D01*
X93588815Y-53284420D01*
X93538886Y-53219351D01*
X93500575Y-53169423D01*
X93427966Y-53113709D01*
X93385579Y-53081184D01*
X93346355Y-53064937D01*
X93251663Y-53025714D01*
X93107954Y-53006795D01*
X92964244Y-53025714D01*
X92830329Y-53081184D01*
X92715332Y-53169423D01*
X92627093Y-53284420D01*
X92571623Y-53418335D01*
X92552704Y-53562045D01*
X86547866Y-53562045D01*
X86565250Y-53430000D01*
X86546330Y-53286291D01*
X86490861Y-53152375D01*
X86436234Y-53081184D01*
X86402621Y-53037378D01*
X86314810Y-52969999D01*
X110384750Y-52969999D01*
X110403669Y-53113709D01*
X110442892Y-53208401D01*
X110459139Y-53247625D01*
X110487373Y-53284420D01*
X110547378Y-53362621D01*
X110597306Y-53400932D01*
X110662375Y-53450861D01*
X110757067Y-53490083D01*
X110796290Y-53506330D01*
X110813008Y-53508531D01*
X110940000Y-53525250D01*
X111083709Y-53506330D01*
X111217625Y-53450861D01*
X111332621Y-53362621D01*
X111420861Y-53247625D01*
X111476330Y-53113709D01*
X111495250Y-52970000D01*
X111476330Y-52826291D01*
X111420861Y-52692375D01*
X111370932Y-52627306D01*
X111332621Y-52577378D01*
X111267552Y-52527450D01*
X111217625Y-52489139D01*
X111157530Y-52464247D01*
X111083709Y-52433669D01*
X110940000Y-52414750D01*
X110796290Y-52433669D01*
X110662375Y-52489139D01*
X110547378Y-52577378D01*
X110459139Y-52692375D01*
X110403669Y-52826290D01*
X110384750Y-52969999D01*
X86314810Y-52969999D01*
X86287625Y-52949139D01*
X86248401Y-52932892D01*
X86153709Y-52893669D01*
X86026717Y-52876951D01*
X86010000Y-52874750D01*
X86009999Y-52874750D01*
X85866290Y-52893669D01*
X85732375Y-52949139D01*
X85617378Y-53037378D01*
X85529139Y-53152375D01*
X85473669Y-53286290D01*
X85454750Y-53429999D01*
X84300500Y-53429999D01*
X84300500Y-51819999D01*
X86614750Y-51819999D01*
X86633669Y-51963709D01*
X86663458Y-52035625D01*
X86689139Y-52097625D01*
X86723429Y-52142312D01*
X86777378Y-52212621D01*
X86785525Y-52218872D01*
X86892375Y-52300861D01*
X86987067Y-52340083D01*
X87026290Y-52356330D01*
X87045209Y-52358820D01*
X87170000Y-52375250D01*
X87313709Y-52356330D01*
X87447625Y-52300861D01*
X87562621Y-52212621D01*
X87588163Y-52179334D01*
X91913162Y-52179334D01*
X91932081Y-52323043D01*
X91960323Y-52391224D01*
X91987551Y-52456959D01*
X92004819Y-52479463D01*
X92075790Y-52571955D01*
X92125718Y-52610266D01*
X92190787Y-52660195D01*
X92268478Y-52692375D01*
X92324702Y-52715664D01*
X92343622Y-52718154D01*
X92468412Y-52734584D01*
X92612121Y-52715664D01*
X92746037Y-52660195D01*
X92861033Y-52571955D01*
X92949273Y-52456959D01*
X93004742Y-52323043D01*
X93023662Y-52179334D01*
X93004742Y-52035625D01*
X92980770Y-51977752D01*
X92975970Y-51916758D01*
X93007939Y-51864589D01*
X93064467Y-51841174D01*
X93123962Y-51855457D01*
X93132502Y-51861327D01*
X93176623Y-51895181D01*
X93222699Y-51930537D01*
X93317391Y-51969759D01*
X93356614Y-51986006D01*
X93373332Y-51988207D01*
X93500324Y-52004926D01*
X93548351Y-51998603D01*
X94543717Y-51998603D01*
X94562636Y-52142312D01*
X94594349Y-52218872D01*
X94618106Y-52276228D01*
X94654029Y-52323043D01*
X94706345Y-52391224D01*
X94756273Y-52429535D01*
X94821342Y-52479464D01*
X94916034Y-52518686D01*
X94955257Y-52534933D01*
X94971975Y-52537134D01*
X95098967Y-52553853D01*
X95242676Y-52534933D01*
X95376592Y-52479464D01*
X95491588Y-52391224D01*
X95579828Y-52276228D01*
X95635297Y-52142312D01*
X95654217Y-51998603D01*
X95642420Y-51908998D01*
X96034443Y-51908998D01*
X96053362Y-52052707D01*
X96071968Y-52097625D01*
X96108832Y-52186623D01*
X96128781Y-52212621D01*
X96197071Y-52301619D01*
X96224992Y-52323043D01*
X96312068Y-52389859D01*
X96406760Y-52429081D01*
X96445983Y-52445328D01*
X96462701Y-52447529D01*
X96589693Y-52464248D01*
X96733402Y-52445328D01*
X96867318Y-52389859D01*
X96982314Y-52301619D01*
X97045808Y-52218871D01*
X97096232Y-52184216D01*
X97157396Y-52185817D01*
X97202892Y-52218872D01*
X97265620Y-52300621D01*
X97315548Y-52338932D01*
X97380617Y-52388861D01*
X97443120Y-52414750D01*
X97514532Y-52444330D01*
X97522113Y-52445328D01*
X97658242Y-52463250D01*
X97801951Y-52444330D01*
X97935867Y-52388861D01*
X98050863Y-52300621D01*
X98139103Y-52185625D01*
X98194572Y-52051709D01*
X98213492Y-51908000D01*
X98195791Y-51773551D01*
X98194572Y-51764290D01*
X98173017Y-51712251D01*
X98139103Y-51630375D01*
X98071578Y-51542375D01*
X98050863Y-51515378D01*
X97981653Y-51462272D01*
X97965659Y-51449999D01*
X110154750Y-51449999D01*
X110173669Y-51593709D01*
X110207876Y-51676290D01*
X110229139Y-51727625D01*
X110267450Y-51777552D01*
X110317378Y-51842621D01*
X110346008Y-51864589D01*
X110432375Y-51930861D01*
X110527067Y-51970083D01*
X110566290Y-51986330D01*
X110585210Y-51988820D01*
X110710000Y-52005250D01*
X110853709Y-51986330D01*
X110987625Y-51930861D01*
X111102621Y-51842621D01*
X111190861Y-51727625D01*
X111246330Y-51593709D01*
X111265250Y-51450000D01*
X111246330Y-51306291D01*
X111246195Y-51305966D01*
X111229123Y-51264750D01*
X111190861Y-51172375D01*
X111131596Y-51095140D01*
X111102621Y-51057378D01*
X111037552Y-51007450D01*
X110987625Y-50969139D01*
X110921750Y-50941853D01*
X110853709Y-50913669D01*
X110710000Y-50894750D01*
X110566290Y-50913669D01*
X110432375Y-50969139D01*
X110317378Y-51057378D01*
X110229139Y-51172375D01*
X110173669Y-51306290D01*
X110154750Y-51449999D01*
X97965659Y-51449999D01*
X97935867Y-51427139D01*
X97896643Y-51410892D01*
X97801951Y-51371669D01*
X97665822Y-51353748D01*
X97658242Y-51352750D01*
X97658241Y-51352750D01*
X97514532Y-51371669D01*
X97380617Y-51427139D01*
X97265622Y-51515377D01*
X97202126Y-51598126D01*
X97151701Y-51632781D01*
X97090537Y-51631179D01*
X97045042Y-51598125D01*
X96982314Y-51516376D01*
X96895388Y-51449676D01*
X96867318Y-51428137D01*
X96828094Y-51411890D01*
X96733402Y-51372667D01*
X96589693Y-51353748D01*
X96445983Y-51372667D01*
X96312068Y-51428137D01*
X96197071Y-51516376D01*
X96108832Y-51631373D01*
X96053362Y-51765288D01*
X96034443Y-51908998D01*
X95642420Y-51908998D01*
X95635297Y-51854894D01*
X95630213Y-51842621D01*
X95619050Y-51815670D01*
X95579828Y-51720978D01*
X95519996Y-51643004D01*
X95491588Y-51605981D01*
X95408694Y-51542375D01*
X95376592Y-51517742D01*
X95337368Y-51501495D01*
X95242676Y-51462272D01*
X95098967Y-51443353D01*
X94955257Y-51462272D01*
X94821342Y-51517742D01*
X94706345Y-51605981D01*
X94618106Y-51720978D01*
X94562636Y-51854893D01*
X94543717Y-51998603D01*
X93548351Y-51998603D01*
X93644033Y-51986006D01*
X93777949Y-51930537D01*
X93892945Y-51842297D01*
X93981185Y-51727301D01*
X94036654Y-51593385D01*
X94055574Y-51449676D01*
X94036654Y-51305967D01*
X94036653Y-51305965D01*
X94000900Y-51219648D01*
X93981185Y-51172051D01*
X93893194Y-51057379D01*
X93892945Y-51057054D01*
X93802249Y-50987461D01*
X93767593Y-50937037D01*
X93769194Y-50875872D01*
X93771052Y-50871033D01*
X93775569Y-50860127D01*
X93775571Y-50860125D01*
X93831040Y-50726209D01*
X93836642Y-50683652D01*
X93862982Y-50628429D01*
X93916752Y-50599233D01*
X93972678Y-50605110D01*
X94007080Y-50619360D01*
X94150789Y-50638280D01*
X94294498Y-50619360D01*
X94428414Y-50563891D01*
X94543410Y-50475651D01*
X94609133Y-50389999D01*
X103284750Y-50389999D01*
X103303669Y-50533709D01*
X103333245Y-50605111D01*
X103359139Y-50667625D01*
X103376308Y-50690000D01*
X103447378Y-50782621D01*
X103497306Y-50820932D01*
X103562375Y-50870861D01*
X103657067Y-50910083D01*
X103696290Y-50926330D01*
X103713008Y-50928531D01*
X103840000Y-50945250D01*
X103983709Y-50926330D01*
X104117625Y-50870861D01*
X104232621Y-50782621D01*
X104320861Y-50667625D01*
X104376330Y-50533709D01*
X104395250Y-50390000D01*
X104376330Y-50246291D01*
X104376329Y-50246289D01*
X104375230Y-50237939D01*
X104386380Y-50177779D01*
X104430762Y-50135661D01*
X104486304Y-50126864D01*
X104550000Y-50135250D01*
X104693709Y-50116330D01*
X104827625Y-50060861D01*
X104942621Y-49972621D01*
X105030861Y-49857625D01*
X105086330Y-49723709D01*
X105105250Y-49580000D01*
X105086330Y-49436291D01*
X105030861Y-49302375D01*
X104965641Y-49217379D01*
X104942621Y-49187378D01*
X104877552Y-49137450D01*
X104827625Y-49099139D01*
X104788401Y-49082892D01*
X104693709Y-49043669D01*
X104550000Y-49024750D01*
X104406290Y-49043669D01*
X104272375Y-49099139D01*
X104157378Y-49187378D01*
X104069139Y-49302375D01*
X104013669Y-49436290D01*
X103994750Y-49580000D01*
X104014769Y-49732060D01*
X104003619Y-49792221D01*
X103959236Y-49834338D01*
X103903695Y-49843135D01*
X103840000Y-49834750D01*
X103696290Y-49853669D01*
X103562375Y-49909139D01*
X103447378Y-49997378D01*
X103359139Y-50112375D01*
X103303669Y-50246290D01*
X103284750Y-50389999D01*
X94609133Y-50389999D01*
X94631650Y-50360655D01*
X94687119Y-50226739D01*
X94706039Y-50083030D01*
X94687119Y-49939321D01*
X94631650Y-49805405D01*
X94543410Y-49690409D01*
X94539283Y-49687242D01*
X94504628Y-49636817D01*
X94506230Y-49575653D01*
X94539286Y-49530157D01*
X94541819Y-49528214D01*
X94630059Y-49413218D01*
X94685528Y-49279302D01*
X94704448Y-49135593D01*
X94685528Y-48991884D01*
X94685104Y-48990861D01*
X94669281Y-48952660D01*
X94630059Y-48857968D01*
X94576082Y-48787624D01*
X94541819Y-48742971D01*
X94476750Y-48693043D01*
X94426823Y-48654732D01*
X94387599Y-48638485D01*
X94292907Y-48599262D01*
X94165915Y-48582544D01*
X94149198Y-48580343D01*
X94149197Y-48580343D01*
X94085469Y-48588733D01*
X94025308Y-48577583D01*
X93983191Y-48533200D01*
X93974394Y-48503505D01*
X93956330Y-48366291D01*
X93956330Y-48366290D01*
X93956330Y-48366289D01*
X93925815Y-48292621D01*
X93900861Y-48232375D01*
X93832878Y-48143778D01*
X93812621Y-48117378D01*
X93747552Y-48067450D01*
X93697625Y-48029139D01*
X93658401Y-48012892D01*
X93563709Y-47973669D01*
X93420000Y-47954750D01*
X93276290Y-47973669D01*
X93142375Y-48029139D01*
X93027378Y-48117378D01*
X92939139Y-48232375D01*
X92883669Y-48366290D01*
X92864750Y-48509999D01*
X92883669Y-48653709D01*
X92920643Y-48742971D01*
X92939139Y-48787625D01*
X92977450Y-48837552D01*
X93027378Y-48902621D01*
X93120120Y-48973784D01*
X93154776Y-49024208D01*
X93153175Y-49085373D01*
X93120121Y-49130868D01*
X93007377Y-49217380D01*
X92919139Y-49332375D01*
X92863669Y-49466290D01*
X92844750Y-49609999D01*
X92863669Y-49753709D01*
X92897067Y-49834338D01*
X92919139Y-49887625D01*
X92955549Y-49935075D01*
X92998530Y-49991090D01*
X93018954Y-50048766D01*
X93001576Y-50107432D01*
X92980255Y-50129899D01*
X92902088Y-50189878D01*
X92813849Y-50304875D01*
X92758379Y-50438790D01*
X92739460Y-50582500D01*
X92758379Y-50726209D01*
X92781746Y-50782621D01*
X92813849Y-50860125D01*
X92840418Y-50894750D01*
X92897498Y-50969139D01*
X92902089Y-50975121D01*
X92918171Y-50987461D01*
X92992785Y-51044715D01*
X93027440Y-51095140D01*
X93025838Y-51156304D01*
X93023981Y-51161142D01*
X92963993Y-51305965D01*
X92945074Y-51449676D01*
X92963993Y-51593384D01*
X92987964Y-51651254D01*
X92992765Y-51712251D01*
X92960795Y-51764420D01*
X92904267Y-51787835D01*
X92844773Y-51773551D01*
X92836233Y-51767682D01*
X92746037Y-51698473D01*
X92612121Y-51643003D01*
X92468412Y-51624084D01*
X92324702Y-51643003D01*
X92190787Y-51698473D01*
X92075790Y-51786712D01*
X91987551Y-51901709D01*
X91932081Y-52035624D01*
X91913162Y-52179334D01*
X87588163Y-52179334D01*
X87650861Y-52097625D01*
X87706330Y-51963709D01*
X87725250Y-51820000D01*
X87706330Y-51676291D01*
X87695959Y-51651254D01*
X87673953Y-51598125D01*
X87650861Y-51542375D01*
X87589396Y-51462273D01*
X87562621Y-51427378D01*
X87496896Y-51376946D01*
X87447625Y-51339139D01*
X87408401Y-51322892D01*
X87313709Y-51283669D01*
X87170000Y-51264750D01*
X87026290Y-51283669D01*
X86892375Y-51339139D01*
X86777378Y-51427378D01*
X86689139Y-51542375D01*
X86633669Y-51676290D01*
X86614750Y-51819999D01*
X84300500Y-51819999D01*
X84300500Y-49232499D01*
X84694750Y-49232499D01*
X84713669Y-49376209D01*
X84728998Y-49413215D01*
X84769139Y-49510125D01*
X84784508Y-49530154D01*
X84857378Y-49625121D01*
X84872621Y-49636817D01*
X84972375Y-49713361D01*
X85067067Y-49752583D01*
X85106290Y-49768830D01*
X85125210Y-49771320D01*
X85250000Y-49787750D01*
X85393709Y-49768830D01*
X85527625Y-49713361D01*
X85642621Y-49625121D01*
X85730861Y-49510125D01*
X85786330Y-49376209D01*
X85805250Y-49232500D01*
X85786330Y-49088791D01*
X85784914Y-49085373D01*
X85768742Y-49046330D01*
X85730861Y-48954875D01*
X85662089Y-48865250D01*
X85642621Y-48839878D01*
X85574521Y-48787624D01*
X85527625Y-48751639D01*
X85488401Y-48735392D01*
X85393709Y-48696169D01*
X85250000Y-48677250D01*
X85106290Y-48696169D01*
X84972375Y-48751639D01*
X84857378Y-48839878D01*
X84769139Y-48954875D01*
X84713669Y-49088790D01*
X84694750Y-49232499D01*
X84300500Y-49232499D01*
X84300500Y-47900000D01*
X100824750Y-47900000D01*
X100843669Y-48043709D01*
X100882892Y-48138401D01*
X100899139Y-48177625D01*
X100932485Y-48221082D01*
X100987378Y-48292621D01*
X101037306Y-48330932D01*
X101102375Y-48380861D01*
X101197067Y-48420083D01*
X101236290Y-48436330D01*
X101253008Y-48438531D01*
X101380000Y-48455250D01*
X101523709Y-48436330D01*
X101657625Y-48380861D01*
X101772621Y-48292621D01*
X101860861Y-48177625D01*
X101860861Y-48177622D01*
X101861468Y-48176833D01*
X101911892Y-48142177D01*
X101973056Y-48143778D01*
X102000277Y-48158558D01*
X102042375Y-48190861D01*
X102176290Y-48246330D01*
X102193008Y-48248531D01*
X102320000Y-48265250D01*
X102463709Y-48246330D01*
X102590255Y-48193913D01*
X102651248Y-48189113D01*
X102703417Y-48221082D01*
X102726832Y-48277610D01*
X102726290Y-48298298D01*
X102724749Y-48309997D01*
X102743669Y-48453709D01*
X102766986Y-48510000D01*
X102799139Y-48587625D01*
X102822185Y-48617659D01*
X102887378Y-48702621D01*
X102937306Y-48740932D01*
X103002375Y-48790861D01*
X103097067Y-48830083D01*
X103136290Y-48846330D01*
X103153008Y-48848531D01*
X103280000Y-48865250D01*
X103423709Y-48846330D01*
X103557625Y-48790861D01*
X103672621Y-48702621D01*
X103760861Y-48587625D01*
X103816330Y-48453709D01*
X103835250Y-48310000D01*
X103816330Y-48166291D01*
X103760861Y-48032375D01*
X103688202Y-47937684D01*
X103667779Y-47880011D01*
X103685156Y-47821345D01*
X103688179Y-47817184D01*
X103710861Y-47787625D01*
X103766330Y-47653709D01*
X103785250Y-47510000D01*
X103766330Y-47366291D01*
X103765244Y-47363670D01*
X103746069Y-47317377D01*
X103710861Y-47232375D01*
X103643633Y-47144762D01*
X103622621Y-47117378D01*
X103557552Y-47067450D01*
X103507625Y-47029139D01*
X103468401Y-47012892D01*
X103373709Y-46973669D01*
X103246717Y-46956951D01*
X103230000Y-46954750D01*
X103229999Y-46954750D01*
X103086290Y-46973669D01*
X102952375Y-47029139D01*
X102837380Y-47117377D01*
X102754819Y-47224972D01*
X102704394Y-47259627D01*
X102643230Y-47258025D01*
X102616012Y-47243248D01*
X102597625Y-47229139D01*
X102597624Y-47229138D01*
X102597622Y-47229137D01*
X102463709Y-47173669D01*
X102336717Y-47156951D01*
X102320000Y-47154750D01*
X102319999Y-47154750D01*
X102176290Y-47173669D01*
X102042375Y-47229139D01*
X101927380Y-47317377D01*
X101838531Y-47433167D01*
X101788106Y-47467822D01*
X101726942Y-47466220D01*
X101699722Y-47451441D01*
X101686936Y-47441630D01*
X101657625Y-47419139D01*
X101618401Y-47402892D01*
X101523709Y-47363669D01*
X101380000Y-47344750D01*
X101236290Y-47363669D01*
X101102375Y-47419139D01*
X100987378Y-47507378D01*
X100899139Y-47622375D01*
X100843669Y-47756290D01*
X100824750Y-47900000D01*
X84300500Y-47900000D01*
X84300500Y-44437499D01*
X88994750Y-44437499D01*
X89013669Y-44581209D01*
X89052892Y-44675901D01*
X89069139Y-44715125D01*
X89095044Y-44748885D01*
X89157378Y-44830121D01*
X89207306Y-44868432D01*
X89272375Y-44918361D01*
X89367067Y-44957583D01*
X89406290Y-44973830D01*
X89423008Y-44976031D01*
X89550000Y-44992750D01*
X89646844Y-44980000D01*
X104054750Y-44980000D01*
X104056429Y-44992750D01*
X104073669Y-45123709D01*
X104110447Y-45212499D01*
X104129139Y-45257625D01*
X104167450Y-45307552D01*
X104217378Y-45372621D01*
X104267306Y-45410932D01*
X104332375Y-45460861D01*
X104427067Y-45500083D01*
X104466290Y-45516330D01*
X104488078Y-45519198D01*
X104610000Y-45535250D01*
X104647047Y-45530372D01*
X104707204Y-45541521D01*
X104749322Y-45585903D01*
X104758120Y-45615602D01*
X104773669Y-45733708D01*
X104795552Y-45786539D01*
X104800351Y-45847535D01*
X104768381Y-45899704D01*
X104764355Y-45902964D01*
X104667379Y-45977377D01*
X104579139Y-46092375D01*
X104523669Y-46226290D01*
X104504750Y-46369999D01*
X104523669Y-46513709D01*
X104568307Y-46621475D01*
X104579139Y-46647625D01*
X104667379Y-46762621D01*
X104667381Y-46762622D01*
X104675314Y-46772961D01*
X104673325Y-46774486D01*
X104697361Y-46809455D01*
X104695762Y-46870619D01*
X104680982Y-46897843D01*
X104639138Y-46952375D01*
X104583669Y-47086290D01*
X104564750Y-47230000D01*
X104583669Y-47373709D01*
X104606103Y-47427868D01*
X104639139Y-47507625D01*
X104677450Y-47557552D01*
X104727378Y-47622621D01*
X104767893Y-47653709D01*
X104842375Y-47710861D01*
X104937067Y-47750083D01*
X104976290Y-47766330D01*
X104993008Y-47768531D01*
X105120000Y-47785250D01*
X105263709Y-47766330D01*
X105397625Y-47710861D01*
X105512621Y-47622621D01*
X105600861Y-47507625D01*
X105656330Y-47373709D01*
X105675250Y-47230000D01*
X105656330Y-47086291D01*
X105600861Y-46952375D01*
X105512621Y-46837379D01*
X105512618Y-46837377D01*
X105504686Y-46827039D01*
X105506674Y-46825513D01*
X105482638Y-46790542D01*
X105484238Y-46729377D01*
X105499015Y-46702159D01*
X105540861Y-46647625D01*
X105542984Y-46642500D01*
X115284435Y-46642500D01*
X115289484Y-46687313D01*
X115304632Y-46821758D01*
X115351169Y-46954750D01*
X115364211Y-46992022D01*
X115460184Y-47144762D01*
X115587738Y-47272316D01*
X115740478Y-47368289D01*
X115848851Y-47406210D01*
X115910741Y-47427867D01*
X115910742Y-47427867D01*
X115910745Y-47427868D01*
X116045046Y-47443000D01*
X116047813Y-47443000D01*
X117232187Y-47443000D01*
X117234954Y-47443000D01*
X117369255Y-47427868D01*
X117539522Y-47368289D01*
X117692262Y-47272316D01*
X117819816Y-47144762D01*
X117915789Y-46992022D01*
X117975368Y-46821755D01*
X117995565Y-46642500D01*
X119634435Y-46642500D01*
X119654632Y-46821758D01*
X119701169Y-46954750D01*
X119714211Y-46992022D01*
X119810184Y-47144762D01*
X119937738Y-47272316D01*
X120090478Y-47368289D01*
X120198851Y-47406210D01*
X120260741Y-47427867D01*
X120260742Y-47427867D01*
X120260745Y-47427868D01*
X120395046Y-47443000D01*
X120397813Y-47443000D01*
X121282187Y-47443000D01*
X121284954Y-47443000D01*
X121419255Y-47427868D01*
X121589522Y-47368289D01*
X121742262Y-47272316D01*
X121869816Y-47144762D01*
X121965789Y-46992022D01*
X122025368Y-46821755D01*
X122045565Y-46642500D01*
X122025368Y-46463245D01*
X121965789Y-46292978D01*
X121869816Y-46140238D01*
X121742262Y-46012684D01*
X121589522Y-45916711D01*
X121581815Y-45914014D01*
X121419258Y-45857132D01*
X121287699Y-45842309D01*
X121287693Y-45842308D01*
X121284954Y-45842000D01*
X120395046Y-45842000D01*
X120392307Y-45842308D01*
X120392300Y-45842309D01*
X120260741Y-45857132D01*
X120090480Y-45916710D01*
X119937739Y-46012683D01*
X119810183Y-46140239D01*
X119714210Y-46292980D01*
X119654632Y-46463241D01*
X119634435Y-46642500D01*
X117995565Y-46642500D01*
X117975368Y-46463245D01*
X117915789Y-46292978D01*
X117819816Y-46140238D01*
X117692262Y-46012684D01*
X117539522Y-45916711D01*
X117533717Y-45914680D01*
X117470704Y-45892630D01*
X117422023Y-45855564D01*
X117404427Y-45796964D01*
X117424636Y-45739212D01*
X117443135Y-45720644D01*
X117450231Y-45715198D01*
X117450233Y-45715198D01*
X117570451Y-45622951D01*
X117662698Y-45502733D01*
X117720687Y-45362736D01*
X117740466Y-45212500D01*
X117720687Y-45062264D01*
X117662698Y-44922267D01*
X117596726Y-44836291D01*
X117570451Y-44802048D01*
X117450233Y-44709802D01*
X117310235Y-44651812D01*
X117200933Y-44637423D01*
X117197720Y-44637000D01*
X117122280Y-44637000D01*
X117119067Y-44637422D01*
X117119066Y-44637423D01*
X117009764Y-44651812D01*
X116869766Y-44709802D01*
X116749548Y-44802048D01*
X116657302Y-44922266D01*
X116599312Y-45062264D01*
X116579534Y-45212499D01*
X116599312Y-45362735D01*
X116657302Y-45502733D01*
X116749548Y-45622951D01*
X116803641Y-45664458D01*
X116838297Y-45714882D01*
X116836696Y-45776047D01*
X116799448Y-45824588D01*
X116743374Y-45842000D01*
X116045046Y-45842000D01*
X116042307Y-45842308D01*
X116042300Y-45842309D01*
X115910741Y-45857132D01*
X115740480Y-45916710D01*
X115587739Y-46012683D01*
X115460183Y-46140239D01*
X115364210Y-46292980D01*
X115304632Y-46463241D01*
X115304632Y-46463245D01*
X115284435Y-46642500D01*
X105542984Y-46642500D01*
X105596330Y-46513709D01*
X105615250Y-46370000D01*
X105596330Y-46226291D01*
X105574446Y-46173459D01*
X105569646Y-46112466D01*
X105601615Y-46060296D01*
X105605633Y-46057042D01*
X105702621Y-45982621D01*
X105790861Y-45867625D01*
X105846330Y-45733709D01*
X105865250Y-45590000D01*
X105846330Y-45446291D01*
X105790861Y-45312375D01*
X105714224Y-45212500D01*
X105702621Y-45197378D01*
X105637552Y-45147450D01*
X105587625Y-45109139D01*
X105548401Y-45092892D01*
X105453709Y-45053669D01*
X105326717Y-45036951D01*
X105310000Y-45034750D01*
X105309999Y-45034750D01*
X105272953Y-45039627D01*
X105212793Y-45028477D01*
X105170676Y-44984094D01*
X105161879Y-44954396D01*
X105146330Y-44836291D01*
X105143774Y-44830121D01*
X105110124Y-44748882D01*
X105105324Y-44687888D01*
X105137293Y-44635719D01*
X105193821Y-44612304D01*
X105239474Y-44619534D01*
X105293293Y-44641827D01*
X105437002Y-44660747D01*
X105580711Y-44641827D01*
X105714627Y-44586358D01*
X105795082Y-44524622D01*
X112960128Y-44524622D01*
X112979047Y-44668331D01*
X112998430Y-44715124D01*
X113034517Y-44802247D01*
X113055906Y-44830121D01*
X113122756Y-44917243D01*
X113129304Y-44922267D01*
X113237753Y-45005483D01*
X113308411Y-45034750D01*
X113371668Y-45060952D01*
X113381634Y-45062264D01*
X113515378Y-45079872D01*
X113659087Y-45060952D01*
X113793003Y-45005483D01*
X113907999Y-44917243D01*
X113996239Y-44802247D01*
X114051708Y-44668331D01*
X114070628Y-44524622D01*
X114051708Y-44380913D01*
X114044437Y-44363360D01*
X114015621Y-44293790D01*
X113996239Y-44246997D01*
X113933511Y-44165249D01*
X113907999Y-44132000D01*
X113842930Y-44082072D01*
X113793003Y-44043761D01*
X113750628Y-44026209D01*
X113659087Y-43988291D01*
X113515378Y-43969372D01*
X113371668Y-43988291D01*
X113237753Y-44043761D01*
X113122756Y-44132000D01*
X113034517Y-44246997D01*
X112979047Y-44380912D01*
X112960128Y-44524622D01*
X105795082Y-44524622D01*
X105829623Y-44498118D01*
X105917863Y-44383122D01*
X105973332Y-44249206D01*
X105992252Y-44105497D01*
X105975822Y-43980706D01*
X105973332Y-43961787D01*
X105957085Y-43922564D01*
X105940490Y-43882499D01*
X117295250Y-43882499D01*
X117314169Y-44026209D01*
X117340949Y-44090860D01*
X117369639Y-44160125D01*
X117373571Y-44165249D01*
X117457878Y-44275121D01*
X117482210Y-44293791D01*
X117572875Y-44363361D01*
X117655556Y-44397608D01*
X117706790Y-44418830D01*
X117723508Y-44421031D01*
X117850500Y-44437750D01*
X117994209Y-44418830D01*
X118128125Y-44363361D01*
X118243121Y-44275121D01*
X118331361Y-44160125D01*
X118386830Y-44026209D01*
X118405750Y-43882500D01*
X118386830Y-43738791D01*
X118376095Y-43712875D01*
X118370583Y-43699567D01*
X118331361Y-43604875D01*
X118281432Y-43539806D01*
X118243121Y-43489878D01*
X118164010Y-43429175D01*
X118128125Y-43401639D01*
X118088901Y-43385392D01*
X117994209Y-43346169D01*
X117850500Y-43327250D01*
X117706790Y-43346169D01*
X117572875Y-43401639D01*
X117457878Y-43489878D01*
X117369639Y-43604875D01*
X117314169Y-43738790D01*
X117295250Y-43882499D01*
X105940490Y-43882499D01*
X105917863Y-43827872D01*
X105867934Y-43762803D01*
X105829623Y-43712875D01*
X105764554Y-43662947D01*
X105714627Y-43624636D01*
X105666919Y-43604875D01*
X105580711Y-43569166D01*
X105437002Y-43550247D01*
X105293292Y-43569166D01*
X105159377Y-43624636D01*
X105044380Y-43712875D01*
X104956141Y-43827872D01*
X104900671Y-43961787D01*
X104881752Y-44105497D01*
X104900671Y-44249207D01*
X104936876Y-44336612D01*
X104941677Y-44397608D01*
X104909707Y-44449777D01*
X104853179Y-44473192D01*
X104807527Y-44465961D01*
X104753710Y-44443669D01*
X104610000Y-44424750D01*
X104466290Y-44443669D01*
X104332375Y-44499139D01*
X104217378Y-44587378D01*
X104129139Y-44702375D01*
X104073669Y-44836290D01*
X104058121Y-44954396D01*
X104054750Y-44980000D01*
X89646844Y-44980000D01*
X89693709Y-44973830D01*
X89827625Y-44918361D01*
X89942621Y-44830121D01*
X90030861Y-44715125D01*
X90086330Y-44581209D01*
X90105250Y-44437500D01*
X90086330Y-44293791D01*
X90030861Y-44159875D01*
X89977904Y-44090860D01*
X89942621Y-44044878D01*
X89868874Y-43988291D01*
X89827625Y-43956639D01*
X89788401Y-43940392D01*
X89693709Y-43901169D01*
X89550000Y-43882250D01*
X89406290Y-43901169D01*
X89272375Y-43956639D01*
X89157378Y-44044878D01*
X89069139Y-44159875D01*
X89013669Y-44293790D01*
X88994750Y-44437499D01*
X84300500Y-44437499D01*
X84300500Y-42560000D01*
X89524750Y-42560000D01*
X89543669Y-42703709D01*
X89574131Y-42777250D01*
X89599139Y-42837625D01*
X89628684Y-42876128D01*
X89687378Y-42952621D01*
X89737306Y-42990932D01*
X89802375Y-43040861D01*
X89897067Y-43080083D01*
X89936290Y-43096330D01*
X89953008Y-43098531D01*
X90080000Y-43115250D01*
X90223709Y-43096330D01*
X90357625Y-43040861D01*
X90472621Y-42952621D01*
X90560861Y-42837625D01*
X90616330Y-42703709D01*
X90635250Y-42560000D01*
X90616330Y-42416291D01*
X90604354Y-42387379D01*
X90584646Y-42339798D01*
X90560861Y-42282375D01*
X90508082Y-42213593D01*
X90472621Y-42167378D01*
X90376614Y-42093710D01*
X90357625Y-42079139D01*
X90318401Y-42062892D01*
X90223709Y-42023669D01*
X90080000Y-42004750D01*
X89936290Y-42023669D01*
X89802375Y-42079139D01*
X89687378Y-42167378D01*
X89599139Y-42282375D01*
X89543669Y-42416290D01*
X89524750Y-42560000D01*
X84300500Y-42560000D01*
X84300500Y-37589999D01*
X87643032Y-37589999D01*
X87643033Y-37590000D01*
X88735376Y-37590000D01*
X88662455Y-37604505D01*
X88579760Y-37659760D01*
X88524505Y-37742455D01*
X88505102Y-37840000D01*
X88524505Y-37937545D01*
X88579760Y-38020240D01*
X88662455Y-38075495D01*
X88735376Y-38090000D01*
X87643033Y-38090000D01*
X87649334Y-38119646D01*
X87726283Y-38292476D01*
X87837487Y-38445536D01*
X87978077Y-38572124D01*
X88141924Y-38666720D01*
X88321844Y-38725181D01*
X88339330Y-38727019D01*
X88395225Y-38751906D01*
X88425818Y-38804894D01*
X88420445Y-38863362D01*
X88373669Y-38976289D01*
X88354750Y-39120000D01*
X88373669Y-39263709D01*
X88394173Y-39313209D01*
X88429139Y-39397625D01*
X88455899Y-39432499D01*
X88517378Y-39512621D01*
X88537245Y-39527865D01*
X88632375Y-39600861D01*
X88766291Y-39656330D01*
X88890898Y-39672735D01*
X88946121Y-39699075D01*
X88975316Y-39752845D01*
X88976127Y-39757964D01*
X88993669Y-39891210D01*
X89023147Y-39962375D01*
X89049139Y-40025125D01*
X89087450Y-40075052D01*
X89137378Y-40140121D01*
X89181411Y-40173908D01*
X89252375Y-40228361D01*
X89347067Y-40267583D01*
X89386290Y-40283830D01*
X89405210Y-40286320D01*
X89530000Y-40302750D01*
X89673709Y-40283830D01*
X89779526Y-40240000D01*
X92664750Y-40240000D01*
X92683669Y-40383709D01*
X92722892Y-40478401D01*
X92739139Y-40517625D01*
X92775816Y-40565423D01*
X92827378Y-40632621D01*
X92857541Y-40655766D01*
X92892197Y-40706190D01*
X92890596Y-40767355D01*
X92875817Y-40794574D01*
X92839138Y-40842375D01*
X92783669Y-40976290D01*
X92764750Y-41120000D01*
X92783669Y-41263709D01*
X92810902Y-41329455D01*
X92839139Y-41397625D01*
X92855030Y-41418334D01*
X92927378Y-41512621D01*
X93042372Y-41600859D01*
X93042375Y-41600861D01*
X93067324Y-41611195D01*
X93113848Y-41650929D01*
X93128133Y-41710424D01*
X93120903Y-41740542D01*
X93093669Y-41806291D01*
X93074750Y-41949999D01*
X93093669Y-42093710D01*
X93143326Y-42213593D01*
X93148126Y-42274590D01*
X93116157Y-42326759D01*
X93112130Y-42330020D01*
X93037377Y-42387380D01*
X92949139Y-42502375D01*
X92893669Y-42636290D01*
X92874750Y-42779999D01*
X92893669Y-42923709D01*
X92927391Y-43005121D01*
X92949139Y-43057625D01*
X92978839Y-43096330D01*
X93037378Y-43172621D01*
X93087306Y-43210932D01*
X93152375Y-43260861D01*
X93225615Y-43291197D01*
X93286289Y-43316330D01*
X93319104Y-43320650D01*
X93374329Y-43346991D01*
X93403524Y-43400761D01*
X93397648Y-43456684D01*
X93393670Y-43466288D01*
X93383933Y-43540250D01*
X93374750Y-43610000D01*
X93376677Y-43624636D01*
X93393669Y-43753709D01*
X93418378Y-43813360D01*
X93449139Y-43887625D01*
X93487450Y-43937552D01*
X93537378Y-44002621D01*
X93568119Y-44026209D01*
X93652375Y-44090861D01*
X93747067Y-44130083D01*
X93786290Y-44146330D01*
X93803008Y-44148531D01*
X93930000Y-44165250D01*
X94073709Y-44146330D01*
X94207625Y-44090861D01*
X94322621Y-44002621D01*
X94410861Y-43887625D01*
X94466330Y-43753709D01*
X94485250Y-43610000D01*
X94476067Y-43540249D01*
X94487217Y-43480089D01*
X94531599Y-43437972D01*
X94587141Y-43429175D01*
X94603872Y-43431378D01*
X94747581Y-43412458D01*
X94881497Y-43356989D01*
X94913413Y-43332499D01*
X98194750Y-43332499D01*
X98213669Y-43476209D01*
X98240196Y-43540250D01*
X98269139Y-43610125D01*
X98280274Y-43624636D01*
X98357378Y-43725121D01*
X98394635Y-43753709D01*
X98472375Y-43813361D01*
X98567067Y-43852583D01*
X98606290Y-43868830D01*
X98625210Y-43871320D01*
X98750000Y-43887750D01*
X98893709Y-43868830D01*
X99027625Y-43813361D01*
X99142621Y-43725121D01*
X99230861Y-43610125D01*
X99286330Y-43476209D01*
X99305250Y-43332500D01*
X99286330Y-43188791D01*
X99279632Y-43172621D01*
X99269778Y-43148830D01*
X99230861Y-43054875D01*
X99180932Y-42989806D01*
X99142621Y-42939878D01*
X99077552Y-42889950D01*
X99027625Y-42851639D01*
X98988401Y-42835392D01*
X98893709Y-42796169D01*
X98750000Y-42777250D01*
X98606290Y-42796169D01*
X98472375Y-42851639D01*
X98357378Y-42939878D01*
X98269139Y-43054875D01*
X98213669Y-43188790D01*
X98194750Y-43332499D01*
X94913413Y-43332499D01*
X94996493Y-43268749D01*
X95084733Y-43153753D01*
X95140202Y-43019837D01*
X95159122Y-42876128D01*
X95140202Y-42732419D01*
X95090531Y-42612500D01*
X105154750Y-42612500D01*
X105173669Y-42756209D01*
X105190222Y-42796170D01*
X105229139Y-42890125D01*
X105254909Y-42923709D01*
X105317378Y-43005121D01*
X105336557Y-43019837D01*
X105432375Y-43093361D01*
X105527067Y-43132583D01*
X105566290Y-43148830D01*
X105583008Y-43151031D01*
X105710000Y-43167750D01*
X105853709Y-43148830D01*
X105987625Y-43093361D01*
X106102621Y-43005121D01*
X106190861Y-42890125D01*
X106246330Y-42756209D01*
X106265250Y-42612500D01*
X106246330Y-42468791D01*
X106190861Y-42334875D01*
X106108565Y-42227625D01*
X106102621Y-42219878D01*
X106034201Y-42167378D01*
X105987625Y-42131639D01*
X105948401Y-42115392D01*
X105853709Y-42076169D01*
X105726717Y-42059451D01*
X105710000Y-42057250D01*
X105709999Y-42057250D01*
X105566290Y-42076169D01*
X105432375Y-42131639D01*
X105317378Y-42219878D01*
X105229139Y-42334875D01*
X105173669Y-42468790D01*
X105154750Y-42612500D01*
X95090531Y-42612500D01*
X95084733Y-42598503D01*
X95010971Y-42502375D01*
X94996493Y-42483506D01*
X94927884Y-42430861D01*
X94881497Y-42395267D01*
X94842273Y-42379020D01*
X94747581Y-42339797D01*
X94603872Y-42320878D01*
X94460162Y-42339797D01*
X94326247Y-42395267D01*
X94211250Y-42483506D01*
X94115479Y-42608318D01*
X94065054Y-42642974D01*
X94003890Y-42641372D01*
X93955348Y-42604125D01*
X93945473Y-42585937D01*
X93941355Y-42575995D01*
X93916672Y-42516406D01*
X93911872Y-42455411D01*
X93943842Y-42403242D01*
X93947870Y-42399980D01*
X94022621Y-42342621D01*
X94042059Y-42317289D01*
X94110861Y-42227625D01*
X94166330Y-42093709D01*
X94173445Y-42039664D01*
X98744415Y-42039664D01*
X98763334Y-42183374D01*
X98781664Y-42227625D01*
X98818804Y-42317290D01*
X98857115Y-42367217D01*
X98907043Y-42432286D01*
X98926338Y-42447091D01*
X99022040Y-42520526D01*
X99116732Y-42559748D01*
X99155955Y-42575995D01*
X99174874Y-42578485D01*
X99299665Y-42594915D01*
X99443374Y-42575995D01*
X99577290Y-42520526D01*
X99692286Y-42432286D01*
X99780526Y-42317290D01*
X99835995Y-42183374D01*
X99854915Y-42039665D01*
X99835995Y-41895956D01*
X99780526Y-41762040D01*
X99730597Y-41696971D01*
X99692286Y-41647043D01*
X99627217Y-41597115D01*
X99577290Y-41558804D01*
X99538066Y-41542557D01*
X99443374Y-41503334D01*
X99299665Y-41484415D01*
X99155955Y-41503334D01*
X99022040Y-41558804D01*
X98907043Y-41647043D01*
X98818804Y-41762040D01*
X98763334Y-41895955D01*
X98744415Y-42039664D01*
X94173445Y-42039664D01*
X94185250Y-41950000D01*
X94166330Y-41806291D01*
X94110861Y-41672375D01*
X94055985Y-41600859D01*
X94022621Y-41557378D01*
X93952190Y-41503335D01*
X93907625Y-41469139D01*
X93882675Y-41458804D01*
X93836150Y-41419069D01*
X93821866Y-41359574D01*
X93829096Y-41329457D01*
X93856330Y-41263709D01*
X93875250Y-41120000D01*
X93856330Y-40976291D01*
X93800861Y-40842375D01*
X93712621Y-40727379D01*
X93698758Y-40716741D01*
X93682457Y-40704233D01*
X93647802Y-40653808D01*
X93649404Y-40592644D01*
X93664180Y-40565427D01*
X93700861Y-40517625D01*
X93756330Y-40383709D01*
X93775250Y-40240000D01*
X93756330Y-40096291D01*
X93735114Y-40045071D01*
X101392036Y-40045071D01*
X101410955Y-40188781D01*
X101427350Y-40228361D01*
X101466425Y-40322697D01*
X101504736Y-40372624D01*
X101554664Y-40437693D01*
X101585464Y-40461326D01*
X101669661Y-40525933D01*
X101764353Y-40565155D01*
X101803576Y-40581402D01*
X101820294Y-40583603D01*
X101947286Y-40600322D01*
X102090995Y-40581402D01*
X102224911Y-40525933D01*
X102339907Y-40437693D01*
X102428147Y-40322697D01*
X102483616Y-40188781D01*
X102501887Y-40049999D01*
X103444750Y-40049999D01*
X103463669Y-40193709D01*
X103482844Y-40240000D01*
X103519139Y-40327625D01*
X103557450Y-40377552D01*
X103607378Y-40442621D01*
X103657306Y-40480932D01*
X103722375Y-40530861D01*
X103817067Y-40570083D01*
X103856290Y-40586330D01*
X103873008Y-40588531D01*
X104000000Y-40605250D01*
X104143709Y-40586330D01*
X104277625Y-40530861D01*
X104392621Y-40442621D01*
X104480861Y-40327625D01*
X104485006Y-40317617D01*
X114325351Y-40317617D01*
X114344270Y-40461326D01*
X114373072Y-40530860D01*
X114399740Y-40595242D01*
X114428422Y-40632621D01*
X114487979Y-40710238D01*
X114537907Y-40748549D01*
X114602976Y-40798478D01*
X114697668Y-40837700D01*
X114736891Y-40853947D01*
X114753609Y-40856148D01*
X114880601Y-40872867D01*
X115024310Y-40853947D01*
X115158226Y-40798478D01*
X115273222Y-40710238D01*
X115361462Y-40595242D01*
X115416931Y-40461326D01*
X115435851Y-40317617D01*
X115416931Y-40173908D01*
X115361462Y-40039992D01*
X115301904Y-39962375D01*
X115273222Y-39924995D01*
X115208153Y-39875067D01*
X115158226Y-39836756D01*
X115119002Y-39820509D01*
X115024310Y-39781286D01*
X114897318Y-39764568D01*
X114880601Y-39762367D01*
X114880600Y-39762367D01*
X114736891Y-39781286D01*
X114602976Y-39836756D01*
X114487979Y-39924995D01*
X114399740Y-40039992D01*
X114344270Y-40173907D01*
X114325351Y-40317617D01*
X104485006Y-40317617D01*
X104536330Y-40193709D01*
X104555250Y-40050000D01*
X104536330Y-39906291D01*
X104534288Y-39901362D01*
X104484552Y-39781287D01*
X104480861Y-39772375D01*
X104406334Y-39675250D01*
X104392621Y-39657378D01*
X104318964Y-39600860D01*
X104277625Y-39569139D01*
X104236416Y-39552070D01*
X104143709Y-39513669D01*
X104016717Y-39496951D01*
X104000000Y-39494750D01*
X103999999Y-39494750D01*
X103856290Y-39513669D01*
X103722375Y-39569139D01*
X103607378Y-39657378D01*
X103519139Y-39772375D01*
X103463669Y-39906290D01*
X103444750Y-40049999D01*
X102501887Y-40049999D01*
X102502536Y-40045072D01*
X102483616Y-39901363D01*
X102428147Y-39767447D01*
X102364691Y-39684750D01*
X102339907Y-39652450D01*
X102249053Y-39582736D01*
X102224911Y-39564211D01*
X102185687Y-39547964D01*
X102090995Y-39508741D01*
X101947286Y-39489822D01*
X101803576Y-39508741D01*
X101669661Y-39564211D01*
X101554664Y-39652450D01*
X101466425Y-39767447D01*
X101410955Y-39901362D01*
X101392036Y-40045071D01*
X93735114Y-40045071D01*
X93700861Y-39962375D01*
X93646253Y-39891209D01*
X93612621Y-39847378D01*
X93547552Y-39797450D01*
X93497625Y-39759139D01*
X93458401Y-39742892D01*
X93363709Y-39703669D01*
X93220000Y-39684750D01*
X93076290Y-39703669D01*
X92942375Y-39759139D01*
X92827378Y-39847378D01*
X92739139Y-39962375D01*
X92683669Y-40096290D01*
X92664750Y-40240000D01*
X89779526Y-40240000D01*
X89807625Y-40228361D01*
X89922621Y-40140121D01*
X90010861Y-40025125D01*
X90066330Y-39891209D01*
X90085250Y-39747500D01*
X90066330Y-39603791D01*
X90065116Y-39600861D01*
X90048573Y-39560922D01*
X90010861Y-39469875D01*
X89955421Y-39397624D01*
X89922621Y-39354878D01*
X89857552Y-39304950D01*
X89807625Y-39266639D01*
X89768401Y-39250392D01*
X89673709Y-39211169D01*
X89563173Y-39196617D01*
X89549101Y-39194764D01*
X89493877Y-39168424D01*
X89464682Y-39114653D01*
X89463876Y-39109569D01*
X89446330Y-38976291D01*
X89446329Y-38976289D01*
X89390861Y-38842375D01*
X89362252Y-38805091D01*
X89341828Y-38747415D01*
X89359206Y-38688750D01*
X89391295Y-38659087D01*
X89541920Y-38572125D01*
X89682514Y-38445533D01*
X89793715Y-38292481D01*
X89848247Y-38169999D01*
X90654750Y-38169999D01*
X90673669Y-38313709D01*
X90709769Y-38400860D01*
X90729139Y-38447625D01*
X90735819Y-38456330D01*
X90817378Y-38562621D01*
X90844810Y-38583670D01*
X90932375Y-38650861D01*
X91024785Y-38689138D01*
X91066290Y-38706330D01*
X91083008Y-38708531D01*
X91210000Y-38725250D01*
X91353709Y-38706330D01*
X91417276Y-38680000D01*
X92234750Y-38680000D01*
X92253669Y-38823709D01*
X92278425Y-38883474D01*
X92309139Y-38957625D01*
X92323462Y-38976291D01*
X92397378Y-39072621D01*
X92445483Y-39109533D01*
X92512375Y-39160861D01*
X92588156Y-39192250D01*
X92646290Y-39216330D01*
X92663008Y-39218531D01*
X92790000Y-39235250D01*
X92933709Y-39216330D01*
X93051877Y-39167384D01*
X93881826Y-39167384D01*
X93900745Y-39311093D01*
X93918882Y-39354878D01*
X93956215Y-39445009D01*
X93990601Y-39489822D01*
X94044454Y-39560005D01*
X94074077Y-39582735D01*
X94159451Y-39648245D01*
X94247583Y-39684750D01*
X94293366Y-39703714D01*
X94309439Y-39705830D01*
X94437076Y-39722634D01*
X94580785Y-39703714D01*
X94714701Y-39648245D01*
X94829697Y-39560005D01*
X94829698Y-39560002D01*
X94840037Y-39552070D01*
X94840671Y-39552897D01*
X94879404Y-39526270D01*
X94940569Y-39527865D01*
X94986075Y-39560922D01*
X94987379Y-39562622D01*
X95044876Y-39606740D01*
X95102375Y-39650861D01*
X95197067Y-39690083D01*
X95236290Y-39706330D01*
X95253008Y-39708531D01*
X95380000Y-39725250D01*
X95523709Y-39706330D01*
X95657625Y-39650861D01*
X95772621Y-39562621D01*
X95860861Y-39447625D01*
X95916330Y-39313709D01*
X95935250Y-39170000D01*
X95935250Y-39169999D01*
X96670250Y-39169999D01*
X96689169Y-39313709D01*
X96723928Y-39397624D01*
X96744639Y-39447625D01*
X96782950Y-39497552D01*
X96832878Y-39562621D01*
X96859093Y-39582736D01*
X96947875Y-39650861D01*
X97042567Y-39690083D01*
X97081790Y-39706330D01*
X97098508Y-39708531D01*
X97225500Y-39725250D01*
X97369209Y-39706330D01*
X97503125Y-39650861D01*
X97618121Y-39562621D01*
X97621372Y-39558383D01*
X97671792Y-39523728D01*
X97732956Y-39525327D01*
X97778456Y-39558382D01*
X97779701Y-39560005D01*
X97781327Y-39562123D01*
X97808191Y-39582736D01*
X97896321Y-39650361D01*
X97979345Y-39684750D01*
X98030236Y-39705830D01*
X98046954Y-39708031D01*
X98173946Y-39724750D01*
X98317655Y-39705830D01*
X98451571Y-39650361D01*
X98566567Y-39562121D01*
X98654807Y-39447125D01*
X98710276Y-39313209D01*
X98729196Y-39169500D01*
X98710276Y-39025791D01*
X98709399Y-39023674D01*
X98694029Y-38986567D01*
X98654807Y-38891875D01*
X98592840Y-38811118D01*
X98566567Y-38776878D01*
X98474626Y-38706330D01*
X98451571Y-38688639D01*
X98398653Y-38666720D01*
X98317655Y-38633169D01*
X98173946Y-38614250D01*
X98030236Y-38633169D01*
X97896321Y-38688639D01*
X97781323Y-38776878D01*
X97778071Y-38781118D01*
X97727646Y-38815772D01*
X97666481Y-38814169D01*
X97620990Y-38781117D01*
X97618120Y-38777378D01*
X97554146Y-38728289D01*
X97503125Y-38689139D01*
X97449000Y-38666720D01*
X97369209Y-38633669D01*
X97225500Y-38614750D01*
X97081790Y-38633669D01*
X96947875Y-38689139D01*
X96832878Y-38777378D01*
X96744639Y-38892375D01*
X96689169Y-39026290D01*
X96670250Y-39169999D01*
X95935250Y-39169999D01*
X95916330Y-39026291D01*
X95916122Y-39025790D01*
X95887888Y-38957625D01*
X95860861Y-38892375D01*
X95810932Y-38827306D01*
X95772621Y-38777378D01*
X95706991Y-38727019D01*
X95657625Y-38689139D01*
X95603500Y-38666720D01*
X95523709Y-38633669D01*
X95380000Y-38614750D01*
X95236290Y-38633669D01*
X95102375Y-38689138D01*
X94977039Y-38785313D01*
X94976405Y-38784487D01*
X94937651Y-38811118D01*
X94876486Y-38809512D01*
X94830998Y-38776459D01*
X94829697Y-38774763D01*
X94714701Y-38686523D01*
X94666892Y-38666720D01*
X94580785Y-38631053D01*
X94437076Y-38612134D01*
X94293366Y-38631053D01*
X94159451Y-38686523D01*
X94044454Y-38774762D01*
X93956215Y-38889759D01*
X93900745Y-39023674D01*
X93881826Y-39167384D01*
X93051877Y-39167384D01*
X93067625Y-39160861D01*
X93182621Y-39072621D01*
X93270861Y-38957625D01*
X93326330Y-38823709D01*
X93345250Y-38680000D01*
X93326330Y-38536291D01*
X93313270Y-38504762D01*
X93301046Y-38475249D01*
X93270861Y-38402375D01*
X93201990Y-38312621D01*
X93182621Y-38287378D01*
X93117552Y-38237450D01*
X93067625Y-38199139D01*
X93025656Y-38181755D01*
X92933709Y-38143669D01*
X92790000Y-38124750D01*
X92646290Y-38143669D01*
X92512375Y-38199139D01*
X92397378Y-38287378D01*
X92309139Y-38402375D01*
X92253669Y-38536290D01*
X92234750Y-38680000D01*
X91417276Y-38680000D01*
X91487625Y-38650861D01*
X91602621Y-38562621D01*
X91690861Y-38447625D01*
X91746330Y-38313709D01*
X91765250Y-38170000D01*
X91746330Y-38026291D01*
X91702303Y-37920000D01*
X108864750Y-37920000D01*
X108883669Y-38063709D01*
X108916790Y-38143669D01*
X108939139Y-38197625D01*
X108940301Y-38199139D01*
X109027378Y-38312621D01*
X109077306Y-38350932D01*
X109142375Y-38400861D01*
X109237067Y-38440083D01*
X109276290Y-38456330D01*
X109293008Y-38458531D01*
X109420000Y-38475250D01*
X109563709Y-38456330D01*
X109697625Y-38400861D01*
X109812621Y-38312621D01*
X109900861Y-38197625D01*
X109956330Y-38063709D01*
X109964388Y-38002500D01*
X115284435Y-38002500D01*
X115287116Y-38026291D01*
X115304632Y-38181758D01*
X115350424Y-38312621D01*
X115364211Y-38352022D01*
X115460184Y-38504762D01*
X115587738Y-38632316D01*
X115740478Y-38728289D01*
X115843174Y-38764224D01*
X115910741Y-38787867D01*
X115910742Y-38787867D01*
X115910745Y-38787868D01*
X116045046Y-38803000D01*
X116047813Y-38803000D01*
X116743374Y-38803000D01*
X116801565Y-38821907D01*
X116837529Y-38871407D01*
X116837529Y-38932593D01*
X116803641Y-38980542D01*
X116749548Y-39022048D01*
X116657302Y-39142266D01*
X116599312Y-39282264D01*
X116579534Y-39432499D01*
X116599312Y-39582735D01*
X116657302Y-39722733D01*
X116749548Y-39842951D01*
X116832095Y-39906291D01*
X116869767Y-39935198D01*
X117009764Y-39993187D01*
X117122280Y-40008000D01*
X117125521Y-40008000D01*
X117194479Y-40008000D01*
X117197720Y-40008000D01*
X117310236Y-39993187D01*
X117450233Y-39935198D01*
X117570451Y-39842951D01*
X117662698Y-39722733D01*
X117720687Y-39582736D01*
X117740466Y-39432500D01*
X117720687Y-39282264D01*
X117662698Y-39142267D01*
X117637580Y-39109533D01*
X117570451Y-39022048D01*
X117443135Y-38924355D01*
X117408479Y-38873930D01*
X117410081Y-38812766D01*
X117447328Y-38764224D01*
X117470697Y-38752371D01*
X117539522Y-38728289D01*
X117692262Y-38632316D01*
X117819816Y-38504762D01*
X117915789Y-38352022D01*
X117975368Y-38181755D01*
X117995565Y-38002500D01*
X119634435Y-38002500D01*
X119654632Y-38181758D01*
X119700424Y-38312621D01*
X119714211Y-38352022D01*
X119810184Y-38504762D01*
X119937738Y-38632316D01*
X120090478Y-38728289D01*
X120193174Y-38764224D01*
X120260741Y-38787867D01*
X120260742Y-38787867D01*
X120260745Y-38787868D01*
X120395046Y-38803000D01*
X120397813Y-38803000D01*
X121282187Y-38803000D01*
X121284954Y-38803000D01*
X121419255Y-38787868D01*
X121589522Y-38728289D01*
X121742262Y-38632316D01*
X121869816Y-38504762D01*
X121965789Y-38352022D01*
X122025368Y-38181755D01*
X122045565Y-38002500D01*
X122025368Y-37823245D01*
X122009318Y-37777378D01*
X121978442Y-37689139D01*
X121965789Y-37652978D01*
X121869816Y-37500238D01*
X121742262Y-37372684D01*
X121589522Y-37276711D01*
X121581815Y-37274014D01*
X121419258Y-37217132D01*
X121287699Y-37202309D01*
X121287693Y-37202308D01*
X121284954Y-37202000D01*
X120395046Y-37202000D01*
X120392307Y-37202308D01*
X120392300Y-37202309D01*
X120260741Y-37217132D01*
X120090480Y-37276710D01*
X119937739Y-37372683D01*
X119937737Y-37372684D01*
X119937738Y-37372684D01*
X119810184Y-37500238D01*
X119720874Y-37642375D01*
X119714210Y-37652980D01*
X119654632Y-37823241D01*
X119634435Y-38002500D01*
X117995565Y-38002500D01*
X117975368Y-37823245D01*
X117959318Y-37777378D01*
X117928442Y-37689139D01*
X117915789Y-37652978D01*
X117819816Y-37500238D01*
X117692262Y-37372684D01*
X117539522Y-37276711D01*
X117531815Y-37274014D01*
X117369258Y-37217132D01*
X117237699Y-37202309D01*
X117237693Y-37202308D01*
X117234954Y-37202000D01*
X116045046Y-37202000D01*
X116042307Y-37202308D01*
X116042300Y-37202309D01*
X115910741Y-37217132D01*
X115740480Y-37276710D01*
X115587739Y-37372683D01*
X115587738Y-37372684D01*
X115460184Y-37500238D01*
X115370874Y-37642375D01*
X115364210Y-37652980D01*
X115304632Y-37823241D01*
X115284435Y-38002499D01*
X115284435Y-38002500D01*
X109964388Y-38002500D01*
X109975250Y-37920000D01*
X109956330Y-37776291D01*
X109900861Y-37642375D01*
X109837923Y-37560353D01*
X109812621Y-37527378D01*
X109747552Y-37477450D01*
X109697625Y-37439139D01*
X109658401Y-37422892D01*
X109563709Y-37383669D01*
X109420000Y-37364750D01*
X109276290Y-37383669D01*
X109142375Y-37439139D01*
X109027378Y-37527378D01*
X108939139Y-37642375D01*
X108883669Y-37776290D01*
X108864750Y-37920000D01*
X91702303Y-37920000D01*
X91690861Y-37892375D01*
X91637812Y-37823241D01*
X91602621Y-37777378D01*
X91537552Y-37727450D01*
X91487625Y-37689139D01*
X91448401Y-37672892D01*
X91353709Y-37633669D01*
X91210000Y-37614750D01*
X91066290Y-37633669D01*
X90932375Y-37689139D01*
X90817378Y-37777378D01*
X90729139Y-37892375D01*
X90673669Y-38026290D01*
X90654750Y-38169999D01*
X89848247Y-38169999D01*
X89870665Y-38119646D01*
X89876967Y-38090000D01*
X88784624Y-38090000D01*
X88857545Y-38075495D01*
X88940240Y-38020240D01*
X88995495Y-37937545D01*
X89014898Y-37840000D01*
X88995495Y-37742455D01*
X88940240Y-37659760D01*
X88857545Y-37604505D01*
X88784624Y-37590000D01*
X89876967Y-37590000D01*
X89876967Y-37589999D01*
X89870665Y-37560353D01*
X89793716Y-37387523D01*
X89682512Y-37234463D01*
X89584385Y-37146109D01*
X89553792Y-37093121D01*
X89560188Y-37032271D01*
X89576528Y-37006888D01*
X89590733Y-36990854D01*
X89594306Y-36984045D01*
X89669790Y-36840225D01*
X89701241Y-36712621D01*
X89706817Y-36689999D01*
X95144750Y-36689999D01*
X95163669Y-36833709D01*
X95202892Y-36928401D01*
X95219139Y-36967625D01*
X95249267Y-37006888D01*
X95307378Y-37082621D01*
X95353724Y-37118183D01*
X95422375Y-37170861D01*
X95517067Y-37210083D01*
X95556290Y-37226330D01*
X95575209Y-37228820D01*
X95700000Y-37245250D01*
X95843709Y-37226330D01*
X95977625Y-37170861D01*
X96092621Y-37082621D01*
X96180861Y-36967625D01*
X96236330Y-36833709D01*
X96255250Y-36690000D01*
X96249468Y-36646089D01*
X96260617Y-36585932D01*
X96304999Y-36543814D01*
X96334701Y-36535016D01*
X96343709Y-36533830D01*
X96477625Y-36478361D01*
X96592621Y-36390121D01*
X96680861Y-36275125D01*
X96711564Y-36201000D01*
X101119250Y-36201000D01*
X101138169Y-36344709D01*
X101177392Y-36439401D01*
X101193639Y-36478625D01*
X101231950Y-36528552D01*
X101281878Y-36593621D01*
X101331806Y-36631932D01*
X101396875Y-36681861D01*
X101491567Y-36721083D01*
X101530790Y-36737330D01*
X101549710Y-36739820D01*
X101674500Y-36756250D01*
X101818209Y-36737330D01*
X101952125Y-36681861D01*
X102067121Y-36593621D01*
X102155361Y-36478625D01*
X102210830Y-36344709D01*
X102214083Y-36320000D01*
X110224750Y-36320000D01*
X110243669Y-36463709D01*
X110273206Y-36535016D01*
X110299139Y-36597625D01*
X110336330Y-36646093D01*
X110387378Y-36712621D01*
X110419580Y-36737330D01*
X110502375Y-36800861D01*
X110597067Y-36840083D01*
X110636290Y-36856330D01*
X110653008Y-36858531D01*
X110780000Y-36875250D01*
X110923709Y-36856330D01*
X111057625Y-36800861D01*
X111172621Y-36712621D01*
X111260861Y-36597625D01*
X111316330Y-36463709D01*
X111335250Y-36320000D01*
X111316330Y-36176291D01*
X111260861Y-36042375D01*
X111210932Y-35977306D01*
X111172621Y-35927378D01*
X111107552Y-35877450D01*
X111057625Y-35839139D01*
X111018401Y-35822892D01*
X110923709Y-35783669D01*
X110780000Y-35764750D01*
X110636290Y-35783669D01*
X110502375Y-35839139D01*
X110387378Y-35927378D01*
X110299139Y-36042375D01*
X110243669Y-36176290D01*
X110224750Y-36320000D01*
X102214083Y-36320000D01*
X102229750Y-36201000D01*
X102210830Y-36057291D01*
X102206350Y-36046476D01*
X102186064Y-35997500D01*
X102155361Y-35923375D01*
X102090724Y-35839139D01*
X102067121Y-35808378D01*
X101979121Y-35740854D01*
X101952125Y-35720139D01*
X101912901Y-35703892D01*
X101818209Y-35664669D01*
X101674500Y-35645750D01*
X101530790Y-35664669D01*
X101396875Y-35720139D01*
X101281878Y-35808378D01*
X101193639Y-35923375D01*
X101138169Y-36057290D01*
X101119250Y-36201000D01*
X96711564Y-36201000D01*
X96736330Y-36141209D01*
X96755250Y-35997500D01*
X96736330Y-35853791D01*
X96680861Y-35719875D01*
X96623983Y-35645750D01*
X96592621Y-35604878D01*
X96527552Y-35554950D01*
X96477625Y-35516639D01*
X96438401Y-35500392D01*
X96343709Y-35461169D01*
X96216717Y-35444451D01*
X96200000Y-35442250D01*
X96199999Y-35442250D01*
X96056290Y-35461169D01*
X95922375Y-35516639D01*
X95807378Y-35604878D01*
X95719139Y-35719875D01*
X95663669Y-35853790D01*
X95644750Y-35997500D01*
X95650530Y-36041409D01*
X95639379Y-36101570D01*
X95594996Y-36143687D01*
X95565303Y-36152483D01*
X95556289Y-36153669D01*
X95422375Y-36209139D01*
X95307378Y-36297378D01*
X95219139Y-36412375D01*
X95163669Y-36546290D01*
X95144750Y-36689999D01*
X89706817Y-36689999D01*
X89710500Y-36675057D01*
X89710500Y-36504942D01*
X89669790Y-36339776D01*
X89669790Y-36339775D01*
X89632048Y-36267864D01*
X89590733Y-36189145D01*
X89477931Y-36061819D01*
X89477930Y-36061818D01*
X89477929Y-36061817D01*
X89455702Y-36046474D01*
X89418553Y-35997859D01*
X89417075Y-35936692D01*
X89451832Y-35886337D01*
X89455702Y-35883525D01*
X89477929Y-35868183D01*
X89552802Y-35783669D01*
X89590733Y-35740854D01*
X89601744Y-35719875D01*
X89669790Y-35590225D01*
X89710500Y-35425056D01*
X89710500Y-35254944D01*
X89669790Y-35089775D01*
X89632048Y-35017864D01*
X89590733Y-34939145D01*
X89477929Y-34811816D01*
X89455701Y-34796473D01*
X89418553Y-34747856D01*
X89417075Y-34686689D01*
X89451833Y-34636335D01*
X89455671Y-34633546D01*
X89477929Y-34618183D01*
X89496143Y-34597624D01*
X89590733Y-34490854D01*
X89633103Y-34410125D01*
X89669790Y-34340225D01*
X89710500Y-34175056D01*
X89710500Y-34004944D01*
X89709493Y-34000860D01*
X89669790Y-33839776D01*
X89669790Y-33839775D01*
X89617360Y-33739879D01*
X89590733Y-33689145D01*
X89497456Y-33583858D01*
X89473020Y-33527764D01*
X89486223Y-33468020D01*
X89512229Y-33438956D01*
X89567546Y-33397546D01*
X89653796Y-33282331D01*
X89704091Y-33147483D01*
X89710500Y-33087873D01*
X89710500Y-33082000D01*
X95794750Y-33082000D01*
X95796951Y-33098717D01*
X95813669Y-33225709D01*
X95852892Y-33320401D01*
X95869139Y-33359625D01*
X95898236Y-33397545D01*
X95957378Y-33474621D01*
X95965201Y-33480624D01*
X95999857Y-33531049D01*
X95998255Y-33592213D01*
X95983476Y-33619433D01*
X95889138Y-33742375D01*
X95833669Y-33876290D01*
X95814750Y-34019999D01*
X95833669Y-34163709D01*
X95868461Y-34247703D01*
X95889139Y-34297625D01*
X95906308Y-34320000D01*
X95977378Y-34412621D01*
X96027306Y-34450932D01*
X96092375Y-34500861D01*
X96187067Y-34540083D01*
X96226290Y-34556330D01*
X96245209Y-34558820D01*
X96370000Y-34575250D01*
X96513709Y-34556330D01*
X96647625Y-34500861D01*
X96762621Y-34412621D01*
X96833692Y-34320000D01*
X104644750Y-34320000D01*
X104663669Y-34463709D01*
X104689107Y-34525121D01*
X104719139Y-34597625D01*
X104757450Y-34647552D01*
X104807378Y-34712621D01*
X104847373Y-34743310D01*
X104922375Y-34800861D01*
X105017067Y-34840083D01*
X105056290Y-34856330D01*
X105075210Y-34858820D01*
X105200000Y-34875250D01*
X105343709Y-34856330D01*
X105477625Y-34800861D01*
X105592621Y-34712621D01*
X105680861Y-34597625D01*
X105736330Y-34463709D01*
X105755250Y-34320000D01*
X105736330Y-34176291D01*
X105735818Y-34175056D01*
X105718191Y-34132499D01*
X117395250Y-34132499D01*
X117414169Y-34276209D01*
X117440685Y-34340223D01*
X117469639Y-34410125D01*
X117507950Y-34460052D01*
X117557878Y-34525121D01*
X117598551Y-34556330D01*
X117672875Y-34613361D01*
X117767567Y-34652583D01*
X117806790Y-34668830D01*
X117823508Y-34671031D01*
X117950500Y-34687750D01*
X118094209Y-34668830D01*
X118228125Y-34613361D01*
X118343121Y-34525121D01*
X118431361Y-34410125D01*
X118486830Y-34276209D01*
X118505750Y-34132500D01*
X118486830Y-33988791D01*
X118479079Y-33970079D01*
X118470583Y-33949567D01*
X118431361Y-33854875D01*
X118376723Y-33783670D01*
X118343121Y-33739878D01*
X118277007Y-33689148D01*
X118228125Y-33651639D01*
X118188901Y-33635392D01*
X118094209Y-33596169D01*
X117950500Y-33577250D01*
X117806790Y-33596169D01*
X117672875Y-33651639D01*
X117557878Y-33739878D01*
X117469639Y-33854875D01*
X117414169Y-33988790D01*
X117395250Y-34132499D01*
X105718191Y-34132499D01*
X105680861Y-34042375D01*
X105625385Y-33970078D01*
X105592621Y-33927378D01*
X105498132Y-33854875D01*
X105477625Y-33839139D01*
X105438401Y-33822892D01*
X105343709Y-33783669D01*
X105200000Y-33764750D01*
X105056290Y-33783669D01*
X104922375Y-33839139D01*
X104807378Y-33927378D01*
X104719139Y-34042375D01*
X104663669Y-34176290D01*
X104644750Y-34320000D01*
X96833692Y-34320000D01*
X96850861Y-34297625D01*
X96906330Y-34163709D01*
X96925250Y-34020000D01*
X96906330Y-33876291D01*
X96897459Y-33854875D01*
X96873746Y-33797625D01*
X96850861Y-33742375D01*
X96812554Y-33692453D01*
X97594750Y-33692453D01*
X97613669Y-33836163D01*
X97630291Y-33876291D01*
X97669139Y-33970079D01*
X97695892Y-34004944D01*
X97757378Y-34085075D01*
X97807306Y-34123386D01*
X97872375Y-34173315D01*
X97967067Y-34212537D01*
X98006290Y-34228784D01*
X98023008Y-34230985D01*
X98150000Y-34247704D01*
X98293709Y-34228784D01*
X98427625Y-34173315D01*
X98542621Y-34085075D01*
X98630861Y-33970079D01*
X98686330Y-33836163D01*
X98705250Y-33692454D01*
X98686330Y-33548745D01*
X98684085Y-33543326D01*
X98674424Y-33520000D01*
X101644750Y-33520000D01*
X101663669Y-33663709D01*
X101675576Y-33692454D01*
X101719139Y-33797625D01*
X101750994Y-33839139D01*
X101807378Y-33912621D01*
X101857306Y-33950932D01*
X101922375Y-34000861D01*
X102017067Y-34040083D01*
X102056290Y-34056330D01*
X102073008Y-34058531D01*
X102200000Y-34075250D01*
X102343709Y-34056330D01*
X102477625Y-34000861D01*
X102592621Y-33912621D01*
X102680861Y-33797625D01*
X102736330Y-33663709D01*
X102755250Y-33520000D01*
X102736330Y-33376291D01*
X102729426Y-33359624D01*
X102720083Y-33337067D01*
X102680861Y-33242375D01*
X102608049Y-33147485D01*
X102592621Y-33127378D01*
X102527552Y-33077450D01*
X102477625Y-33039139D01*
X102438401Y-33022892D01*
X102343709Y-32983669D01*
X102200000Y-32964750D01*
X102056290Y-32983669D01*
X101922375Y-33039139D01*
X101807378Y-33127378D01*
X101719139Y-33242375D01*
X101663669Y-33376290D01*
X101644750Y-33520000D01*
X98674424Y-33520000D01*
X98668197Y-33504967D01*
X98630861Y-33414829D01*
X98580932Y-33349760D01*
X98542621Y-33299832D01*
X98477552Y-33249904D01*
X98427625Y-33211593D01*
X98388401Y-33195346D01*
X98293709Y-33156123D01*
X98150000Y-33137204D01*
X98006290Y-33156123D01*
X97872375Y-33211593D01*
X97757378Y-33299832D01*
X97669139Y-33414829D01*
X97613669Y-33548744D01*
X97594750Y-33692453D01*
X96812554Y-33692453D01*
X96790498Y-33663709D01*
X96762620Y-33627377D01*
X96754797Y-33621374D01*
X96720142Y-33570950D01*
X96721744Y-33509785D01*
X96736524Y-33482565D01*
X96742617Y-33474623D01*
X96742621Y-33474621D01*
X96830861Y-33359625D01*
X96886330Y-33225709D01*
X96905250Y-33082000D01*
X96886330Y-32938291D01*
X96830861Y-32804375D01*
X96747955Y-32696330D01*
X96742621Y-32689378D01*
X96677552Y-32639450D01*
X96627625Y-32601139D01*
X96597287Y-32588572D01*
X96493710Y-32545669D01*
X96473318Y-32542985D01*
X96418094Y-32516643D01*
X96398014Y-32479660D01*
X96360997Y-32518669D01*
X96326679Y-32529820D01*
X96206290Y-32545669D01*
X96072375Y-32601139D01*
X95957378Y-32689378D01*
X95869139Y-32804375D01*
X95813669Y-32938290D01*
X95794750Y-33081999D01*
X95794750Y-33082000D01*
X89710500Y-33082000D01*
X89710499Y-32592128D01*
X89704091Y-32532517D01*
X89653796Y-32397669D01*
X89567546Y-32282454D01*
X89452331Y-32196204D01*
X89452330Y-32196203D01*
X89355263Y-32160000D01*
X89317483Y-32145909D01*
X89273334Y-32141162D01*
X89260498Y-32139782D01*
X89260493Y-32139781D01*
X89257873Y-32139500D01*
X89255227Y-32139500D01*
X88264775Y-32139500D01*
X88264756Y-32139500D01*
X88262128Y-32139501D01*
X88259513Y-32139782D01*
X88259496Y-32139783D01*
X88202515Y-32145909D01*
X88067669Y-32196203D01*
X87952454Y-32282454D01*
X87866203Y-32397669D01*
X87821074Y-32518669D01*
X87815909Y-32532517D01*
X87814784Y-32542985D01*
X87811315Y-32575250D01*
X87809500Y-32592127D01*
X87809500Y-32594771D01*
X87809500Y-32594772D01*
X87809500Y-33085224D01*
X87809500Y-33085242D01*
X87809501Y-33087872D01*
X87809782Y-33090487D01*
X87809783Y-33090503D01*
X87815909Y-33147484D01*
X87866203Y-33282330D01*
X87866204Y-33282331D01*
X87952454Y-33397546D01*
X88007771Y-33438956D01*
X88043023Y-33488965D01*
X88042149Y-33550144D01*
X88022544Y-33583858D01*
X87929265Y-33689148D01*
X87850209Y-33839776D01*
X87809500Y-34004942D01*
X87809500Y-34175057D01*
X87850209Y-34340223D01*
X87929266Y-34490854D01*
X88042069Y-34618182D01*
X88064297Y-34633525D01*
X88101446Y-34682142D01*
X88102924Y-34743310D01*
X88068166Y-34793664D01*
X88064297Y-34796475D01*
X88042069Y-34811817D01*
X87929266Y-34939145D01*
X87850209Y-35089776D01*
X87809500Y-35254942D01*
X87809500Y-35425057D01*
X87850209Y-35590223D01*
X87929266Y-35740854D01*
X88042069Y-35868182D01*
X88064297Y-35883525D01*
X88101446Y-35932142D01*
X88102924Y-35993310D01*
X88068166Y-36043664D01*
X88064297Y-36046475D01*
X88042069Y-36061817D01*
X87929266Y-36189145D01*
X87850209Y-36339776D01*
X87809500Y-36504942D01*
X87809500Y-36675057D01*
X87850209Y-36840223D01*
X87929266Y-36990854D01*
X87943472Y-37006888D01*
X87967909Y-37062981D01*
X87954707Y-37122725D01*
X87935615Y-37146109D01*
X87837485Y-37234466D01*
X87726284Y-37387518D01*
X87649334Y-37560353D01*
X87643032Y-37589999D01*
X84300500Y-37589999D01*
X84300500Y-31719999D01*
X93344750Y-31719999D01*
X93363669Y-31863709D01*
X93378533Y-31899593D01*
X93419139Y-31997625D01*
X93436308Y-32020000D01*
X93507378Y-32112621D01*
X93550762Y-32145910D01*
X93622375Y-32200861D01*
X93705087Y-32235121D01*
X93756290Y-32256330D01*
X93773008Y-32258531D01*
X93900000Y-32275250D01*
X94043709Y-32256330D01*
X94177625Y-32200861D01*
X94292621Y-32112621D01*
X94380861Y-31997625D01*
X94436330Y-31863709D01*
X94445442Y-31794499D01*
X95894750Y-31794499D01*
X95913669Y-31938209D01*
X95946012Y-32016291D01*
X95969139Y-32072125D01*
X96000213Y-32112621D01*
X96057378Y-32187121D01*
X96075285Y-32200861D01*
X96172375Y-32275361D01*
X96267067Y-32314583D01*
X96306290Y-32330830D01*
X96326678Y-32333514D01*
X96381903Y-32359854D01*
X96401984Y-32396838D01*
X96439005Y-32357828D01*
X96473315Y-32346680D01*
X96593709Y-32330830D01*
X96727625Y-32275361D01*
X96842621Y-32187121D01*
X96930861Y-32072125D01*
X96952452Y-32019999D01*
X98049245Y-32019999D01*
X98068164Y-32163709D01*
X98097744Y-32235121D01*
X98123634Y-32297625D01*
X98149113Y-32330830D01*
X98211873Y-32412621D01*
X98261801Y-32450932D01*
X98326870Y-32500861D01*
X98421562Y-32540083D01*
X98460785Y-32556330D01*
X98477503Y-32558531D01*
X98604495Y-32575250D01*
X98748204Y-32556330D01*
X98882120Y-32500861D01*
X98997116Y-32412621D01*
X99085356Y-32297625D01*
X99140825Y-32163709D01*
X99159745Y-32020000D01*
X99140825Y-31876291D01*
X99135613Y-31863709D01*
X99124578Y-31837067D01*
X99085356Y-31742375D01*
X99015080Y-31650790D01*
X99006801Y-31640000D01*
X103805250Y-31640000D01*
X103824169Y-31783709D01*
X103862518Y-31876290D01*
X103879639Y-31917625D01*
X103895434Y-31938209D01*
X103967878Y-32032621D01*
X104017806Y-32070932D01*
X104082875Y-32120861D01*
X104143350Y-32145910D01*
X104216790Y-32176330D01*
X104235709Y-32178820D01*
X104360500Y-32195250D01*
X104504209Y-32176330D01*
X104638125Y-32120861D01*
X104753121Y-32032621D01*
X104841361Y-31917625D01*
X104872478Y-31842500D01*
X110514750Y-31842500D01*
X110533669Y-31986209D01*
X110547666Y-32020000D01*
X110589139Y-32120125D01*
X110608924Y-32145909D01*
X110677378Y-32235121D01*
X110705019Y-32256330D01*
X110792375Y-32323361D01*
X110856085Y-32349750D01*
X110926290Y-32378830D01*
X110943008Y-32381031D01*
X111070000Y-32397750D01*
X111213709Y-32378830D01*
X111347625Y-32323361D01*
X111462621Y-32235121D01*
X111550861Y-32120125D01*
X111606330Y-31986209D01*
X111625250Y-31842500D01*
X111606330Y-31698791D01*
X111550861Y-31564875D01*
X111488549Y-31483669D01*
X111462621Y-31449878D01*
X111397552Y-31399950D01*
X111347625Y-31361639D01*
X111308401Y-31345392D01*
X111213709Y-31306169D01*
X111070000Y-31287250D01*
X110926290Y-31306169D01*
X110792375Y-31361639D01*
X110677378Y-31449878D01*
X110589139Y-31564875D01*
X110533669Y-31698790D01*
X110514750Y-31842500D01*
X104872478Y-31842500D01*
X104896830Y-31783709D01*
X104915750Y-31640000D01*
X104896830Y-31496291D01*
X104891602Y-31483670D01*
X104877605Y-31449878D01*
X104841361Y-31362375D01*
X104783715Y-31287250D01*
X104753121Y-31247378D01*
X104670093Y-31183669D01*
X104638125Y-31159139D01*
X104598901Y-31142892D01*
X104504209Y-31103669D01*
X104360500Y-31084750D01*
X104216790Y-31103669D01*
X104082875Y-31159139D01*
X103967878Y-31247378D01*
X103879639Y-31362375D01*
X103824169Y-31496290D01*
X103805250Y-31640000D01*
X99006801Y-31640000D01*
X98997116Y-31627378D01*
X98930536Y-31576290D01*
X98882120Y-31539139D01*
X98842896Y-31522892D01*
X98748204Y-31483669D01*
X98604495Y-31464750D01*
X98460785Y-31483669D01*
X98326870Y-31539139D01*
X98211873Y-31627378D01*
X98123634Y-31742375D01*
X98068164Y-31876290D01*
X98049245Y-32019999D01*
X96952452Y-32019999D01*
X96986330Y-31938209D01*
X97005250Y-31794500D01*
X96986330Y-31650791D01*
X96981860Y-31640000D01*
X96970083Y-31611567D01*
X96930861Y-31516875D01*
X96850864Y-31412621D01*
X96842621Y-31401878D01*
X96745531Y-31327379D01*
X96727625Y-31313639D01*
X96688401Y-31297392D01*
X96593709Y-31258169D01*
X96450000Y-31239250D01*
X96306290Y-31258169D01*
X96172375Y-31313639D01*
X96057378Y-31401878D01*
X95969139Y-31516875D01*
X95913669Y-31650790D01*
X95894750Y-31794499D01*
X94445442Y-31794499D01*
X94455250Y-31720000D01*
X94436330Y-31576291D01*
X94435898Y-31575249D01*
X94403193Y-31496290D01*
X94380861Y-31442375D01*
X94318910Y-31361639D01*
X94292621Y-31327378D01*
X94227552Y-31277450D01*
X94177625Y-31239139D01*
X94138401Y-31222892D01*
X94043709Y-31183669D01*
X93900000Y-31164750D01*
X93756290Y-31183669D01*
X93622375Y-31239139D01*
X93507378Y-31327378D01*
X93419139Y-31442375D01*
X93363669Y-31576290D01*
X93344750Y-31719999D01*
X84300500Y-31719999D01*
X84300500Y-30720000D01*
X105814750Y-30720000D01*
X105833669Y-30863709D01*
X105872892Y-30958401D01*
X105889139Y-30997625D01*
X105906308Y-31020000D01*
X105977378Y-31112621D01*
X106022851Y-31147513D01*
X106092375Y-31200861D01*
X106184788Y-31239139D01*
X106226290Y-31256330D01*
X106240259Y-31258169D01*
X106370000Y-31275250D01*
X106513709Y-31256330D01*
X106647625Y-31200861D01*
X106690533Y-31167936D01*
X106748204Y-31147513D01*
X106806870Y-31164889D01*
X106842261Y-31208593D01*
X106879139Y-31297625D01*
X106967378Y-31412621D01*
X107006155Y-31442375D01*
X107082375Y-31500861D01*
X107174788Y-31539139D01*
X107216290Y-31556330D01*
X107233008Y-31558531D01*
X107360000Y-31575250D01*
X107503709Y-31556330D01*
X107637625Y-31500861D01*
X107752621Y-31412621D01*
X107840861Y-31297625D01*
X107896330Y-31163709D01*
X107915250Y-31020000D01*
X107896330Y-30876291D01*
X107891118Y-30863709D01*
X107880083Y-30837067D01*
X107840861Y-30742375D01*
X107790932Y-30677306D01*
X107752621Y-30627378D01*
X107680531Y-30572062D01*
X107637625Y-30539139D01*
X107598401Y-30522892D01*
X107503709Y-30483669D01*
X107360000Y-30464750D01*
X107216290Y-30483669D01*
X107082375Y-30539138D01*
X107039469Y-30572062D01*
X106981793Y-30592486D01*
X106923128Y-30575108D01*
X106887738Y-30531405D01*
X106883965Y-30522296D01*
X106850861Y-30442375D01*
X106780737Y-30350988D01*
X106762621Y-30327378D01*
X106696442Y-30276598D01*
X106647625Y-30239139D01*
X106608401Y-30222892D01*
X106513709Y-30183669D01*
X106370000Y-30164750D01*
X106226290Y-30183669D01*
X106092375Y-30239139D01*
X105977378Y-30327378D01*
X105889139Y-30442375D01*
X105833669Y-30576290D01*
X105814750Y-30720000D01*
X84300500Y-30720000D01*
X84300500Y-29795737D01*
X100710958Y-29795737D01*
X100729877Y-29939447D01*
X100769100Y-30034139D01*
X100785347Y-30073363D01*
X100823658Y-30123290D01*
X100873586Y-30188359D01*
X100923514Y-30226670D01*
X100988583Y-30276599D01*
X101083275Y-30315821D01*
X101122498Y-30332068D01*
X101139216Y-30334269D01*
X101266208Y-30350988D01*
X101409917Y-30332068D01*
X101543833Y-30276599D01*
X101658829Y-30188359D01*
X101747069Y-30073363D01*
X101802538Y-29939447D01*
X101821458Y-29795738D01*
X101802538Y-29652029D01*
X101802054Y-29650861D01*
X101786291Y-29612805D01*
X101747069Y-29518113D01*
X101663625Y-29409367D01*
X101658829Y-29403116D01*
X101593760Y-29353188D01*
X101543833Y-29314877D01*
X101502180Y-29297624D01*
X101409917Y-29259407D01*
X101282925Y-29242689D01*
X101266208Y-29240488D01*
X101266207Y-29240488D01*
X101122498Y-29259407D01*
X100988583Y-29314877D01*
X100873586Y-29403116D01*
X100785347Y-29518113D01*
X100729877Y-29652028D01*
X100710958Y-29795737D01*
X84300500Y-29795737D01*
X84300500Y-29170000D01*
X90444750Y-29170000D01*
X90463669Y-29313709D01*
X90495456Y-29390448D01*
X90519139Y-29447625D01*
X90557450Y-29497552D01*
X90607378Y-29562621D01*
X90623837Y-29575250D01*
X90722375Y-29650861D01*
X90817067Y-29690083D01*
X90856290Y-29706330D01*
X90873008Y-29708531D01*
X91000000Y-29725250D01*
X91143709Y-29706330D01*
X91277625Y-29650861D01*
X91392621Y-29562621D01*
X91480861Y-29447625D01*
X91525996Y-29338656D01*
X91565732Y-29292131D01*
X91625227Y-29277847D01*
X91677727Y-29298000D01*
X91725919Y-29334979D01*
X91859834Y-29390448D01*
X91878754Y-29392938D01*
X92003544Y-29409368D01*
X92147253Y-29390448D01*
X92281169Y-29334979D01*
X92396165Y-29246739D01*
X92484405Y-29131743D01*
X92484405Y-29131740D01*
X92488326Y-29126632D01*
X92538750Y-29091976D01*
X92599914Y-29093577D01*
X92648456Y-29130824D01*
X92656764Y-29152462D01*
X92658682Y-29151668D01*
X92667755Y-29173572D01*
X92719139Y-29297625D01*
X92731481Y-29313709D01*
X92807378Y-29412621D01*
X92852997Y-29447625D01*
X92922375Y-29500861D01*
X93017067Y-29540083D01*
X93056290Y-29556330D01*
X93073008Y-29558531D01*
X93200000Y-29575250D01*
X93343709Y-29556330D01*
X93477625Y-29500861D01*
X93592621Y-29412621D01*
X93680861Y-29297625D01*
X93736330Y-29163709D01*
X93755250Y-29020000D01*
X93736330Y-28876291D01*
X93680861Y-28742375D01*
X93630932Y-28677306D01*
X93592621Y-28627378D01*
X93516319Y-28568830D01*
X93477625Y-28539139D01*
X93438401Y-28522892D01*
X93343709Y-28483669D01*
X93216717Y-28466951D01*
X93200000Y-28464750D01*
X93199999Y-28464750D01*
X93056290Y-28483669D01*
X92922375Y-28539139D01*
X92807380Y-28627377D01*
X92715217Y-28747486D01*
X92664792Y-28782141D01*
X92603628Y-28780539D01*
X92555086Y-28743292D01*
X92546781Y-28721654D01*
X92544862Y-28722450D01*
X92508088Y-28633670D01*
X92484405Y-28576493D01*
X92413179Y-28483670D01*
X92396165Y-28461496D01*
X92331096Y-28411568D01*
X92281169Y-28373257D01*
X92241945Y-28357010D01*
X92147253Y-28317787D01*
X92020261Y-28301069D01*
X92003544Y-28298868D01*
X92003543Y-28298868D01*
X91859834Y-28317787D01*
X91725919Y-28373257D01*
X91610922Y-28461496D01*
X91522683Y-28576492D01*
X91477547Y-28685461D01*
X91437810Y-28731987D01*
X91378315Y-28746270D01*
X91325816Y-28726117D01*
X91305344Y-28710409D01*
X91277625Y-28689139D01*
X91238401Y-28672892D01*
X91143709Y-28633669D01*
X91000000Y-28614750D01*
X90856290Y-28633669D01*
X90722375Y-28689139D01*
X90607378Y-28777378D01*
X90519139Y-28892375D01*
X90463669Y-29026290D01*
X90444750Y-29170000D01*
X84300500Y-29170000D01*
X84300500Y-26390000D01*
X84654750Y-26390000D01*
X84673669Y-26533709D01*
X84686303Y-26564209D01*
X84729139Y-26667625D01*
X84752542Y-26698124D01*
X84817378Y-26782621D01*
X84840886Y-26800659D01*
X84932375Y-26870861D01*
X85026864Y-26909999D01*
X85066290Y-26926330D01*
X85085210Y-26928820D01*
X85210000Y-26945250D01*
X85353709Y-26926330D01*
X85487625Y-26870861D01*
X85602621Y-26782621D01*
X85619980Y-26759999D01*
X88114750Y-26759999D01*
X88133669Y-26903709D01*
X88163510Y-26975750D01*
X88189139Y-27037625D01*
X88201481Y-27053709D01*
X88277378Y-27152621D01*
X88308710Y-27176663D01*
X88343366Y-27227087D01*
X88341765Y-27288252D01*
X88326985Y-27315472D01*
X88264139Y-27397375D01*
X88208669Y-27531290D01*
X88189750Y-27674999D01*
X88208669Y-27818709D01*
X88237698Y-27888790D01*
X88264139Y-27952625D01*
X88302450Y-28002552D01*
X88352378Y-28067621D01*
X88402306Y-28105932D01*
X88467375Y-28155861D01*
X88562067Y-28195083D01*
X88601290Y-28211330D01*
X88618008Y-28213531D01*
X88745000Y-28230250D01*
X88888709Y-28211330D01*
X89022625Y-28155861D01*
X89137621Y-28067621D01*
X89164571Y-28032499D01*
X94744750Y-28032499D01*
X94763669Y-28176209D01*
X94786054Y-28230250D01*
X94819139Y-28310125D01*
X94857450Y-28360052D01*
X94907378Y-28425121D01*
X94954784Y-28461496D01*
X95022375Y-28513361D01*
X95084610Y-28539139D01*
X95156290Y-28568830D01*
X95173008Y-28571031D01*
X95300000Y-28587750D01*
X95443709Y-28568830D01*
X95577625Y-28513361D01*
X95692621Y-28425121D01*
X95780861Y-28310125D01*
X95836330Y-28176209D01*
X95855250Y-28032500D01*
X95836330Y-27888791D01*
X95780861Y-27754875D01*
X95730932Y-27689806D01*
X95692621Y-27639878D01*
X95627552Y-27589950D01*
X95577625Y-27551639D01*
X95528500Y-27531291D01*
X95443709Y-27496169D01*
X95300000Y-27477250D01*
X95156290Y-27496169D01*
X95022375Y-27551639D01*
X94907378Y-27639878D01*
X94819139Y-27754875D01*
X94763669Y-27888790D01*
X94744750Y-28032499D01*
X89164571Y-28032499D01*
X89225861Y-27952625D01*
X89281330Y-27818709D01*
X89300250Y-27675000D01*
X89281330Y-27531291D01*
X89225861Y-27397375D01*
X89137621Y-27282379D01*
X89106288Y-27258336D01*
X89071633Y-27207911D01*
X89073235Y-27146747D01*
X89088013Y-27119529D01*
X89150861Y-27037625D01*
X89206330Y-26903709D01*
X89225250Y-26760000D01*
X89206330Y-26616291D01*
X89199938Y-26600860D01*
X89182181Y-26557989D01*
X89150861Y-26482375D01*
X89103383Y-26420500D01*
X93540687Y-26420500D01*
X93559606Y-26564209D01*
X93587841Y-26632374D01*
X93615076Y-26698125D01*
X93653387Y-26748052D01*
X93703315Y-26813121D01*
X93722512Y-26827851D01*
X93818312Y-26901361D01*
X93880839Y-26927260D01*
X93952227Y-26956830D01*
X93968945Y-26959031D01*
X94095937Y-26975750D01*
X94239646Y-26956830D01*
X94352708Y-26909999D01*
X105644750Y-26909999D01*
X105663669Y-27053709D01*
X105690932Y-27119526D01*
X105719139Y-27187625D01*
X105757450Y-27237552D01*
X105807378Y-27302621D01*
X105857306Y-27340932D01*
X105922375Y-27390861D01*
X105979050Y-27414336D01*
X106056290Y-27446330D01*
X106073008Y-27448531D01*
X106200000Y-27465250D01*
X106343709Y-27446330D01*
X106477625Y-27390861D01*
X106521103Y-27357499D01*
X117183032Y-27357499D01*
X117189333Y-27387143D01*
X117201441Y-27414336D01*
X117210000Y-27454603D01*
X117210000Y-31770000D01*
X117717523Y-31770000D01*
X117775714Y-31788907D01*
X117811678Y-31838407D01*
X117811678Y-31899593D01*
X117808992Y-31906871D01*
X117796012Y-31938209D01*
X117763669Y-32016291D01*
X117744750Y-32160000D01*
X117763669Y-32303709D01*
X117802245Y-32396838D01*
X117819139Y-32437625D01*
X117851394Y-32479660D01*
X117907378Y-32552621D01*
X117955435Y-32589496D01*
X118022375Y-32640861D01*
X118117067Y-32680083D01*
X118156290Y-32696330D01*
X118173008Y-32698531D01*
X118300000Y-32715250D01*
X118443709Y-32696330D01*
X118577625Y-32640861D01*
X118692621Y-32552621D01*
X118780861Y-32437625D01*
X118836330Y-32303709D01*
X118855250Y-32160000D01*
X118836330Y-32016291D01*
X118791012Y-31906884D01*
X118786212Y-31845889D01*
X118818182Y-31793720D01*
X118874710Y-31770305D01*
X118882477Y-31770000D01*
X119459999Y-31770000D01*
X119460000Y-31770000D01*
X119460000Y-26020000D01*
X118628843Y-26020000D01*
X118570652Y-26001093D01*
X118534688Y-25951593D01*
X118534688Y-25890407D01*
X118568576Y-25842458D01*
X118672621Y-25762621D01*
X118684128Y-25747625D01*
X118760861Y-25647625D01*
X118816330Y-25513709D01*
X118835250Y-25370000D01*
X118816330Y-25226291D01*
X118760861Y-25092375D01*
X118681645Y-24989139D01*
X118672621Y-24977378D01*
X118607552Y-24927450D01*
X118557625Y-24889139D01*
X118518401Y-24872892D01*
X118423709Y-24833669D01*
X118280000Y-24814750D01*
X118136290Y-24833669D01*
X118002375Y-24889139D01*
X117887378Y-24977378D01*
X117799139Y-25092375D01*
X117743669Y-25226290D01*
X117724750Y-25369999D01*
X117743669Y-25513709D01*
X117781587Y-25605249D01*
X117799139Y-25647625D01*
X117837450Y-25697552D01*
X117887378Y-25762621D01*
X117991424Y-25842458D01*
X118026080Y-25892882D01*
X118024479Y-25954047D01*
X117987231Y-26002588D01*
X117931157Y-26020000D01*
X117210000Y-26020000D01*
X117209999Y-26020001D01*
X117209999Y-26760395D01*
X117201441Y-26800659D01*
X117189335Y-26827851D01*
X117183032Y-26857499D01*
X117187937Y-26863556D01*
X117209864Y-26920677D01*
X117210000Y-26925859D01*
X117210000Y-27289140D01*
X117191093Y-27347331D01*
X117187938Y-27351442D01*
X117183032Y-27357499D01*
X106521103Y-27357499D01*
X106592621Y-27302621D01*
X106680861Y-27187625D01*
X106736330Y-27053709D01*
X106755250Y-26910000D01*
X106736330Y-26766291D01*
X106733724Y-26760000D01*
X106708095Y-26698125D01*
X106680861Y-26632375D01*
X106647017Y-26588269D01*
X106623783Y-26557989D01*
X106603359Y-26500313D01*
X106620737Y-26441647D01*
X106623754Y-26437492D01*
X106709276Y-26326040D01*
X106764745Y-26192124D01*
X106774240Y-26120000D01*
X112044750Y-26120000D01*
X112063669Y-26263709D01*
X112089488Y-26326040D01*
X112119139Y-26397625D01*
X112157450Y-26447552D01*
X112207378Y-26512621D01*
X112234861Y-26533709D01*
X112322375Y-26600861D01*
X112398458Y-26632375D01*
X112456290Y-26656330D01*
X112473008Y-26658531D01*
X112600000Y-26675250D01*
X112743709Y-26656330D01*
X112877625Y-26600861D01*
X112992621Y-26512621D01*
X113066458Y-26416394D01*
X113116882Y-26381739D01*
X113178046Y-26383340D01*
X113223542Y-26416395D01*
X113297378Y-26512621D01*
X113324861Y-26533709D01*
X113412375Y-26600861D01*
X113488458Y-26632375D01*
X113546290Y-26656330D01*
X113565210Y-26658820D01*
X113690000Y-26675250D01*
X113833709Y-26656330D01*
X113967625Y-26600861D01*
X114082621Y-26512621D01*
X114170861Y-26397625D01*
X114226330Y-26263709D01*
X114245250Y-26120000D01*
X114226330Y-25976291D01*
X114217116Y-25954047D01*
X114210083Y-25937067D01*
X114170861Y-25842375D01*
X114115932Y-25770790D01*
X114082621Y-25727378D01*
X113989330Y-25655794D01*
X113967625Y-25639139D01*
X113906231Y-25613709D01*
X113833709Y-25583669D01*
X113706717Y-25566951D01*
X113690000Y-25564750D01*
X113689999Y-25564750D01*
X113546290Y-25583669D01*
X113412375Y-25639139D01*
X113297378Y-25727378D01*
X113223542Y-25823604D01*
X113173118Y-25858260D01*
X113111953Y-25856659D01*
X113066458Y-25823604D01*
X112992621Y-25727378D01*
X112899330Y-25655794D01*
X112877625Y-25639139D01*
X112816231Y-25613709D01*
X112743709Y-25583669D01*
X112600000Y-25564750D01*
X112456290Y-25583669D01*
X112322375Y-25639139D01*
X112207378Y-25727378D01*
X112119139Y-25842375D01*
X112063669Y-25976290D01*
X112044750Y-26120000D01*
X106774240Y-26120000D01*
X106783665Y-26048415D01*
X106764745Y-25904706D01*
X106759847Y-25892882D01*
X106745507Y-25858260D01*
X106709276Y-25770790D01*
X106659347Y-25705721D01*
X106621036Y-25655793D01*
X106555165Y-25605249D01*
X106506040Y-25567554D01*
X106455172Y-25546484D01*
X106372124Y-25512084D01*
X106228415Y-25493165D01*
X106084705Y-25512084D01*
X105950790Y-25567554D01*
X105835793Y-25655793D01*
X105747554Y-25770790D01*
X105692084Y-25904705D01*
X105673165Y-26048414D01*
X105692084Y-26192124D01*
X105747553Y-26326039D01*
X105804631Y-26400424D01*
X105825055Y-26458099D01*
X105807677Y-26516765D01*
X105804631Y-26520958D01*
X105719139Y-26632374D01*
X105663669Y-26766290D01*
X105644750Y-26909999D01*
X94352708Y-26909999D01*
X94373562Y-26901361D01*
X94488558Y-26813121D01*
X94576798Y-26698125D01*
X94632267Y-26564209D01*
X94651187Y-26420500D01*
X94632267Y-26276791D01*
X94626848Y-26263709D01*
X94597197Y-26192124D01*
X94576798Y-26142875D01*
X94504316Y-26048415D01*
X94488558Y-26027878D01*
X94421326Y-25976290D01*
X94373562Y-25939639D01*
X94334338Y-25923392D01*
X94239646Y-25884169D01*
X94095937Y-25865250D01*
X93952227Y-25884169D01*
X93818312Y-25939639D01*
X93703315Y-26027878D01*
X93615076Y-26142875D01*
X93559606Y-26276790D01*
X93540687Y-26420500D01*
X89103383Y-26420500D01*
X89100932Y-26417306D01*
X89062621Y-26367378D01*
X88997552Y-26317450D01*
X88947625Y-26279139D01*
X88908401Y-26262892D01*
X88813709Y-26223669D01*
X88686717Y-26206951D01*
X88670000Y-26204750D01*
X88669999Y-26204750D01*
X88526290Y-26223669D01*
X88392375Y-26279139D01*
X88277378Y-26367378D01*
X88189139Y-26482375D01*
X88133669Y-26616290D01*
X88114750Y-26759999D01*
X85619980Y-26759999D01*
X85690861Y-26667625D01*
X85746330Y-26533709D01*
X85765250Y-26390000D01*
X85746330Y-26246291D01*
X85690861Y-26112375D01*
X85626024Y-26027878D01*
X85602621Y-25997378D01*
X85527373Y-25939639D01*
X85487625Y-25909139D01*
X85427344Y-25884170D01*
X85353709Y-25853669D01*
X85226717Y-25836951D01*
X85210000Y-25834750D01*
X85209999Y-25834750D01*
X85066290Y-25853669D01*
X84932375Y-25909139D01*
X84817378Y-25997378D01*
X84729139Y-26112375D01*
X84673669Y-26246290D01*
X84654750Y-26390000D01*
X84300500Y-26390000D01*
X84300500Y-25239500D01*
X91464750Y-25239500D01*
X91483669Y-25383209D01*
X91493317Y-25406500D01*
X91539139Y-25517125D01*
X91561667Y-25546484D01*
X91627378Y-25632121D01*
X91658230Y-25655794D01*
X91742375Y-25720361D01*
X91837067Y-25759583D01*
X91876290Y-25775830D01*
X91893008Y-25778031D01*
X92020000Y-25794750D01*
X92163709Y-25775830D01*
X92297625Y-25720361D01*
X92412621Y-25632121D01*
X92500861Y-25517125D01*
X92528665Y-25449999D01*
X96414750Y-25449999D01*
X96433669Y-25593709D01*
X96459386Y-25655794D01*
X96489139Y-25727625D01*
X96504485Y-25747624D01*
X96577378Y-25842621D01*
X96627306Y-25880932D01*
X96692375Y-25930861D01*
X96787067Y-25970083D01*
X96826290Y-25986330D01*
X96845209Y-25988820D01*
X96970000Y-26005250D01*
X97113709Y-25986330D01*
X97247625Y-25930861D01*
X97362621Y-25842621D01*
X97450861Y-25727625D01*
X97500702Y-25607294D01*
X97540439Y-25560768D01*
X97599934Y-25546484D01*
X97630046Y-25553713D01*
X97708791Y-25586330D01*
X97852500Y-25605250D01*
X97996209Y-25586330D01*
X98130125Y-25530861D01*
X98209440Y-25470000D01*
X101194750Y-25470000D01*
X101213669Y-25613709D01*
X101252892Y-25708401D01*
X101269139Y-25747625D01*
X101307450Y-25797552D01*
X101357378Y-25862621D01*
X101407306Y-25900932D01*
X101472375Y-25950861D01*
X101558006Y-25986330D01*
X101606290Y-26006330D01*
X101623008Y-26008531D01*
X101750000Y-26025250D01*
X101893709Y-26006330D01*
X102027625Y-25950861D01*
X102142621Y-25862621D01*
X102230861Y-25747625D01*
X102286330Y-25613709D01*
X102305250Y-25470000D01*
X102286506Y-25327625D01*
X102286330Y-25326290D01*
X102270083Y-25287067D01*
X102230861Y-25192375D01*
X102180932Y-25127306D01*
X102142621Y-25077378D01*
X102056301Y-25011143D01*
X102027625Y-24989139D01*
X101979340Y-24969139D01*
X101893709Y-24933669D01*
X101766717Y-24916951D01*
X101750000Y-24914750D01*
X101749999Y-24914750D01*
X101606290Y-24933669D01*
X101472375Y-24989139D01*
X101357378Y-25077378D01*
X101269139Y-25192375D01*
X101213669Y-25326290D01*
X101194750Y-25470000D01*
X98209440Y-25470000D01*
X98245121Y-25442621D01*
X98333361Y-25327625D01*
X98388830Y-25193709D01*
X98407750Y-25050000D01*
X98389944Y-24914750D01*
X98388830Y-24906290D01*
X98364221Y-24846879D01*
X98333361Y-24772375D01*
X98265740Y-24684250D01*
X98245121Y-24657378D01*
X98180052Y-24607450D01*
X98130125Y-24569139D01*
X98090901Y-24552892D01*
X98035635Y-24530000D01*
X119708672Y-24530000D01*
X119727931Y-24713238D01*
X119784867Y-24888468D01*
X119876991Y-25048032D01*
X120000276Y-25184954D01*
X120149336Y-25293252D01*
X120317655Y-25368193D01*
X120497876Y-25406500D01*
X120497878Y-25406500D01*
X120682122Y-25406500D01*
X120682124Y-25406500D01*
X120862345Y-25368193D01*
X121030664Y-25293252D01*
X121179724Y-25184954D01*
X121303009Y-25048032D01*
X121395133Y-24888468D01*
X121452069Y-24713238D01*
X121471328Y-24530000D01*
X121452069Y-24346762D01*
X121395133Y-24171532D01*
X121303009Y-24011968D01*
X121179724Y-23875046D01*
X121167672Y-23866290D01*
X121123618Y-23834283D01*
X121030664Y-23766748D01*
X121030662Y-23766747D01*
X120862346Y-23691807D01*
X120784445Y-23675249D01*
X120682124Y-23653500D01*
X120497876Y-23653500D01*
X120407765Y-23672653D01*
X120317653Y-23691807D01*
X120149337Y-23766747D01*
X120000276Y-23875045D01*
X119876991Y-24011968D01*
X119784867Y-24171531D01*
X119757909Y-24254500D01*
X119727931Y-24346762D01*
X119708672Y-24530000D01*
X98035635Y-24530000D01*
X97996209Y-24513669D01*
X97852500Y-24494750D01*
X97708790Y-24513669D01*
X97574875Y-24569139D01*
X97459878Y-24657378D01*
X97371639Y-24772374D01*
X97321796Y-24892706D01*
X97282059Y-24939232D01*
X97222564Y-24953515D01*
X97192449Y-24946284D01*
X97154286Y-24930477D01*
X97113708Y-24913669D01*
X96970000Y-24894750D01*
X96826290Y-24913669D01*
X96692375Y-24969139D01*
X96577378Y-25057378D01*
X96489139Y-25172375D01*
X96433669Y-25306290D01*
X96414750Y-25449999D01*
X92528665Y-25449999D01*
X92556330Y-25383209D01*
X92575250Y-25239500D01*
X92556330Y-25095791D01*
X92500861Y-24961875D01*
X92449354Y-24894750D01*
X92412621Y-24846878D01*
X92331365Y-24784529D01*
X92297625Y-24758639D01*
X92258401Y-24742392D01*
X92163709Y-24703169D01*
X92036717Y-24686451D01*
X92020000Y-24684250D01*
X92019999Y-24684250D01*
X91876290Y-24703169D01*
X91742375Y-24758639D01*
X91627378Y-24846878D01*
X91539139Y-24961875D01*
X91483669Y-25095790D01*
X91464750Y-25239500D01*
X84300500Y-25239500D01*
X84300500Y-23100000D01*
X88964750Y-23100000D01*
X88983669Y-23243709D01*
X89022892Y-23338401D01*
X89039139Y-23377625D01*
X89065051Y-23411394D01*
X89127378Y-23492621D01*
X89242373Y-23580860D01*
X89242374Y-23580860D01*
X89242375Y-23580861D01*
X89287073Y-23599375D01*
X89333598Y-23639112D01*
X89347882Y-23698606D01*
X89340651Y-23728724D01*
X89283669Y-23866289D01*
X89264750Y-24009999D01*
X89283669Y-24153709D01*
X89322034Y-24246330D01*
X89339139Y-24287625D01*
X89372165Y-24330665D01*
X89427378Y-24402621D01*
X89477306Y-24440932D01*
X89542375Y-24490861D01*
X89636866Y-24530000D01*
X89676290Y-24546330D01*
X89695209Y-24548820D01*
X89820000Y-24565250D01*
X89963709Y-24546330D01*
X90097625Y-24490861D01*
X90212621Y-24402621D01*
X90300861Y-24287625D01*
X90356330Y-24153709D01*
X90375250Y-24010000D01*
X90356330Y-23866291D01*
X90356329Y-23866289D01*
X90328014Y-23797930D01*
X90300861Y-23732375D01*
X90230516Y-23640700D01*
X90212621Y-23617378D01*
X90097625Y-23529139D01*
X90074904Y-23519728D01*
X90052926Y-23510624D01*
X90006401Y-23470889D01*
X89992117Y-23411394D01*
X89999348Y-23381275D01*
X90000858Y-23377628D01*
X90000861Y-23377625D01*
X90053536Y-23250453D01*
X90093273Y-23203929D01*
X90152768Y-23189645D01*
X90209295Y-23213060D01*
X90236464Y-23250455D01*
X90251690Y-23287214D01*
X90289139Y-23377625D01*
X90315051Y-23411394D01*
X90377378Y-23492621D01*
X90403443Y-23512621D01*
X90492375Y-23580861D01*
X90580536Y-23617378D01*
X90626290Y-23636330D01*
X90643877Y-23638645D01*
X90743066Y-23651704D01*
X90798290Y-23678044D01*
X90827485Y-23731814D01*
X90828296Y-23736934D01*
X90843669Y-23853709D01*
X90878555Y-23937931D01*
X90899139Y-23987625D01*
X90919218Y-24013792D01*
X90987378Y-24102621D01*
X91001942Y-24113796D01*
X91102375Y-24190861D01*
X91197067Y-24230083D01*
X91236290Y-24246330D01*
X91253008Y-24248531D01*
X91380000Y-24265250D01*
X91523709Y-24246330D01*
X91657625Y-24190861D01*
X91772621Y-24102621D01*
X91860861Y-23987625D01*
X91903763Y-23884046D01*
X91916330Y-23853710D01*
X91924727Y-23789928D01*
X91951068Y-23734703D01*
X92004839Y-23705508D01*
X92035800Y-23704697D01*
X92040000Y-23705250D01*
X92183709Y-23686330D01*
X92317625Y-23630861D01*
X92432621Y-23542621D01*
X92520861Y-23427625D01*
X92559748Y-23333740D01*
X92599485Y-23287214D01*
X92658980Y-23272930D01*
X92715508Y-23296345D01*
X92742677Y-23333739D01*
X92769139Y-23397625D01*
X92857378Y-23512621D01*
X92907306Y-23550932D01*
X92972375Y-23600861D01*
X93067067Y-23640083D01*
X93106290Y-23656330D01*
X93120145Y-23658154D01*
X93250000Y-23675250D01*
X93393709Y-23656330D01*
X93527625Y-23600861D01*
X93642621Y-23512621D01*
X93675325Y-23470000D01*
X95430000Y-23470000D01*
X95430000Y-23514582D01*
X95430269Y-23519728D01*
X95444818Y-23658154D01*
X95503279Y-23838075D01*
X95597875Y-24001922D01*
X95724466Y-24142514D01*
X95877518Y-24253715D01*
X96050353Y-24330665D01*
X96079999Y-24336966D01*
X96080000Y-24336965D01*
X96080000Y-23470000D01*
X95430000Y-23470000D01*
X93675325Y-23470000D01*
X93730861Y-23397625D01*
X93786330Y-23263709D01*
X93792085Y-23220000D01*
X96075102Y-23220000D01*
X96094505Y-23317545D01*
X96149760Y-23400240D01*
X96232455Y-23455495D01*
X96305376Y-23470000D01*
X96354624Y-23470000D01*
X96427545Y-23455495D01*
X96510240Y-23400240D01*
X96565495Y-23317545D01*
X96580000Y-23244623D01*
X96580000Y-24336966D01*
X96609646Y-24330665D01*
X96782476Y-24253716D01*
X96935533Y-24142514D01*
X97023889Y-24044385D01*
X97076877Y-24013792D01*
X97137728Y-24020188D01*
X97163111Y-24036526D01*
X97179148Y-24050734D01*
X97329775Y-24129790D01*
X97381399Y-24142514D01*
X97494943Y-24170500D01*
X97494944Y-24170500D01*
X97665057Y-24170500D01*
X97720112Y-24156929D01*
X97830225Y-24129790D01*
X97980852Y-24050734D01*
X97980851Y-24050734D01*
X97980854Y-24050733D01*
X98086141Y-23957456D01*
X98108183Y-23937929D01*
X98123525Y-23915702D01*
X98172141Y-23878553D01*
X98233308Y-23877075D01*
X98283663Y-23911832D01*
X98286463Y-23915686D01*
X98301817Y-23937929D01*
X98301818Y-23937930D01*
X98301819Y-23937931D01*
X98429145Y-24050733D01*
X98507864Y-24092048D01*
X98579775Y-24129790D01*
X98631399Y-24142514D01*
X98744943Y-24170500D01*
X98744944Y-24170500D01*
X98915057Y-24170500D01*
X98970112Y-24156929D01*
X99080225Y-24129790D01*
X99230852Y-24050734D01*
X99230851Y-24050734D01*
X99230854Y-24050733D01*
X99336142Y-23957456D01*
X99392236Y-23933020D01*
X99451980Y-23946223D01*
X99481042Y-23972228D01*
X99522454Y-24027546D01*
X99637669Y-24113796D01*
X99772517Y-24164091D01*
X99832127Y-24170500D01*
X100327872Y-24170499D01*
X100387483Y-24164091D01*
X100522331Y-24113796D01*
X100637546Y-24027546D01*
X100723796Y-23912331D01*
X100774091Y-23777483D01*
X100780500Y-23717873D01*
X100780499Y-22722128D01*
X100774091Y-22662517D01*
X100723796Y-22527669D01*
X100637546Y-22412454D01*
X100551295Y-22347886D01*
X100522330Y-22326203D01*
X100426366Y-22290411D01*
X100387483Y-22275909D01*
X100343334Y-22271162D01*
X100330498Y-22269782D01*
X100330493Y-22269781D01*
X100327873Y-22269500D01*
X100325227Y-22269500D01*
X99834775Y-22269500D01*
X99834756Y-22269500D01*
X99832128Y-22269501D01*
X99829513Y-22269782D01*
X99829496Y-22269783D01*
X99772515Y-22275909D01*
X99637669Y-22326203D01*
X99544897Y-22395653D01*
X99522454Y-22412454D01*
X99510885Y-22427909D01*
X99481044Y-22467771D01*
X99431035Y-22503023D01*
X99369856Y-22502149D01*
X99336142Y-22482544D01*
X99230851Y-22389265D01*
X99080223Y-22310209D01*
X98915057Y-22269500D01*
X98915056Y-22269500D01*
X98744944Y-22269500D01*
X98744943Y-22269500D01*
X98579776Y-22310209D01*
X98429145Y-22389266D01*
X98301817Y-22502069D01*
X98286475Y-22524297D01*
X98237858Y-22561446D01*
X98176690Y-22562924D01*
X98126336Y-22528166D01*
X98123525Y-22524297D01*
X98108182Y-22502069D01*
X97980854Y-22389266D01*
X97830223Y-22310209D01*
X97665057Y-22269500D01*
X97665056Y-22269500D01*
X97494944Y-22269500D01*
X97494943Y-22269500D01*
X97329776Y-22310209D01*
X97179148Y-22389265D01*
X97163109Y-22403475D01*
X97107014Y-22427909D01*
X97047270Y-22414705D01*
X97023890Y-22395615D01*
X96935533Y-22297485D01*
X96782481Y-22186284D01*
X96609646Y-22109334D01*
X96580000Y-22103032D01*
X96580000Y-23195376D01*
X96565495Y-23122455D01*
X96510240Y-23039760D01*
X96427545Y-22984505D01*
X96354624Y-22970000D01*
X96305376Y-22970000D01*
X96232455Y-22984505D01*
X96149760Y-23039760D01*
X96094505Y-23122455D01*
X96075102Y-23220000D01*
X93792085Y-23220000D01*
X93805250Y-23120000D01*
X93786330Y-22976291D01*
X93783724Y-22970000D01*
X93752575Y-22894798D01*
X93730861Y-22842375D01*
X93665640Y-22757378D01*
X93642621Y-22727378D01*
X93577552Y-22677450D01*
X93527625Y-22639139D01*
X93479340Y-22619139D01*
X93393709Y-22583669D01*
X93266717Y-22566951D01*
X93250000Y-22564750D01*
X93249999Y-22564750D01*
X93106290Y-22583669D01*
X92972375Y-22639139D01*
X92857378Y-22727378D01*
X92769139Y-22842374D01*
X92730250Y-22936260D01*
X92690513Y-22982786D01*
X92631018Y-22997069D01*
X92574490Y-22973654D01*
X92547322Y-22936259D01*
X92543747Y-22927628D01*
X92520861Y-22872375D01*
X92497840Y-22842374D01*
X92432621Y-22757378D01*
X92367459Y-22707378D01*
X92317625Y-22669139D01*
X92278401Y-22652892D01*
X92183709Y-22613669D01*
X92040000Y-22594750D01*
X91896290Y-22613669D01*
X91762375Y-22669139D01*
X91647378Y-22757378D01*
X91559139Y-22872374D01*
X91500310Y-23014400D01*
X91460573Y-23060926D01*
X91401078Y-23075209D01*
X91344550Y-23051794D01*
X91312581Y-22999625D01*
X91310693Y-22989434D01*
X91310044Y-22984505D01*
X91306330Y-22956291D01*
X91302461Y-22946951D01*
X91280859Y-22894798D01*
X91250861Y-22822375D01*
X91177967Y-22727378D01*
X91162621Y-22707378D01*
X91073689Y-22639139D01*
X91047625Y-22619139D01*
X90988744Y-22594750D01*
X90913709Y-22563669D01*
X90786717Y-22546951D01*
X90770000Y-22544750D01*
X90769999Y-22544750D01*
X90626290Y-22563669D01*
X90492375Y-22619139D01*
X90377378Y-22707378D01*
X90289139Y-22822374D01*
X90236464Y-22949545D01*
X90196727Y-22996070D01*
X90137233Y-23010354D01*
X90080705Y-22986939D01*
X90053536Y-22949545D01*
X90009145Y-22842375D01*
X90000861Y-22822375D01*
X89927967Y-22727378D01*
X89912621Y-22707378D01*
X89823689Y-22639139D01*
X89797625Y-22619139D01*
X89738744Y-22594750D01*
X89663709Y-22563669D01*
X89520000Y-22544750D01*
X89376290Y-22563669D01*
X89242375Y-22619139D01*
X89127378Y-22707378D01*
X89039139Y-22822375D01*
X88983669Y-22956290D01*
X88964750Y-23100000D01*
X84300500Y-23100000D01*
X84300500Y-21535272D01*
X84300578Y-21532500D01*
X84844700Y-21532500D01*
X84863866Y-21763805D01*
X84900670Y-21909139D01*
X84920844Y-21988804D01*
X85014073Y-22201343D01*
X85014076Y-22201349D01*
X85141021Y-22395653D01*
X85298216Y-22566413D01*
X85481374Y-22708970D01*
X85685497Y-22819436D01*
X85905019Y-22894798D01*
X86133951Y-22933000D01*
X86133953Y-22933000D01*
X86366047Y-22933000D01*
X86366049Y-22933000D01*
X86594981Y-22894798D01*
X86814503Y-22819436D01*
X87018626Y-22708970D01*
X87201784Y-22566413D01*
X87358979Y-22395653D01*
X87362672Y-22390000D01*
X94804750Y-22390000D01*
X94823669Y-22533709D01*
X94856790Y-22613669D01*
X94879139Y-22667625D01*
X94910864Y-22708969D01*
X94967378Y-22782621D01*
X95015357Y-22819436D01*
X95082375Y-22870861D01*
X95177067Y-22910083D01*
X95216290Y-22926330D01*
X95266954Y-22933000D01*
X95360000Y-22945250D01*
X95360000Y-22945249D01*
X95372922Y-22946951D01*
X95372489Y-22950233D01*
X95411742Y-22957508D01*
X95428472Y-22970000D01*
X96079999Y-22970000D01*
X96080000Y-22969999D01*
X96080000Y-22103033D01*
X96079999Y-22103032D01*
X96050351Y-22109334D01*
X95963764Y-22147885D01*
X95902914Y-22154280D01*
X95849926Y-22123687D01*
X95844956Y-22117711D01*
X95752621Y-21997378D01*
X95687552Y-21947450D01*
X95637625Y-21909139D01*
X95598401Y-21892892D01*
X95503709Y-21853669D01*
X95360000Y-21834750D01*
X95216290Y-21853669D01*
X95082375Y-21909139D01*
X94967378Y-21997378D01*
X94879139Y-22112375D01*
X94823669Y-22246290D01*
X94804750Y-22390000D01*
X87362672Y-22390000D01*
X87485924Y-22201349D01*
X87579157Y-21988800D01*
X87636134Y-21763805D01*
X87655300Y-21532500D01*
X87650950Y-21480000D01*
X117274750Y-21480000D01*
X117293669Y-21623709D01*
X117329580Y-21710405D01*
X117349139Y-21757625D01*
X117387450Y-21807552D01*
X117437378Y-21872621D01*
X117446200Y-21879390D01*
X117552375Y-21960861D01*
X117640536Y-21997378D01*
X117686290Y-22016330D01*
X117703008Y-22018531D01*
X117830000Y-22035250D01*
X117973709Y-22016330D01*
X118107625Y-21960861D01*
X118222621Y-21872621D01*
X118310861Y-21757625D01*
X118366330Y-21623709D01*
X118378338Y-21532500D01*
X119344700Y-21532500D01*
X119363866Y-21763805D01*
X119400670Y-21909139D01*
X119420844Y-21988804D01*
X119514073Y-22201343D01*
X119514076Y-22201349D01*
X119641021Y-22395653D01*
X119798216Y-22566413D01*
X119981374Y-22708970D01*
X120185497Y-22819436D01*
X120405019Y-22894798D01*
X120633951Y-22933000D01*
X120633953Y-22933000D01*
X120866047Y-22933000D01*
X120866049Y-22933000D01*
X121094981Y-22894798D01*
X121314503Y-22819436D01*
X121518626Y-22708970D01*
X121701784Y-22566413D01*
X121858979Y-22395653D01*
X121985924Y-22201349D01*
X122079157Y-21988800D01*
X122136134Y-21763805D01*
X122155300Y-21532500D01*
X122136134Y-21301195D01*
X122079157Y-21076200D01*
X121985924Y-20863651D01*
X121858979Y-20669347D01*
X121701784Y-20498587D01*
X121518626Y-20356030D01*
X121314503Y-20245564D01*
X121314502Y-20245563D01*
X121314501Y-20245563D01*
X121094981Y-20170202D01*
X120866049Y-20132000D01*
X120633951Y-20132000D01*
X120481329Y-20157468D01*
X120405018Y-20170202D01*
X120185498Y-20245563D01*
X119981373Y-20356030D01*
X119798217Y-20498586D01*
X119641021Y-20669346D01*
X119514073Y-20863656D01*
X119420844Y-21076195D01*
X119363866Y-21301196D01*
X119349355Y-21476327D01*
X119344700Y-21532500D01*
X118378338Y-21532500D01*
X118385250Y-21480000D01*
X118366330Y-21336291D01*
X118310861Y-21202375D01*
X118260932Y-21137306D01*
X118222621Y-21087378D01*
X118157552Y-21037450D01*
X118107625Y-20999139D01*
X118068401Y-20982892D01*
X117973709Y-20943669D01*
X117843034Y-20926466D01*
X117830000Y-20924750D01*
X117829999Y-20924750D01*
X117686290Y-20943669D01*
X117552375Y-20999139D01*
X117437378Y-21087378D01*
X117349139Y-21202375D01*
X117293669Y-21336290D01*
X117274750Y-21480000D01*
X87650950Y-21480000D01*
X87636134Y-21301195D01*
X87579157Y-21076200D01*
X87485924Y-20863651D01*
X87358979Y-20669347D01*
X87201784Y-20498587D01*
X87018626Y-20356030D01*
X86814503Y-20245564D01*
X86814502Y-20245563D01*
X86814501Y-20245563D01*
X86594981Y-20170202D01*
X86594980Y-20170201D01*
X86366049Y-20132000D01*
X86133951Y-20132000D01*
X85981329Y-20157468D01*
X85905018Y-20170202D01*
X85685498Y-20245563D01*
X85481373Y-20356030D01*
X85298217Y-20498586D01*
X85141021Y-20669346D01*
X85014073Y-20863656D01*
X84920844Y-21076195D01*
X84863866Y-21301196D01*
X84849355Y-21476327D01*
X84844700Y-21532500D01*
X84300578Y-21532500D01*
X84300656Y-21529721D01*
X84317162Y-21235802D01*
X84318405Y-21224770D01*
X84322210Y-21202375D01*
X84367253Y-20937271D01*
X84369714Y-20926485D01*
X84450451Y-20646242D01*
X84454111Y-20635783D01*
X84565711Y-20366358D01*
X84570525Y-20356363D01*
X84575101Y-20348084D01*
X84711583Y-20101136D01*
X84717479Y-20091753D01*
X84886230Y-19853921D01*
X84893149Y-19845245D01*
X85087475Y-19627793D01*
X85095293Y-19619975D01*
X85312748Y-19425646D01*
X85321424Y-19418728D01*
X85559253Y-19249979D01*
X85568636Y-19244083D01*
X85823869Y-19103022D01*
X85833858Y-19098211D01*
X86103283Y-18986611D01*
X86113742Y-18982951D01*
X86393985Y-18902214D01*
X86404771Y-18899753D01*
X86692277Y-18850904D01*
X86703296Y-18849662D01*
X86997222Y-18833155D01*
X87002773Y-18833000D01*
X87047595Y-18833000D01*
X119952405Y-18833000D01*
X119997227Y-18833000D01*
X120002777Y-18833155D01*
G37*
%TD.AperFunction*%
%TD*%
M02*
