%TF.GenerationSoftware,KiCad,Pcbnew,7.0.2-0*%
%TF.CreationDate,2023-10-23T21:08:08-05:00*%
%TF.ProjectId,Flight Computer,466c6967-6874-4204-936f-6d7075746572,1.1*%
%TF.SameCoordinates,Original*%
%TF.FileFunction,Soldermask,Bot*%
%TF.FilePolarity,Negative*%
%FSLAX46Y46*%
G04 Gerber Fmt 4.6, Leading zero omitted, Abs format (unit mm)*
G04 Created by KiCad (PCBNEW 7.0.2-0) date 2023-10-23 21:08:08*
%MOMM*%
%LPD*%
G01*
G04 APERTURE LIST*
G04 Aperture macros list*
%AMRoundRect*
0 Rectangle with rounded corners*
0 $1 Rounding radius*
0 $2 $3 $4 $5 $6 $7 $8 $9 X,Y pos of 4 corners*
0 Add a 4 corners polygon primitive as box body*
4,1,4,$2,$3,$4,$5,$6,$7,$8,$9,$2,$3,0*
0 Add four circle primitives for the rounded corners*
1,1,$1+$1,$2,$3*
1,1,$1+$1,$4,$5*
1,1,$1+$1,$6,$7*
1,1,$1+$1,$8,$9*
0 Add four rect primitives between the rounded corners*
20,1,$1+$1,$2,$3,$4,$5,0*
20,1,$1+$1,$4,$5,$6,$7,0*
20,1,$1+$1,$6,$7,$8,$9,0*
20,1,$1+$1,$8,$9,$2,$3,0*%
G04 Aperture macros list end*
%ADD10RoundRect,0.200000X0.450000X-0.200000X0.450000X0.200000X-0.450000X0.200000X-0.450000X-0.200000X0*%
%ADD11O,1.300000X0.800000*%
%ADD12C,0.650000*%
%ADD13O,2.100000X1.000000*%
%ADD14O,1.800000X1.000000*%
%ADD15RoundRect,0.200000X0.200000X0.450000X-0.200000X0.450000X-0.200000X-0.450000X0.200000X-0.450000X0*%
%ADD16O,0.800000X1.300000*%
%ADD17C,0.600000*%
%ADD18RoundRect,0.200000X-0.450000X0.200000X-0.450000X-0.200000X0.450000X-0.200000X0.450000X0.200000X0*%
%ADD19C,1.500000*%
%ADD20RoundRect,0.250000X-0.625000X0.350000X-0.625000X-0.350000X0.625000X-0.350000X0.625000X0.350000X0*%
%ADD21O,1.750000X1.200000*%
%ADD22C,2.000000*%
%ADD23R,3.000000X1.500000*%
%ADD24R,1.500000X3.000000*%
%ADD25R,2.000000X2.000000*%
G04 APERTURE END LIST*
D10*
%TO.C,J8*%
X118270000Y-54690000D03*
D11*
X118270000Y-53440000D03*
X118270000Y-52190000D03*
X118270000Y-50940000D03*
%TD*%
D12*
%TO.C,J7*%
X117160000Y-45212500D03*
X117160000Y-39432500D03*
D13*
X116640000Y-46642500D03*
D14*
X120840000Y-46642500D03*
D13*
X116640000Y-38002500D03*
D14*
X120840000Y-38002500D03*
%TD*%
D15*
%TO.C,J6*%
X100080000Y-23220000D03*
D16*
X98830000Y-23220000D03*
X97580000Y-23220000D03*
X96330000Y-23220000D03*
%TD*%
D10*
%TO.C,J9*%
X118300000Y-30857500D03*
D11*
X118300000Y-29607500D03*
X118300000Y-28357500D03*
X118300000Y-27107500D03*
%TD*%
D17*
%TO.C,U8*%
X112300000Y-65057500D03*
X110800000Y-65057500D03*
X111550000Y-65557500D03*
X112300000Y-66057500D03*
X110800000Y-66057500D03*
%TD*%
D18*
%TO.C,J5*%
X88760000Y-32840000D03*
D11*
X88760000Y-34090000D03*
X88760000Y-35340000D03*
X88760000Y-36590000D03*
X88760000Y-37840000D03*
%TD*%
D19*
%TO.C,TP10*%
X92350000Y-44020000D03*
%TD*%
%TO.C,TP15*%
X91600000Y-55210000D03*
%TD*%
D20*
%TO.C,J4*%
X115140000Y-59430000D03*
D21*
X115140000Y-61430000D03*
%TD*%
D19*
%TO.C,TP5*%
X97600000Y-28020000D03*
%TD*%
%TO.C,TP4*%
X96750000Y-30420000D03*
%TD*%
%TO.C,TP1*%
X112610000Y-55690000D03*
%TD*%
%TO.C,TP11*%
X92350000Y-46970000D03*
%TD*%
%TO.C,TP6*%
X87600000Y-25450000D03*
%TD*%
%TO.C,TP7*%
X99900000Y-25920000D03*
%TD*%
D22*
%TO.C,J2*%
X95200000Y-95920000D03*
X100200000Y-95920000D03*
X95200000Y-92420000D03*
X100200000Y-92420000D03*
X95200000Y-88920000D03*
X100200000Y-88920000D03*
X95200000Y-85420000D03*
X100200000Y-85420000D03*
X95200000Y-81920000D03*
X100200000Y-81920000D03*
X95200000Y-78420000D03*
X100200000Y-78420000D03*
X95200000Y-74920000D03*
X100200000Y-74920000D03*
X95200000Y-71420000D03*
X100200000Y-71420000D03*
%TD*%
D23*
%TO.C,U11*%
X111000000Y-41432500D03*
X111000000Y-43332500D03*
X111000000Y-45232500D03*
X111000000Y-47132500D03*
X111000000Y-49032500D03*
D24*
X107600000Y-52432500D03*
X105700000Y-52432500D03*
X103800000Y-52432500D03*
X101900000Y-52432500D03*
X100000000Y-52432500D03*
D23*
X96600000Y-49032500D03*
X96600000Y-47132500D03*
X96600000Y-45232500D03*
X96600000Y-43332500D03*
X96600000Y-41432500D03*
D24*
X100000000Y-38032500D03*
X101900000Y-38032500D03*
X103800000Y-38032500D03*
X105700000Y-38032500D03*
X107600000Y-38032500D03*
%TD*%
D19*
%TO.C,TP9*%
X90700000Y-26820000D03*
%TD*%
D25*
%TO.C,BZ1*%
X103500000Y-64590000D03*
D22*
X103500000Y-59590000D03*
%TD*%
D19*
%TO.C,TP3*%
X98150000Y-34770000D03*
%TD*%
%TO.C,TP2*%
X88640000Y-55640000D03*
%TD*%
%TO.C,TP13*%
X106050000Y-33020000D03*
%TD*%
%TO.C,TP14*%
X102200000Y-32270000D03*
%TD*%
D22*
%TO.C,J1*%
X111790000Y-71420000D03*
X106790000Y-71420000D03*
X111790000Y-74920000D03*
X106790000Y-74920000D03*
X111790000Y-78420000D03*
X106790000Y-78420000D03*
X111790000Y-81920000D03*
X106790000Y-81920000D03*
X111790000Y-85420000D03*
X106790000Y-85420000D03*
X111790000Y-88920000D03*
X106790000Y-88920000D03*
X111790000Y-92420000D03*
X106790000Y-92420000D03*
X111790000Y-95920000D03*
X106790000Y-95920000D03*
%TD*%
D19*
%TO.C,TP8*%
X89320000Y-29050000D03*
%TD*%
%TO.C,TP12*%
X115220000Y-54010000D03*
%TD*%
M02*
