%TF.GenerationSoftware,KiCad,Pcbnew,7.0.2-0*%
%TF.CreationDate,2023-10-23T21:08:08-05:00*%
%TF.ProjectId,Flight Computer,466c6967-6874-4204-936f-6d7075746572,1.1*%
%TF.SameCoordinates,Original*%
%TF.FileFunction,Legend,Top*%
%TF.FilePolarity,Positive*%
%FSLAX46Y46*%
G04 Gerber Fmt 4.6, Leading zero omitted, Abs format (unit mm)*
G04 Created by KiCad (PCBNEW 7.0.2-0) date 2023-10-23 21:08:08*
%MOMM*%
%LPD*%
G01*
G04 APERTURE LIST*
G04 Aperture macros list*
%AMRoundRect*
0 Rectangle with rounded corners*
0 $1 Rounding radius*
0 $2 $3 $4 $5 $6 $7 $8 $9 X,Y pos of 4 corners*
0 Add a 4 corners polygon primitive as box body*
4,1,4,$2,$3,$4,$5,$6,$7,$8,$9,$2,$3,0*
0 Add four circle primitives for the rounded corners*
1,1,$1+$1,$2,$3*
1,1,$1+$1,$4,$5*
1,1,$1+$1,$6,$7*
1,1,$1+$1,$8,$9*
0 Add four rect primitives between the rounded corners*
20,1,$1+$1,$2,$3,$4,$5,0*
20,1,$1+$1,$4,$5,$6,$7,0*
20,1,$1+$1,$6,$7,$8,$9,0*
20,1,$1+$1,$8,$9,$2,$3,0*%
G04 Aperture macros list end*
%ADD10C,0.150000*%
%ADD11C,0.153000*%
%ADD12C,0.100000*%
%ADD13C,0.120000*%
%ADD14RoundRect,0.012500X0.125000X-0.112500X0.125000X0.112500X-0.125000X0.112500X-0.125000X-0.112500X0*%
%ADD15RoundRect,0.012500X0.112500X-0.125000X0.112500X0.125000X-0.112500X0.125000X-0.112500X-0.125000X0*%
%ADD16RoundRect,0.012500X0.112500X-0.325000X0.112500X0.325000X-0.112500X0.325000X-0.112500X-0.325000X0*%
%ADD17RoundRect,0.012500X0.325000X-0.112500X0.325000X0.112500X-0.325000X0.112500X-0.325000X-0.112500X0*%
%ADD18RoundRect,0.027500X0.545000X0.247500X-0.545000X0.247500X-0.545000X-0.247500X0.545000X-0.247500X0*%
%ADD19RoundRect,0.027500X0.247500X0.545000X-0.247500X0.545000X-0.247500X-0.545000X0.247500X-0.545000X0*%
%ADD20RoundRect,0.150000X-0.587500X-0.150000X0.587500X-0.150000X0.587500X0.150000X-0.587500X0.150000X0*%
%ADD21RoundRect,0.218750X-0.218750X-0.256250X0.218750X-0.256250X0.218750X0.256250X-0.218750X0.256250X0*%
%ADD22RoundRect,0.135000X-0.135000X-0.185000X0.135000X-0.185000X0.135000X0.185000X-0.135000X0.185000X0*%
%ADD23RoundRect,0.200000X-0.275000X0.200000X-0.275000X-0.200000X0.275000X-0.200000X0.275000X0.200000X0*%
%ADD24RoundRect,0.135000X-0.185000X0.135000X-0.185000X-0.135000X0.185000X-0.135000X0.185000X0.135000X0*%
%ADD25RoundRect,0.150000X0.587500X0.150000X-0.587500X0.150000X-0.587500X-0.150000X0.587500X-0.150000X0*%
%ADD26RoundRect,0.218750X0.218750X0.256250X-0.218750X0.256250X-0.218750X-0.256250X0.218750X-0.256250X0*%
%ADD27RoundRect,0.135000X0.185000X-0.135000X0.185000X0.135000X-0.185000X0.135000X-0.185000X-0.135000X0*%
%ADD28RoundRect,0.200000X0.200000X0.275000X-0.200000X0.275000X-0.200000X-0.275000X0.200000X-0.275000X0*%
%ADD29RoundRect,0.140000X0.140000X0.170000X-0.140000X0.170000X-0.140000X-0.170000X0.140000X-0.170000X0*%
%ADD30RoundRect,0.225000X-0.250000X0.225000X-0.250000X-0.225000X0.250000X-0.225000X0.250000X0.225000X0*%
%ADD31RoundRect,0.140000X-0.140000X-0.170000X0.140000X-0.170000X0.140000X0.170000X-0.140000X0.170000X0*%
%ADD32RoundRect,0.218750X-0.381250X0.218750X-0.381250X-0.218750X0.381250X-0.218750X0.381250X0.218750X0*%
%ADD33RoundRect,0.140000X-0.170000X0.140000X-0.170000X-0.140000X0.170000X-0.140000X0.170000X0.140000X0*%
%ADD34RoundRect,0.218750X0.218750X0.381250X-0.218750X0.381250X-0.218750X-0.381250X0.218750X-0.381250X0*%
%ADD35RoundRect,0.200000X0.450000X-0.200000X0.450000X0.200000X-0.450000X0.200000X-0.450000X-0.200000X0*%
%ADD36O,1.300000X0.800000*%
%ADD37RoundRect,0.140000X0.170000X-0.140000X0.170000X0.140000X-0.170000X0.140000X-0.170000X-0.140000X0*%
%ADD38RoundRect,0.135000X0.135000X0.185000X-0.135000X0.185000X-0.135000X-0.185000X0.135000X-0.185000X0*%
%ADD39RoundRect,0.075000X-0.725000X-0.075000X0.725000X-0.075000X0.725000X0.075000X-0.725000X0.075000X0*%
%ADD40RoundRect,0.075000X-0.075000X-0.725000X0.075000X-0.725000X0.075000X0.725000X-0.075000X0.725000X0*%
%ADD41RoundRect,0.225000X0.250000X-0.225000X0.250000X0.225000X-0.250000X0.225000X-0.250000X-0.225000X0*%
%ADD42RoundRect,0.200000X-0.200000X-0.275000X0.200000X-0.275000X0.200000X0.275000X-0.200000X0.275000X0*%
%ADD43C,0.650000*%
%ADD44R,1.240000X0.600000*%
%ADD45R,1.240000X0.300000*%
%ADD46O,2.100000X1.000000*%
%ADD47O,1.800000X1.000000*%
%ADD48RoundRect,0.200000X0.200000X0.450000X-0.200000X0.450000X-0.200000X-0.450000X0.200000X-0.450000X0*%
%ADD49O,0.800000X1.300000*%
%ADD50RoundRect,0.150000X0.512500X0.150000X-0.512500X0.150000X-0.512500X-0.150000X0.512500X-0.150000X0*%
%ADD51R,0.700000X1.750000*%
%ADD52R,1.450000X1.000000*%
%ADD53R,1.000000X1.550000*%
%ADD54R,0.800000X1.500000*%
%ADD55R,1.300000X1.500000*%
%ADD56R,1.500000X1.500000*%
%ADD57R,0.800000X1.400000*%
%ADD58RoundRect,0.200000X0.275000X-0.200000X0.275000X0.200000X-0.275000X0.200000X-0.275000X-0.200000X0*%
%ADD59RoundRect,0.250000X-0.250000X-0.475000X0.250000X-0.475000X0.250000X0.475000X-0.250000X0.475000X0*%
%ADD60R,1.200000X1.400000*%
%ADD61RoundRect,0.250000X-0.475000X0.250000X-0.475000X-0.250000X0.475000X-0.250000X0.475000X0.250000X0*%
%ADD62RoundRect,0.250000X0.475000X-0.250000X0.475000X0.250000X-0.475000X0.250000X-0.475000X-0.250000X0*%
%ADD63R,1.100000X3.700000*%
%ADD64R,3.700000X1.100000*%
%ADD65RoundRect,0.243750X0.456250X-0.243750X0.456250X0.243750X-0.456250X0.243750X-0.456250X-0.243750X0*%
%ADD66RoundRect,0.070000X-0.140000X0.140000X-0.140000X-0.140000X0.140000X-0.140000X0.140000X0.140000X0*%
%ADD67O,0.420000X0.990000*%
%ADD68C,0.600000*%
%ADD69R,1.050000X0.680000*%
%ADD70R,0.500000X0.260000*%
%ADD71R,0.700000X0.280000*%
%ADD72R,2.400000X1.650000*%
%ADD73RoundRect,0.200000X-0.450000X0.200000X-0.450000X-0.200000X0.450000X-0.200000X0.450000X0.200000X0*%
%ADD74RoundRect,0.150000X0.150000X-0.650000X0.150000X0.650000X-0.150000X0.650000X-0.150000X-0.650000X0*%
%ADD75RoundRect,0.225000X0.225000X0.375000X-0.225000X0.375000X-0.225000X-0.375000X0.225000X-0.375000X0*%
%ADD76RoundRect,0.250000X-0.625000X0.350000X-0.625000X-0.350000X0.625000X-0.350000X0.625000X0.350000X0*%
%ADD77O,1.750000X1.200000*%
%ADD78C,2.000000*%
%ADD79R,2.000000X2.000000*%
G04 APERTURE END LIST*
D10*
X90540000Y-26620000D02*
G75*
G03*
X90540000Y-26620000I-50000J0D01*
G01*
X86006056Y-26260000D02*
G75*
G03*
X86006056Y-26260000I-36056J0D01*
G01*
X99930623Y-30960000D02*
G75*
G03*
X99930623Y-30960000I-80623J0D01*
G01*
X91226158Y-38560000D02*
G75*
G03*
X91226158Y-38560000I-76158J0D01*
G01*
X84512111Y-42690000D02*
G75*
G03*
X84512111Y-42690000I-72111J0D01*
G01*
X113722111Y-63180000D02*
G75*
G03*
X113722111Y-63180000I-72111J0D01*
G01*
X114030623Y-43250000D02*
G75*
G03*
X114030623Y-43250000I-80623J0D01*
G01*
D11*
X113729047Y-84420000D02*
X113871904Y-84467619D01*
X113871904Y-84467619D02*
X114109999Y-84467619D01*
X114109999Y-84467619D02*
X114205237Y-84420000D01*
X114205237Y-84420000D02*
X114252856Y-84372380D01*
X114252856Y-84372380D02*
X114300475Y-84277142D01*
X114300475Y-84277142D02*
X114300475Y-84181904D01*
X114300475Y-84181904D02*
X114252856Y-84086666D01*
X114252856Y-84086666D02*
X114205237Y-84039047D01*
X114205237Y-84039047D02*
X114109999Y-83991428D01*
X114109999Y-83991428D02*
X113919523Y-83943809D01*
X113919523Y-83943809D02*
X113824285Y-83896190D01*
X113824285Y-83896190D02*
X113776666Y-83848571D01*
X113776666Y-83848571D02*
X113729047Y-83753333D01*
X113729047Y-83753333D02*
X113729047Y-83658095D01*
X113729047Y-83658095D02*
X113776666Y-83562857D01*
X113776666Y-83562857D02*
X113824285Y-83515238D01*
X113824285Y-83515238D02*
X113919523Y-83467619D01*
X113919523Y-83467619D02*
X114157618Y-83467619D01*
X114157618Y-83467619D02*
X114300475Y-83515238D01*
X114633809Y-83800952D02*
X114871904Y-84467619D01*
X115109999Y-83800952D02*
X114871904Y-84467619D01*
X114871904Y-84467619D02*
X114776666Y-84705714D01*
X114776666Y-84705714D02*
X114729047Y-84753333D01*
X114729047Y-84753333D02*
X114633809Y-84800952D01*
X115443333Y-84420000D02*
X115538571Y-84467619D01*
X115538571Y-84467619D02*
X115729047Y-84467619D01*
X115729047Y-84467619D02*
X115824285Y-84420000D01*
X115824285Y-84420000D02*
X115871904Y-84324761D01*
X115871904Y-84324761D02*
X115871904Y-84277142D01*
X115871904Y-84277142D02*
X115824285Y-84181904D01*
X115824285Y-84181904D02*
X115729047Y-84134285D01*
X115729047Y-84134285D02*
X115586190Y-84134285D01*
X115586190Y-84134285D02*
X115490952Y-84086666D01*
X115490952Y-84086666D02*
X115443333Y-83991428D01*
X115443333Y-83991428D02*
X115443333Y-83943809D01*
X115443333Y-83943809D02*
X115490952Y-83848571D01*
X115490952Y-83848571D02*
X115586190Y-83800952D01*
X115586190Y-83800952D02*
X115729047Y-83800952D01*
X115729047Y-83800952D02*
X115824285Y-83848571D01*
X116157619Y-83800952D02*
X116538571Y-83800952D01*
X116300476Y-83467619D02*
X116300476Y-84324761D01*
X116300476Y-84324761D02*
X116348095Y-84420000D01*
X116348095Y-84420000D02*
X116443333Y-84467619D01*
X116443333Y-84467619D02*
X116538571Y-84467619D01*
X117252857Y-84420000D02*
X117157619Y-84467619D01*
X117157619Y-84467619D02*
X116967143Y-84467619D01*
X116967143Y-84467619D02*
X116871905Y-84420000D01*
X116871905Y-84420000D02*
X116824286Y-84324761D01*
X116824286Y-84324761D02*
X116824286Y-83943809D01*
X116824286Y-83943809D02*
X116871905Y-83848571D01*
X116871905Y-83848571D02*
X116967143Y-83800952D01*
X116967143Y-83800952D02*
X117157619Y-83800952D01*
X117157619Y-83800952D02*
X117252857Y-83848571D01*
X117252857Y-83848571D02*
X117300476Y-83943809D01*
X117300476Y-83943809D02*
X117300476Y-84039047D01*
X117300476Y-84039047D02*
X116824286Y-84134285D01*
X117729048Y-84467619D02*
X117729048Y-83800952D01*
X117729048Y-83896190D02*
X117776667Y-83848571D01*
X117776667Y-83848571D02*
X117871905Y-83800952D01*
X117871905Y-83800952D02*
X118014762Y-83800952D01*
X118014762Y-83800952D02*
X118110000Y-83848571D01*
X118110000Y-83848571D02*
X118157619Y-83943809D01*
X118157619Y-83943809D02*
X118157619Y-84467619D01*
X118157619Y-83943809D02*
X118205238Y-83848571D01*
X118205238Y-83848571D02*
X118300476Y-83800952D01*
X118300476Y-83800952D02*
X118443333Y-83800952D01*
X118443333Y-83800952D02*
X118538572Y-83848571D01*
X118538572Y-83848571D02*
X118586191Y-83943809D01*
X118586191Y-83943809D02*
X118586191Y-84467619D01*
X119681429Y-83800952D02*
X120062381Y-83800952D01*
X119824286Y-84467619D02*
X119824286Y-83610476D01*
X119824286Y-83610476D02*
X119871905Y-83515238D01*
X119871905Y-83515238D02*
X119967143Y-83467619D01*
X119967143Y-83467619D02*
X120062381Y-83467619D01*
X120538572Y-84467619D02*
X120443334Y-84420000D01*
X120443334Y-84420000D02*
X120395715Y-84372380D01*
X120395715Y-84372380D02*
X120348096Y-84277142D01*
X120348096Y-84277142D02*
X120348096Y-83991428D01*
X120348096Y-83991428D02*
X120395715Y-83896190D01*
X120395715Y-83896190D02*
X120443334Y-83848571D01*
X120443334Y-83848571D02*
X120538572Y-83800952D01*
X120538572Y-83800952D02*
X120681429Y-83800952D01*
X120681429Y-83800952D02*
X120776667Y-83848571D01*
X120776667Y-83848571D02*
X120824286Y-83896190D01*
X120824286Y-83896190D02*
X120871905Y-83991428D01*
X120871905Y-83991428D02*
X120871905Y-84277142D01*
X120871905Y-84277142D02*
X120824286Y-84372380D01*
X120824286Y-84372380D02*
X120776667Y-84420000D01*
X120776667Y-84420000D02*
X120681429Y-84467619D01*
X120681429Y-84467619D02*
X120538572Y-84467619D01*
X121300477Y-84467619D02*
X121300477Y-83800952D01*
X121300477Y-83991428D02*
X121348096Y-83896190D01*
X121348096Y-83896190D02*
X121395715Y-83848571D01*
X121395715Y-83848571D02*
X121490953Y-83800952D01*
X121490953Y-83800952D02*
X121586191Y-83800952D01*
X115871904Y-85087619D02*
X116443332Y-85087619D01*
X116157618Y-86087619D02*
X116157618Y-85087619D01*
X116919523Y-86087619D02*
X116824285Y-86040000D01*
X116824285Y-86040000D02*
X116776666Y-85992380D01*
X116776666Y-85992380D02*
X116729047Y-85897142D01*
X116729047Y-85897142D02*
X116729047Y-85611428D01*
X116729047Y-85611428D02*
X116776666Y-85516190D01*
X116776666Y-85516190D02*
X116824285Y-85468571D01*
X116824285Y-85468571D02*
X116919523Y-85420952D01*
X116919523Y-85420952D02*
X117062380Y-85420952D01*
X117062380Y-85420952D02*
X117157618Y-85468571D01*
X117157618Y-85468571D02*
X117205237Y-85516190D01*
X117205237Y-85516190D02*
X117252856Y-85611428D01*
X117252856Y-85611428D02*
X117252856Y-85897142D01*
X117252856Y-85897142D02*
X117205237Y-85992380D01*
X117205237Y-85992380D02*
X117157618Y-86040000D01*
X117157618Y-86040000D02*
X117062380Y-86087619D01*
X117062380Y-86087619D02*
X116919523Y-86087619D01*
X117538571Y-85420952D02*
X117919523Y-85420952D01*
X117681428Y-85087619D02*
X117681428Y-85944761D01*
X117681428Y-85944761D02*
X117729047Y-86040000D01*
X117729047Y-86040000D02*
X117824285Y-86087619D01*
X117824285Y-86087619D02*
X117919523Y-86087619D01*
X118681428Y-86087619D02*
X118681428Y-85563809D01*
X118681428Y-85563809D02*
X118633809Y-85468571D01*
X118633809Y-85468571D02*
X118538571Y-85420952D01*
X118538571Y-85420952D02*
X118348095Y-85420952D01*
X118348095Y-85420952D02*
X118252857Y-85468571D01*
X118681428Y-86040000D02*
X118586190Y-86087619D01*
X118586190Y-86087619D02*
X118348095Y-86087619D01*
X118348095Y-86087619D02*
X118252857Y-86040000D01*
X118252857Y-86040000D02*
X118205238Y-85944761D01*
X118205238Y-85944761D02*
X118205238Y-85849523D01*
X118205238Y-85849523D02*
X118252857Y-85754285D01*
X118252857Y-85754285D02*
X118348095Y-85706666D01*
X118348095Y-85706666D02*
X118586190Y-85706666D01*
X118586190Y-85706666D02*
X118681428Y-85659047D01*
X119300476Y-86087619D02*
X119205238Y-86040000D01*
X119205238Y-86040000D02*
X119157619Y-85944761D01*
X119157619Y-85944761D02*
X119157619Y-85087619D01*
X114538571Y-87707619D02*
X114205238Y-87231428D01*
X113967143Y-87707619D02*
X113967143Y-86707619D01*
X113967143Y-86707619D02*
X114348095Y-86707619D01*
X114348095Y-86707619D02*
X114443333Y-86755238D01*
X114443333Y-86755238D02*
X114490952Y-86802857D01*
X114490952Y-86802857D02*
X114538571Y-86898095D01*
X114538571Y-86898095D02*
X114538571Y-87040952D01*
X114538571Y-87040952D02*
X114490952Y-87136190D01*
X114490952Y-87136190D02*
X114443333Y-87183809D01*
X114443333Y-87183809D02*
X114348095Y-87231428D01*
X114348095Y-87231428D02*
X113967143Y-87231428D01*
X115348095Y-87660000D02*
X115252857Y-87707619D01*
X115252857Y-87707619D02*
X115062381Y-87707619D01*
X115062381Y-87707619D02*
X114967143Y-87660000D01*
X114967143Y-87660000D02*
X114919524Y-87564761D01*
X114919524Y-87564761D02*
X114919524Y-87183809D01*
X114919524Y-87183809D02*
X114967143Y-87088571D01*
X114967143Y-87088571D02*
X115062381Y-87040952D01*
X115062381Y-87040952D02*
X115252857Y-87040952D01*
X115252857Y-87040952D02*
X115348095Y-87088571D01*
X115348095Y-87088571D02*
X115395714Y-87183809D01*
X115395714Y-87183809D02*
X115395714Y-87279047D01*
X115395714Y-87279047D02*
X114919524Y-87374285D01*
X116252857Y-87707619D02*
X116252857Y-87183809D01*
X116252857Y-87183809D02*
X116205238Y-87088571D01*
X116205238Y-87088571D02*
X116110000Y-87040952D01*
X116110000Y-87040952D02*
X115919524Y-87040952D01*
X115919524Y-87040952D02*
X115824286Y-87088571D01*
X116252857Y-87660000D02*
X116157619Y-87707619D01*
X116157619Y-87707619D02*
X115919524Y-87707619D01*
X115919524Y-87707619D02*
X115824286Y-87660000D01*
X115824286Y-87660000D02*
X115776667Y-87564761D01*
X115776667Y-87564761D02*
X115776667Y-87469523D01*
X115776667Y-87469523D02*
X115824286Y-87374285D01*
X115824286Y-87374285D02*
X115919524Y-87326666D01*
X115919524Y-87326666D02*
X116157619Y-87326666D01*
X116157619Y-87326666D02*
X116252857Y-87279047D01*
X116871905Y-87707619D02*
X116776667Y-87660000D01*
X116776667Y-87660000D02*
X116729048Y-87564761D01*
X116729048Y-87564761D02*
X116729048Y-86707619D01*
X117252858Y-87326666D02*
X118014763Y-87326666D01*
X118348096Y-87040952D02*
X118729048Y-87040952D01*
X118490953Y-86707619D02*
X118490953Y-87564761D01*
X118490953Y-87564761D02*
X118538572Y-87660000D01*
X118538572Y-87660000D02*
X118633810Y-87707619D01*
X118633810Y-87707619D02*
X118729048Y-87707619D01*
X119062382Y-87707619D02*
X119062382Y-87040952D01*
X119062382Y-86707619D02*
X119014763Y-86755238D01*
X119014763Y-86755238D02*
X119062382Y-86802857D01*
X119062382Y-86802857D02*
X119110001Y-86755238D01*
X119110001Y-86755238D02*
X119062382Y-86707619D01*
X119062382Y-86707619D02*
X119062382Y-86802857D01*
X119538572Y-87707619D02*
X119538572Y-87040952D01*
X119538572Y-87136190D02*
X119586191Y-87088571D01*
X119586191Y-87088571D02*
X119681429Y-87040952D01*
X119681429Y-87040952D02*
X119824286Y-87040952D01*
X119824286Y-87040952D02*
X119919524Y-87088571D01*
X119919524Y-87088571D02*
X119967143Y-87183809D01*
X119967143Y-87183809D02*
X119967143Y-87707619D01*
X119967143Y-87183809D02*
X120014762Y-87088571D01*
X120014762Y-87088571D02*
X120110000Y-87040952D01*
X120110000Y-87040952D02*
X120252857Y-87040952D01*
X120252857Y-87040952D02*
X120348096Y-87088571D01*
X120348096Y-87088571D02*
X120395715Y-87183809D01*
X120395715Y-87183809D02*
X120395715Y-87707619D01*
X121252857Y-87660000D02*
X121157619Y-87707619D01*
X121157619Y-87707619D02*
X120967143Y-87707619D01*
X120967143Y-87707619D02*
X120871905Y-87660000D01*
X120871905Y-87660000D02*
X120824286Y-87564761D01*
X120824286Y-87564761D02*
X120824286Y-87183809D01*
X120824286Y-87183809D02*
X120871905Y-87088571D01*
X120871905Y-87088571D02*
X120967143Y-87040952D01*
X120967143Y-87040952D02*
X121157619Y-87040952D01*
X121157619Y-87040952D02*
X121252857Y-87088571D01*
X121252857Y-87088571D02*
X121300476Y-87183809D01*
X121300476Y-87183809D02*
X121300476Y-87279047D01*
X121300476Y-87279047D02*
X120824286Y-87374285D01*
X114562381Y-89327619D02*
X114562381Y-88327619D01*
X115038571Y-88660952D02*
X115038571Y-89327619D01*
X115038571Y-88756190D02*
X115086190Y-88708571D01*
X115086190Y-88708571D02*
X115181428Y-88660952D01*
X115181428Y-88660952D02*
X115324285Y-88660952D01*
X115324285Y-88660952D02*
X115419523Y-88708571D01*
X115419523Y-88708571D02*
X115467142Y-88803809D01*
X115467142Y-88803809D02*
X115467142Y-89327619D01*
X115943333Y-88946666D02*
X116705238Y-88946666D01*
X117038571Y-88660952D02*
X117419523Y-88660952D01*
X117181428Y-89327619D02*
X117181428Y-88470476D01*
X117181428Y-88470476D02*
X117229047Y-88375238D01*
X117229047Y-88375238D02*
X117324285Y-88327619D01*
X117324285Y-88327619D02*
X117419523Y-88327619D01*
X117895714Y-89327619D02*
X117800476Y-89280000D01*
X117800476Y-89280000D02*
X117752857Y-89184761D01*
X117752857Y-89184761D02*
X117752857Y-88327619D01*
X118276667Y-89327619D02*
X118276667Y-88660952D01*
X118276667Y-88327619D02*
X118229048Y-88375238D01*
X118229048Y-88375238D02*
X118276667Y-88422857D01*
X118276667Y-88422857D02*
X118324286Y-88375238D01*
X118324286Y-88375238D02*
X118276667Y-88327619D01*
X118276667Y-88327619D02*
X118276667Y-88422857D01*
X119181428Y-88660952D02*
X119181428Y-89470476D01*
X119181428Y-89470476D02*
X119133809Y-89565714D01*
X119133809Y-89565714D02*
X119086190Y-89613333D01*
X119086190Y-89613333D02*
X118990952Y-89660952D01*
X118990952Y-89660952D02*
X118848095Y-89660952D01*
X118848095Y-89660952D02*
X118752857Y-89613333D01*
X119181428Y-89280000D02*
X119086190Y-89327619D01*
X119086190Y-89327619D02*
X118895714Y-89327619D01*
X118895714Y-89327619D02*
X118800476Y-89280000D01*
X118800476Y-89280000D02*
X118752857Y-89232380D01*
X118752857Y-89232380D02*
X118705238Y-89137142D01*
X118705238Y-89137142D02*
X118705238Y-88851428D01*
X118705238Y-88851428D02*
X118752857Y-88756190D01*
X118752857Y-88756190D02*
X118800476Y-88708571D01*
X118800476Y-88708571D02*
X118895714Y-88660952D01*
X118895714Y-88660952D02*
X119086190Y-88660952D01*
X119086190Y-88660952D02*
X119181428Y-88708571D01*
X119657619Y-89327619D02*
X119657619Y-88327619D01*
X120086190Y-89327619D02*
X120086190Y-88803809D01*
X120086190Y-88803809D02*
X120038571Y-88708571D01*
X120038571Y-88708571D02*
X119943333Y-88660952D01*
X119943333Y-88660952D02*
X119800476Y-88660952D01*
X119800476Y-88660952D02*
X119705238Y-88708571D01*
X119705238Y-88708571D02*
X119657619Y-88756190D01*
X120419524Y-88660952D02*
X120800476Y-88660952D01*
X120562381Y-88327619D02*
X120562381Y-89184761D01*
X120562381Y-89184761D02*
X120610000Y-89280000D01*
X120610000Y-89280000D02*
X120705238Y-89327619D01*
X120705238Y-89327619D02*
X120800476Y-89327619D01*
X114586190Y-90900000D02*
X114490952Y-90947619D01*
X114490952Y-90947619D02*
X114300476Y-90947619D01*
X114300476Y-90947619D02*
X114205238Y-90900000D01*
X114205238Y-90900000D02*
X114157619Y-90804761D01*
X114157619Y-90804761D02*
X114157619Y-90423809D01*
X114157619Y-90423809D02*
X114205238Y-90328571D01*
X114205238Y-90328571D02*
X114300476Y-90280952D01*
X114300476Y-90280952D02*
X114490952Y-90280952D01*
X114490952Y-90280952D02*
X114586190Y-90328571D01*
X114586190Y-90328571D02*
X114633809Y-90423809D01*
X114633809Y-90423809D02*
X114633809Y-90519047D01*
X114633809Y-90519047D02*
X114157619Y-90614285D01*
X114967143Y-89947619D02*
X115633809Y-90947619D01*
X115633809Y-89947619D02*
X114967143Y-90947619D01*
X116395714Y-90900000D02*
X116300476Y-90947619D01*
X116300476Y-90947619D02*
X116110000Y-90947619D01*
X116110000Y-90947619D02*
X116014762Y-90900000D01*
X116014762Y-90900000D02*
X115967143Y-90804761D01*
X115967143Y-90804761D02*
X115967143Y-90423809D01*
X115967143Y-90423809D02*
X116014762Y-90328571D01*
X116014762Y-90328571D02*
X116110000Y-90280952D01*
X116110000Y-90280952D02*
X116300476Y-90280952D01*
X116300476Y-90280952D02*
X116395714Y-90328571D01*
X116395714Y-90328571D02*
X116443333Y-90423809D01*
X116443333Y-90423809D02*
X116443333Y-90519047D01*
X116443333Y-90519047D02*
X115967143Y-90614285D01*
X117300476Y-90900000D02*
X117205238Y-90947619D01*
X117205238Y-90947619D02*
X117014762Y-90947619D01*
X117014762Y-90947619D02*
X116919524Y-90900000D01*
X116919524Y-90900000D02*
X116871905Y-90852380D01*
X116871905Y-90852380D02*
X116824286Y-90757142D01*
X116824286Y-90757142D02*
X116824286Y-90471428D01*
X116824286Y-90471428D02*
X116871905Y-90376190D01*
X116871905Y-90376190D02*
X116919524Y-90328571D01*
X116919524Y-90328571D02*
X117014762Y-90280952D01*
X117014762Y-90280952D02*
X117205238Y-90280952D01*
X117205238Y-90280952D02*
X117300476Y-90328571D01*
X118157619Y-90280952D02*
X118157619Y-90947619D01*
X117729048Y-90280952D02*
X117729048Y-90804761D01*
X117729048Y-90804761D02*
X117776667Y-90900000D01*
X117776667Y-90900000D02*
X117871905Y-90947619D01*
X117871905Y-90947619D02*
X118014762Y-90947619D01*
X118014762Y-90947619D02*
X118110000Y-90900000D01*
X118110000Y-90900000D02*
X118157619Y-90852380D01*
X118490953Y-90280952D02*
X118871905Y-90280952D01*
X118633810Y-89947619D02*
X118633810Y-90804761D01*
X118633810Y-90804761D02*
X118681429Y-90900000D01*
X118681429Y-90900000D02*
X118776667Y-90947619D01*
X118776667Y-90947619D02*
X118871905Y-90947619D01*
X119205239Y-90947619D02*
X119205239Y-90280952D01*
X119205239Y-89947619D02*
X119157620Y-89995238D01*
X119157620Y-89995238D02*
X119205239Y-90042857D01*
X119205239Y-90042857D02*
X119252858Y-89995238D01*
X119252858Y-89995238D02*
X119205239Y-89947619D01*
X119205239Y-89947619D02*
X119205239Y-90042857D01*
X119824286Y-90947619D02*
X119729048Y-90900000D01*
X119729048Y-90900000D02*
X119681429Y-90852380D01*
X119681429Y-90852380D02*
X119633810Y-90757142D01*
X119633810Y-90757142D02*
X119633810Y-90471428D01*
X119633810Y-90471428D02*
X119681429Y-90376190D01*
X119681429Y-90376190D02*
X119729048Y-90328571D01*
X119729048Y-90328571D02*
X119824286Y-90280952D01*
X119824286Y-90280952D02*
X119967143Y-90280952D01*
X119967143Y-90280952D02*
X120062381Y-90328571D01*
X120062381Y-90328571D02*
X120110000Y-90376190D01*
X120110000Y-90376190D02*
X120157619Y-90471428D01*
X120157619Y-90471428D02*
X120157619Y-90757142D01*
X120157619Y-90757142D02*
X120110000Y-90852380D01*
X120110000Y-90852380D02*
X120062381Y-90900000D01*
X120062381Y-90900000D02*
X119967143Y-90947619D01*
X119967143Y-90947619D02*
X119824286Y-90947619D01*
X120586191Y-90280952D02*
X120586191Y-90947619D01*
X120586191Y-90376190D02*
X120633810Y-90328571D01*
X120633810Y-90328571D02*
X120729048Y-90280952D01*
X120729048Y-90280952D02*
X120871905Y-90280952D01*
X120871905Y-90280952D02*
X120967143Y-90328571D01*
X120967143Y-90328571D02*
X121014762Y-90423809D01*
X121014762Y-90423809D02*
X121014762Y-90947619D01*
X92634761Y-58012857D02*
X92539523Y-57965238D01*
X92539523Y-57965238D02*
X92444285Y-57870000D01*
X92444285Y-57870000D02*
X92301428Y-57727142D01*
X92301428Y-57727142D02*
X92206190Y-57679523D01*
X92206190Y-57679523D02*
X92110952Y-57679523D01*
X92158571Y-57917619D02*
X92063333Y-57870000D01*
X92063333Y-57870000D02*
X91968095Y-57774761D01*
X91968095Y-57774761D02*
X91920476Y-57584285D01*
X91920476Y-57584285D02*
X91920476Y-57250952D01*
X91920476Y-57250952D02*
X91968095Y-57060476D01*
X91968095Y-57060476D02*
X92063333Y-56965238D01*
X92063333Y-56965238D02*
X92158571Y-56917619D01*
X92158571Y-56917619D02*
X92349047Y-56917619D01*
X92349047Y-56917619D02*
X92444285Y-56965238D01*
X92444285Y-56965238D02*
X92539523Y-57060476D01*
X92539523Y-57060476D02*
X92587142Y-57250952D01*
X92587142Y-57250952D02*
X92587142Y-57584285D01*
X92587142Y-57584285D02*
X92539523Y-57774761D01*
X92539523Y-57774761D02*
X92444285Y-57870000D01*
X92444285Y-57870000D02*
X92349047Y-57917619D01*
X92349047Y-57917619D02*
X92158571Y-57917619D01*
X92968095Y-57870000D02*
X93110952Y-57917619D01*
X93110952Y-57917619D02*
X93349047Y-57917619D01*
X93349047Y-57917619D02*
X93444285Y-57870000D01*
X93444285Y-57870000D02*
X93491904Y-57822380D01*
X93491904Y-57822380D02*
X93539523Y-57727142D01*
X93539523Y-57727142D02*
X93539523Y-57631904D01*
X93539523Y-57631904D02*
X93491904Y-57536666D01*
X93491904Y-57536666D02*
X93444285Y-57489047D01*
X93444285Y-57489047D02*
X93349047Y-57441428D01*
X93349047Y-57441428D02*
X93158571Y-57393809D01*
X93158571Y-57393809D02*
X93063333Y-57346190D01*
X93063333Y-57346190D02*
X93015714Y-57298571D01*
X93015714Y-57298571D02*
X92968095Y-57203333D01*
X92968095Y-57203333D02*
X92968095Y-57108095D01*
X92968095Y-57108095D02*
X93015714Y-57012857D01*
X93015714Y-57012857D02*
X93063333Y-56965238D01*
X93063333Y-56965238D02*
X93158571Y-56917619D01*
X93158571Y-56917619D02*
X93396666Y-56917619D01*
X93396666Y-56917619D02*
X93539523Y-56965238D01*
X93968095Y-57917619D02*
X93968095Y-56917619D01*
X93968095Y-56917619D02*
X94349047Y-56917619D01*
X94349047Y-56917619D02*
X94444285Y-56965238D01*
X94444285Y-56965238D02*
X94491904Y-57012857D01*
X94491904Y-57012857D02*
X94539523Y-57108095D01*
X94539523Y-57108095D02*
X94539523Y-57250952D01*
X94539523Y-57250952D02*
X94491904Y-57346190D01*
X94491904Y-57346190D02*
X94444285Y-57393809D01*
X94444285Y-57393809D02*
X94349047Y-57441428D01*
X94349047Y-57441428D02*
X93968095Y-57441428D01*
X94968095Y-57917619D02*
X94968095Y-56917619D01*
X96539523Y-57393809D02*
X96206190Y-57393809D01*
X96206190Y-57917619D02*
X96206190Y-56917619D01*
X96206190Y-56917619D02*
X96682380Y-56917619D01*
X97206190Y-57917619D02*
X97110952Y-57870000D01*
X97110952Y-57870000D02*
X97063333Y-57774761D01*
X97063333Y-57774761D02*
X97063333Y-56917619D01*
X98015714Y-57917619D02*
X98015714Y-57393809D01*
X98015714Y-57393809D02*
X97968095Y-57298571D01*
X97968095Y-57298571D02*
X97872857Y-57250952D01*
X97872857Y-57250952D02*
X97682381Y-57250952D01*
X97682381Y-57250952D02*
X97587143Y-57298571D01*
X98015714Y-57870000D02*
X97920476Y-57917619D01*
X97920476Y-57917619D02*
X97682381Y-57917619D01*
X97682381Y-57917619D02*
X97587143Y-57870000D01*
X97587143Y-57870000D02*
X97539524Y-57774761D01*
X97539524Y-57774761D02*
X97539524Y-57679523D01*
X97539524Y-57679523D02*
X97587143Y-57584285D01*
X97587143Y-57584285D02*
X97682381Y-57536666D01*
X97682381Y-57536666D02*
X97920476Y-57536666D01*
X97920476Y-57536666D02*
X98015714Y-57489047D01*
X98444286Y-57870000D02*
X98539524Y-57917619D01*
X98539524Y-57917619D02*
X98730000Y-57917619D01*
X98730000Y-57917619D02*
X98825238Y-57870000D01*
X98825238Y-57870000D02*
X98872857Y-57774761D01*
X98872857Y-57774761D02*
X98872857Y-57727142D01*
X98872857Y-57727142D02*
X98825238Y-57631904D01*
X98825238Y-57631904D02*
X98730000Y-57584285D01*
X98730000Y-57584285D02*
X98587143Y-57584285D01*
X98587143Y-57584285D02*
X98491905Y-57536666D01*
X98491905Y-57536666D02*
X98444286Y-57441428D01*
X98444286Y-57441428D02*
X98444286Y-57393809D01*
X98444286Y-57393809D02*
X98491905Y-57298571D01*
X98491905Y-57298571D02*
X98587143Y-57250952D01*
X98587143Y-57250952D02*
X98730000Y-57250952D01*
X98730000Y-57250952D02*
X98825238Y-57298571D01*
X99301429Y-57917619D02*
X99301429Y-56917619D01*
X99730000Y-57917619D02*
X99730000Y-57393809D01*
X99730000Y-57393809D02*
X99682381Y-57298571D01*
X99682381Y-57298571D02*
X99587143Y-57250952D01*
X99587143Y-57250952D02*
X99444286Y-57250952D01*
X99444286Y-57250952D02*
X99349048Y-57298571D01*
X99349048Y-57298571D02*
X99301429Y-57346190D01*
X104251428Y-68773809D02*
X104394285Y-68821428D01*
X104394285Y-68821428D02*
X104441904Y-68869047D01*
X104441904Y-68869047D02*
X104489523Y-68964285D01*
X104489523Y-68964285D02*
X104489523Y-69107142D01*
X104489523Y-69107142D02*
X104441904Y-69202380D01*
X104441904Y-69202380D02*
X104394285Y-69250000D01*
X104394285Y-69250000D02*
X104299047Y-69297619D01*
X104299047Y-69297619D02*
X103918095Y-69297619D01*
X103918095Y-69297619D02*
X103918095Y-68297619D01*
X103918095Y-68297619D02*
X104251428Y-68297619D01*
X104251428Y-68297619D02*
X104346666Y-68345238D01*
X104346666Y-68345238D02*
X104394285Y-68392857D01*
X104394285Y-68392857D02*
X104441904Y-68488095D01*
X104441904Y-68488095D02*
X104441904Y-68583333D01*
X104441904Y-68583333D02*
X104394285Y-68678571D01*
X104394285Y-68678571D02*
X104346666Y-68726190D01*
X104346666Y-68726190D02*
X104251428Y-68773809D01*
X104251428Y-68773809D02*
X103918095Y-68773809D01*
X105060952Y-69297619D02*
X104965714Y-69250000D01*
X104965714Y-69250000D02*
X104918095Y-69202380D01*
X104918095Y-69202380D02*
X104870476Y-69107142D01*
X104870476Y-69107142D02*
X104870476Y-68821428D01*
X104870476Y-68821428D02*
X104918095Y-68726190D01*
X104918095Y-68726190D02*
X104965714Y-68678571D01*
X104965714Y-68678571D02*
X105060952Y-68630952D01*
X105060952Y-68630952D02*
X105203809Y-68630952D01*
X105203809Y-68630952D02*
X105299047Y-68678571D01*
X105299047Y-68678571D02*
X105346666Y-68726190D01*
X105346666Y-68726190D02*
X105394285Y-68821428D01*
X105394285Y-68821428D02*
X105394285Y-69107142D01*
X105394285Y-69107142D02*
X105346666Y-69202380D01*
X105346666Y-69202380D02*
X105299047Y-69250000D01*
X105299047Y-69250000D02*
X105203809Y-69297619D01*
X105203809Y-69297619D02*
X105060952Y-69297619D01*
X105965714Y-69297619D02*
X105870476Y-69250000D01*
X105870476Y-69250000D02*
X105822857Y-69202380D01*
X105822857Y-69202380D02*
X105775238Y-69107142D01*
X105775238Y-69107142D02*
X105775238Y-68821428D01*
X105775238Y-68821428D02*
X105822857Y-68726190D01*
X105822857Y-68726190D02*
X105870476Y-68678571D01*
X105870476Y-68678571D02*
X105965714Y-68630952D01*
X105965714Y-68630952D02*
X106108571Y-68630952D01*
X106108571Y-68630952D02*
X106203809Y-68678571D01*
X106203809Y-68678571D02*
X106251428Y-68726190D01*
X106251428Y-68726190D02*
X106299047Y-68821428D01*
X106299047Y-68821428D02*
X106299047Y-69107142D01*
X106299047Y-69107142D02*
X106251428Y-69202380D01*
X106251428Y-69202380D02*
X106203809Y-69250000D01*
X106203809Y-69250000D02*
X106108571Y-69297619D01*
X106108571Y-69297619D02*
X105965714Y-69297619D01*
X106680000Y-69250000D02*
X106775238Y-69297619D01*
X106775238Y-69297619D02*
X106965714Y-69297619D01*
X106965714Y-69297619D02*
X107060952Y-69250000D01*
X107060952Y-69250000D02*
X107108571Y-69154761D01*
X107108571Y-69154761D02*
X107108571Y-69107142D01*
X107108571Y-69107142D02*
X107060952Y-69011904D01*
X107060952Y-69011904D02*
X106965714Y-68964285D01*
X106965714Y-68964285D02*
X106822857Y-68964285D01*
X106822857Y-68964285D02*
X106727619Y-68916666D01*
X106727619Y-68916666D02*
X106680000Y-68821428D01*
X106680000Y-68821428D02*
X106680000Y-68773809D01*
X106680000Y-68773809D02*
X106727619Y-68678571D01*
X106727619Y-68678571D02*
X106822857Y-68630952D01*
X106822857Y-68630952D02*
X106965714Y-68630952D01*
X106965714Y-68630952D02*
X107060952Y-68678571D01*
X107394286Y-68630952D02*
X107775238Y-68630952D01*
X107537143Y-68297619D02*
X107537143Y-69154761D01*
X107537143Y-69154761D02*
X107584762Y-69250000D01*
X107584762Y-69250000D02*
X107680000Y-69297619D01*
X107680000Y-69297619D02*
X107775238Y-69297619D01*
X90828095Y-68486666D02*
X91590000Y-68486666D01*
X91209047Y-68867619D02*
X91209047Y-68105714D01*
X108750476Y-50320000D02*
X108893333Y-50367619D01*
X108893333Y-50367619D02*
X109131428Y-50367619D01*
X109131428Y-50367619D02*
X109226666Y-50320000D01*
X109226666Y-50320000D02*
X109274285Y-50272380D01*
X109274285Y-50272380D02*
X109321904Y-50177142D01*
X109321904Y-50177142D02*
X109321904Y-50081904D01*
X109321904Y-50081904D02*
X109274285Y-49986666D01*
X109274285Y-49986666D02*
X109226666Y-49939047D01*
X109226666Y-49939047D02*
X109131428Y-49891428D01*
X109131428Y-49891428D02*
X108940952Y-49843809D01*
X108940952Y-49843809D02*
X108845714Y-49796190D01*
X108845714Y-49796190D02*
X108798095Y-49748571D01*
X108798095Y-49748571D02*
X108750476Y-49653333D01*
X108750476Y-49653333D02*
X108750476Y-49558095D01*
X108750476Y-49558095D02*
X108798095Y-49462857D01*
X108798095Y-49462857D02*
X108845714Y-49415238D01*
X108845714Y-49415238D02*
X108940952Y-49367619D01*
X108940952Y-49367619D02*
X109179047Y-49367619D01*
X109179047Y-49367619D02*
X109321904Y-49415238D01*
X109607619Y-49367619D02*
X110179047Y-49367619D01*
X109893333Y-50367619D02*
X109893333Y-49367619D01*
X110512381Y-50367619D02*
X110512381Y-49367619D01*
X110512381Y-49367619D02*
X110845714Y-50081904D01*
X110845714Y-50081904D02*
X111179047Y-49367619D01*
X111179047Y-49367619D02*
X111179047Y-50367619D01*
X111560000Y-49367619D02*
X112179047Y-49367619D01*
X112179047Y-49367619D02*
X111845714Y-49748571D01*
X111845714Y-49748571D02*
X111988571Y-49748571D01*
X111988571Y-49748571D02*
X112083809Y-49796190D01*
X112083809Y-49796190D02*
X112131428Y-49843809D01*
X112131428Y-49843809D02*
X112179047Y-49939047D01*
X112179047Y-49939047D02*
X112179047Y-50177142D01*
X112179047Y-50177142D02*
X112131428Y-50272380D01*
X112131428Y-50272380D02*
X112083809Y-50320000D01*
X112083809Y-50320000D02*
X111988571Y-50367619D01*
X111988571Y-50367619D02*
X111702857Y-50367619D01*
X111702857Y-50367619D02*
X111607619Y-50320000D01*
X111607619Y-50320000D02*
X111560000Y-50272380D01*
X112560000Y-49462857D02*
X112607619Y-49415238D01*
X112607619Y-49415238D02*
X112702857Y-49367619D01*
X112702857Y-49367619D02*
X112940952Y-49367619D01*
X112940952Y-49367619D02*
X113036190Y-49415238D01*
X113036190Y-49415238D02*
X113083809Y-49462857D01*
X113083809Y-49462857D02*
X113131428Y-49558095D01*
X113131428Y-49558095D02*
X113131428Y-49653333D01*
X113131428Y-49653333D02*
X113083809Y-49796190D01*
X113083809Y-49796190D02*
X112512381Y-50367619D01*
X112512381Y-50367619D02*
X113131428Y-50367619D01*
X109274285Y-51987619D02*
X108798095Y-51987619D01*
X108798095Y-51987619D02*
X108798095Y-50987619D01*
X110036190Y-51320952D02*
X110036190Y-51987619D01*
X109798095Y-50940000D02*
X109560000Y-51654285D01*
X109560000Y-51654285D02*
X110179047Y-51654285D01*
X110464762Y-50987619D02*
X111131428Y-50987619D01*
X111131428Y-50987619D02*
X110702857Y-51987619D01*
X111940952Y-50987619D02*
X111750476Y-50987619D01*
X111750476Y-50987619D02*
X111655238Y-51035238D01*
X111655238Y-51035238D02*
X111607619Y-51082857D01*
X111607619Y-51082857D02*
X111512381Y-51225714D01*
X111512381Y-51225714D02*
X111464762Y-51416190D01*
X111464762Y-51416190D02*
X111464762Y-51797142D01*
X111464762Y-51797142D02*
X111512381Y-51892380D01*
X111512381Y-51892380D02*
X111560000Y-51940000D01*
X111560000Y-51940000D02*
X111655238Y-51987619D01*
X111655238Y-51987619D02*
X111845714Y-51987619D01*
X111845714Y-51987619D02*
X111940952Y-51940000D01*
X111940952Y-51940000D02*
X111988571Y-51892380D01*
X111988571Y-51892380D02*
X112036190Y-51797142D01*
X112036190Y-51797142D02*
X112036190Y-51559047D01*
X112036190Y-51559047D02*
X111988571Y-51463809D01*
X111988571Y-51463809D02*
X111940952Y-51416190D01*
X111940952Y-51416190D02*
X111845714Y-51368571D01*
X111845714Y-51368571D02*
X111655238Y-51368571D01*
X111655238Y-51368571D02*
X111560000Y-51416190D01*
X111560000Y-51416190D02*
X111512381Y-51463809D01*
X111512381Y-51463809D02*
X111464762Y-51559047D01*
X85481428Y-27733809D02*
X85624285Y-27781428D01*
X85624285Y-27781428D02*
X85671904Y-27829047D01*
X85671904Y-27829047D02*
X85719523Y-27924285D01*
X85719523Y-27924285D02*
X85719523Y-28067142D01*
X85719523Y-28067142D02*
X85671904Y-28162380D01*
X85671904Y-28162380D02*
X85624285Y-28210000D01*
X85624285Y-28210000D02*
X85529047Y-28257619D01*
X85529047Y-28257619D02*
X85148095Y-28257619D01*
X85148095Y-28257619D02*
X85148095Y-27257619D01*
X85148095Y-27257619D02*
X85481428Y-27257619D01*
X85481428Y-27257619D02*
X85576666Y-27305238D01*
X85576666Y-27305238D02*
X85624285Y-27352857D01*
X85624285Y-27352857D02*
X85671904Y-27448095D01*
X85671904Y-27448095D02*
X85671904Y-27543333D01*
X85671904Y-27543333D02*
X85624285Y-27638571D01*
X85624285Y-27638571D02*
X85576666Y-27686190D01*
X85576666Y-27686190D02*
X85481428Y-27733809D01*
X85481428Y-27733809D02*
X85148095Y-27733809D01*
X86148095Y-28257619D02*
X86148095Y-27257619D01*
X86148095Y-27257619D02*
X86481428Y-27971904D01*
X86481428Y-27971904D02*
X86814761Y-27257619D01*
X86814761Y-27257619D02*
X86814761Y-28257619D01*
X87290952Y-28257619D02*
X87290952Y-27257619D01*
X87290952Y-27257619D02*
X87671904Y-27257619D01*
X87671904Y-27257619D02*
X87767142Y-27305238D01*
X87767142Y-27305238D02*
X87814761Y-27352857D01*
X87814761Y-27352857D02*
X87862380Y-27448095D01*
X87862380Y-27448095D02*
X87862380Y-27590952D01*
X87862380Y-27590952D02*
X87814761Y-27686190D01*
X87814761Y-27686190D02*
X87767142Y-27733809D01*
X87767142Y-27733809D02*
X87671904Y-27781428D01*
X87671904Y-27781428D02*
X87290952Y-27781428D01*
X85052857Y-28877619D02*
X85671904Y-28877619D01*
X85671904Y-28877619D02*
X85338571Y-29258571D01*
X85338571Y-29258571D02*
X85481428Y-29258571D01*
X85481428Y-29258571D02*
X85576666Y-29306190D01*
X85576666Y-29306190D02*
X85624285Y-29353809D01*
X85624285Y-29353809D02*
X85671904Y-29449047D01*
X85671904Y-29449047D02*
X85671904Y-29687142D01*
X85671904Y-29687142D02*
X85624285Y-29782380D01*
X85624285Y-29782380D02*
X85576666Y-29830000D01*
X85576666Y-29830000D02*
X85481428Y-29877619D01*
X85481428Y-29877619D02*
X85195714Y-29877619D01*
X85195714Y-29877619D02*
X85100476Y-29830000D01*
X85100476Y-29830000D02*
X85052857Y-29782380D01*
X86243333Y-29306190D02*
X86148095Y-29258571D01*
X86148095Y-29258571D02*
X86100476Y-29210952D01*
X86100476Y-29210952D02*
X86052857Y-29115714D01*
X86052857Y-29115714D02*
X86052857Y-29068095D01*
X86052857Y-29068095D02*
X86100476Y-28972857D01*
X86100476Y-28972857D02*
X86148095Y-28925238D01*
X86148095Y-28925238D02*
X86243333Y-28877619D01*
X86243333Y-28877619D02*
X86433809Y-28877619D01*
X86433809Y-28877619D02*
X86529047Y-28925238D01*
X86529047Y-28925238D02*
X86576666Y-28972857D01*
X86576666Y-28972857D02*
X86624285Y-29068095D01*
X86624285Y-29068095D02*
X86624285Y-29115714D01*
X86624285Y-29115714D02*
X86576666Y-29210952D01*
X86576666Y-29210952D02*
X86529047Y-29258571D01*
X86529047Y-29258571D02*
X86433809Y-29306190D01*
X86433809Y-29306190D02*
X86243333Y-29306190D01*
X86243333Y-29306190D02*
X86148095Y-29353809D01*
X86148095Y-29353809D02*
X86100476Y-29401428D01*
X86100476Y-29401428D02*
X86052857Y-29496666D01*
X86052857Y-29496666D02*
X86052857Y-29687142D01*
X86052857Y-29687142D02*
X86100476Y-29782380D01*
X86100476Y-29782380D02*
X86148095Y-29830000D01*
X86148095Y-29830000D02*
X86243333Y-29877619D01*
X86243333Y-29877619D02*
X86433809Y-29877619D01*
X86433809Y-29877619D02*
X86529047Y-29830000D01*
X86529047Y-29830000D02*
X86576666Y-29782380D01*
X86576666Y-29782380D02*
X86624285Y-29687142D01*
X86624285Y-29687142D02*
X86624285Y-29496666D01*
X86624285Y-29496666D02*
X86576666Y-29401428D01*
X86576666Y-29401428D02*
X86529047Y-29353809D01*
X86529047Y-29353809D02*
X86433809Y-29306190D01*
X87195714Y-29306190D02*
X87100476Y-29258571D01*
X87100476Y-29258571D02*
X87052857Y-29210952D01*
X87052857Y-29210952D02*
X87005238Y-29115714D01*
X87005238Y-29115714D02*
X87005238Y-29068095D01*
X87005238Y-29068095D02*
X87052857Y-28972857D01*
X87052857Y-28972857D02*
X87100476Y-28925238D01*
X87100476Y-28925238D02*
X87195714Y-28877619D01*
X87195714Y-28877619D02*
X87386190Y-28877619D01*
X87386190Y-28877619D02*
X87481428Y-28925238D01*
X87481428Y-28925238D02*
X87529047Y-28972857D01*
X87529047Y-28972857D02*
X87576666Y-29068095D01*
X87576666Y-29068095D02*
X87576666Y-29115714D01*
X87576666Y-29115714D02*
X87529047Y-29210952D01*
X87529047Y-29210952D02*
X87481428Y-29258571D01*
X87481428Y-29258571D02*
X87386190Y-29306190D01*
X87386190Y-29306190D02*
X87195714Y-29306190D01*
X87195714Y-29306190D02*
X87100476Y-29353809D01*
X87100476Y-29353809D02*
X87052857Y-29401428D01*
X87052857Y-29401428D02*
X87005238Y-29496666D01*
X87005238Y-29496666D02*
X87005238Y-29687142D01*
X87005238Y-29687142D02*
X87052857Y-29782380D01*
X87052857Y-29782380D02*
X87100476Y-29830000D01*
X87100476Y-29830000D02*
X87195714Y-29877619D01*
X87195714Y-29877619D02*
X87386190Y-29877619D01*
X87386190Y-29877619D02*
X87481428Y-29830000D01*
X87481428Y-29830000D02*
X87529047Y-29782380D01*
X87529047Y-29782380D02*
X87576666Y-29687142D01*
X87576666Y-29687142D02*
X87576666Y-29496666D01*
X87576666Y-29496666D02*
X87529047Y-29401428D01*
X87529047Y-29401428D02*
X87481428Y-29353809D01*
X87481428Y-29353809D02*
X87386190Y-29306190D01*
X93923809Y-45027619D02*
X93923809Y-45741904D01*
X93923809Y-45741904D02*
X93876190Y-45884761D01*
X93876190Y-45884761D02*
X93780952Y-45980000D01*
X93780952Y-45980000D02*
X93638095Y-46027619D01*
X93638095Y-46027619D02*
X93542857Y-46027619D01*
X94876190Y-46027619D02*
X94400000Y-46027619D01*
X94400000Y-46027619D02*
X94400000Y-45027619D01*
X95780952Y-45932380D02*
X95733333Y-45980000D01*
X95733333Y-45980000D02*
X95590476Y-46027619D01*
X95590476Y-46027619D02*
X95495238Y-46027619D01*
X95495238Y-46027619D02*
X95352381Y-45980000D01*
X95352381Y-45980000D02*
X95257143Y-45884761D01*
X95257143Y-45884761D02*
X95209524Y-45789523D01*
X95209524Y-45789523D02*
X95161905Y-45599047D01*
X95161905Y-45599047D02*
X95161905Y-45456190D01*
X95161905Y-45456190D02*
X95209524Y-45265714D01*
X95209524Y-45265714D02*
X95257143Y-45170476D01*
X95257143Y-45170476D02*
X95352381Y-45075238D01*
X95352381Y-45075238D02*
X95495238Y-45027619D01*
X95495238Y-45027619D02*
X95590476Y-45027619D01*
X95590476Y-45027619D02*
X95733333Y-45075238D01*
X95733333Y-45075238D02*
X95780952Y-45122857D01*
X96495238Y-45027619D02*
X96495238Y-45741904D01*
X96495238Y-45741904D02*
X96447619Y-45884761D01*
X96447619Y-45884761D02*
X96352381Y-45980000D01*
X96352381Y-45980000D02*
X96209524Y-46027619D01*
X96209524Y-46027619D02*
X96114286Y-46027619D01*
X97447619Y-46027619D02*
X96971429Y-46027619D01*
X96971429Y-46027619D02*
X96971429Y-45027619D01*
X98352381Y-45932380D02*
X98304762Y-45980000D01*
X98304762Y-45980000D02*
X98161905Y-46027619D01*
X98161905Y-46027619D02*
X98066667Y-46027619D01*
X98066667Y-46027619D02*
X97923810Y-45980000D01*
X97923810Y-45980000D02*
X97828572Y-45884761D01*
X97828572Y-45884761D02*
X97780953Y-45789523D01*
X97780953Y-45789523D02*
X97733334Y-45599047D01*
X97733334Y-45599047D02*
X97733334Y-45456190D01*
X97733334Y-45456190D02*
X97780953Y-45265714D01*
X97780953Y-45265714D02*
X97828572Y-45170476D01*
X97828572Y-45170476D02*
X97923810Y-45075238D01*
X97923810Y-45075238D02*
X98066667Y-45027619D01*
X98066667Y-45027619D02*
X98161905Y-45027619D01*
X98161905Y-45027619D02*
X98304762Y-45075238D01*
X98304762Y-45075238D02*
X98352381Y-45122857D01*
X99066667Y-45027619D02*
X99066667Y-45741904D01*
X99066667Y-45741904D02*
X99019048Y-45884761D01*
X99019048Y-45884761D02*
X98923810Y-45980000D01*
X98923810Y-45980000D02*
X98780953Y-46027619D01*
X98780953Y-46027619D02*
X98685715Y-46027619D01*
X100019048Y-46027619D02*
X99542858Y-46027619D01*
X99542858Y-46027619D02*
X99542858Y-45027619D01*
X100923810Y-45932380D02*
X100876191Y-45980000D01*
X100876191Y-45980000D02*
X100733334Y-46027619D01*
X100733334Y-46027619D02*
X100638096Y-46027619D01*
X100638096Y-46027619D02*
X100495239Y-45980000D01*
X100495239Y-45980000D02*
X100400001Y-45884761D01*
X100400001Y-45884761D02*
X100352382Y-45789523D01*
X100352382Y-45789523D02*
X100304763Y-45599047D01*
X100304763Y-45599047D02*
X100304763Y-45456190D01*
X100304763Y-45456190D02*
X100352382Y-45265714D01*
X100352382Y-45265714D02*
X100400001Y-45170476D01*
X100400001Y-45170476D02*
X100495239Y-45075238D01*
X100495239Y-45075238D02*
X100638096Y-45027619D01*
X100638096Y-45027619D02*
X100733334Y-45027619D01*
X100733334Y-45027619D02*
X100876191Y-45075238D01*
X100876191Y-45075238D02*
X100923810Y-45122857D01*
X101638096Y-45027619D02*
X101638096Y-45741904D01*
X101638096Y-45741904D02*
X101590477Y-45884761D01*
X101590477Y-45884761D02*
X101495239Y-45980000D01*
X101495239Y-45980000D02*
X101352382Y-46027619D01*
X101352382Y-46027619D02*
X101257144Y-46027619D01*
X102590477Y-46027619D02*
X102114287Y-46027619D01*
X102114287Y-46027619D02*
X102114287Y-45027619D01*
X103495239Y-45932380D02*
X103447620Y-45980000D01*
X103447620Y-45980000D02*
X103304763Y-46027619D01*
X103304763Y-46027619D02*
X103209525Y-46027619D01*
X103209525Y-46027619D02*
X103066668Y-45980000D01*
X103066668Y-45980000D02*
X102971430Y-45884761D01*
X102971430Y-45884761D02*
X102923811Y-45789523D01*
X102923811Y-45789523D02*
X102876192Y-45599047D01*
X102876192Y-45599047D02*
X102876192Y-45456190D01*
X102876192Y-45456190D02*
X102923811Y-45265714D01*
X102923811Y-45265714D02*
X102971430Y-45170476D01*
X102971430Y-45170476D02*
X103066668Y-45075238D01*
X103066668Y-45075238D02*
X103209525Y-45027619D01*
X103209525Y-45027619D02*
X103304763Y-45027619D01*
X103304763Y-45027619D02*
X103447620Y-45075238D01*
X103447620Y-45075238D02*
X103495239Y-45122857D01*
X99461428Y-31663809D02*
X99604285Y-31711428D01*
X99604285Y-31711428D02*
X99651904Y-31759047D01*
X99651904Y-31759047D02*
X99699523Y-31854285D01*
X99699523Y-31854285D02*
X99699523Y-31997142D01*
X99699523Y-31997142D02*
X99651904Y-32092380D01*
X99651904Y-32092380D02*
X99604285Y-32140000D01*
X99604285Y-32140000D02*
X99509047Y-32187619D01*
X99509047Y-32187619D02*
X99128095Y-32187619D01*
X99128095Y-32187619D02*
X99128095Y-31187619D01*
X99128095Y-31187619D02*
X99461428Y-31187619D01*
X99461428Y-31187619D02*
X99556666Y-31235238D01*
X99556666Y-31235238D02*
X99604285Y-31282857D01*
X99604285Y-31282857D02*
X99651904Y-31378095D01*
X99651904Y-31378095D02*
X99651904Y-31473333D01*
X99651904Y-31473333D02*
X99604285Y-31568571D01*
X99604285Y-31568571D02*
X99556666Y-31616190D01*
X99556666Y-31616190D02*
X99461428Y-31663809D01*
X99461428Y-31663809D02*
X99128095Y-31663809D01*
X100128095Y-32187619D02*
X100128095Y-31187619D01*
X100128095Y-31187619D02*
X100461428Y-31901904D01*
X100461428Y-31901904D02*
X100794761Y-31187619D01*
X100794761Y-31187619D02*
X100794761Y-32187619D01*
X101270952Y-32187619D02*
X101270952Y-31187619D01*
X99318571Y-32807619D02*
X99413809Y-32807619D01*
X99413809Y-32807619D02*
X99509047Y-32855238D01*
X99509047Y-32855238D02*
X99556666Y-32902857D01*
X99556666Y-32902857D02*
X99604285Y-32998095D01*
X99604285Y-32998095D02*
X99651904Y-33188571D01*
X99651904Y-33188571D02*
X99651904Y-33426666D01*
X99651904Y-33426666D02*
X99604285Y-33617142D01*
X99604285Y-33617142D02*
X99556666Y-33712380D01*
X99556666Y-33712380D02*
X99509047Y-33760000D01*
X99509047Y-33760000D02*
X99413809Y-33807619D01*
X99413809Y-33807619D02*
X99318571Y-33807619D01*
X99318571Y-33807619D02*
X99223333Y-33760000D01*
X99223333Y-33760000D02*
X99175714Y-33712380D01*
X99175714Y-33712380D02*
X99128095Y-33617142D01*
X99128095Y-33617142D02*
X99080476Y-33426666D01*
X99080476Y-33426666D02*
X99080476Y-33188571D01*
X99080476Y-33188571D02*
X99128095Y-32998095D01*
X99128095Y-32998095D02*
X99175714Y-32902857D01*
X99175714Y-32902857D02*
X99223333Y-32855238D01*
X99223333Y-32855238D02*
X99318571Y-32807619D01*
X100223333Y-33236190D02*
X100128095Y-33188571D01*
X100128095Y-33188571D02*
X100080476Y-33140952D01*
X100080476Y-33140952D02*
X100032857Y-33045714D01*
X100032857Y-33045714D02*
X100032857Y-32998095D01*
X100032857Y-32998095D02*
X100080476Y-32902857D01*
X100080476Y-32902857D02*
X100128095Y-32855238D01*
X100128095Y-32855238D02*
X100223333Y-32807619D01*
X100223333Y-32807619D02*
X100413809Y-32807619D01*
X100413809Y-32807619D02*
X100509047Y-32855238D01*
X100509047Y-32855238D02*
X100556666Y-32902857D01*
X100556666Y-32902857D02*
X100604285Y-32998095D01*
X100604285Y-32998095D02*
X100604285Y-33045714D01*
X100604285Y-33045714D02*
X100556666Y-33140952D01*
X100556666Y-33140952D02*
X100509047Y-33188571D01*
X100509047Y-33188571D02*
X100413809Y-33236190D01*
X100413809Y-33236190D02*
X100223333Y-33236190D01*
X100223333Y-33236190D02*
X100128095Y-33283809D01*
X100128095Y-33283809D02*
X100080476Y-33331428D01*
X100080476Y-33331428D02*
X100032857Y-33426666D01*
X100032857Y-33426666D02*
X100032857Y-33617142D01*
X100032857Y-33617142D02*
X100080476Y-33712380D01*
X100080476Y-33712380D02*
X100128095Y-33760000D01*
X100128095Y-33760000D02*
X100223333Y-33807619D01*
X100223333Y-33807619D02*
X100413809Y-33807619D01*
X100413809Y-33807619D02*
X100509047Y-33760000D01*
X100509047Y-33760000D02*
X100556666Y-33712380D01*
X100556666Y-33712380D02*
X100604285Y-33617142D01*
X100604285Y-33617142D02*
X100604285Y-33426666D01*
X100604285Y-33426666D02*
X100556666Y-33331428D01*
X100556666Y-33331428D02*
X100509047Y-33283809D01*
X100509047Y-33283809D02*
X100413809Y-33236190D01*
X101175714Y-33236190D02*
X101080476Y-33188571D01*
X101080476Y-33188571D02*
X101032857Y-33140952D01*
X101032857Y-33140952D02*
X100985238Y-33045714D01*
X100985238Y-33045714D02*
X100985238Y-32998095D01*
X100985238Y-32998095D02*
X101032857Y-32902857D01*
X101032857Y-32902857D02*
X101080476Y-32855238D01*
X101080476Y-32855238D02*
X101175714Y-32807619D01*
X101175714Y-32807619D02*
X101366190Y-32807619D01*
X101366190Y-32807619D02*
X101461428Y-32855238D01*
X101461428Y-32855238D02*
X101509047Y-32902857D01*
X101509047Y-32902857D02*
X101556666Y-32998095D01*
X101556666Y-32998095D02*
X101556666Y-33045714D01*
X101556666Y-33045714D02*
X101509047Y-33140952D01*
X101509047Y-33140952D02*
X101461428Y-33188571D01*
X101461428Y-33188571D02*
X101366190Y-33236190D01*
X101366190Y-33236190D02*
X101175714Y-33236190D01*
X101175714Y-33236190D02*
X101080476Y-33283809D01*
X101080476Y-33283809D02*
X101032857Y-33331428D01*
X101032857Y-33331428D02*
X100985238Y-33426666D01*
X100985238Y-33426666D02*
X100985238Y-33617142D01*
X100985238Y-33617142D02*
X101032857Y-33712380D01*
X101032857Y-33712380D02*
X101080476Y-33760000D01*
X101080476Y-33760000D02*
X101175714Y-33807619D01*
X101175714Y-33807619D02*
X101366190Y-33807619D01*
X101366190Y-33807619D02*
X101461428Y-33760000D01*
X101461428Y-33760000D02*
X101509047Y-33712380D01*
X101509047Y-33712380D02*
X101556666Y-33617142D01*
X101556666Y-33617142D02*
X101556666Y-33426666D01*
X101556666Y-33426666D02*
X101509047Y-33331428D01*
X101509047Y-33331428D02*
X101461428Y-33283809D01*
X101461428Y-33283809D02*
X101366190Y-33236190D01*
X91410476Y-32851904D02*
X91886666Y-32851904D01*
X91315238Y-33137619D02*
X91648571Y-32137619D01*
X91648571Y-32137619D02*
X91981904Y-33137619D01*
X92315238Y-33137619D02*
X92315238Y-32137619D01*
X92315238Y-32137619D02*
X92553333Y-32137619D01*
X92553333Y-32137619D02*
X92696190Y-32185238D01*
X92696190Y-32185238D02*
X92791428Y-32280476D01*
X92791428Y-32280476D02*
X92839047Y-32375714D01*
X92839047Y-32375714D02*
X92886666Y-32566190D01*
X92886666Y-32566190D02*
X92886666Y-32709047D01*
X92886666Y-32709047D02*
X92839047Y-32899523D01*
X92839047Y-32899523D02*
X92791428Y-32994761D01*
X92791428Y-32994761D02*
X92696190Y-33090000D01*
X92696190Y-33090000D02*
X92553333Y-33137619D01*
X92553333Y-33137619D02*
X92315238Y-33137619D01*
X93220000Y-32137619D02*
X93886666Y-33137619D01*
X93886666Y-32137619D02*
X93220000Y-33137619D01*
X94743809Y-33137619D02*
X94267619Y-33137619D01*
X94267619Y-33137619D02*
X94267619Y-32137619D01*
X91362857Y-33757619D02*
X91981904Y-33757619D01*
X91981904Y-33757619D02*
X91648571Y-34138571D01*
X91648571Y-34138571D02*
X91791428Y-34138571D01*
X91791428Y-34138571D02*
X91886666Y-34186190D01*
X91886666Y-34186190D02*
X91934285Y-34233809D01*
X91934285Y-34233809D02*
X91981904Y-34329047D01*
X91981904Y-34329047D02*
X91981904Y-34567142D01*
X91981904Y-34567142D02*
X91934285Y-34662380D01*
X91934285Y-34662380D02*
X91886666Y-34710000D01*
X91886666Y-34710000D02*
X91791428Y-34757619D01*
X91791428Y-34757619D02*
X91505714Y-34757619D01*
X91505714Y-34757619D02*
X91410476Y-34710000D01*
X91410476Y-34710000D02*
X91362857Y-34662380D01*
X92315238Y-33757619D02*
X92981904Y-33757619D01*
X92981904Y-33757619D02*
X92553333Y-34757619D01*
X93839047Y-33757619D02*
X93362857Y-33757619D01*
X93362857Y-33757619D02*
X93315238Y-34233809D01*
X93315238Y-34233809D02*
X93362857Y-34186190D01*
X93362857Y-34186190D02*
X93458095Y-34138571D01*
X93458095Y-34138571D02*
X93696190Y-34138571D01*
X93696190Y-34138571D02*
X93791428Y-34186190D01*
X93791428Y-34186190D02*
X93839047Y-34233809D01*
X93839047Y-34233809D02*
X93886666Y-34329047D01*
X93886666Y-34329047D02*
X93886666Y-34567142D01*
X93886666Y-34567142D02*
X93839047Y-34662380D01*
X93839047Y-34662380D02*
X93791428Y-34710000D01*
X93791428Y-34710000D02*
X93696190Y-34757619D01*
X93696190Y-34757619D02*
X93458095Y-34757619D01*
X93458095Y-34757619D02*
X93362857Y-34710000D01*
X93362857Y-34710000D02*
X93315238Y-34662380D01*
X95511428Y-62703809D02*
X95654285Y-62751428D01*
X95654285Y-62751428D02*
X95701904Y-62799047D01*
X95701904Y-62799047D02*
X95749523Y-62894285D01*
X95749523Y-62894285D02*
X95749523Y-63037142D01*
X95749523Y-63037142D02*
X95701904Y-63132380D01*
X95701904Y-63132380D02*
X95654285Y-63180000D01*
X95654285Y-63180000D02*
X95559047Y-63227619D01*
X95559047Y-63227619D02*
X95178095Y-63227619D01*
X95178095Y-63227619D02*
X95178095Y-62227619D01*
X95178095Y-62227619D02*
X95511428Y-62227619D01*
X95511428Y-62227619D02*
X95606666Y-62275238D01*
X95606666Y-62275238D02*
X95654285Y-62322857D01*
X95654285Y-62322857D02*
X95701904Y-62418095D01*
X95701904Y-62418095D02*
X95701904Y-62513333D01*
X95701904Y-62513333D02*
X95654285Y-62608571D01*
X95654285Y-62608571D02*
X95606666Y-62656190D01*
X95606666Y-62656190D02*
X95511428Y-62703809D01*
X95511428Y-62703809D02*
X95178095Y-62703809D01*
X96606666Y-62560952D02*
X96606666Y-63227619D01*
X96178095Y-62560952D02*
X96178095Y-63084761D01*
X96178095Y-63084761D02*
X96225714Y-63180000D01*
X96225714Y-63180000D02*
X96320952Y-63227619D01*
X96320952Y-63227619D02*
X96463809Y-63227619D01*
X96463809Y-63227619D02*
X96559047Y-63180000D01*
X96559047Y-63180000D02*
X96606666Y-63132380D01*
X97511428Y-63180000D02*
X97416190Y-63227619D01*
X97416190Y-63227619D02*
X97225714Y-63227619D01*
X97225714Y-63227619D02*
X97130476Y-63180000D01*
X97130476Y-63180000D02*
X97082857Y-63132380D01*
X97082857Y-63132380D02*
X97035238Y-63037142D01*
X97035238Y-63037142D02*
X97035238Y-62751428D01*
X97035238Y-62751428D02*
X97082857Y-62656190D01*
X97082857Y-62656190D02*
X97130476Y-62608571D01*
X97130476Y-62608571D02*
X97225714Y-62560952D01*
X97225714Y-62560952D02*
X97416190Y-62560952D01*
X97416190Y-62560952D02*
X97511428Y-62608571D01*
X97940000Y-63227619D02*
X97940000Y-62227619D01*
X98035238Y-62846666D02*
X98320952Y-63227619D01*
X98320952Y-62560952D02*
X97940000Y-62941904D01*
X103102857Y-97699523D02*
X103055238Y-97651904D01*
X103055238Y-97651904D02*
X103007619Y-97556666D01*
X103007619Y-97556666D02*
X103007619Y-97318571D01*
X103007619Y-97318571D02*
X103055238Y-97223333D01*
X103055238Y-97223333D02*
X103102857Y-97175714D01*
X103102857Y-97175714D02*
X103198095Y-97128095D01*
X103198095Y-97128095D02*
X103293333Y-97128095D01*
X103293333Y-97128095D02*
X103436190Y-97175714D01*
X103436190Y-97175714D02*
X104007619Y-97747142D01*
X104007619Y-97747142D02*
X104007619Y-97128095D01*
X103007619Y-96509047D02*
X103007619Y-96413809D01*
X103007619Y-96413809D02*
X103055238Y-96318571D01*
X103055238Y-96318571D02*
X103102857Y-96270952D01*
X103102857Y-96270952D02*
X103198095Y-96223333D01*
X103198095Y-96223333D02*
X103388571Y-96175714D01*
X103388571Y-96175714D02*
X103626666Y-96175714D01*
X103626666Y-96175714D02*
X103817142Y-96223333D01*
X103817142Y-96223333D02*
X103912380Y-96270952D01*
X103912380Y-96270952D02*
X103960000Y-96318571D01*
X103960000Y-96318571D02*
X104007619Y-96413809D01*
X104007619Y-96413809D02*
X104007619Y-96509047D01*
X104007619Y-96509047D02*
X103960000Y-96604285D01*
X103960000Y-96604285D02*
X103912380Y-96651904D01*
X103912380Y-96651904D02*
X103817142Y-96699523D01*
X103817142Y-96699523D02*
X103626666Y-96747142D01*
X103626666Y-96747142D02*
X103388571Y-96747142D01*
X103388571Y-96747142D02*
X103198095Y-96699523D01*
X103198095Y-96699523D02*
X103102857Y-96651904D01*
X103102857Y-96651904D02*
X103055238Y-96604285D01*
X103055238Y-96604285D02*
X103007619Y-96509047D01*
X103102857Y-95794761D02*
X103055238Y-95747142D01*
X103055238Y-95747142D02*
X103007619Y-95651904D01*
X103007619Y-95651904D02*
X103007619Y-95413809D01*
X103007619Y-95413809D02*
X103055238Y-95318571D01*
X103055238Y-95318571D02*
X103102857Y-95270952D01*
X103102857Y-95270952D02*
X103198095Y-95223333D01*
X103198095Y-95223333D02*
X103293333Y-95223333D01*
X103293333Y-95223333D02*
X103436190Y-95270952D01*
X103436190Y-95270952D02*
X104007619Y-95842380D01*
X104007619Y-95842380D02*
X104007619Y-95223333D01*
X103007619Y-94889999D02*
X103007619Y-94270952D01*
X103007619Y-94270952D02*
X103388571Y-94604285D01*
X103388571Y-94604285D02*
X103388571Y-94461428D01*
X103388571Y-94461428D02*
X103436190Y-94366190D01*
X103436190Y-94366190D02*
X103483809Y-94318571D01*
X103483809Y-94318571D02*
X103579047Y-94270952D01*
X103579047Y-94270952D02*
X103817142Y-94270952D01*
X103817142Y-94270952D02*
X103912380Y-94318571D01*
X103912380Y-94318571D02*
X103960000Y-94366190D01*
X103960000Y-94366190D02*
X104007619Y-94461428D01*
X104007619Y-94461428D02*
X104007619Y-94747142D01*
X104007619Y-94747142D02*
X103960000Y-94842380D01*
X103960000Y-94842380D02*
X103912380Y-94889999D01*
X102960000Y-93128095D02*
X104245714Y-93985237D01*
X104007619Y-92270952D02*
X104007619Y-92842380D01*
X104007619Y-92556666D02*
X103007619Y-92556666D01*
X103007619Y-92556666D02*
X103150476Y-92651904D01*
X103150476Y-92651904D02*
X103245714Y-92747142D01*
X103245714Y-92747142D02*
X103293333Y-92842380D01*
X103007619Y-91651904D02*
X103007619Y-91556666D01*
X103007619Y-91556666D02*
X103055238Y-91461428D01*
X103055238Y-91461428D02*
X103102857Y-91413809D01*
X103102857Y-91413809D02*
X103198095Y-91366190D01*
X103198095Y-91366190D02*
X103388571Y-91318571D01*
X103388571Y-91318571D02*
X103626666Y-91318571D01*
X103626666Y-91318571D02*
X103817142Y-91366190D01*
X103817142Y-91366190D02*
X103912380Y-91413809D01*
X103912380Y-91413809D02*
X103960000Y-91461428D01*
X103960000Y-91461428D02*
X104007619Y-91556666D01*
X104007619Y-91556666D02*
X104007619Y-91651904D01*
X104007619Y-91651904D02*
X103960000Y-91747142D01*
X103960000Y-91747142D02*
X103912380Y-91794761D01*
X103912380Y-91794761D02*
X103817142Y-91842380D01*
X103817142Y-91842380D02*
X103626666Y-91889999D01*
X103626666Y-91889999D02*
X103388571Y-91889999D01*
X103388571Y-91889999D02*
X103198095Y-91842380D01*
X103198095Y-91842380D02*
X103102857Y-91794761D01*
X103102857Y-91794761D02*
X103055238Y-91747142D01*
X103055238Y-91747142D02*
X103007619Y-91651904D01*
X102960000Y-90175714D02*
X104245714Y-91032856D01*
X103102857Y-89889999D02*
X103055238Y-89842380D01*
X103055238Y-89842380D02*
X103007619Y-89747142D01*
X103007619Y-89747142D02*
X103007619Y-89509047D01*
X103007619Y-89509047D02*
X103055238Y-89413809D01*
X103055238Y-89413809D02*
X103102857Y-89366190D01*
X103102857Y-89366190D02*
X103198095Y-89318571D01*
X103198095Y-89318571D02*
X103293333Y-89318571D01*
X103293333Y-89318571D02*
X103436190Y-89366190D01*
X103436190Y-89366190D02*
X104007619Y-89937618D01*
X104007619Y-89937618D02*
X104007619Y-89318571D01*
X103007619Y-88985237D02*
X103007619Y-88366190D01*
X103007619Y-88366190D02*
X103388571Y-88699523D01*
X103388571Y-88699523D02*
X103388571Y-88556666D01*
X103388571Y-88556666D02*
X103436190Y-88461428D01*
X103436190Y-88461428D02*
X103483809Y-88413809D01*
X103483809Y-88413809D02*
X103579047Y-88366190D01*
X103579047Y-88366190D02*
X103817142Y-88366190D01*
X103817142Y-88366190D02*
X103912380Y-88413809D01*
X103912380Y-88413809D02*
X103960000Y-88461428D01*
X103960000Y-88461428D02*
X104007619Y-88556666D01*
X104007619Y-88556666D02*
X104007619Y-88842380D01*
X104007619Y-88842380D02*
X103960000Y-88937618D01*
X103960000Y-88937618D02*
X103912380Y-88985237D01*
D12*
%TO.C,U5*%
X86260000Y-24675000D02*
X86260000Y-24215000D01*
X86260000Y-24215000D02*
X86640000Y-24215000D01*
%TO.C,U4*%
X90630000Y-27775000D02*
X90630000Y-27065000D01*
X90630000Y-27065000D02*
X91190000Y-27065000D01*
%TO.C,U3*%
X99600000Y-30660000D02*
X98800000Y-30660000D01*
X99600000Y-29760000D02*
X99600000Y-30660000D01*
D13*
%TO.C,Q9*%
X120500000Y-64407500D02*
X118825000Y-64407500D01*
X120500000Y-64407500D02*
X121150000Y-64407500D01*
X120500000Y-67527500D02*
X119850000Y-67527500D01*
X120500000Y-67527500D02*
X121150000Y-67527500D01*
%TO.C,D12*%
X84855000Y-72265000D02*
X84855000Y-73735000D01*
X84855000Y-73735000D02*
X87140000Y-73735000D01*
X87140000Y-72265000D02*
X84855000Y-72265000D01*
%TO.C,R3*%
X87106359Y-40110000D02*
X87413641Y-40110000D01*
X87106359Y-40870000D02*
X87413641Y-40870000D01*
%TO.C,D8*%
X84855000Y-79765000D02*
X84855000Y-81235000D01*
X84855000Y-81235000D02*
X87140000Y-81235000D01*
X87140000Y-79765000D02*
X84855000Y-79765000D01*
%TO.C,Q2*%
X90000000Y-89940000D02*
X88325000Y-89940000D01*
X90000000Y-89940000D02*
X90650000Y-89940000D01*
X90000000Y-93060000D02*
X89350000Y-93060000D01*
X90000000Y-93060000D02*
X90650000Y-93060000D01*
%TO.C,R18*%
X110462500Y-56652742D02*
X110462500Y-57127258D01*
X109417500Y-56652742D02*
X109417500Y-57127258D01*
%TO.C,R14*%
X105180000Y-79246359D02*
X105180000Y-79553641D01*
X104420000Y-79246359D02*
X104420000Y-79553641D01*
%TO.C,Q1*%
X107000000Y-59300000D02*
X108675000Y-59300000D01*
X107000000Y-59300000D02*
X106350000Y-59300000D01*
X107000000Y-56180000D02*
X107650000Y-56180000D01*
X107000000Y-56180000D02*
X106350000Y-56180000D01*
%TO.C,D9*%
X84855000Y-89515000D02*
X84855000Y-90985000D01*
X84855000Y-90985000D02*
X87140000Y-90985000D01*
X87140000Y-89515000D02*
X84855000Y-89515000D01*
%TO.C,D2*%
X113045000Y-37815000D02*
X113045000Y-36345000D01*
X113045000Y-36345000D02*
X110760000Y-36345000D01*
X110760000Y-37815000D02*
X113045000Y-37815000D01*
%TO.C,R13*%
X105180000Y-77146359D02*
X105180000Y-77453641D01*
X104420000Y-77146359D02*
X104420000Y-77453641D01*
%TO.C,R9*%
X101820000Y-78753641D02*
X101820000Y-78446359D01*
X102580000Y-78753641D02*
X102580000Y-78446359D01*
%TO.C,R19*%
X116446359Y-47802500D02*
X116753641Y-47802500D01*
X116446359Y-48562500D02*
X116753641Y-48562500D01*
%TO.C,D10*%
X84855000Y-83765000D02*
X84855000Y-85235000D01*
X84855000Y-85235000D02*
X87140000Y-85235000D01*
X87140000Y-83765000D02*
X84855000Y-83765000D01*
%TO.C,R2*%
X89587258Y-46630000D02*
X89112742Y-46630000D01*
X89587258Y-45585000D02*
X89112742Y-45585000D01*
%TO.C,R59*%
X120506359Y-71120000D02*
X120813641Y-71120000D01*
X120506359Y-71880000D02*
X120813641Y-71880000D01*
%TO.C,C10*%
X86107836Y-48142500D02*
X85892164Y-48142500D01*
X86107836Y-47422500D02*
X85892164Y-47422500D01*
%TO.C,R22*%
X111576359Y-69240000D02*
X111883641Y-69240000D01*
X111576359Y-70000000D02*
X111883641Y-70000000D01*
%TO.C,C1*%
X101420000Y-26349420D02*
X101420000Y-26630580D01*
X100400000Y-26349420D02*
X100400000Y-26630580D01*
%TO.C,R23*%
X107920000Y-62686141D02*
X107920000Y-62378859D01*
X108680000Y-62686141D02*
X108680000Y-62378859D01*
%TO.C,C8*%
X92392164Y-25510000D02*
X92607836Y-25510000D01*
X92392164Y-26230000D02*
X92607836Y-26230000D01*
%TO.C,C15*%
X94557836Y-55430000D02*
X94342164Y-55430000D01*
X94557836Y-54710000D02*
X94342164Y-54710000D01*
%TO.C,R47*%
X86186359Y-88370000D02*
X86493641Y-88370000D01*
X86186359Y-89130000D02*
X86493641Y-89130000D01*
%TO.C,R15*%
X102580000Y-72146359D02*
X102580000Y-72453641D01*
X101820000Y-72146359D02*
X101820000Y-72453641D01*
%TO.C,R35*%
X104420000Y-81853641D02*
X104420000Y-81546359D01*
X105180000Y-81853641D02*
X105180000Y-81546359D01*
%TO.C,FB2*%
X100400000Y-65440378D02*
X100400000Y-66239622D01*
X99280000Y-65440378D02*
X99280000Y-66239622D01*
%TO.C,D4*%
X122145000Y-75485000D02*
X122145000Y-74015000D01*
X122145000Y-74015000D02*
X119860000Y-74015000D01*
X119860000Y-75485000D02*
X122145000Y-75485000D01*
%TO.C,R21*%
X118112258Y-36092500D02*
X117637742Y-36092500D01*
X118112258Y-35047500D02*
X117637742Y-35047500D01*
%TO.C,R53*%
X91660000Y-20033641D02*
X91660000Y-19726359D01*
X92420000Y-20033641D02*
X92420000Y-19726359D01*
%TO.C,C25*%
X114140000Y-37972164D02*
X114140000Y-38187836D01*
X113420000Y-37972164D02*
X113420000Y-38187836D01*
%TO.C,FB1*%
X86699622Y-50892500D02*
X85900378Y-50892500D01*
X86699622Y-49772500D02*
X85900378Y-49772500D01*
%TO.C,J8*%
X117110000Y-56300000D02*
X122830000Y-56300000D01*
X122830000Y-56300000D02*
X122830000Y-52815000D01*
X117110000Y-55230000D02*
X117110000Y-56300000D01*
X117410000Y-55230000D02*
X117110000Y-55230000D01*
X116820000Y-54940000D02*
X116820000Y-55440000D01*
X117120000Y-54940000D02*
X116820000Y-54940000D01*
X117410000Y-52815000D02*
X117410000Y-55230000D01*
X117410000Y-52815000D02*
X117410000Y-50400000D01*
X117110000Y-50400000D02*
X117110000Y-49330000D01*
X117410000Y-50400000D02*
X117110000Y-50400000D01*
X117110000Y-49330000D02*
X122830000Y-49330000D01*
X122830000Y-49330000D02*
X122830000Y-52815000D01*
%TO.C,C16*%
X89840000Y-49515336D02*
X89840000Y-49299664D01*
X90560000Y-49515336D02*
X90560000Y-49299664D01*
%TO.C,C18*%
X109807836Y-68830000D02*
X109592164Y-68830000D01*
X109807836Y-68110000D02*
X109592164Y-68110000D01*
%TO.C,R37*%
X120506359Y-75770000D02*
X120813641Y-75770000D01*
X120506359Y-76530000D02*
X120813641Y-76530000D01*
%TO.C,C3*%
X89590000Y-24362164D02*
X89590000Y-24577836D01*
X88870000Y-24362164D02*
X88870000Y-24577836D01*
%TO.C,R46*%
X109823641Y-44730000D02*
X109516359Y-44730000D01*
X109823641Y-43970000D02*
X109516359Y-43970000D01*
%TO.C,R17*%
X112363641Y-46230000D02*
X112056359Y-46230000D01*
X112363641Y-45470000D02*
X112056359Y-45470000D01*
%TO.C,R58*%
X86186359Y-71120000D02*
X86493641Y-71120000D01*
X86186359Y-71880000D02*
X86493641Y-71880000D01*
%TO.C,D13*%
X122145000Y-73735000D02*
X122145000Y-72265000D01*
X122145000Y-72265000D02*
X119860000Y-72265000D01*
X119860000Y-73735000D02*
X122145000Y-73735000D01*
%TO.C,U1*%
X92590000Y-38472500D02*
X92590000Y-39172500D01*
X92590000Y-39172500D02*
X91225000Y-39172500D01*
X92590000Y-52692500D02*
X92590000Y-51992500D01*
X93290000Y-38472500D02*
X92590000Y-38472500D01*
X93290000Y-52692500D02*
X92590000Y-52692500D01*
X106110000Y-38472500D02*
X106810000Y-38472500D01*
X106110000Y-52692500D02*
X106810000Y-52692500D01*
X106810000Y-38472500D02*
X106810000Y-39172500D01*
X106810000Y-52692500D02*
X106810000Y-51992500D01*
%TO.C,D5*%
X122145000Y-81235000D02*
X122145000Y-79765000D01*
X122145000Y-79765000D02*
X119860000Y-79765000D01*
X119860000Y-81235000D02*
X122145000Y-81235000D01*
%TO.C,C7*%
X90690000Y-36810580D02*
X90690000Y-36529420D01*
X91710000Y-36810580D02*
X91710000Y-36529420D01*
%TO.C,R39*%
X86493641Y-76530000D02*
X86186359Y-76530000D01*
X86493641Y-75770000D02*
X86186359Y-75770000D01*
%TO.C,C29*%
X86107836Y-52180000D02*
X85892164Y-52180000D01*
X86107836Y-51460000D02*
X85892164Y-51460000D01*
%TO.C,R27*%
X117803641Y-33812500D02*
X117496359Y-33812500D01*
X117803641Y-33052500D02*
X117496359Y-33052500D01*
%TO.C,R38*%
X120506359Y-81520000D02*
X120813641Y-81520000D01*
X120506359Y-82280000D02*
X120813641Y-82280000D01*
%TO.C,R33*%
X88276359Y-81520000D02*
X88583641Y-81520000D01*
X88276359Y-82280000D02*
X88583641Y-82280000D01*
%TO.C,R44*%
X90796359Y-62490000D02*
X91103641Y-62490000D01*
X90796359Y-63250000D02*
X91103641Y-63250000D01*
%TO.C,R1*%
X120146359Y-63140000D02*
X120453641Y-63140000D01*
X120146359Y-63900000D02*
X120453641Y-63900000D01*
%TO.C,R40*%
X86493641Y-88030000D02*
X86186359Y-88030000D01*
X86493641Y-87270000D02*
X86186359Y-87270000D01*
%TO.C,R42*%
X88062742Y-62497500D02*
X88537258Y-62497500D01*
X88062742Y-63542500D02*
X88537258Y-63542500D01*
%TO.C,J7*%
X117915000Y-46902500D02*
X119835000Y-46902500D01*
X123550000Y-46902500D02*
X121845000Y-46902500D01*
X119835000Y-37742500D02*
X117915000Y-37742500D01*
X121845000Y-37742500D02*
X123550000Y-37742500D01*
X123550000Y-37742500D02*
X123550000Y-46902500D01*
%TO.C,R30*%
X118373641Y-76170000D02*
X118066359Y-76170000D01*
X118373641Y-75410000D02*
X118066359Y-75410000D01*
%TO.C,R12*%
X105180000Y-74246359D02*
X105180000Y-74553641D01*
X104420000Y-74246359D02*
X104420000Y-74553641D01*
%TO.C,C12*%
X109520000Y-38932164D02*
X109520000Y-39147836D01*
X108800000Y-38932164D02*
X108800000Y-39147836D01*
%TO.C,J6*%
X101690000Y-24380000D02*
X101690000Y-18660000D01*
X101690000Y-18660000D02*
X98205000Y-18660000D01*
X100620000Y-24380000D02*
X101690000Y-24380000D01*
X100620000Y-24080000D02*
X100620000Y-24380000D01*
X100330000Y-24670000D02*
X100830000Y-24670000D01*
X100330000Y-24370000D02*
X100330000Y-24670000D01*
X98205000Y-24080000D02*
X100620000Y-24080000D01*
X98205000Y-24080000D02*
X95790000Y-24080000D01*
X95790000Y-24380000D02*
X94720000Y-24380000D01*
X95790000Y-24080000D02*
X95790000Y-24380000D01*
X94720000Y-24380000D02*
X94720000Y-18660000D01*
X94720000Y-18660000D02*
X98205000Y-18660000D01*
%TO.C,R48*%
X92870000Y-22233641D02*
X92870000Y-21926359D01*
X93630000Y-22233641D02*
X93630000Y-21926359D01*
%TO.C,R8*%
X101820000Y-81853641D02*
X101820000Y-81546359D01*
X102580000Y-81853641D02*
X102580000Y-81546359D01*
%TO.C,D14*%
X122145000Y-79485000D02*
X122145000Y-78015000D01*
X122145000Y-78015000D02*
X119860000Y-78015000D01*
X119860000Y-79485000D02*
X122145000Y-79485000D01*
%TO.C,D11*%
X84855000Y-78015000D02*
X84855000Y-79485000D01*
X84855000Y-79485000D02*
X87140000Y-79485000D01*
X87140000Y-78015000D02*
X84855000Y-78015000D01*
%TO.C,Q7*%
X117000000Y-81060000D02*
X118675000Y-81060000D01*
X117000000Y-81060000D02*
X116350000Y-81060000D01*
X117000000Y-77940000D02*
X117650000Y-77940000D01*
X117000000Y-77940000D02*
X116350000Y-77940000D01*
%TO.C,C9*%
X89740000Y-41640336D02*
X89740000Y-41424664D01*
X90460000Y-41640336D02*
X90460000Y-41424664D01*
%TO.C,D3*%
X84855000Y-91265000D02*
X84855000Y-92735000D01*
X84855000Y-92735000D02*
X87140000Y-92735000D01*
X87140000Y-91265000D02*
X84855000Y-91265000D01*
%TO.C,C4*%
X84840000Y-25447836D02*
X84840000Y-25232164D01*
X85560000Y-25447836D02*
X85560000Y-25232164D01*
%TO.C,R49*%
X92870000Y-20033641D02*
X92870000Y-19726359D01*
X93630000Y-20033641D02*
X93630000Y-19726359D01*
%TO.C,C24*%
X88340000Y-49648080D02*
X88340000Y-49366920D01*
X89360000Y-49648080D02*
X89360000Y-49366920D01*
%TO.C,R16*%
X102580000Y-74246359D02*
X102580000Y-74553641D01*
X101820000Y-74246359D02*
X101820000Y-74553641D01*
%TO.C,U2*%
X111650000Y-43392500D02*
X113450000Y-43392500D01*
X111650000Y-43392500D02*
X110850000Y-43392500D01*
X111650000Y-40272500D02*
X112450000Y-40272500D01*
X111650000Y-40272500D02*
X110850000Y-40272500D01*
%TO.C,J10*%
X115605000Y-34717500D02*
X104345000Y-34717500D01*
X115605000Y-33557500D02*
X115605000Y-34717500D01*
X115605000Y-30307500D02*
X115605000Y-24707500D01*
X102845000Y-34717500D02*
X102735000Y-34717500D01*
X102735000Y-34717500D02*
X102735000Y-32907500D01*
X102735000Y-31007500D02*
X102735000Y-24707500D01*
%TO.C,R28*%
X100627500Y-62357258D02*
X100627500Y-61882742D01*
X101672500Y-62357258D02*
X101672500Y-61882742D01*
%TO.C,R20*%
X120862742Y-35047500D02*
X121337258Y-35047500D01*
X120862742Y-36092500D02*
X121337258Y-36092500D01*
%TO.C,C20*%
X87938748Y-68997500D02*
X88461252Y-68997500D01*
X87938748Y-70467500D02*
X88461252Y-70467500D01*
%TO.C,R4*%
X102846359Y-86820000D02*
X103153641Y-86820000D01*
X102846359Y-87580000D02*
X103153641Y-87580000D01*
%TO.C,Y1*%
X87675000Y-43082500D02*
X84375000Y-43082500D01*
X84375000Y-43082500D02*
X84375000Y-47082500D01*
%TO.C,R31*%
X118693641Y-82290000D02*
X118386359Y-82290000D01*
X118693641Y-81530000D02*
X118386359Y-81530000D01*
%TO.C,R36*%
X89173641Y-89540000D02*
X88866359Y-89540000D01*
X89173641Y-88780000D02*
X88866359Y-88780000D01*
%TO.C,R52*%
X91660000Y-22233641D02*
X91660000Y-21926359D01*
X92420000Y-22233641D02*
X92420000Y-21926359D01*
%TO.C,R41*%
X86493641Y-82280000D02*
X86186359Y-82280000D01*
X86493641Y-81520000D02*
X86186359Y-81520000D01*
%TO.C,Q6*%
X117000000Y-75060000D02*
X118675000Y-75060000D01*
X117000000Y-75060000D02*
X116350000Y-75060000D01*
X117000000Y-71940000D02*
X117650000Y-71940000D01*
X117000000Y-71940000D02*
X116350000Y-71940000D01*
%TO.C,C21*%
X108885000Y-65358748D02*
X108885000Y-65881252D01*
X107415000Y-65358748D02*
X107415000Y-65881252D01*
%TO.C,C23*%
X105155000Y-62231252D02*
X105155000Y-61708748D01*
X106625000Y-62231252D02*
X106625000Y-61708748D01*
%TO.C,R56*%
X86186359Y-82620000D02*
X86493641Y-82620000D01*
X86186359Y-83380000D02*
X86493641Y-83380000D01*
%TO.C,L2*%
X90460000Y-68492500D02*
X90460000Y-68342500D01*
X90460000Y-68492500D02*
X85940000Y-68492500D01*
X90460000Y-63972500D02*
X90460000Y-64122500D01*
X90460000Y-63972500D02*
X85940000Y-63972500D01*
X85940000Y-68492500D02*
X85940000Y-68342500D01*
X85940000Y-63972500D02*
X85940000Y-64122500D01*
%TO.C,R57*%
X86186359Y-76870000D02*
X86493641Y-76870000D01*
X86186359Y-77630000D02*
X86493641Y-77630000D01*
%TO.C,C17*%
X114638748Y-68585000D02*
X115161252Y-68585000D01*
X114638748Y-70055000D02*
X115161252Y-70055000D01*
%TO.C,R45*%
X112033641Y-44730000D02*
X111726359Y-44730000D01*
X112033641Y-43970000D02*
X111726359Y-43970000D01*
%TO.C,J9*%
X117140000Y-32467500D02*
X122860000Y-32467500D01*
X122860000Y-32467500D02*
X122860000Y-28982500D01*
X117140000Y-31397500D02*
X117140000Y-32467500D01*
X117440000Y-31397500D02*
X117140000Y-31397500D01*
X116850000Y-31107500D02*
X116850000Y-31607500D01*
X117150000Y-31107500D02*
X116850000Y-31107500D01*
X117440000Y-28982500D02*
X117440000Y-31397500D01*
X117440000Y-28982500D02*
X117440000Y-26567500D01*
X117140000Y-26567500D02*
X117140000Y-25497500D01*
X117440000Y-26567500D02*
X117140000Y-26567500D01*
X117140000Y-25497500D02*
X122860000Y-25497500D01*
X122860000Y-25497500D02*
X122860000Y-28982500D01*
%TO.C,L1*%
X113840000Y-67692500D02*
X113990000Y-67692500D01*
X113840000Y-67692500D02*
X113840000Y-63172500D01*
X118360000Y-67692500D02*
X118210000Y-67692500D01*
X118360000Y-67692500D02*
X118360000Y-63172500D01*
X113840000Y-63172500D02*
X113990000Y-63172500D01*
X118360000Y-63172500D02*
X118210000Y-63172500D01*
%TO.C,R32*%
X88286359Y-75770000D02*
X88593641Y-75770000D01*
X88286359Y-76530000D02*
X88593641Y-76530000D01*
%TO.C,R7*%
X101820000Y-83953641D02*
X101820000Y-83646359D01*
X102580000Y-83953641D02*
X102580000Y-83646359D01*
%TO.C,Q4*%
X111010000Y-59000000D02*
X109335000Y-59000000D01*
X111010000Y-59000000D02*
X111660000Y-59000000D01*
X111010000Y-62120000D02*
X110360000Y-62120000D01*
X111010000Y-62120000D02*
X111660000Y-62120000D01*
%TO.C,R50*%
X89140000Y-22203641D02*
X89140000Y-21896359D01*
X89900000Y-22203641D02*
X89900000Y-21896359D01*
%TO.C,R55*%
X90390000Y-20033641D02*
X90390000Y-19726359D01*
X91150000Y-20033641D02*
X91150000Y-19726359D01*
%TO.C,R10*%
X101820000Y-76653641D02*
X101820000Y-76346359D01*
X102580000Y-76653641D02*
X102580000Y-76346359D01*
%TO.C,Q5*%
X90000000Y-77940000D02*
X88325000Y-77940000D01*
X90000000Y-77940000D02*
X90650000Y-77940000D01*
X90000000Y-81060000D02*
X89350000Y-81060000D01*
X90000000Y-81060000D02*
X90650000Y-81060000D01*
%TO.C,D6*%
X84855000Y-74015000D02*
X84855000Y-75485000D01*
X84855000Y-75485000D02*
X87140000Y-75485000D01*
X87140000Y-74015000D02*
X84855000Y-74015000D01*
%TO.C,R5*%
X109546359Y-69240000D02*
X109853641Y-69240000D01*
X109546359Y-70000000D02*
X109853641Y-70000000D01*
%TO.C,C19*%
X95340000Y-65710580D02*
X95340000Y-65429420D01*
X96360000Y-65710580D02*
X96360000Y-65429420D01*
%TO.C,F1*%
X97070000Y-67228578D02*
X97070000Y-66711422D01*
X98490000Y-67228578D02*
X98490000Y-66711422D01*
%TO.C,R6*%
X103153641Y-86460000D02*
X102846359Y-86460000D01*
X103153641Y-85700000D02*
X102846359Y-85700000D01*
%TO.C,R29*%
X90016359Y-82678000D02*
X90323641Y-82678000D01*
X90016359Y-83438000D02*
X90323641Y-83438000D01*
%TO.C,U8*%
X113175000Y-63932500D02*
X113175000Y-64907500D01*
X109925000Y-63932500D02*
X110150000Y-63932500D01*
X109925000Y-63932500D02*
X109925000Y-64907500D01*
X113175000Y-66207500D02*
X113175000Y-67182500D01*
X109925000Y-66207500D02*
X109925000Y-67182500D01*
X112950000Y-67182500D02*
X113175000Y-67182500D01*
X110150000Y-67182500D02*
X109925000Y-67182500D01*
%TO.C,J5*%
X89920000Y-31230000D02*
X84200000Y-31230000D01*
X84200000Y-31230000D02*
X84200000Y-35340000D01*
X89920000Y-32300000D02*
X89920000Y-31230000D01*
X89620000Y-32300000D02*
X89920000Y-32300000D01*
X90210000Y-32590000D02*
X90210000Y-32090000D01*
X89910000Y-32590000D02*
X90210000Y-32590000D01*
X89620000Y-35340000D02*
X89620000Y-32300000D01*
X89620000Y-35340000D02*
X89620000Y-38380000D01*
X89920000Y-38380000D02*
X89920000Y-39450000D01*
X89620000Y-38380000D02*
X89920000Y-38380000D01*
X89920000Y-39450000D02*
X84200000Y-39450000D01*
X84200000Y-39450000D02*
X84200000Y-35340000D01*
%TO.C,R11*%
X105180000Y-72146359D02*
X105180000Y-72453641D01*
X104420000Y-72146359D02*
X104420000Y-72453641D01*
%TO.C,C28*%
X117580000Y-22129420D02*
X117580000Y-22410580D01*
X116560000Y-22129420D02*
X116560000Y-22410580D01*
%TO.C,R51*%
X89140000Y-20003641D02*
X89140000Y-19696359D01*
X89900000Y-20003641D02*
X89900000Y-19696359D01*
%TO.C,Q3*%
X90000000Y-83940000D02*
X88325000Y-83940000D01*
X90000000Y-83940000D02*
X90650000Y-83940000D01*
X90000000Y-87060000D02*
X89350000Y-87060000D01*
X90000000Y-87060000D02*
X90650000Y-87060000D01*
%TO.C,D1*%
X113685000Y-48005000D02*
X113685000Y-46535000D01*
X113685000Y-46535000D02*
X111400000Y-46535000D01*
X111400000Y-48005000D02*
X113685000Y-48005000D01*
%TO.C,C13*%
X105582836Y-55380000D02*
X105367164Y-55380000D01*
X105582836Y-54660000D02*
X105367164Y-54660000D01*
%TO.C,D7*%
X84855000Y-85515000D02*
X84855000Y-86985000D01*
X84855000Y-86985000D02*
X87140000Y-86985000D01*
X87140000Y-85515000D02*
X84855000Y-85515000D01*
%TO.C,U7*%
X85775000Y-59745000D02*
X86035000Y-59745000D01*
X86035000Y-59745000D02*
X86035000Y-61420000D01*
X91225000Y-59745000D02*
X90965000Y-59745000D01*
X85775000Y-57020000D02*
X85775000Y-59745000D01*
X85775000Y-57020000D02*
X85775000Y-54295000D01*
X91225000Y-57020000D02*
X91225000Y-59745000D01*
X91225000Y-57020000D02*
X91225000Y-54295000D01*
X85775000Y-54295000D02*
X86035000Y-54295000D01*
X91225000Y-54295000D02*
X90965000Y-54295000D01*
%TO.C,C2*%
X100340000Y-29790336D02*
X100340000Y-29574664D01*
X101060000Y-29790336D02*
X101060000Y-29574664D01*
%TO.C,R26*%
X117933641Y-24860000D02*
X117626359Y-24860000D01*
X117933641Y-24100000D02*
X117626359Y-24100000D01*
%TO.C,C22*%
X106635000Y-65358748D02*
X106635000Y-65881252D01*
X105165000Y-65358748D02*
X105165000Y-65881252D01*
%TO.C,R24*%
X111943641Y-38855000D02*
X111636359Y-38855000D01*
X111943641Y-38095000D02*
X111636359Y-38095000D01*
%TO.C,C6*%
X85942164Y-42022500D02*
X86157836Y-42022500D01*
X85942164Y-42742500D02*
X86157836Y-42742500D01*
%TO.C,R54*%
X90390000Y-22203641D02*
X90390000Y-21896359D01*
X91150000Y-22203641D02*
X91150000Y-21896359D01*
%TO.C,C5*%
X93207836Y-31380000D02*
X92992164Y-31380000D01*
X93207836Y-30660000D02*
X92992164Y-30660000D01*
%TO.C,R34*%
X90856359Y-88790000D02*
X91163641Y-88790000D01*
X90856359Y-89550000D02*
X91163641Y-89550000D01*
%TO.C,R43*%
X92896359Y-62490000D02*
X93203641Y-62490000D01*
X92896359Y-63250000D02*
X93203641Y-63250000D01*
%TO.C,C11*%
X92190000Y-36927836D02*
X92190000Y-36712164D01*
X92910000Y-36927836D02*
X92910000Y-36712164D01*
%TO.C,R25*%
X104420000Y-83953641D02*
X104420000Y-83646359D01*
X105180000Y-83953641D02*
X105180000Y-83646359D01*
%TO.C,U9*%
X92850000Y-66930000D02*
X94650000Y-66930000D01*
X92850000Y-66930000D02*
X92050000Y-66930000D01*
X92850000Y-63810000D02*
X93650000Y-63810000D01*
X92850000Y-63810000D02*
X92050000Y-63810000D01*
%TO.C,R60*%
X120506359Y-76870000D02*
X120813641Y-76870000D01*
X120506359Y-77630000D02*
X120813641Y-77630000D01*
%TO.C,C14*%
X89790000Y-44065336D02*
X89790000Y-43849664D01*
X90510000Y-44065336D02*
X90510000Y-43849664D01*
%TO.C,D15*%
X96360000Y-69470000D02*
X96360000Y-67470000D01*
X96360000Y-69470000D02*
X92350000Y-69470000D01*
X96360000Y-67470000D02*
X92350000Y-67470000D01*
%TO.C,Q8*%
X90000000Y-71940000D02*
X88325000Y-71940000D01*
X90000000Y-71940000D02*
X90650000Y-71940000D01*
X90000000Y-75060000D02*
X89350000Y-75060000D01*
X90000000Y-75060000D02*
X90650000Y-75060000D01*
%TD*%
%LPC*%
D14*
%TO.C,U5*%
X86537500Y-25002500D03*
X86537500Y-25502500D03*
D15*
X86800000Y-26015000D03*
X87300000Y-26015000D03*
X87800000Y-26015000D03*
D14*
X88062500Y-25502500D03*
X88062500Y-25002500D03*
D15*
X87800000Y-24490000D03*
X87300000Y-24490000D03*
X86800000Y-24490000D03*
%TD*%
D16*
%TO.C,U4*%
X91490000Y-27380000D03*
X91990000Y-27380000D03*
X92490000Y-27380000D03*
X92990000Y-27380000D03*
X93490000Y-27380000D03*
X93990000Y-27380000D03*
X94490000Y-27380000D03*
D17*
X95002500Y-28642500D03*
D16*
X94490000Y-29905000D03*
X93990000Y-29905000D03*
X93490000Y-29905000D03*
X92990000Y-29905000D03*
X92490000Y-29905000D03*
X91990000Y-29905000D03*
X91490000Y-29905000D03*
D17*
X90977500Y-28642500D03*
%TD*%
D18*
%TO.C,U3*%
X98900000Y-30010000D03*
X98900000Y-29210000D03*
X98900000Y-28410000D03*
X98900000Y-27610000D03*
X98900000Y-26810000D03*
X98900000Y-26010000D03*
D19*
X97802500Y-25912500D03*
D18*
X96705000Y-26010000D03*
X96705000Y-26810000D03*
X96705000Y-27610000D03*
X96705000Y-28410000D03*
X96705000Y-29210000D03*
X96705000Y-30010000D03*
D19*
X97802500Y-30107500D03*
%TD*%
D20*
%TO.C,Q9*%
X119562500Y-65017500D03*
X119562500Y-66917500D03*
X121437500Y-65967500D03*
%TD*%
D21*
%TO.C,D12*%
X85552500Y-73000000D03*
X87127500Y-73000000D03*
%TD*%
D22*
%TO.C,R3*%
X86750000Y-40490000D03*
X87770000Y-40490000D03*
%TD*%
D21*
%TO.C,D8*%
X85552500Y-80500000D03*
X87127500Y-80500000D03*
%TD*%
D20*
%TO.C,Q2*%
X89062500Y-90550000D03*
X89062500Y-92450000D03*
X90937500Y-91500000D03*
%TD*%
D23*
%TO.C,R18*%
X109940000Y-56065000D03*
X109940000Y-57715000D03*
%TD*%
D24*
%TO.C,R14*%
X104800000Y-78890000D03*
X104800000Y-79910000D03*
%TD*%
D25*
%TO.C,Q1*%
X107937500Y-58690000D03*
X107937500Y-56790000D03*
X106062500Y-57740000D03*
%TD*%
D21*
%TO.C,D9*%
X85552500Y-90250000D03*
X87127500Y-90250000D03*
%TD*%
D26*
%TO.C,D2*%
X112347500Y-37080000D03*
X110772500Y-37080000D03*
%TD*%
D24*
%TO.C,R13*%
X104800000Y-76790000D03*
X104800000Y-77810000D03*
%TD*%
D27*
%TO.C,R9*%
X102200000Y-79110000D03*
X102200000Y-78090000D03*
%TD*%
D22*
%TO.C,R19*%
X116090000Y-48182500D03*
X117110000Y-48182500D03*
%TD*%
D21*
%TO.C,D10*%
X85552500Y-84500000D03*
X87127500Y-84500000D03*
%TD*%
D28*
%TO.C,R2*%
X90175000Y-46107500D03*
X88525000Y-46107500D03*
%TD*%
D22*
%TO.C,R59*%
X120150000Y-71500000D03*
X121170000Y-71500000D03*
%TD*%
D29*
%TO.C,C10*%
X86480000Y-47782500D03*
X85520000Y-47782500D03*
%TD*%
D22*
%TO.C,R22*%
X111220000Y-69620000D03*
X112240000Y-69620000D03*
%TD*%
D30*
%TO.C,C1*%
X100910000Y-25715000D03*
X100910000Y-27265000D03*
%TD*%
D27*
%TO.C,R23*%
X108300000Y-63042500D03*
X108300000Y-62022500D03*
%TD*%
D31*
%TO.C,C8*%
X92020000Y-25870000D03*
X92980000Y-25870000D03*
%TD*%
D29*
%TO.C,C15*%
X94930000Y-55070000D03*
X93970000Y-55070000D03*
%TD*%
D22*
%TO.C,R47*%
X85830000Y-88750000D03*
X86850000Y-88750000D03*
%TD*%
D24*
%TO.C,R15*%
X102200000Y-71790000D03*
X102200000Y-72810000D03*
%TD*%
D27*
%TO.C,R35*%
X104800000Y-82210000D03*
X104800000Y-81190000D03*
%TD*%
D32*
%TO.C,FB2*%
X99840000Y-64777500D03*
X99840000Y-66902500D03*
%TD*%
D26*
%TO.C,D4*%
X121447500Y-74750000D03*
X119872500Y-74750000D03*
%TD*%
D28*
%TO.C,R21*%
X118700000Y-35570000D03*
X117050000Y-35570000D03*
%TD*%
D27*
%TO.C,R53*%
X92040000Y-20390000D03*
X92040000Y-19370000D03*
%TD*%
D33*
%TO.C,C25*%
X113780000Y-37600000D03*
X113780000Y-38560000D03*
%TD*%
D34*
%TO.C,FB1*%
X87362500Y-50332500D03*
X85237500Y-50332500D03*
%TD*%
D35*
%TO.C,J8*%
X118270000Y-54690000D03*
D36*
X118270000Y-53440000D03*
X118270000Y-52190000D03*
X118270000Y-50940000D03*
%TD*%
D37*
%TO.C,C16*%
X90200000Y-49887500D03*
X90200000Y-48927500D03*
%TD*%
D29*
%TO.C,C18*%
X110180000Y-68470000D03*
X109220000Y-68470000D03*
%TD*%
D22*
%TO.C,R37*%
X120150000Y-76150000D03*
X121170000Y-76150000D03*
%TD*%
D33*
%TO.C,C3*%
X89230000Y-23990000D03*
X89230000Y-24950000D03*
%TD*%
D38*
%TO.C,R46*%
X110180000Y-44350000D03*
X109160000Y-44350000D03*
%TD*%
%TO.C,R17*%
X112720000Y-45850000D03*
X111700000Y-45850000D03*
%TD*%
D22*
%TO.C,R58*%
X85830000Y-71500000D03*
X86850000Y-71500000D03*
%TD*%
D26*
%TO.C,D13*%
X121447500Y-73000000D03*
X119872500Y-73000000D03*
%TD*%
D39*
%TO.C,U1*%
X92025000Y-39582500D03*
X92025000Y-40082500D03*
X92025000Y-40582500D03*
X92025000Y-41082500D03*
X92025000Y-41582500D03*
X92025000Y-42082500D03*
X92025000Y-42582500D03*
X92025000Y-43082500D03*
X92025000Y-43582500D03*
X92025000Y-44082500D03*
X92025000Y-44582500D03*
X92025000Y-45082500D03*
X92025000Y-45582500D03*
X92025000Y-46082500D03*
X92025000Y-46582500D03*
X92025000Y-47082500D03*
X92025000Y-47582500D03*
X92025000Y-48082500D03*
X92025000Y-48582500D03*
X92025000Y-49082500D03*
X92025000Y-49582500D03*
X92025000Y-50082500D03*
X92025000Y-50582500D03*
X92025000Y-51082500D03*
X92025000Y-51582500D03*
D40*
X93700000Y-53257500D03*
X94200000Y-53257500D03*
X94700000Y-53257500D03*
X95200000Y-53257500D03*
X95700000Y-53257500D03*
X96200000Y-53257500D03*
X96700000Y-53257500D03*
X97200000Y-53257500D03*
X97700000Y-53257500D03*
X98200000Y-53257500D03*
X98700000Y-53257500D03*
X99200000Y-53257500D03*
X99700000Y-53257500D03*
X100200000Y-53257500D03*
X100700000Y-53257500D03*
X101200000Y-53257500D03*
X101700000Y-53257500D03*
X102200000Y-53257500D03*
X102700000Y-53257500D03*
X103200000Y-53257500D03*
X103700000Y-53257500D03*
X104200000Y-53257500D03*
X104700000Y-53257500D03*
X105200000Y-53257500D03*
X105700000Y-53257500D03*
D39*
X107375000Y-51582500D03*
X107375000Y-51082500D03*
X107375000Y-50582500D03*
X107375000Y-50082500D03*
X107375000Y-49582500D03*
X107375000Y-49082500D03*
X107375000Y-48582500D03*
X107375000Y-48082500D03*
X107375000Y-47582500D03*
X107375000Y-47082500D03*
X107375000Y-46582500D03*
X107375000Y-46082500D03*
X107375000Y-45582500D03*
X107375000Y-45082500D03*
X107375000Y-44582500D03*
X107375000Y-44082500D03*
X107375000Y-43582500D03*
X107375000Y-43082500D03*
X107375000Y-42582500D03*
X107375000Y-42082500D03*
X107375000Y-41582500D03*
X107375000Y-41082500D03*
X107375000Y-40582500D03*
X107375000Y-40082500D03*
X107375000Y-39582500D03*
D40*
X105700000Y-37907500D03*
X105200000Y-37907500D03*
X104700000Y-37907500D03*
X104200000Y-37907500D03*
X103700000Y-37907500D03*
X103200000Y-37907500D03*
X102700000Y-37907500D03*
X102200000Y-37907500D03*
X101700000Y-37907500D03*
X101200000Y-37907500D03*
X100700000Y-37907500D03*
X100200000Y-37907500D03*
X99700000Y-37907500D03*
X99200000Y-37907500D03*
X98700000Y-37907500D03*
X98200000Y-37907500D03*
X97700000Y-37907500D03*
X97200000Y-37907500D03*
X96700000Y-37907500D03*
X96200000Y-37907500D03*
X95700000Y-37907500D03*
X95200000Y-37907500D03*
X94700000Y-37907500D03*
X94200000Y-37907500D03*
X93700000Y-37907500D03*
%TD*%
D26*
%TO.C,D5*%
X121447500Y-80500000D03*
X119872500Y-80500000D03*
%TD*%
D41*
%TO.C,C7*%
X91200000Y-37445000D03*
X91200000Y-35895000D03*
%TD*%
D38*
%TO.C,R39*%
X86850000Y-76150000D03*
X85830000Y-76150000D03*
%TD*%
D29*
%TO.C,C29*%
X86480000Y-51820000D03*
X85520000Y-51820000D03*
%TD*%
D38*
%TO.C,R27*%
X118160000Y-33432500D03*
X117140000Y-33432500D03*
%TD*%
D22*
%TO.C,R38*%
X120150000Y-81900000D03*
X121170000Y-81900000D03*
%TD*%
%TO.C,R33*%
X87920000Y-81900000D03*
X88940000Y-81900000D03*
%TD*%
%TO.C,R44*%
X90440000Y-62870000D03*
X91460000Y-62870000D03*
%TD*%
%TO.C,R1*%
X119790000Y-63520000D03*
X120810000Y-63520000D03*
%TD*%
D38*
%TO.C,R40*%
X86850000Y-87650000D03*
X85830000Y-87650000D03*
%TD*%
D42*
%TO.C,R42*%
X87475000Y-63020000D03*
X89125000Y-63020000D03*
%TD*%
D43*
%TO.C,J7*%
X117160000Y-45212500D03*
X117160000Y-39432500D03*
D44*
X116040000Y-45522500D03*
X116040000Y-44722500D03*
D45*
X116040000Y-43572500D03*
X116040000Y-42572500D03*
X116040000Y-42072500D03*
X116040000Y-41072500D03*
D44*
X116040000Y-39922500D03*
X116040000Y-39122500D03*
X116040000Y-39122500D03*
X116040000Y-39922500D03*
D45*
X116040000Y-40572500D03*
X116040000Y-41572500D03*
X116040000Y-43072500D03*
X116040000Y-44072500D03*
D44*
X116040000Y-44722500D03*
X116040000Y-45522500D03*
D46*
X116640000Y-46642500D03*
D47*
X120840000Y-46642500D03*
D46*
X116640000Y-38002500D03*
D47*
X120840000Y-38002500D03*
%TD*%
D38*
%TO.C,R30*%
X118730000Y-75790000D03*
X117710000Y-75790000D03*
%TD*%
D24*
%TO.C,R12*%
X104800000Y-73890000D03*
X104800000Y-74910000D03*
%TD*%
D33*
%TO.C,C12*%
X109160000Y-38560000D03*
X109160000Y-39520000D03*
%TD*%
D48*
%TO.C,J6*%
X100080000Y-23220000D03*
D49*
X98830000Y-23220000D03*
X97580000Y-23220000D03*
X96330000Y-23220000D03*
%TD*%
D27*
%TO.C,R48*%
X93250000Y-22590000D03*
X93250000Y-21570000D03*
%TD*%
%TO.C,R8*%
X102200000Y-82210000D03*
X102200000Y-81190000D03*
%TD*%
D26*
%TO.C,D14*%
X121447500Y-78750000D03*
X119872500Y-78750000D03*
%TD*%
D21*
%TO.C,D11*%
X85552500Y-78750000D03*
X87127500Y-78750000D03*
%TD*%
D25*
%TO.C,Q7*%
X117937500Y-80450000D03*
X117937500Y-78550000D03*
X116062500Y-79500000D03*
%TD*%
D37*
%TO.C,C9*%
X90100000Y-42012500D03*
X90100000Y-41052500D03*
%TD*%
D21*
%TO.C,D3*%
X85552500Y-92000000D03*
X87127500Y-92000000D03*
%TD*%
D37*
%TO.C,C4*%
X85200000Y-25820000D03*
X85200000Y-24860000D03*
%TD*%
D27*
%TO.C,R49*%
X93250000Y-20390000D03*
X93250000Y-19370000D03*
%TD*%
D41*
%TO.C,C24*%
X88850000Y-50282500D03*
X88850000Y-48732500D03*
%TD*%
D24*
%TO.C,R16*%
X102200000Y-73890000D03*
X102200000Y-74910000D03*
%TD*%
D50*
%TO.C,U2*%
X112787500Y-42782500D03*
X112787500Y-41832500D03*
X112787500Y-40882500D03*
X110512500Y-40882500D03*
X110512500Y-41832500D03*
X110512500Y-42782500D03*
%TD*%
D51*
%TO.C,J10*%
X105995000Y-23582500D03*
X107095000Y-23582500D03*
X108195000Y-23582500D03*
X109295000Y-23582500D03*
X110395000Y-23582500D03*
X111495000Y-23582500D03*
X112595000Y-23582500D03*
X113695000Y-23582500D03*
D52*
X114820000Y-32807500D03*
D53*
X103595000Y-34382500D03*
D54*
X115145000Y-31307500D03*
D55*
X114895000Y-23707500D03*
D56*
X103545000Y-23707500D03*
D57*
X103195000Y-31957500D03*
%TD*%
D58*
%TO.C,R28*%
X101150000Y-62945000D03*
X101150000Y-61295000D03*
%TD*%
D42*
%TO.C,R20*%
X120275000Y-35570000D03*
X121925000Y-35570000D03*
%TD*%
D59*
%TO.C,C20*%
X87250000Y-69732500D03*
X89150000Y-69732500D03*
%TD*%
D22*
%TO.C,R4*%
X102490000Y-87200000D03*
X103510000Y-87200000D03*
%TD*%
D60*
%TO.C,Y1*%
X85175000Y-43982500D03*
X85175000Y-46182500D03*
X86875000Y-46182500D03*
X86875000Y-43982500D03*
%TD*%
D38*
%TO.C,R31*%
X119050000Y-81910000D03*
X118030000Y-81910000D03*
%TD*%
%TO.C,R36*%
X89530000Y-89160000D03*
X88510000Y-89160000D03*
%TD*%
D27*
%TO.C,R52*%
X92040000Y-22590000D03*
X92040000Y-21570000D03*
%TD*%
D38*
%TO.C,R41*%
X86850000Y-81900000D03*
X85830000Y-81900000D03*
%TD*%
D25*
%TO.C,Q6*%
X117937500Y-74450000D03*
X117937500Y-72550000D03*
X116062500Y-73500000D03*
%TD*%
D61*
%TO.C,C21*%
X108150000Y-64670000D03*
X108150000Y-66570000D03*
%TD*%
D62*
%TO.C,C23*%
X105890000Y-62920000D03*
X105890000Y-61020000D03*
%TD*%
D22*
%TO.C,R56*%
X85830000Y-83000000D03*
X86850000Y-83000000D03*
%TD*%
D63*
%TO.C,L2*%
X89700000Y-66232500D03*
X86700000Y-66232500D03*
%TD*%
D22*
%TO.C,R57*%
X85830000Y-77250000D03*
X86850000Y-77250000D03*
%TD*%
D59*
%TO.C,C17*%
X113950000Y-69320000D03*
X115850000Y-69320000D03*
%TD*%
D38*
%TO.C,R45*%
X112390000Y-44350000D03*
X111370000Y-44350000D03*
%TD*%
D35*
%TO.C,J9*%
X118300000Y-30857500D03*
D36*
X118300000Y-29607500D03*
X118300000Y-28357500D03*
X118300000Y-27107500D03*
%TD*%
D64*
%TO.C,L1*%
X116100000Y-66932500D03*
X116100000Y-63932500D03*
%TD*%
D22*
%TO.C,R32*%
X87930000Y-76150000D03*
X88950000Y-76150000D03*
%TD*%
D27*
%TO.C,R7*%
X102200000Y-84310000D03*
X102200000Y-83290000D03*
%TD*%
D20*
%TO.C,Q4*%
X110072500Y-59610000D03*
X110072500Y-61510000D03*
X111947500Y-60560000D03*
%TD*%
D27*
%TO.C,R50*%
X89520000Y-22560000D03*
X89520000Y-21540000D03*
%TD*%
%TO.C,R55*%
X90770000Y-20390000D03*
X90770000Y-19370000D03*
%TD*%
%TO.C,R10*%
X102200000Y-77010000D03*
X102200000Y-75990000D03*
%TD*%
D20*
%TO.C,Q5*%
X89062500Y-78550000D03*
X89062500Y-80450000D03*
X90937500Y-79500000D03*
%TD*%
D21*
%TO.C,D6*%
X85552500Y-74750000D03*
X87127500Y-74750000D03*
%TD*%
D22*
%TO.C,R5*%
X109190000Y-69620000D03*
X110210000Y-69620000D03*
%TD*%
D41*
%TO.C,C19*%
X95850000Y-66345000D03*
X95850000Y-64795000D03*
%TD*%
D65*
%TO.C,F1*%
X97780000Y-67907500D03*
X97780000Y-66032500D03*
%TD*%
D38*
%TO.C,R6*%
X103510000Y-86080000D03*
X102490000Y-86080000D03*
%TD*%
D22*
%TO.C,R29*%
X89660000Y-83058000D03*
X90680000Y-83058000D03*
%TD*%
D66*
%TO.C,U8*%
X112550000Y-63797500D03*
D67*
X112550000Y-64082500D03*
D66*
X112050000Y-63797500D03*
D67*
X112050000Y-64082500D03*
D66*
X111550000Y-63797500D03*
D67*
X111550000Y-64082500D03*
D66*
X111050000Y-63797500D03*
D67*
X111050000Y-64082500D03*
D66*
X110550000Y-63797500D03*
D67*
X110550000Y-64082500D03*
X110550000Y-67032500D03*
D66*
X110550000Y-67317500D03*
D67*
X111050000Y-67032500D03*
D66*
X111050000Y-67317500D03*
D67*
X111550000Y-67032500D03*
D66*
X111550000Y-67317500D03*
D67*
X112050000Y-67032500D03*
D66*
X112050000Y-67317500D03*
D67*
X112550000Y-67032500D03*
D66*
X112550000Y-67317500D03*
D68*
X112300000Y-65057500D03*
X110800000Y-65057500D03*
D69*
X112185000Y-65107500D03*
X110915000Y-65107500D03*
D70*
X113180000Y-65307500D03*
D71*
X113100000Y-65307500D03*
X110000000Y-65307500D03*
D70*
X109920000Y-65307500D03*
D68*
X111550000Y-65557500D03*
D72*
X111550000Y-65557500D03*
D70*
X113180000Y-65807500D03*
D71*
X113100000Y-65807500D03*
X110000000Y-65807500D03*
D70*
X109920000Y-65807500D03*
D69*
X112185000Y-66007500D03*
X110915000Y-66007500D03*
D68*
X112300000Y-66057500D03*
X110800000Y-66057500D03*
%TD*%
D73*
%TO.C,J5*%
X88760000Y-32840000D03*
D36*
X88760000Y-34090000D03*
X88760000Y-35340000D03*
X88760000Y-36590000D03*
X88760000Y-37840000D03*
%TD*%
D24*
%TO.C,R11*%
X104800000Y-71790000D03*
X104800000Y-72810000D03*
%TD*%
D30*
%TO.C,C28*%
X117070000Y-21495000D03*
X117070000Y-23045000D03*
%TD*%
D27*
%TO.C,R51*%
X89520000Y-20360000D03*
X89520000Y-19340000D03*
%TD*%
D20*
%TO.C,Q3*%
X89062500Y-84550000D03*
X89062500Y-86450000D03*
X90937500Y-85500000D03*
%TD*%
D26*
%TO.C,D1*%
X112987500Y-47270000D03*
X111412500Y-47270000D03*
%TD*%
D29*
%TO.C,C13*%
X105955000Y-55020000D03*
X104995000Y-55020000D03*
%TD*%
D21*
%TO.C,D7*%
X85552500Y-86250000D03*
X87127500Y-86250000D03*
%TD*%
D74*
%TO.C,U7*%
X86595000Y-60620000D03*
X87865000Y-60620000D03*
X89135000Y-60620000D03*
X90405000Y-60620000D03*
X90405000Y-53420000D03*
X89135000Y-53420000D03*
X87865000Y-53420000D03*
X86595000Y-53420000D03*
%TD*%
D37*
%TO.C,C2*%
X100700000Y-30162500D03*
X100700000Y-29202500D03*
%TD*%
D38*
%TO.C,R26*%
X118290000Y-24480000D03*
X117270000Y-24480000D03*
%TD*%
D61*
%TO.C,C22*%
X105900000Y-64670000D03*
X105900000Y-66570000D03*
%TD*%
D38*
%TO.C,R24*%
X112300000Y-38475000D03*
X111280000Y-38475000D03*
%TD*%
D31*
%TO.C,C6*%
X85570000Y-42382500D03*
X86530000Y-42382500D03*
%TD*%
D27*
%TO.C,R54*%
X90770000Y-22560000D03*
X90770000Y-21540000D03*
%TD*%
D29*
%TO.C,C5*%
X93580000Y-31020000D03*
X92620000Y-31020000D03*
%TD*%
D22*
%TO.C,R34*%
X90500000Y-89170000D03*
X91520000Y-89170000D03*
%TD*%
%TO.C,R43*%
X92540000Y-62870000D03*
X93560000Y-62870000D03*
%TD*%
D37*
%TO.C,C11*%
X92550000Y-37300000D03*
X92550000Y-36340000D03*
%TD*%
D27*
%TO.C,R25*%
X104800000Y-84310000D03*
X104800000Y-83290000D03*
%TD*%
D50*
%TO.C,U9*%
X93987500Y-66320000D03*
X93987500Y-65370000D03*
X93987500Y-64420000D03*
X91712500Y-64420000D03*
X91712500Y-66320000D03*
%TD*%
D22*
%TO.C,R60*%
X120150000Y-77250000D03*
X121170000Y-77250000D03*
%TD*%
D37*
%TO.C,C14*%
X90150000Y-44437500D03*
X90150000Y-43477500D03*
%TD*%
D75*
%TO.C,D15*%
X95650000Y-68470000D03*
X92350000Y-68470000D03*
%TD*%
D20*
%TO.C,Q8*%
X89062500Y-72550000D03*
X89062500Y-74450000D03*
X90937500Y-73500000D03*
%TD*%
D76*
%TO.C,J4*%
X115140000Y-59430000D03*
D77*
X115140000Y-61430000D03*
%TD*%
D78*
%TO.C,J2*%
X95200000Y-95920000D03*
X100200000Y-95920000D03*
X95200000Y-92420000D03*
X100200000Y-92420000D03*
X95200000Y-88920000D03*
X100200000Y-88920000D03*
X95200000Y-85420000D03*
X100200000Y-85420000D03*
X95200000Y-81920000D03*
X100200000Y-81920000D03*
X95200000Y-78420000D03*
X100200000Y-78420000D03*
X95200000Y-74920000D03*
X100200000Y-74920000D03*
X95200000Y-71420000D03*
X100200000Y-71420000D03*
%TD*%
D79*
%TO.C,BZ1*%
X103500000Y-64590000D03*
D78*
X103500000Y-59590000D03*
%TD*%
%TO.C,J1*%
X111790000Y-71420000D03*
X106790000Y-71420000D03*
X111790000Y-74920000D03*
X106790000Y-74920000D03*
X111790000Y-78420000D03*
X106790000Y-78420000D03*
X111790000Y-81920000D03*
X106790000Y-81920000D03*
X111790000Y-85420000D03*
X106790000Y-85420000D03*
X111790000Y-88920000D03*
X106790000Y-88920000D03*
X111790000Y-92420000D03*
X106790000Y-92420000D03*
X111790000Y-95920000D03*
X106790000Y-95920000D03*
%TD*%
%LPD*%
M02*
