M48
; DRILL file {KiCad 7.0.2-0} date 2023 October 23, Monday 21:08:15
; FORMAT={-:-/ absolute / metric / decimal}
; #@! TF.CreationDate,2023-10-23T21:08:15-05:00
; #@! TF.GenerationSoftware,Kicad,Pcbnew,7.0.2-0
; #@! TF.FileFunction,Plated,1,4,PTH
FMAT,2
METRIC
; #@! TA.AperFunction,Plated,PTH,ViaDrill
T1C0.254
; #@! TA.AperFunction,Plated,PTH,ViaDrill
T2C0.300
; #@! TA.AperFunction,Plated,PTH,ComponentDrill
T3C0.300
; #@! TA.AperFunction,Plated,PTH,ComponentDrill
T4C0.500
; #@! TA.AperFunction,Plated,PTH,ComponentDrill
T5C0.600
; #@! TA.AperFunction,Plated,PTH,ComponentDrill
T6C0.750
; #@! TA.AperFunction,Plated,PTH,ComponentDrill
T7C1.000
; #@! TA.AperFunction,Plated,PTH,ComponentDrill
T8C1.100
%
G90
G05
T1
X118.03Y-82.64
T2
X84.8Y-48.032
X84.82Y-51.82
X84.865Y-58.645
X85.0Y-57.68
X85.18Y-24.26
X85.21Y-26.39
X85.25Y-49.232
X85.55Y-73.88
X85.55Y-79.63
X85.55Y-85.38
X85.56Y-91.12
X85.65Y-59.64
X85.755Y-58.745
X86.01Y-53.43
X86.14Y-62.988
X86.18Y-40.5
X86.45Y-68.62
X86.53Y-41.652
X86.81Y-26.7
X87.17Y-51.82
X87.55Y-64.4
X87.55Y-65.9
X87.55Y-67.32
X87.55Y-68.62
X87.71Y-56.57
X88.0Y-48.732
X88.51Y-83.39
X88.59Y-88.23
X88.67Y-26.76
X88.74Y-81.1
X88.745Y-27.675
X88.76Y-77.4
X88.91Y-39.12
X89.04Y-87.23
X89.05Y-75.31
X89.05Y-85.68
X89.08Y-91.67
X89.09Y-93.24
X89.13Y-73.68
X89.13Y-79.69
X89.15Y-70.92
X89.45Y-41.31
X89.52Y-23.1
X89.53Y-39.747
X89.55Y-43.47
X89.55Y-44.438
X89.82Y-24.01
X89.83Y-24.96
X90.08Y-42.56
X90.15Y-19.34
X90.25Y-69.27
X90.25Y-70.17
X90.27Y-86.71
X90.29Y-92.74
X90.325Y-56.045
X90.41Y-80.7
X90.65Y-59.37
X90.73Y-74.76
X90.77Y-23.1
X91.0Y-29.17
X91.21Y-35.18
X91.21Y-38.17
X91.38Y-23.71
X91.4Y-19.34
X91.95Y-69.632
X92.004Y-28.854
X92.02Y-25.239
X92.04Y-23.15
X92.468Y-52.179
X92.65Y-19.37
X92.658Y-28.293
X92.668Y-60.038
X92.79Y-38.68
X92.805Y-31.765
X92.925Y-58.645
X92.98Y-25.239
X93.108Y-53.562
X93.19Y-69.46
X93.2Y-29.02
X93.22Y-40.24
X93.25Y-23.12
X93.295Y-50.582
X93.32Y-41.12
X93.4Y-49.61
X93.42Y-48.51
X93.43Y-42.78
X93.5Y-51.45
X93.63Y-41.95
X93.9Y-31.72
X93.93Y-43.61
X93.95Y-55.67
X94.096Y-26.421
X94.1Y-62.87
X94.149Y-49.136
X94.151Y-50.083
X94.35Y-58.47
X94.437Y-39.167
X94.604Y-42.876
X94.777Y-55.693
X95.099Y-51.999
X95.16Y-27.11
X95.3Y-28.032
X95.36Y-22.39
X95.38Y-39.17
X95.6Y-63.82
X95.7Y-36.69
X95.702Y-58.898
X96.2Y-35.997
X96.35Y-33.082
X96.37Y-34.02
X96.45Y-31.794
X96.469Y-59.617
X96.59Y-51.909
X96.725Y-58.615
X96.9Y-64.72
X96.97Y-25.45
X97.225Y-39.17
X97.42Y-62.06
X97.505Y-59.325
X97.658Y-51.908
X97.852Y-25.05
X98.15Y-33.692
X98.174Y-39.169
X98.604Y-32.02
X98.75Y-43.332
X98.9Y-47.883
X99.3Y-42.04
X100.0Y-36.22
X100.0Y-50.37
X100.174Y-69.226
X100.7Y-28.62
X101.017Y-68.583
X101.1Y-69.4
X101.266Y-29.796
X101.38Y-47.9
X101.5Y-60.032
X101.51Y-27.87
X101.674Y-36.201
X101.72Y-23.71
X101.75Y-25.47
X101.863Y-67.937
X101.918Y-68.742
X101.947Y-40.045
X102.2Y-33.52
X102.2Y-75.42
X102.2Y-80.5
X102.32Y-47.71
X102.5Y-85.4
X102.75Y-68.08
X102.9Y-54.69
X103.23Y-47.51
X103.28Y-48.31
X103.35Y-33.008
X103.84Y-50.39
X104.0Y-40.05
X104.23Y-81.87
X104.361Y-31.64
X104.4Y-55.02
X104.51Y-66.58
X104.55Y-49.58
X104.61Y-44.98
X104.63Y-61.37
X104.8Y-75.47
X104.8Y-80.6
X105.06Y-46.37
X105.09Y-56.01
X105.12Y-47.23
X105.2Y-34.32
X105.31Y-45.59
X105.4Y-67.832
X105.437Y-44.105
X105.71Y-42.612
X106.2Y-26.91
X106.228Y-26.048
X106.35Y-67.832
X106.37Y-30.72
X106.512Y-55.02
X107.14Y-60.4
X107.14Y-61.35
X107.25Y-63.42
X107.36Y-31.02
X108.25Y-67.682
X108.43Y-56.15
X108.5Y-69.62
X108.76Y-52.432
X108.95Y-62.02
X109.05Y-44.95
X109.06Y-45.92
X109.18Y-36.92
X109.42Y-37.92
X109.743Y-64.196
X110.07Y-60.18
X110.21Y-39.99
X110.71Y-51.45
X110.75Y-26.1
X110.78Y-36.32
X110.94Y-52.97
X111.07Y-31.842
X111.25Y-39.27
X112.24Y-69.01
X112.6Y-26.12
X113.05Y-49.032
X113.44Y-58.53
X113.44Y-59.66
X113.515Y-44.525
X113.69Y-26.12
X114.42Y-38.56
X114.83Y-74.45
X114.881Y-40.318
X114.95Y-45.77
X116.3Y-65.432
X116.75Y-69.32
X116.81Y-76.55
X116.86Y-54.732
X117.02Y-77.54
X117.055Y-34.67
X117.06Y-80.98
X117.1Y-72.07
X117.72Y-48.14
X117.74Y-70.4
X117.83Y-21.48
X117.85Y-43.883
X117.87Y-23.04
X117.92Y-79.3
X117.93Y-73.35
X117.95Y-34.133
X118.0Y-65.42
X118.04Y-76.96
X118.2Y-77.9
X118.28Y-25.37
X118.3Y-32.16
X118.43Y-71.65
X120.04Y-27.11
X120.7Y-62.832
X121.021Y-68.711
X121.45Y-73.87
X121.45Y-79.63
X121.805Y-34.62
T3
X110.8Y-65.057
X110.8Y-66.057
X111.55Y-65.557
X112.3Y-65.057
X112.3Y-66.057
T4
X88.76Y-32.84
X88.76Y-34.09
X88.76Y-35.34
X88.76Y-36.59
X88.76Y-37.84
X96.33Y-23.22
X97.58Y-23.22
X98.83Y-23.22
X100.08Y-23.22
X118.27Y-50.94
X118.27Y-52.19
X118.27Y-53.44
X118.27Y-54.69
X118.3Y-27.107
X118.3Y-28.357
X118.3Y-29.607
X118.3Y-30.857
T6
X115.14Y-59.43
X115.14Y-61.43
T7
X103.5Y-59.59
X103.5Y-64.59
T8
X95.2Y-71.42
X95.2Y-74.92
X95.2Y-78.42
X95.2Y-81.92
X95.2Y-85.42
X95.2Y-88.92
X95.2Y-92.42
X95.2Y-95.92
X100.2Y-71.42
X100.2Y-74.92
X100.2Y-78.42
X100.2Y-81.92
X100.2Y-85.42
X100.2Y-88.92
X100.2Y-92.42
X100.2Y-95.92
X106.79Y-71.42
X106.79Y-74.92
X106.79Y-78.42
X106.79Y-81.92
X106.79Y-85.42
X106.79Y-88.92
X106.79Y-92.42
X106.79Y-95.92
X111.79Y-71.42
X111.79Y-74.92
X111.79Y-78.42
X111.79Y-81.92
X111.79Y-85.42
X111.79Y-88.92
X111.79Y-92.42
X111.79Y-95.92
T5
X116.09Y-38.002G85X117.19Y-38.002
G05
X116.09Y-46.642G85X117.19Y-46.642
G05
X120.44Y-38.002G85X121.24Y-38.002
G05
X120.44Y-46.642G85X121.24Y-46.642
G05
T0
M30
