M48
; DRILL file {KiCad 7.0.2-0} date 2023 October 14, Saturday 02:00:07
; FORMAT={-:-/ absolute / metric / decimal}
; #@! TF.CreationDate,2023-10-14T02:00:07-05:00
; #@! TF.GenerationSoftware,Kicad,Pcbnew,7.0.2-0
; #@! TF.FileFunction,Plated,1,4,PTH
FMAT,2
METRIC
; #@! TA.AperFunction,Plated,PTH,ViaDrill
T1C0.300
; #@! TA.AperFunction,Plated,PTH,ComponentDrill
T2C0.300
; #@! TA.AperFunction,Plated,PTH,ComponentDrill
T3C0.500
; #@! TA.AperFunction,Plated,PTH,ComponentDrill
T4C0.600
; #@! TA.AperFunction,Plated,PTH,ComponentDrill
T5C0.750
; #@! TA.AperFunction,Plated,PTH,ComponentDrill
T6C0.850
; #@! TA.AperFunction,Plated,PTH,ComponentDrill
T7C1.000
%
G90
G05
T1
X133.6Y-93.013
X133.62Y-96.8
X133.95Y-69.95
X134.05Y-94.212
X134.225Y-117.93
X134.225Y-122.92
X134.225Y-127.92
X134.225Y-132.93
X134.94Y-107.968
X135.2Y-76.65
X135.2Y-77.65
X135.25Y-113.6
X135.33Y-86.632
X135.4Y-99.65
X135.589Y-83.011
X135.97Y-96.8
X136.35Y-109.85
X136.35Y-111.05
X136.35Y-112.3
X136.35Y-113.6
X136.72Y-79.85
X136.8Y-93.712
X137.35Y-81.05
X137.4Y-134.15
X137.45Y-129.112
X137.5Y-124.15
X137.65Y-79.85
X137.707Y-71.807
X137.95Y-115.9
X138.25Y-86.032
X138.25Y-86.992
X138.35Y-88.45
X138.35Y-89.417
X138.75Y-74.3
X138.909Y-70.604
X139.05Y-114.25
X139.05Y-115.15
X139.125Y-101.025
X139.2Y-80.875
X139.2Y-82.4
X139.45Y-77.7
X139.45Y-104.35
X139.557Y-69.957
X139.646Y-96.566
X139.8Y-74.15
X140.75Y-114.612
X140.804Y-73.834
X140.82Y-70.219
X141.458Y-73.273
X141.468Y-105.018
X141.605Y-76.745
X141.725Y-103.625
X141.78Y-70.219
X141.908Y-98.542
X142.0Y-74.0
X142.0Y-114.612
X142.591Y-85.717
X142.598Y-88.0
X142.603Y-86.617
X142.695Y-95.69
X142.7Y-76.7
X142.701Y-94.85
X142.75Y-100.65
X142.896Y-71.4
X142.9Y-107.85
X143.15Y-103.45
X143.237Y-84.147
X143.577Y-100.673
X143.899Y-96.979
X144.05Y-71.912
X144.1Y-73.013
X144.18Y-84.15
X144.4Y-108.8
X144.5Y-81.67
X144.502Y-103.878
X145.0Y-80.977
X145.15Y-78.062
X145.25Y-76.775
X145.269Y-104.597
X145.345Y-79.217
X145.39Y-96.889
X145.525Y-103.595
X145.7Y-109.7
X145.77Y-70.43
X146.025Y-84.15
X146.305Y-104.305
X146.458Y-96.888
X146.653Y-70.03
X146.95Y-78.672
X146.974Y-84.15
X147.3Y-116.8
X147.3Y-121.7
X147.3Y-126.35
X147.3Y-131.362
X147.404Y-77.0
X147.55Y-88.312
X147.7Y-92.862
X148.1Y-87.02
X148.25Y-116.2
X148.25Y-121.15
X148.3Y-126.35
X148.3Y-131.362
X148.8Y-81.2
X148.8Y-94.612
X148.85Y-136.1
X148.925Y-67.075
X148.955Y-114.188
X149.25Y-126.35
X149.25Y-131.35
X149.3Y-69.3
X149.3Y-116.2
X149.3Y-121.162
X149.5Y-73.6
X149.621Y-113.368
X149.69Y-72.76
X149.761Y-114.25
X150.066Y-74.776
X150.3Y-105.012
X150.3Y-107.512
X150.381Y-112.634
X150.475Y-81.181
X150.482Y-113.485
X150.55Y-70.45
X150.6Y-125.35
X150.7Y-129.1
X150.75Y-120.4
X150.792Y-85.07
X151.0Y-78.5
X151.26Y-112.77
X151.3Y-122.5
X151.7Y-99.67
X152.05Y-133.5
X152.15Y-77.988
X152.75Y-112.812
X152.8Y-85.112
X153.0Y-95.363
X153.05Y-122.85
X153.16Y-76.62
X153.2Y-100.0
X153.35Y-118.4
X153.7Y-119.65
X153.75Y-94.663
X153.89Y-100.99
X153.95Y-112.812
X154.0Y-79.3
X154.237Y-89.085
X154.51Y-87.593
X154.6Y-115.612
X155.0Y-71.89
X155.028Y-71.028
X155.1Y-125.35
X155.15Y-112.812
X155.17Y-75.7
X155.312Y-100.0
X155.55Y-119.612
X155.85Y-124.7
X156.05Y-108.4
X156.16Y-76.0
X156.6Y-119.612
X156.8Y-124.69
X156.933Y-129.83
X157.05Y-112.662
X157.3Y-114.6
X157.35Y-119.15
X157.35Y-124.0
X157.75Y-107.0
X157.838Y-89.78
X157.838Y-90.83
X157.9Y-97.412
X157.95Y-82.263
X158.05Y-83.263
X158.075Y-129.287
X158.543Y-109.176
X158.611Y-104.789
X159.213Y-99.962
X159.289Y-85.013
X159.3Y-98.362
X159.85Y-97.012
X159.87Y-76.822
X161.04Y-113.99
X161.4Y-71.1
X161.85Y-94.013
X162.1Y-100.812
X162.315Y-89.505
X162.49Y-71.1
X163.22Y-83.54
X163.225Y-116.787
X163.681Y-85.298
X163.75Y-90.75
X163.75Y-121.787
X164.131Y-106.731
X165.1Y-110.412
X165.524Y-99.79
X165.55Y-113.812
X165.855Y-79.65
X166.05Y-96.812
X166.6Y-93.588
X166.65Y-88.862
X166.69Y-77.09
X166.75Y-79.112
X166.8Y-110.4
X167.09Y-98.17
X167.45Y-69.513
X167.55Y-106.65
X168.84Y-72.09
X168.85Y-114.662
X169.5Y-107.812
X170.425Y-124.475
X170.5Y-119.85
X170.605Y-79.6
T2
X159.7Y-110.037
X159.7Y-111.037
X160.45Y-110.537
X161.2Y-110.037
X161.2Y-111.037
T3
X167.1Y-72.087
X167.1Y-73.337
X167.1Y-74.587
X167.1Y-75.837
X167.1Y-99.425
X167.1Y-100.675
X167.1Y-101.925
X167.1Y-103.175
T5
X151.3Y-137.95
X153.3Y-137.95
T6
X139.3Y-117.962
X139.3Y-120.462
X139.3Y-122.962
X139.3Y-125.462
X139.3Y-127.962
X139.3Y-130.463
X139.3Y-132.963
X139.3Y-135.463
X144.3Y-117.962
X144.3Y-120.462
X144.3Y-122.962
X144.3Y-125.462
X144.3Y-127.962
X144.3Y-130.463
X144.3Y-132.963
X144.3Y-135.463
X160.35Y-117.938
X160.35Y-120.438
X160.35Y-122.938
X160.35Y-125.438
X160.35Y-127.938
X160.35Y-130.438
X160.35Y-132.938
X160.35Y-135.438
X165.35Y-117.938
X165.35Y-120.438
X165.35Y-122.938
X165.35Y-125.438
X165.35Y-127.938
X165.35Y-130.438
X165.35Y-132.938
X165.35Y-135.438
T7
X141.56Y-65.675
X141.56Y-68.215
X144.1Y-65.675
X144.1Y-68.215
X152.3Y-103.212
X152.3Y-108.212
T4
X164.89Y-82.983G85X165.99Y-82.983
G05
X164.89Y-91.623G85X165.99Y-91.623
G05
X169.24Y-82.983G85X170.04Y-82.983
G05
X169.24Y-91.623G85X170.04Y-91.623
G05
T0
M30
