%TF.GenerationSoftware,KiCad,Pcbnew,7.0.2-0*%
%TF.CreationDate,2023-10-14T01:58:59-05:00*%
%TF.ProjectId,Flight Computer,466c6967-6874-4204-936f-6d7075746572,1.1*%
%TF.SameCoordinates,Original*%
%TF.FileFunction,Copper,L2,Inr*%
%TF.FilePolarity,Positive*%
%FSLAX46Y46*%
G04 Gerber Fmt 4.6, Leading zero omitted, Abs format (unit mm)*
G04 Created by KiCad (PCBNEW 7.0.2-0) date 2023-10-14 01:58:59*
%MOMM*%
%LPD*%
G01*
G04 APERTURE LIST*
G04 Aperture macros list*
%AMRoundRect*
0 Rectangle with rounded corners*
0 $1 Rounding radius*
0 $2 $3 $4 $5 $6 $7 $8 $9 X,Y pos of 4 corners*
0 Add a 4 corners polygon primitive as box body*
4,1,4,$2,$3,$4,$5,$6,$7,$8,$9,$2,$3,0*
0 Add four circle primitives for the rounded corners*
1,1,$1+$1,$2,$3*
1,1,$1+$1,$4,$5*
1,1,$1+$1,$6,$7*
1,1,$1+$1,$8,$9*
0 Add four rect primitives between the rounded corners*
20,1,$1+$1,$2,$3,$4,$5,0*
20,1,$1+$1,$4,$5,$6,$7,0*
20,1,$1+$1,$6,$7,$8,$9,0*
20,1,$1+$1,$8,$9,$2,$3,0*%
G04 Aperture macros list end*
%TA.AperFunction,ComponentPad*%
%ADD10RoundRect,0.200000X0.450000X-0.200000X0.450000X0.200000X-0.450000X0.200000X-0.450000X-0.200000X0*%
%TD*%
%TA.AperFunction,ComponentPad*%
%ADD11O,1.300000X0.800000*%
%TD*%
%TA.AperFunction,ComponentPad*%
%ADD12O,2.100000X1.000000*%
%TD*%
%TA.AperFunction,ComponentPad*%
%ADD13O,1.800000X1.000000*%
%TD*%
%TA.AperFunction,ComponentPad*%
%ADD14C,0.600000*%
%TD*%
%TA.AperFunction,ComponentPad*%
%ADD15RoundRect,0.250000X0.350000X0.625000X-0.350000X0.625000X-0.350000X-0.625000X0.350000X-0.625000X0*%
%TD*%
%TA.AperFunction,ComponentPad*%
%ADD16O,1.200000X1.750000*%
%TD*%
%TA.AperFunction,ComponentPad*%
%ADD17C,1.600000*%
%TD*%
%TA.AperFunction,ComponentPad*%
%ADD18C,1.524000*%
%TD*%
%TA.AperFunction,ComponentPad*%
%ADD19R,2.000000X2.000000*%
%TD*%
%TA.AperFunction,ComponentPad*%
%ADD20C,2.000000*%
%TD*%
%TA.AperFunction,ComponentPad*%
%ADD21R,1.700000X1.700000*%
%TD*%
%TA.AperFunction,ComponentPad*%
%ADD22O,1.700000X1.700000*%
%TD*%
%TA.AperFunction,ViaPad*%
%ADD23C,0.500000*%
%TD*%
G04 APERTURE END LIST*
D10*
%TO.N,+5V*%
%TO.C,J8*%
X167100000Y-103175000D03*
D11*
%TO.N,/UART3 RX*%
X167100000Y-101925000D03*
%TO.N,/UART3 TX*%
X167100000Y-100675000D03*
%TO.N,GND*%
X167100000Y-99425000D03*
%TD*%
D12*
%TO.N,Net-(J7-SHIELD)*%
%TO.C,J7*%
X165440000Y-91622500D03*
D13*
X169640000Y-91622500D03*
D12*
X165440000Y-82982500D03*
D13*
X169640000Y-82982500D03*
%TD*%
D10*
%TO.N,+3.3V*%
%TO.C,J9*%
X167100000Y-75837500D03*
D11*
%TO.N,/I2C2 SDA*%
X167100000Y-74587500D03*
%TO.N,/I2C2 SCL*%
X167100000Y-73337500D03*
%TO.N,GND*%
X167100000Y-72087500D03*
%TD*%
D14*
%TO.N,GND*%
%TO.C,U8*%
X161200000Y-110037500D03*
X159700000Y-110037500D03*
X160450000Y-110537500D03*
X161200000Y-111037500D03*
X159700000Y-111037500D03*
%TD*%
D15*
%TO.N,/Main battery connector*%
%TO.C,J4*%
X153300000Y-137950000D03*
D16*
%TO.N,GND*%
X151300000Y-137950000D03*
%TD*%
D17*
%TO.N,+12V*%
%TO.C,J2*%
X139300000Y-135462500D03*
X144300000Y-135462500D03*
%TO.N,/Pyrotechnic Channels/Pyro Channel A*%
X139300000Y-132962500D03*
X144300000Y-132962500D03*
%TO.N,+12V*%
X139300000Y-130462500D03*
X144300000Y-130462500D03*
D18*
%TO.N,/Pyrotechnic Channels/Pyro Channel B*%
X139300000Y-127962500D03*
D17*
X144300000Y-127962500D03*
%TO.N,+12V*%
X139300000Y-125462500D03*
X144300000Y-125462500D03*
%TO.N,/Pyrotechnic Channels/Pyro Channel C*%
X139300000Y-122962500D03*
X144300000Y-122962500D03*
%TO.N,+12V*%
X139300000Y-120462500D03*
X144300000Y-120462500D03*
%TO.N,/Pyrotechnic Channels/Pyro Channel D*%
X139300000Y-117962500D03*
X144300000Y-117962500D03*
%TD*%
D19*
%TO.N,+5V*%
%TO.C,BZ1*%
X152300000Y-108212500D03*
D20*
%TO.N,Net-(BZ1-+)*%
X152300000Y-103212500D03*
%TD*%
D17*
%TO.N,/Pyrotechnic Channels/Pyro Channel E*%
%TO.C,J1*%
X165350000Y-117937500D03*
X160350000Y-117937500D03*
%TO.N,+12V*%
X165350000Y-120437500D03*
X160350000Y-120437500D03*
%TO.N,/Pyrotechnic Channels/Pyro Channel F*%
X165350000Y-122937500D03*
X160350000Y-122937500D03*
D18*
%TO.N,+12V*%
X165350000Y-125437500D03*
D17*
X160350000Y-125437500D03*
%TO.N,/Main battery connector*%
X165350000Y-127937500D03*
X160350000Y-127937500D03*
%TO.N,/Main battery in*%
X165350000Y-130437500D03*
X160350000Y-130437500D03*
%TO.N,+12V*%
X165350000Y-132937500D03*
X160350000Y-132937500D03*
%TO.N,GND*%
X165350000Y-135437500D03*
X160350000Y-135437500D03*
%TD*%
D21*
%TO.N,/SWDIO*%
%TO.C,J3*%
X144100000Y-65675000D03*
D22*
%TO.N,/NRST*%
X141560000Y-65675000D03*
%TO.N,/SWCLK*%
X144100000Y-68215000D03*
%TO.N,GND*%
X141560000Y-68215000D03*
%TD*%
D23*
%TO.N,+5V*%
X156050000Y-108400000D03*
X157300000Y-114600000D03*
X164131250Y-106731250D03*
%TO.N,+3.3V*%
X136350000Y-109850000D03*
X135970000Y-96800000D03*
X135400000Y-99650000D03*
X148925000Y-67075000D03*
X167550000Y-106650000D03*
X136350000Y-113600000D03*
X137650000Y-79850000D03*
X150550000Y-70450000D03*
X138250000Y-86992500D03*
X167450000Y-69512500D03*
X136350000Y-112300000D03*
X138350000Y-89417500D03*
X133950000Y-69950000D03*
X142700000Y-76700000D03*
X142000000Y-114612500D03*
X136350000Y-111050000D03*
X135250000Y-113600000D03*
X143576731Y-100673270D03*
X155312500Y-100000000D03*
X158050000Y-83262500D03*
X140820000Y-70219500D03*
X162315378Y-89504622D03*
X134050000Y-94212500D03*
X140750000Y-114612500D03*
X159300000Y-98362500D03*
X150474500Y-81181000D03*
X135200000Y-77650000D03*
X166690000Y-77090000D03*
X166750500Y-79112500D03*
X139200000Y-82400000D03*
X150066208Y-74775738D03*
%TO.N,GND*%
X136800000Y-93712500D03*
X141780000Y-70219500D03*
X149250000Y-126350000D03*
X147300000Y-121700000D03*
X139050000Y-115150000D03*
X133600000Y-93012500D03*
X155100000Y-125350000D03*
X169500000Y-107812500D03*
X153350000Y-118400000D03*
X144050000Y-71912500D03*
X137350000Y-81050000D03*
X149500000Y-73600000D03*
X166800000Y-110400000D03*
X159212500Y-99962500D03*
X148300000Y-131362500D03*
X157950000Y-82262500D03*
X154600000Y-115612500D03*
X163220000Y-83540000D03*
X139200000Y-80875000D03*
X136720000Y-79850000D03*
X150750000Y-120400000D03*
X138350000Y-88450000D03*
X134225000Y-122920000D03*
X152050000Y-133500000D03*
X144400000Y-108800000D03*
X152150000Y-77987998D03*
X135200000Y-76650000D03*
X150300000Y-107512500D03*
X157050000Y-112662500D03*
X158610916Y-104789084D03*
X147700000Y-92862500D03*
X142750000Y-100650000D03*
X139050000Y-114250000D03*
X155550000Y-119612500D03*
X161850000Y-94012500D03*
X170500000Y-119850000D03*
X153700000Y-119650000D03*
X133620000Y-96800000D03*
X147300000Y-116800000D03*
X149300000Y-121162500D03*
X157837998Y-90830000D03*
X138250000Y-86032500D03*
X150300000Y-105012500D03*
X139450000Y-104350000D03*
X149250000Y-131350000D03*
X139556585Y-69956585D03*
X141467869Y-105017869D03*
X165100000Y-110412500D03*
X166600500Y-93588046D03*
X148800000Y-81200000D03*
X165855000Y-79650000D03*
X151300000Y-122500000D03*
X139450000Y-77700000D03*
X170605000Y-79600000D03*
X150600000Y-125350000D03*
X153200419Y-100000000D03*
X157350000Y-124000000D03*
X150700000Y-129100000D03*
X168840000Y-72090000D03*
X167090000Y-98170000D03*
X153950000Y-112812500D03*
X148800000Y-94612500D03*
X148250000Y-121150000D03*
X155150000Y-112812500D03*
X149690000Y-72760000D03*
X141604977Y-76745023D03*
X149300000Y-69300000D03*
X157900000Y-97412500D03*
X157837998Y-89780000D03*
X153050000Y-122850000D03*
X158075000Y-129287500D03*
X147300000Y-126350000D03*
X138750000Y-74300000D03*
X137950000Y-115900000D03*
X137706585Y-71806585D03*
X165550000Y-113812500D03*
X148250000Y-116200000D03*
X147300000Y-131362500D03*
X152750000Y-112812500D03*
X156800000Y-124690000D03*
X159850000Y-97012500D03*
X134225000Y-127920000D03*
X157350000Y-119150000D03*
X134225000Y-117930000D03*
X134225000Y-132930000D03*
X148300000Y-126350000D03*
X170425000Y-124475000D03*
X163750000Y-90750000D03*
X149300000Y-116200000D03*
X161040000Y-113990000D03*
X145700000Y-109700000D03*
X156600000Y-119612500D03*
X143150000Y-103450000D03*
X159288743Y-85013000D03*
X155850000Y-124700000D03*
X148850000Y-136100000D03*
X135330000Y-86632500D03*
X141457760Y-73272825D03*
X142900000Y-107850000D03*
%TO.N,/SWDIO*%
X142602661Y-86616781D03*
%TO.N,/SWCLK*%
X142590690Y-85717358D03*
%TO.N,/NRST*%
X142598172Y-88000000D03*
%TO.N,/UART3 TX*%
X165524500Y-99790000D03*
%TO.N,/I2C2 SDA*%
X153750000Y-94663498D03*
%TO.N,/I2C2 SCL*%
X153000000Y-95362998D03*
%TO.N,/SDMMC Data 2*%
X155028415Y-71028415D03*
X156160000Y-76000000D03*
%TO.N,/SDMMC Data 3*%
X155170000Y-75700000D03*
X155000000Y-71890000D03*
%TO.N,/SDMMC Command*%
X151000000Y-78500000D03*
%TO.N,/SDMMC Clock*%
X154000000Y-79300000D03*
%TO.N,/SDMMC Data 0*%
X161400000Y-71100000D03*
X154237002Y-89085497D03*
%TO.N,/SDMMC Data 1*%
X154510000Y-87592500D03*
X162490000Y-71100000D03*
%TO.N,/SD Card Detect*%
X159870000Y-76822500D03*
X153160500Y-76620000D03*
%TO.N,/Pyro Channel A Trigger*%
X144501831Y-103877951D03*
X137400000Y-134150000D03*
%TO.N,/Pyro Channel B Trigger*%
X145525000Y-103595000D03*
X137450000Y-129112500D03*
%TO.N,/Pyro Channel C Trigger*%
X145269395Y-104597434D03*
X137500000Y-124150000D03*
%TO.N,/Pyro Channel E Trigger*%
X163224500Y-116787500D03*
X151700000Y-99670000D03*
%TO.N,/Pyro Channel F Trigger*%
X163750000Y-121787500D03*
X153890000Y-100990000D03*
%TO.N,/Pyro Channel D Trigger*%
X146305000Y-104305000D03*
X134939691Y-107967691D03*
%TO.N,/Pyro A Continuity Voltage*%
X150481891Y-113485061D03*
X142700599Y-94850000D03*
%TO.N,/Pyro B Continuity Voltage*%
X149621392Y-113367732D03*
X142695486Y-95689579D03*
%TO.N,/Pyro C Continuity Voltage*%
X139645980Y-96566297D03*
X149760605Y-114250115D03*
%TO.N,/Pyro E Continuity Voltage*%
X145389693Y-96888998D03*
X151260303Y-112770000D03*
%TO.N,/Pyro F Continuity Voltage*%
X150381035Y-112634205D03*
X143898967Y-96978603D03*
%TO.N,/Pyro D Continuity Voltage*%
X148955388Y-114188069D03*
X141907954Y-98542045D03*
%TO.N,/Ignition Battery Voltage*%
X156932500Y-129830000D03*
X146458242Y-96888000D03*
%TO.N,/Main battery in*%
X168850000Y-114662500D03*
%TO.N,Net-(U1-PD13)*%
X162100000Y-100812500D03*
X166050000Y-96812500D03*
%TO.N,Net-(U8-PG)*%
X158542767Y-109176153D03*
X157750000Y-107000000D03*
%TO.N,/High G Interrupt*%
X146025500Y-84150000D03*
X145770000Y-70430000D03*
%TO.N,/Chip Select Low G Gyro*%
X138908835Y-70604335D03*
X145000000Y-80977500D03*
X142895937Y-71400500D03*
%TO.N,/SPI1 SCK*%
X144100000Y-73012500D03*
X145345376Y-79217124D03*
X147404495Y-77000000D03*
%TO.N,/SPI1 MOSI*%
X145250000Y-76774500D03*
X145150000Y-78062000D03*
%TO.N,/SPI1 MISO*%
X146950000Y-78672454D03*
%TO.N,/Low G Gyro Interrupt*%
X144500000Y-81670000D03*
X142000000Y-74000000D03*
%TO.N,/Chip Select Low G Accel*%
X144180000Y-84150000D03*
X140803544Y-73834118D03*
%TO.N,/Low G Accel Interrupt*%
X143237076Y-84147384D03*
X139800000Y-74150000D03*
%TO.N,/QSPI Clock*%
X141725000Y-103625000D03*
X139125000Y-101025000D03*
%TO.N,/GPS Reset*%
X150792358Y-85070143D03*
%TO.N,/GPS External Interrupt*%
X152800000Y-85112002D03*
%TO.N,/UART2 TX*%
X147550000Y-88312500D03*
%TO.N,/UART2 RX*%
X148099665Y-87019665D03*
%TO.N,/USB 5V in*%
X166650500Y-88862500D03*
X163680601Y-85297617D03*
%TO.N,/Chip Select Altimeter*%
X135588773Y-83011227D03*
%TO.N,/Chip Select High G Accel*%
X146973946Y-84149500D03*
X146652500Y-70030000D03*
%TD*%
%TA.AperFunction,Conductor*%
%TO.N,GND*%
G36*
X168802777Y-63813155D02*
G01*
X169096701Y-63829662D01*
X169107724Y-63830904D01*
X169395224Y-63879752D01*
X169406018Y-63882215D01*
X169686251Y-63962949D01*
X169696722Y-63966613D01*
X169966134Y-64078208D01*
X169976136Y-64083025D01*
X170231354Y-64224078D01*
X170240755Y-64229985D01*
X170478575Y-64398728D01*
X170487254Y-64405649D01*
X170517388Y-64432578D01*
X170704697Y-64599967D01*
X170712532Y-64607802D01*
X170752240Y-64652235D01*
X170906850Y-64825245D01*
X170913771Y-64833924D01*
X171082514Y-65071744D01*
X171088421Y-65081145D01*
X171229474Y-65336363D01*
X171234291Y-65346365D01*
X171345884Y-65615773D01*
X171349551Y-65626252D01*
X171430280Y-65906466D01*
X171432750Y-65917290D01*
X171481594Y-66204770D01*
X171482837Y-66215802D01*
X171499344Y-66509721D01*
X171499500Y-66515272D01*
X171499500Y-140509726D01*
X171499344Y-140515277D01*
X171482837Y-140809197D01*
X171481594Y-140820229D01*
X171432750Y-141107709D01*
X171430280Y-141118533D01*
X171349551Y-141398747D01*
X171345884Y-141409226D01*
X171234291Y-141678634D01*
X171229474Y-141688636D01*
X171088421Y-141943854D01*
X171082514Y-141953255D01*
X170913771Y-142191075D01*
X170906850Y-142199754D01*
X170712540Y-142417189D01*
X170704689Y-142425040D01*
X170487254Y-142619350D01*
X170478575Y-142626271D01*
X170240755Y-142795014D01*
X170231354Y-142800921D01*
X169976136Y-142941974D01*
X169966134Y-142946791D01*
X169696726Y-143058384D01*
X169686247Y-143062051D01*
X169406033Y-143142780D01*
X169395209Y-143145250D01*
X169107729Y-143194094D01*
X169096697Y-143195337D01*
X168802778Y-143211844D01*
X168797227Y-143212000D01*
X135813894Y-143212000D01*
X135804645Y-143211567D01*
X135509649Y-143183886D01*
X135498941Y-143182287D01*
X135207123Y-143122227D01*
X135196652Y-143119467D01*
X134913150Y-143027901D01*
X134903044Y-143024015D01*
X134631227Y-142902031D01*
X134621606Y-142897064D01*
X134447937Y-142795014D01*
X134364738Y-142746125D01*
X134355733Y-142740149D01*
X134116876Y-142562056D01*
X134108568Y-142555123D01*
X133890595Y-142352014D01*
X133883089Y-142344211D01*
X133855804Y-142312548D01*
X133688598Y-142118511D01*
X133682005Y-142109956D01*
X133513317Y-141864353D01*
X133507688Y-141855111D01*
X133503639Y-141847563D01*
X133366844Y-141592581D01*
X133362261Y-141582789D01*
X133250921Y-141306426D01*
X133247436Y-141296194D01*
X133166940Y-141009314D01*
X133164595Y-140998770D01*
X133115912Y-140704832D01*
X133114732Y-140694097D01*
X133104788Y-140512499D01*
X134444340Y-140512499D01*
X134464936Y-140747905D01*
X134526098Y-140976167D01*
X134625963Y-141190326D01*
X134625964Y-141190327D01*
X134625965Y-141190329D01*
X134761505Y-141383901D01*
X134928599Y-141550995D01*
X135122171Y-141686535D01*
X135122172Y-141686535D01*
X135122173Y-141686536D01*
X135336332Y-141786401D01*
X135336333Y-141786401D01*
X135336337Y-141786403D01*
X135564592Y-141847563D01*
X135741034Y-141863000D01*
X135743203Y-141863000D01*
X135856797Y-141863000D01*
X135858966Y-141863000D01*
X136035408Y-141847563D01*
X136263663Y-141786403D01*
X136477829Y-141686535D01*
X136671401Y-141550995D01*
X136838495Y-141383901D01*
X136974035Y-141190330D01*
X137073903Y-140976163D01*
X137135063Y-140747908D01*
X137155659Y-140512500D01*
X167444340Y-140512500D01*
X167464936Y-140747905D01*
X167526098Y-140976167D01*
X167625963Y-141190326D01*
X167625964Y-141190327D01*
X167625965Y-141190329D01*
X167761505Y-141383901D01*
X167928599Y-141550995D01*
X168122171Y-141686535D01*
X168122172Y-141686535D01*
X168122173Y-141686536D01*
X168336332Y-141786401D01*
X168336333Y-141786401D01*
X168336337Y-141786403D01*
X168564592Y-141847563D01*
X168741034Y-141863000D01*
X168743203Y-141863000D01*
X168856797Y-141863000D01*
X168858966Y-141863000D01*
X169035408Y-141847563D01*
X169263663Y-141786403D01*
X169477829Y-141686535D01*
X169671401Y-141550995D01*
X169838495Y-141383901D01*
X169974035Y-141190330D01*
X170073903Y-140976163D01*
X170135063Y-140747908D01*
X170155659Y-140512500D01*
X170135063Y-140277092D01*
X170073903Y-140048837D01*
X169974035Y-139834671D01*
X169838495Y-139641099D01*
X169671401Y-139474005D01*
X169477829Y-139338465D01*
X169477828Y-139338464D01*
X169477826Y-139338463D01*
X169263667Y-139238598D01*
X169035405Y-139177436D01*
X168861129Y-139162189D01*
X168861123Y-139162188D01*
X168858966Y-139162000D01*
X168741034Y-139162000D01*
X168738877Y-139162188D01*
X168738870Y-139162189D01*
X168564594Y-139177436D01*
X168336332Y-139238598D01*
X168122173Y-139338463D01*
X167928602Y-139474002D01*
X167761502Y-139641102D01*
X167625963Y-139834672D01*
X167526098Y-140048832D01*
X167464936Y-140277094D01*
X167444340Y-140512500D01*
X137155659Y-140512500D01*
X137135063Y-140277092D01*
X137073903Y-140048837D01*
X136974035Y-139834671D01*
X136838495Y-139641099D01*
X136671401Y-139474005D01*
X136477829Y-139338465D01*
X136477828Y-139338464D01*
X136477826Y-139338463D01*
X136263667Y-139238598D01*
X136035405Y-139177436D01*
X135861129Y-139162189D01*
X135861123Y-139162188D01*
X135858966Y-139162000D01*
X135741034Y-139162000D01*
X135738877Y-139162188D01*
X135738870Y-139162189D01*
X135564594Y-139177436D01*
X135336332Y-139238598D01*
X135122173Y-139338463D01*
X134928602Y-139474002D01*
X134761502Y-139641102D01*
X134625963Y-139834672D01*
X134526098Y-140048832D01*
X134464936Y-140277094D01*
X134444340Y-140512499D01*
X133104788Y-140512499D01*
X133098291Y-140393864D01*
X133098144Y-140388453D01*
X133098145Y-140343587D01*
X133098180Y-139238597D01*
X133098233Y-137569962D01*
X150199999Y-137569962D01*
X150200000Y-137699999D01*
X150200001Y-137700000D01*
X151020440Y-137700000D01*
X150981722Y-137742059D01*
X150931449Y-137856670D01*
X150921114Y-137981395D01*
X150951837Y-138102719D01*
X151015394Y-138200000D01*
X150200001Y-138200000D01*
X150200000Y-138200001D01*
X150200000Y-138275049D01*
X150200223Y-138279744D01*
X150214965Y-138434124D01*
X150274149Y-138635689D01*
X150370411Y-138822410D01*
X150500271Y-138987541D01*
X150659031Y-139125107D01*
X150840967Y-139230147D01*
X151039486Y-139298856D01*
X151049999Y-139300367D01*
X151050000Y-139300366D01*
X151050000Y-138230617D01*
X151119052Y-138284363D01*
X151237424Y-138325000D01*
X151331073Y-138325000D01*
X151423446Y-138309586D01*
X151533514Y-138250019D01*
X151550000Y-138232110D01*
X151550000Y-139296257D01*
X151661412Y-139269230D01*
X151852498Y-139181963D01*
X152023623Y-139060105D01*
X152168593Y-138908065D01*
X152263036Y-138761110D01*
X152310402Y-138722379D01*
X152371488Y-138718885D01*
X152422960Y-138751965D01*
X152438417Y-138778314D01*
X152465637Y-138847340D01*
X152557077Y-138967922D01*
X152677656Y-139059360D01*
X152677657Y-139059360D01*
X152677658Y-139059361D01*
X152818436Y-139114877D01*
X152906898Y-139125500D01*
X152909850Y-139125500D01*
X153690150Y-139125500D01*
X153693102Y-139125500D01*
X153781564Y-139114877D01*
X153922342Y-139059361D01*
X154042922Y-138967922D01*
X154134361Y-138847342D01*
X154189877Y-138706564D01*
X154200500Y-138618102D01*
X154200500Y-137281898D01*
X154189877Y-137193436D01*
X154134361Y-137052658D01*
X154134360Y-137052657D01*
X154134360Y-137052656D01*
X154042922Y-136932077D01*
X153922343Y-136840639D01*
X153781562Y-136785122D01*
X153696030Y-136774851D01*
X153696019Y-136774850D01*
X153693102Y-136774500D01*
X152906898Y-136774500D01*
X152903981Y-136774850D01*
X152903969Y-136774851D01*
X152818437Y-136785122D01*
X152677656Y-136840639D01*
X152557077Y-136932077D01*
X152465637Y-137052659D01*
X152437836Y-137123158D01*
X152398899Y-137170355D01*
X152339657Y-137185652D01*
X152282738Y-137163205D01*
X152257744Y-137132203D01*
X152229588Y-137077589D01*
X152099728Y-136912458D01*
X151940968Y-136774892D01*
X151759032Y-136669852D01*
X151560513Y-136601143D01*
X151550001Y-136599631D01*
X151550000Y-136599632D01*
X151550000Y-137669382D01*
X151480948Y-137615637D01*
X151362576Y-137575000D01*
X151268927Y-137575000D01*
X151176554Y-137590414D01*
X151066486Y-137649981D01*
X151050000Y-137667889D01*
X151050000Y-136603740D01*
X151049999Y-136603740D01*
X150938592Y-136630769D01*
X150747497Y-136718039D01*
X150576376Y-136839894D01*
X150431407Y-136991933D01*
X150317831Y-137168660D01*
X150239755Y-137363683D01*
X150199999Y-137569962D01*
X133098233Y-137569962D01*
X133098300Y-135462500D01*
X138194785Y-135462500D01*
X138213603Y-135665583D01*
X138247756Y-135785618D01*
X138269419Y-135861752D01*
X138360325Y-136044318D01*
X138360326Y-136044319D01*
X138360327Y-136044321D01*
X138483236Y-136207079D01*
X138633959Y-136344481D01*
X138807363Y-136451848D01*
X138957254Y-136509915D01*
X138997546Y-136525525D01*
X139198022Y-136563000D01*
X139198024Y-136563000D01*
X139401978Y-136563000D01*
X139602453Y-136525525D01*
X139602456Y-136525524D01*
X139792637Y-136451848D01*
X139966041Y-136344481D01*
X140116764Y-136207079D01*
X140239673Y-136044321D01*
X140330582Y-135861750D01*
X140386397Y-135665583D01*
X140405215Y-135462500D01*
X143194785Y-135462500D01*
X143213603Y-135665583D01*
X143247756Y-135785618D01*
X143269419Y-135861752D01*
X143360325Y-136044318D01*
X143360326Y-136044319D01*
X143360327Y-136044321D01*
X143483236Y-136207079D01*
X143633959Y-136344481D01*
X143807363Y-136451848D01*
X143957254Y-136509915D01*
X143997546Y-136525525D01*
X144198022Y-136563000D01*
X144198024Y-136563000D01*
X144401978Y-136563000D01*
X144602453Y-136525525D01*
X144602456Y-136525524D01*
X144792637Y-136451848D01*
X144966041Y-136344481D01*
X145116764Y-136207079D01*
X145239673Y-136044321D01*
X145330582Y-135861750D01*
X145386397Y-135665583D01*
X145405215Y-135462500D01*
X145402898Y-135437500D01*
X159045033Y-135437500D01*
X159064858Y-135664101D01*
X159123734Y-135883829D01*
X159219864Y-136089980D01*
X159270972Y-136162971D01*
X159930194Y-135503748D01*
X159940762Y-135570469D01*
X160001882Y-135690423D01*
X160097077Y-135785618D01*
X160217031Y-135846738D01*
X160283748Y-135857304D01*
X159624527Y-136516526D01*
X159697519Y-136567635D01*
X159903670Y-136663765D01*
X160123398Y-136722641D01*
X160349999Y-136742466D01*
X160576601Y-136722641D01*
X160796329Y-136663765D01*
X161002480Y-136567635D01*
X161075471Y-136516526D01*
X160416250Y-135857305D01*
X160482969Y-135846738D01*
X160602923Y-135785618D01*
X160698118Y-135690423D01*
X160759238Y-135570469D01*
X160769805Y-135503750D01*
X161429026Y-136162971D01*
X161480135Y-136089980D01*
X161576265Y-135883829D01*
X161635141Y-135664101D01*
X161654966Y-135437500D01*
X161654966Y-135437499D01*
X164045033Y-135437499D01*
X164064858Y-135664101D01*
X164123734Y-135883829D01*
X164219864Y-136089980D01*
X164270972Y-136162971D01*
X164930194Y-135503748D01*
X164940762Y-135570469D01*
X165001882Y-135690423D01*
X165097077Y-135785618D01*
X165217031Y-135846738D01*
X165283748Y-135857304D01*
X164624527Y-136516526D01*
X164697519Y-136567635D01*
X164903670Y-136663765D01*
X165123398Y-136722641D01*
X165349999Y-136742466D01*
X165576601Y-136722641D01*
X165796329Y-136663765D01*
X166002480Y-136567635D01*
X166075471Y-136516526D01*
X165416250Y-135857305D01*
X165482969Y-135846738D01*
X165602923Y-135785618D01*
X165698118Y-135690423D01*
X165759238Y-135570469D01*
X165769805Y-135503750D01*
X166429026Y-136162971D01*
X166480135Y-136089980D01*
X166576265Y-135883829D01*
X166635141Y-135664101D01*
X166654966Y-135437500D01*
X166635141Y-135210898D01*
X166576265Y-134991170D01*
X166480135Y-134785019D01*
X166429026Y-134712027D01*
X165769804Y-135371248D01*
X165759238Y-135304531D01*
X165698118Y-135184577D01*
X165602923Y-135089382D01*
X165482969Y-135028262D01*
X165416248Y-135017694D01*
X166075471Y-134358472D01*
X166002480Y-134307364D01*
X165796330Y-134211234D01*
X165682531Y-134180742D01*
X165631217Y-134147417D01*
X165609291Y-134090296D01*
X165625127Y-134031195D01*
X165672392Y-133992800D01*
X165842637Y-133926848D01*
X166016041Y-133819481D01*
X166166764Y-133682079D01*
X166289673Y-133519321D01*
X166380582Y-133336750D01*
X166436397Y-133140583D01*
X166455215Y-132937500D01*
X166436397Y-132734417D01*
X166380582Y-132538250D01*
X166289673Y-132355679D01*
X166166764Y-132192921D01*
X166016041Y-132055519D01*
X165883015Y-131973153D01*
X165842639Y-131948153D01*
X165842637Y-131948152D01*
X165802347Y-131932543D01*
X165652453Y-131874474D01*
X165451978Y-131837000D01*
X165451976Y-131837000D01*
X165248024Y-131837000D01*
X165248022Y-131837000D01*
X165047546Y-131874474D01*
X164857360Y-131948153D01*
X164683961Y-132055517D01*
X164533237Y-132192920D01*
X164410325Y-132355681D01*
X164319419Y-132538247D01*
X164319418Y-132538250D01*
X164263603Y-132734417D01*
X164244785Y-132937500D01*
X164263603Y-133140583D01*
X164270716Y-133165583D01*
X164319419Y-133336752D01*
X164410325Y-133519318D01*
X164410326Y-133519319D01*
X164410327Y-133519321D01*
X164533236Y-133682079D01*
X164683959Y-133819481D01*
X164857363Y-133926848D01*
X165027607Y-133992800D01*
X165075038Y-134031451D01*
X165090692Y-134090600D01*
X165068589Y-134147654D01*
X165017468Y-134180741D01*
X164903674Y-134211232D01*
X164697519Y-134307364D01*
X164624527Y-134358472D01*
X165283749Y-135017694D01*
X165217031Y-135028262D01*
X165097077Y-135089382D01*
X165001882Y-135184577D01*
X164940762Y-135304531D01*
X164930194Y-135371249D01*
X164270972Y-134712027D01*
X164219864Y-134785019D01*
X164123734Y-134991170D01*
X164064858Y-135210898D01*
X164045033Y-135437499D01*
X161654966Y-135437499D01*
X161635141Y-135210898D01*
X161576265Y-134991170D01*
X161480135Y-134785019D01*
X161429026Y-134712027D01*
X160769804Y-135371248D01*
X160759238Y-135304531D01*
X160698118Y-135184577D01*
X160602923Y-135089382D01*
X160482969Y-135028262D01*
X160416248Y-135017694D01*
X161075471Y-134358472D01*
X161002480Y-134307364D01*
X160796330Y-134211234D01*
X160682531Y-134180742D01*
X160631217Y-134147417D01*
X160609291Y-134090296D01*
X160625127Y-134031195D01*
X160672392Y-133992800D01*
X160842637Y-133926848D01*
X161016041Y-133819481D01*
X161166764Y-133682079D01*
X161289673Y-133519321D01*
X161380582Y-133336750D01*
X161436397Y-133140583D01*
X161455215Y-132937500D01*
X161436397Y-132734417D01*
X161380582Y-132538250D01*
X161289673Y-132355679D01*
X161166764Y-132192921D01*
X161016041Y-132055519D01*
X160883015Y-131973153D01*
X160842639Y-131948153D01*
X160842637Y-131948152D01*
X160802347Y-131932543D01*
X160652453Y-131874474D01*
X160451978Y-131837000D01*
X160451976Y-131837000D01*
X160248024Y-131837000D01*
X160248022Y-131837000D01*
X160047546Y-131874474D01*
X159857360Y-131948153D01*
X159683961Y-132055517D01*
X159533237Y-132192920D01*
X159410325Y-132355681D01*
X159319419Y-132538247D01*
X159319418Y-132538250D01*
X159263603Y-132734417D01*
X159244785Y-132937500D01*
X159263603Y-133140583D01*
X159270716Y-133165583D01*
X159319419Y-133336752D01*
X159410325Y-133519318D01*
X159410326Y-133519319D01*
X159410327Y-133519321D01*
X159533236Y-133682079D01*
X159683959Y-133819481D01*
X159857363Y-133926848D01*
X160027607Y-133992800D01*
X160075038Y-134031451D01*
X160090692Y-134090600D01*
X160068589Y-134147654D01*
X160017468Y-134180741D01*
X159903674Y-134211232D01*
X159697519Y-134307364D01*
X159624527Y-134358472D01*
X160283749Y-135017694D01*
X160217031Y-135028262D01*
X160097077Y-135089382D01*
X160001882Y-135184577D01*
X159940762Y-135304531D01*
X159930194Y-135371249D01*
X159270972Y-134712027D01*
X159219864Y-134785019D01*
X159123734Y-134991170D01*
X159064858Y-135210898D01*
X159045033Y-135437500D01*
X145402898Y-135437500D01*
X145386397Y-135259417D01*
X145330582Y-135063250D01*
X145239673Y-134880679D01*
X145116764Y-134717921D01*
X144966041Y-134580519D01*
X144792637Y-134473152D01*
X144752347Y-134457543D01*
X144602453Y-134399474D01*
X144401978Y-134362000D01*
X144401976Y-134362000D01*
X144198024Y-134362000D01*
X144198022Y-134362000D01*
X143997546Y-134399474D01*
X143807360Y-134473153D01*
X143633961Y-134580517D01*
X143483237Y-134717920D01*
X143360325Y-134880681D01*
X143269419Y-135063247D01*
X143213603Y-135259417D01*
X143197102Y-135437500D01*
X143194785Y-135462500D01*
X140405215Y-135462500D01*
X140386397Y-135259417D01*
X140330582Y-135063250D01*
X140239673Y-134880679D01*
X140116764Y-134717921D01*
X139966041Y-134580519D01*
X139792637Y-134473152D01*
X139752347Y-134457543D01*
X139602453Y-134399474D01*
X139401978Y-134362000D01*
X139401976Y-134362000D01*
X139198024Y-134362000D01*
X139198022Y-134362000D01*
X138997546Y-134399474D01*
X138807360Y-134473153D01*
X138633961Y-134580517D01*
X138483237Y-134717920D01*
X138360325Y-134880681D01*
X138269419Y-135063247D01*
X138213603Y-135259417D01*
X138197102Y-135437500D01*
X138194785Y-135462500D01*
X133098300Y-135462500D01*
X133098342Y-134150000D01*
X136844750Y-134150000D01*
X136863669Y-134293709D01*
X136902892Y-134388401D01*
X136919139Y-134427625D01*
X136954073Y-134473152D01*
X137007378Y-134542621D01*
X137056766Y-134580517D01*
X137122375Y-134630861D01*
X137217067Y-134670083D01*
X137256290Y-134686330D01*
X137273008Y-134688531D01*
X137400000Y-134705250D01*
X137543709Y-134686330D01*
X137677625Y-134630861D01*
X137792621Y-134542621D01*
X137880861Y-134427625D01*
X137936330Y-134293709D01*
X137955250Y-134150000D01*
X137936330Y-134006291D01*
X137933941Y-134000524D01*
X137903424Y-133926848D01*
X137880861Y-133872375D01*
X137830932Y-133807306D01*
X137792621Y-133757378D01*
X137727069Y-133707079D01*
X137677625Y-133669139D01*
X137638401Y-133652892D01*
X137543709Y-133613669D01*
X137416717Y-133596951D01*
X137400000Y-133594750D01*
X137399999Y-133594750D01*
X137256290Y-133613669D01*
X137122375Y-133669139D01*
X137007378Y-133757378D01*
X136919139Y-133872375D01*
X136863669Y-134006290D01*
X136844750Y-134150000D01*
X133098342Y-134150000D01*
X133098380Y-132962500D01*
X138194785Y-132962500D01*
X138213603Y-133165583D01*
X138262305Y-133336752D01*
X138269419Y-133361752D01*
X138360325Y-133544318D01*
X138360326Y-133544319D01*
X138360327Y-133544321D01*
X138483236Y-133707079D01*
X138633959Y-133844481D01*
X138807363Y-133951848D01*
X138933011Y-134000524D01*
X138997546Y-134025525D01*
X139198022Y-134063000D01*
X139198024Y-134063000D01*
X139401978Y-134063000D01*
X139602453Y-134025525D01*
X139602456Y-134025524D01*
X139792637Y-133951848D01*
X139966041Y-133844481D01*
X140116764Y-133707079D01*
X140239673Y-133544321D01*
X140330582Y-133361750D01*
X140386397Y-133165583D01*
X140405215Y-132962500D01*
X143194785Y-132962500D01*
X143213603Y-133165583D01*
X143262305Y-133336752D01*
X143269419Y-133361752D01*
X143360325Y-133544318D01*
X143360326Y-133544319D01*
X143360327Y-133544321D01*
X143483236Y-133707079D01*
X143633959Y-133844481D01*
X143807363Y-133951848D01*
X143933011Y-134000524D01*
X143997546Y-134025525D01*
X144198022Y-134063000D01*
X144198024Y-134063000D01*
X144401978Y-134063000D01*
X144602453Y-134025525D01*
X144602456Y-134025524D01*
X144792637Y-133951848D01*
X144966041Y-133844481D01*
X145116764Y-133707079D01*
X145239673Y-133544321D01*
X145330582Y-133361750D01*
X145386397Y-133165583D01*
X145405215Y-132962500D01*
X145386397Y-132759417D01*
X145330582Y-132563250D01*
X145239673Y-132380679D01*
X145116764Y-132217921D01*
X144966041Y-132080519D01*
X144925665Y-132055519D01*
X144792639Y-131973153D01*
X144792637Y-131973152D01*
X144728104Y-131948152D01*
X144602453Y-131899474D01*
X144401978Y-131862000D01*
X144401976Y-131862000D01*
X144198024Y-131862000D01*
X144198022Y-131862000D01*
X143997546Y-131899474D01*
X143807360Y-131973153D01*
X143633961Y-132080517D01*
X143483237Y-132217920D01*
X143360325Y-132380681D01*
X143269419Y-132563247D01*
X143213603Y-132759417D01*
X143197102Y-132937500D01*
X143194785Y-132962500D01*
X140405215Y-132962500D01*
X140386397Y-132759417D01*
X140330582Y-132563250D01*
X140239673Y-132380679D01*
X140116764Y-132217921D01*
X139966041Y-132080519D01*
X139925665Y-132055519D01*
X139792639Y-131973153D01*
X139792637Y-131973152D01*
X139728104Y-131948152D01*
X139602453Y-131899474D01*
X139401978Y-131862000D01*
X139401976Y-131862000D01*
X139198024Y-131862000D01*
X139198022Y-131862000D01*
X138997546Y-131899474D01*
X138807360Y-131973153D01*
X138633961Y-132080517D01*
X138483237Y-132217920D01*
X138360325Y-132380681D01*
X138269419Y-132563247D01*
X138213603Y-132759417D01*
X138197102Y-132937500D01*
X138194785Y-132962500D01*
X133098380Y-132962500D01*
X133098460Y-130462500D01*
X138194785Y-130462500D01*
X138213603Y-130665583D01*
X138262305Y-130836752D01*
X138269419Y-130861752D01*
X138360325Y-131044318D01*
X138360326Y-131044319D01*
X138360327Y-131044321D01*
X138483236Y-131207079D01*
X138633959Y-131344481D01*
X138807363Y-131451848D01*
X138933011Y-131500524D01*
X138997546Y-131525525D01*
X139198022Y-131563000D01*
X139198024Y-131563000D01*
X139401978Y-131563000D01*
X139602453Y-131525525D01*
X139602456Y-131525524D01*
X139792637Y-131451848D01*
X139966041Y-131344481D01*
X140116764Y-131207079D01*
X140239673Y-131044321D01*
X140330582Y-130861750D01*
X140386397Y-130665583D01*
X140405215Y-130462500D01*
X143194785Y-130462500D01*
X143213603Y-130665583D01*
X143262305Y-130836752D01*
X143269419Y-130861752D01*
X143360325Y-131044318D01*
X143360326Y-131044319D01*
X143360327Y-131044321D01*
X143483236Y-131207079D01*
X143633959Y-131344481D01*
X143807363Y-131451848D01*
X143933011Y-131500524D01*
X143997546Y-131525525D01*
X144198022Y-131563000D01*
X144198024Y-131563000D01*
X144401978Y-131563000D01*
X144602453Y-131525525D01*
X144602456Y-131525524D01*
X144792637Y-131451848D01*
X144966041Y-131344481D01*
X145116764Y-131207079D01*
X145239673Y-131044321D01*
X145330582Y-130861750D01*
X145386397Y-130665583D01*
X145405215Y-130462500D01*
X145402898Y-130437500D01*
X159244785Y-130437500D01*
X159263603Y-130640583D01*
X159270716Y-130665583D01*
X159319419Y-130836752D01*
X159410325Y-131019318D01*
X159410326Y-131019319D01*
X159410327Y-131019321D01*
X159533236Y-131182079D01*
X159683959Y-131319481D01*
X159857363Y-131426848D01*
X160007254Y-131484915D01*
X160047546Y-131500525D01*
X160248022Y-131538000D01*
X160248024Y-131538000D01*
X160451978Y-131538000D01*
X160652453Y-131500525D01*
X160652456Y-131500524D01*
X160842637Y-131426848D01*
X161016041Y-131319481D01*
X161166764Y-131182079D01*
X161289673Y-131019321D01*
X161380582Y-130836750D01*
X161436397Y-130640583D01*
X161455215Y-130437500D01*
X164244785Y-130437500D01*
X164263603Y-130640583D01*
X164270716Y-130665583D01*
X164319419Y-130836752D01*
X164410325Y-131019318D01*
X164410326Y-131019319D01*
X164410327Y-131019321D01*
X164533236Y-131182079D01*
X164683959Y-131319481D01*
X164857363Y-131426848D01*
X165007254Y-131484915D01*
X165047546Y-131500525D01*
X165248022Y-131538000D01*
X165248024Y-131538000D01*
X165451978Y-131538000D01*
X165652453Y-131500525D01*
X165652456Y-131500524D01*
X165842637Y-131426848D01*
X166016041Y-131319481D01*
X166166764Y-131182079D01*
X166289673Y-131019321D01*
X166380582Y-130836750D01*
X166436397Y-130640583D01*
X166455215Y-130437500D01*
X166436397Y-130234417D01*
X166380582Y-130038250D01*
X166289673Y-129855679D01*
X166166764Y-129692921D01*
X166016041Y-129555519D01*
X166010963Y-129552375D01*
X165842639Y-129448153D01*
X165842637Y-129448152D01*
X165802347Y-129432543D01*
X165652453Y-129374474D01*
X165451978Y-129337000D01*
X165451976Y-129337000D01*
X165248024Y-129337000D01*
X165248022Y-129337000D01*
X165047546Y-129374474D01*
X164857360Y-129448153D01*
X164683961Y-129555517D01*
X164533237Y-129692920D01*
X164410325Y-129855681D01*
X164351555Y-129973709D01*
X164319418Y-130038250D01*
X164263603Y-130234417D01*
X164244785Y-130437500D01*
X161455215Y-130437500D01*
X161436397Y-130234417D01*
X161380582Y-130038250D01*
X161289673Y-129855679D01*
X161166764Y-129692921D01*
X161016041Y-129555519D01*
X161010963Y-129552375D01*
X160842639Y-129448153D01*
X160842637Y-129448152D01*
X160802347Y-129432543D01*
X160652453Y-129374474D01*
X160451978Y-129337000D01*
X160451976Y-129337000D01*
X160248024Y-129337000D01*
X160248022Y-129337000D01*
X160047546Y-129374474D01*
X159857360Y-129448153D01*
X159683961Y-129555517D01*
X159533237Y-129692920D01*
X159410325Y-129855681D01*
X159351555Y-129973709D01*
X159319418Y-130038250D01*
X159263603Y-130234417D01*
X159244785Y-130437500D01*
X145402898Y-130437500D01*
X145386397Y-130259417D01*
X145330582Y-130063250D01*
X145239673Y-129880679D01*
X145201401Y-129829999D01*
X156377250Y-129829999D01*
X156396169Y-129973709D01*
X156435392Y-130068401D01*
X156451639Y-130107625D01*
X156489950Y-130157552D01*
X156539878Y-130222621D01*
X156587832Y-130259417D01*
X156654875Y-130310861D01*
X156749567Y-130350083D01*
X156788790Y-130366330D01*
X156807710Y-130368820D01*
X156932500Y-130385250D01*
X157076209Y-130366330D01*
X157210125Y-130310861D01*
X157325121Y-130222621D01*
X157413361Y-130107625D01*
X157468830Y-129973709D01*
X157487750Y-129830000D01*
X157468830Y-129686291D01*
X157413361Y-129552375D01*
X157352571Y-129473152D01*
X157325121Y-129437378D01*
X157260052Y-129387450D01*
X157210125Y-129349139D01*
X157170901Y-129332892D01*
X157076209Y-129293669D01*
X156949217Y-129276951D01*
X156932500Y-129274750D01*
X156932499Y-129274750D01*
X156788790Y-129293669D01*
X156654875Y-129349139D01*
X156539878Y-129437378D01*
X156451639Y-129552375D01*
X156396169Y-129686290D01*
X156377250Y-129829999D01*
X145201401Y-129829999D01*
X145116764Y-129717921D01*
X144966041Y-129580519D01*
X144925665Y-129555519D01*
X144792639Y-129473153D01*
X144792637Y-129473152D01*
X144700296Y-129437379D01*
X144602453Y-129399474D01*
X144401978Y-129362000D01*
X144401976Y-129362000D01*
X144198024Y-129362000D01*
X144198022Y-129362000D01*
X143997546Y-129399474D01*
X143807360Y-129473153D01*
X143633961Y-129580517D01*
X143483237Y-129717920D01*
X143360325Y-129880681D01*
X143281866Y-130038250D01*
X143269418Y-130063250D01*
X143220716Y-130234417D01*
X143213603Y-130259417D01*
X143197102Y-130437500D01*
X143194785Y-130462500D01*
X140405215Y-130462500D01*
X140386397Y-130259417D01*
X140330582Y-130063250D01*
X140239673Y-129880679D01*
X140116764Y-129717921D01*
X139966041Y-129580519D01*
X139925665Y-129555519D01*
X139792639Y-129473153D01*
X139792637Y-129473152D01*
X139700296Y-129437379D01*
X139602453Y-129399474D01*
X139401978Y-129362000D01*
X139401976Y-129362000D01*
X139198024Y-129362000D01*
X139198022Y-129362000D01*
X138997546Y-129399474D01*
X138807360Y-129473153D01*
X138633961Y-129580517D01*
X138483237Y-129717920D01*
X138360325Y-129880681D01*
X138281866Y-130038250D01*
X138269418Y-130063250D01*
X138220716Y-130234417D01*
X138213603Y-130259417D01*
X138197102Y-130437500D01*
X138194785Y-130462500D01*
X133098460Y-130462500D01*
X133098503Y-129112499D01*
X136894750Y-129112499D01*
X136913669Y-129256209D01*
X136947134Y-129337000D01*
X136969139Y-129390125D01*
X137007450Y-129440052D01*
X137057378Y-129505121D01*
X137107306Y-129543432D01*
X137172375Y-129593361D01*
X137267067Y-129632583D01*
X137306290Y-129648830D01*
X137323008Y-129651031D01*
X137450000Y-129667750D01*
X137593709Y-129648830D01*
X137727625Y-129593361D01*
X137842621Y-129505121D01*
X137930861Y-129390125D01*
X137986330Y-129256209D01*
X138005250Y-129112500D01*
X137986330Y-128968791D01*
X137978079Y-128948872D01*
X137968956Y-128926846D01*
X137930861Y-128834875D01*
X137880932Y-128769806D01*
X137842621Y-128719878D01*
X137777552Y-128669950D01*
X137727625Y-128631639D01*
X137688401Y-128615392D01*
X137593709Y-128576169D01*
X137450000Y-128557250D01*
X137306290Y-128576169D01*
X137172375Y-128631639D01*
X137057378Y-128719878D01*
X136969139Y-128834875D01*
X136913669Y-128968790D01*
X136894750Y-129112499D01*
X133098503Y-129112499D01*
X133098540Y-127962500D01*
X138232358Y-127962500D01*
X138252872Y-128170784D01*
X138313627Y-128371069D01*
X138412287Y-128555648D01*
X138429129Y-128576170D01*
X138545064Y-128717436D01*
X138669406Y-128819481D01*
X138706851Y-128850212D01*
X138891430Y-128948872D01*
X138957092Y-128968790D01*
X139091714Y-129009627D01*
X139195857Y-129019884D01*
X139299999Y-129030141D01*
X139299999Y-129030140D01*
X139300000Y-129030141D01*
X139508286Y-129009627D01*
X139708569Y-128948872D01*
X139893150Y-128850211D01*
X140054936Y-128717436D01*
X140187711Y-128555650D01*
X140286372Y-128371069D01*
X140347127Y-128170786D01*
X140367641Y-127962500D01*
X143194785Y-127962500D01*
X143213603Y-128165583D01*
X143262305Y-128336752D01*
X143269419Y-128361752D01*
X143360325Y-128544318D01*
X143360326Y-128544319D01*
X143360327Y-128544321D01*
X143483236Y-128707079D01*
X143633959Y-128844481D01*
X143807363Y-128951848D01*
X143933011Y-129000524D01*
X143997546Y-129025525D01*
X144198022Y-129063000D01*
X144198024Y-129063000D01*
X144401978Y-129063000D01*
X144602453Y-129025525D01*
X144602456Y-129025524D01*
X144792637Y-128951848D01*
X144966041Y-128844481D01*
X145116764Y-128707079D01*
X145239673Y-128544321D01*
X145330582Y-128361750D01*
X145386397Y-128165583D01*
X145405215Y-127962500D01*
X145402898Y-127937500D01*
X159244785Y-127937500D01*
X159263603Y-128140583D01*
X159270716Y-128165583D01*
X159319419Y-128336752D01*
X159410325Y-128519318D01*
X159410326Y-128519319D01*
X159410327Y-128519321D01*
X159533236Y-128682079D01*
X159683959Y-128819481D01*
X159857363Y-128926848D01*
X160007254Y-128984915D01*
X160047546Y-129000525D01*
X160248022Y-129038000D01*
X160248024Y-129038000D01*
X160451978Y-129038000D01*
X160652453Y-129000525D01*
X160652456Y-129000524D01*
X160842637Y-128926848D01*
X161016041Y-128819481D01*
X161166764Y-128682079D01*
X161289673Y-128519321D01*
X161380582Y-128336750D01*
X161436397Y-128140583D01*
X161455215Y-127937500D01*
X164244785Y-127937500D01*
X164263603Y-128140583D01*
X164270716Y-128165583D01*
X164319419Y-128336752D01*
X164410325Y-128519318D01*
X164410326Y-128519319D01*
X164410327Y-128519321D01*
X164533236Y-128682079D01*
X164683959Y-128819481D01*
X164857363Y-128926848D01*
X165007254Y-128984915D01*
X165047546Y-129000525D01*
X165248022Y-129038000D01*
X165248024Y-129038000D01*
X165451978Y-129038000D01*
X165652453Y-129000525D01*
X165652456Y-129000524D01*
X165842637Y-128926848D01*
X166016041Y-128819481D01*
X166166764Y-128682079D01*
X166289673Y-128519321D01*
X166380582Y-128336750D01*
X166436397Y-128140583D01*
X166455215Y-127937500D01*
X166436397Y-127734417D01*
X166380582Y-127538250D01*
X166289673Y-127355679D01*
X166166764Y-127192921D01*
X166016041Y-127055519D01*
X165887820Y-126976128D01*
X165842639Y-126948153D01*
X165842637Y-126948152D01*
X165802347Y-126932543D01*
X165652453Y-126874474D01*
X165451978Y-126837000D01*
X165451976Y-126837000D01*
X165248024Y-126837000D01*
X165248022Y-126837000D01*
X165047546Y-126874474D01*
X164857360Y-126948153D01*
X164683961Y-127055517D01*
X164533237Y-127192920D01*
X164410325Y-127355681D01*
X164319419Y-127538247D01*
X164319418Y-127538250D01*
X164263603Y-127734417D01*
X164244785Y-127937500D01*
X161455215Y-127937500D01*
X161436397Y-127734417D01*
X161380582Y-127538250D01*
X161289673Y-127355679D01*
X161166764Y-127192921D01*
X161016041Y-127055519D01*
X160887820Y-126976128D01*
X160842639Y-126948153D01*
X160842637Y-126948152D01*
X160802347Y-126932543D01*
X160652453Y-126874474D01*
X160451978Y-126837000D01*
X160451976Y-126837000D01*
X160248024Y-126837000D01*
X160248022Y-126837000D01*
X160047546Y-126874474D01*
X159857360Y-126948153D01*
X159683961Y-127055517D01*
X159533237Y-127192920D01*
X159410325Y-127355681D01*
X159319419Y-127538247D01*
X159319418Y-127538250D01*
X159263603Y-127734417D01*
X159244785Y-127937500D01*
X145402898Y-127937500D01*
X145386397Y-127759417D01*
X145330582Y-127563250D01*
X145239673Y-127380679D01*
X145116764Y-127217921D01*
X144966041Y-127080519D01*
X144956787Y-127074789D01*
X144792639Y-126973153D01*
X144792637Y-126973152D01*
X144728104Y-126948152D01*
X144602453Y-126899474D01*
X144401978Y-126862000D01*
X144401976Y-126862000D01*
X144198024Y-126862000D01*
X144198022Y-126862000D01*
X143997546Y-126899474D01*
X143807360Y-126973153D01*
X143633961Y-127080517D01*
X143483237Y-127217920D01*
X143360325Y-127380681D01*
X143274058Y-127553931D01*
X143269418Y-127563250D01*
X143213603Y-127759417D01*
X143194785Y-127962500D01*
X140367641Y-127962500D01*
X140347127Y-127754214D01*
X140286372Y-127553931D01*
X140286372Y-127553930D01*
X140187712Y-127369351D01*
X140167523Y-127344751D01*
X140054936Y-127207564D01*
X139893150Y-127074789D01*
X139893151Y-127074789D01*
X139893148Y-127074787D01*
X139708569Y-126976127D01*
X139508284Y-126915372D01*
X139300000Y-126894858D01*
X139091715Y-126915372D01*
X138891430Y-126976127D01*
X138706851Y-127074787D01*
X138545064Y-127207564D01*
X138412287Y-127369351D01*
X138313627Y-127553930D01*
X138252872Y-127754215D01*
X138232358Y-127962500D01*
X133098540Y-127962500D01*
X133098619Y-125462500D01*
X138194785Y-125462500D01*
X138213603Y-125665583D01*
X138264956Y-125846069D01*
X138269419Y-125861752D01*
X138360325Y-126044318D01*
X138360326Y-126044319D01*
X138360327Y-126044321D01*
X138483236Y-126207079D01*
X138633959Y-126344481D01*
X138807363Y-126451848D01*
X138933011Y-126500524D01*
X138997546Y-126525525D01*
X139198022Y-126563000D01*
X139198024Y-126563000D01*
X139401978Y-126563000D01*
X139602453Y-126525525D01*
X139602456Y-126525524D01*
X139792637Y-126451848D01*
X139966041Y-126344481D01*
X140116764Y-126207079D01*
X140239673Y-126044321D01*
X140330582Y-125861750D01*
X140386397Y-125665583D01*
X140405215Y-125462500D01*
X143194785Y-125462500D01*
X143213603Y-125665583D01*
X143264956Y-125846069D01*
X143269419Y-125861752D01*
X143360325Y-126044318D01*
X143360326Y-126044319D01*
X143360327Y-126044321D01*
X143483236Y-126207079D01*
X143633959Y-126344481D01*
X143807363Y-126451848D01*
X143933011Y-126500524D01*
X143997546Y-126525525D01*
X144198022Y-126563000D01*
X144198024Y-126563000D01*
X144401978Y-126563000D01*
X144602453Y-126525525D01*
X144602456Y-126525524D01*
X144792637Y-126451848D01*
X144966041Y-126344481D01*
X145116764Y-126207079D01*
X145239673Y-126044321D01*
X145330582Y-125861750D01*
X145386397Y-125665583D01*
X145405215Y-125462500D01*
X145402898Y-125437500D01*
X159244785Y-125437500D01*
X159263603Y-125640583D01*
X159270716Y-125665583D01*
X159319419Y-125836752D01*
X159410325Y-126019318D01*
X159410326Y-126019319D01*
X159410327Y-126019321D01*
X159533236Y-126182079D01*
X159683959Y-126319481D01*
X159857363Y-126426848D01*
X160006509Y-126484627D01*
X160047546Y-126500525D01*
X160248022Y-126538000D01*
X160248024Y-126538000D01*
X160451978Y-126538000D01*
X160652453Y-126500525D01*
X160652456Y-126500524D01*
X160842637Y-126426848D01*
X161016041Y-126319481D01*
X161166764Y-126182079D01*
X161289673Y-126019321D01*
X161380582Y-125836750D01*
X161436397Y-125640583D01*
X161455215Y-125437500D01*
X161455215Y-125437499D01*
X164282358Y-125437499D01*
X164302872Y-125645784D01*
X164363627Y-125846069D01*
X164462287Y-126030648D01*
X164502664Y-126079847D01*
X164595064Y-126192436D01*
X164732251Y-126305023D01*
X164756851Y-126325212D01*
X164941430Y-126423872D01*
X165033649Y-126451846D01*
X165141714Y-126484627D01*
X165350000Y-126505141D01*
X165558286Y-126484627D01*
X165758569Y-126423872D01*
X165943150Y-126325211D01*
X166104936Y-126192436D01*
X166237711Y-126030650D01*
X166336372Y-125846069D01*
X166397127Y-125645786D01*
X166417641Y-125437500D01*
X166397127Y-125229214D01*
X166336372Y-125028931D01*
X166336372Y-125028930D01*
X166237712Y-124844351D01*
X166217523Y-124819751D01*
X166104936Y-124682564D01*
X165992347Y-124590164D01*
X165943148Y-124549787D01*
X165758569Y-124451127D01*
X165558284Y-124390372D01*
X165350000Y-124369858D01*
X165141715Y-124390372D01*
X164941430Y-124451127D01*
X164756851Y-124549787D01*
X164595064Y-124682564D01*
X164462287Y-124844351D01*
X164363627Y-125028930D01*
X164302872Y-125229215D01*
X164282358Y-125437499D01*
X161455215Y-125437499D01*
X161436397Y-125234417D01*
X161380582Y-125038250D01*
X161289673Y-124855679D01*
X161166764Y-124692921D01*
X161016041Y-124555519D01*
X161006787Y-124549789D01*
X160842639Y-124448153D01*
X160842637Y-124448152D01*
X160802347Y-124432543D01*
X160652453Y-124374474D01*
X160451978Y-124337000D01*
X160451976Y-124337000D01*
X160248024Y-124337000D01*
X160248022Y-124337000D01*
X160047546Y-124374474D01*
X159857360Y-124448153D01*
X159683961Y-124555517D01*
X159683958Y-124555519D01*
X159683959Y-124555519D01*
X159533236Y-124692921D01*
X159523926Y-124705250D01*
X159410325Y-124855681D01*
X159324058Y-125028931D01*
X159319418Y-125038250D01*
X159263603Y-125234417D01*
X159244785Y-125437500D01*
X145402898Y-125437500D01*
X145386397Y-125259417D01*
X145330582Y-125063250D01*
X145239673Y-124880679D01*
X145116764Y-124717921D01*
X144966041Y-124580519D01*
X144925665Y-124555519D01*
X144792639Y-124473153D01*
X144792637Y-124473152D01*
X144728104Y-124448152D01*
X144602453Y-124399474D01*
X144401978Y-124362000D01*
X144401976Y-124362000D01*
X144198024Y-124362000D01*
X144198022Y-124362000D01*
X143997546Y-124399474D01*
X143807360Y-124473153D01*
X143633961Y-124580517D01*
X143483237Y-124717920D01*
X143360325Y-124880681D01*
X143269419Y-125063247D01*
X143213603Y-125259417D01*
X143197102Y-125437500D01*
X143194785Y-125462500D01*
X140405215Y-125462500D01*
X140386397Y-125259417D01*
X140330582Y-125063250D01*
X140239673Y-124880679D01*
X140116764Y-124717921D01*
X139966041Y-124580519D01*
X139925665Y-124555519D01*
X139792639Y-124473153D01*
X139792637Y-124473152D01*
X139728104Y-124448152D01*
X139602453Y-124399474D01*
X139401978Y-124362000D01*
X139401976Y-124362000D01*
X139198024Y-124362000D01*
X139198022Y-124362000D01*
X138997546Y-124399474D01*
X138807360Y-124473153D01*
X138633961Y-124580517D01*
X138483237Y-124717920D01*
X138360325Y-124880681D01*
X138269419Y-125063247D01*
X138213603Y-125259417D01*
X138197102Y-125437500D01*
X138194785Y-125462500D01*
X133098619Y-125462500D01*
X133098661Y-124150000D01*
X136944750Y-124150000D01*
X136963669Y-124293709D01*
X136995211Y-124369858D01*
X137019139Y-124427625D01*
X137034890Y-124448152D01*
X137107378Y-124542621D01*
X137156766Y-124580517D01*
X137222375Y-124630861D01*
X137317067Y-124670083D01*
X137356290Y-124686330D01*
X137375209Y-124688820D01*
X137500000Y-124705250D01*
X137643709Y-124686330D01*
X137777625Y-124630861D01*
X137892621Y-124542621D01*
X137980861Y-124427625D01*
X138036330Y-124293709D01*
X138055250Y-124150000D01*
X138036330Y-124006291D01*
X138033941Y-124000524D01*
X138003423Y-123926846D01*
X137980861Y-123872375D01*
X137930932Y-123807306D01*
X137892621Y-123757378D01*
X137827069Y-123707079D01*
X137777625Y-123669139D01*
X137738401Y-123652892D01*
X137643709Y-123613669D01*
X137516717Y-123596951D01*
X137500000Y-123594750D01*
X137499999Y-123594750D01*
X137356290Y-123613669D01*
X137222375Y-123669139D01*
X137107378Y-123757378D01*
X137019139Y-123872375D01*
X136963669Y-124006290D01*
X136944750Y-124150000D01*
X133098661Y-124150000D01*
X133098699Y-122962500D01*
X138194785Y-122962500D01*
X138213603Y-123165583D01*
X138262305Y-123336752D01*
X138269419Y-123361752D01*
X138360325Y-123544318D01*
X138360326Y-123544319D01*
X138360327Y-123544321D01*
X138483236Y-123707079D01*
X138633959Y-123844481D01*
X138807363Y-123951848D01*
X138933011Y-124000524D01*
X138997546Y-124025525D01*
X139198022Y-124063000D01*
X139198024Y-124063000D01*
X139401978Y-124063000D01*
X139602453Y-124025525D01*
X139602456Y-124025524D01*
X139792637Y-123951848D01*
X139966041Y-123844481D01*
X140116764Y-123707079D01*
X140239673Y-123544321D01*
X140330582Y-123361750D01*
X140386397Y-123165583D01*
X140405215Y-122962500D01*
X143194785Y-122962500D01*
X143213603Y-123165583D01*
X143262305Y-123336752D01*
X143269419Y-123361752D01*
X143360325Y-123544318D01*
X143360326Y-123544319D01*
X143360327Y-123544321D01*
X143483236Y-123707079D01*
X143633959Y-123844481D01*
X143807363Y-123951848D01*
X143933011Y-124000524D01*
X143997546Y-124025525D01*
X144198022Y-124063000D01*
X144198024Y-124063000D01*
X144401978Y-124063000D01*
X144602453Y-124025525D01*
X144602456Y-124025524D01*
X144792637Y-123951848D01*
X144966041Y-123844481D01*
X145116764Y-123707079D01*
X145239673Y-123544321D01*
X145330582Y-123361750D01*
X145386397Y-123165583D01*
X145405215Y-122962500D01*
X145402898Y-122937500D01*
X159244785Y-122937500D01*
X159263603Y-123140583D01*
X159270716Y-123165583D01*
X159319419Y-123336752D01*
X159410325Y-123519318D01*
X159410326Y-123519319D01*
X159410327Y-123519321D01*
X159533236Y-123682079D01*
X159683959Y-123819481D01*
X159857363Y-123926848D01*
X160007254Y-123984915D01*
X160047546Y-124000525D01*
X160248022Y-124038000D01*
X160248024Y-124038000D01*
X160451978Y-124038000D01*
X160652453Y-124000525D01*
X160652456Y-124000524D01*
X160842637Y-123926848D01*
X161016041Y-123819481D01*
X161166764Y-123682079D01*
X161289673Y-123519321D01*
X161380582Y-123336750D01*
X161436397Y-123140583D01*
X161455215Y-122937500D01*
X164244785Y-122937500D01*
X164263603Y-123140583D01*
X164270716Y-123165583D01*
X164319419Y-123336752D01*
X164410325Y-123519318D01*
X164410326Y-123519319D01*
X164410327Y-123519321D01*
X164533236Y-123682079D01*
X164683959Y-123819481D01*
X164857363Y-123926848D01*
X165007254Y-123984915D01*
X165047546Y-124000525D01*
X165248022Y-124038000D01*
X165248024Y-124038000D01*
X165451978Y-124038000D01*
X165652453Y-124000525D01*
X165652456Y-124000524D01*
X165842637Y-123926848D01*
X166016041Y-123819481D01*
X166166764Y-123682079D01*
X166289673Y-123519321D01*
X166380582Y-123336750D01*
X166436397Y-123140583D01*
X166455215Y-122937500D01*
X166436397Y-122734417D01*
X166380582Y-122538250D01*
X166289673Y-122355679D01*
X166166764Y-122192921D01*
X166016041Y-122055519D01*
X165883015Y-121973153D01*
X165842639Y-121948153D01*
X165842637Y-121948152D01*
X165798902Y-121931209D01*
X165652453Y-121874474D01*
X165451978Y-121837000D01*
X165451976Y-121837000D01*
X165248024Y-121837000D01*
X165248022Y-121837000D01*
X165047546Y-121874474D01*
X164857360Y-121948153D01*
X164683961Y-122055517D01*
X164533237Y-122192920D01*
X164410325Y-122355681D01*
X164319419Y-122538247D01*
X164319418Y-122538250D01*
X164263603Y-122734417D01*
X164244785Y-122937500D01*
X161455215Y-122937500D01*
X161436397Y-122734417D01*
X161380582Y-122538250D01*
X161289673Y-122355679D01*
X161166764Y-122192921D01*
X161016041Y-122055519D01*
X160883015Y-121973153D01*
X160842639Y-121948153D01*
X160842637Y-121948152D01*
X160798902Y-121931209D01*
X160652453Y-121874474D01*
X160451978Y-121837000D01*
X160451976Y-121837000D01*
X160248024Y-121837000D01*
X160248022Y-121837000D01*
X160047546Y-121874474D01*
X159857360Y-121948153D01*
X159683961Y-122055517D01*
X159533237Y-122192920D01*
X159410325Y-122355681D01*
X159319419Y-122538247D01*
X159319418Y-122538250D01*
X159263603Y-122734417D01*
X159244785Y-122937500D01*
X145402898Y-122937500D01*
X145386397Y-122759417D01*
X145330582Y-122563250D01*
X145239673Y-122380679D01*
X145116764Y-122217921D01*
X144966041Y-122080519D01*
X144925665Y-122055519D01*
X144792639Y-121973153D01*
X144792637Y-121973152D01*
X144728104Y-121948152D01*
X144602453Y-121899474D01*
X144401978Y-121862000D01*
X144401976Y-121862000D01*
X144198024Y-121862000D01*
X144198022Y-121862000D01*
X143997546Y-121899474D01*
X143807360Y-121973153D01*
X143633961Y-122080517D01*
X143483237Y-122217920D01*
X143360325Y-122380681D01*
X143269419Y-122563247D01*
X143213603Y-122759417D01*
X143197102Y-122937500D01*
X143194785Y-122962500D01*
X140405215Y-122962500D01*
X140386397Y-122759417D01*
X140330582Y-122563250D01*
X140239673Y-122380679D01*
X140116764Y-122217921D01*
X139966041Y-122080519D01*
X139925665Y-122055519D01*
X139792639Y-121973153D01*
X139792637Y-121973152D01*
X139728104Y-121948152D01*
X139602453Y-121899474D01*
X139401978Y-121862000D01*
X139401976Y-121862000D01*
X139198024Y-121862000D01*
X139198022Y-121862000D01*
X138997546Y-121899474D01*
X138807360Y-121973153D01*
X138633961Y-122080517D01*
X138483237Y-122217920D01*
X138360325Y-122380681D01*
X138269419Y-122563247D01*
X138213603Y-122759417D01*
X138197102Y-122937500D01*
X138194785Y-122962500D01*
X133098699Y-122962500D01*
X133098736Y-121787500D01*
X163194750Y-121787500D01*
X163213669Y-121931209D01*
X163252892Y-122025901D01*
X163269139Y-122065125D01*
X163307450Y-122115052D01*
X163357378Y-122180121D01*
X163374060Y-122192921D01*
X163472375Y-122268361D01*
X163567067Y-122307583D01*
X163606290Y-122323830D01*
X163623008Y-122326031D01*
X163750000Y-122342750D01*
X163893709Y-122323830D01*
X164027625Y-122268361D01*
X164142621Y-122180121D01*
X164230861Y-122065125D01*
X164286330Y-121931209D01*
X164305250Y-121787500D01*
X164286330Y-121643791D01*
X164230861Y-121509875D01*
X164167152Y-121426848D01*
X164142621Y-121394878D01*
X164044362Y-121319482D01*
X164027625Y-121306639D01*
X163988401Y-121290392D01*
X163893709Y-121251169D01*
X163766717Y-121234451D01*
X163750000Y-121232250D01*
X163749999Y-121232250D01*
X163606290Y-121251169D01*
X163472375Y-121306639D01*
X163357378Y-121394878D01*
X163269139Y-121509875D01*
X163213669Y-121643790D01*
X163194750Y-121787500D01*
X133098736Y-121787500D01*
X133098778Y-120462500D01*
X138194785Y-120462500D01*
X138213603Y-120665583D01*
X138262305Y-120836752D01*
X138269419Y-120861752D01*
X138360325Y-121044318D01*
X138360326Y-121044319D01*
X138360327Y-121044321D01*
X138483236Y-121207079D01*
X138633959Y-121344481D01*
X138807363Y-121451848D01*
X138933011Y-121500524D01*
X138997546Y-121525525D01*
X139198022Y-121563000D01*
X139198024Y-121563000D01*
X139401978Y-121563000D01*
X139602453Y-121525525D01*
X139602456Y-121525524D01*
X139792637Y-121451848D01*
X139966041Y-121344481D01*
X140116764Y-121207079D01*
X140239673Y-121044321D01*
X140330582Y-120861750D01*
X140386397Y-120665583D01*
X140405215Y-120462500D01*
X143194785Y-120462500D01*
X143213603Y-120665583D01*
X143262305Y-120836752D01*
X143269419Y-120861752D01*
X143360325Y-121044318D01*
X143360326Y-121044319D01*
X143360327Y-121044321D01*
X143483236Y-121207079D01*
X143633959Y-121344481D01*
X143807363Y-121451848D01*
X143933011Y-121500524D01*
X143997546Y-121525525D01*
X144198022Y-121563000D01*
X144198024Y-121563000D01*
X144401978Y-121563000D01*
X144602453Y-121525525D01*
X144602456Y-121525524D01*
X144792637Y-121451848D01*
X144966041Y-121344481D01*
X145116764Y-121207079D01*
X145239673Y-121044321D01*
X145330582Y-120861750D01*
X145386397Y-120665583D01*
X145405215Y-120462500D01*
X145402898Y-120437500D01*
X159244785Y-120437500D01*
X159263603Y-120640583D01*
X159270716Y-120665583D01*
X159319419Y-120836752D01*
X159410325Y-121019318D01*
X159410326Y-121019319D01*
X159410327Y-121019321D01*
X159533236Y-121182079D01*
X159683959Y-121319481D01*
X159857363Y-121426848D01*
X160007254Y-121484915D01*
X160047546Y-121500525D01*
X160248022Y-121538000D01*
X160248024Y-121538000D01*
X160451978Y-121538000D01*
X160652453Y-121500525D01*
X160652456Y-121500524D01*
X160842637Y-121426848D01*
X161016041Y-121319481D01*
X161166764Y-121182079D01*
X161289673Y-121019321D01*
X161380582Y-120836750D01*
X161436397Y-120640583D01*
X161455215Y-120437500D01*
X164244785Y-120437500D01*
X164263603Y-120640583D01*
X164270716Y-120665583D01*
X164319419Y-120836752D01*
X164410325Y-121019318D01*
X164410326Y-121019319D01*
X164410327Y-121019321D01*
X164533236Y-121182079D01*
X164683959Y-121319481D01*
X164857363Y-121426848D01*
X165007254Y-121484915D01*
X165047546Y-121500525D01*
X165248022Y-121538000D01*
X165248024Y-121538000D01*
X165451978Y-121538000D01*
X165652453Y-121500525D01*
X165652456Y-121500524D01*
X165842637Y-121426848D01*
X166016041Y-121319481D01*
X166166764Y-121182079D01*
X166289673Y-121019321D01*
X166380582Y-120836750D01*
X166436397Y-120640583D01*
X166455215Y-120437500D01*
X166436397Y-120234417D01*
X166380582Y-120038250D01*
X166289673Y-119855679D01*
X166166764Y-119692921D01*
X166016041Y-119555519D01*
X165883015Y-119473153D01*
X165842639Y-119448153D01*
X165842637Y-119448152D01*
X165802347Y-119432543D01*
X165652453Y-119374474D01*
X165451978Y-119337000D01*
X165451976Y-119337000D01*
X165248024Y-119337000D01*
X165248022Y-119337000D01*
X165047546Y-119374474D01*
X164857360Y-119448153D01*
X164683961Y-119555517D01*
X164533237Y-119692920D01*
X164410325Y-119855681D01*
X164319419Y-120038247D01*
X164319418Y-120038250D01*
X164263603Y-120234417D01*
X164244785Y-120437500D01*
X161455215Y-120437500D01*
X161436397Y-120234417D01*
X161380582Y-120038250D01*
X161289673Y-119855679D01*
X161166764Y-119692921D01*
X161016041Y-119555519D01*
X160883015Y-119473153D01*
X160842639Y-119448153D01*
X160842637Y-119448152D01*
X160802347Y-119432543D01*
X160652453Y-119374474D01*
X160451978Y-119337000D01*
X160451976Y-119337000D01*
X160248024Y-119337000D01*
X160248022Y-119337000D01*
X160047546Y-119374474D01*
X159857360Y-119448153D01*
X159683961Y-119555517D01*
X159533237Y-119692920D01*
X159410325Y-119855681D01*
X159319419Y-120038247D01*
X159319418Y-120038250D01*
X159263603Y-120234417D01*
X159244785Y-120437500D01*
X145402898Y-120437500D01*
X145386397Y-120259417D01*
X145330582Y-120063250D01*
X145239673Y-119880679D01*
X145116764Y-119717921D01*
X144966041Y-119580519D01*
X144925665Y-119555519D01*
X144792639Y-119473153D01*
X144792637Y-119473152D01*
X144728104Y-119448152D01*
X144602453Y-119399474D01*
X144401978Y-119362000D01*
X144401976Y-119362000D01*
X144198024Y-119362000D01*
X144198022Y-119362000D01*
X143997546Y-119399474D01*
X143807360Y-119473153D01*
X143633961Y-119580517D01*
X143483237Y-119717920D01*
X143360325Y-119880681D01*
X143269419Y-120063247D01*
X143213603Y-120259417D01*
X143197102Y-120437500D01*
X143194785Y-120462500D01*
X140405215Y-120462500D01*
X140386397Y-120259417D01*
X140330582Y-120063250D01*
X140239673Y-119880679D01*
X140116764Y-119717921D01*
X139966041Y-119580519D01*
X139925665Y-119555519D01*
X139792639Y-119473153D01*
X139792637Y-119473152D01*
X139728104Y-119448152D01*
X139602453Y-119399474D01*
X139401978Y-119362000D01*
X139401976Y-119362000D01*
X139198024Y-119362000D01*
X139198022Y-119362000D01*
X138997546Y-119399474D01*
X138807360Y-119473153D01*
X138633961Y-119580517D01*
X138483237Y-119717920D01*
X138360325Y-119880681D01*
X138269419Y-120063247D01*
X138213603Y-120259417D01*
X138197102Y-120437500D01*
X138194785Y-120462500D01*
X133098778Y-120462500D01*
X133098858Y-117962500D01*
X138194785Y-117962500D01*
X138213603Y-118165583D01*
X138262305Y-118336752D01*
X138269419Y-118361752D01*
X138360325Y-118544318D01*
X138360326Y-118544319D01*
X138360327Y-118544321D01*
X138483236Y-118707079D01*
X138633959Y-118844481D01*
X138807363Y-118951848D01*
X138933011Y-119000524D01*
X138997546Y-119025525D01*
X139198022Y-119063000D01*
X139198024Y-119063000D01*
X139401978Y-119063000D01*
X139602453Y-119025525D01*
X139602456Y-119025524D01*
X139792637Y-118951848D01*
X139966041Y-118844481D01*
X140116764Y-118707079D01*
X140239673Y-118544321D01*
X140330582Y-118361750D01*
X140386397Y-118165583D01*
X140405215Y-117962500D01*
X143194785Y-117962500D01*
X143213603Y-118165583D01*
X143262305Y-118336752D01*
X143269419Y-118361752D01*
X143360325Y-118544318D01*
X143360326Y-118544319D01*
X143360327Y-118544321D01*
X143483236Y-118707079D01*
X143633959Y-118844481D01*
X143807363Y-118951848D01*
X143933011Y-119000524D01*
X143997546Y-119025525D01*
X144198022Y-119063000D01*
X144198024Y-119063000D01*
X144401978Y-119063000D01*
X144602453Y-119025525D01*
X144602456Y-119025524D01*
X144792637Y-118951848D01*
X144966041Y-118844481D01*
X145116764Y-118707079D01*
X145239673Y-118544321D01*
X145330582Y-118361750D01*
X145386397Y-118165583D01*
X145405215Y-117962500D01*
X145402898Y-117937500D01*
X159244785Y-117937500D01*
X159263603Y-118140583D01*
X159270716Y-118165583D01*
X159319419Y-118336752D01*
X159410325Y-118519318D01*
X159410326Y-118519319D01*
X159410327Y-118519321D01*
X159533236Y-118682079D01*
X159683959Y-118819481D01*
X159857363Y-118926848D01*
X160007254Y-118984915D01*
X160047546Y-119000525D01*
X160248022Y-119038000D01*
X160248024Y-119038000D01*
X160451978Y-119038000D01*
X160652453Y-119000525D01*
X160652456Y-119000524D01*
X160842637Y-118926848D01*
X161016041Y-118819481D01*
X161166764Y-118682079D01*
X161289673Y-118519321D01*
X161380582Y-118336750D01*
X161436397Y-118140583D01*
X161455215Y-117937500D01*
X164244785Y-117937500D01*
X164263603Y-118140583D01*
X164270716Y-118165583D01*
X164319419Y-118336752D01*
X164410325Y-118519318D01*
X164410326Y-118519319D01*
X164410327Y-118519321D01*
X164533236Y-118682079D01*
X164683959Y-118819481D01*
X164857363Y-118926848D01*
X165007254Y-118984915D01*
X165047546Y-119000525D01*
X165248022Y-119038000D01*
X165248024Y-119038000D01*
X165451978Y-119038000D01*
X165652453Y-119000525D01*
X165652456Y-119000524D01*
X165842637Y-118926848D01*
X166016041Y-118819481D01*
X166166764Y-118682079D01*
X166289673Y-118519321D01*
X166380582Y-118336750D01*
X166436397Y-118140583D01*
X166455215Y-117937500D01*
X166436397Y-117734417D01*
X166380582Y-117538250D01*
X166289673Y-117355679D01*
X166166764Y-117192921D01*
X166016041Y-117055519D01*
X165883015Y-116973153D01*
X165842639Y-116948153D01*
X165842637Y-116948152D01*
X165798902Y-116931209D01*
X165652453Y-116874474D01*
X165451978Y-116837000D01*
X165451976Y-116837000D01*
X165248024Y-116837000D01*
X165248022Y-116837000D01*
X165047546Y-116874474D01*
X164857360Y-116948153D01*
X164683961Y-117055517D01*
X164533237Y-117192920D01*
X164410325Y-117355681D01*
X164319419Y-117538247D01*
X164319418Y-117538250D01*
X164263603Y-117734417D01*
X164244785Y-117937500D01*
X161455215Y-117937500D01*
X161436397Y-117734417D01*
X161380582Y-117538250D01*
X161289673Y-117355679D01*
X161166764Y-117192921D01*
X161016041Y-117055519D01*
X160883015Y-116973153D01*
X160842639Y-116948153D01*
X160842637Y-116948152D01*
X160798902Y-116931209D01*
X160652453Y-116874474D01*
X160451978Y-116837000D01*
X160451976Y-116837000D01*
X160248024Y-116837000D01*
X160248022Y-116837000D01*
X160047546Y-116874474D01*
X159857360Y-116948153D01*
X159683961Y-117055517D01*
X159533237Y-117192920D01*
X159410325Y-117355681D01*
X159319419Y-117538247D01*
X159319418Y-117538250D01*
X159263603Y-117734417D01*
X159244785Y-117937500D01*
X145402898Y-117937500D01*
X145386397Y-117759417D01*
X145330582Y-117563250D01*
X145239673Y-117380679D01*
X145116764Y-117217921D01*
X144966041Y-117080519D01*
X144925665Y-117055519D01*
X144792639Y-116973153D01*
X144792637Y-116973152D01*
X144728104Y-116948152D01*
X144602453Y-116899474D01*
X144401978Y-116862000D01*
X144401976Y-116862000D01*
X144198024Y-116862000D01*
X144198022Y-116862000D01*
X143997546Y-116899474D01*
X143807360Y-116973153D01*
X143633961Y-117080517D01*
X143483237Y-117217920D01*
X143360325Y-117380681D01*
X143281866Y-117538250D01*
X143269418Y-117563250D01*
X143213603Y-117759417D01*
X143194785Y-117962500D01*
X140405215Y-117962500D01*
X140386397Y-117759417D01*
X140330582Y-117563250D01*
X140239673Y-117380679D01*
X140116764Y-117217921D01*
X139966041Y-117080519D01*
X139925665Y-117055519D01*
X139792639Y-116973153D01*
X139792637Y-116973152D01*
X139728104Y-116948152D01*
X139602453Y-116899474D01*
X139401978Y-116862000D01*
X139401976Y-116862000D01*
X139198024Y-116862000D01*
X139198022Y-116862000D01*
X138997546Y-116899474D01*
X138807360Y-116973153D01*
X138633961Y-117080517D01*
X138483237Y-117217920D01*
X138360325Y-117380681D01*
X138281866Y-117538250D01*
X138269418Y-117563250D01*
X138213603Y-117759417D01*
X138194785Y-117962500D01*
X133098858Y-117962500D01*
X133098896Y-116787499D01*
X162669250Y-116787499D01*
X162688169Y-116931209D01*
X162727392Y-117025901D01*
X162743639Y-117065125D01*
X162781950Y-117115052D01*
X162831878Y-117180121D01*
X162848560Y-117192921D01*
X162946875Y-117268361D01*
X163041567Y-117307583D01*
X163080790Y-117323830D01*
X163097508Y-117326031D01*
X163224500Y-117342750D01*
X163368209Y-117323830D01*
X163502125Y-117268361D01*
X163617121Y-117180121D01*
X163705361Y-117065125D01*
X163760830Y-116931209D01*
X163779750Y-116787500D01*
X163760830Y-116643791D01*
X163705361Y-116509875D01*
X163655432Y-116444806D01*
X163617121Y-116394878D01*
X163552052Y-116344950D01*
X163502125Y-116306639D01*
X163462901Y-116290392D01*
X163368209Y-116251169D01*
X163224500Y-116232250D01*
X163080790Y-116251169D01*
X162946875Y-116306639D01*
X162831878Y-116394878D01*
X162743639Y-116509875D01*
X162688169Y-116643790D01*
X162669250Y-116787499D01*
X133098896Y-116787499D01*
X133098965Y-114612499D01*
X140194750Y-114612499D01*
X140213669Y-114756209D01*
X140234380Y-114806209D01*
X140269139Y-114890125D01*
X140307450Y-114940052D01*
X140357378Y-115005121D01*
X140407306Y-115043432D01*
X140472375Y-115093361D01*
X140567067Y-115132583D01*
X140606290Y-115148830D01*
X140625209Y-115151320D01*
X140750000Y-115167750D01*
X140893709Y-115148830D01*
X141027625Y-115093361D01*
X141142621Y-115005121D01*
X141230861Y-114890125D01*
X141283535Y-114762955D01*
X141323272Y-114716429D01*
X141382767Y-114702145D01*
X141439295Y-114725560D01*
X141466464Y-114762955D01*
X141519139Y-114890125D01*
X141557450Y-114940052D01*
X141607378Y-115005121D01*
X141657306Y-115043432D01*
X141722375Y-115093361D01*
X141817067Y-115132583D01*
X141856290Y-115148830D01*
X141873008Y-115151031D01*
X142000000Y-115167750D01*
X142143709Y-115148830D01*
X142277625Y-115093361D01*
X142392621Y-115005121D01*
X142480861Y-114890125D01*
X142536330Y-114756209D01*
X142555250Y-114612500D01*
X142536330Y-114468791D01*
X142535047Y-114465694D01*
X142501571Y-114384875D01*
X142480861Y-114334875D01*
X142415822Y-114250115D01*
X142392621Y-114219878D01*
X142351165Y-114188068D01*
X148400138Y-114188068D01*
X148419057Y-114331778D01*
X148441051Y-114384875D01*
X148474527Y-114465694D01*
X148500421Y-114499439D01*
X148562766Y-114580690D01*
X148587932Y-114600000D01*
X148677763Y-114668930D01*
X148772455Y-114708152D01*
X148811678Y-114724399D01*
X148830598Y-114726889D01*
X148955388Y-114743319D01*
X149099097Y-114724399D01*
X149233013Y-114668930D01*
X149257300Y-114650293D01*
X149314971Y-114629870D01*
X149373637Y-114647246D01*
X149377832Y-114650294D01*
X149437734Y-114696257D01*
X149482980Y-114730976D01*
X149577672Y-114770198D01*
X149616895Y-114786445D01*
X149633613Y-114788646D01*
X149760605Y-114805365D01*
X149904314Y-114786445D01*
X150038230Y-114730976D01*
X150153226Y-114642736D01*
X150186019Y-114599999D01*
X156744750Y-114599999D01*
X156763669Y-114743709D01*
X156789208Y-114805364D01*
X156819139Y-114877625D01*
X156828730Y-114890124D01*
X156907378Y-114992621D01*
X156923669Y-115005121D01*
X157022375Y-115080861D01*
X157117067Y-115120083D01*
X157156290Y-115136330D01*
X157173008Y-115138531D01*
X157300000Y-115155250D01*
X157443709Y-115136330D01*
X157577625Y-115080861D01*
X157692621Y-114992621D01*
X157780861Y-114877625D01*
X157836330Y-114743709D01*
X157847022Y-114662499D01*
X168294750Y-114662499D01*
X168313669Y-114806209D01*
X168343251Y-114877625D01*
X168369139Y-114940125D01*
X168407450Y-114990052D01*
X168457378Y-115055121D01*
X168490924Y-115080861D01*
X168572375Y-115143361D01*
X168667067Y-115182583D01*
X168706290Y-115198830D01*
X168723008Y-115201031D01*
X168850000Y-115217750D01*
X168993709Y-115198830D01*
X169127625Y-115143361D01*
X169242621Y-115055121D01*
X169330861Y-114940125D01*
X169386330Y-114806209D01*
X169405250Y-114662500D01*
X169386330Y-114518791D01*
X169382096Y-114508570D01*
X169360442Y-114456291D01*
X169330861Y-114384875D01*
X169280932Y-114319806D01*
X169242621Y-114269878D01*
X169161170Y-114207379D01*
X169127625Y-114181639D01*
X169088401Y-114165392D01*
X168993709Y-114126169D01*
X168850000Y-114107250D01*
X168706290Y-114126169D01*
X168572375Y-114181639D01*
X168457378Y-114269878D01*
X168369139Y-114384875D01*
X168313669Y-114518790D01*
X168294750Y-114662499D01*
X157847022Y-114662499D01*
X157855250Y-114600000D01*
X157836330Y-114456291D01*
X157780861Y-114322375D01*
X157702212Y-114219878D01*
X157692621Y-114207378D01*
X157627552Y-114157450D01*
X157577625Y-114119139D01*
X157538401Y-114102892D01*
X157443709Y-114063669D01*
X157316717Y-114046951D01*
X157300000Y-114044750D01*
X157299999Y-114044750D01*
X157156290Y-114063669D01*
X157022375Y-114119139D01*
X156907378Y-114207378D01*
X156819139Y-114322375D01*
X156763669Y-114456290D01*
X156744750Y-114599999D01*
X150186019Y-114599999D01*
X150241466Y-114527740D01*
X150296935Y-114393824D01*
X150315855Y-114250115D01*
X150301658Y-114142280D01*
X150312808Y-114082120D01*
X150357190Y-114040003D01*
X150412733Y-114031206D01*
X150481891Y-114040311D01*
X150625600Y-114021391D01*
X150759516Y-113965922D01*
X150874512Y-113877682D01*
X150962752Y-113762686D01*
X151018221Y-113628770D01*
X151037141Y-113485061D01*
X151028634Y-113420446D01*
X151039784Y-113360288D01*
X151084166Y-113318170D01*
X151139708Y-113309373D01*
X151260303Y-113325250D01*
X151404012Y-113306330D01*
X151537928Y-113250861D01*
X151652924Y-113162621D01*
X151741164Y-113047625D01*
X151796633Y-112913709D01*
X151815553Y-112770000D01*
X151796633Y-112626291D01*
X151741164Y-112492375D01*
X151691235Y-112427306D01*
X151652924Y-112377378D01*
X151552082Y-112300000D01*
X151537928Y-112289139D01*
X151498704Y-112272892D01*
X151404012Y-112233669D01*
X151277020Y-112216951D01*
X151260303Y-112214750D01*
X151260302Y-112214750D01*
X151116592Y-112233669D01*
X150982678Y-112289138D01*
X150952625Y-112312198D01*
X150894949Y-112332621D01*
X150836284Y-112315243D01*
X150813817Y-112293922D01*
X150773656Y-112241583D01*
X150708587Y-112191655D01*
X150658660Y-112153344D01*
X150619436Y-112137097D01*
X150524744Y-112097874D01*
X150381035Y-112078955D01*
X150237325Y-112097874D01*
X150103410Y-112153344D01*
X149988413Y-112241583D01*
X149900174Y-112356580D01*
X149844704Y-112490495D01*
X149825785Y-112634205D01*
X149836434Y-112715094D01*
X149825284Y-112775255D01*
X149780901Y-112817372D01*
X149725360Y-112826169D01*
X149621392Y-112812482D01*
X149477682Y-112831401D01*
X149343767Y-112886871D01*
X149228770Y-112975110D01*
X149140531Y-113090107D01*
X149085061Y-113224022D01*
X149066142Y-113367732D01*
X149086763Y-113524363D01*
X149082120Y-113524974D01*
X149084828Y-113560740D01*
X149052703Y-113612813D01*
X148996105Y-113636059D01*
X148975713Y-113635494D01*
X148955390Y-113632818D01*
X148811678Y-113651738D01*
X148677763Y-113707208D01*
X148562766Y-113795447D01*
X148474527Y-113910444D01*
X148419057Y-114044359D01*
X148400138Y-114188068D01*
X142351165Y-114188068D01*
X142308394Y-114155249D01*
X142277625Y-114131639D01*
X142218744Y-114107250D01*
X142143709Y-114076169D01*
X142000000Y-114057250D01*
X141856290Y-114076169D01*
X141722375Y-114131639D01*
X141607378Y-114219878D01*
X141519139Y-114334874D01*
X141466464Y-114462045D01*
X141426727Y-114508570D01*
X141367233Y-114522854D01*
X141310705Y-114499439D01*
X141283536Y-114462045D01*
X141251571Y-114384875D01*
X141230861Y-114334875D01*
X141180987Y-114269878D01*
X141142621Y-114219878D01*
X141058394Y-114155249D01*
X141027625Y-114131639D01*
X140968744Y-114107250D01*
X140893709Y-114076169D01*
X140750000Y-114057250D01*
X140606290Y-114076169D01*
X140472375Y-114131639D01*
X140357378Y-114219878D01*
X140269139Y-114334875D01*
X140213669Y-114468790D01*
X140194750Y-114612499D01*
X133098965Y-114612499D01*
X133098997Y-113600000D01*
X134694750Y-113600000D01*
X134713669Y-113743709D01*
X134752892Y-113838401D01*
X134769139Y-113877625D01*
X134778542Y-113889879D01*
X134857378Y-113992621D01*
X134907306Y-114030932D01*
X134972375Y-114080861D01*
X135036085Y-114107250D01*
X135106290Y-114136330D01*
X135125209Y-114138820D01*
X135250000Y-114155250D01*
X135393709Y-114136330D01*
X135527625Y-114080861D01*
X135642621Y-113992621D01*
X135721458Y-113889878D01*
X135771882Y-113855223D01*
X135833047Y-113856824D01*
X135878542Y-113889879D01*
X135957378Y-113992621D01*
X136007306Y-114030932D01*
X136072375Y-114080861D01*
X136136085Y-114107250D01*
X136206290Y-114136330D01*
X136225209Y-114138820D01*
X136350000Y-114155250D01*
X136493709Y-114136330D01*
X136627625Y-114080861D01*
X136742621Y-113992621D01*
X136830861Y-113877625D01*
X136886330Y-113743709D01*
X136905250Y-113600000D01*
X136886330Y-113456291D01*
X136830861Y-113322375D01*
X136774312Y-113248679D01*
X136742621Y-113207378D01*
X136677552Y-113157450D01*
X136627625Y-113119139D01*
X136597287Y-113106572D01*
X136493710Y-113063669D01*
X136396918Y-113050927D01*
X136375845Y-113048152D01*
X136354900Y-113038162D01*
X136324153Y-113048152D01*
X136313304Y-113049581D01*
X136206290Y-113063669D01*
X136072375Y-113119139D01*
X135957378Y-113207378D01*
X135878542Y-113310120D01*
X135828117Y-113344776D01*
X135766953Y-113343174D01*
X135721458Y-113310120D01*
X135642621Y-113207378D01*
X135577552Y-113157450D01*
X135527625Y-113119139D01*
X135457535Y-113090107D01*
X135393709Y-113063669D01*
X135266717Y-113046951D01*
X135250000Y-113044750D01*
X135249999Y-113044750D01*
X135106290Y-113063669D01*
X134972375Y-113119139D01*
X134857378Y-113207378D01*
X134769139Y-113322375D01*
X134713669Y-113456290D01*
X134694750Y-113600000D01*
X133098997Y-113600000D01*
X133099039Y-112300000D01*
X135794750Y-112300000D01*
X135813669Y-112443709D01*
X135852892Y-112538401D01*
X135869139Y-112577625D01*
X135906481Y-112626290D01*
X135957378Y-112692621D01*
X135986666Y-112715094D01*
X136072375Y-112780861D01*
X136148716Y-112812482D01*
X136206290Y-112836330D01*
X136269270Y-112844621D01*
X136324153Y-112851847D01*
X136345098Y-112861837D01*
X136375844Y-112851847D01*
X136452662Y-112841733D01*
X136493710Y-112836330D01*
X136539478Y-112817372D01*
X136627625Y-112780861D01*
X136742621Y-112692621D01*
X136830861Y-112577625D01*
X136886330Y-112443709D01*
X136905250Y-112300000D01*
X136886330Y-112156291D01*
X136885109Y-112153344D01*
X136870083Y-112117067D01*
X136830861Y-112022375D01*
X136780932Y-111957306D01*
X136742621Y-111907378D01*
X136658149Y-111842561D01*
X136627625Y-111819139D01*
X136547501Y-111785951D01*
X136500455Y-111766464D01*
X136486049Y-111754160D01*
X159336891Y-111754160D01*
X159350699Y-111762836D01*
X159520853Y-111822376D01*
X159700000Y-111842561D01*
X159879143Y-111822376D01*
X160049304Y-111762835D01*
X160063107Y-111754161D01*
X160063106Y-111754160D01*
X160836891Y-111754160D01*
X160850699Y-111762836D01*
X161020853Y-111822376D01*
X161200000Y-111842561D01*
X161379143Y-111822376D01*
X161549304Y-111762835D01*
X161563107Y-111754161D01*
X161199999Y-111391053D01*
X160836891Y-111754160D01*
X160063106Y-111754160D01*
X159699999Y-111391053D01*
X159336891Y-111754160D01*
X136486049Y-111754160D01*
X136453929Y-111726728D01*
X136439645Y-111667233D01*
X136463060Y-111610705D01*
X136500455Y-111583536D01*
X136519115Y-111575806D01*
X136627625Y-111530861D01*
X136742621Y-111442621D01*
X136830861Y-111327625D01*
X136886330Y-111193709D01*
X136905250Y-111050000D01*
X136903604Y-111037500D01*
X158894938Y-111037500D01*
X158915123Y-111216643D01*
X158974664Y-111386806D01*
X158983337Y-111400608D01*
X159346446Y-111037500D01*
X159544709Y-111037500D01*
X159565514Y-111115145D01*
X159622355Y-111171986D01*
X159680254Y-111187500D01*
X159719746Y-111187500D01*
X159777645Y-111171986D01*
X159787131Y-111162500D01*
X160178554Y-111162500D01*
X160416661Y-111400607D01*
X160438920Y-111398100D01*
X160461089Y-111398101D01*
X160483337Y-111400608D01*
X160721446Y-111162500D01*
X160596446Y-111037500D01*
X161044709Y-111037500D01*
X161065514Y-111115145D01*
X161122355Y-111171986D01*
X161180254Y-111187500D01*
X161219746Y-111187500D01*
X161277645Y-111171986D01*
X161334486Y-111115146D01*
X161355291Y-111037500D01*
X161553552Y-111037500D01*
X161916660Y-111400608D01*
X161916661Y-111400607D01*
X161925335Y-111386804D01*
X161984876Y-111216643D01*
X162005061Y-111037500D01*
X161984876Y-110858353D01*
X161925336Y-110688199D01*
X161916660Y-110674391D01*
X161553552Y-111037500D01*
X161355291Y-111037500D01*
X161334486Y-110959855D01*
X161277645Y-110903014D01*
X161219746Y-110887500D01*
X161180254Y-110887500D01*
X161122355Y-110903014D01*
X161065514Y-110959854D01*
X161044709Y-111037500D01*
X160596446Y-111037500D01*
X160450000Y-110891054D01*
X160178554Y-111162500D01*
X159787131Y-111162500D01*
X159834486Y-111115146D01*
X159855291Y-111037500D01*
X159834486Y-110959855D01*
X159777645Y-110903014D01*
X159719746Y-110887500D01*
X159680254Y-110887500D01*
X159622355Y-110903014D01*
X159565514Y-110959854D01*
X159544709Y-111037500D01*
X159346446Y-111037500D01*
X159346447Y-111037499D01*
X158983338Y-110674390D01*
X158974663Y-110688197D01*
X158915123Y-110858353D01*
X158894938Y-111037500D01*
X136903604Y-111037500D01*
X136886330Y-110906291D01*
X136830861Y-110772375D01*
X136755675Y-110674391D01*
X136742621Y-110657378D01*
X136627625Y-110569139D01*
X136560810Y-110541463D01*
X136556170Y-110537500D01*
X159553554Y-110537500D01*
X159700000Y-110683946D01*
X159846446Y-110537500D01*
X160294709Y-110537500D01*
X160315514Y-110615145D01*
X160372355Y-110671986D01*
X160430254Y-110687500D01*
X160469746Y-110687500D01*
X160527645Y-110671986D01*
X160584486Y-110615146D01*
X160605291Y-110537500D01*
X161053554Y-110537500D01*
X161200000Y-110683946D01*
X161346446Y-110537500D01*
X161200000Y-110391054D01*
X161053554Y-110537500D01*
X160605291Y-110537500D01*
X160584486Y-110459855D01*
X160527645Y-110403014D01*
X160469746Y-110387500D01*
X160430254Y-110387500D01*
X160372355Y-110403014D01*
X160315514Y-110459854D01*
X160294709Y-110537500D01*
X159846446Y-110537500D01*
X159700000Y-110391054D01*
X159553554Y-110537500D01*
X136556170Y-110537500D01*
X136514284Y-110501726D01*
X136500001Y-110442231D01*
X136523416Y-110385703D01*
X136560807Y-110358537D01*
X136627625Y-110330861D01*
X136742621Y-110242621D01*
X136830861Y-110127625D01*
X136886330Y-109993709D01*
X136905250Y-109850000D01*
X136886330Y-109706291D01*
X136830861Y-109572375D01*
X136780932Y-109507306D01*
X136742621Y-109457378D01*
X136668400Y-109400427D01*
X136627625Y-109369139D01*
X136588401Y-109352892D01*
X136493709Y-109313669D01*
X136366717Y-109296951D01*
X136350000Y-109294750D01*
X136349999Y-109294750D01*
X136206290Y-109313669D01*
X136072375Y-109369139D01*
X135957378Y-109457378D01*
X135869139Y-109572375D01*
X135813669Y-109706290D01*
X135794750Y-109849999D01*
X135813669Y-109993709D01*
X135852892Y-110088401D01*
X135869139Y-110127625D01*
X135903179Y-110171986D01*
X135957378Y-110242621D01*
X136045618Y-110310329D01*
X136072375Y-110330861D01*
X136125868Y-110353018D01*
X136139189Y-110358536D01*
X136185714Y-110398273D01*
X136199998Y-110457768D01*
X136176583Y-110514296D01*
X136139189Y-110541464D01*
X136072374Y-110569139D01*
X135957378Y-110657378D01*
X135869139Y-110772375D01*
X135813669Y-110906290D01*
X135794750Y-111049999D01*
X135813669Y-111193709D01*
X135823169Y-111216643D01*
X135869139Y-111327625D01*
X135907450Y-111377552D01*
X135957378Y-111442621D01*
X136045618Y-111510329D01*
X136072375Y-111530861D01*
X136162235Y-111568081D01*
X136199545Y-111583536D01*
X136246070Y-111623273D01*
X136260354Y-111682767D01*
X136236939Y-111739295D01*
X136199545Y-111766464D01*
X136072374Y-111819139D01*
X135957378Y-111907378D01*
X135869139Y-112022375D01*
X135813669Y-112156290D01*
X135794750Y-112300000D01*
X133099039Y-112300000D01*
X133099136Y-109254525D01*
X150999500Y-109254525D01*
X150999501Y-109257364D01*
X150999828Y-109260187D01*
X150999829Y-109260197D01*
X151001961Y-109278581D01*
X151002415Y-109282491D01*
X151016182Y-109313670D01*
X151047793Y-109385264D01*
X151047794Y-109385265D01*
X151127235Y-109464706D01*
X151230009Y-109510085D01*
X151255135Y-109513000D01*
X153344864Y-109512999D01*
X153369991Y-109510085D01*
X153472765Y-109464706D01*
X153552206Y-109385265D01*
X153597585Y-109282491D01*
X153600500Y-109257365D01*
X153600500Y-109176153D01*
X157987517Y-109176153D01*
X158006436Y-109319862D01*
X158045659Y-109414554D01*
X158061906Y-109453778D01*
X158100217Y-109503705D01*
X158150145Y-109568774D01*
X158200073Y-109607085D01*
X158265142Y-109657014D01*
X158359834Y-109696236D01*
X158399057Y-109712483D01*
X158417976Y-109714973D01*
X158542767Y-109731403D01*
X158686476Y-109712483D01*
X158809175Y-109661659D01*
X158870170Y-109656859D01*
X158922339Y-109688829D01*
X158945754Y-109745356D01*
X158940504Y-109785821D01*
X158915123Y-109858356D01*
X158894938Y-110037500D01*
X158915123Y-110216643D01*
X158974664Y-110386806D01*
X158983337Y-110400608D01*
X159346447Y-110037500D01*
X159544709Y-110037500D01*
X159565514Y-110115145D01*
X159622355Y-110171986D01*
X159680254Y-110187500D01*
X159719746Y-110187500D01*
X159777645Y-110171986D01*
X159834486Y-110115146D01*
X159855291Y-110037500D01*
X159834486Y-109959855D01*
X159787130Y-109912499D01*
X160178553Y-109912499D01*
X160450000Y-110183946D01*
X160596446Y-110037500D01*
X161044709Y-110037500D01*
X161065514Y-110115145D01*
X161122355Y-110171986D01*
X161180254Y-110187500D01*
X161219746Y-110187500D01*
X161277645Y-110171986D01*
X161334486Y-110115146D01*
X161355291Y-110037500D01*
X161553552Y-110037500D01*
X161916660Y-110400608D01*
X161916661Y-110400607D01*
X161925335Y-110386804D01*
X161984876Y-110216643D01*
X162005061Y-110037500D01*
X161984876Y-109858353D01*
X161925336Y-109688199D01*
X161916660Y-109674391D01*
X161553552Y-110037500D01*
X161355291Y-110037500D01*
X161334486Y-109959855D01*
X161277645Y-109903014D01*
X161219746Y-109887500D01*
X161180254Y-109887500D01*
X161122355Y-109903014D01*
X161065514Y-109959854D01*
X161044709Y-110037500D01*
X160596446Y-110037500D01*
X160721447Y-109912499D01*
X160483338Y-109674390D01*
X160461089Y-109676898D01*
X160438919Y-109676899D01*
X160416660Y-109674391D01*
X160178553Y-109912499D01*
X159787130Y-109912499D01*
X159777645Y-109903014D01*
X159719746Y-109887500D01*
X159680254Y-109887500D01*
X159622355Y-109903014D01*
X159565514Y-109959854D01*
X159544709Y-110037500D01*
X159346447Y-110037500D01*
X159700001Y-109683947D01*
X160063107Y-109320838D01*
X160836890Y-109320838D01*
X161199999Y-109683946D01*
X161563108Y-109320837D01*
X161549306Y-109312164D01*
X161379143Y-109252623D01*
X161200000Y-109232438D01*
X161020853Y-109252623D01*
X160850697Y-109312163D01*
X160836890Y-109320838D01*
X160063107Y-109320838D01*
X160063108Y-109320837D01*
X160049306Y-109312164D01*
X159879143Y-109252623D01*
X159700000Y-109232438D01*
X159520853Y-109252623D01*
X159350698Y-109312163D01*
X159234019Y-109385477D01*
X159174688Y-109400427D01*
X159117901Y-109377647D01*
X159085349Y-109325840D01*
X159083195Y-109288732D01*
X159098017Y-109176153D01*
X159079097Y-109032444D01*
X159023628Y-108898528D01*
X158973699Y-108833459D01*
X158935388Y-108783531D01*
X158870319Y-108733603D01*
X158820392Y-108695292D01*
X158781168Y-108679045D01*
X158686476Y-108639822D01*
X158559484Y-108623104D01*
X158542767Y-108620903D01*
X158542766Y-108620903D01*
X158399057Y-108639822D01*
X158265142Y-108695292D01*
X158150145Y-108783531D01*
X158061906Y-108898528D01*
X158006436Y-109032443D01*
X157987517Y-109176153D01*
X153600500Y-109176153D01*
X153600500Y-108400000D01*
X155494750Y-108400000D01*
X155513669Y-108543709D01*
X155545644Y-108620903D01*
X155569139Y-108677625D01*
X155607450Y-108727552D01*
X155657378Y-108792621D01*
X155707306Y-108830932D01*
X155772375Y-108880861D01*
X155867067Y-108920083D01*
X155906290Y-108936330D01*
X155923008Y-108938531D01*
X156050000Y-108955250D01*
X156193709Y-108936330D01*
X156327625Y-108880861D01*
X156442621Y-108792621D01*
X156530861Y-108677625D01*
X156586330Y-108543709D01*
X156605250Y-108400000D01*
X156586330Y-108256291D01*
X156530861Y-108122375D01*
X156480932Y-108057306D01*
X156442621Y-108007378D01*
X156377552Y-107957450D01*
X156327625Y-107919139D01*
X156288401Y-107902892D01*
X156193709Y-107863669D01*
X156050000Y-107844750D01*
X155906290Y-107863669D01*
X155772375Y-107919139D01*
X155657378Y-108007378D01*
X155569139Y-108122375D01*
X155513669Y-108256290D01*
X155494750Y-108400000D01*
X153600500Y-108400000D01*
X153600499Y-107167636D01*
X153597585Y-107142509D01*
X153552206Y-107039735D01*
X153512470Y-106999999D01*
X157194750Y-106999999D01*
X157213669Y-107143709D01*
X157252892Y-107238401D01*
X157269139Y-107277625D01*
X157307450Y-107327552D01*
X157357378Y-107392621D01*
X157407306Y-107430932D01*
X157472375Y-107480861D01*
X157567067Y-107520083D01*
X157606290Y-107536330D01*
X157623008Y-107538531D01*
X157750000Y-107555250D01*
X157893709Y-107536330D01*
X158027625Y-107480861D01*
X158142621Y-107392621D01*
X158230861Y-107277625D01*
X158286330Y-107143709D01*
X158305250Y-107000000D01*
X158286330Y-106856291D01*
X158234537Y-106731249D01*
X163576000Y-106731249D01*
X163594919Y-106874959D01*
X163630266Y-106960293D01*
X163650389Y-107008875D01*
X163688700Y-107058802D01*
X163738628Y-107123871D01*
X163764482Y-107143709D01*
X163853625Y-107212111D01*
X163948317Y-107251333D01*
X163987540Y-107267580D01*
X164004258Y-107269781D01*
X164131250Y-107286500D01*
X164274959Y-107267580D01*
X164408875Y-107212111D01*
X164523871Y-107123871D01*
X164612111Y-107008875D01*
X164667580Y-106874959D01*
X164686500Y-106731250D01*
X164675803Y-106649999D01*
X166994750Y-106649999D01*
X167013669Y-106793709D01*
X167039592Y-106856291D01*
X167069139Y-106927625D01*
X167094206Y-106960293D01*
X167157378Y-107042621D01*
X167207306Y-107080932D01*
X167272375Y-107130861D01*
X167354276Y-107164785D01*
X167406290Y-107186330D01*
X167425209Y-107188820D01*
X167550000Y-107205250D01*
X167693709Y-107186330D01*
X167827625Y-107130861D01*
X167942621Y-107042621D01*
X168030861Y-106927625D01*
X168086330Y-106793709D01*
X168105250Y-106650000D01*
X168086330Y-106506291D01*
X168030861Y-106372375D01*
X167980932Y-106307306D01*
X167942621Y-106257378D01*
X167836566Y-106176000D01*
X167827625Y-106169139D01*
X167788401Y-106152892D01*
X167693709Y-106113669D01*
X167566717Y-106096951D01*
X167550000Y-106094750D01*
X167549999Y-106094750D01*
X167406290Y-106113669D01*
X167272375Y-106169139D01*
X167157378Y-106257378D01*
X167069139Y-106372375D01*
X167013669Y-106506290D01*
X166994750Y-106649999D01*
X164675803Y-106649999D01*
X164667580Y-106587541D01*
X164612111Y-106453625D01*
X164562182Y-106388556D01*
X164523871Y-106338628D01*
X164417984Y-106257379D01*
X164408875Y-106250389D01*
X164369651Y-106234142D01*
X164274959Y-106194919D01*
X164131250Y-106176000D01*
X163987540Y-106194919D01*
X163853625Y-106250389D01*
X163738628Y-106338628D01*
X163650389Y-106453625D01*
X163594919Y-106587540D01*
X163576000Y-106731249D01*
X158234537Y-106731249D01*
X158230861Y-106722375D01*
X158180932Y-106657306D01*
X158142621Y-106607378D01*
X158077552Y-106557450D01*
X158027625Y-106519139D01*
X157988401Y-106502892D01*
X157893709Y-106463669D01*
X157750000Y-106444750D01*
X157606290Y-106463669D01*
X157472375Y-106519139D01*
X157357378Y-106607378D01*
X157269139Y-106722375D01*
X157213669Y-106856290D01*
X157194750Y-106999999D01*
X153512470Y-106999999D01*
X153472765Y-106960294D01*
X153472764Y-106960293D01*
X153369989Y-106914914D01*
X153347714Y-106912330D01*
X153347704Y-106912329D01*
X153344865Y-106912000D01*
X153342000Y-106912000D01*
X151257991Y-106912000D01*
X151257973Y-106912000D01*
X151255136Y-106912001D01*
X151252313Y-106912328D01*
X151252302Y-106912329D01*
X151230009Y-106914915D01*
X151127235Y-106960293D01*
X151047793Y-107039735D01*
X151002414Y-107142510D01*
X150999830Y-107164785D01*
X150999829Y-107164796D01*
X150999500Y-107167635D01*
X150999500Y-107170491D01*
X150999500Y-107170499D01*
X150999500Y-109254508D01*
X150999500Y-109254525D01*
X133099136Y-109254525D01*
X133099177Y-107967691D01*
X134384441Y-107967691D01*
X134403360Y-108111400D01*
X134442583Y-108206092D01*
X134458830Y-108245316D01*
X134497141Y-108295243D01*
X134547069Y-108360312D01*
X134596997Y-108398623D01*
X134662066Y-108448552D01*
X134756758Y-108487774D01*
X134795981Y-108504021D01*
X134814901Y-108506511D01*
X134939691Y-108522941D01*
X135083400Y-108504021D01*
X135217316Y-108448552D01*
X135332312Y-108360312D01*
X135420552Y-108245316D01*
X135476021Y-108111400D01*
X135494941Y-107967691D01*
X135476021Y-107823982D01*
X135420552Y-107690066D01*
X135370623Y-107624997D01*
X135332312Y-107575069D01*
X135267243Y-107525141D01*
X135217316Y-107486830D01*
X135178092Y-107470583D01*
X135083400Y-107431360D01*
X134939691Y-107412441D01*
X134795981Y-107431360D01*
X134662066Y-107486830D01*
X134547069Y-107575069D01*
X134458830Y-107690066D01*
X134403360Y-107823981D01*
X134384441Y-107967691D01*
X133099177Y-107967691D01*
X133099315Y-103625000D01*
X141169750Y-103625000D01*
X141188669Y-103768709D01*
X141212296Y-103825748D01*
X141244139Y-103902625D01*
X141251623Y-103912378D01*
X141332378Y-104017621D01*
X141376707Y-104051635D01*
X141447375Y-104105861D01*
X141508864Y-104131330D01*
X141581290Y-104161330D01*
X141598008Y-104163531D01*
X141725000Y-104180250D01*
X141868709Y-104161330D01*
X142002625Y-104105861D01*
X142117621Y-104017621D01*
X142205861Y-103902625D01*
X142216082Y-103877950D01*
X143946581Y-103877950D01*
X143965500Y-104021660D01*
X143987951Y-104075861D01*
X144020970Y-104155576D01*
X144058751Y-104204813D01*
X144109209Y-104270572D01*
X144154076Y-104304999D01*
X144224206Y-104358812D01*
X144318898Y-104398034D01*
X144358121Y-104414281D01*
X144377040Y-104416771D01*
X144501831Y-104433201D01*
X144611978Y-104418699D01*
X144672137Y-104429849D01*
X144714255Y-104474231D01*
X144723052Y-104529773D01*
X144714145Y-104597433D01*
X144733064Y-104741143D01*
X144772287Y-104835835D01*
X144788534Y-104875059D01*
X144826845Y-104924986D01*
X144876773Y-104990055D01*
X144926701Y-105028366D01*
X144991770Y-105078295D01*
X145086462Y-105117517D01*
X145125685Y-105133764D01*
X145142403Y-105135965D01*
X145269395Y-105152684D01*
X145413104Y-105133764D01*
X145547020Y-105078295D01*
X145662016Y-104990055D01*
X145750256Y-104875059D01*
X145795754Y-104765214D01*
X145835489Y-104718690D01*
X145894983Y-104704406D01*
X145947484Y-104724559D01*
X145984048Y-104752615D01*
X146027375Y-104785861D01*
X146122067Y-104825083D01*
X146161290Y-104841330D01*
X146178008Y-104843531D01*
X146305000Y-104860250D01*
X146448709Y-104841330D01*
X146582625Y-104785861D01*
X146697621Y-104697621D01*
X146785861Y-104582625D01*
X146841330Y-104448709D01*
X146860250Y-104305000D01*
X146841330Y-104161291D01*
X146838962Y-104155575D01*
X146825083Y-104122067D01*
X146785861Y-104027375D01*
X146735932Y-103962306D01*
X146697621Y-103912378D01*
X146632552Y-103862450D01*
X146582625Y-103824139D01*
X146543401Y-103807892D01*
X146448709Y-103768669D01*
X146321717Y-103751951D01*
X146305000Y-103749750D01*
X146304999Y-103749750D01*
X146183468Y-103765750D01*
X146123307Y-103754600D01*
X146081190Y-103710217D01*
X146072393Y-103654676D01*
X146080250Y-103595000D01*
X146061330Y-103451291D01*
X146056317Y-103439189D01*
X146045083Y-103412067D01*
X146005861Y-103317375D01*
X145940640Y-103232378D01*
X145925387Y-103212499D01*
X150994531Y-103212499D01*
X151014364Y-103439189D01*
X151073262Y-103659000D01*
X151169430Y-103865231D01*
X151169431Y-103865233D01*
X151169432Y-103865234D01*
X151195613Y-103902624D01*
X151276133Y-104017621D01*
X151299953Y-104051639D01*
X151460861Y-104212547D01*
X151647266Y-104343068D01*
X151647267Y-104343068D01*
X151647268Y-104343069D01*
X151853499Y-104439237D01*
X151853500Y-104439237D01*
X151853504Y-104439239D01*
X152073308Y-104498135D01*
X152300000Y-104517968D01*
X152526692Y-104498135D01*
X152746496Y-104439239D01*
X152952734Y-104343068D01*
X153139139Y-104212547D01*
X153300047Y-104051639D01*
X153430568Y-103865234D01*
X153526739Y-103658996D01*
X153585635Y-103439192D01*
X153605468Y-103212500D01*
X153604582Y-103202378D01*
X153598857Y-103136935D01*
X153585635Y-102985808D01*
X153526739Y-102766004D01*
X153430568Y-102559766D01*
X153300047Y-102373361D01*
X153139139Y-102212453D01*
X152952734Y-102081932D01*
X152952733Y-102081931D01*
X152952731Y-102081930D01*
X152746500Y-101985762D01*
X152526689Y-101926864D01*
X152300000Y-101907031D01*
X152073310Y-101926864D01*
X151853499Y-101985762D01*
X151647268Y-102081930D01*
X151460864Y-102212450D01*
X151299950Y-102373364D01*
X151169430Y-102559768D01*
X151073262Y-102765999D01*
X151014364Y-102985810D01*
X150994531Y-103212499D01*
X145925387Y-103212499D01*
X145917621Y-103202378D01*
X145852552Y-103152450D01*
X145802625Y-103114139D01*
X145763401Y-103097892D01*
X145668709Y-103058669D01*
X145541717Y-103041951D01*
X145525000Y-103039750D01*
X145524999Y-103039750D01*
X145381290Y-103058669D01*
X145247375Y-103114139D01*
X145132378Y-103202378D01*
X145044139Y-103317374D01*
X145004620Y-103412781D01*
X144964883Y-103459307D01*
X144905388Y-103473590D01*
X144852889Y-103453437D01*
X144779455Y-103397089D01*
X144645540Y-103341620D01*
X144518548Y-103324902D01*
X144501831Y-103322701D01*
X144501830Y-103322701D01*
X144358121Y-103341620D01*
X144224206Y-103397090D01*
X144109209Y-103485329D01*
X144020970Y-103600326D01*
X143965500Y-103734241D01*
X143946581Y-103877950D01*
X142216082Y-103877950D01*
X142261330Y-103768709D01*
X142280250Y-103625000D01*
X142261330Y-103481291D01*
X142258140Y-103473590D01*
X142243891Y-103439189D01*
X142205861Y-103347375D01*
X142155932Y-103282306D01*
X142117621Y-103232378D01*
X142052552Y-103182450D01*
X142002625Y-103144139D01*
X141930198Y-103114139D01*
X141868709Y-103088669D01*
X141725000Y-103069750D01*
X141581290Y-103088669D01*
X141447375Y-103144139D01*
X141332378Y-103232378D01*
X141244139Y-103347375D01*
X141188669Y-103481290D01*
X141169750Y-103625000D01*
X133099315Y-103625000D01*
X133099398Y-101025000D01*
X138569750Y-101025000D01*
X138588669Y-101168709D01*
X138613444Y-101228520D01*
X138644139Y-101302625D01*
X138679594Y-101348830D01*
X138732378Y-101417621D01*
X138782306Y-101455932D01*
X138847375Y-101505861D01*
X138942067Y-101545083D01*
X138981290Y-101561330D01*
X138998008Y-101563531D01*
X139125000Y-101580250D01*
X139268709Y-101561330D01*
X139402625Y-101505861D01*
X139517621Y-101417621D01*
X139605861Y-101302625D01*
X139661330Y-101168709D01*
X139680250Y-101025000D01*
X139661330Y-100881291D01*
X139605861Y-100747375D01*
X139548998Y-100673270D01*
X143021481Y-100673270D01*
X143040400Y-100816979D01*
X143079623Y-100911671D01*
X143095870Y-100950895D01*
X143134181Y-101000822D01*
X143184109Y-101065891D01*
X143215691Y-101090124D01*
X143299106Y-101154131D01*
X143393798Y-101193353D01*
X143433021Y-101209600D01*
X143449739Y-101211801D01*
X143576731Y-101228520D01*
X143720440Y-101209600D01*
X143854356Y-101154131D01*
X143969352Y-101065891D01*
X144027586Y-100989999D01*
X153334750Y-100989999D01*
X153353669Y-101133709D01*
X153392892Y-101228401D01*
X153409139Y-101267625D01*
X153428887Y-101293361D01*
X153497378Y-101382621D01*
X153542992Y-101417621D01*
X153612375Y-101470861D01*
X153696874Y-101505861D01*
X153746290Y-101526330D01*
X153763008Y-101528531D01*
X153890000Y-101545250D01*
X154033709Y-101526330D01*
X154167625Y-101470861D01*
X154282621Y-101382621D01*
X154370861Y-101267625D01*
X154426330Y-101133709D01*
X154445250Y-100990000D01*
X154426330Y-100846291D01*
X154412334Y-100812500D01*
X161544750Y-100812500D01*
X161563669Y-100956209D01*
X161602892Y-101050901D01*
X161619139Y-101090125D01*
X161652582Y-101133709D01*
X161707378Y-101205121D01*
X161737873Y-101228520D01*
X161822375Y-101293361D01*
X161917067Y-101332583D01*
X161956290Y-101348830D01*
X161975210Y-101351320D01*
X162100000Y-101367750D01*
X162243709Y-101348830D01*
X162377625Y-101293361D01*
X162492621Y-101205121D01*
X162580861Y-101090125D01*
X162636330Y-100956209D01*
X162655250Y-100812500D01*
X162636330Y-100668791D01*
X162580861Y-100534875D01*
X162518549Y-100453669D01*
X162492621Y-100419878D01*
X162427552Y-100369950D01*
X162377625Y-100331639D01*
X162338401Y-100315392D01*
X162243709Y-100276169D01*
X162116717Y-100259451D01*
X162100000Y-100257250D01*
X162099999Y-100257250D01*
X161956290Y-100276169D01*
X161822375Y-100331639D01*
X161707378Y-100419878D01*
X161619139Y-100534875D01*
X161563669Y-100668790D01*
X161544750Y-100812500D01*
X154412334Y-100812500D01*
X154370861Y-100712375D01*
X154309477Y-100632378D01*
X154282621Y-100597378D01*
X154203061Y-100536330D01*
X154167625Y-100509139D01*
X154118208Y-100488670D01*
X154033709Y-100453669D01*
X153890000Y-100434750D01*
X153746290Y-100453669D01*
X153612375Y-100509139D01*
X153497378Y-100597378D01*
X153409139Y-100712375D01*
X153353669Y-100846290D01*
X153334750Y-100989999D01*
X144027586Y-100989999D01*
X144057592Y-100950895D01*
X144113061Y-100816979D01*
X144131981Y-100673270D01*
X144113061Y-100529561D01*
X144057592Y-100395645D01*
X144007663Y-100330576D01*
X143969352Y-100280648D01*
X143897154Y-100225249D01*
X143854356Y-100192409D01*
X143815132Y-100176162D01*
X143720440Y-100136939D01*
X143576731Y-100118020D01*
X143433021Y-100136939D01*
X143299106Y-100192409D01*
X143184109Y-100280648D01*
X143095870Y-100395645D01*
X143040400Y-100529560D01*
X143021481Y-100673270D01*
X139548998Y-100673270D01*
X139545560Y-100668790D01*
X139517621Y-100632378D01*
X139452552Y-100582450D01*
X139402625Y-100544139D01*
X139363401Y-100527892D01*
X139268709Y-100488669D01*
X139125000Y-100469750D01*
X138981290Y-100488669D01*
X138847375Y-100544139D01*
X138732378Y-100632378D01*
X138644139Y-100747375D01*
X138588669Y-100881290D01*
X138569750Y-101025000D01*
X133099398Y-101025000D01*
X133099442Y-99650000D01*
X134844750Y-99650000D01*
X134863669Y-99793709D01*
X134889592Y-99856291D01*
X134919139Y-99927625D01*
X134934485Y-99947624D01*
X135007378Y-100042621D01*
X135057306Y-100080932D01*
X135122375Y-100130861D01*
X135217067Y-100170083D01*
X135256290Y-100186330D01*
X135273008Y-100188531D01*
X135400000Y-100205250D01*
X135543709Y-100186330D01*
X135677625Y-100130861D01*
X135792621Y-100042621D01*
X135880861Y-99927625D01*
X135936330Y-99793709D01*
X135952617Y-99670000D01*
X151144750Y-99670000D01*
X151163669Y-99813709D01*
X151202892Y-99908401D01*
X151219139Y-99947625D01*
X151257450Y-99997552D01*
X151307378Y-100062621D01*
X151357306Y-100100932D01*
X151422375Y-100150861D01*
X151498627Y-100182445D01*
X151556290Y-100206330D01*
X151573008Y-100208531D01*
X151700000Y-100225250D01*
X151843709Y-100206330D01*
X151977625Y-100150861D01*
X152092621Y-100062621D01*
X152140672Y-100000000D01*
X154757250Y-100000000D01*
X154776169Y-100143709D01*
X154802108Y-100206330D01*
X154831639Y-100277625D01*
X154869012Y-100326330D01*
X154919878Y-100392621D01*
X154955401Y-100419878D01*
X155034875Y-100480861D01*
X155129567Y-100520083D01*
X155168790Y-100536330D01*
X155185508Y-100538531D01*
X155312500Y-100555250D01*
X155456209Y-100536330D01*
X155590125Y-100480861D01*
X155705121Y-100392621D01*
X155793361Y-100277625D01*
X155848830Y-100143709D01*
X155867750Y-100000000D01*
X155848830Y-99856291D01*
X155821371Y-99789999D01*
X164969250Y-99789999D01*
X164988169Y-99933709D01*
X165015628Y-100000000D01*
X165043639Y-100067625D01*
X165081950Y-100117552D01*
X165131878Y-100182621D01*
X165162777Y-100206330D01*
X165246875Y-100270861D01*
X165341567Y-100310083D01*
X165380790Y-100326330D01*
X165397508Y-100328531D01*
X165524500Y-100345250D01*
X165668209Y-100326330D01*
X165802125Y-100270861D01*
X165890734Y-100202868D01*
X165948408Y-100182445D01*
X166007074Y-100199822D01*
X166044321Y-100248364D01*
X166050000Y-100281411D01*
X166050000Y-104240000D01*
X166050001Y-104240000D01*
X168299999Y-104240000D01*
X168300000Y-104240000D01*
X168300000Y-98490000D01*
X166050000Y-98490000D01*
X166050000Y-98490001D01*
X166050000Y-98988053D01*
X166041441Y-99028319D01*
X165989334Y-99145353D01*
X165965772Y-99256202D01*
X165935179Y-99309190D01*
X165879283Y-99334076D01*
X165819435Y-99321354D01*
X165808670Y-99314161D01*
X165802125Y-99309139D01*
X165668209Y-99253669D01*
X165524500Y-99234750D01*
X165380790Y-99253669D01*
X165246875Y-99309139D01*
X165131878Y-99397378D01*
X165043639Y-99512375D01*
X164988169Y-99646290D01*
X164969250Y-99789999D01*
X155821371Y-99789999D01*
X155793361Y-99722375D01*
X155743432Y-99657306D01*
X155705121Y-99607378D01*
X155640052Y-99557450D01*
X155590125Y-99519139D01*
X155550901Y-99502892D01*
X155456209Y-99463669D01*
X155312500Y-99444750D01*
X155168790Y-99463669D01*
X155034875Y-99519139D01*
X154919878Y-99607378D01*
X154831639Y-99722375D01*
X154776169Y-99856290D01*
X154757250Y-100000000D01*
X152140672Y-100000000D01*
X152180861Y-99947625D01*
X152236330Y-99813709D01*
X152255250Y-99670000D01*
X152236330Y-99526291D01*
X152234778Y-99522545D01*
X152210392Y-99463670D01*
X152180861Y-99392375D01*
X152117031Y-99309190D01*
X152092621Y-99277378D01*
X152027552Y-99227450D01*
X151977625Y-99189139D01*
X151929340Y-99169139D01*
X151843709Y-99133669D01*
X151700000Y-99114750D01*
X151556290Y-99133669D01*
X151422375Y-99189139D01*
X151307378Y-99277378D01*
X151219139Y-99392375D01*
X151163669Y-99526290D01*
X151144750Y-99670000D01*
X135952617Y-99670000D01*
X135955250Y-99650000D01*
X135936330Y-99506291D01*
X135880861Y-99372375D01*
X135807967Y-99277378D01*
X135792621Y-99257378D01*
X135703689Y-99189139D01*
X135677625Y-99169139D01*
X135620200Y-99145353D01*
X135543709Y-99113669D01*
X135400000Y-99094750D01*
X135256290Y-99113669D01*
X135122375Y-99169139D01*
X135007378Y-99257378D01*
X134919139Y-99372375D01*
X134863669Y-99506290D01*
X134844750Y-99650000D01*
X133099442Y-99650000D01*
X133099477Y-98542044D01*
X141352704Y-98542044D01*
X141371623Y-98685754D01*
X141400356Y-98755121D01*
X141427093Y-98819670D01*
X141445271Y-98843360D01*
X141515332Y-98934666D01*
X141565260Y-98972977D01*
X141630329Y-99022906D01*
X141725021Y-99062128D01*
X141764244Y-99078375D01*
X141783164Y-99080865D01*
X141907954Y-99097295D01*
X142051663Y-99078375D01*
X142185579Y-99022906D01*
X142300575Y-98934666D01*
X142388815Y-98819670D01*
X142444284Y-98685754D01*
X142463204Y-98542045D01*
X142444284Y-98398336D01*
X142429440Y-98362499D01*
X158744750Y-98362499D01*
X158763669Y-98506209D01*
X158802892Y-98600901D01*
X158819139Y-98640125D01*
X158854152Y-98685754D01*
X158907378Y-98755121D01*
X158957306Y-98793432D01*
X159022375Y-98843361D01*
X159117067Y-98882583D01*
X159156290Y-98898830D01*
X159173008Y-98901031D01*
X159300000Y-98917750D01*
X159443709Y-98898830D01*
X159577625Y-98843361D01*
X159692621Y-98755121D01*
X159780861Y-98640125D01*
X159836330Y-98506209D01*
X159855250Y-98362500D01*
X159836330Y-98218791D01*
X159780861Y-98084875D01*
X159720119Y-98005715D01*
X159692621Y-97969878D01*
X159627552Y-97919950D01*
X159577625Y-97881639D01*
X159538401Y-97865392D01*
X159443709Y-97826169D01*
X159300000Y-97807250D01*
X159156290Y-97826169D01*
X159022375Y-97881639D01*
X158907378Y-97969878D01*
X158819139Y-98084875D01*
X158763669Y-98218790D01*
X158744750Y-98362499D01*
X142429440Y-98362499D01*
X142388815Y-98264420D01*
X142338886Y-98199351D01*
X142300575Y-98149423D01*
X142235506Y-98099495D01*
X142185579Y-98061184D01*
X142146355Y-98044937D01*
X142051663Y-98005714D01*
X141924671Y-97988996D01*
X141907954Y-97986795D01*
X141907953Y-97986795D01*
X141764244Y-98005714D01*
X141630329Y-98061184D01*
X141515332Y-98149423D01*
X141427093Y-98264420D01*
X141371623Y-98398335D01*
X141352704Y-98542044D01*
X133099477Y-98542044D01*
X133099533Y-96800000D01*
X135414750Y-96800000D01*
X135433669Y-96943709D01*
X135448123Y-96978603D01*
X135489139Y-97077625D01*
X135498730Y-97090124D01*
X135577378Y-97192621D01*
X135585525Y-97198872D01*
X135692375Y-97280861D01*
X135787067Y-97320083D01*
X135826290Y-97336330D01*
X135843008Y-97338531D01*
X135970000Y-97355250D01*
X136113709Y-97336330D01*
X136247625Y-97280861D01*
X136362621Y-97192621D01*
X136450861Y-97077625D01*
X136506330Y-96943709D01*
X136525250Y-96800000D01*
X136506330Y-96656291D01*
X136469054Y-96566297D01*
X139090730Y-96566297D01*
X139109649Y-96710006D01*
X139124264Y-96745289D01*
X139165119Y-96843922D01*
X139199707Y-96888998D01*
X139253358Y-96958918D01*
X139303286Y-96997229D01*
X139368355Y-97047158D01*
X139441908Y-97077624D01*
X139502270Y-97102627D01*
X139521189Y-97105117D01*
X139645980Y-97121547D01*
X139789689Y-97102627D01*
X139923605Y-97047158D01*
X140012948Y-96978602D01*
X143343717Y-96978602D01*
X143362636Y-97122312D01*
X143394349Y-97198872D01*
X143418106Y-97256228D01*
X143456417Y-97306155D01*
X143506345Y-97371224D01*
X143556273Y-97409535D01*
X143621342Y-97459464D01*
X143716034Y-97498686D01*
X143755257Y-97514933D01*
X143774177Y-97517423D01*
X143898967Y-97533853D01*
X144042676Y-97514933D01*
X144176592Y-97459464D01*
X144291588Y-97371224D01*
X144379828Y-97256228D01*
X144435297Y-97122312D01*
X144454217Y-96978603D01*
X144442420Y-96888997D01*
X144834443Y-96888997D01*
X144853362Y-97032707D01*
X144877146Y-97090125D01*
X144908832Y-97166623D01*
X144928781Y-97192621D01*
X144997071Y-97281619D01*
X145012374Y-97293361D01*
X145112068Y-97369859D01*
X145206760Y-97409081D01*
X145245983Y-97425328D01*
X145262701Y-97427529D01*
X145389693Y-97444248D01*
X145533402Y-97425328D01*
X145667318Y-97369859D01*
X145782314Y-97281619D01*
X145845808Y-97198871D01*
X145896232Y-97164216D01*
X145957396Y-97165817D01*
X146002892Y-97198872D01*
X146065620Y-97280621D01*
X146115548Y-97318932D01*
X146180617Y-97368861D01*
X146275309Y-97408083D01*
X146314532Y-97424330D01*
X146322113Y-97425328D01*
X146458242Y-97443250D01*
X146601951Y-97424330D01*
X146735867Y-97368861D01*
X146850863Y-97280621D01*
X146939103Y-97165625D01*
X146994572Y-97031709D01*
X147013492Y-96888000D01*
X147003551Y-96812499D01*
X165494750Y-96812499D01*
X165513669Y-96956209D01*
X165545356Y-97032707D01*
X165569139Y-97090125D01*
X165593250Y-97121547D01*
X165657378Y-97205121D01*
X165707306Y-97243432D01*
X165772375Y-97293361D01*
X165867067Y-97332583D01*
X165906290Y-97348830D01*
X165923008Y-97351031D01*
X166050000Y-97367750D01*
X166193709Y-97348830D01*
X166327625Y-97293361D01*
X166442621Y-97205121D01*
X166530861Y-97090125D01*
X166586330Y-96956209D01*
X166605250Y-96812500D01*
X166586330Y-96668791D01*
X166581152Y-96656291D01*
X166562547Y-96611373D01*
X166530861Y-96534875D01*
X166444700Y-96422588D01*
X166442621Y-96419878D01*
X166355029Y-96352667D01*
X166327625Y-96331639D01*
X166288401Y-96315392D01*
X166193709Y-96276169D01*
X166050000Y-96257250D01*
X165906290Y-96276169D01*
X165772375Y-96331639D01*
X165657378Y-96419878D01*
X165569139Y-96534875D01*
X165513669Y-96668790D01*
X165494750Y-96812499D01*
X147003551Y-96812499D01*
X146997062Y-96763210D01*
X146994572Y-96744290D01*
X146963299Y-96668790D01*
X146939103Y-96610375D01*
X146871578Y-96522375D01*
X146850863Y-96495378D01*
X146755999Y-96422587D01*
X146735867Y-96407139D01*
X146696643Y-96390892D01*
X146601951Y-96351669D01*
X146458242Y-96332750D01*
X146314532Y-96351669D01*
X146180617Y-96407139D01*
X146065622Y-96495377D01*
X146002126Y-96578126D01*
X145951701Y-96612781D01*
X145890537Y-96611179D01*
X145845042Y-96578125D01*
X145782314Y-96496376D01*
X145711803Y-96442272D01*
X145667318Y-96408137D01*
X145628094Y-96391890D01*
X145533402Y-96352667D01*
X145389693Y-96333748D01*
X145245983Y-96352667D01*
X145112068Y-96408137D01*
X144997071Y-96496376D01*
X144908832Y-96611373D01*
X144853362Y-96745288D01*
X144834443Y-96888997D01*
X144442420Y-96888997D01*
X144436486Y-96843922D01*
X144435297Y-96834893D01*
X144419050Y-96795670D01*
X144379828Y-96700978D01*
X144312152Y-96612781D01*
X144291588Y-96585981D01*
X144208694Y-96522375D01*
X144176592Y-96497742D01*
X144137368Y-96481495D01*
X144042676Y-96442272D01*
X143898967Y-96423353D01*
X143755257Y-96442272D01*
X143621342Y-96497742D01*
X143506345Y-96585981D01*
X143418106Y-96700978D01*
X143362636Y-96834893D01*
X143343717Y-96978602D01*
X140012948Y-96978602D01*
X140038601Y-96958918D01*
X140126841Y-96843922D01*
X140182310Y-96710006D01*
X140201230Y-96566297D01*
X140182310Y-96422588D01*
X140181187Y-96419878D01*
X140166063Y-96383364D01*
X140126841Y-96288672D01*
X140076912Y-96223603D01*
X140038601Y-96173675D01*
X139973532Y-96123747D01*
X139923605Y-96085436D01*
X139884381Y-96069189D01*
X139789689Y-96029966D01*
X139662697Y-96013248D01*
X139645980Y-96011047D01*
X139645979Y-96011047D01*
X139502270Y-96029966D01*
X139368355Y-96085436D01*
X139253358Y-96173675D01*
X139165119Y-96288672D01*
X139109649Y-96422587D01*
X139090730Y-96566297D01*
X136469054Y-96566297D01*
X136450861Y-96522375D01*
X136389396Y-96442273D01*
X136362621Y-96407378D01*
X136297552Y-96357450D01*
X136247625Y-96319139D01*
X136208401Y-96302892D01*
X136113709Y-96263669D01*
X135970000Y-96244750D01*
X135826290Y-96263669D01*
X135692375Y-96319139D01*
X135577378Y-96407378D01*
X135489139Y-96522375D01*
X135433669Y-96656290D01*
X135414750Y-96800000D01*
X133099533Y-96800000D01*
X133099568Y-95689579D01*
X142140236Y-95689579D01*
X142159155Y-95833288D01*
X142186510Y-95899328D01*
X142214625Y-95967204D01*
X142248267Y-96011047D01*
X142302864Y-96082200D01*
X142352792Y-96120511D01*
X142417861Y-96170440D01*
X142512553Y-96209662D01*
X142551776Y-96225909D01*
X142568494Y-96228110D01*
X142695486Y-96244829D01*
X142839195Y-96225909D01*
X142973111Y-96170440D01*
X143088107Y-96082200D01*
X143176347Y-95967204D01*
X143231816Y-95833288D01*
X143250736Y-95689579D01*
X143231816Y-95545870D01*
X143215594Y-95506707D01*
X143176347Y-95411954D01*
X143138782Y-95362998D01*
X152444750Y-95362998D01*
X152463669Y-95506707D01*
X152502892Y-95601399D01*
X152519139Y-95640623D01*
X152556704Y-95689579D01*
X152607378Y-95755619D01*
X152657306Y-95793930D01*
X152722375Y-95843859D01*
X152817067Y-95883081D01*
X152856290Y-95899328D01*
X152875209Y-95901818D01*
X153000000Y-95918248D01*
X153143709Y-95899328D01*
X153277625Y-95843859D01*
X153392621Y-95755619D01*
X153480861Y-95640623D01*
X153536330Y-95506707D01*
X153555250Y-95362998D01*
X153549329Y-95318025D01*
X153560479Y-95257867D01*
X153604861Y-95215749D01*
X153660403Y-95206952D01*
X153750000Y-95218748D01*
X153893709Y-95199828D01*
X154027625Y-95144359D01*
X154142621Y-95056119D01*
X154230861Y-94941123D01*
X154286330Y-94807207D01*
X154305250Y-94663498D01*
X154286330Y-94519789D01*
X154230861Y-94385873D01*
X154180932Y-94320804D01*
X154142621Y-94270876D01*
X154066543Y-94212500D01*
X154027625Y-94182637D01*
X153988401Y-94166390D01*
X153893709Y-94127167D01*
X153750000Y-94108248D01*
X153606290Y-94127167D01*
X153472375Y-94182637D01*
X153357378Y-94270876D01*
X153269139Y-94385873D01*
X153213669Y-94519788D01*
X153194750Y-94663498D01*
X153200670Y-94708469D01*
X153189519Y-94768630D01*
X153145137Y-94810746D01*
X153089595Y-94819543D01*
X153000000Y-94807748D01*
X152856290Y-94826667D01*
X152722375Y-94882137D01*
X152607378Y-94970376D01*
X152519139Y-95085373D01*
X152463669Y-95219288D01*
X152444750Y-95362998D01*
X143138782Y-95362998D01*
X143116061Y-95333388D01*
X143095637Y-95275713D01*
X143113014Y-95217047D01*
X143116044Y-95212875D01*
X143181460Y-95127625D01*
X143236929Y-94993709D01*
X143255849Y-94850000D01*
X143236929Y-94706291D01*
X143231573Y-94693361D01*
X143219204Y-94663498D01*
X143181460Y-94572375D01*
X143118347Y-94490125D01*
X143093220Y-94457378D01*
X143028151Y-94407450D01*
X142978224Y-94369139D01*
X142939000Y-94352892D01*
X142844308Y-94313669D01*
X142700599Y-94294750D01*
X142556889Y-94313669D01*
X142422974Y-94369139D01*
X142307977Y-94457378D01*
X142219738Y-94572375D01*
X142164268Y-94706290D01*
X142145349Y-94850000D01*
X142164268Y-94993709D01*
X142219738Y-95127625D01*
X142280023Y-95206191D01*
X142300447Y-95263867D01*
X142283069Y-95322533D01*
X142280023Y-95326725D01*
X142214625Y-95411954D01*
X142159155Y-95545869D01*
X142140236Y-95689579D01*
X133099568Y-95689579D01*
X133099615Y-94212500D01*
X133494750Y-94212500D01*
X133513669Y-94356209D01*
X133552892Y-94450901D01*
X133569139Y-94490125D01*
X133591901Y-94519789D01*
X133657378Y-94605121D01*
X133707306Y-94643432D01*
X133772375Y-94693361D01*
X133867067Y-94732583D01*
X133906290Y-94748830D01*
X133923008Y-94751031D01*
X134050000Y-94767750D01*
X134193709Y-94748830D01*
X134327625Y-94693361D01*
X134442621Y-94605121D01*
X134530861Y-94490125D01*
X134586330Y-94356209D01*
X134605250Y-94212500D01*
X134586330Y-94068791D01*
X134530861Y-93934875D01*
X134480932Y-93869806D01*
X134442621Y-93819878D01*
X134377552Y-93769950D01*
X134327625Y-93731639D01*
X134288401Y-93715392D01*
X134193709Y-93676169D01*
X134066717Y-93659451D01*
X134050000Y-93657250D01*
X134049999Y-93657250D01*
X133906290Y-93676169D01*
X133772375Y-93731639D01*
X133657378Y-93819878D01*
X133569139Y-93934875D01*
X133513669Y-94068790D01*
X133494750Y-94212500D01*
X133099615Y-94212500D01*
X133099698Y-91622499D01*
X164084435Y-91622499D01*
X164104632Y-91801758D01*
X164161514Y-91964315D01*
X164164211Y-91972022D01*
X164260184Y-92124762D01*
X164387738Y-92252316D01*
X164540478Y-92348289D01*
X164648851Y-92386210D01*
X164710741Y-92407867D01*
X164710742Y-92407867D01*
X164710745Y-92407868D01*
X164845046Y-92423000D01*
X164847813Y-92423000D01*
X166032187Y-92423000D01*
X166034954Y-92423000D01*
X166169255Y-92407868D01*
X166339522Y-92348289D01*
X166492262Y-92252316D01*
X166619816Y-92124762D01*
X166715789Y-91972022D01*
X166775368Y-91801755D01*
X166795565Y-91622500D01*
X166795565Y-91622499D01*
X168434435Y-91622499D01*
X168454632Y-91801758D01*
X168511514Y-91964315D01*
X168514211Y-91972022D01*
X168610184Y-92124762D01*
X168737738Y-92252316D01*
X168890478Y-92348289D01*
X168998851Y-92386210D01*
X169060741Y-92407867D01*
X169060742Y-92407867D01*
X169060745Y-92407868D01*
X169195046Y-92423000D01*
X169197813Y-92423000D01*
X170082187Y-92423000D01*
X170084954Y-92423000D01*
X170219255Y-92407868D01*
X170389522Y-92348289D01*
X170542262Y-92252316D01*
X170669816Y-92124762D01*
X170765789Y-91972022D01*
X170825368Y-91801755D01*
X170845565Y-91622500D01*
X170825368Y-91443245D01*
X170765789Y-91272978D01*
X170669816Y-91120238D01*
X170542262Y-90992684D01*
X170389522Y-90896711D01*
X170381815Y-90894014D01*
X170219258Y-90837132D01*
X170087699Y-90822309D01*
X170087693Y-90822308D01*
X170084954Y-90822000D01*
X169195046Y-90822000D01*
X169192307Y-90822308D01*
X169192300Y-90822309D01*
X169060741Y-90837132D01*
X168890480Y-90896710D01*
X168737739Y-90992683D01*
X168610183Y-91120239D01*
X168514210Y-91272980D01*
X168454632Y-91443241D01*
X168434435Y-91622499D01*
X166795565Y-91622499D01*
X166775368Y-91443245D01*
X166715789Y-91272978D01*
X166619816Y-91120238D01*
X166492262Y-90992684D01*
X166339522Y-90896711D01*
X166333717Y-90894680D01*
X166270704Y-90872630D01*
X166222023Y-90835564D01*
X166204427Y-90776964D01*
X166224636Y-90719212D01*
X166243135Y-90700644D01*
X166250231Y-90695198D01*
X166250233Y-90695198D01*
X166370451Y-90602951D01*
X166462698Y-90482733D01*
X166520687Y-90342736D01*
X166540466Y-90192500D01*
X166520687Y-90042264D01*
X166462698Y-89902267D01*
X166391992Y-89810121D01*
X166370451Y-89782048D01*
X166250233Y-89689802D01*
X166110235Y-89631812D01*
X166000933Y-89617423D01*
X165997720Y-89617000D01*
X165922280Y-89617000D01*
X165919067Y-89617422D01*
X165919066Y-89617423D01*
X165809764Y-89631812D01*
X165669766Y-89689802D01*
X165549548Y-89782048D01*
X165457302Y-89902266D01*
X165399312Y-90042264D01*
X165379534Y-90192499D01*
X165399312Y-90342735D01*
X165457302Y-90482733D01*
X165549548Y-90602951D01*
X165603641Y-90644458D01*
X165638297Y-90694882D01*
X165636696Y-90756047D01*
X165599448Y-90804588D01*
X165543374Y-90822000D01*
X164845046Y-90822000D01*
X164842307Y-90822308D01*
X164842300Y-90822309D01*
X164710741Y-90837132D01*
X164540480Y-90896710D01*
X164387739Y-90992683D01*
X164260183Y-91120239D01*
X164164210Y-91272980D01*
X164104632Y-91443241D01*
X164084435Y-91622499D01*
X133099698Y-91622499D01*
X133099768Y-89417500D01*
X137794750Y-89417500D01*
X137813669Y-89561209D01*
X137852892Y-89655901D01*
X137869139Y-89695125D01*
X137907450Y-89745052D01*
X137957378Y-89810121D01*
X138007306Y-89848432D01*
X138072375Y-89898361D01*
X138167067Y-89937583D01*
X138206290Y-89953830D01*
X138223008Y-89956031D01*
X138350000Y-89972750D01*
X138493709Y-89953830D01*
X138627625Y-89898361D01*
X138742621Y-89810121D01*
X138830861Y-89695125D01*
X138886330Y-89561209D01*
X138905250Y-89417500D01*
X138886330Y-89273791D01*
X138830861Y-89139875D01*
X138789135Y-89085497D01*
X153681752Y-89085497D01*
X153700671Y-89229206D01*
X153719139Y-89273791D01*
X153756141Y-89363122D01*
X153783541Y-89398830D01*
X153844380Y-89478118D01*
X153894308Y-89516429D01*
X153959377Y-89566358D01*
X154054069Y-89605580D01*
X154093292Y-89621827D01*
X154110010Y-89624028D01*
X154237002Y-89640747D01*
X154380711Y-89621827D01*
X154514627Y-89566358D01*
X154595084Y-89504621D01*
X161760128Y-89504621D01*
X161779047Y-89648331D01*
X161798430Y-89695124D01*
X161834517Y-89782247D01*
X161855906Y-89810121D01*
X161922756Y-89897243D01*
X161929304Y-89902267D01*
X162037753Y-89985483D01*
X162132445Y-90024705D01*
X162171668Y-90040952D01*
X162181634Y-90042264D01*
X162315378Y-90059872D01*
X162459087Y-90040952D01*
X162593003Y-89985483D01*
X162707999Y-89897243D01*
X162796239Y-89782247D01*
X162851708Y-89648331D01*
X162870628Y-89504622D01*
X162851708Y-89360913D01*
X162844437Y-89343360D01*
X162815621Y-89273790D01*
X162796239Y-89226997D01*
X162746310Y-89161928D01*
X162707999Y-89112000D01*
X162642930Y-89062072D01*
X162593003Y-89023761D01*
X162550628Y-89006209D01*
X162459087Y-88968291D01*
X162332095Y-88951573D01*
X162315378Y-88949372D01*
X162315377Y-88949372D01*
X162171668Y-88968291D01*
X162037753Y-89023761D01*
X161922756Y-89112000D01*
X161834517Y-89226997D01*
X161779047Y-89360912D01*
X161760128Y-89504621D01*
X154595084Y-89504621D01*
X154629623Y-89478118D01*
X154717863Y-89363122D01*
X154773332Y-89229206D01*
X154792252Y-89085497D01*
X154775533Y-88958505D01*
X154773332Y-88941787D01*
X154757085Y-88902564D01*
X154740490Y-88862500D01*
X166095250Y-88862500D01*
X166114169Y-89006209D01*
X166147012Y-89085497D01*
X166169639Y-89140125D01*
X166207950Y-89190052D01*
X166257878Y-89255121D01*
X166282210Y-89273791D01*
X166372875Y-89343361D01*
X166467567Y-89382583D01*
X166506790Y-89398830D01*
X166525709Y-89401320D01*
X166650500Y-89417750D01*
X166794209Y-89398830D01*
X166928125Y-89343361D01*
X167043121Y-89255121D01*
X167131361Y-89140125D01*
X167186830Y-89006209D01*
X167205750Y-88862500D01*
X167186830Y-88718791D01*
X167176095Y-88692875D01*
X167170583Y-88679567D01*
X167131361Y-88584875D01*
X167051548Y-88480861D01*
X167043121Y-88469878D01*
X166978052Y-88419950D01*
X166928125Y-88381639D01*
X166888901Y-88365392D01*
X166794209Y-88326169D01*
X166650500Y-88307250D01*
X166506790Y-88326169D01*
X166372875Y-88381639D01*
X166257878Y-88469878D01*
X166169639Y-88584875D01*
X166114169Y-88718790D01*
X166095250Y-88862500D01*
X154740490Y-88862500D01*
X154717863Y-88807872D01*
X154667934Y-88742803D01*
X154629623Y-88692875D01*
X154564554Y-88642947D01*
X154514627Y-88604636D01*
X154466919Y-88584875D01*
X154380711Y-88549166D01*
X154237002Y-88530247D01*
X154093292Y-88549166D01*
X153959377Y-88604636D01*
X153844380Y-88692875D01*
X153756141Y-88807872D01*
X153700671Y-88941787D01*
X153681752Y-89085497D01*
X138789135Y-89085497D01*
X138780932Y-89074806D01*
X138742621Y-89024878D01*
X138668874Y-88968291D01*
X138627625Y-88936639D01*
X138588401Y-88920392D01*
X138493709Y-88881169D01*
X138350000Y-88862250D01*
X138206290Y-88881169D01*
X138072375Y-88936639D01*
X137957378Y-89024878D01*
X137869139Y-89139875D01*
X137813669Y-89273790D01*
X137794750Y-89417500D01*
X133099768Y-89417500D01*
X133099813Y-88000000D01*
X142042922Y-88000000D01*
X142061841Y-88143709D01*
X142101064Y-88238401D01*
X142117311Y-88277625D01*
X142140043Y-88307250D01*
X142205550Y-88392621D01*
X142255478Y-88430932D01*
X142320547Y-88480861D01*
X142415239Y-88520083D01*
X142454462Y-88536330D01*
X142471180Y-88538531D01*
X142598172Y-88555250D01*
X142741881Y-88536330D01*
X142875797Y-88480861D01*
X142990793Y-88392621D01*
X143052272Y-88312500D01*
X146994750Y-88312500D01*
X147013669Y-88456209D01*
X147044337Y-88530247D01*
X147069139Y-88590125D01*
X147080274Y-88604636D01*
X147157378Y-88705121D01*
X147207306Y-88743432D01*
X147272375Y-88793361D01*
X147367067Y-88832583D01*
X147406290Y-88848830D01*
X147423008Y-88851031D01*
X147550000Y-88867750D01*
X147693709Y-88848830D01*
X147827625Y-88793361D01*
X147942621Y-88705121D01*
X148030861Y-88590125D01*
X148086330Y-88456209D01*
X148105250Y-88312500D01*
X148086330Y-88168791D01*
X148030861Y-88034875D01*
X147980932Y-87969806D01*
X147942621Y-87919878D01*
X147859752Y-87856291D01*
X147827625Y-87831639D01*
X147788401Y-87815392D01*
X147693709Y-87776169D01*
X147550000Y-87757250D01*
X147406290Y-87776169D01*
X147272375Y-87831639D01*
X147157378Y-87919878D01*
X147069139Y-88034875D01*
X147013669Y-88168790D01*
X146994750Y-88312500D01*
X143052272Y-88312500D01*
X143079033Y-88277625D01*
X143134502Y-88143709D01*
X143153422Y-88000000D01*
X143134502Y-87856291D01*
X143079033Y-87722375D01*
X143029104Y-87657306D01*
X142990793Y-87607378D01*
X142971403Y-87592500D01*
X153954750Y-87592500D01*
X153973669Y-87736209D01*
X153990222Y-87776170D01*
X154029139Y-87870125D01*
X154067316Y-87919878D01*
X154117378Y-87985121D01*
X154167306Y-88023432D01*
X154232375Y-88073361D01*
X154327067Y-88112583D01*
X154366290Y-88128830D01*
X154383008Y-88131031D01*
X154510000Y-88147750D01*
X154653709Y-88128830D01*
X154787625Y-88073361D01*
X154902621Y-87985121D01*
X154990861Y-87870125D01*
X155046330Y-87736209D01*
X155065250Y-87592500D01*
X155046330Y-87448791D01*
X155044656Y-87444750D01*
X155019957Y-87385121D01*
X154990861Y-87314875D01*
X154940932Y-87249806D01*
X154902621Y-87199878D01*
X154819645Y-87136209D01*
X154787625Y-87111639D01*
X154748401Y-87095392D01*
X154653709Y-87056169D01*
X154510000Y-87037250D01*
X154366290Y-87056169D01*
X154232375Y-87111639D01*
X154117378Y-87199878D01*
X154029139Y-87314875D01*
X153973669Y-87448790D01*
X153954750Y-87592500D01*
X142971403Y-87592500D01*
X142888426Y-87528830D01*
X142875797Y-87519139D01*
X142830858Y-87500525D01*
X142741881Y-87463669D01*
X142598172Y-87444750D01*
X142454462Y-87463669D01*
X142320547Y-87519139D01*
X142205550Y-87607378D01*
X142117311Y-87722375D01*
X142061841Y-87856290D01*
X142042922Y-88000000D01*
X133099813Y-88000000D01*
X133099845Y-86992499D01*
X137694750Y-86992499D01*
X137713669Y-87136209D01*
X137752892Y-87230901D01*
X137769139Y-87270125D01*
X137789983Y-87297289D01*
X137857378Y-87385121D01*
X137892781Y-87412286D01*
X137972375Y-87473361D01*
X138067067Y-87512583D01*
X138106290Y-87528830D01*
X138125210Y-87531320D01*
X138250000Y-87547750D01*
X138393709Y-87528830D01*
X138527625Y-87473361D01*
X138642621Y-87385121D01*
X138730861Y-87270125D01*
X138786330Y-87136209D01*
X138805250Y-86992500D01*
X138786330Y-86848791D01*
X138730861Y-86714875D01*
X138663465Y-86627043D01*
X138642621Y-86599878D01*
X138563027Y-86538804D01*
X138527625Y-86511639D01*
X138488401Y-86495392D01*
X138393709Y-86456169D01*
X138250000Y-86437250D01*
X138106290Y-86456169D01*
X137972375Y-86511639D01*
X137857378Y-86599878D01*
X137769139Y-86714875D01*
X137713669Y-86848790D01*
X137694750Y-86992499D01*
X133099845Y-86992499D01*
X133099886Y-85717357D01*
X142035440Y-85717357D01*
X142054359Y-85861067D01*
X142093582Y-85955759D01*
X142109829Y-85994983D01*
X142146780Y-86043138D01*
X142201616Y-86114603D01*
X142222040Y-86172279D01*
X142204662Y-86230945D01*
X142201616Y-86235137D01*
X142121800Y-86339156D01*
X142066330Y-86473071D01*
X142047411Y-86616781D01*
X142066330Y-86760490D01*
X142102906Y-86848791D01*
X142121800Y-86894406D01*
X142160111Y-86944333D01*
X142210039Y-87009402D01*
X142246332Y-87037250D01*
X142325036Y-87097642D01*
X142418146Y-87136209D01*
X142458951Y-87153111D01*
X142475669Y-87155312D01*
X142602661Y-87172031D01*
X142746370Y-87153111D01*
X142880286Y-87097642D01*
X142981907Y-87019665D01*
X147544415Y-87019665D01*
X147563334Y-87163374D01*
X147602557Y-87258066D01*
X147618804Y-87297290D01*
X147632298Y-87314875D01*
X147707043Y-87412286D01*
X147749352Y-87444750D01*
X147822040Y-87500526D01*
X147916732Y-87539748D01*
X147955955Y-87555995D01*
X147972673Y-87558196D01*
X148099665Y-87574915D01*
X148243374Y-87555995D01*
X148377290Y-87500526D01*
X148492286Y-87412286D01*
X148580526Y-87297290D01*
X148635995Y-87163374D01*
X148654915Y-87019665D01*
X148635995Y-86875956D01*
X148580526Y-86742040D01*
X148530597Y-86676971D01*
X148492286Y-86627043D01*
X148427217Y-86577115D01*
X148377290Y-86538804D01*
X148338066Y-86522557D01*
X148243374Y-86483334D01*
X148099665Y-86464415D01*
X147955955Y-86483334D01*
X147822040Y-86538804D01*
X147707043Y-86627043D01*
X147618804Y-86742040D01*
X147563334Y-86875955D01*
X147544415Y-87019665D01*
X142981907Y-87019665D01*
X142995282Y-87009402D01*
X143083522Y-86894406D01*
X143138991Y-86760490D01*
X143157911Y-86616781D01*
X143138991Y-86473072D01*
X143135405Y-86464415D01*
X143120501Y-86428433D01*
X143083522Y-86339156D01*
X142995282Y-86224160D01*
X142995279Y-86224158D01*
X142991733Y-86219536D01*
X142971309Y-86161860D01*
X142988686Y-86103194D01*
X142991706Y-86099037D01*
X143071551Y-85994983D01*
X143127020Y-85861067D01*
X143145940Y-85717358D01*
X143127020Y-85573649D01*
X143071551Y-85439733D01*
X143021622Y-85374664D01*
X142983311Y-85324736D01*
X142893355Y-85255711D01*
X142868315Y-85236497D01*
X142829091Y-85220250D01*
X142734399Y-85181027D01*
X142607407Y-85164309D01*
X142590690Y-85162108D01*
X142590689Y-85162108D01*
X142446980Y-85181027D01*
X142313065Y-85236497D01*
X142198068Y-85324736D01*
X142109829Y-85439733D01*
X142054359Y-85573648D01*
X142035440Y-85717357D01*
X133099886Y-85717357D01*
X133099907Y-85070142D01*
X150237108Y-85070142D01*
X150256027Y-85213852D01*
X150273366Y-85255711D01*
X150311497Y-85347768D01*
X150343616Y-85389626D01*
X150399736Y-85462764D01*
X150449664Y-85501075D01*
X150514733Y-85551004D01*
X150573250Y-85575242D01*
X150648648Y-85606473D01*
X150665366Y-85608674D01*
X150792358Y-85625393D01*
X150936067Y-85606473D01*
X151069983Y-85551004D01*
X151184979Y-85462764D01*
X151273219Y-85347768D01*
X151328688Y-85213852D01*
X151342097Y-85112001D01*
X152244750Y-85112001D01*
X152263669Y-85255711D01*
X152292261Y-85324737D01*
X152319139Y-85389627D01*
X152357450Y-85439554D01*
X152407378Y-85504623D01*
X152457306Y-85542934D01*
X152522375Y-85592863D01*
X152600911Y-85625393D01*
X152656290Y-85648332D01*
X152675209Y-85650822D01*
X152800000Y-85667252D01*
X152943709Y-85648332D01*
X153077625Y-85592863D01*
X153192621Y-85504623D01*
X153280861Y-85389627D01*
X153318973Y-85297616D01*
X163125351Y-85297616D01*
X163144270Y-85441326D01*
X163170489Y-85504623D01*
X163199740Y-85575242D01*
X163223705Y-85606473D01*
X163287979Y-85690238D01*
X163323322Y-85717357D01*
X163402976Y-85778478D01*
X163497668Y-85817700D01*
X163536891Y-85833947D01*
X163553609Y-85836148D01*
X163680601Y-85852867D01*
X163824310Y-85833947D01*
X163958226Y-85778478D01*
X164073222Y-85690238D01*
X164161462Y-85575242D01*
X164216931Y-85441326D01*
X164235851Y-85297617D01*
X164216931Y-85153908D01*
X164161462Y-85019992D01*
X164089672Y-84926434D01*
X164073222Y-84904995D01*
X164008153Y-84855067D01*
X163958226Y-84816756D01*
X163919002Y-84800509D01*
X163824310Y-84761286D01*
X163680601Y-84742367D01*
X163536891Y-84761286D01*
X163402976Y-84816756D01*
X163287979Y-84904995D01*
X163199740Y-85019992D01*
X163144270Y-85153907D01*
X163125351Y-85297616D01*
X153318973Y-85297616D01*
X153336330Y-85255711D01*
X153355250Y-85112002D01*
X153336330Y-84968293D01*
X153280861Y-84834377D01*
X153210259Y-84742367D01*
X153192621Y-84719380D01*
X153127552Y-84669452D01*
X153077625Y-84631141D01*
X153038401Y-84614894D01*
X152943709Y-84575671D01*
X152800000Y-84556752D01*
X152656290Y-84575671D01*
X152522375Y-84631141D01*
X152407378Y-84719380D01*
X152319139Y-84834377D01*
X152263669Y-84968292D01*
X152244750Y-85112001D01*
X151342097Y-85112001D01*
X151347608Y-85070143D01*
X151328688Y-84926434D01*
X151273219Y-84792518D01*
X151205871Y-84704749D01*
X151184979Y-84677521D01*
X151119910Y-84627593D01*
X151069983Y-84589282D01*
X151030759Y-84573035D01*
X150936067Y-84533812D01*
X150809075Y-84517094D01*
X150792358Y-84514893D01*
X150792357Y-84514893D01*
X150648648Y-84533812D01*
X150514733Y-84589282D01*
X150399736Y-84677521D01*
X150311497Y-84792518D01*
X150256027Y-84926433D01*
X150237108Y-85070142D01*
X133099907Y-85070142D01*
X133099936Y-84147384D01*
X142681826Y-84147384D01*
X142700745Y-84291093D01*
X142739968Y-84385785D01*
X142756215Y-84425009D01*
X142766617Y-84438565D01*
X142844454Y-84540005D01*
X142874077Y-84562735D01*
X142959451Y-84628245D01*
X143054143Y-84667467D01*
X143093366Y-84683714D01*
X143109439Y-84685830D01*
X143237076Y-84702634D01*
X143380785Y-84683714D01*
X143514701Y-84628245D01*
X143629697Y-84540005D01*
X143629698Y-84540002D01*
X143640037Y-84532070D01*
X143640671Y-84532897D01*
X143679404Y-84506270D01*
X143740569Y-84507865D01*
X143786075Y-84540922D01*
X143787379Y-84542622D01*
X143844876Y-84586740D01*
X143902375Y-84630861D01*
X143997067Y-84670083D01*
X144036290Y-84686330D01*
X144055210Y-84688820D01*
X144180000Y-84705250D01*
X144323709Y-84686330D01*
X144457625Y-84630861D01*
X144572621Y-84542621D01*
X144660861Y-84427625D01*
X144716330Y-84293709D01*
X144735250Y-84150000D01*
X145470250Y-84150000D01*
X145489169Y-84293709D01*
X145528392Y-84388401D01*
X145544639Y-84427625D01*
X145551085Y-84436025D01*
X145632878Y-84542621D01*
X145659093Y-84562736D01*
X145747875Y-84630861D01*
X145842567Y-84670083D01*
X145881790Y-84686330D01*
X145900709Y-84688820D01*
X146025500Y-84705250D01*
X146169209Y-84686330D01*
X146303125Y-84630861D01*
X146418121Y-84542621D01*
X146421372Y-84538383D01*
X146471792Y-84503728D01*
X146532956Y-84505327D01*
X146578456Y-84538382D01*
X146579701Y-84540005D01*
X146581327Y-84542123D01*
X146608191Y-84562736D01*
X146696321Y-84630361D01*
X146791013Y-84669583D01*
X146830236Y-84685830D01*
X146846954Y-84688031D01*
X146973946Y-84704750D01*
X147117655Y-84685830D01*
X147251571Y-84630361D01*
X147366567Y-84542121D01*
X147454807Y-84427125D01*
X147510276Y-84293209D01*
X147529196Y-84149500D01*
X147510276Y-84005791D01*
X147509399Y-84003674D01*
X147494029Y-83966567D01*
X147454807Y-83871875D01*
X147392840Y-83791118D01*
X147366567Y-83756878D01*
X147301498Y-83706950D01*
X147251571Y-83668639D01*
X147212347Y-83652392D01*
X147117655Y-83613169D01*
X146990663Y-83596451D01*
X146973946Y-83594250D01*
X146973945Y-83594250D01*
X146830236Y-83613169D01*
X146696321Y-83668639D01*
X146581323Y-83756878D01*
X146578071Y-83761118D01*
X146527646Y-83795772D01*
X146466481Y-83794169D01*
X146420990Y-83761117D01*
X146418120Y-83757378D01*
X146354146Y-83708289D01*
X146303125Y-83669139D01*
X146263901Y-83652892D01*
X146169209Y-83613669D01*
X146025500Y-83594750D01*
X145881790Y-83613669D01*
X145747875Y-83669139D01*
X145632878Y-83757378D01*
X145544639Y-83872375D01*
X145489169Y-84006290D01*
X145470250Y-84150000D01*
X144735250Y-84150000D01*
X144716330Y-84006291D01*
X144716122Y-84005790D01*
X144697380Y-83960542D01*
X144660861Y-83872375D01*
X144580669Y-83767867D01*
X144572621Y-83757378D01*
X144507552Y-83707450D01*
X144457625Y-83669139D01*
X144418401Y-83652892D01*
X144323709Y-83613669D01*
X144196717Y-83596951D01*
X144180000Y-83594750D01*
X144179999Y-83594750D01*
X144036290Y-83613669D01*
X143902375Y-83669138D01*
X143777039Y-83765313D01*
X143776405Y-83764487D01*
X143737651Y-83791118D01*
X143676486Y-83789512D01*
X143630998Y-83756459D01*
X143629697Y-83754763D01*
X143514701Y-83666523D01*
X143487174Y-83655121D01*
X143380785Y-83611053D01*
X143253148Y-83594250D01*
X143237076Y-83592134D01*
X143237075Y-83592134D01*
X143093366Y-83611053D01*
X142959451Y-83666523D01*
X142844454Y-83754762D01*
X142756215Y-83869759D01*
X142700745Y-84003674D01*
X142681826Y-84147384D01*
X133099936Y-84147384D01*
X133099972Y-83011226D01*
X135033523Y-83011226D01*
X135052442Y-83154936D01*
X135091665Y-83249628D01*
X135107912Y-83288852D01*
X135141035Y-83332019D01*
X135196151Y-83403848D01*
X135246079Y-83442159D01*
X135311148Y-83492088D01*
X135405840Y-83531310D01*
X135445063Y-83547557D01*
X135463982Y-83550047D01*
X135588773Y-83566477D01*
X135732482Y-83547557D01*
X135866398Y-83492088D01*
X135981394Y-83403848D01*
X136069634Y-83288852D01*
X136080550Y-83262499D01*
X157494750Y-83262499D01*
X157513669Y-83406209D01*
X157546206Y-83484760D01*
X157569139Y-83540125D01*
X157574842Y-83547557D01*
X157657378Y-83655121D01*
X157707306Y-83693432D01*
X157772375Y-83743361D01*
X157867067Y-83782583D01*
X157906290Y-83798830D01*
X157923008Y-83801031D01*
X158050000Y-83817750D01*
X158193709Y-83798830D01*
X158327625Y-83743361D01*
X158442621Y-83655121D01*
X158530861Y-83540125D01*
X158586330Y-83406209D01*
X158605250Y-83262500D01*
X158586330Y-83118791D01*
X158530861Y-82984875D01*
X158529038Y-82982499D01*
X164084435Y-82982499D01*
X164104632Y-83161758D01*
X164139884Y-83262500D01*
X164164211Y-83332022D01*
X164260184Y-83484762D01*
X164387738Y-83612316D01*
X164540478Y-83708289D01*
X164640705Y-83743360D01*
X164710741Y-83767867D01*
X164710742Y-83767867D01*
X164710745Y-83767868D01*
X164845046Y-83783000D01*
X164847813Y-83783000D01*
X165543374Y-83783000D01*
X165601565Y-83801907D01*
X165637529Y-83851407D01*
X165637529Y-83912593D01*
X165603641Y-83960542D01*
X165549548Y-84002048D01*
X165457302Y-84122266D01*
X165399312Y-84262264D01*
X165379534Y-84412500D01*
X165399312Y-84562735D01*
X165457302Y-84702733D01*
X165549548Y-84822951D01*
X165641794Y-84893734D01*
X165669767Y-84915198D01*
X165809764Y-84973187D01*
X165922280Y-84988000D01*
X165925521Y-84988000D01*
X165994479Y-84988000D01*
X165997720Y-84988000D01*
X166110236Y-84973187D01*
X166250233Y-84915198D01*
X166370451Y-84822951D01*
X166462698Y-84702733D01*
X166520687Y-84562736D01*
X166540466Y-84412500D01*
X166520687Y-84262264D01*
X166462698Y-84122267D01*
X166441234Y-84094294D01*
X166370451Y-84002048D01*
X166243135Y-83904355D01*
X166208479Y-83853930D01*
X166210081Y-83792766D01*
X166247328Y-83744224D01*
X166270697Y-83732371D01*
X166339522Y-83708289D01*
X166492262Y-83612316D01*
X166619816Y-83484762D01*
X166715789Y-83332022D01*
X166775368Y-83161755D01*
X166795565Y-82982500D01*
X166795565Y-82982499D01*
X168434435Y-82982499D01*
X168454632Y-83161758D01*
X168489884Y-83262500D01*
X168514211Y-83332022D01*
X168610184Y-83484762D01*
X168737738Y-83612316D01*
X168890478Y-83708289D01*
X168990705Y-83743360D01*
X169060741Y-83767867D01*
X169060742Y-83767867D01*
X169060745Y-83767868D01*
X169195046Y-83783000D01*
X169197813Y-83783000D01*
X170082187Y-83783000D01*
X170084954Y-83783000D01*
X170219255Y-83767868D01*
X170389522Y-83708289D01*
X170542262Y-83612316D01*
X170669816Y-83484762D01*
X170765789Y-83332022D01*
X170825368Y-83161755D01*
X170845565Y-82982500D01*
X170825368Y-82803245D01*
X170765789Y-82632978D01*
X170669816Y-82480238D01*
X170542262Y-82352684D01*
X170389522Y-82256711D01*
X170381815Y-82254014D01*
X170219258Y-82197132D01*
X170087699Y-82182309D01*
X170087693Y-82182308D01*
X170084954Y-82182000D01*
X169195046Y-82182000D01*
X169192307Y-82182308D01*
X169192300Y-82182309D01*
X169060741Y-82197132D01*
X168890480Y-82256710D01*
X168737739Y-82352683D01*
X168610183Y-82480239D01*
X168514210Y-82632980D01*
X168454632Y-82803241D01*
X168434435Y-82982499D01*
X166795565Y-82982499D01*
X166775368Y-82803245D01*
X166715789Y-82632978D01*
X166619816Y-82480238D01*
X166492262Y-82352684D01*
X166339522Y-82256711D01*
X166331815Y-82254014D01*
X166169258Y-82197132D01*
X166037699Y-82182309D01*
X166037693Y-82182308D01*
X166034954Y-82182000D01*
X164845046Y-82182000D01*
X164842307Y-82182308D01*
X164842300Y-82182309D01*
X164710741Y-82197132D01*
X164540480Y-82256710D01*
X164387739Y-82352683D01*
X164260183Y-82480239D01*
X164164210Y-82632980D01*
X164104632Y-82803241D01*
X164084435Y-82982499D01*
X158529038Y-82982499D01*
X158451048Y-82880861D01*
X158442621Y-82869878D01*
X158355777Y-82803241D01*
X158327625Y-82781639D01*
X158288401Y-82765392D01*
X158193709Y-82726169D01*
X158050000Y-82707250D01*
X157906290Y-82726169D01*
X157772375Y-82781639D01*
X157657378Y-82869878D01*
X157569139Y-82984875D01*
X157513669Y-83118790D01*
X157494750Y-83262499D01*
X136080550Y-83262499D01*
X136125103Y-83154936D01*
X136144023Y-83011227D01*
X136125103Y-82867518D01*
X136069634Y-82733602D01*
X135992424Y-82632980D01*
X135981394Y-82618605D01*
X135916325Y-82568677D01*
X135866398Y-82530366D01*
X135827174Y-82514119D01*
X135732482Y-82474896D01*
X135605490Y-82458178D01*
X135588773Y-82455977D01*
X135588772Y-82455977D01*
X135445063Y-82474896D01*
X135311148Y-82530366D01*
X135196151Y-82618605D01*
X135107912Y-82733602D01*
X135052442Y-82867517D01*
X135033523Y-83011226D01*
X133099972Y-83011226D01*
X133099992Y-82400000D01*
X138644750Y-82400000D01*
X138663669Y-82543709D01*
X138694692Y-82618605D01*
X138719139Y-82677625D01*
X138741871Y-82707250D01*
X138807378Y-82792621D01*
X138821224Y-82803245D01*
X138922375Y-82880861D01*
X139017067Y-82920083D01*
X139056290Y-82936330D01*
X139073008Y-82938531D01*
X139200000Y-82955250D01*
X139343709Y-82936330D01*
X139477625Y-82880861D01*
X139592621Y-82792621D01*
X139680861Y-82677625D01*
X139736330Y-82543709D01*
X139755250Y-82400000D01*
X139736330Y-82256291D01*
X139680861Y-82122375D01*
X139630932Y-82057306D01*
X139592621Y-82007378D01*
X139514747Y-81947624D01*
X139477625Y-81919139D01*
X139438401Y-81902892D01*
X139343709Y-81863669D01*
X139200000Y-81844750D01*
X139056290Y-81863669D01*
X138922375Y-81919139D01*
X138807378Y-82007378D01*
X138719139Y-82122375D01*
X138663669Y-82256290D01*
X138644750Y-82400000D01*
X133099992Y-82400000D01*
X133100015Y-81670000D01*
X143944750Y-81670000D01*
X143963669Y-81813709D01*
X143984364Y-81863670D01*
X144019139Y-81947625D01*
X144057450Y-81997552D01*
X144107378Y-82062621D01*
X144157306Y-82100932D01*
X144222375Y-82150861D01*
X144317067Y-82190083D01*
X144356290Y-82206330D01*
X144375210Y-82208820D01*
X144500000Y-82225250D01*
X144643709Y-82206330D01*
X144777625Y-82150861D01*
X144892621Y-82062621D01*
X144980861Y-81947625D01*
X145036330Y-81813709D01*
X145055250Y-81670000D01*
X145049468Y-81626089D01*
X145060617Y-81565932D01*
X145104999Y-81523814D01*
X145134701Y-81515016D01*
X145143709Y-81513830D01*
X145143709Y-81513829D01*
X145277625Y-81458361D01*
X145392621Y-81370121D01*
X145480861Y-81255125D01*
X145511565Y-81180999D01*
X149919250Y-81180999D01*
X149938169Y-81324709D01*
X149977392Y-81419401D01*
X149993639Y-81458625D01*
X150031950Y-81508552D01*
X150081878Y-81573621D01*
X150131806Y-81611932D01*
X150196875Y-81661861D01*
X150291567Y-81701083D01*
X150330790Y-81717330D01*
X150349710Y-81719820D01*
X150474500Y-81736250D01*
X150618209Y-81717330D01*
X150752125Y-81661861D01*
X150867121Y-81573621D01*
X150955361Y-81458625D01*
X151010830Y-81324709D01*
X151029750Y-81181000D01*
X151010830Y-81037291D01*
X150955361Y-80903375D01*
X150901966Y-80833790D01*
X150867121Y-80788378D01*
X150802052Y-80738450D01*
X150752125Y-80700139D01*
X150712901Y-80683892D01*
X150618209Y-80644669D01*
X150491217Y-80627951D01*
X150474500Y-80625750D01*
X150474499Y-80625750D01*
X150330790Y-80644669D01*
X150196875Y-80700139D01*
X150081878Y-80788378D01*
X149993639Y-80903375D01*
X149938169Y-81037290D01*
X149919250Y-81180999D01*
X145511565Y-81180999D01*
X145536330Y-81121209D01*
X145555250Y-80977500D01*
X145536330Y-80833791D01*
X145480861Y-80699875D01*
X145423983Y-80625750D01*
X145392621Y-80584878D01*
X145327552Y-80534950D01*
X145277625Y-80496639D01*
X145238401Y-80480392D01*
X145143709Y-80441169D01*
X145000000Y-80422250D01*
X144856290Y-80441169D01*
X144722375Y-80496639D01*
X144607378Y-80584878D01*
X144519139Y-80699875D01*
X144463669Y-80833790D01*
X144444750Y-80977500D01*
X144450530Y-81021409D01*
X144439379Y-81081570D01*
X144394996Y-81123687D01*
X144365303Y-81132483D01*
X144356289Y-81133669D01*
X144222375Y-81189139D01*
X144107378Y-81277378D01*
X144019139Y-81392375D01*
X143963669Y-81526290D01*
X143944750Y-81670000D01*
X133100015Y-81670000D01*
X133100073Y-79849999D01*
X137094750Y-79849999D01*
X137113669Y-79993709D01*
X137152892Y-80088401D01*
X137169139Y-80127625D01*
X137207450Y-80177552D01*
X137257378Y-80242621D01*
X137307306Y-80280932D01*
X137372375Y-80330861D01*
X137467067Y-80370083D01*
X137506290Y-80386330D01*
X137523008Y-80388531D01*
X137650000Y-80405250D01*
X137793709Y-80386330D01*
X137927625Y-80330861D01*
X138042621Y-80242621D01*
X138130861Y-80127625D01*
X138186330Y-79993709D01*
X138205250Y-79850000D01*
X138186330Y-79706291D01*
X138182889Y-79697984D01*
X138162529Y-79648830D01*
X138130861Y-79572375D01*
X138071296Y-79494749D01*
X138042621Y-79457378D01*
X137954973Y-79390124D01*
X137927625Y-79369139D01*
X137888401Y-79352892D01*
X137793709Y-79313669D01*
X137666717Y-79296951D01*
X137650000Y-79294750D01*
X137649999Y-79294750D01*
X137506290Y-79313669D01*
X137372375Y-79369139D01*
X137257378Y-79457378D01*
X137169139Y-79572375D01*
X137113669Y-79706290D01*
X137094750Y-79849999D01*
X133100073Y-79849999D01*
X133100143Y-77650000D01*
X134644750Y-77650000D01*
X134663669Y-77793709D01*
X134702892Y-77888401D01*
X134719139Y-77927625D01*
X134757450Y-77977552D01*
X134807378Y-78042621D01*
X134832634Y-78062000D01*
X134922375Y-78130861D01*
X135017067Y-78170083D01*
X135056290Y-78186330D01*
X135073008Y-78188531D01*
X135200000Y-78205250D01*
X135343709Y-78186330D01*
X135477625Y-78130861D01*
X135567366Y-78062000D01*
X144594750Y-78062000D01*
X144613669Y-78205709D01*
X144652892Y-78300401D01*
X144669139Y-78339625D01*
X144707450Y-78389552D01*
X144757378Y-78454621D01*
X144807306Y-78492932D01*
X144872375Y-78542861D01*
X144967574Y-78582293D01*
X145004523Y-78597598D01*
X145051049Y-78637334D01*
X145065333Y-78696829D01*
X145041918Y-78753357D01*
X145026906Y-78767604D01*
X144952753Y-78824504D01*
X144864515Y-78939499D01*
X144809045Y-79073414D01*
X144790126Y-79217124D01*
X144809045Y-79360833D01*
X144843374Y-79443709D01*
X144864515Y-79494749D01*
X144872474Y-79505121D01*
X144952754Y-79609745D01*
X145002682Y-79648056D01*
X145067751Y-79697985D01*
X145162443Y-79737207D01*
X145201666Y-79753454D01*
X145220585Y-79755944D01*
X145345376Y-79772374D01*
X145489085Y-79753454D01*
X145623001Y-79697985D01*
X145737997Y-79609745D01*
X145826237Y-79494749D01*
X145881706Y-79360833D01*
X145889715Y-79300000D01*
X153444750Y-79300000D01*
X153463669Y-79443709D01*
X153484811Y-79494749D01*
X153519139Y-79577625D01*
X153531213Y-79593360D01*
X153607378Y-79692621D01*
X153657306Y-79730932D01*
X153722375Y-79780861D01*
X153817067Y-79820083D01*
X153856290Y-79836330D01*
X153873008Y-79838531D01*
X154000000Y-79855250D01*
X154143709Y-79836330D01*
X154277625Y-79780861D01*
X154392621Y-79692621D01*
X154480861Y-79577625D01*
X154536330Y-79443709D01*
X154555250Y-79300000D01*
X154536330Y-79156291D01*
X154535097Y-79153315D01*
X154518191Y-79112500D01*
X166195250Y-79112500D01*
X166214169Y-79256209D01*
X166253392Y-79350901D01*
X166269639Y-79390125D01*
X166307950Y-79440052D01*
X166357878Y-79505121D01*
X166407806Y-79543432D01*
X166472875Y-79593361D01*
X166567567Y-79632583D01*
X166606790Y-79648830D01*
X166623508Y-79651031D01*
X166750500Y-79667750D01*
X166894209Y-79648830D01*
X167028125Y-79593361D01*
X167143121Y-79505121D01*
X167231361Y-79390125D01*
X167286830Y-79256209D01*
X167305750Y-79112500D01*
X167286830Y-78968791D01*
X167279079Y-78950079D01*
X167270583Y-78929567D01*
X167231361Y-78834875D01*
X167176723Y-78763670D01*
X167143121Y-78719878D01*
X167067528Y-78661874D01*
X167028125Y-78631639D01*
X166988901Y-78615392D01*
X166894209Y-78576169D01*
X166750500Y-78557250D01*
X166606790Y-78576169D01*
X166472875Y-78631639D01*
X166357878Y-78719878D01*
X166269639Y-78834875D01*
X166214169Y-78968790D01*
X166195250Y-79112500D01*
X154518191Y-79112500D01*
X154502002Y-79073415D01*
X154480861Y-79022375D01*
X154417268Y-78939499D01*
X154392621Y-78907378D01*
X154298132Y-78834875D01*
X154277625Y-78819139D01*
X154238401Y-78802892D01*
X154143709Y-78763669D01*
X154000000Y-78744750D01*
X153856290Y-78763669D01*
X153722375Y-78819139D01*
X153607378Y-78907378D01*
X153519139Y-79022375D01*
X153463669Y-79156290D01*
X153444750Y-79300000D01*
X145889715Y-79300000D01*
X145900626Y-79217124D01*
X145881706Y-79073415D01*
X145826237Y-78939499D01*
X145745956Y-78834875D01*
X145737997Y-78824502D01*
X145623001Y-78736263D01*
X145490851Y-78681525D01*
X145480229Y-78672453D01*
X146394750Y-78672453D01*
X146413669Y-78816163D01*
X146445339Y-78892621D01*
X146469139Y-78950079D01*
X146492759Y-78980861D01*
X146557378Y-79065075D01*
X146607306Y-79103386D01*
X146672375Y-79153315D01*
X146767067Y-79192537D01*
X146806290Y-79208784D01*
X146825210Y-79211274D01*
X146950000Y-79227704D01*
X147093709Y-79208784D01*
X147227625Y-79153315D01*
X147342621Y-79065075D01*
X147430861Y-78950079D01*
X147486330Y-78816163D01*
X147505250Y-78672454D01*
X147486330Y-78528745D01*
X147474424Y-78500000D01*
X150444750Y-78500000D01*
X150463669Y-78643709D01*
X150495220Y-78719878D01*
X150519139Y-78777625D01*
X150550994Y-78819139D01*
X150607378Y-78892621D01*
X150657306Y-78930932D01*
X150722375Y-78980861D01*
X150817067Y-79020083D01*
X150856290Y-79036330D01*
X150873008Y-79038531D01*
X151000000Y-79055250D01*
X151143709Y-79036330D01*
X151277625Y-78980861D01*
X151392621Y-78892621D01*
X151480861Y-78777625D01*
X151536330Y-78643709D01*
X151555250Y-78500000D01*
X151536330Y-78356291D01*
X151529426Y-78339624D01*
X151520083Y-78317067D01*
X151480861Y-78222375D01*
X151414677Y-78136123D01*
X151392621Y-78107378D01*
X151308227Y-78042621D01*
X151277625Y-78019139D01*
X151238401Y-78002892D01*
X151143709Y-77963669D01*
X151000000Y-77944750D01*
X150856290Y-77963669D01*
X150722375Y-78019139D01*
X150607378Y-78107378D01*
X150519139Y-78222375D01*
X150463669Y-78356290D01*
X150444750Y-78500000D01*
X147474424Y-78500000D01*
X147430861Y-78394829D01*
X147380932Y-78329760D01*
X147342621Y-78279832D01*
X147277552Y-78229904D01*
X147227625Y-78191593D01*
X147188401Y-78175346D01*
X147093709Y-78136123D01*
X146950000Y-78117204D01*
X146806290Y-78136123D01*
X146672375Y-78191593D01*
X146557378Y-78279832D01*
X146469139Y-78394829D01*
X146413669Y-78528744D01*
X146394750Y-78672453D01*
X145480229Y-78672453D01*
X145444326Y-78641788D01*
X145430042Y-78582293D01*
X145453457Y-78525766D01*
X145468470Y-78511519D01*
X145483484Y-78499999D01*
X145542621Y-78454621D01*
X145630861Y-78339625D01*
X145686330Y-78205709D01*
X145705250Y-78062000D01*
X145686330Y-77918291D01*
X145630861Y-77784375D01*
X145580932Y-77719306D01*
X145542621Y-77669378D01*
X145477552Y-77619450D01*
X145427625Y-77581139D01*
X145397287Y-77568572D01*
X145293710Y-77525669D01*
X145273318Y-77522985D01*
X145218094Y-77496643D01*
X145198014Y-77459660D01*
X145160997Y-77498669D01*
X145126679Y-77509820D01*
X145006290Y-77525669D01*
X144872375Y-77581139D01*
X144757378Y-77669378D01*
X144669139Y-77784375D01*
X144613669Y-77918290D01*
X144594750Y-78062000D01*
X135567366Y-78062000D01*
X135592621Y-78042621D01*
X135680861Y-77927625D01*
X135736330Y-77793709D01*
X135755250Y-77650000D01*
X135736795Y-77509820D01*
X135736330Y-77506290D01*
X135717015Y-77459660D01*
X135680861Y-77372375D01*
X135627904Y-77303360D01*
X135592621Y-77257378D01*
X135492901Y-77180861D01*
X135477625Y-77169139D01*
X135416231Y-77143709D01*
X135343709Y-77113669D01*
X135200000Y-77094750D01*
X135056290Y-77113669D01*
X134922375Y-77169139D01*
X134807378Y-77257378D01*
X134719139Y-77372375D01*
X134663669Y-77506290D01*
X134644750Y-77650000D01*
X133100143Y-77650000D01*
X133100173Y-76700000D01*
X142144750Y-76700000D01*
X142163669Y-76843709D01*
X142186002Y-76897624D01*
X142219139Y-76977625D01*
X142236308Y-77000000D01*
X142307378Y-77092621D01*
X142334809Y-77113669D01*
X142422375Y-77180861D01*
X142505087Y-77215121D01*
X142556290Y-77236330D01*
X142575210Y-77238820D01*
X142700000Y-77255250D01*
X142843709Y-77236330D01*
X142977625Y-77180861D01*
X143092621Y-77092621D01*
X143180861Y-76977625D01*
X143236330Y-76843709D01*
X143245442Y-76774500D01*
X144694750Y-76774500D01*
X144713669Y-76918209D01*
X144747548Y-76999999D01*
X144769139Y-77052125D01*
X144805970Y-77100124D01*
X144857378Y-77167121D01*
X144875285Y-77180861D01*
X144972375Y-77255361D01*
X145067067Y-77294583D01*
X145106290Y-77310830D01*
X145126678Y-77313514D01*
X145181903Y-77339854D01*
X145201984Y-77376838D01*
X145239005Y-77337828D01*
X145273315Y-77326680D01*
X145393709Y-77310830D01*
X145527625Y-77255361D01*
X145642621Y-77167121D01*
X145730861Y-77052125D01*
X145752452Y-76999999D01*
X146849245Y-76999999D01*
X146868164Y-77143709D01*
X146897744Y-77215121D01*
X146923634Y-77277625D01*
X146949113Y-77310830D01*
X147011873Y-77392621D01*
X147061801Y-77430932D01*
X147126870Y-77480861D01*
X147221562Y-77520083D01*
X147260785Y-77536330D01*
X147277503Y-77538531D01*
X147404495Y-77555250D01*
X147548204Y-77536330D01*
X147682120Y-77480861D01*
X147797116Y-77392621D01*
X147885356Y-77277625D01*
X147940825Y-77143709D01*
X147959745Y-77000000D01*
X147940825Y-76856291D01*
X147935613Y-76843709D01*
X147922635Y-76812375D01*
X147885356Y-76722375D01*
X147815080Y-76630790D01*
X147806801Y-76620000D01*
X152605250Y-76620000D01*
X152624169Y-76763709D01*
X152662518Y-76856290D01*
X152679639Y-76897625D01*
X152695434Y-76918209D01*
X152767878Y-77012621D01*
X152817806Y-77050932D01*
X152882875Y-77100861D01*
X152977567Y-77140083D01*
X153016790Y-77156330D01*
X153033508Y-77158531D01*
X153160500Y-77175250D01*
X153304209Y-77156330D01*
X153438125Y-77100861D01*
X153553121Y-77012621D01*
X153641361Y-76897625D01*
X153672478Y-76822500D01*
X159314750Y-76822500D01*
X159333669Y-76966209D01*
X159347666Y-77000000D01*
X159389139Y-77100125D01*
X159422582Y-77143709D01*
X159477378Y-77215121D01*
X159501603Y-77233709D01*
X159592375Y-77303361D01*
X159656085Y-77329750D01*
X159726290Y-77358830D01*
X159745209Y-77361320D01*
X159870000Y-77377750D01*
X160013709Y-77358830D01*
X160147625Y-77303361D01*
X160262621Y-77215121D01*
X160350861Y-77100125D01*
X160406330Y-76966209D01*
X160425250Y-76822500D01*
X160406330Y-76678791D01*
X160350861Y-76544875D01*
X160288549Y-76463669D01*
X160262621Y-76429878D01*
X160197552Y-76379950D01*
X160147625Y-76341639D01*
X160108401Y-76325392D01*
X160013709Y-76286169D01*
X159886717Y-76269451D01*
X159870000Y-76267250D01*
X159869999Y-76267250D01*
X159726290Y-76286169D01*
X159592375Y-76341639D01*
X159477378Y-76429878D01*
X159389139Y-76544875D01*
X159333669Y-76678790D01*
X159314750Y-76822500D01*
X153672478Y-76822500D01*
X153696830Y-76763709D01*
X153715750Y-76620000D01*
X153696830Y-76476291D01*
X153691602Y-76463670D01*
X153677605Y-76429878D01*
X153641361Y-76342375D01*
X153583715Y-76267250D01*
X153553121Y-76227378D01*
X153470093Y-76163669D01*
X153438125Y-76139139D01*
X153398901Y-76122892D01*
X153304209Y-76083669D01*
X153160500Y-76064750D01*
X153016790Y-76083669D01*
X152882875Y-76139139D01*
X152767878Y-76227378D01*
X152679639Y-76342375D01*
X152624169Y-76476290D01*
X152605250Y-76620000D01*
X147806801Y-76620000D01*
X147797116Y-76607378D01*
X147730536Y-76556290D01*
X147682120Y-76519139D01*
X147642896Y-76502892D01*
X147548204Y-76463669D01*
X147421212Y-76446951D01*
X147404495Y-76444750D01*
X147404494Y-76444750D01*
X147260785Y-76463669D01*
X147126870Y-76519139D01*
X147011873Y-76607378D01*
X146923634Y-76722375D01*
X146868164Y-76856290D01*
X146849245Y-76999999D01*
X145752452Y-76999999D01*
X145786330Y-76918209D01*
X145805250Y-76774500D01*
X145786330Y-76630791D01*
X145781860Y-76620000D01*
X145770083Y-76591567D01*
X145730861Y-76496875D01*
X145650864Y-76392621D01*
X145642621Y-76381878D01*
X145545531Y-76307379D01*
X145527625Y-76293639D01*
X145488401Y-76277392D01*
X145393709Y-76238169D01*
X145250000Y-76219250D01*
X145106290Y-76238169D01*
X144972375Y-76293639D01*
X144857378Y-76381878D01*
X144769139Y-76496875D01*
X144713669Y-76630790D01*
X144694750Y-76774500D01*
X143245442Y-76774500D01*
X143255250Y-76700000D01*
X143236330Y-76556291D01*
X143235898Y-76555249D01*
X143203193Y-76476290D01*
X143180861Y-76422375D01*
X143118910Y-76341639D01*
X143092621Y-76307378D01*
X143027552Y-76257450D01*
X142977625Y-76219139D01*
X142938401Y-76202892D01*
X142843709Y-76163669D01*
X142716717Y-76146951D01*
X142700000Y-76144750D01*
X142699999Y-76144750D01*
X142556290Y-76163669D01*
X142422375Y-76219139D01*
X142307378Y-76307378D01*
X142219139Y-76422375D01*
X142163669Y-76556290D01*
X142144750Y-76700000D01*
X133100173Y-76700000D01*
X133100205Y-75700000D01*
X154614750Y-75700000D01*
X154633669Y-75843709D01*
X154672892Y-75938401D01*
X154689139Y-75977625D01*
X154706308Y-76000000D01*
X154777378Y-76092621D01*
X154822851Y-76127513D01*
X154892375Y-76180861D01*
X154984788Y-76219139D01*
X155026290Y-76236330D01*
X155040259Y-76238169D01*
X155170000Y-76255250D01*
X155313709Y-76236330D01*
X155447625Y-76180861D01*
X155490533Y-76147936D01*
X155548204Y-76127513D01*
X155606870Y-76144889D01*
X155642261Y-76188593D01*
X155679139Y-76277625D01*
X155767378Y-76392621D01*
X155806155Y-76422375D01*
X155882375Y-76480861D01*
X155974788Y-76519139D01*
X156016290Y-76536330D01*
X156033008Y-76538531D01*
X156160000Y-76555250D01*
X156303709Y-76536330D01*
X156437625Y-76480861D01*
X156552621Y-76392621D01*
X156640861Y-76277625D01*
X156696330Y-76143709D01*
X156715250Y-76000000D01*
X156696330Y-75856291D01*
X156691118Y-75843709D01*
X156680083Y-75817067D01*
X156640861Y-75722375D01*
X156590932Y-75657306D01*
X156552621Y-75607378D01*
X156480531Y-75552062D01*
X156437625Y-75519139D01*
X156398401Y-75502892D01*
X156303709Y-75463669D01*
X156160000Y-75444750D01*
X156016290Y-75463669D01*
X155882375Y-75519138D01*
X155839469Y-75552062D01*
X155781793Y-75572486D01*
X155723128Y-75555108D01*
X155687738Y-75511405D01*
X155683965Y-75502296D01*
X155650861Y-75422375D01*
X155580737Y-75330988D01*
X155562621Y-75307378D01*
X155496442Y-75256598D01*
X155447625Y-75219139D01*
X155408401Y-75202892D01*
X155313709Y-75163669D01*
X155186717Y-75146951D01*
X155170000Y-75144750D01*
X155169999Y-75144750D01*
X155026290Y-75163669D01*
X154892375Y-75219139D01*
X154777378Y-75307378D01*
X154689139Y-75422375D01*
X154633669Y-75556290D01*
X154614750Y-75700000D01*
X133100205Y-75700000D01*
X133100235Y-74775738D01*
X149510958Y-74775738D01*
X149529877Y-74919447D01*
X149569100Y-75014139D01*
X149585347Y-75053363D01*
X149623658Y-75103290D01*
X149673586Y-75168359D01*
X149723514Y-75206670D01*
X149788583Y-75256599D01*
X149883275Y-75295821D01*
X149922498Y-75312068D01*
X149941418Y-75314558D01*
X150066208Y-75330988D01*
X150209917Y-75312068D01*
X150343833Y-75256599D01*
X150458829Y-75168359D01*
X150547069Y-75053363D01*
X150602538Y-74919447D01*
X150621458Y-74775738D01*
X150602538Y-74632029D01*
X150602054Y-74630861D01*
X150586291Y-74592805D01*
X150547069Y-74498113D01*
X150463625Y-74389367D01*
X150458829Y-74383116D01*
X150393760Y-74333188D01*
X150343833Y-74294877D01*
X150302180Y-74277624D01*
X150209917Y-74239407D01*
X150082925Y-74222689D01*
X150066208Y-74220488D01*
X150066207Y-74220488D01*
X149922498Y-74239407D01*
X149788583Y-74294877D01*
X149673586Y-74383116D01*
X149585347Y-74498113D01*
X149529877Y-74632028D01*
X149510958Y-74775738D01*
X133100235Y-74775738D01*
X133100255Y-74150000D01*
X139244750Y-74150000D01*
X139263669Y-74293709D01*
X139295456Y-74370448D01*
X139319139Y-74427625D01*
X139357450Y-74477552D01*
X139407378Y-74542621D01*
X139423837Y-74555250D01*
X139522375Y-74630861D01*
X139617067Y-74670083D01*
X139656290Y-74686330D01*
X139675210Y-74688820D01*
X139800000Y-74705250D01*
X139943709Y-74686330D01*
X140077625Y-74630861D01*
X140192621Y-74542621D01*
X140280861Y-74427625D01*
X140325996Y-74318656D01*
X140365732Y-74272131D01*
X140425227Y-74257847D01*
X140477727Y-74278000D01*
X140525919Y-74314979D01*
X140659834Y-74370448D01*
X140676552Y-74372649D01*
X140803544Y-74389368D01*
X140947253Y-74370448D01*
X141081169Y-74314979D01*
X141196165Y-74226739D01*
X141284405Y-74111743D01*
X141284405Y-74111740D01*
X141288326Y-74106632D01*
X141338750Y-74071976D01*
X141399914Y-74073577D01*
X141448456Y-74110824D01*
X141456764Y-74132462D01*
X141458682Y-74131668D01*
X141467755Y-74153572D01*
X141519139Y-74277625D01*
X141531481Y-74293709D01*
X141607378Y-74392621D01*
X141652997Y-74427625D01*
X141722375Y-74480861D01*
X141817067Y-74520083D01*
X141856290Y-74536330D01*
X141873008Y-74538531D01*
X142000000Y-74555250D01*
X142143709Y-74536330D01*
X142277625Y-74480861D01*
X142392621Y-74392621D01*
X142480861Y-74277625D01*
X142536330Y-74143709D01*
X142555250Y-74000000D01*
X142536330Y-73856291D01*
X142480861Y-73722375D01*
X142430932Y-73657306D01*
X142392621Y-73607378D01*
X142316319Y-73548830D01*
X142277625Y-73519139D01*
X142238401Y-73502892D01*
X142143709Y-73463669D01*
X142016717Y-73446951D01*
X142000000Y-73444750D01*
X141999999Y-73444750D01*
X141856290Y-73463669D01*
X141722375Y-73519139D01*
X141607380Y-73607377D01*
X141515217Y-73727486D01*
X141464792Y-73762141D01*
X141403628Y-73760539D01*
X141355086Y-73723292D01*
X141346781Y-73701654D01*
X141344862Y-73702450D01*
X141308088Y-73613670D01*
X141284405Y-73556493D01*
X141213179Y-73463670D01*
X141196165Y-73441496D01*
X141131096Y-73391568D01*
X141081169Y-73353257D01*
X141041945Y-73337010D01*
X140947253Y-73297787D01*
X140803544Y-73278868D01*
X140659834Y-73297787D01*
X140525919Y-73353257D01*
X140410922Y-73441496D01*
X140322683Y-73556492D01*
X140277547Y-73665461D01*
X140237810Y-73711987D01*
X140178315Y-73726270D01*
X140125816Y-73706117D01*
X140105344Y-73690409D01*
X140077625Y-73669139D01*
X140038401Y-73652892D01*
X139943709Y-73613669D01*
X139800000Y-73594750D01*
X139656290Y-73613669D01*
X139522375Y-73669139D01*
X139407378Y-73757378D01*
X139319139Y-73872375D01*
X139263669Y-74006290D01*
X139244750Y-74150000D01*
X133100255Y-74150000D01*
X133100291Y-73012499D01*
X143544750Y-73012499D01*
X143563669Y-73156209D01*
X143602892Y-73250901D01*
X143619139Y-73290125D01*
X143657450Y-73340052D01*
X143707378Y-73405121D01*
X143754784Y-73441496D01*
X143822375Y-73493361D01*
X143884610Y-73519139D01*
X143956290Y-73548830D01*
X143973008Y-73551031D01*
X144100000Y-73567750D01*
X144243709Y-73548830D01*
X144377625Y-73493361D01*
X144492621Y-73405121D01*
X144580861Y-73290125D01*
X144636330Y-73156209D01*
X144655250Y-73012500D01*
X144636330Y-72868791D01*
X144580861Y-72734875D01*
X144530932Y-72669806D01*
X144492621Y-72619878D01*
X144427552Y-72569950D01*
X144377625Y-72531639D01*
X144338401Y-72515392D01*
X144243709Y-72476169D01*
X144100000Y-72457250D01*
X143956290Y-72476169D01*
X143822375Y-72531639D01*
X143707378Y-72619878D01*
X143619139Y-72734875D01*
X143563669Y-72868790D01*
X143544750Y-73012499D01*
X133100291Y-73012499D01*
X133100343Y-71400499D01*
X142340687Y-71400499D01*
X142359606Y-71544209D01*
X142387841Y-71612374D01*
X142415076Y-71678125D01*
X142453387Y-71728052D01*
X142503315Y-71793121D01*
X142553243Y-71831432D01*
X142618312Y-71881361D01*
X142680839Y-71907260D01*
X142752227Y-71936830D01*
X142771147Y-71939320D01*
X142895937Y-71955750D01*
X143039646Y-71936830D01*
X143152708Y-71889999D01*
X154444750Y-71889999D01*
X154463669Y-72033709D01*
X154502892Y-72128401D01*
X154519139Y-72167625D01*
X154532506Y-72185045D01*
X154607378Y-72282621D01*
X154657306Y-72320932D01*
X154722375Y-72370861D01*
X154817067Y-72410083D01*
X154856290Y-72426330D01*
X154875209Y-72428820D01*
X155000000Y-72445250D01*
X155143709Y-72426330D01*
X155277625Y-72370861D01*
X155392621Y-72282621D01*
X155480861Y-72167625D01*
X155536330Y-72033709D01*
X155555250Y-71890000D01*
X155548930Y-71841994D01*
X165982077Y-71841994D01*
X165999863Y-71888330D01*
X165999999Y-71893510D01*
X165999999Y-72281489D01*
X165982545Y-72335207D01*
X165989333Y-72367143D01*
X165991441Y-72371876D01*
X166000000Y-72412144D01*
X166000000Y-76750000D01*
X166086812Y-76750000D01*
X166145003Y-76768907D01*
X166180967Y-76818407D01*
X166180967Y-76879593D01*
X166178276Y-76886885D01*
X166153669Y-76946289D01*
X166134750Y-77089999D01*
X166153669Y-77233709D01*
X166185614Y-77310830D01*
X166209139Y-77367625D01*
X166247450Y-77417552D01*
X166297378Y-77482621D01*
X166328226Y-77506291D01*
X166412375Y-77570861D01*
X166507067Y-77610083D01*
X166546290Y-77626330D01*
X166563008Y-77628531D01*
X166690000Y-77645250D01*
X166833709Y-77626330D01*
X166967625Y-77570861D01*
X167082621Y-77482621D01*
X167170861Y-77367625D01*
X167226330Y-77233709D01*
X167245250Y-77090000D01*
X167226330Y-76946291D01*
X167226330Y-76946289D01*
X167201724Y-76886885D01*
X167196923Y-76825889D01*
X167228893Y-76773720D01*
X167285421Y-76750305D01*
X167293188Y-76750000D01*
X168249999Y-76750000D01*
X168250000Y-76750000D01*
X168250000Y-71000000D01*
X166000000Y-71000000D01*
X166000000Y-71762855D01*
X165991443Y-71803118D01*
X165989334Y-71807853D01*
X165982077Y-71841994D01*
X155548930Y-71841994D01*
X155536330Y-71746291D01*
X155480861Y-71612375D01*
X155447017Y-71568269D01*
X155423783Y-71537989D01*
X155403359Y-71480313D01*
X155420737Y-71421647D01*
X155423754Y-71417492D01*
X155509276Y-71306040D01*
X155564745Y-71172124D01*
X155574240Y-71100000D01*
X160844750Y-71100000D01*
X160863669Y-71243709D01*
X160889488Y-71306040D01*
X160919139Y-71377625D01*
X160957450Y-71427552D01*
X161007378Y-71492621D01*
X161057306Y-71530932D01*
X161122375Y-71580861D01*
X161198458Y-71612375D01*
X161256290Y-71636330D01*
X161275210Y-71638820D01*
X161400000Y-71655250D01*
X161543709Y-71636330D01*
X161677625Y-71580861D01*
X161792621Y-71492621D01*
X161866458Y-71396394D01*
X161916882Y-71361739D01*
X161978046Y-71363340D01*
X162023542Y-71396395D01*
X162097378Y-71492621D01*
X162147306Y-71530932D01*
X162212375Y-71580861D01*
X162288458Y-71612375D01*
X162346290Y-71636330D01*
X162363008Y-71638531D01*
X162490000Y-71655250D01*
X162633709Y-71636330D01*
X162767625Y-71580861D01*
X162882621Y-71492621D01*
X162970861Y-71377625D01*
X163026330Y-71243709D01*
X163045250Y-71100000D01*
X163026330Y-70956291D01*
X162970861Y-70822375D01*
X162913825Y-70748044D01*
X162882621Y-70707378D01*
X162789330Y-70635794D01*
X162767625Y-70619139D01*
X162706231Y-70593709D01*
X162633709Y-70563669D01*
X162490000Y-70544750D01*
X162346290Y-70563669D01*
X162212375Y-70619139D01*
X162097378Y-70707378D01*
X162023542Y-70803604D01*
X161973118Y-70838260D01*
X161911953Y-70836659D01*
X161866458Y-70803604D01*
X161792621Y-70707378D01*
X161699330Y-70635794D01*
X161677625Y-70619139D01*
X161616231Y-70593709D01*
X161543709Y-70563669D01*
X161416717Y-70546951D01*
X161400000Y-70544750D01*
X161399999Y-70544750D01*
X161256290Y-70563669D01*
X161122375Y-70619139D01*
X161007378Y-70707378D01*
X160919139Y-70822375D01*
X160863669Y-70956290D01*
X160844750Y-71100000D01*
X155574240Y-71100000D01*
X155583665Y-71028415D01*
X155564745Y-70884706D01*
X155563607Y-70881959D01*
X155545507Y-70838260D01*
X155509276Y-70750790D01*
X155459347Y-70685721D01*
X155421036Y-70635793D01*
X155355165Y-70585249D01*
X155306040Y-70547554D01*
X155255172Y-70526484D01*
X155172124Y-70492084D01*
X155045132Y-70475366D01*
X155028415Y-70473165D01*
X155028414Y-70473165D01*
X154884705Y-70492084D01*
X154750790Y-70547554D01*
X154635793Y-70635793D01*
X154547554Y-70750790D01*
X154492084Y-70884705D01*
X154473165Y-71028415D01*
X154492084Y-71172124D01*
X154547553Y-71306039D01*
X154604631Y-71380424D01*
X154625055Y-71438099D01*
X154607677Y-71496765D01*
X154604631Y-71500958D01*
X154519139Y-71612374D01*
X154463669Y-71746290D01*
X154444750Y-71889999D01*
X143152708Y-71889999D01*
X143173562Y-71881361D01*
X143288558Y-71793121D01*
X143376798Y-71678125D01*
X143432267Y-71544209D01*
X143451187Y-71400500D01*
X143432267Y-71256791D01*
X143426848Y-71243709D01*
X143397197Y-71172124D01*
X143376798Y-71122875D01*
X143304316Y-71028415D01*
X143288558Y-71007878D01*
X143221326Y-70956290D01*
X143173562Y-70919639D01*
X143134338Y-70903392D01*
X143039646Y-70864169D01*
X142895937Y-70845250D01*
X142752227Y-70864169D01*
X142618312Y-70919639D01*
X142503315Y-71007878D01*
X142415076Y-71122875D01*
X142359606Y-71256790D01*
X142340687Y-71400499D01*
X133100343Y-71400499D01*
X133100368Y-70604335D01*
X138353585Y-70604335D01*
X138372504Y-70748044D01*
X138395518Y-70803604D01*
X138427974Y-70881960D01*
X138465497Y-70930861D01*
X138516213Y-70996956D01*
X138557212Y-71028415D01*
X138631210Y-71085196D01*
X138722177Y-71122875D01*
X138765125Y-71140665D01*
X138781843Y-71142866D01*
X138908835Y-71159585D01*
X139052544Y-71140665D01*
X139186460Y-71085196D01*
X139301456Y-70996956D01*
X139389696Y-70881960D01*
X139445165Y-70748044D01*
X139464085Y-70604335D01*
X139445165Y-70460626D01*
X139440763Y-70449999D01*
X139396286Y-70342621D01*
X139389696Y-70326710D01*
X139339767Y-70261641D01*
X139307430Y-70219499D01*
X140264750Y-70219499D01*
X140283669Y-70363209D01*
X140311692Y-70430861D01*
X140339139Y-70497125D01*
X140361667Y-70526484D01*
X140427378Y-70612121D01*
X140458230Y-70635794D01*
X140542375Y-70700361D01*
X140637067Y-70739583D01*
X140676290Y-70755830D01*
X140693008Y-70758031D01*
X140820000Y-70774750D01*
X140963709Y-70755830D01*
X141097625Y-70700361D01*
X141212621Y-70612121D01*
X141300861Y-70497125D01*
X141328665Y-70429999D01*
X145214750Y-70429999D01*
X145233669Y-70573709D01*
X145259386Y-70635794D01*
X145289139Y-70707625D01*
X145304485Y-70727624D01*
X145377378Y-70822621D01*
X145427306Y-70860932D01*
X145492375Y-70910861D01*
X145587067Y-70950083D01*
X145626290Y-70966330D01*
X145643008Y-70968531D01*
X145770000Y-70985250D01*
X145913709Y-70966330D01*
X146047625Y-70910861D01*
X146162621Y-70822621D01*
X146250861Y-70707625D01*
X146300702Y-70587294D01*
X146340439Y-70540768D01*
X146399934Y-70526484D01*
X146430046Y-70533713D01*
X146508791Y-70566330D01*
X146652500Y-70585250D01*
X146796209Y-70566330D01*
X146930125Y-70510861D01*
X147009441Y-70449999D01*
X149994750Y-70449999D01*
X150013669Y-70593709D01*
X150052892Y-70688401D01*
X150069139Y-70727625D01*
X150107450Y-70777552D01*
X150157378Y-70842621D01*
X150185462Y-70864170D01*
X150272375Y-70930861D01*
X150358006Y-70966330D01*
X150406290Y-70986330D01*
X150423008Y-70988531D01*
X150550000Y-71005250D01*
X150693709Y-70986330D01*
X150827625Y-70930861D01*
X150942621Y-70842621D01*
X151030861Y-70727625D01*
X151086330Y-70593709D01*
X151105250Y-70450000D01*
X151086506Y-70307625D01*
X151086330Y-70306290D01*
X151053746Y-70227625D01*
X151030861Y-70172375D01*
X150970498Y-70093709D01*
X150942621Y-70057378D01*
X150877552Y-70007450D01*
X150827625Y-69969139D01*
X150779340Y-69949139D01*
X150693709Y-69913669D01*
X150550000Y-69894750D01*
X150406290Y-69913669D01*
X150272375Y-69969139D01*
X150157378Y-70057378D01*
X150069139Y-70172375D01*
X150013669Y-70306290D01*
X149994750Y-70449999D01*
X147009441Y-70449999D01*
X147045121Y-70422621D01*
X147133361Y-70307625D01*
X147188830Y-70173709D01*
X147207750Y-70030000D01*
X147189944Y-69894750D01*
X147188830Y-69886290D01*
X147164221Y-69826879D01*
X147133361Y-69752375D01*
X147059570Y-69656209D01*
X147045121Y-69637378D01*
X146980052Y-69587450D01*
X146930125Y-69549139D01*
X146890901Y-69532892D01*
X146841671Y-69512500D01*
X166894750Y-69512500D01*
X166913669Y-69656209D01*
X166924837Y-69683170D01*
X166969139Y-69790125D01*
X167007450Y-69840052D01*
X167057378Y-69905121D01*
X167105277Y-69941875D01*
X167172375Y-69993361D01*
X167260831Y-70030000D01*
X167306290Y-70048830D01*
X167323008Y-70051031D01*
X167450000Y-70067750D01*
X167593709Y-70048830D01*
X167727625Y-69993361D01*
X167842621Y-69905121D01*
X167930861Y-69790125D01*
X167986330Y-69656209D01*
X168005250Y-69512500D01*
X167986330Y-69368791D01*
X167930861Y-69234875D01*
X167880932Y-69169806D01*
X167842621Y-69119878D01*
X167777552Y-69069950D01*
X167727625Y-69031639D01*
X167688401Y-69015392D01*
X167593709Y-68976169D01*
X167466717Y-68959451D01*
X167450000Y-68957250D01*
X167449999Y-68957250D01*
X167306290Y-68976169D01*
X167172375Y-69031639D01*
X167057378Y-69119878D01*
X166969139Y-69234875D01*
X166913669Y-69368790D01*
X166894750Y-69512500D01*
X146841671Y-69512500D01*
X146796209Y-69493669D01*
X146669217Y-69476951D01*
X146652500Y-69474750D01*
X146652499Y-69474750D01*
X146508790Y-69493669D01*
X146374875Y-69549139D01*
X146259878Y-69637378D01*
X146171639Y-69752374D01*
X146121796Y-69872706D01*
X146082059Y-69919232D01*
X146022564Y-69933515D01*
X145992449Y-69926284D01*
X145941355Y-69905121D01*
X145913708Y-69893669D01*
X145770000Y-69874750D01*
X145626290Y-69893669D01*
X145492375Y-69949139D01*
X145377378Y-70037378D01*
X145289139Y-70152375D01*
X145233669Y-70286290D01*
X145214750Y-70429999D01*
X141328665Y-70429999D01*
X141356330Y-70363209D01*
X141375250Y-70219500D01*
X141356330Y-70075791D01*
X141352999Y-70067750D01*
X141337363Y-70030000D01*
X141300861Y-69941875D01*
X141249354Y-69874750D01*
X141212621Y-69826878D01*
X141147552Y-69776950D01*
X141097625Y-69738639D01*
X141058401Y-69722392D01*
X140963709Y-69683169D01*
X140820000Y-69664250D01*
X140676290Y-69683169D01*
X140542375Y-69738639D01*
X140427378Y-69826878D01*
X140339139Y-69941875D01*
X140283669Y-70075790D01*
X140264750Y-70219499D01*
X139307430Y-70219499D01*
X139301456Y-70211713D01*
X139224124Y-70152375D01*
X139186460Y-70123474D01*
X139147236Y-70107227D01*
X139052544Y-70068004D01*
X138908835Y-70049085D01*
X138765125Y-70068004D01*
X138631210Y-70123474D01*
X138516213Y-70211713D01*
X138427974Y-70326710D01*
X138372504Y-70460625D01*
X138353585Y-70604335D01*
X133100368Y-70604335D01*
X133100389Y-69949999D01*
X133394750Y-69949999D01*
X133413669Y-70093709D01*
X133452892Y-70188401D01*
X133469139Y-70227625D01*
X133507450Y-70277552D01*
X133557378Y-70342621D01*
X133607306Y-70380932D01*
X133672375Y-70430861D01*
X133764104Y-70468856D01*
X133806290Y-70486330D01*
X133825210Y-70488820D01*
X133950000Y-70505250D01*
X134093709Y-70486330D01*
X134227625Y-70430861D01*
X134342621Y-70342621D01*
X134430861Y-70227625D01*
X134486330Y-70093709D01*
X134505250Y-69950000D01*
X134486330Y-69806291D01*
X134430861Y-69672375D01*
X134380932Y-69607306D01*
X134342621Y-69557378D01*
X134234937Y-69474750D01*
X134227625Y-69469139D01*
X134188401Y-69452892D01*
X134093709Y-69413669D01*
X133966717Y-69396951D01*
X133950000Y-69394750D01*
X133949999Y-69394750D01*
X133806290Y-69413669D01*
X133672375Y-69469139D01*
X133557378Y-69557378D01*
X133469139Y-69672375D01*
X133413669Y-69806290D01*
X133394750Y-69949999D01*
X133100389Y-69949999D01*
X133100436Y-68465000D01*
X140229364Y-68465000D01*
X140286570Y-68678495D01*
X140386398Y-68892576D01*
X140521887Y-69086074D01*
X140688925Y-69253112D01*
X140882423Y-69388601D01*
X141096504Y-69488429D01*
X141310000Y-69545634D01*
X141310000Y-68650501D01*
X141417685Y-68699680D01*
X141524237Y-68715000D01*
X141595763Y-68715000D01*
X141702315Y-68699680D01*
X141810000Y-68650501D01*
X141810000Y-69545633D01*
X142023495Y-69488429D01*
X142237576Y-69388601D01*
X142431074Y-69253112D01*
X142598112Y-69086074D01*
X142733601Y-68892576D01*
X142833429Y-68678494D01*
X142839958Y-68654130D01*
X142873281Y-68602815D01*
X142930402Y-68580888D01*
X142989503Y-68596723D01*
X143024206Y-68635624D01*
X143117634Y-68823256D01*
X143246125Y-68993404D01*
X143403699Y-69137053D01*
X143535622Y-69218736D01*
X143584981Y-69249298D01*
X143741681Y-69310003D01*
X143783804Y-69326322D01*
X143993388Y-69365500D01*
X143993390Y-69365500D01*
X144206612Y-69365500D01*
X144416195Y-69326322D01*
X144416198Y-69326321D01*
X144615019Y-69249298D01*
X144796302Y-69137052D01*
X144953872Y-68993407D01*
X145082366Y-68823255D01*
X145177405Y-68632389D01*
X145235756Y-68427310D01*
X145255429Y-68215000D01*
X145235756Y-68002690D01*
X145177405Y-67797611D01*
X145082366Y-67606745D01*
X145082365Y-67606744D01*
X145082365Y-67606743D01*
X144953874Y-67436595D01*
X144796300Y-67292946D01*
X144615021Y-67180703D01*
X144615019Y-67180702D01*
X144572898Y-67164384D01*
X144416195Y-67103677D01*
X144262783Y-67075000D01*
X148369750Y-67075000D01*
X148388669Y-67218709D01*
X148419420Y-67292948D01*
X148444139Y-67352625D01*
X148468135Y-67383897D01*
X148532378Y-67467621D01*
X148582306Y-67505932D01*
X148647375Y-67555861D01*
X148742067Y-67595083D01*
X148781290Y-67611330D01*
X148800210Y-67613820D01*
X148925000Y-67630250D01*
X149068709Y-67611330D01*
X149202625Y-67555861D01*
X149317621Y-67467621D01*
X149405861Y-67352625D01*
X149461330Y-67218709D01*
X149480250Y-67075000D01*
X149461330Y-66931291D01*
X149405861Y-66797375D01*
X149338276Y-66709297D01*
X149317621Y-66682378D01*
X149252552Y-66632450D01*
X149202625Y-66594139D01*
X149150859Y-66572697D01*
X149068709Y-66538669D01*
X148941717Y-66521951D01*
X148925000Y-66519750D01*
X148924999Y-66519750D01*
X148781290Y-66538669D01*
X148647375Y-66594139D01*
X148532378Y-66682378D01*
X148444139Y-66797375D01*
X148388669Y-66931290D01*
X148369750Y-67075000D01*
X144262783Y-67075000D01*
X144206612Y-67064500D01*
X144206610Y-67064500D01*
X143993390Y-67064500D01*
X143993388Y-67064500D01*
X143783804Y-67103677D01*
X143584978Y-67180703D01*
X143403699Y-67292946D01*
X143246125Y-67436595D01*
X143117634Y-67606743D01*
X143024206Y-67794375D01*
X142981343Y-67838037D01*
X142921002Y-67848167D01*
X142866231Y-67820895D01*
X142839958Y-67775870D01*
X142833429Y-67751504D01*
X142733601Y-67537424D01*
X142598112Y-67343925D01*
X142431074Y-67176887D01*
X142237576Y-67041398D01*
X142023491Y-66941568D01*
X141992301Y-66933211D01*
X141940987Y-66899887D01*
X141919061Y-66842766D01*
X141934897Y-66783665D01*
X141982162Y-66745270D01*
X142075019Y-66709298D01*
X142256302Y-66597052D01*
X142289240Y-66567025D01*
X142949500Y-66567025D01*
X142949501Y-66569864D01*
X142949828Y-66572687D01*
X142949829Y-66572697D01*
X142951961Y-66591081D01*
X142952415Y-66594991D01*
X142972451Y-66640368D01*
X142997793Y-66697764D01*
X142997794Y-66697765D01*
X143077235Y-66777206D01*
X143180009Y-66822585D01*
X143205135Y-66825500D01*
X144994864Y-66825499D01*
X145019991Y-66822585D01*
X145122765Y-66777206D01*
X145202206Y-66697765D01*
X145247585Y-66594991D01*
X145250500Y-66569865D01*
X145250500Y-66512500D01*
X167444340Y-66512500D01*
X167464936Y-66747905D01*
X167526098Y-66976167D01*
X167625963Y-67190326D01*
X167733513Y-67343925D01*
X167761505Y-67383901D01*
X167928599Y-67550995D01*
X168122171Y-67686535D01*
X168122172Y-67686535D01*
X168122173Y-67686536D01*
X168336332Y-67786401D01*
X168336333Y-67786401D01*
X168336337Y-67786403D01*
X168564592Y-67847563D01*
X168741034Y-67863000D01*
X168743203Y-67863000D01*
X168856797Y-67863000D01*
X168858966Y-67863000D01*
X169035408Y-67847563D01*
X169263663Y-67786403D01*
X169477829Y-67686535D01*
X169671401Y-67550995D01*
X169838495Y-67383901D01*
X169974035Y-67190330D01*
X170073903Y-66976163D01*
X170135063Y-66747908D01*
X170155659Y-66512500D01*
X170135063Y-66277092D01*
X170073903Y-66048837D01*
X170010003Y-65911805D01*
X169974036Y-65834673D01*
X169862232Y-65675000D01*
X169838495Y-65641099D01*
X169671401Y-65474005D01*
X169655241Y-65462690D01*
X169477826Y-65338463D01*
X169263667Y-65238598D01*
X169035405Y-65177436D01*
X168861129Y-65162189D01*
X168861123Y-65162188D01*
X168858966Y-65162000D01*
X168741034Y-65162000D01*
X168738877Y-65162188D01*
X168738870Y-65162189D01*
X168564594Y-65177436D01*
X168336332Y-65238598D01*
X168122173Y-65338463D01*
X167928602Y-65474002D01*
X167761502Y-65641102D01*
X167625963Y-65834672D01*
X167526098Y-66048832D01*
X167464936Y-66277094D01*
X167444340Y-66512500D01*
X145250500Y-66512500D01*
X145250499Y-64780136D01*
X145247585Y-64755009D01*
X145202206Y-64652235D01*
X145122765Y-64572794D01*
X145122764Y-64572794D01*
X145122764Y-64572793D01*
X145019989Y-64527414D01*
X144997714Y-64524830D01*
X144997704Y-64524829D01*
X144994865Y-64524500D01*
X144992000Y-64524500D01*
X143207991Y-64524500D01*
X143207973Y-64524500D01*
X143205136Y-64524501D01*
X143202313Y-64524828D01*
X143202302Y-64524829D01*
X143180009Y-64527415D01*
X143077235Y-64572793D01*
X142997793Y-64652235D01*
X142952414Y-64755010D01*
X142949830Y-64777285D01*
X142949829Y-64777296D01*
X142949500Y-64780135D01*
X142949500Y-64782991D01*
X142949500Y-64782999D01*
X142949500Y-66567008D01*
X142949500Y-66567025D01*
X142289240Y-66567025D01*
X142413872Y-66453407D01*
X142542366Y-66283255D01*
X142637405Y-66092389D01*
X142695756Y-65887310D01*
X142715429Y-65675000D01*
X142695756Y-65462690D01*
X142637405Y-65257611D01*
X142542366Y-65066745D01*
X142542365Y-65066744D01*
X142542365Y-65066743D01*
X142413874Y-64896595D01*
X142256300Y-64752946D01*
X142075021Y-64640703D01*
X142075019Y-64640702D01*
X142032898Y-64624384D01*
X141876195Y-64563677D01*
X141666612Y-64524500D01*
X141666610Y-64524500D01*
X141453390Y-64524500D01*
X141453388Y-64524500D01*
X141243804Y-64563677D01*
X141044978Y-64640703D01*
X140863699Y-64752946D01*
X140706125Y-64896595D01*
X140577634Y-65066743D01*
X140492062Y-65238598D01*
X140482595Y-65257611D01*
X140424244Y-65462690D01*
X140404571Y-65675000D01*
X140424244Y-65887310D01*
X140470203Y-66048837D01*
X140482596Y-66092391D01*
X140577634Y-66283256D01*
X140706125Y-66453404D01*
X140706127Y-66453406D01*
X140706128Y-66453407D01*
X140773990Y-66515272D01*
X140863699Y-66597053D01*
X140995622Y-66678736D01*
X141044981Y-66709298D01*
X141137837Y-66745270D01*
X141185268Y-66783921D01*
X141200922Y-66843070D01*
X141178819Y-66900124D01*
X141127698Y-66933211D01*
X141096509Y-66941568D01*
X140882424Y-67041398D01*
X140688925Y-67176887D01*
X140521887Y-67343925D01*
X140386398Y-67537424D01*
X140286570Y-67751505D01*
X140229364Y-67965000D01*
X141126314Y-67965000D01*
X141100507Y-68005156D01*
X141060000Y-68143111D01*
X141060000Y-68286889D01*
X141100507Y-68424844D01*
X141126314Y-68465000D01*
X140229364Y-68465000D01*
X133100436Y-68465000D01*
X133100497Y-66571624D01*
X133100500Y-66571608D01*
X133100500Y-66515273D01*
X133100578Y-66512499D01*
X134444340Y-66512499D01*
X134464936Y-66747905D01*
X134526098Y-66976167D01*
X134625963Y-67190326D01*
X134733513Y-67343925D01*
X134761505Y-67383901D01*
X134928599Y-67550995D01*
X135122171Y-67686535D01*
X135122172Y-67686535D01*
X135122173Y-67686536D01*
X135336332Y-67786401D01*
X135336333Y-67786401D01*
X135336337Y-67786403D01*
X135564592Y-67847563D01*
X135741034Y-67863000D01*
X135743203Y-67863000D01*
X135856797Y-67863000D01*
X135858966Y-67863000D01*
X136035408Y-67847563D01*
X136263663Y-67786403D01*
X136477829Y-67686535D01*
X136671401Y-67550995D01*
X136838495Y-67383901D01*
X136974035Y-67190330D01*
X137073903Y-66976163D01*
X137135063Y-66747908D01*
X137155659Y-66512500D01*
X137135063Y-66277092D01*
X137073903Y-66048837D01*
X137010003Y-65911805D01*
X136974036Y-65834673D01*
X136862232Y-65675000D01*
X136838495Y-65641099D01*
X136671401Y-65474005D01*
X136655241Y-65462690D01*
X136477826Y-65338463D01*
X136263667Y-65238598D01*
X136035405Y-65177436D01*
X135861129Y-65162189D01*
X135861123Y-65162188D01*
X135858966Y-65162000D01*
X135741034Y-65162000D01*
X135738877Y-65162188D01*
X135738870Y-65162189D01*
X135564594Y-65177436D01*
X135336332Y-65238598D01*
X135122173Y-65338463D01*
X134928602Y-65474002D01*
X134761502Y-65641102D01*
X134625963Y-65834672D01*
X134526098Y-66048832D01*
X134464936Y-66277094D01*
X134444340Y-66512499D01*
X133100578Y-66512499D01*
X133100656Y-66509722D01*
X133117162Y-66215802D01*
X133118405Y-66204770D01*
X133137499Y-66092391D01*
X133167253Y-65917271D01*
X133169714Y-65906485D01*
X133250451Y-65626242D01*
X133254111Y-65615783D01*
X133365711Y-65346358D01*
X133370525Y-65336363D01*
X133375101Y-65328084D01*
X133511583Y-65081136D01*
X133517479Y-65071753D01*
X133686230Y-64833921D01*
X133693149Y-64825245D01*
X133887475Y-64607793D01*
X133895293Y-64599975D01*
X134112748Y-64405646D01*
X134121424Y-64398728D01*
X134359253Y-64229979D01*
X134368636Y-64224083D01*
X134623869Y-64083022D01*
X134633858Y-64078211D01*
X134903283Y-63966611D01*
X134913742Y-63962951D01*
X135193985Y-63882214D01*
X135204771Y-63879753D01*
X135492277Y-63830904D01*
X135503296Y-63829662D01*
X135797222Y-63813155D01*
X135802773Y-63813000D01*
X135847595Y-63813000D01*
X168752405Y-63813000D01*
X168797227Y-63813000D01*
X168802777Y-63813155D01*
G37*
%TD.AperFunction*%
%TD*%
M02*
