%TF.GenerationSoftware,KiCad,Pcbnew,7.0.2-0*%
%TF.CreationDate,2023-12-01T11:24:17-06:00*%
%TF.ProjectId,Flight Computer,466c6967-6874-4204-936f-6d7075746572,1.1*%
%TF.SameCoordinates,Original*%
%TF.FileFunction,Copper,L2,Inr*%
%TF.FilePolarity,Positive*%
%FSLAX46Y46*%
G04 Gerber Fmt 4.6, Leading zero omitted, Abs format (unit mm)*
G04 Created by KiCad (PCBNEW 7.0.2-0) date 2023-12-01 11:24:17*
%MOMM*%
%LPD*%
G01*
G04 APERTURE LIST*
G04 Aperture macros list*
%AMRoundRect*
0 Rectangle with rounded corners*
0 $1 Rounding radius*
0 $2 $3 $4 $5 $6 $7 $8 $9 X,Y pos of 4 corners*
0 Add a 4 corners polygon primitive as box body*
4,1,4,$2,$3,$4,$5,$6,$7,$8,$9,$2,$3,0*
0 Add four circle primitives for the rounded corners*
1,1,$1+$1,$2,$3*
1,1,$1+$1,$4,$5*
1,1,$1+$1,$6,$7*
1,1,$1+$1,$8,$9*
0 Add four rect primitives between the rounded corners*
20,1,$1+$1,$2,$3,$4,$5,0*
20,1,$1+$1,$4,$5,$6,$7,0*
20,1,$1+$1,$6,$7,$8,$9,0*
20,1,$1+$1,$8,$9,$2,$3,0*%
G04 Aperture macros list end*
%TA.AperFunction,ComponentPad*%
%ADD10RoundRect,0.200000X0.450000X-0.200000X0.450000X0.200000X-0.450000X0.200000X-0.450000X-0.200000X0*%
%TD*%
%TA.AperFunction,ComponentPad*%
%ADD11O,1.300000X0.800000*%
%TD*%
%TA.AperFunction,ComponentPad*%
%ADD12O,2.100000X1.000000*%
%TD*%
%TA.AperFunction,ComponentPad*%
%ADD13O,1.600000X1.000000*%
%TD*%
%TA.AperFunction,ComponentPad*%
%ADD14RoundRect,0.200000X0.200000X0.450000X-0.200000X0.450000X-0.200000X-0.450000X0.200000X-0.450000X0*%
%TD*%
%TA.AperFunction,ComponentPad*%
%ADD15O,0.800000X1.300000*%
%TD*%
%TA.AperFunction,ComponentPad*%
%ADD16RoundRect,0.200000X-0.450000X0.200000X-0.450000X-0.200000X0.450000X-0.200000X0.450000X0.200000X0*%
%TD*%
%TA.AperFunction,ComponentPad*%
%ADD17RoundRect,0.250000X-0.625000X0.350000X-0.625000X-0.350000X0.625000X-0.350000X0.625000X0.350000X0*%
%TD*%
%TA.AperFunction,ComponentPad*%
%ADD18O,1.750000X1.200000*%
%TD*%
%TA.AperFunction,ComponentPad*%
%ADD19C,2.000000*%
%TD*%
%TA.AperFunction,ComponentPad*%
%ADD20R,2.000000X2.000000*%
%TD*%
%TA.AperFunction,ViaPad*%
%ADD21C,0.500000*%
%TD*%
%TA.AperFunction,ViaPad*%
%ADD22C,0.700000*%
%TD*%
G04 APERTURE END LIST*
D10*
%TO.N,/Connectors and Power Supply/Vin_combined*%
%TO.C,J8*%
X118270000Y-54690000D03*
D11*
%TO.N,/UART3 RX*%
X118270000Y-53440000D03*
%TO.N,/UART3 TX*%
X118270000Y-52190000D03*
%TO.N,GND*%
X118270000Y-50940000D03*
%TD*%
D12*
%TO.N,Net-(J7-SHIELD)*%
%TO.C,J7*%
X116520000Y-46640000D03*
D13*
X120700000Y-46640000D03*
D12*
X116520000Y-38000000D03*
D13*
X120700000Y-38000000D03*
%TD*%
D14*
%TO.N,+3.3V*%
%TO.C,J3*%
X100000000Y-23200000D03*
D15*
%TO.N,/NRST*%
X98750000Y-23200000D03*
%TO.N,/SWCLK*%
X97500000Y-23200000D03*
%TO.N,/SWDIO*%
X96250000Y-23200000D03*
%TO.N,GND*%
X95000000Y-23200000D03*
%TD*%
D10*
%TO.N,+3.3V*%
%TO.C,J9*%
X118300000Y-30857500D03*
D11*
%TO.N,/I2C2 SDA*%
X118300000Y-29607500D03*
%TO.N,/I2C2 SCL*%
X118300000Y-28357500D03*
%TO.N,GND*%
X118300000Y-27107500D03*
%TD*%
D16*
%TO.N,+3.3V*%
%TO.C,J5*%
X88760000Y-32840000D03*
D11*
%TO.N,/SPI2 MISO*%
X88760000Y-34090000D03*
%TO.N,/SPI2 MOSI*%
X88760000Y-35340000D03*
%TO.N,/SPI2 SCK*%
X88760000Y-36590000D03*
%TO.N,GND*%
X88760000Y-37840000D03*
%TD*%
D17*
%TO.N,GND*%
%TO.C,J4*%
X113800000Y-57900000D03*
D18*
%TO.N,/Main battery connector*%
X113800000Y-59900000D03*
%TD*%
D19*
%TO.N,+12V*%
%TO.C,J2*%
X95200000Y-95920000D03*
X100200000Y-95920000D03*
%TO.N,/Pyrotechnic Channels/Pyro Channel A*%
X95200000Y-92420000D03*
X100200000Y-92420000D03*
%TO.N,+12V*%
X95200000Y-88920000D03*
X100200000Y-88920000D03*
%TO.N,/Pyrotechnic Channels/Pyro Channel B*%
X95200000Y-85420000D03*
X100200000Y-85420000D03*
%TO.N,+12V*%
X95200000Y-81920000D03*
X100200000Y-81920000D03*
%TO.N,/Pyrotechnic Channels/Pyro Channel C*%
X95200000Y-78420000D03*
X100200000Y-78420000D03*
%TO.N,+12V*%
X95200000Y-74920000D03*
X100200000Y-74920000D03*
%TO.N,/Pyrotechnic Channels/Pyro Channel D*%
X95200000Y-71420000D03*
X100200000Y-71420000D03*
%TD*%
D20*
%TO.N,+3.3V*%
%TO.C,BZ1*%
X103500000Y-64590000D03*
D19*
%TO.N,Net-(BZ1-+)*%
X103500000Y-59590000D03*
%TD*%
%TO.N,/Pyrotechnic Channels/Pyro Channel E*%
%TO.C,J1*%
X111790000Y-71420000D03*
X106790000Y-71420000D03*
%TO.N,+12V*%
X111790000Y-74920000D03*
X106790000Y-74920000D03*
%TO.N,/Pyrotechnic Channels/Pyro Channel F*%
X111790000Y-78420000D03*
X106790000Y-78420000D03*
%TO.N,+12V*%
X111790000Y-81920000D03*
X106790000Y-81920000D03*
%TO.N,/Main battery connector*%
X111790000Y-85420000D03*
X106790000Y-85420000D03*
%TO.N,/Main battery in*%
X111790000Y-88920000D03*
X106790000Y-88920000D03*
%TO.N,+12V*%
X111790000Y-92420000D03*
X106790000Y-92420000D03*
%TO.N,GND*%
X111790000Y-95920000D03*
X106790000Y-95920000D03*
%TD*%
D21*
%TO.N,+3.3V*%
X87170000Y-51820000D03*
X110140000Y-61160000D03*
X85880000Y-55570000D03*
X86010000Y-53430000D03*
X113730000Y-68480000D03*
X110160000Y-63330000D03*
X88859943Y-23196569D03*
X101750000Y-25470000D03*
X90080000Y-42560000D03*
X89550000Y-44437500D03*
X89980000Y-23100000D03*
X93900000Y-31720000D03*
X108910000Y-63330000D03*
X85210000Y-26390000D03*
X117830000Y-21480000D03*
X89800000Y-24200000D03*
X94776731Y-55693270D03*
X106512500Y-55020000D03*
X109420000Y-37920000D03*
X110780000Y-36320000D03*
X92020000Y-25239500D03*
X92460000Y-23120000D03*
X113515378Y-44524622D03*
X85250000Y-49232500D03*
X107710000Y-63330000D03*
X107690000Y-61160000D03*
X101674500Y-36201000D03*
X106560000Y-63330000D03*
X118300000Y-32160000D03*
X108840000Y-66860000D03*
X117950500Y-34132500D03*
X118280000Y-25370000D03*
X108890000Y-61160000D03*
X91210000Y-38170000D03*
X101266208Y-29795738D03*
X91250000Y-23150000D03*
%TO.N,GND*%
X88000000Y-48732500D03*
X92980000Y-25239500D03*
X117020000Y-77540000D03*
X89080000Y-91670000D03*
X90730000Y-74760000D03*
X84800000Y-48032500D03*
X101720000Y-23710000D03*
X108050000Y-58550000D03*
X95160000Y-27110000D03*
X114430000Y-36620000D03*
X86180000Y-40500000D03*
X109860000Y-66870000D03*
X100700000Y-28620000D03*
X114850000Y-62300000D03*
X90290000Y-92740000D03*
X109180000Y-36920000D03*
X110750000Y-26100000D03*
X85550000Y-73880000D03*
X91210000Y-35180000D03*
X102200000Y-75420000D03*
X117100000Y-72070000D03*
X89550000Y-43470000D03*
X89810000Y-25130000D03*
X113900000Y-62300000D03*
X85560000Y-91120000D03*
X103350000Y-33007998D03*
X85180000Y-24260000D03*
X97640000Y-62600000D03*
X117920000Y-79300000D03*
X98900000Y-47882500D03*
X114460000Y-52200000D03*
X93950000Y-55670000D03*
X89360000Y-19340000D03*
X121450000Y-73870000D03*
X112990000Y-48450000D03*
X86810000Y-26700000D03*
X104800000Y-75470000D03*
X84820000Y-51820000D03*
X109060000Y-45920000D03*
X89090000Y-93240000D03*
X89450000Y-41310000D03*
X89040000Y-87230000D03*
X102740000Y-57850000D03*
X90270000Y-86710000D03*
X114350000Y-39070000D03*
X117870000Y-23040000D03*
X90650000Y-59370000D03*
X92667869Y-60037869D03*
X121450000Y-79630000D03*
X113600000Y-65850000D03*
X102500000Y-85400000D03*
X89130000Y-73680000D03*
X117720000Y-48140000D03*
X89050000Y-75310000D03*
X100000000Y-36220000D03*
X89050000Y-85680000D03*
X117055000Y-34670000D03*
X121805000Y-34620000D03*
X102200000Y-80500000D03*
X104400419Y-55020000D03*
X115750000Y-62300000D03*
X85550000Y-79630000D03*
X98840000Y-51060000D03*
X90410000Y-80700000D03*
X101510000Y-27870000D03*
X92804977Y-31765023D03*
X90610000Y-19340000D03*
X108760000Y-52432500D03*
X109050000Y-44950000D03*
X104800000Y-80600000D03*
X118200000Y-77900000D03*
X90320000Y-70800000D03*
X117920000Y-73280000D03*
X88740000Y-81100000D03*
X112950000Y-62300000D03*
X89130000Y-79690000D03*
X118410000Y-71950000D03*
X91860000Y-19370000D03*
X114950000Y-46200000D03*
X116810000Y-76550000D03*
X85550000Y-85380000D03*
X94350000Y-58470000D03*
X110210000Y-39990000D03*
X118030000Y-82640000D03*
X86530000Y-41652500D03*
X111250000Y-39270000D03*
X92657760Y-28292825D03*
%TO.N,/SWDIO*%
X93340000Y-41220000D03*
%TO.N,/SWCLK*%
X93340000Y-40350000D03*
%TO.N,/NRST*%
X93430000Y-42980000D03*
%TO.N,/UART3 TX*%
X116000000Y-54060000D03*
%TO.N,/I2C2 SDA*%
X104550000Y-49580000D03*
%TO.N,/I2C2 SCL*%
X103840000Y-50390000D03*
%TO.N,/SDMMC Data 2*%
X106228415Y-26048415D03*
X107360000Y-31020000D03*
%TO.N,/SDMMC Data 3*%
X106370000Y-30720000D03*
X106200000Y-26910000D03*
%TO.N,/SDMMC Command*%
X102200000Y-33520000D03*
%TO.N,/SDMMC Clock*%
X105200000Y-34320000D03*
%TO.N,/SDMMC Data 0*%
X112600000Y-26120000D03*
X105437002Y-44105497D03*
%TO.N,/SDMMC Data 1*%
X105710000Y-42612500D03*
X113690000Y-26120000D03*
%TO.N,/SD Card Detect*%
X111070000Y-31842500D03*
X104360500Y-31640000D03*
%TO.N,/Pyro Channel A Trigger*%
X95701831Y-58897951D03*
X88590000Y-88230000D03*
%TO.N,/Pyro Channel B Trigger*%
X96725000Y-58615000D03*
X88510000Y-83390000D03*
%TO.N,/Pyro Channel C Trigger*%
X96469395Y-59617434D03*
X88760000Y-77400000D03*
%TO.N,/Pyro Channel E Trigger*%
X114830000Y-74450000D03*
X102700000Y-54640000D03*
%TO.N,/Pyro Channel F Trigger*%
X117060000Y-80980000D03*
X103390000Y-56020000D03*
%TO.N,/Pyro Channel D Trigger*%
X97505000Y-59325000D03*
X89070000Y-71280000D03*
%TO.N,/Pyro A Continuity Voltage*%
X102200000Y-68000000D03*
X93294710Y-50582500D03*
%TO.N,/Pyro B Continuity Voltage*%
X101350000Y-67900000D03*
X93500324Y-51449676D03*
%TO.N,/Pyro C Continuity Voltage*%
X92468412Y-52179334D03*
X101350000Y-68700000D03*
%TO.N,/Pyro E Continuity Voltage*%
X96589693Y-51908998D03*
X102900000Y-67250000D03*
%TO.N,/Pyro F Continuity Voltage*%
X102050000Y-67150000D03*
X95098967Y-51998603D03*
%TO.N,/Pyro D Continuity Voltage*%
X100500000Y-68650000D03*
X93107954Y-53562045D03*
%TO.N,/Ignition Battery Voltage*%
X104230000Y-81870000D03*
X97658242Y-51908000D03*
%TO.N,/High G Interrupt*%
X97225500Y-39170000D03*
X96970000Y-25450000D03*
%TO.N,/Chip Select Low G Gyro*%
X96200000Y-35997500D03*
X94095937Y-26420500D03*
%TO.N,/SPI1 SCK*%
X95300000Y-28032500D03*
X96370000Y-34020000D03*
X98604495Y-32020000D03*
%TO.N,/SPI1 MOSI*%
X96450000Y-31794500D03*
X96350000Y-33082000D03*
%TO.N,/SPI1 MISO*%
X98150000Y-33692454D03*
%TO.N,/Low G Gyro Interrupt*%
X95700000Y-36690000D03*
X93200000Y-29020000D03*
%TO.N,/Chip Select Low G Accel*%
X95380000Y-39170000D03*
X92003544Y-28854118D03*
%TO.N,/Low G Accel Interrupt*%
X94437076Y-39167384D03*
X91000000Y-29170000D03*
%TO.N,/Altimeter Interrupt*%
X88910000Y-39120000D03*
X88745000Y-27675000D03*
%TO.N,/QSPI Clock*%
X92925000Y-58645000D03*
X90325000Y-56045000D03*
%TO.N,/GPS Reset*%
X101947286Y-40045072D03*
%TO.N,/GPS External Interrupt*%
X104000000Y-40050000D03*
%TO.N,/UART2 TX*%
X98750000Y-43332500D03*
%TO.N,/UART2 RX*%
X99299665Y-42039665D03*
%TO.N,/USB 5V in*%
X118500000Y-44090000D03*
X114340000Y-40260000D03*
%TO.N,/Chip Select Altimeter*%
X88670000Y-26760000D03*
X89530000Y-39747500D03*
X91199500Y-24000000D03*
%TO.N,/Chip Select High G Accel*%
X98173946Y-39169500D03*
X97852500Y-25050000D03*
%TO.N,/SPI2 MISO*%
X93930000Y-43610000D03*
%TO.N,/SPI2 MOSI*%
X92790000Y-38680000D03*
X94603872Y-42876128D03*
%TO.N,/SPI2 SCK*%
X93420000Y-42120000D03*
%TO.N,/Pyro A Continuity LED*%
X101380000Y-47900000D03*
X93420000Y-48510000D03*
X104610000Y-44980000D03*
X86250000Y-63350000D03*
%TO.N,/Pyro B Continuity LED*%
X87100000Y-63350000D03*
X94149198Y-49135593D03*
X102320000Y-47710000D03*
X105310000Y-45590000D03*
%TO.N,/Pyro C Continuity LED*%
X87100000Y-64200000D03*
X103230000Y-47510000D03*
X105060000Y-46370000D03*
X93400000Y-49610000D03*
%TO.N,/Pyro D Continuity LED*%
X94150789Y-50083030D03*
X103280000Y-48310000D03*
X105120000Y-47230000D03*
X87900000Y-64200000D03*
%TO.N,/Pyro E Continuity LED*%
X111198873Y-51378873D03*
X118200000Y-71050000D03*
%TO.N,/Pyro F Continuity LED*%
X110675000Y-52525000D03*
X118040000Y-76960000D03*
D22*
%TO.N,/Connectors and Power Supply/Vin_combined*%
X114020000Y-87080000D03*
X118150000Y-69950000D03*
%TD*%
%TA.AperFunction,Conductor*%
%TO.N,GND*%
G36*
X120002777Y-18833155D02*
G01*
X120296701Y-18849662D01*
X120307724Y-18850904D01*
X120595224Y-18899752D01*
X120606018Y-18902215D01*
X120886251Y-18982949D01*
X120896722Y-18986613D01*
X121166134Y-19098208D01*
X121176136Y-19103025D01*
X121431354Y-19244078D01*
X121440755Y-19249985D01*
X121678575Y-19418728D01*
X121687254Y-19425649D01*
X121717388Y-19452578D01*
X121904697Y-19619967D01*
X121912532Y-19627802D01*
X122006053Y-19732452D01*
X122106850Y-19845245D01*
X122113771Y-19853924D01*
X122282514Y-20091744D01*
X122288421Y-20101145D01*
X122429474Y-20356363D01*
X122434291Y-20366365D01*
X122545884Y-20635773D01*
X122549551Y-20646252D01*
X122556205Y-20669347D01*
X122629785Y-20924750D01*
X122630280Y-20926466D01*
X122632750Y-20937290D01*
X122681594Y-21224770D01*
X122682837Y-21235802D01*
X122699344Y-21529722D01*
X122699500Y-21535273D01*
X122699500Y-95484905D01*
X122699499Y-95529728D01*
X122699343Y-95535277D01*
X122682837Y-95829197D01*
X122681594Y-95840229D01*
X122632750Y-96127709D01*
X122630280Y-96138533D01*
X122549551Y-96418747D01*
X122545884Y-96429226D01*
X122434291Y-96698634D01*
X122429474Y-96708636D01*
X122288421Y-96963854D01*
X122282514Y-96973255D01*
X122113771Y-97211075D01*
X122106850Y-97219754D01*
X121912540Y-97437189D01*
X121904689Y-97445040D01*
X121687254Y-97639350D01*
X121678575Y-97646271D01*
X121440755Y-97815014D01*
X121431354Y-97820921D01*
X121176136Y-97961974D01*
X121166134Y-97966791D01*
X120896726Y-98078384D01*
X120886247Y-98082051D01*
X120606033Y-98162780D01*
X120595209Y-98165250D01*
X120307729Y-98214094D01*
X120296697Y-98215337D01*
X120002778Y-98231844D01*
X119997227Y-98232000D01*
X87013894Y-98232000D01*
X87004645Y-98231567D01*
X86709649Y-98203886D01*
X86698941Y-98202287D01*
X86407123Y-98142227D01*
X86396652Y-98139467D01*
X86113150Y-98047901D01*
X86103044Y-98044015D01*
X85831227Y-97922031D01*
X85821606Y-97917064D01*
X85647937Y-97815014D01*
X85564738Y-97766125D01*
X85555733Y-97760149D01*
X85316876Y-97582056D01*
X85308568Y-97575123D01*
X85090595Y-97372014D01*
X85083089Y-97364211D01*
X85055804Y-97332548D01*
X84888598Y-97138511D01*
X84882005Y-97129956D01*
X84713317Y-96884353D01*
X84707688Y-96875111D01*
X84700814Y-96862298D01*
X84566844Y-96612581D01*
X84562261Y-96602789D01*
X84450921Y-96326426D01*
X84447436Y-96316194D01*
X84366940Y-96029314D01*
X84364595Y-96018770D01*
X84315912Y-95724832D01*
X84314732Y-95714097D01*
X84303009Y-95500000D01*
X84844700Y-95500000D01*
X84863866Y-95731305D01*
X84911650Y-95919999D01*
X84920844Y-95956304D01*
X85014073Y-96168843D01*
X85014076Y-96168849D01*
X85141021Y-96363153D01*
X85298216Y-96533913D01*
X85481374Y-96676470D01*
X85685497Y-96786936D01*
X85905019Y-96862298D01*
X86133951Y-96900500D01*
X86133953Y-96900500D01*
X86366047Y-96900500D01*
X86366049Y-96900500D01*
X86594981Y-96862298D01*
X86814503Y-96786936D01*
X87018626Y-96676470D01*
X87201784Y-96533913D01*
X87358979Y-96363153D01*
X87485924Y-96168849D01*
X87579157Y-95956300D01*
X87588350Y-95919999D01*
X93894531Y-95919999D01*
X93914364Y-96146689D01*
X93973262Y-96366500D01*
X94069430Y-96572731D01*
X94069431Y-96572733D01*
X94069432Y-96572734D01*
X94199953Y-96759139D01*
X94360861Y-96920047D01*
X94547266Y-97050568D01*
X94547267Y-97050568D01*
X94547268Y-97050569D01*
X94753499Y-97146737D01*
X94753500Y-97146737D01*
X94753504Y-97146739D01*
X94973308Y-97205635D01*
X95124435Y-97218857D01*
X95199999Y-97225468D01*
X95199999Y-97225467D01*
X95200000Y-97225468D01*
X95426692Y-97205635D01*
X95646496Y-97146739D01*
X95852734Y-97050568D01*
X96039139Y-96920047D01*
X96200047Y-96759139D01*
X96330568Y-96572734D01*
X96426739Y-96366496D01*
X96485635Y-96146692D01*
X96505468Y-95920000D01*
X96505468Y-95919999D01*
X98894531Y-95919999D01*
X98914364Y-96146689D01*
X98973262Y-96366500D01*
X99069430Y-96572731D01*
X99069431Y-96572733D01*
X99069432Y-96572734D01*
X99199953Y-96759139D01*
X99360861Y-96920047D01*
X99547266Y-97050568D01*
X99547267Y-97050568D01*
X99547268Y-97050569D01*
X99753499Y-97146737D01*
X99753500Y-97146737D01*
X99753504Y-97146739D01*
X99973308Y-97205635D01*
X100124436Y-97218857D01*
X100199999Y-97225468D01*
X100199999Y-97225467D01*
X100200000Y-97225468D01*
X100426692Y-97205635D01*
X100646496Y-97146739D01*
X100852734Y-97050568D01*
X101039139Y-96920047D01*
X101200047Y-96759139D01*
X101330568Y-96572734D01*
X101426739Y-96366496D01*
X101485635Y-96146692D01*
X101505468Y-95920000D01*
X101505468Y-95919999D01*
X105284859Y-95919999D01*
X105305387Y-96167736D01*
X105366411Y-96408716D01*
X105466270Y-96636371D01*
X105566563Y-96789881D01*
X106264070Y-96092373D01*
X106266884Y-96105915D01*
X106336442Y-96240156D01*
X106439638Y-96350652D01*
X106568819Y-96429209D01*
X106620002Y-96443550D01*
X105919942Y-97143610D01*
X105966767Y-97180055D01*
X106185390Y-97298367D01*
X106420508Y-97379083D01*
X106665708Y-97420000D01*
X106914292Y-97420000D01*
X107159491Y-97379083D01*
X107394609Y-97298367D01*
X107613232Y-97180055D01*
X107660056Y-97143610D01*
X106961568Y-96445121D01*
X107078458Y-96394349D01*
X107195739Y-96298934D01*
X107282928Y-96175415D01*
X107313355Y-96089801D01*
X108013435Y-96789881D01*
X108113729Y-96636371D01*
X108213588Y-96408716D01*
X108274612Y-96167736D01*
X108295140Y-95919999D01*
X110284859Y-95919999D01*
X110305387Y-96167736D01*
X110366411Y-96408716D01*
X110466270Y-96636371D01*
X110566563Y-96789881D01*
X111264070Y-96092373D01*
X111266884Y-96105915D01*
X111336442Y-96240156D01*
X111439638Y-96350652D01*
X111568819Y-96429209D01*
X111620002Y-96443550D01*
X110919942Y-97143610D01*
X110966767Y-97180055D01*
X111185390Y-97298367D01*
X111420508Y-97379083D01*
X111665708Y-97420000D01*
X111914292Y-97420000D01*
X112159491Y-97379083D01*
X112394609Y-97298367D01*
X112613232Y-97180055D01*
X112660056Y-97143610D01*
X111961568Y-96445121D01*
X112078458Y-96394349D01*
X112195739Y-96298934D01*
X112282928Y-96175415D01*
X112313355Y-96089801D01*
X113013435Y-96789881D01*
X113113729Y-96636371D01*
X113213588Y-96408716D01*
X113274612Y-96167736D01*
X113295140Y-95920000D01*
X113274612Y-95672263D01*
X113230989Y-95500000D01*
X119344700Y-95500000D01*
X119363866Y-95731305D01*
X119411650Y-95919999D01*
X119420844Y-95956304D01*
X119514073Y-96168843D01*
X119514076Y-96168849D01*
X119641021Y-96363153D01*
X119798216Y-96533913D01*
X119981374Y-96676470D01*
X120185497Y-96786936D01*
X120405019Y-96862298D01*
X120633951Y-96900500D01*
X120633953Y-96900500D01*
X120866047Y-96900500D01*
X120866049Y-96900500D01*
X121094981Y-96862298D01*
X121314503Y-96786936D01*
X121518626Y-96676470D01*
X121701784Y-96533913D01*
X121858979Y-96363153D01*
X121985924Y-96168849D01*
X122079157Y-95956300D01*
X122136134Y-95731305D01*
X122155300Y-95500000D01*
X122136134Y-95268695D01*
X122079157Y-95043700D01*
X122072284Y-95028032D01*
X122024875Y-94919950D01*
X121985924Y-94831151D01*
X121858979Y-94636847D01*
X121701784Y-94466087D01*
X121518626Y-94323530D01*
X121314503Y-94213064D01*
X121314502Y-94213063D01*
X121314501Y-94213063D01*
X121094981Y-94137702D01*
X120866049Y-94099500D01*
X120633951Y-94099500D01*
X120481329Y-94124968D01*
X120405018Y-94137702D01*
X120185498Y-94213063D01*
X119981373Y-94323530D01*
X119798217Y-94466086D01*
X119641021Y-94636846D01*
X119514073Y-94831156D01*
X119420844Y-95043695D01*
X119411432Y-95080861D01*
X119363866Y-95268695D01*
X119344700Y-95500000D01*
X113230989Y-95500000D01*
X113213588Y-95431283D01*
X113113729Y-95203628D01*
X113013435Y-95050117D01*
X112315929Y-95747622D01*
X112313116Y-95734085D01*
X112243558Y-95599844D01*
X112140362Y-95489348D01*
X112011181Y-95410791D01*
X111959994Y-95396449D01*
X112660056Y-94696388D01*
X112660057Y-94696388D01*
X112613231Y-94659944D01*
X112394609Y-94541632D01*
X112159491Y-94460916D01*
X111914292Y-94420000D01*
X111665708Y-94420000D01*
X111420508Y-94460916D01*
X111185393Y-94541631D01*
X110966766Y-94659946D01*
X110919943Y-94696389D01*
X111618432Y-95394878D01*
X111501542Y-95445651D01*
X111384261Y-95541066D01*
X111297072Y-95664585D01*
X111266644Y-95750198D01*
X110566564Y-95050118D01*
X110466268Y-95203632D01*
X110366411Y-95431283D01*
X110305387Y-95672263D01*
X110284859Y-95919999D01*
X108295140Y-95919999D01*
X108274612Y-95672263D01*
X108213588Y-95431283D01*
X108113729Y-95203628D01*
X108013435Y-95050117D01*
X107315929Y-95747622D01*
X107313116Y-95734085D01*
X107243558Y-95599844D01*
X107140362Y-95489348D01*
X107011181Y-95410791D01*
X106959994Y-95396449D01*
X107660056Y-94696388D01*
X107660057Y-94696388D01*
X107613231Y-94659944D01*
X107394609Y-94541632D01*
X107159491Y-94460916D01*
X106914292Y-94420000D01*
X106665708Y-94420000D01*
X106420508Y-94460916D01*
X106185393Y-94541631D01*
X105966766Y-94659946D01*
X105919943Y-94696389D01*
X106618432Y-95394878D01*
X106501542Y-95445651D01*
X106384261Y-95541066D01*
X106297072Y-95664585D01*
X106266644Y-95750198D01*
X105566564Y-95050118D01*
X105466268Y-95203632D01*
X105366411Y-95431283D01*
X105305387Y-95672263D01*
X105284859Y-95919999D01*
X101505468Y-95919999D01*
X101485635Y-95693308D01*
X101426739Y-95473504D01*
X101418991Y-95456889D01*
X101330569Y-95267268D01*
X101286008Y-95203628D01*
X101200047Y-95080861D01*
X101039139Y-94919953D01*
X100852734Y-94789432D01*
X100852733Y-94789431D01*
X100852731Y-94789430D01*
X100646500Y-94693262D01*
X100426689Y-94634364D01*
X100200000Y-94614531D01*
X99973310Y-94634364D01*
X99753499Y-94693262D01*
X99547268Y-94789430D01*
X99360864Y-94919950D01*
X99199950Y-95080864D01*
X99069430Y-95267268D01*
X98973262Y-95473499D01*
X98914364Y-95693310D01*
X98894531Y-95919999D01*
X96505468Y-95919999D01*
X96485635Y-95693308D01*
X96426739Y-95473504D01*
X96418991Y-95456889D01*
X96330569Y-95267268D01*
X96286008Y-95203628D01*
X96200047Y-95080861D01*
X96039139Y-94919953D01*
X95852734Y-94789432D01*
X95852733Y-94789431D01*
X95852731Y-94789430D01*
X95646500Y-94693262D01*
X95426689Y-94634364D01*
X95199999Y-94614531D01*
X94973310Y-94634364D01*
X94753499Y-94693262D01*
X94547268Y-94789430D01*
X94360864Y-94919950D01*
X94199950Y-95080864D01*
X94069430Y-95267268D01*
X93973262Y-95473499D01*
X93914364Y-95693310D01*
X93894531Y-95919999D01*
X87588350Y-95919999D01*
X87636134Y-95731305D01*
X87655300Y-95500000D01*
X87636134Y-95268695D01*
X87579157Y-95043700D01*
X87572284Y-95028032D01*
X87524875Y-94919950D01*
X87485924Y-94831151D01*
X87358979Y-94636847D01*
X87242209Y-94510000D01*
X89188672Y-94510000D01*
X89207931Y-94693238D01*
X89264867Y-94868468D01*
X89356991Y-95028032D01*
X89480276Y-95164954D01*
X89629336Y-95273252D01*
X89797655Y-95348193D01*
X89977876Y-95386500D01*
X89977878Y-95386500D01*
X90162122Y-95386500D01*
X90162124Y-95386500D01*
X90342345Y-95348193D01*
X90510664Y-95273252D01*
X90659724Y-95164954D01*
X90783009Y-95028032D01*
X90875133Y-94868468D01*
X90932069Y-94693238D01*
X90951328Y-94510000D01*
X90932069Y-94326762D01*
X90875133Y-94151532D01*
X90783009Y-93991968D01*
X90659724Y-93855046D01*
X90510664Y-93746748D01*
X90462869Y-93725468D01*
X90342346Y-93671807D01*
X90282271Y-93659038D01*
X90162124Y-93633500D01*
X89977876Y-93633500D01*
X89887765Y-93652653D01*
X89797653Y-93671807D01*
X89629337Y-93746747D01*
X89480276Y-93855045D01*
X89356991Y-93991968D01*
X89264867Y-94151531D01*
X89264867Y-94151532D01*
X89207931Y-94326762D01*
X89188672Y-94510000D01*
X87242209Y-94510000D01*
X87201784Y-94466087D01*
X87018626Y-94323530D01*
X86814503Y-94213064D01*
X86814502Y-94213063D01*
X86814501Y-94213063D01*
X86594981Y-94137702D01*
X86594980Y-94137702D01*
X86366049Y-94099500D01*
X86133951Y-94099500D01*
X85981329Y-94124968D01*
X85905018Y-94137702D01*
X85685498Y-94213063D01*
X85481373Y-94323530D01*
X85298217Y-94466086D01*
X85141021Y-94636846D01*
X85014073Y-94831156D01*
X84920844Y-95043695D01*
X84911432Y-95080861D01*
X84863866Y-95268695D01*
X84844700Y-95500000D01*
X84303009Y-95500000D01*
X84300648Y-95456889D01*
X84300500Y-95451476D01*
X84300500Y-92419999D01*
X93894531Y-92419999D01*
X93914364Y-92646689D01*
X93973262Y-92866500D01*
X94069430Y-93072731D01*
X94069431Y-93072733D01*
X94069432Y-93072734D01*
X94199953Y-93259139D01*
X94360861Y-93420047D01*
X94547266Y-93550568D01*
X94547267Y-93550568D01*
X94547268Y-93550569D01*
X94753499Y-93646737D01*
X94753500Y-93646737D01*
X94753504Y-93646739D01*
X94973308Y-93705635D01*
X95124436Y-93718856D01*
X95199999Y-93725468D01*
X95199999Y-93725467D01*
X95200000Y-93725468D01*
X95426692Y-93705635D01*
X95646496Y-93646739D01*
X95852734Y-93550568D01*
X96039139Y-93420047D01*
X96200047Y-93259139D01*
X96330568Y-93072734D01*
X96426739Y-92866496D01*
X96485635Y-92646692D01*
X96505468Y-92420000D01*
X96505468Y-92419999D01*
X98894531Y-92419999D01*
X98914364Y-92646689D01*
X98973262Y-92866500D01*
X99069430Y-93072731D01*
X99069431Y-93072733D01*
X99069432Y-93072734D01*
X99199953Y-93259139D01*
X99360861Y-93420047D01*
X99547266Y-93550568D01*
X99547267Y-93550568D01*
X99547268Y-93550569D01*
X99753499Y-93646737D01*
X99753500Y-93646737D01*
X99753504Y-93646739D01*
X99973308Y-93705635D01*
X100200000Y-93725468D01*
X100426692Y-93705635D01*
X100646496Y-93646739D01*
X100852734Y-93550568D01*
X101039139Y-93420047D01*
X101200047Y-93259139D01*
X101330568Y-93072734D01*
X101426739Y-92866496D01*
X101485635Y-92646692D01*
X101505468Y-92420000D01*
X105484531Y-92420000D01*
X105504364Y-92646689D01*
X105563262Y-92866500D01*
X105659430Y-93072731D01*
X105659431Y-93072733D01*
X105659432Y-93072734D01*
X105789953Y-93259139D01*
X105950861Y-93420047D01*
X106137266Y-93550568D01*
X106137267Y-93550568D01*
X106137268Y-93550569D01*
X106343499Y-93646737D01*
X106343500Y-93646737D01*
X106343504Y-93646739D01*
X106563308Y-93705635D01*
X106714436Y-93718856D01*
X106789999Y-93725468D01*
X106789999Y-93725467D01*
X106790000Y-93725468D01*
X107016692Y-93705635D01*
X107236496Y-93646739D01*
X107442734Y-93550568D01*
X107629139Y-93420047D01*
X107790047Y-93259139D01*
X107920568Y-93072734D01*
X108016739Y-92866496D01*
X108075635Y-92646692D01*
X108095468Y-92420000D01*
X108095468Y-92419999D01*
X110484531Y-92419999D01*
X110504364Y-92646689D01*
X110563262Y-92866500D01*
X110659430Y-93072731D01*
X110659431Y-93072733D01*
X110659432Y-93072734D01*
X110789953Y-93259139D01*
X110950861Y-93420047D01*
X111137266Y-93550568D01*
X111137267Y-93550568D01*
X111137268Y-93550569D01*
X111343499Y-93646737D01*
X111343500Y-93646737D01*
X111343504Y-93646739D01*
X111563308Y-93705635D01*
X111790000Y-93725468D01*
X112016692Y-93705635D01*
X112236496Y-93646739D01*
X112442734Y-93550568D01*
X112629139Y-93420047D01*
X112790047Y-93259139D01*
X112920568Y-93072734D01*
X113016739Y-92866496D01*
X113075635Y-92646692D01*
X113095468Y-92420000D01*
X113075635Y-92193308D01*
X113016739Y-91973504D01*
X112920568Y-91767266D01*
X112790047Y-91580861D01*
X112629139Y-91419953D01*
X112442734Y-91289432D01*
X112442733Y-91289431D01*
X112442731Y-91289430D01*
X112236500Y-91193262D01*
X112016689Y-91134364D01*
X111790000Y-91114531D01*
X111563310Y-91134364D01*
X111343499Y-91193262D01*
X111137268Y-91289430D01*
X110950864Y-91419950D01*
X110789950Y-91580864D01*
X110659430Y-91767268D01*
X110563262Y-91973499D01*
X110504364Y-92193310D01*
X110484531Y-92419999D01*
X108095468Y-92419999D01*
X108075635Y-92193308D01*
X108016739Y-91973504D01*
X107920568Y-91767266D01*
X107790047Y-91580861D01*
X107629139Y-91419953D01*
X107442734Y-91289432D01*
X107442733Y-91289431D01*
X107442731Y-91289430D01*
X107236500Y-91193262D01*
X107016689Y-91134364D01*
X106789999Y-91114531D01*
X106563310Y-91134364D01*
X106343499Y-91193262D01*
X106137268Y-91289430D01*
X105950864Y-91419950D01*
X105789950Y-91580864D01*
X105659430Y-91767268D01*
X105563262Y-91973499D01*
X105504364Y-92193310D01*
X105484531Y-92420000D01*
X101505468Y-92420000D01*
X101485635Y-92193308D01*
X101426739Y-91973504D01*
X101330568Y-91767266D01*
X101200047Y-91580861D01*
X101039139Y-91419953D01*
X100852734Y-91289432D01*
X100852733Y-91289431D01*
X100852731Y-91289430D01*
X100646500Y-91193262D01*
X100426689Y-91134364D01*
X100199999Y-91114531D01*
X99973310Y-91134364D01*
X99753499Y-91193262D01*
X99547268Y-91289430D01*
X99360864Y-91419950D01*
X99199950Y-91580864D01*
X99069430Y-91767268D01*
X98973262Y-91973499D01*
X98914364Y-92193310D01*
X98894531Y-92419999D01*
X96505468Y-92419999D01*
X96485635Y-92193308D01*
X96426739Y-91973504D01*
X96330568Y-91767266D01*
X96200047Y-91580861D01*
X96039139Y-91419953D01*
X95852734Y-91289432D01*
X95852733Y-91289431D01*
X95852731Y-91289430D01*
X95646500Y-91193262D01*
X95426689Y-91134364D01*
X95199999Y-91114531D01*
X94973310Y-91134364D01*
X94753499Y-91193262D01*
X94547268Y-91289430D01*
X94360864Y-91419950D01*
X94199950Y-91580864D01*
X94069430Y-91767268D01*
X93973262Y-91973499D01*
X93914364Y-92193310D01*
X93894531Y-92419999D01*
X84300500Y-92419999D01*
X84300500Y-88920000D01*
X93894531Y-88920000D01*
X93914364Y-89146689D01*
X93973262Y-89366500D01*
X94069430Y-89572731D01*
X94069431Y-89572733D01*
X94069432Y-89572734D01*
X94199953Y-89759139D01*
X94360861Y-89920047D01*
X94547266Y-90050568D01*
X94547267Y-90050568D01*
X94547268Y-90050569D01*
X94753499Y-90146737D01*
X94753500Y-90146737D01*
X94753504Y-90146739D01*
X94973308Y-90205635D01*
X95200000Y-90225468D01*
X95426692Y-90205635D01*
X95646496Y-90146739D01*
X95852734Y-90050568D01*
X96039139Y-89920047D01*
X96200047Y-89759139D01*
X96330568Y-89572734D01*
X96426739Y-89366496D01*
X96485635Y-89146692D01*
X96505468Y-88920000D01*
X98894531Y-88920000D01*
X98914364Y-89146689D01*
X98973262Y-89366500D01*
X99069430Y-89572731D01*
X99069431Y-89572733D01*
X99069432Y-89572734D01*
X99199953Y-89759139D01*
X99360861Y-89920047D01*
X99547266Y-90050568D01*
X99547267Y-90050568D01*
X99547268Y-90050569D01*
X99753499Y-90146737D01*
X99753500Y-90146737D01*
X99753504Y-90146739D01*
X99973308Y-90205635D01*
X100124435Y-90218857D01*
X100199999Y-90225468D01*
X100199999Y-90225467D01*
X100200000Y-90225468D01*
X100426692Y-90205635D01*
X100646496Y-90146739D01*
X100852734Y-90050568D01*
X101039139Y-89920047D01*
X101200047Y-89759139D01*
X101330568Y-89572734D01*
X101426739Y-89366496D01*
X101485635Y-89146692D01*
X101505468Y-88920000D01*
X101505468Y-88919999D01*
X105484531Y-88919999D01*
X105504364Y-89146689D01*
X105563262Y-89366500D01*
X105659430Y-89572731D01*
X105659431Y-89572733D01*
X105659432Y-89572734D01*
X105789953Y-89759139D01*
X105950861Y-89920047D01*
X106137266Y-90050568D01*
X106137267Y-90050568D01*
X106137268Y-90050569D01*
X106343499Y-90146737D01*
X106343500Y-90146737D01*
X106343504Y-90146739D01*
X106563308Y-90205635D01*
X106714436Y-90218857D01*
X106789999Y-90225468D01*
X106789999Y-90225467D01*
X106790000Y-90225468D01*
X107016692Y-90205635D01*
X107236496Y-90146739D01*
X107442734Y-90050568D01*
X107629139Y-89920047D01*
X107790047Y-89759139D01*
X107920568Y-89572734D01*
X108016739Y-89366496D01*
X108075635Y-89146692D01*
X108095468Y-88920000D01*
X110484531Y-88920000D01*
X110504364Y-89146689D01*
X110563262Y-89366500D01*
X110659430Y-89572731D01*
X110659431Y-89572733D01*
X110659432Y-89572734D01*
X110789953Y-89759139D01*
X110950861Y-89920047D01*
X111137266Y-90050568D01*
X111137267Y-90050568D01*
X111137268Y-90050569D01*
X111343499Y-90146737D01*
X111343500Y-90146737D01*
X111343504Y-90146739D01*
X111563308Y-90205635D01*
X111790000Y-90225468D01*
X112016692Y-90205635D01*
X112236496Y-90146739D01*
X112442734Y-90050568D01*
X112629139Y-89920047D01*
X112790047Y-89759139D01*
X112862586Y-89655542D01*
X118895500Y-89655542D01*
X118936443Y-89821654D01*
X119015950Y-89973141D01*
X119129399Y-90101199D01*
X119270198Y-90198385D01*
X119430164Y-90259052D01*
X119557389Y-90274500D01*
X119560376Y-90274500D01*
X119639624Y-90274500D01*
X119642611Y-90274500D01*
X119769836Y-90259052D01*
X119929802Y-90198385D01*
X120070601Y-90101199D01*
X120184050Y-89973141D01*
X120263557Y-89821654D01*
X120304500Y-89655542D01*
X120304500Y-89484458D01*
X120263557Y-89318346D01*
X120184050Y-89166859D01*
X120070601Y-89038801D01*
X119929802Y-88941615D01*
X119769836Y-88880948D01*
X119769835Y-88880947D01*
X119769833Y-88880947D01*
X119645578Y-88865860D01*
X119645573Y-88865859D01*
X119642611Y-88865500D01*
X119557389Y-88865500D01*
X119554427Y-88865859D01*
X119554421Y-88865860D01*
X119430166Y-88880947D01*
X119270197Y-88941615D01*
X119129399Y-89038801D01*
X119015950Y-89166859D01*
X118936443Y-89318346D01*
X118895500Y-89484458D01*
X118895500Y-89655542D01*
X112862586Y-89655542D01*
X112920568Y-89572734D01*
X113016739Y-89366496D01*
X113075635Y-89146692D01*
X113095468Y-88920000D01*
X113075635Y-88693308D01*
X113016739Y-88473504D01*
X112920568Y-88267266D01*
X112790047Y-88080861D01*
X112629139Y-87919953D01*
X112442734Y-87789432D01*
X112442733Y-87789431D01*
X112442731Y-87789430D01*
X112236500Y-87693262D01*
X112016689Y-87634364D01*
X111790000Y-87614531D01*
X111563310Y-87634364D01*
X111343499Y-87693262D01*
X111137268Y-87789430D01*
X110950864Y-87919950D01*
X110789950Y-88080864D01*
X110659430Y-88267268D01*
X110563262Y-88473499D01*
X110504364Y-88693310D01*
X110484531Y-88920000D01*
X108095468Y-88920000D01*
X108075635Y-88693308D01*
X108016739Y-88473504D01*
X107920568Y-88267266D01*
X107790047Y-88080861D01*
X107629139Y-87919953D01*
X107442734Y-87789432D01*
X107442733Y-87789431D01*
X107442731Y-87789430D01*
X107236500Y-87693262D01*
X107016689Y-87634364D01*
X106789999Y-87614531D01*
X106563310Y-87634364D01*
X106343499Y-87693262D01*
X106137268Y-87789430D01*
X105950864Y-87919950D01*
X105789950Y-88080864D01*
X105659430Y-88267268D01*
X105563262Y-88473499D01*
X105504364Y-88693310D01*
X105484531Y-88919999D01*
X101505468Y-88919999D01*
X101485635Y-88693308D01*
X101426739Y-88473504D01*
X101330568Y-88267266D01*
X101200047Y-88080861D01*
X101039139Y-87919953D01*
X100852734Y-87789432D01*
X100852733Y-87789431D01*
X100852731Y-87789430D01*
X100646500Y-87693262D01*
X100426689Y-87634364D01*
X100199999Y-87614531D01*
X99973310Y-87634364D01*
X99753499Y-87693262D01*
X99547268Y-87789430D01*
X99360864Y-87919950D01*
X99199950Y-88080864D01*
X99069430Y-88267268D01*
X98973262Y-88473499D01*
X98914364Y-88693310D01*
X98894531Y-88920000D01*
X96505468Y-88920000D01*
X96485635Y-88693308D01*
X96426739Y-88473504D01*
X96330568Y-88267266D01*
X96200047Y-88080861D01*
X96039139Y-87919953D01*
X95852734Y-87789432D01*
X95852733Y-87789431D01*
X95852731Y-87789430D01*
X95646500Y-87693262D01*
X95426689Y-87634364D01*
X95200000Y-87614531D01*
X94973310Y-87634364D01*
X94753499Y-87693262D01*
X94547268Y-87789430D01*
X94360864Y-87919950D01*
X94199950Y-88080864D01*
X94069430Y-88267268D01*
X93973262Y-88473499D01*
X93914364Y-88693310D01*
X93894531Y-88920000D01*
X84300500Y-88920000D01*
X84300500Y-88230000D01*
X88034750Y-88230000D01*
X88053669Y-88373709D01*
X88092892Y-88468401D01*
X88109139Y-88507625D01*
X88147450Y-88557552D01*
X88197378Y-88622621D01*
X88247306Y-88660932D01*
X88312375Y-88710861D01*
X88407067Y-88750083D01*
X88446290Y-88766330D01*
X88463008Y-88768531D01*
X88590000Y-88785250D01*
X88733709Y-88766330D01*
X88867625Y-88710861D01*
X88982621Y-88622621D01*
X89070861Y-88507625D01*
X89126330Y-88373709D01*
X89145250Y-88230000D01*
X89126330Y-88086291D01*
X89070861Y-87952375D01*
X89020932Y-87887306D01*
X88982621Y-87837378D01*
X88917552Y-87787450D01*
X88867625Y-87749139D01*
X88822626Y-87730500D01*
X88733709Y-87693669D01*
X88590000Y-87674750D01*
X88446290Y-87693669D01*
X88312375Y-87749139D01*
X88197378Y-87837378D01*
X88109139Y-87952375D01*
X88053669Y-88086290D01*
X88034750Y-88230000D01*
X84300500Y-88230000D01*
X84300500Y-87080000D01*
X113364721Y-87080000D01*
X113383762Y-87236815D01*
X113383762Y-87236817D01*
X113383763Y-87236818D01*
X113439780Y-87384523D01*
X113529517Y-87514530D01*
X113647760Y-87619283D01*
X113721173Y-87657814D01*
X113787636Y-87692697D01*
X113941013Y-87730500D01*
X113941015Y-87730500D01*
X114098987Y-87730500D01*
X114252363Y-87692697D01*
X114252365Y-87692696D01*
X114392240Y-87619283D01*
X114510483Y-87514530D01*
X114600220Y-87384523D01*
X114656237Y-87236818D01*
X114675278Y-87080000D01*
X114656237Y-86923182D01*
X114600220Y-86775477D01*
X114517435Y-86655542D01*
X118895500Y-86655542D01*
X118936443Y-86821654D01*
X119015950Y-86973141D01*
X119129399Y-87101199D01*
X119270198Y-87198385D01*
X119430164Y-87259052D01*
X119557389Y-87274500D01*
X119560376Y-87274500D01*
X119639624Y-87274500D01*
X119642611Y-87274500D01*
X119769836Y-87259052D01*
X119929802Y-87198385D01*
X120070601Y-87101199D01*
X120184050Y-86973141D01*
X120263557Y-86821654D01*
X120304500Y-86655542D01*
X120304500Y-86484458D01*
X120300271Y-86467302D01*
X120290954Y-86429500D01*
X120263557Y-86318346D01*
X120184050Y-86166859D01*
X120070601Y-86038801D01*
X119929802Y-85941615D01*
X119769836Y-85880948D01*
X119769835Y-85880947D01*
X119769833Y-85880947D01*
X119645578Y-85865860D01*
X119645573Y-85865859D01*
X119642611Y-85865500D01*
X119557389Y-85865500D01*
X119554427Y-85865859D01*
X119554421Y-85865860D01*
X119430166Y-85880947D01*
X119270197Y-85941615D01*
X119129399Y-86038801D01*
X119015949Y-86166860D01*
X118936443Y-86318346D01*
X118899729Y-86467302D01*
X118895500Y-86484458D01*
X118895500Y-86655542D01*
X114517435Y-86655542D01*
X114510483Y-86645470D01*
X114392240Y-86540717D01*
X114385287Y-86537067D01*
X114252363Y-86467302D01*
X114098987Y-86429500D01*
X114098985Y-86429500D01*
X113941015Y-86429500D01*
X113941013Y-86429500D01*
X113787636Y-86467302D01*
X113647761Y-86540716D01*
X113529517Y-86645470D01*
X113439780Y-86775476D01*
X113383762Y-86923184D01*
X113364721Y-87080000D01*
X84300500Y-87080000D01*
X84300500Y-85420000D01*
X93894531Y-85420000D01*
X93914364Y-85646689D01*
X93973262Y-85866500D01*
X94069430Y-86072731D01*
X94069431Y-86072733D01*
X94069432Y-86072734D01*
X94199953Y-86259139D01*
X94360861Y-86420047D01*
X94547266Y-86550568D01*
X94547267Y-86550568D01*
X94547268Y-86550569D01*
X94753499Y-86646737D01*
X94753500Y-86646737D01*
X94753504Y-86646739D01*
X94973308Y-86705635D01*
X95200000Y-86725468D01*
X95426692Y-86705635D01*
X95646496Y-86646739D01*
X95852734Y-86550568D01*
X96039139Y-86420047D01*
X96200047Y-86259139D01*
X96330568Y-86072734D01*
X96426739Y-85866496D01*
X96485635Y-85646692D01*
X96505468Y-85420000D01*
X98894531Y-85420000D01*
X98914364Y-85646689D01*
X98973262Y-85866500D01*
X99069430Y-86072731D01*
X99069431Y-86072733D01*
X99069432Y-86072734D01*
X99199953Y-86259139D01*
X99360861Y-86420047D01*
X99547266Y-86550568D01*
X99547267Y-86550568D01*
X99547268Y-86550569D01*
X99753499Y-86646737D01*
X99753500Y-86646737D01*
X99753504Y-86646739D01*
X99973308Y-86705635D01*
X100124436Y-86718856D01*
X100199999Y-86725468D01*
X100199999Y-86725467D01*
X100200000Y-86725468D01*
X100426692Y-86705635D01*
X100646496Y-86646739D01*
X100852734Y-86550568D01*
X101039139Y-86420047D01*
X101200047Y-86259139D01*
X101330568Y-86072734D01*
X101426739Y-85866496D01*
X101485635Y-85646692D01*
X101505468Y-85420000D01*
X105484531Y-85420000D01*
X105504364Y-85646689D01*
X105563262Y-85866500D01*
X105659430Y-86072731D01*
X105659431Y-86072733D01*
X105659432Y-86072734D01*
X105789953Y-86259139D01*
X105950861Y-86420047D01*
X106137266Y-86550568D01*
X106137267Y-86550568D01*
X106137268Y-86550569D01*
X106343499Y-86646737D01*
X106343500Y-86646737D01*
X106343504Y-86646739D01*
X106563308Y-86705635D01*
X106714435Y-86718856D01*
X106789999Y-86725468D01*
X106789999Y-86725467D01*
X106790000Y-86725468D01*
X107016692Y-86705635D01*
X107236496Y-86646739D01*
X107442734Y-86550568D01*
X107629139Y-86420047D01*
X107790047Y-86259139D01*
X107920568Y-86072734D01*
X108016739Y-85866496D01*
X108075635Y-85646692D01*
X108095468Y-85420000D01*
X110484531Y-85420000D01*
X110504364Y-85646689D01*
X110563262Y-85866500D01*
X110659430Y-86072731D01*
X110659431Y-86072733D01*
X110659432Y-86072734D01*
X110789953Y-86259139D01*
X110950861Y-86420047D01*
X111137266Y-86550568D01*
X111137267Y-86550568D01*
X111137268Y-86550569D01*
X111343499Y-86646737D01*
X111343500Y-86646737D01*
X111343504Y-86646739D01*
X111563308Y-86705635D01*
X111790000Y-86725468D01*
X112016692Y-86705635D01*
X112236496Y-86646739D01*
X112442734Y-86550568D01*
X112629139Y-86420047D01*
X112790047Y-86259139D01*
X112920568Y-86072734D01*
X113016739Y-85866496D01*
X113075635Y-85646692D01*
X113095468Y-85420000D01*
X113075635Y-85193308D01*
X113016739Y-84973504D01*
X112920568Y-84767266D01*
X112790047Y-84580861D01*
X112629139Y-84419953D01*
X112442734Y-84289432D01*
X112442733Y-84289431D01*
X112442731Y-84289430D01*
X112236500Y-84193262D01*
X112016689Y-84134364D01*
X111790000Y-84114531D01*
X111563310Y-84134364D01*
X111343499Y-84193262D01*
X111137268Y-84289430D01*
X110950864Y-84419950D01*
X110789950Y-84580864D01*
X110659430Y-84767268D01*
X110563262Y-84973499D01*
X110504364Y-85193310D01*
X110484531Y-85420000D01*
X108095468Y-85420000D01*
X108075635Y-85193308D01*
X108016739Y-84973504D01*
X107920568Y-84767266D01*
X107790047Y-84580861D01*
X107629139Y-84419953D01*
X107442734Y-84289432D01*
X107442733Y-84289431D01*
X107442731Y-84289430D01*
X107236500Y-84193262D01*
X107016689Y-84134364D01*
X106789999Y-84114531D01*
X106563310Y-84134364D01*
X106343499Y-84193262D01*
X106137268Y-84289430D01*
X105950864Y-84419950D01*
X105789950Y-84580864D01*
X105659430Y-84767268D01*
X105563262Y-84973499D01*
X105504364Y-85193310D01*
X105484531Y-85420000D01*
X101505468Y-85420000D01*
X101485635Y-85193308D01*
X101426739Y-84973504D01*
X101330568Y-84767266D01*
X101200047Y-84580861D01*
X101039139Y-84419953D01*
X100852734Y-84289432D01*
X100852733Y-84289431D01*
X100852731Y-84289430D01*
X100646500Y-84193262D01*
X100426689Y-84134364D01*
X100199999Y-84114531D01*
X99973310Y-84134364D01*
X99753499Y-84193262D01*
X99547268Y-84289430D01*
X99360864Y-84419950D01*
X99199950Y-84580864D01*
X99069430Y-84767268D01*
X98973262Y-84973499D01*
X98914364Y-85193310D01*
X98894531Y-85420000D01*
X96505468Y-85420000D01*
X96485635Y-85193308D01*
X96426739Y-84973504D01*
X96330568Y-84767266D01*
X96200047Y-84580861D01*
X96039139Y-84419953D01*
X95852734Y-84289432D01*
X95852733Y-84289431D01*
X95852731Y-84289430D01*
X95646500Y-84193262D01*
X95426689Y-84134364D01*
X95200000Y-84114531D01*
X94973310Y-84134364D01*
X94753499Y-84193262D01*
X94547268Y-84289430D01*
X94360864Y-84419950D01*
X94199950Y-84580864D01*
X94069430Y-84767268D01*
X93973262Y-84973499D01*
X93914364Y-85193310D01*
X93894531Y-85420000D01*
X84300500Y-85420000D01*
X84300500Y-83389999D01*
X87954750Y-83389999D01*
X87973669Y-83533709D01*
X88012892Y-83628401D01*
X88029139Y-83667625D01*
X88067450Y-83717552D01*
X88117378Y-83782621D01*
X88167306Y-83820932D01*
X88232375Y-83870861D01*
X88327067Y-83910083D01*
X88366290Y-83926330D01*
X88385210Y-83928820D01*
X88510000Y-83945250D01*
X88653709Y-83926330D01*
X88787625Y-83870861D01*
X88902621Y-83782621D01*
X88990861Y-83667625D01*
X89046330Y-83533709D01*
X89065250Y-83390000D01*
X89046330Y-83246291D01*
X88990861Y-83112375D01*
X88940932Y-83047306D01*
X88902621Y-82997378D01*
X88837552Y-82947450D01*
X88787625Y-82909139D01*
X88748401Y-82892892D01*
X88653709Y-82853669D01*
X88526717Y-82836951D01*
X88510000Y-82834750D01*
X88509999Y-82834750D01*
X88366290Y-82853669D01*
X88232375Y-82909139D01*
X88117378Y-82997378D01*
X88029139Y-83112375D01*
X87973669Y-83246290D01*
X87954750Y-83389999D01*
X84300500Y-83389999D01*
X84300500Y-81920000D01*
X93894531Y-81920000D01*
X93914364Y-82146689D01*
X93973262Y-82366500D01*
X94069430Y-82572731D01*
X94069431Y-82572733D01*
X94069432Y-82572734D01*
X94199953Y-82759139D01*
X94360861Y-82920047D01*
X94547266Y-83050568D01*
X94547267Y-83050568D01*
X94547268Y-83050569D01*
X94753499Y-83146737D01*
X94753500Y-83146737D01*
X94753504Y-83146739D01*
X94973308Y-83205635D01*
X95200000Y-83225468D01*
X95426692Y-83205635D01*
X95646496Y-83146739D01*
X95852734Y-83050568D01*
X96039139Y-82920047D01*
X96200047Y-82759139D01*
X96330568Y-82572734D01*
X96426739Y-82366496D01*
X96485635Y-82146692D01*
X96505468Y-81920000D01*
X98894531Y-81920000D01*
X98914364Y-82146689D01*
X98973262Y-82366500D01*
X99069430Y-82572731D01*
X99069431Y-82572733D01*
X99069432Y-82572734D01*
X99199953Y-82759139D01*
X99360861Y-82920047D01*
X99547266Y-83050568D01*
X99547267Y-83050568D01*
X99547268Y-83050569D01*
X99753499Y-83146737D01*
X99753500Y-83146737D01*
X99753504Y-83146739D01*
X99973308Y-83205635D01*
X100200000Y-83225468D01*
X100426692Y-83205635D01*
X100646496Y-83146739D01*
X100852734Y-83050568D01*
X101039139Y-82920047D01*
X101200047Y-82759139D01*
X101330568Y-82572734D01*
X101426739Y-82366496D01*
X101485635Y-82146692D01*
X101505468Y-81920000D01*
X101501093Y-81869999D01*
X103674750Y-81869999D01*
X103693669Y-82013709D01*
X103732892Y-82108401D01*
X103749139Y-82147625D01*
X103787450Y-82197552D01*
X103837378Y-82262621D01*
X103887306Y-82300932D01*
X103952375Y-82350861D01*
X104047067Y-82390083D01*
X104086290Y-82406330D01*
X104103008Y-82408531D01*
X104230000Y-82425250D01*
X104373709Y-82406330D01*
X104507625Y-82350861D01*
X104622621Y-82262621D01*
X104710861Y-82147625D01*
X104766330Y-82013709D01*
X104778667Y-81920000D01*
X105484531Y-81920000D01*
X105504364Y-82146689D01*
X105563262Y-82366500D01*
X105659430Y-82572731D01*
X105659431Y-82572733D01*
X105659432Y-82572734D01*
X105789953Y-82759139D01*
X105950861Y-82920047D01*
X106137266Y-83050568D01*
X106137267Y-83050568D01*
X106137268Y-83050569D01*
X106343499Y-83146737D01*
X106343500Y-83146737D01*
X106343504Y-83146739D01*
X106563308Y-83205635D01*
X106790000Y-83225468D01*
X107016692Y-83205635D01*
X107236496Y-83146739D01*
X107442734Y-83050568D01*
X107629139Y-82920047D01*
X107790047Y-82759139D01*
X107920568Y-82572734D01*
X108016739Y-82366496D01*
X108075635Y-82146692D01*
X108095468Y-81920000D01*
X110484531Y-81920000D01*
X110504364Y-82146689D01*
X110563262Y-82366500D01*
X110659430Y-82572731D01*
X110659431Y-82572733D01*
X110659432Y-82572734D01*
X110789953Y-82759139D01*
X110950861Y-82920047D01*
X111137266Y-83050568D01*
X111137267Y-83050568D01*
X111137268Y-83050569D01*
X111343499Y-83146737D01*
X111343500Y-83146737D01*
X111343504Y-83146739D01*
X111563308Y-83205635D01*
X111790000Y-83225468D01*
X112016692Y-83205635D01*
X112236496Y-83146739D01*
X112442734Y-83050568D01*
X112629139Y-82920047D01*
X112790047Y-82759139D01*
X112920568Y-82572734D01*
X113016739Y-82366496D01*
X113075635Y-82146692D01*
X113095468Y-81920000D01*
X113075635Y-81693308D01*
X113016739Y-81473504D01*
X113010843Y-81460861D01*
X112920569Y-81267268D01*
X112913816Y-81257624D01*
X112790047Y-81080861D01*
X112689185Y-80979999D01*
X116504750Y-80979999D01*
X116523669Y-81123709D01*
X116562892Y-81218401D01*
X116579139Y-81257625D01*
X116617450Y-81307552D01*
X116667378Y-81372621D01*
X116717306Y-81410932D01*
X116782375Y-81460861D01*
X116877067Y-81500083D01*
X116916290Y-81516330D01*
X116935209Y-81518820D01*
X117060000Y-81535250D01*
X117203709Y-81516330D01*
X117337625Y-81460861D01*
X117452621Y-81372621D01*
X117540861Y-81257625D01*
X117596330Y-81123709D01*
X117615250Y-80980000D01*
X117596330Y-80836291D01*
X117540861Y-80702375D01*
X117488674Y-80634364D01*
X117452621Y-80587378D01*
X117387552Y-80537450D01*
X117337625Y-80499139D01*
X117298401Y-80482892D01*
X117203709Y-80443669D01*
X117076717Y-80426951D01*
X117060000Y-80424750D01*
X117059999Y-80424750D01*
X116916290Y-80443669D01*
X116782375Y-80499139D01*
X116667378Y-80587378D01*
X116579139Y-80702375D01*
X116523669Y-80836290D01*
X116504750Y-80979999D01*
X112689185Y-80979999D01*
X112629139Y-80919953D01*
X112442734Y-80789432D01*
X112442733Y-80789431D01*
X112442731Y-80789430D01*
X112236500Y-80693262D01*
X112016689Y-80634364D01*
X111790000Y-80614531D01*
X111563310Y-80634364D01*
X111343499Y-80693262D01*
X111137268Y-80789430D01*
X110950864Y-80919950D01*
X110789950Y-81080864D01*
X110659430Y-81267268D01*
X110563262Y-81473499D01*
X110504364Y-81693310D01*
X110484531Y-81920000D01*
X108095468Y-81920000D01*
X108075635Y-81693308D01*
X108016739Y-81473504D01*
X108010843Y-81460861D01*
X107920569Y-81267268D01*
X107913816Y-81257624D01*
X107790047Y-81080861D01*
X107629139Y-80919953D01*
X107442734Y-80789432D01*
X107442733Y-80789431D01*
X107442731Y-80789430D01*
X107236500Y-80693262D01*
X107016689Y-80634364D01*
X106790000Y-80614531D01*
X106563310Y-80634364D01*
X106343499Y-80693262D01*
X106137268Y-80789430D01*
X105950864Y-80919950D01*
X105789950Y-81080864D01*
X105659430Y-81267268D01*
X105563262Y-81473499D01*
X105504364Y-81693310D01*
X105484531Y-81920000D01*
X104778667Y-81920000D01*
X104785250Y-81870000D01*
X104766330Y-81726291D01*
X104710861Y-81592375D01*
X104652509Y-81516330D01*
X104622621Y-81477378D01*
X104557552Y-81427450D01*
X104507625Y-81389139D01*
X104467746Y-81372621D01*
X104373709Y-81333669D01*
X104230000Y-81314750D01*
X104086290Y-81333669D01*
X103952375Y-81389139D01*
X103837378Y-81477378D01*
X103749139Y-81592375D01*
X103693669Y-81726290D01*
X103674750Y-81869999D01*
X101501093Y-81869999D01*
X101485635Y-81693308D01*
X101426739Y-81473504D01*
X101420843Y-81460861D01*
X101330569Y-81267268D01*
X101323816Y-81257624D01*
X101200047Y-81080861D01*
X101039139Y-80919953D01*
X100852734Y-80789432D01*
X100852733Y-80789431D01*
X100852731Y-80789430D01*
X100646500Y-80693262D01*
X100426689Y-80634364D01*
X100200000Y-80614531D01*
X99973310Y-80634364D01*
X99753499Y-80693262D01*
X99547268Y-80789430D01*
X99360864Y-80919950D01*
X99199950Y-81080864D01*
X99069430Y-81267268D01*
X98973262Y-81473499D01*
X98914364Y-81693310D01*
X98894531Y-81920000D01*
X96505468Y-81920000D01*
X96485635Y-81693308D01*
X96426739Y-81473504D01*
X96420843Y-81460861D01*
X96330569Y-81267268D01*
X96323816Y-81257624D01*
X96200047Y-81080861D01*
X96039139Y-80919953D01*
X95852734Y-80789432D01*
X95852733Y-80789431D01*
X95852731Y-80789430D01*
X95646500Y-80693262D01*
X95426689Y-80634364D01*
X95199999Y-80614531D01*
X94973310Y-80634364D01*
X94753499Y-80693262D01*
X94547268Y-80789430D01*
X94360864Y-80919950D01*
X94199950Y-81080864D01*
X94069430Y-81267268D01*
X93973262Y-81473499D01*
X93914364Y-81693310D01*
X93894531Y-81920000D01*
X84300500Y-81920000D01*
X84300500Y-78419999D01*
X93894531Y-78419999D01*
X93914364Y-78646689D01*
X93973262Y-78866500D01*
X94069430Y-79072731D01*
X94069431Y-79072733D01*
X94069432Y-79072734D01*
X94199953Y-79259139D01*
X94360861Y-79420047D01*
X94547266Y-79550568D01*
X94547267Y-79550568D01*
X94547268Y-79550569D01*
X94753499Y-79646737D01*
X94753500Y-79646737D01*
X94753504Y-79646739D01*
X94973308Y-79705635D01*
X95124436Y-79718856D01*
X95199999Y-79725468D01*
X95199999Y-79725467D01*
X95200000Y-79725468D01*
X95426692Y-79705635D01*
X95646496Y-79646739D01*
X95852734Y-79550568D01*
X96039139Y-79420047D01*
X96200047Y-79259139D01*
X96330568Y-79072734D01*
X96426739Y-78866496D01*
X96485635Y-78646692D01*
X96505468Y-78420000D01*
X96505468Y-78419999D01*
X98894531Y-78419999D01*
X98914364Y-78646689D01*
X98973262Y-78866500D01*
X99069430Y-79072731D01*
X99069431Y-79072733D01*
X99069432Y-79072734D01*
X99199953Y-79259139D01*
X99360861Y-79420047D01*
X99547266Y-79550568D01*
X99547267Y-79550568D01*
X99547268Y-79550569D01*
X99753499Y-79646737D01*
X99753500Y-79646737D01*
X99753504Y-79646739D01*
X99973308Y-79705635D01*
X100200000Y-79725468D01*
X100426692Y-79705635D01*
X100646496Y-79646739D01*
X100852734Y-79550568D01*
X101039139Y-79420047D01*
X101200047Y-79259139D01*
X101330568Y-79072734D01*
X101426739Y-78866496D01*
X101485635Y-78646692D01*
X101505468Y-78420000D01*
X101505468Y-78419999D01*
X105484531Y-78419999D01*
X105504364Y-78646689D01*
X105563262Y-78866500D01*
X105659430Y-79072731D01*
X105659431Y-79072733D01*
X105659432Y-79072734D01*
X105789953Y-79259139D01*
X105950861Y-79420047D01*
X106137266Y-79550568D01*
X106137267Y-79550568D01*
X106137268Y-79550569D01*
X106343499Y-79646737D01*
X106343500Y-79646737D01*
X106343504Y-79646739D01*
X106563308Y-79705635D01*
X106790000Y-79725468D01*
X107016692Y-79705635D01*
X107236496Y-79646739D01*
X107442734Y-79550568D01*
X107629139Y-79420047D01*
X107790047Y-79259139D01*
X107920568Y-79072734D01*
X108016739Y-78866496D01*
X108075635Y-78646692D01*
X108095468Y-78420000D01*
X108095468Y-78419999D01*
X110484531Y-78419999D01*
X110504364Y-78646689D01*
X110563262Y-78866500D01*
X110659430Y-79072731D01*
X110659431Y-79072733D01*
X110659432Y-79072734D01*
X110789953Y-79259139D01*
X110950861Y-79420047D01*
X111137266Y-79550568D01*
X111137267Y-79550568D01*
X111137268Y-79550569D01*
X111343499Y-79646737D01*
X111343500Y-79646737D01*
X111343504Y-79646739D01*
X111563308Y-79705635D01*
X111790000Y-79725468D01*
X112016692Y-79705635D01*
X112236496Y-79646739D01*
X112442734Y-79550568D01*
X112629139Y-79420047D01*
X112790047Y-79259139D01*
X112920568Y-79072734D01*
X113016739Y-78866496D01*
X113075635Y-78646692D01*
X113095468Y-78420000D01*
X113075635Y-78193308D01*
X113016739Y-77973504D01*
X113008226Y-77955249D01*
X112920569Y-77767268D01*
X112857800Y-77677624D01*
X112790047Y-77580861D01*
X112629139Y-77419953D01*
X112442734Y-77289432D01*
X112442733Y-77289431D01*
X112442731Y-77289430D01*
X112236500Y-77193262D01*
X112016689Y-77134364D01*
X111789999Y-77114531D01*
X111563310Y-77134364D01*
X111343499Y-77193262D01*
X111137268Y-77289430D01*
X110950864Y-77419950D01*
X110789950Y-77580864D01*
X110659430Y-77767268D01*
X110563262Y-77973499D01*
X110504364Y-78193310D01*
X110484531Y-78419999D01*
X108095468Y-78419999D01*
X108075635Y-78193308D01*
X108016739Y-77973504D01*
X108008226Y-77955249D01*
X107920569Y-77767268D01*
X107857800Y-77677624D01*
X107790047Y-77580861D01*
X107629139Y-77419953D01*
X107442734Y-77289432D01*
X107442733Y-77289431D01*
X107442731Y-77289430D01*
X107236500Y-77193262D01*
X107016689Y-77134364D01*
X106789999Y-77114531D01*
X106563310Y-77134364D01*
X106343499Y-77193262D01*
X106137268Y-77289430D01*
X105950864Y-77419950D01*
X105789950Y-77580864D01*
X105659430Y-77767268D01*
X105563262Y-77973499D01*
X105504364Y-78193310D01*
X105484531Y-78419999D01*
X101505468Y-78419999D01*
X101485635Y-78193308D01*
X101426739Y-77973504D01*
X101418226Y-77955249D01*
X101330569Y-77767268D01*
X101267800Y-77677624D01*
X101200047Y-77580861D01*
X101039139Y-77419953D01*
X100852734Y-77289432D01*
X100852733Y-77289431D01*
X100852731Y-77289430D01*
X100646500Y-77193262D01*
X100426689Y-77134364D01*
X100200000Y-77114531D01*
X99973310Y-77134364D01*
X99753499Y-77193262D01*
X99547268Y-77289430D01*
X99360864Y-77419950D01*
X99199950Y-77580864D01*
X99069430Y-77767268D01*
X98973262Y-77973499D01*
X98914364Y-78193310D01*
X98894531Y-78419999D01*
X96505468Y-78419999D01*
X96485635Y-78193308D01*
X96426739Y-77973504D01*
X96418226Y-77955249D01*
X96330569Y-77767268D01*
X96267800Y-77677624D01*
X96200047Y-77580861D01*
X96039139Y-77419953D01*
X95852734Y-77289432D01*
X95852733Y-77289431D01*
X95852731Y-77289430D01*
X95646500Y-77193262D01*
X95426689Y-77134364D01*
X95200000Y-77114531D01*
X94973310Y-77134364D01*
X94753499Y-77193262D01*
X94547268Y-77289430D01*
X94360864Y-77419950D01*
X94199950Y-77580864D01*
X94069430Y-77767268D01*
X93973262Y-77973499D01*
X93914364Y-78193310D01*
X93894531Y-78419999D01*
X84300500Y-78419999D01*
X84300500Y-77400000D01*
X88204750Y-77400000D01*
X88223669Y-77543709D01*
X88262892Y-77638401D01*
X88279139Y-77677625D01*
X88317450Y-77727552D01*
X88367378Y-77792621D01*
X88417306Y-77830932D01*
X88482375Y-77880861D01*
X88577067Y-77920083D01*
X88616290Y-77936330D01*
X88633008Y-77938531D01*
X88760000Y-77955250D01*
X88903709Y-77936330D01*
X89037625Y-77880861D01*
X89152621Y-77792621D01*
X89240861Y-77677625D01*
X89296330Y-77543709D01*
X89315250Y-77400000D01*
X89296330Y-77256291D01*
X89288598Y-77237625D01*
X89270223Y-77193262D01*
X89240861Y-77122375D01*
X89190932Y-77057306D01*
X89152621Y-77007378D01*
X89090875Y-76960000D01*
X117484750Y-76960000D01*
X117503669Y-77103709D01*
X117542892Y-77198401D01*
X117559139Y-77237625D01*
X117573462Y-77256291D01*
X117647378Y-77352621D01*
X117697306Y-77390932D01*
X117762375Y-77440861D01*
X117857067Y-77480083D01*
X117896290Y-77496330D01*
X117913008Y-77498531D01*
X118040000Y-77515250D01*
X118183709Y-77496330D01*
X118317625Y-77440861D01*
X118432621Y-77352621D01*
X118520861Y-77237625D01*
X118576330Y-77103709D01*
X118595250Y-76960000D01*
X118576330Y-76816291D01*
X118520861Y-76682375D01*
X118470932Y-76617306D01*
X118432621Y-76567378D01*
X118367552Y-76517450D01*
X118317625Y-76479139D01*
X118278401Y-76462892D01*
X118183709Y-76423669D01*
X118040000Y-76404750D01*
X117896290Y-76423669D01*
X117762375Y-76479139D01*
X117647378Y-76567378D01*
X117559139Y-76682375D01*
X117503669Y-76816290D01*
X117484750Y-76960000D01*
X89090875Y-76960000D01*
X89087552Y-76957450D01*
X89037625Y-76919139D01*
X88998401Y-76902892D01*
X88903709Y-76863669D01*
X88760000Y-76844750D01*
X88616290Y-76863669D01*
X88482375Y-76919139D01*
X88367378Y-77007378D01*
X88279139Y-77122375D01*
X88223669Y-77256290D01*
X88204750Y-77400000D01*
X84300500Y-77400000D01*
X84300500Y-74919999D01*
X93894531Y-74919999D01*
X93914364Y-75146689D01*
X93973262Y-75366500D01*
X94069430Y-75572731D01*
X94069431Y-75572733D01*
X94069432Y-75572734D01*
X94199953Y-75759139D01*
X94360861Y-75920047D01*
X94547266Y-76050568D01*
X94547267Y-76050568D01*
X94547268Y-76050569D01*
X94753499Y-76146737D01*
X94753500Y-76146737D01*
X94753504Y-76146739D01*
X94973308Y-76205635D01*
X95200000Y-76225468D01*
X95426692Y-76205635D01*
X95646496Y-76146739D01*
X95852734Y-76050568D01*
X96039139Y-75920047D01*
X96200047Y-75759139D01*
X96330568Y-75572734D01*
X96426739Y-75366496D01*
X96485635Y-75146692D01*
X96505468Y-74920000D01*
X96505468Y-74919999D01*
X98894531Y-74919999D01*
X98914364Y-75146689D01*
X98973262Y-75366500D01*
X99069430Y-75572731D01*
X99069431Y-75572733D01*
X99069432Y-75572734D01*
X99199953Y-75759139D01*
X99360861Y-75920047D01*
X99547266Y-76050568D01*
X99547267Y-76050568D01*
X99547268Y-76050569D01*
X99753499Y-76146737D01*
X99753500Y-76146737D01*
X99753504Y-76146739D01*
X99973308Y-76205635D01*
X100124435Y-76218857D01*
X100199999Y-76225468D01*
X100199999Y-76225467D01*
X100200000Y-76225468D01*
X100426692Y-76205635D01*
X100646496Y-76146739D01*
X100852734Y-76050568D01*
X101039139Y-75920047D01*
X101200047Y-75759139D01*
X101330568Y-75572734D01*
X101426739Y-75366496D01*
X101485635Y-75146692D01*
X101505468Y-74920000D01*
X105484531Y-74920000D01*
X105504364Y-75146689D01*
X105563262Y-75366500D01*
X105659430Y-75572731D01*
X105659431Y-75572733D01*
X105659432Y-75572734D01*
X105789953Y-75759139D01*
X105950861Y-75920047D01*
X106137266Y-76050568D01*
X106137267Y-76050568D01*
X106137268Y-76050569D01*
X106343499Y-76146737D01*
X106343500Y-76146737D01*
X106343504Y-76146739D01*
X106563308Y-76205635D01*
X106714436Y-76218857D01*
X106789999Y-76225468D01*
X106789999Y-76225467D01*
X106790000Y-76225468D01*
X107016692Y-76205635D01*
X107236496Y-76146739D01*
X107442734Y-76050568D01*
X107629139Y-75920047D01*
X107790047Y-75759139D01*
X107920568Y-75572734D01*
X108016739Y-75366496D01*
X108075635Y-75146692D01*
X108095468Y-74920000D01*
X108095468Y-74919999D01*
X110484531Y-74919999D01*
X110504364Y-75146689D01*
X110563262Y-75366500D01*
X110659430Y-75572731D01*
X110659431Y-75572733D01*
X110659432Y-75572734D01*
X110789953Y-75759139D01*
X110950861Y-75920047D01*
X111137266Y-76050568D01*
X111137267Y-76050568D01*
X111137268Y-76050569D01*
X111343499Y-76146737D01*
X111343500Y-76146737D01*
X111343504Y-76146739D01*
X111563308Y-76205635D01*
X111790000Y-76225468D01*
X112016692Y-76205635D01*
X112236496Y-76146739D01*
X112442734Y-76050568D01*
X112629139Y-75920047D01*
X112790047Y-75759139D01*
X112920568Y-75572734D01*
X113016739Y-75366496D01*
X113075635Y-75146692D01*
X113095468Y-74920000D01*
X113075635Y-74693308D01*
X113016739Y-74473504D01*
X113005779Y-74450000D01*
X114274750Y-74450000D01*
X114293669Y-74593709D01*
X114332892Y-74688401D01*
X114349139Y-74727625D01*
X114387450Y-74777552D01*
X114437378Y-74842621D01*
X114487306Y-74880932D01*
X114552375Y-74930861D01*
X114647067Y-74970083D01*
X114686290Y-74986330D01*
X114703008Y-74988531D01*
X114830000Y-75005250D01*
X114973709Y-74986330D01*
X115107625Y-74930861D01*
X115222621Y-74842621D01*
X115310861Y-74727625D01*
X115366330Y-74593709D01*
X115385250Y-74450000D01*
X115366330Y-74306291D01*
X115310861Y-74172375D01*
X115240642Y-74080864D01*
X115222621Y-74057378D01*
X115157552Y-74007450D01*
X115107625Y-73969139D01*
X115068401Y-73952892D01*
X114973709Y-73913669D01*
X114830000Y-73894750D01*
X114686290Y-73913669D01*
X114552375Y-73969139D01*
X114437378Y-74057378D01*
X114349139Y-74172375D01*
X114293669Y-74306290D01*
X114274750Y-74450000D01*
X113005779Y-74450000D01*
X112920568Y-74267266D01*
X112790047Y-74080861D01*
X112629139Y-73919953D01*
X112620164Y-73913669D01*
X112442731Y-73789430D01*
X112236500Y-73693262D01*
X112016689Y-73634364D01*
X111790000Y-73614531D01*
X111563310Y-73634364D01*
X111343499Y-73693262D01*
X111137268Y-73789430D01*
X110950864Y-73919950D01*
X110789950Y-74080864D01*
X110659430Y-74267268D01*
X110563262Y-74473499D01*
X110504364Y-74693310D01*
X110484531Y-74919999D01*
X108095468Y-74919999D01*
X108075635Y-74693308D01*
X108016739Y-74473504D01*
X107920568Y-74267266D01*
X107790047Y-74080861D01*
X107629139Y-73919953D01*
X107620164Y-73913669D01*
X107442731Y-73789430D01*
X107236500Y-73693262D01*
X107016689Y-73634364D01*
X106789999Y-73614531D01*
X106563310Y-73634364D01*
X106343499Y-73693262D01*
X106137268Y-73789430D01*
X105950864Y-73919950D01*
X105789950Y-74080864D01*
X105659430Y-74267268D01*
X105563262Y-74473499D01*
X105504364Y-74693310D01*
X105484531Y-74920000D01*
X101505468Y-74920000D01*
X101485635Y-74693308D01*
X101426739Y-74473504D01*
X101330568Y-74267266D01*
X101200047Y-74080861D01*
X101039139Y-73919953D01*
X101030164Y-73913669D01*
X100852731Y-73789430D01*
X100646500Y-73693262D01*
X100426689Y-73634364D01*
X100199999Y-73614531D01*
X99973310Y-73634364D01*
X99753499Y-73693262D01*
X99547268Y-73789430D01*
X99360864Y-73919950D01*
X99199950Y-74080864D01*
X99069430Y-74267268D01*
X98973262Y-74473499D01*
X98914364Y-74693310D01*
X98894531Y-74919999D01*
X96505468Y-74919999D01*
X96485635Y-74693308D01*
X96426739Y-74473504D01*
X96330568Y-74267266D01*
X96200047Y-74080861D01*
X96039139Y-73919953D01*
X96030164Y-73913669D01*
X95852731Y-73789430D01*
X95646500Y-73693262D01*
X95426689Y-73634364D01*
X95200000Y-73614531D01*
X94973310Y-73634364D01*
X94753499Y-73693262D01*
X94547268Y-73789430D01*
X94360864Y-73919950D01*
X94199950Y-74080864D01*
X94069430Y-74267268D01*
X93973262Y-74473499D01*
X93914364Y-74693310D01*
X93894531Y-74919999D01*
X84300500Y-74919999D01*
X84300500Y-71280000D01*
X88514750Y-71280000D01*
X88533669Y-71423709D01*
X88541503Y-71442621D01*
X88589139Y-71557625D01*
X88625682Y-71605249D01*
X88677378Y-71672621D01*
X88727306Y-71710932D01*
X88792375Y-71760861D01*
X88887067Y-71800083D01*
X88926290Y-71816330D01*
X88945209Y-71818820D01*
X89070000Y-71835250D01*
X89213709Y-71816330D01*
X89347625Y-71760861D01*
X89462621Y-71672621D01*
X89550861Y-71557625D01*
X89606330Y-71423709D01*
X89606818Y-71420000D01*
X93894531Y-71420000D01*
X93914364Y-71646689D01*
X93973262Y-71866500D01*
X94069430Y-72072731D01*
X94069431Y-72072733D01*
X94069432Y-72072734D01*
X94199953Y-72259139D01*
X94360861Y-72420047D01*
X94547266Y-72550568D01*
X94547267Y-72550568D01*
X94547268Y-72550569D01*
X94753499Y-72646737D01*
X94753500Y-72646737D01*
X94753504Y-72646739D01*
X94973308Y-72705635D01*
X95200000Y-72725468D01*
X95426692Y-72705635D01*
X95646496Y-72646739D01*
X95852734Y-72550568D01*
X96039139Y-72420047D01*
X96200047Y-72259139D01*
X96330568Y-72072734D01*
X96426739Y-71866496D01*
X96485635Y-71646692D01*
X96505468Y-71420000D01*
X98894531Y-71420000D01*
X98914364Y-71646689D01*
X98973262Y-71866500D01*
X99069430Y-72072731D01*
X99069431Y-72072733D01*
X99069432Y-72072734D01*
X99199953Y-72259139D01*
X99360861Y-72420047D01*
X99547266Y-72550568D01*
X99547267Y-72550568D01*
X99547268Y-72550569D01*
X99753499Y-72646737D01*
X99753500Y-72646737D01*
X99753504Y-72646739D01*
X99973308Y-72705635D01*
X100124436Y-72718857D01*
X100199999Y-72725468D01*
X100199999Y-72725467D01*
X100200000Y-72725468D01*
X100426692Y-72705635D01*
X100646496Y-72646739D01*
X100852734Y-72550568D01*
X101039139Y-72420047D01*
X101200047Y-72259139D01*
X101330568Y-72072734D01*
X101426739Y-71866496D01*
X101485635Y-71646692D01*
X101505468Y-71420000D01*
X101505468Y-71419999D01*
X105484531Y-71419999D01*
X105504364Y-71646689D01*
X105563262Y-71866500D01*
X105659430Y-72072731D01*
X105659431Y-72072733D01*
X105659432Y-72072734D01*
X105789953Y-72259139D01*
X105950861Y-72420047D01*
X106137266Y-72550568D01*
X106137267Y-72550568D01*
X106137268Y-72550569D01*
X106343499Y-72646737D01*
X106343500Y-72646737D01*
X106343504Y-72646739D01*
X106563308Y-72705635D01*
X106714435Y-72718856D01*
X106789999Y-72725468D01*
X106789999Y-72725467D01*
X106790000Y-72725468D01*
X107016692Y-72705635D01*
X107236496Y-72646739D01*
X107442734Y-72550568D01*
X107629139Y-72420047D01*
X107790047Y-72259139D01*
X107920568Y-72072734D01*
X108016739Y-71866496D01*
X108075635Y-71646692D01*
X108095468Y-71420000D01*
X110484531Y-71420000D01*
X110504364Y-71646689D01*
X110563262Y-71866500D01*
X110659430Y-72072731D01*
X110659431Y-72072733D01*
X110659432Y-72072734D01*
X110789953Y-72259139D01*
X110950861Y-72420047D01*
X111137266Y-72550568D01*
X111137267Y-72550568D01*
X111137268Y-72550569D01*
X111343499Y-72646737D01*
X111343500Y-72646737D01*
X111343504Y-72646739D01*
X111563308Y-72705635D01*
X111790000Y-72725468D01*
X112016692Y-72705635D01*
X112236496Y-72646739D01*
X112442734Y-72550568D01*
X112629139Y-72420047D01*
X112790047Y-72259139D01*
X112920568Y-72072734D01*
X113016739Y-71866496D01*
X113075635Y-71646692D01*
X113095468Y-71420000D01*
X113075635Y-71193308D01*
X113016739Y-70973504D01*
X112985396Y-70906290D01*
X112920569Y-70767268D01*
X112842637Y-70655969D01*
X112790047Y-70580861D01*
X112629139Y-70419953D01*
X112442734Y-70289432D01*
X112442733Y-70289431D01*
X112442731Y-70289430D01*
X112236500Y-70193262D01*
X112016689Y-70134364D01*
X111790000Y-70114531D01*
X111563310Y-70134364D01*
X111343499Y-70193262D01*
X111137268Y-70289430D01*
X110950864Y-70419950D01*
X110789950Y-70580864D01*
X110659430Y-70767268D01*
X110563262Y-70973499D01*
X110504364Y-71193310D01*
X110484531Y-71420000D01*
X108095468Y-71420000D01*
X108075635Y-71193308D01*
X108016739Y-70973504D01*
X107985396Y-70906290D01*
X107920569Y-70767268D01*
X107842637Y-70655969D01*
X107790047Y-70580861D01*
X107629139Y-70419953D01*
X107442734Y-70289432D01*
X107442733Y-70289431D01*
X107442731Y-70289430D01*
X107236500Y-70193262D01*
X107016689Y-70134364D01*
X106789999Y-70114531D01*
X106563310Y-70134364D01*
X106343499Y-70193262D01*
X106137268Y-70289430D01*
X105950864Y-70419950D01*
X105789950Y-70580864D01*
X105659430Y-70767268D01*
X105563262Y-70973499D01*
X105504364Y-71193310D01*
X105484531Y-71419999D01*
X101505468Y-71419999D01*
X101485635Y-71193308D01*
X101426739Y-70973504D01*
X101395396Y-70906290D01*
X101330569Y-70767268D01*
X101252637Y-70655969D01*
X101200047Y-70580861D01*
X101039139Y-70419953D01*
X100852734Y-70289432D01*
X100852733Y-70289431D01*
X100852731Y-70289430D01*
X100646500Y-70193262D01*
X100426689Y-70134364D01*
X100200000Y-70114531D01*
X99973310Y-70134364D01*
X99753499Y-70193262D01*
X99547268Y-70289430D01*
X99360864Y-70419950D01*
X99199950Y-70580864D01*
X99069430Y-70767268D01*
X98973262Y-70973499D01*
X98914364Y-71193310D01*
X98894531Y-71420000D01*
X96505468Y-71420000D01*
X96485635Y-71193308D01*
X96426739Y-70973504D01*
X96395396Y-70906290D01*
X96330569Y-70767268D01*
X96252637Y-70655969D01*
X96200047Y-70580861D01*
X96039139Y-70419953D01*
X95852734Y-70289432D01*
X95852733Y-70289431D01*
X95852731Y-70289430D01*
X95646500Y-70193262D01*
X95426689Y-70134364D01*
X95200000Y-70114531D01*
X94973310Y-70134364D01*
X94753499Y-70193262D01*
X94547268Y-70289430D01*
X94360864Y-70419950D01*
X94199950Y-70580864D01*
X94069430Y-70767268D01*
X93973262Y-70973499D01*
X93914364Y-71193310D01*
X93894531Y-71420000D01*
X89606818Y-71420000D01*
X89625250Y-71280000D01*
X89606330Y-71136291D01*
X89550861Y-71002375D01*
X89477132Y-70906290D01*
X89462621Y-70887378D01*
X89397552Y-70837450D01*
X89347625Y-70799139D01*
X89308401Y-70782892D01*
X89213709Y-70743669D01*
X89086717Y-70726951D01*
X89070000Y-70724750D01*
X89069999Y-70724750D01*
X88926290Y-70743669D01*
X88792375Y-70799139D01*
X88677378Y-70887378D01*
X88589139Y-71002375D01*
X88533669Y-71136290D01*
X88514750Y-71280000D01*
X84300500Y-71280000D01*
X84300500Y-69950000D01*
X117494721Y-69950000D01*
X117513762Y-70106815D01*
X117513762Y-70106817D01*
X117513763Y-70106818D01*
X117569780Y-70254523D01*
X117659517Y-70384530D01*
X117777760Y-70489283D01*
X117788346Y-70494839D01*
X117831085Y-70538624D01*
X117839925Y-70599167D01*
X117814947Y-70646757D01*
X117815313Y-70647038D01*
X117813688Y-70649154D01*
X117811490Y-70653344D01*
X117808459Y-70655969D01*
X117719139Y-70772375D01*
X117663669Y-70906290D01*
X117644750Y-71049999D01*
X117663669Y-71193709D01*
X117699412Y-71280000D01*
X117719139Y-71327625D01*
X117757450Y-71377552D01*
X117807378Y-71442621D01*
X117857306Y-71480932D01*
X117922375Y-71530861D01*
X118017067Y-71570083D01*
X118056290Y-71586330D01*
X118073008Y-71588531D01*
X118200000Y-71605250D01*
X118343709Y-71586330D01*
X118477625Y-71530861D01*
X118592621Y-71442621D01*
X118680861Y-71327625D01*
X118736330Y-71193709D01*
X118755250Y-71050000D01*
X118736330Y-70906291D01*
X118680861Y-70772375D01*
X118630932Y-70707306D01*
X118592621Y-70657378D01*
X118548444Y-70623480D01*
X118513788Y-70573056D01*
X118515389Y-70511891D01*
X118543061Y-70470836D01*
X118640483Y-70384530D01*
X118730220Y-70254523D01*
X118786237Y-70106818D01*
X118805278Y-69950000D01*
X118786237Y-69793182D01*
X118730220Y-69645477D01*
X118640483Y-69515470D01*
X118522240Y-69410717D01*
X118515286Y-69407067D01*
X118382363Y-69337302D01*
X118228987Y-69299500D01*
X118228985Y-69299500D01*
X118071015Y-69299500D01*
X118071013Y-69299500D01*
X117917636Y-69337302D01*
X117777761Y-69410716D01*
X117659517Y-69515470D01*
X117569780Y-69645476D01*
X117513762Y-69793184D01*
X117494721Y-69950000D01*
X84300500Y-69950000D01*
X84300500Y-68649999D01*
X99944750Y-68649999D01*
X99963669Y-68793709D01*
X99984380Y-68843709D01*
X100019139Y-68927625D01*
X100044642Y-68960861D01*
X100107378Y-69042621D01*
X100141230Y-69068596D01*
X100222375Y-69130861D01*
X100317067Y-69170083D01*
X100356290Y-69186330D01*
X100373008Y-69188531D01*
X100500000Y-69205250D01*
X100643709Y-69186330D01*
X100777625Y-69130861D01*
X100832154Y-69089018D01*
X100889827Y-69068596D01*
X100948493Y-69085973D01*
X100952686Y-69089020D01*
X101072375Y-69180861D01*
X101206290Y-69236330D01*
X101223008Y-69238531D01*
X101350000Y-69255250D01*
X101493709Y-69236330D01*
X101627625Y-69180861D01*
X101742621Y-69092621D01*
X101830861Y-68977625D01*
X101886330Y-68843709D01*
X101905250Y-68700000D01*
X101896129Y-68630723D01*
X101907279Y-68570564D01*
X101951661Y-68528446D01*
X102012323Y-68520460D01*
X102032167Y-68526337D01*
X102056291Y-68536330D01*
X102200000Y-68555250D01*
X102343709Y-68536330D01*
X102477625Y-68480861D01*
X102478747Y-68480000D01*
X113174750Y-68480000D01*
X113193669Y-68623709D01*
X113225270Y-68700000D01*
X113249139Y-68757625D01*
X113287450Y-68807552D01*
X113337378Y-68872621D01*
X113387306Y-68910932D01*
X113452375Y-68960861D01*
X113547067Y-69000083D01*
X113586290Y-69016330D01*
X113603008Y-69018531D01*
X113730000Y-69035250D01*
X113873709Y-69016330D01*
X114007625Y-68960861D01*
X114122621Y-68872621D01*
X114210861Y-68757625D01*
X114266330Y-68623709D01*
X114285250Y-68480000D01*
X114266330Y-68336291D01*
X114254354Y-68307379D01*
X114242030Y-68277625D01*
X114210861Y-68202375D01*
X114142794Y-68113669D01*
X114122621Y-68087378D01*
X114037625Y-68022159D01*
X114007625Y-67999139D01*
X113968401Y-67982892D01*
X113873709Y-67943669D01*
X113730000Y-67924750D01*
X113586290Y-67943669D01*
X113452375Y-67999139D01*
X113337378Y-68087378D01*
X113249139Y-68202375D01*
X113193669Y-68336290D01*
X113174750Y-68480000D01*
X102478747Y-68480000D01*
X102592621Y-68392621D01*
X102680861Y-68277625D01*
X102736330Y-68143709D01*
X102755250Y-68000000D01*
X102743445Y-67910335D01*
X102754595Y-67850177D01*
X102798977Y-67808059D01*
X102854518Y-67799262D01*
X102900000Y-67805250D01*
X103043709Y-67786330D01*
X103177625Y-67730861D01*
X103292621Y-67642621D01*
X103380861Y-67527625D01*
X103436330Y-67393709D01*
X103455250Y-67250000D01*
X103436330Y-67106291D01*
X103380861Y-66972375D01*
X103304128Y-66872375D01*
X103294633Y-66860000D01*
X108284750Y-66860000D01*
X108303669Y-67003709D01*
X108304739Y-67006291D01*
X108359139Y-67137625D01*
X108368635Y-67150000D01*
X108447378Y-67252621D01*
X108497306Y-67290932D01*
X108562375Y-67340861D01*
X108657067Y-67380083D01*
X108696290Y-67396330D01*
X108713008Y-67398531D01*
X108840000Y-67415250D01*
X108983709Y-67396330D01*
X109117625Y-67340861D01*
X109232621Y-67252621D01*
X109320861Y-67137625D01*
X109376330Y-67003709D01*
X109395250Y-66860000D01*
X109376330Y-66716291D01*
X109375244Y-66713670D01*
X109356799Y-66669139D01*
X109320861Y-66582375D01*
X109270932Y-66517306D01*
X109232621Y-66467378D01*
X109167552Y-66417450D01*
X109117625Y-66379139D01*
X109078401Y-66362892D01*
X108983709Y-66323669D01*
X108840000Y-66304750D01*
X108696290Y-66323669D01*
X108562375Y-66379139D01*
X108447378Y-66467378D01*
X108359139Y-66582375D01*
X108303669Y-66716290D01*
X108284750Y-66860000D01*
X103294633Y-66860000D01*
X103292621Y-66857378D01*
X103182724Y-66773052D01*
X103177625Y-66769139D01*
X103138401Y-66752892D01*
X103043709Y-66713669D01*
X102916717Y-66696951D01*
X102900000Y-66694750D01*
X102899999Y-66694750D01*
X102756289Y-66713669D01*
X102622375Y-66769138D01*
X102593456Y-66791328D01*
X102535780Y-66811751D01*
X102477115Y-66794373D01*
X102454648Y-66773052D01*
X102442621Y-66757378D01*
X102377552Y-66707450D01*
X102327625Y-66669139D01*
X102288401Y-66652892D01*
X102193709Y-66613669D01*
X102066717Y-66596951D01*
X102050000Y-66594750D01*
X102049999Y-66594750D01*
X101906290Y-66613669D01*
X101772375Y-66669139D01*
X101657378Y-66757378D01*
X101569139Y-66872375D01*
X101513669Y-67006290D01*
X101494750Y-67150000D01*
X101506554Y-67239662D01*
X101495404Y-67299823D01*
X101451021Y-67341940D01*
X101395480Y-67350737D01*
X101350001Y-67344750D01*
X101350000Y-67344750D01*
X101335024Y-67346721D01*
X101206290Y-67363669D01*
X101072375Y-67419139D01*
X100957378Y-67507378D01*
X100869139Y-67622375D01*
X100813669Y-67756290D01*
X100794750Y-67900000D01*
X100810832Y-68022159D01*
X100799682Y-68082320D01*
X100755299Y-68124437D01*
X100694637Y-68132423D01*
X100674794Y-68126545D01*
X100643710Y-68113669D01*
X100500000Y-68094750D01*
X100356290Y-68113669D01*
X100222375Y-68169139D01*
X100107378Y-68257378D01*
X100019139Y-68372375D01*
X99963669Y-68506290D01*
X99944750Y-68649999D01*
X84300500Y-68649999D01*
X84300500Y-65985542D01*
X118935500Y-65985542D01*
X118976443Y-66151654D01*
X119055950Y-66303141D01*
X119169399Y-66431199D01*
X119310198Y-66528385D01*
X119470164Y-66589052D01*
X119597389Y-66604500D01*
X119600376Y-66604500D01*
X119679624Y-66604500D01*
X119682611Y-66604500D01*
X119809836Y-66589052D01*
X119969802Y-66528385D01*
X120110601Y-66431199D01*
X120224050Y-66303141D01*
X120303557Y-66151654D01*
X120344500Y-65985542D01*
X120344500Y-65814458D01*
X120303557Y-65648346D01*
X120224050Y-65496859D01*
X120110601Y-65368801D01*
X119969802Y-65271615D01*
X119809836Y-65210948D01*
X119809835Y-65210947D01*
X119809833Y-65210947D01*
X119685578Y-65195860D01*
X119685573Y-65195859D01*
X119682611Y-65195500D01*
X119597389Y-65195500D01*
X119594427Y-65195859D01*
X119594421Y-65195860D01*
X119470166Y-65210947D01*
X119310197Y-65271615D01*
X119169398Y-65368800D01*
X119169399Y-65368801D01*
X119055950Y-65496859D01*
X118976443Y-65648346D01*
X118935500Y-65814458D01*
X118935500Y-65985542D01*
X84300500Y-65985542D01*
X84300500Y-65632025D01*
X102199500Y-65632025D01*
X102199501Y-65634864D01*
X102199828Y-65637687D01*
X102199829Y-65637697D01*
X102202415Y-65659990D01*
X102247793Y-65762764D01*
X102247794Y-65762765D01*
X102327235Y-65842206D01*
X102430009Y-65887585D01*
X102455135Y-65890500D01*
X104544864Y-65890499D01*
X104569991Y-65887585D01*
X104672765Y-65842206D01*
X104752206Y-65762765D01*
X104797585Y-65659991D01*
X104800500Y-65634865D01*
X104800499Y-63545136D01*
X104797585Y-63520009D01*
X104752206Y-63417235D01*
X104672765Y-63337794D01*
X104672764Y-63337793D01*
X104655114Y-63330000D01*
X106004750Y-63330000D01*
X106023669Y-63473709D01*
X106054438Y-63547991D01*
X106079139Y-63607625D01*
X106079141Y-63607627D01*
X106167378Y-63722621D01*
X106193443Y-63742621D01*
X106282375Y-63810861D01*
X106377067Y-63850083D01*
X106416290Y-63866330D01*
X106433008Y-63868531D01*
X106560000Y-63885250D01*
X106703709Y-63866330D01*
X106837625Y-63810861D01*
X106952621Y-63722621D01*
X107040861Y-63607625D01*
X107043536Y-63601164D01*
X107083271Y-63554640D01*
X107142766Y-63540356D01*
X107199294Y-63563770D01*
X107226462Y-63601163D01*
X107227845Y-63604500D01*
X107229140Y-63607627D01*
X107317378Y-63722621D01*
X107343443Y-63742621D01*
X107432375Y-63810861D01*
X107527067Y-63850083D01*
X107566290Y-63866330D01*
X107583008Y-63868531D01*
X107710000Y-63885250D01*
X107853709Y-63866330D01*
X107987625Y-63810861D01*
X108102621Y-63722621D01*
X108190861Y-63607625D01*
X108218536Y-63540808D01*
X108258271Y-63494285D01*
X108317765Y-63480001D01*
X108374293Y-63503415D01*
X108401463Y-63540810D01*
X108429139Y-63607625D01*
X108517378Y-63722621D01*
X108543443Y-63742621D01*
X108632375Y-63810861D01*
X108727067Y-63850083D01*
X108766290Y-63866330D01*
X108783008Y-63868531D01*
X108910000Y-63885250D01*
X109053709Y-63866330D01*
X109187625Y-63810861D01*
X109302621Y-63722621D01*
X109390861Y-63607625D01*
X109443535Y-63480455D01*
X109483272Y-63433929D01*
X109542767Y-63419645D01*
X109599295Y-63443060D01*
X109626464Y-63480455D01*
X109679139Y-63607625D01*
X109679141Y-63607627D01*
X109767378Y-63722621D01*
X109793443Y-63742621D01*
X109882375Y-63810861D01*
X109977067Y-63850083D01*
X110016290Y-63866330D01*
X110033008Y-63868531D01*
X110160000Y-63885250D01*
X110303709Y-63866330D01*
X110437625Y-63810861D01*
X110552621Y-63722621D01*
X110640861Y-63607625D01*
X110696330Y-63473709D01*
X110715250Y-63330000D01*
X110696330Y-63186291D01*
X110693723Y-63179998D01*
X110659025Y-63096228D01*
X110640861Y-63052375D01*
X110589578Y-62985542D01*
X118935500Y-62985542D01*
X118976443Y-63151654D01*
X119055950Y-63303141D01*
X119169399Y-63431199D01*
X119310198Y-63528385D01*
X119470164Y-63589052D01*
X119597389Y-63604500D01*
X119600376Y-63604500D01*
X119679624Y-63604500D01*
X119682611Y-63604500D01*
X119809836Y-63589052D01*
X119969802Y-63528385D01*
X120110601Y-63431199D01*
X120224050Y-63303141D01*
X120303557Y-63151654D01*
X120344500Y-62985542D01*
X120344500Y-62814458D01*
X120339642Y-62794750D01*
X120334713Y-62774750D01*
X120303557Y-62648346D01*
X120224050Y-62496859D01*
X120110601Y-62368801D01*
X119969802Y-62271615D01*
X119809836Y-62210948D01*
X119809835Y-62210947D01*
X119809833Y-62210947D01*
X119685578Y-62195860D01*
X119685573Y-62195859D01*
X119682611Y-62195500D01*
X119597389Y-62195500D01*
X119594427Y-62195859D01*
X119594421Y-62195860D01*
X119470166Y-62210947D01*
X119310197Y-62271615D01*
X119169399Y-62368801D01*
X119055949Y-62496860D01*
X118976443Y-62648346D01*
X118940358Y-62794750D01*
X118935500Y-62814458D01*
X118935500Y-62985542D01*
X110589578Y-62985542D01*
X110567219Y-62956403D01*
X110552621Y-62937378D01*
X110463688Y-62869138D01*
X110437625Y-62849139D01*
X110398401Y-62832892D01*
X110303709Y-62793669D01*
X110160000Y-62774750D01*
X110016290Y-62793669D01*
X109882375Y-62849139D01*
X109767378Y-62937378D01*
X109679139Y-63052374D01*
X109626464Y-63179545D01*
X109586727Y-63226070D01*
X109527233Y-63240354D01*
X109470705Y-63216939D01*
X109443536Y-63179545D01*
X109393536Y-63058834D01*
X109390861Y-63052375D01*
X109317219Y-62956403D01*
X109302621Y-62937378D01*
X109213688Y-62869138D01*
X109187625Y-62849139D01*
X109148401Y-62832892D01*
X109053709Y-62793669D01*
X108926717Y-62776951D01*
X108910000Y-62774750D01*
X108909999Y-62774750D01*
X108766290Y-62793669D01*
X108632375Y-62849139D01*
X108517378Y-62937378D01*
X108429140Y-63052373D01*
X108401463Y-63119190D01*
X108361725Y-63165715D01*
X108302230Y-63179998D01*
X108245703Y-63156582D01*
X108218535Y-63119188D01*
X108193536Y-63058834D01*
X108190861Y-63052375D01*
X108117219Y-62956403D01*
X108102621Y-62937378D01*
X108013688Y-62869138D01*
X107987625Y-62849139D01*
X107948401Y-62832892D01*
X107853709Y-62793669D01*
X107726717Y-62776951D01*
X107710000Y-62774750D01*
X107709999Y-62774750D01*
X107566290Y-62793669D01*
X107432375Y-62849139D01*
X107317378Y-62937378D01*
X107229139Y-63052374D01*
X107226464Y-63058834D01*
X107186727Y-63105359D01*
X107127232Y-63119643D01*
X107070704Y-63096228D01*
X107043536Y-63058834D01*
X107040861Y-63052375D01*
X106967219Y-62956403D01*
X106952621Y-62937378D01*
X106863688Y-62869138D01*
X106837625Y-62849139D01*
X106798401Y-62832892D01*
X106703709Y-62793669D01*
X106560000Y-62774750D01*
X106416290Y-62793669D01*
X106282375Y-62849139D01*
X106167378Y-62937378D01*
X106079139Y-63052375D01*
X106023669Y-63186290D01*
X106004750Y-63330000D01*
X104655114Y-63330000D01*
X104569989Y-63292414D01*
X104547714Y-63289830D01*
X104547704Y-63289829D01*
X104544865Y-63289500D01*
X104542000Y-63289500D01*
X102457991Y-63289500D01*
X102457973Y-63289500D01*
X102455136Y-63289501D01*
X102452313Y-63289828D01*
X102452302Y-63289829D01*
X102430009Y-63292415D01*
X102327235Y-63337793D01*
X102247793Y-63417235D01*
X102202414Y-63520010D01*
X102199830Y-63542285D01*
X102199829Y-63542296D01*
X102199500Y-63545135D01*
X102199500Y-63547991D01*
X102199500Y-63547999D01*
X102199500Y-65632008D01*
X102199500Y-65632025D01*
X84300500Y-65632025D01*
X84300500Y-63350000D01*
X85694750Y-63350000D01*
X85713669Y-63493709D01*
X85734971Y-63545135D01*
X85769139Y-63627625D01*
X85799650Y-63667387D01*
X85857378Y-63742621D01*
X85899576Y-63775000D01*
X85972375Y-63830861D01*
X86058006Y-63866330D01*
X86106290Y-63886330D01*
X86125210Y-63888820D01*
X86250000Y-63905250D01*
X86393709Y-63886330D01*
X86463036Y-63857613D01*
X86524032Y-63852813D01*
X86576201Y-63884782D01*
X86599616Y-63941310D01*
X86592386Y-63986963D01*
X86563669Y-64056293D01*
X86544750Y-64200000D01*
X86563669Y-64343709D01*
X86602892Y-64438401D01*
X86619139Y-64477625D01*
X86657450Y-64527552D01*
X86707378Y-64592621D01*
X86733649Y-64612779D01*
X86822375Y-64680861D01*
X86917067Y-64720083D01*
X86956290Y-64736330D01*
X86973008Y-64738531D01*
X87100000Y-64755250D01*
X87243709Y-64736330D01*
X87377625Y-64680861D01*
X87439735Y-64633201D01*
X87497408Y-64612779D01*
X87556074Y-64630156D01*
X87560234Y-64633178D01*
X87622375Y-64680861D01*
X87622376Y-64680861D01*
X87622377Y-64680862D01*
X87756290Y-64736330D01*
X87773008Y-64738531D01*
X87900000Y-64755250D01*
X88043709Y-64736330D01*
X88177625Y-64680861D01*
X88292621Y-64592621D01*
X88380861Y-64477625D01*
X88436330Y-64343709D01*
X88455250Y-64200000D01*
X88436330Y-64056291D01*
X88380861Y-63922375D01*
X88327484Y-63852813D01*
X88292621Y-63807378D01*
X88208227Y-63742621D01*
X88177625Y-63719139D01*
X88132442Y-63700424D01*
X88043709Y-63663669D01*
X87916717Y-63646951D01*
X87900000Y-63644750D01*
X87899999Y-63644750D01*
X87756293Y-63663669D01*
X87756290Y-63663670D01*
X87756291Y-63663670D01*
X87747317Y-63667387D01*
X87686321Y-63672186D01*
X87634152Y-63640216D01*
X87610738Y-63583688D01*
X87617969Y-63538036D01*
X87632310Y-63503415D01*
X87636330Y-63493709D01*
X87655250Y-63350000D01*
X87636330Y-63206291D01*
X87628045Y-63186290D01*
X87613699Y-63151654D01*
X87580861Y-63072375D01*
X87524999Y-62999575D01*
X87492621Y-62957378D01*
X87427552Y-62907450D01*
X87377625Y-62869139D01*
X87329340Y-62849139D01*
X87243709Y-62813669D01*
X87100000Y-62794750D01*
X86956290Y-62813669D01*
X86822374Y-62869139D01*
X86735266Y-62935979D01*
X86677590Y-62956403D01*
X86618924Y-62939025D01*
X86614752Y-62935994D01*
X86527625Y-62869139D01*
X86501475Y-62858307D01*
X86393709Y-62813669D01*
X86266717Y-62796951D01*
X86250000Y-62794750D01*
X86249999Y-62794750D01*
X86106290Y-62813669D01*
X85972375Y-62869139D01*
X85857378Y-62957378D01*
X85769139Y-63072375D01*
X85713669Y-63206290D01*
X85694750Y-63350000D01*
X84300500Y-63350000D01*
X84300500Y-61160000D01*
X107134750Y-61160000D01*
X107153669Y-61303709D01*
X107181464Y-61370811D01*
X107209139Y-61437625D01*
X107247450Y-61487552D01*
X107297378Y-61552621D01*
X107347306Y-61590932D01*
X107412375Y-61640861D01*
X107507067Y-61680083D01*
X107546290Y-61696330D01*
X107565209Y-61698820D01*
X107690000Y-61715250D01*
X107833709Y-61696330D01*
X107967625Y-61640861D01*
X108082621Y-61552621D01*
X108170861Y-61437625D01*
X108198535Y-61370811D01*
X108238272Y-61324285D01*
X108297767Y-61310001D01*
X108354295Y-61333416D01*
X108381464Y-61370811D01*
X108409139Y-61437625D01*
X108447450Y-61487552D01*
X108497378Y-61552621D01*
X108547306Y-61590932D01*
X108612375Y-61640861D01*
X108707067Y-61680083D01*
X108746290Y-61696330D01*
X108765209Y-61698820D01*
X108890000Y-61715250D01*
X109033709Y-61696330D01*
X109167625Y-61640861D01*
X109282621Y-61552621D01*
X109370861Y-61437625D01*
X109423535Y-61310455D01*
X109463272Y-61263929D01*
X109522767Y-61249645D01*
X109579295Y-61273060D01*
X109606464Y-61310455D01*
X109659139Y-61437625D01*
X109697450Y-61487552D01*
X109747378Y-61552621D01*
X109797306Y-61590932D01*
X109862375Y-61640861D01*
X109957067Y-61680083D01*
X109996290Y-61696330D01*
X110013008Y-61698531D01*
X110140000Y-61715250D01*
X110283709Y-61696330D01*
X110417625Y-61640861D01*
X110532621Y-61552621D01*
X110620861Y-61437625D01*
X110676330Y-61303709D01*
X110695250Y-61160000D01*
X110676330Y-61016291D01*
X110673723Y-61009998D01*
X110648536Y-60949189D01*
X110620861Y-60882375D01*
X110557829Y-60800230D01*
X110532621Y-60767378D01*
X110467552Y-60717450D01*
X110417625Y-60679139D01*
X110378401Y-60662892D01*
X110283709Y-60623669D01*
X110156717Y-60606951D01*
X110140000Y-60604750D01*
X110139999Y-60604750D01*
X109996290Y-60623669D01*
X109862375Y-60679139D01*
X109747378Y-60767378D01*
X109659139Y-60882374D01*
X109606464Y-61009545D01*
X109566727Y-61056070D01*
X109507233Y-61070354D01*
X109450705Y-61046939D01*
X109423536Y-61009545D01*
X109376284Y-60895468D01*
X109370861Y-60882375D01*
X109350329Y-60855618D01*
X109282621Y-60767378D01*
X109217552Y-60717450D01*
X109167625Y-60679139D01*
X109128401Y-60662892D01*
X109033709Y-60623669D01*
X108906717Y-60606951D01*
X108890000Y-60604750D01*
X108889999Y-60604750D01*
X108746290Y-60623669D01*
X108612375Y-60679139D01*
X108497378Y-60767378D01*
X108409139Y-60882374D01*
X108381464Y-60949189D01*
X108341727Y-60995714D01*
X108282232Y-61009998D01*
X108225704Y-60986583D01*
X108198536Y-60949189D01*
X108176284Y-60895468D01*
X108170861Y-60882375D01*
X108150329Y-60855618D01*
X108082621Y-60767378D01*
X108017552Y-60717450D01*
X107967625Y-60679139D01*
X107928401Y-60662892D01*
X107833709Y-60623669D01*
X107706717Y-60606951D01*
X107690000Y-60604750D01*
X107689999Y-60604750D01*
X107546290Y-60623669D01*
X107412375Y-60679139D01*
X107297378Y-60767378D01*
X107209139Y-60882375D01*
X107153669Y-61016290D01*
X107134750Y-61160000D01*
X84300500Y-61160000D01*
X84300500Y-58644999D01*
X92369750Y-58644999D01*
X92388669Y-58788709D01*
X92412296Y-58845748D01*
X92444139Y-58922625D01*
X92482450Y-58972552D01*
X92532378Y-59037621D01*
X92578252Y-59072821D01*
X92647375Y-59125861D01*
X92708864Y-59151330D01*
X92781290Y-59181330D01*
X92798008Y-59183531D01*
X92925000Y-59200250D01*
X93068709Y-59181330D01*
X93202625Y-59125861D01*
X93317621Y-59037621D01*
X93405861Y-58922625D01*
X93416081Y-58897951D01*
X95146581Y-58897951D01*
X95165500Y-59041660D01*
X95187951Y-59095861D01*
X95220970Y-59175576D01*
X95258751Y-59224813D01*
X95309209Y-59290572D01*
X95354076Y-59324999D01*
X95424206Y-59378812D01*
X95518898Y-59418034D01*
X95558121Y-59434281D01*
X95577041Y-59436771D01*
X95701831Y-59453201D01*
X95811978Y-59438699D01*
X95872137Y-59449849D01*
X95914255Y-59494231D01*
X95923052Y-59549773D01*
X95914145Y-59617433D01*
X95914145Y-59617434D01*
X95914509Y-59620197D01*
X95933064Y-59761143D01*
X95972287Y-59855835D01*
X95988534Y-59895059D01*
X96026845Y-59944986D01*
X96076773Y-60010055D01*
X96126701Y-60048366D01*
X96191770Y-60098295D01*
X96286462Y-60137517D01*
X96325685Y-60153764D01*
X96342403Y-60155965D01*
X96469395Y-60172684D01*
X96613104Y-60153764D01*
X96747020Y-60098295D01*
X96862016Y-60010055D01*
X96950256Y-59895059D01*
X96995754Y-59785214D01*
X97035489Y-59738690D01*
X97094983Y-59724406D01*
X97147484Y-59744559D01*
X97184048Y-59772615D01*
X97227375Y-59805861D01*
X97322067Y-59845083D01*
X97361290Y-59861330D01*
X97380209Y-59863820D01*
X97505000Y-59880250D01*
X97648709Y-59861330D01*
X97782625Y-59805861D01*
X97897621Y-59717621D01*
X97985861Y-59602625D01*
X97991091Y-59589999D01*
X102194531Y-59589999D01*
X102214364Y-59816689D01*
X102273262Y-60036500D01*
X102369430Y-60242731D01*
X102369431Y-60242733D01*
X102369432Y-60242734D01*
X102499953Y-60429139D01*
X102660861Y-60590047D01*
X102847266Y-60720568D01*
X102847267Y-60720568D01*
X102847268Y-60720569D01*
X103053499Y-60816737D01*
X103053500Y-60816737D01*
X103053504Y-60816739D01*
X103273308Y-60875635D01*
X103500000Y-60895468D01*
X103726692Y-60875635D01*
X103946496Y-60816739D01*
X104152734Y-60720568D01*
X104339139Y-60590047D01*
X104500047Y-60429139D01*
X104630568Y-60242734D01*
X104726739Y-60036496D01*
X104785635Y-59816692D01*
X104805468Y-59590000D01*
X104785635Y-59363308D01*
X104726739Y-59143504D01*
X104718511Y-59125860D01*
X104630569Y-58937268D01*
X104620315Y-58922624D01*
X104500047Y-58750861D01*
X104339139Y-58589953D01*
X104152734Y-58459432D01*
X104152733Y-58459431D01*
X104152731Y-58459430D01*
X103946500Y-58363262D01*
X103726689Y-58304364D01*
X103647628Y-58297447D01*
X112425000Y-58297447D01*
X112425257Y-58302482D01*
X112435494Y-58402697D01*
X112490642Y-58569122D01*
X112582681Y-58718341D01*
X112706658Y-58842318D01*
X112855878Y-58934357D01*
X112989957Y-58978787D01*
X113039247Y-59015038D01*
X113057815Y-59073338D01*
X113038570Y-59131418D01*
X113008318Y-59158498D01*
X112992783Y-59167467D01*
X112852113Y-59294126D01*
X112740848Y-59447271D01*
X112663856Y-59620195D01*
X112663856Y-59620197D01*
X112624500Y-59805354D01*
X112624500Y-59994646D01*
X112646531Y-60098294D01*
X112663856Y-60179804D01*
X112740848Y-60352728D01*
X112852113Y-60505873D01*
X112992781Y-60632531D01*
X112992783Y-60632532D01*
X112992784Y-60632533D01*
X113156716Y-60727179D01*
X113336744Y-60785674D01*
X113477808Y-60800500D01*
X113480389Y-60800500D01*
X114119611Y-60800500D01*
X114122192Y-60800500D01*
X114263256Y-60785674D01*
X114443284Y-60727179D01*
X114607216Y-60632533D01*
X114747888Y-60505871D01*
X114859151Y-60352730D01*
X114936144Y-60179803D01*
X114975500Y-59994646D01*
X114975500Y-59805354D01*
X114936144Y-59620197D01*
X114859151Y-59447270D01*
X114747888Y-59294129D01*
X114747886Y-59294126D01*
X114607216Y-59167467D01*
X114591682Y-59158498D01*
X114550741Y-59113028D01*
X114544347Y-59052177D01*
X114574940Y-58999190D01*
X114610043Y-58978787D01*
X114744121Y-58934357D01*
X114893341Y-58842318D01*
X115017318Y-58718341D01*
X115109357Y-58569121D01*
X115164506Y-58402694D01*
X115174742Y-58302499D01*
X115175000Y-58297448D01*
X115175000Y-58150001D01*
X115174999Y-58150000D01*
X114079560Y-58150000D01*
X114118278Y-58107941D01*
X114168551Y-57993330D01*
X114178886Y-57868605D01*
X114148163Y-57747281D01*
X114084606Y-57650000D01*
X115174998Y-57650000D01*
X115174999Y-57649999D01*
X115174999Y-57502552D01*
X115174742Y-57497517D01*
X115164505Y-57397302D01*
X115109357Y-57230877D01*
X115017318Y-57081658D01*
X114893341Y-56957681D01*
X114744121Y-56865642D01*
X114577694Y-56810493D01*
X114477499Y-56800257D01*
X114472449Y-56800000D01*
X114050001Y-56800000D01*
X114050000Y-56800001D01*
X114050000Y-57619382D01*
X113980948Y-57565637D01*
X113862576Y-57525000D01*
X113768927Y-57525000D01*
X113676554Y-57540414D01*
X113566486Y-57599981D01*
X113550000Y-57617889D01*
X113550000Y-56800000D01*
X113127552Y-56800000D01*
X113122517Y-56800257D01*
X113022302Y-56810494D01*
X112855877Y-56865642D01*
X112706658Y-56957681D01*
X112582681Y-57081658D01*
X112490642Y-57230878D01*
X112435493Y-57397305D01*
X112425257Y-57497500D01*
X112425000Y-57502551D01*
X112425000Y-57649998D01*
X112425001Y-57650000D01*
X113520440Y-57650000D01*
X113481722Y-57692059D01*
X113431449Y-57806670D01*
X113421114Y-57931395D01*
X113451837Y-58052719D01*
X113515394Y-58150000D01*
X112425002Y-58150000D01*
X112425000Y-58150001D01*
X112425000Y-58297447D01*
X103647628Y-58297447D01*
X103500000Y-58284531D01*
X103273310Y-58304364D01*
X103053499Y-58363262D01*
X102847268Y-58459430D01*
X102660864Y-58589950D01*
X102499950Y-58750864D01*
X102369430Y-58937268D01*
X102273262Y-59143499D01*
X102214364Y-59363310D01*
X102194531Y-59589999D01*
X97991091Y-59589999D01*
X98041330Y-59468709D01*
X98060250Y-59325000D01*
X98041330Y-59181291D01*
X98038962Y-59175575D01*
X98025083Y-59142067D01*
X97985861Y-59047375D01*
X97933231Y-58978787D01*
X97897621Y-58932378D01*
X97832552Y-58882450D01*
X97782625Y-58844139D01*
X97743401Y-58827892D01*
X97648709Y-58788669D01*
X97521717Y-58771951D01*
X97505000Y-58769750D01*
X97504999Y-58769750D01*
X97383468Y-58785750D01*
X97323307Y-58774600D01*
X97281190Y-58730217D01*
X97272393Y-58674676D01*
X97280250Y-58615000D01*
X97261330Y-58471291D01*
X97205861Y-58337375D01*
X97126817Y-58234363D01*
X97117621Y-58222378D01*
X97052552Y-58172450D01*
X97002625Y-58134139D01*
X96963401Y-58117892D01*
X96868709Y-58078669D01*
X96725000Y-58059750D01*
X96581290Y-58078669D01*
X96447375Y-58134139D01*
X96332378Y-58222378D01*
X96244139Y-58337374D01*
X96204620Y-58432781D01*
X96164883Y-58479307D01*
X96105388Y-58493590D01*
X96052889Y-58473437D01*
X95979455Y-58417089D01*
X95845540Y-58361620D01*
X95701831Y-58342701D01*
X95558121Y-58361620D01*
X95424206Y-58417090D01*
X95309209Y-58505329D01*
X95220970Y-58620326D01*
X95165500Y-58754241D01*
X95146581Y-58897951D01*
X93416081Y-58897951D01*
X93461330Y-58788709D01*
X93480250Y-58645000D01*
X93461330Y-58501291D01*
X93458140Y-58493590D01*
X93443991Y-58459430D01*
X93405861Y-58367375D01*
X93342293Y-58284532D01*
X93317621Y-58252378D01*
X93249384Y-58200019D01*
X93202625Y-58164139D01*
X93130198Y-58134139D01*
X93068709Y-58108669D01*
X92925000Y-58089750D01*
X92781290Y-58108669D01*
X92647375Y-58164139D01*
X92532378Y-58252378D01*
X92444139Y-58367375D01*
X92388669Y-58501290D01*
X92369750Y-58644999D01*
X84300500Y-58644999D01*
X84300500Y-55570000D01*
X85324750Y-55570000D01*
X85343669Y-55713709D01*
X85382892Y-55808401D01*
X85399139Y-55847625D01*
X85437450Y-55897552D01*
X85487378Y-55962621D01*
X85537306Y-56000932D01*
X85602375Y-56050861D01*
X85686946Y-56085891D01*
X85736290Y-56106330D01*
X85753008Y-56108531D01*
X85880000Y-56125250D01*
X86023709Y-56106330D01*
X86157625Y-56050861D01*
X86165263Y-56045000D01*
X89769750Y-56045000D01*
X89770522Y-56050861D01*
X89788669Y-56188709D01*
X89813444Y-56248520D01*
X89844139Y-56322625D01*
X89882450Y-56372552D01*
X89932378Y-56437621D01*
X89982306Y-56475932D01*
X90047375Y-56525861D01*
X90120935Y-56556330D01*
X90181290Y-56581330D01*
X90198008Y-56583531D01*
X90325000Y-56600250D01*
X90468709Y-56581330D01*
X90602625Y-56525861D01*
X90717621Y-56437621D01*
X90805861Y-56322625D01*
X90861330Y-56188709D01*
X90880250Y-56045000D01*
X90861330Y-55901291D01*
X90850974Y-55876290D01*
X90834691Y-55836979D01*
X90805861Y-55767375D01*
X90748997Y-55693269D01*
X94221481Y-55693269D01*
X94240400Y-55836979D01*
X94279623Y-55931671D01*
X94295870Y-55970895D01*
X94333549Y-56019999D01*
X94384109Y-56085891D01*
X94410746Y-56106330D01*
X94499106Y-56174131D01*
X94593798Y-56213353D01*
X94633021Y-56229600D01*
X94649739Y-56231801D01*
X94776731Y-56248520D01*
X94920440Y-56229600D01*
X95054356Y-56174131D01*
X95169352Y-56085891D01*
X95219913Y-56019999D01*
X102834750Y-56019999D01*
X102853669Y-56163709D01*
X102888799Y-56248519D01*
X102909139Y-56297625D01*
X102947450Y-56347552D01*
X102997378Y-56412621D01*
X103029959Y-56437621D01*
X103112375Y-56500861D01*
X103207067Y-56540083D01*
X103246290Y-56556330D01*
X103265209Y-56558820D01*
X103390000Y-56575250D01*
X103533709Y-56556330D01*
X103667625Y-56500861D01*
X103782621Y-56412621D01*
X103870861Y-56297625D01*
X103926330Y-56163709D01*
X103945250Y-56020000D01*
X103926330Y-55876291D01*
X103870861Y-55742375D01*
X103820932Y-55677306D01*
X103782621Y-55627378D01*
X103717552Y-55577450D01*
X103667625Y-55539139D01*
X103628401Y-55522892D01*
X103533709Y-55483669D01*
X103390000Y-55464750D01*
X103246290Y-55483669D01*
X103112375Y-55539139D01*
X102997378Y-55627378D01*
X102909139Y-55742375D01*
X102853669Y-55876290D01*
X102834750Y-56019999D01*
X95219913Y-56019999D01*
X95257592Y-55970895D01*
X95313061Y-55836979D01*
X95331981Y-55693270D01*
X95313061Y-55549561D01*
X95257592Y-55415645D01*
X95207663Y-55350576D01*
X95169352Y-55300648D01*
X95104283Y-55250720D01*
X95054356Y-55212409D01*
X95012930Y-55195250D01*
X94920440Y-55156939D01*
X94793448Y-55140221D01*
X94776731Y-55138020D01*
X94776730Y-55138020D01*
X94633021Y-55156939D01*
X94499106Y-55212409D01*
X94384109Y-55300648D01*
X94295870Y-55415645D01*
X94240400Y-55549560D01*
X94221481Y-55693269D01*
X90748997Y-55693269D01*
X90717621Y-55652378D01*
X90652552Y-55602450D01*
X90602625Y-55564139D01*
X90542269Y-55539139D01*
X90468709Y-55508669D01*
X90325000Y-55489750D01*
X90181290Y-55508669D01*
X90047375Y-55564139D01*
X89932378Y-55652378D01*
X89844139Y-55767375D01*
X89788669Y-55901290D01*
X89773041Y-56020000D01*
X89769750Y-56045000D01*
X86165263Y-56045000D01*
X86272621Y-55962621D01*
X86360861Y-55847625D01*
X86416330Y-55713709D01*
X86435250Y-55570000D01*
X86416330Y-55426291D01*
X86411920Y-55415645D01*
X86400083Y-55387067D01*
X86360861Y-55292375D01*
X86286334Y-55195250D01*
X86272621Y-55177378D01*
X86198964Y-55120860D01*
X86157625Y-55089139D01*
X86118401Y-55072892D01*
X86023709Y-55033669D01*
X85880000Y-55014750D01*
X85736290Y-55033669D01*
X85602375Y-55089139D01*
X85487378Y-55177378D01*
X85399139Y-55292375D01*
X85343669Y-55426290D01*
X85324750Y-55570000D01*
X84300500Y-55570000D01*
X84300500Y-54640000D01*
X102144750Y-54640000D01*
X102163669Y-54783709D01*
X102202018Y-54876290D01*
X102219139Y-54917625D01*
X102257450Y-54967552D01*
X102307378Y-55032621D01*
X102357306Y-55070932D01*
X102422375Y-55120861D01*
X102509476Y-55156939D01*
X102556290Y-55176330D01*
X102575209Y-55178820D01*
X102700000Y-55195250D01*
X102843709Y-55176330D01*
X102977625Y-55120861D01*
X103092621Y-55032621D01*
X103102305Y-55020000D01*
X105957250Y-55020000D01*
X105976169Y-55163709D01*
X106015392Y-55258401D01*
X106031639Y-55297625D01*
X106069950Y-55347552D01*
X106119878Y-55412621D01*
X106169806Y-55450932D01*
X106234875Y-55500861D01*
X106327288Y-55539139D01*
X106368790Y-55556330D01*
X106387709Y-55558820D01*
X106512500Y-55575250D01*
X106656209Y-55556330D01*
X106790125Y-55500861D01*
X106905121Y-55412621D01*
X106993361Y-55297625D01*
X107048830Y-55163709D01*
X107067750Y-55020000D01*
X107048830Y-54876291D01*
X106993361Y-54742375D01*
X106943432Y-54677306D01*
X106905121Y-54627378D01*
X106840052Y-54577450D01*
X106790125Y-54539139D01*
X106750901Y-54522892D01*
X106656209Y-54483669D01*
X106529217Y-54466951D01*
X106512500Y-54464750D01*
X106512499Y-54464750D01*
X106368790Y-54483669D01*
X106234875Y-54539139D01*
X106119878Y-54627378D01*
X106031639Y-54742375D01*
X105976169Y-54876290D01*
X105957250Y-55020000D01*
X103102305Y-55020000D01*
X103180861Y-54917625D01*
X103236330Y-54783709D01*
X103255250Y-54640000D01*
X103236330Y-54496291D01*
X103231102Y-54483670D01*
X103218242Y-54452621D01*
X103180861Y-54362375D01*
X103130932Y-54297306D01*
X103092621Y-54247378D01*
X103027552Y-54197450D01*
X102977625Y-54159139D01*
X102938401Y-54142892D01*
X102843709Y-54103669D01*
X102716717Y-54086951D01*
X102700000Y-54084750D01*
X102699999Y-54084750D01*
X102556290Y-54103669D01*
X102422375Y-54159139D01*
X102307378Y-54247378D01*
X102219139Y-54362375D01*
X102163669Y-54496290D01*
X102144750Y-54640000D01*
X84300500Y-54640000D01*
X84300500Y-53429999D01*
X85454750Y-53429999D01*
X85473669Y-53573709D01*
X85512468Y-53667378D01*
X85529139Y-53707625D01*
X85567450Y-53757552D01*
X85617378Y-53822621D01*
X85667306Y-53860932D01*
X85732375Y-53910861D01*
X85827067Y-53950083D01*
X85866290Y-53966330D01*
X85885210Y-53968820D01*
X86010000Y-53985250D01*
X86153709Y-53966330D01*
X86287625Y-53910861D01*
X86402621Y-53822621D01*
X86490861Y-53707625D01*
X86546330Y-53573709D01*
X86547866Y-53562045D01*
X92552704Y-53562045D01*
X92571623Y-53705754D01*
X92603361Y-53782375D01*
X92627093Y-53839670D01*
X92665404Y-53889597D01*
X92715332Y-53954666D01*
X92765260Y-53992977D01*
X92830329Y-54042906D01*
X92925021Y-54082128D01*
X92964244Y-54098375D01*
X92980962Y-54100576D01*
X93107954Y-54117295D01*
X93251663Y-54098375D01*
X93344310Y-54060000D01*
X115444750Y-54060000D01*
X115463669Y-54203709D01*
X115481758Y-54247379D01*
X115519139Y-54337625D01*
X115557450Y-54387552D01*
X115607378Y-54452621D01*
X115657306Y-54490932D01*
X115722375Y-54540861D01*
X115817067Y-54580083D01*
X115856290Y-54596330D01*
X115873008Y-54598531D01*
X116000000Y-54615250D01*
X116143709Y-54596330D01*
X116277625Y-54540861D01*
X116392621Y-54452621D01*
X116480861Y-54337625D01*
X116536330Y-54203709D01*
X116555250Y-54060000D01*
X116536330Y-53916291D01*
X116534080Y-53910860D01*
X116504593Y-53839670D01*
X116480861Y-53782375D01*
X116423502Y-53707624D01*
X116392621Y-53667378D01*
X116327552Y-53617450D01*
X116277625Y-53579139D01*
X116236356Y-53562045D01*
X116143709Y-53523669D01*
X116000000Y-53504750D01*
X115856290Y-53523669D01*
X115722375Y-53579139D01*
X115607378Y-53667378D01*
X115519139Y-53782375D01*
X115463669Y-53916290D01*
X115444750Y-54060000D01*
X93344310Y-54060000D01*
X93385579Y-54042906D01*
X93500575Y-53954666D01*
X93588815Y-53839670D01*
X93644284Y-53705754D01*
X93663204Y-53562045D01*
X93645820Y-53430000D01*
X93644284Y-53418335D01*
X93628037Y-53379112D01*
X93588815Y-53284420D01*
X93538886Y-53219351D01*
X93500575Y-53169423D01*
X93435506Y-53119495D01*
X93385579Y-53081184D01*
X93346355Y-53064937D01*
X93251663Y-53025714D01*
X93107954Y-53006795D01*
X92964244Y-53025714D01*
X92830329Y-53081184D01*
X92715332Y-53169423D01*
X92627093Y-53284420D01*
X92571623Y-53418335D01*
X92552704Y-53562045D01*
X86547866Y-53562045D01*
X86565250Y-53430000D01*
X86546330Y-53286291D01*
X86490861Y-53152375D01*
X86435517Y-53080250D01*
X86402621Y-53037378D01*
X86337552Y-52987450D01*
X86287625Y-52949139D01*
X86248401Y-52932892D01*
X86153709Y-52893669D01*
X86026717Y-52876951D01*
X86010000Y-52874750D01*
X86009999Y-52874750D01*
X85866290Y-52893669D01*
X85732375Y-52949139D01*
X85617378Y-53037378D01*
X85529139Y-53152375D01*
X85473669Y-53286290D01*
X85454750Y-53429999D01*
X84300500Y-53429999D01*
X84300500Y-51819999D01*
X86614750Y-51819999D01*
X86633669Y-51963709D01*
X86663458Y-52035625D01*
X86689139Y-52097625D01*
X86715806Y-52132378D01*
X86777378Y-52212621D01*
X86785525Y-52218872D01*
X86892375Y-52300861D01*
X86987067Y-52340083D01*
X87026290Y-52356330D01*
X87045209Y-52358820D01*
X87170000Y-52375250D01*
X87313709Y-52356330D01*
X87447625Y-52300861D01*
X87562621Y-52212621D01*
X87588163Y-52179334D01*
X91913162Y-52179334D01*
X91932081Y-52323043D01*
X91960323Y-52391224D01*
X91987551Y-52456959D01*
X92004819Y-52479463D01*
X92075790Y-52571955D01*
X92125718Y-52610266D01*
X92190787Y-52660195D01*
X92285479Y-52699417D01*
X92324702Y-52715664D01*
X92343622Y-52718154D01*
X92468412Y-52734584D01*
X92612121Y-52715664D01*
X92746037Y-52660195D01*
X92861033Y-52571955D01*
X92949273Y-52456959D01*
X93004742Y-52323043D01*
X93023662Y-52179334D01*
X93004742Y-52035625D01*
X92980770Y-51977752D01*
X92975970Y-51916758D01*
X93007939Y-51864589D01*
X93064467Y-51841174D01*
X93123962Y-51855457D01*
X93132502Y-51861327D01*
X93176623Y-51895181D01*
X93222699Y-51930537D01*
X93310433Y-51966877D01*
X93356614Y-51986006D01*
X93373332Y-51988207D01*
X93500324Y-52004926D01*
X93548351Y-51998603D01*
X94543717Y-51998603D01*
X94562636Y-52142312D01*
X94594349Y-52218872D01*
X94618106Y-52276228D01*
X94654029Y-52323043D01*
X94706345Y-52391224D01*
X94756273Y-52429535D01*
X94821342Y-52479464D01*
X94916034Y-52518686D01*
X94955257Y-52534933D01*
X94971975Y-52537134D01*
X95098967Y-52553853D01*
X95242676Y-52534933D01*
X95266659Y-52524999D01*
X110119750Y-52524999D01*
X110138669Y-52668709D01*
X110158119Y-52715664D01*
X110194139Y-52802625D01*
X110232450Y-52852552D01*
X110282378Y-52917621D01*
X110323454Y-52949139D01*
X110397375Y-53005861D01*
X110492067Y-53045083D01*
X110531290Y-53061330D01*
X110548008Y-53063531D01*
X110675000Y-53080250D01*
X110818709Y-53061330D01*
X110952625Y-53005861D01*
X111067621Y-52917621D01*
X111155861Y-52802625D01*
X111211330Y-52668709D01*
X111230250Y-52525000D01*
X111212327Y-52388861D01*
X111211330Y-52381290D01*
X111178015Y-52300861D01*
X111155861Y-52247375D01*
X111103651Y-52179334D01*
X111067621Y-52132378D01*
X111021678Y-52097125D01*
X110987022Y-52046701D01*
X110988623Y-51985536D01*
X111025871Y-51936995D01*
X111084536Y-51919617D01*
X111094865Y-51920429D01*
X111198873Y-51934123D01*
X111342582Y-51915203D01*
X111476498Y-51859734D01*
X111591494Y-51771494D01*
X111679734Y-51656498D01*
X111735203Y-51522582D01*
X111754123Y-51378873D01*
X111735203Y-51235164D01*
X111716496Y-51190000D01*
X117153032Y-51190000D01*
X117159334Y-51219645D01*
X117211440Y-51336677D01*
X117219999Y-51376944D01*
X117219999Y-55739998D01*
X117220000Y-55739999D01*
X117220000Y-55740000D01*
X117220001Y-55740000D01*
X119469999Y-55740000D01*
X119470000Y-55740000D01*
X119470000Y-49990000D01*
X117220000Y-49990000D01*
X117219999Y-49990001D01*
X117219999Y-50503053D01*
X117211440Y-50543319D01*
X117159334Y-50660352D01*
X117153032Y-50689999D01*
X117164471Y-50704124D01*
X117179191Y-50708907D01*
X117215155Y-50758407D01*
X117220000Y-50789000D01*
X117220000Y-51091000D01*
X117201093Y-51149191D01*
X117164622Y-51175688D01*
X117153032Y-51190000D01*
X111716496Y-51190000D01*
X111679734Y-51101248D01*
X111592422Y-50987461D01*
X111591494Y-50986251D01*
X111526425Y-50936323D01*
X111476498Y-50898012D01*
X111423047Y-50875872D01*
X111342582Y-50842542D01*
X111198873Y-50823623D01*
X111055163Y-50842542D01*
X110921248Y-50898012D01*
X110806251Y-50986251D01*
X110718012Y-51101248D01*
X110662542Y-51235163D01*
X110643623Y-51378873D01*
X110662542Y-51522582D01*
X110691870Y-51593385D01*
X110718012Y-51656498D01*
X110733199Y-51676290D01*
X110806251Y-51771494D01*
X110852194Y-51806747D01*
X110886850Y-51857171D01*
X110885249Y-51918335D01*
X110848002Y-51966877D01*
X110789336Y-51984255D01*
X110779006Y-51983442D01*
X110675000Y-51969750D01*
X110531290Y-51988669D01*
X110397375Y-52044139D01*
X110282378Y-52132378D01*
X110194139Y-52247375D01*
X110138669Y-52381290D01*
X110119750Y-52524999D01*
X95266659Y-52524999D01*
X95376592Y-52479464D01*
X95491588Y-52391224D01*
X95579828Y-52276228D01*
X95635297Y-52142312D01*
X95654217Y-51998603D01*
X95642420Y-51908998D01*
X96034443Y-51908998D01*
X96053362Y-52052707D01*
X96071968Y-52097625D01*
X96108832Y-52186623D01*
X96128781Y-52212621D01*
X96197071Y-52301619D01*
X96224992Y-52323043D01*
X96312068Y-52389859D01*
X96406760Y-52429081D01*
X96445983Y-52445328D01*
X96462701Y-52447529D01*
X96589693Y-52464248D01*
X96733402Y-52445328D01*
X96867318Y-52389859D01*
X96982314Y-52301619D01*
X97045808Y-52218871D01*
X97096232Y-52184216D01*
X97157396Y-52185817D01*
X97202892Y-52218872D01*
X97265620Y-52300621D01*
X97315548Y-52338932D01*
X97380617Y-52388861D01*
X97475309Y-52428083D01*
X97514532Y-52444330D01*
X97522113Y-52445328D01*
X97658242Y-52463250D01*
X97801951Y-52444330D01*
X97935867Y-52388861D01*
X98050863Y-52300621D01*
X98139103Y-52185625D01*
X98194572Y-52051709D01*
X98213492Y-51908000D01*
X98195520Y-51771494D01*
X98194572Y-51764290D01*
X98173017Y-51712251D01*
X98139103Y-51630375D01*
X98071578Y-51542375D01*
X98050863Y-51515378D01*
X97981653Y-51462272D01*
X97935867Y-51427139D01*
X97896643Y-51410892D01*
X97801951Y-51371669D01*
X97665822Y-51353748D01*
X97658242Y-51352750D01*
X97658241Y-51352750D01*
X97514532Y-51371669D01*
X97380617Y-51427139D01*
X97265622Y-51515377D01*
X97202126Y-51598126D01*
X97151701Y-51632781D01*
X97090537Y-51631179D01*
X97045042Y-51598125D01*
X96982314Y-51516376D01*
X96895388Y-51449676D01*
X96867318Y-51428137D01*
X96828094Y-51411890D01*
X96733402Y-51372667D01*
X96589693Y-51353748D01*
X96445983Y-51372667D01*
X96312068Y-51428137D01*
X96197071Y-51516376D01*
X96108832Y-51631373D01*
X96053362Y-51765288D01*
X96034443Y-51908998D01*
X95642420Y-51908998D01*
X95635297Y-51854894D01*
X95630079Y-51842297D01*
X95615354Y-51806747D01*
X95579828Y-51720978D01*
X95519996Y-51643004D01*
X95491588Y-51605981D01*
X95408694Y-51542375D01*
X95376592Y-51517742D01*
X95337368Y-51501495D01*
X95242676Y-51462272D01*
X95098967Y-51443353D01*
X94955257Y-51462272D01*
X94821342Y-51517742D01*
X94706345Y-51605981D01*
X94618106Y-51720978D01*
X94562636Y-51854893D01*
X94543717Y-51998603D01*
X93548351Y-51998603D01*
X93644033Y-51986006D01*
X93777949Y-51930537D01*
X93892945Y-51842297D01*
X93981185Y-51727301D01*
X94036654Y-51593385D01*
X94055574Y-51449676D01*
X94036654Y-51305967D01*
X94036653Y-51305965D01*
X94007326Y-51235163D01*
X93981185Y-51172051D01*
X93897784Y-51063361D01*
X93892945Y-51057054D01*
X93802249Y-50987461D01*
X93767593Y-50937037D01*
X93769194Y-50875872D01*
X93771052Y-50871033D01*
X93775569Y-50860127D01*
X93775571Y-50860125D01*
X93831040Y-50726209D01*
X93836642Y-50683652D01*
X93862982Y-50628429D01*
X93916752Y-50599233D01*
X93972678Y-50605110D01*
X94007080Y-50619360D01*
X94150789Y-50638280D01*
X94294498Y-50619360D01*
X94428414Y-50563891D01*
X94543410Y-50475651D01*
X94609133Y-50389999D01*
X103284750Y-50389999D01*
X103303669Y-50533709D01*
X103333245Y-50605111D01*
X103359139Y-50667625D01*
X103376308Y-50690000D01*
X103447378Y-50782621D01*
X103497306Y-50820932D01*
X103562375Y-50870861D01*
X103657067Y-50910083D01*
X103696290Y-50926330D01*
X103713008Y-50928531D01*
X103840000Y-50945250D01*
X103983709Y-50926330D01*
X104117625Y-50870861D01*
X104232621Y-50782621D01*
X104320861Y-50667625D01*
X104376330Y-50533709D01*
X104395250Y-50390000D01*
X104376330Y-50246291D01*
X104376329Y-50246289D01*
X104375230Y-50237939D01*
X104386380Y-50177779D01*
X104430762Y-50135661D01*
X104486304Y-50126864D01*
X104550000Y-50135250D01*
X104693709Y-50116330D01*
X104827625Y-50060861D01*
X104942621Y-49972621D01*
X105030861Y-49857625D01*
X105086330Y-49723709D01*
X105105250Y-49580000D01*
X105086330Y-49436291D01*
X105030861Y-49302375D01*
X104965641Y-49217379D01*
X104942621Y-49187378D01*
X104877552Y-49137450D01*
X104827625Y-49099139D01*
X104788401Y-49082892D01*
X104693709Y-49043669D01*
X104550000Y-49024750D01*
X104406290Y-49043669D01*
X104272375Y-49099139D01*
X104157378Y-49187378D01*
X104069139Y-49302375D01*
X104013669Y-49436290D01*
X103994750Y-49580000D01*
X104014769Y-49732060D01*
X104003619Y-49792221D01*
X103959236Y-49834338D01*
X103903695Y-49843135D01*
X103840000Y-49834750D01*
X103696290Y-49853669D01*
X103562375Y-49909139D01*
X103447378Y-49997378D01*
X103359139Y-50112375D01*
X103303669Y-50246290D01*
X103284750Y-50389999D01*
X94609133Y-50389999D01*
X94631650Y-50360655D01*
X94687119Y-50226739D01*
X94706039Y-50083030D01*
X94687119Y-49939321D01*
X94631650Y-49805405D01*
X94543410Y-49690409D01*
X94539283Y-49687242D01*
X94504628Y-49636817D01*
X94506230Y-49575653D01*
X94539286Y-49530157D01*
X94541819Y-49528214D01*
X94630059Y-49413218D01*
X94685528Y-49279302D01*
X94704448Y-49135593D01*
X94685528Y-48991884D01*
X94685104Y-48990861D01*
X94669281Y-48952660D01*
X94630059Y-48857968D01*
X94576082Y-48787624D01*
X94541819Y-48742971D01*
X94476750Y-48693043D01*
X94426823Y-48654732D01*
X94387599Y-48638485D01*
X94292907Y-48599262D01*
X94165915Y-48582544D01*
X94149198Y-48580343D01*
X94149197Y-48580343D01*
X94085469Y-48588733D01*
X94025308Y-48577583D01*
X93983191Y-48533200D01*
X93974394Y-48503505D01*
X93956330Y-48366291D01*
X93956330Y-48366290D01*
X93956330Y-48366289D01*
X93925815Y-48292621D01*
X93900861Y-48232375D01*
X93832878Y-48143778D01*
X93812621Y-48117378D01*
X93747552Y-48067450D01*
X93697625Y-48029139D01*
X93658401Y-48012892D01*
X93563709Y-47973669D01*
X93420000Y-47954750D01*
X93276290Y-47973669D01*
X93142375Y-48029139D01*
X93027378Y-48117378D01*
X92939139Y-48232375D01*
X92883669Y-48366290D01*
X92864750Y-48509999D01*
X92883669Y-48653709D01*
X92920643Y-48742971D01*
X92939139Y-48787625D01*
X92977450Y-48837552D01*
X93027378Y-48902621D01*
X93120120Y-48973784D01*
X93154776Y-49024208D01*
X93153175Y-49085373D01*
X93120121Y-49130868D01*
X93007377Y-49217380D01*
X92919139Y-49332375D01*
X92863669Y-49466290D01*
X92844750Y-49609999D01*
X92863669Y-49753709D01*
X92897067Y-49834338D01*
X92919139Y-49887625D01*
X92955549Y-49935075D01*
X92998530Y-49991090D01*
X93018954Y-50048766D01*
X93001576Y-50107432D01*
X92980255Y-50129899D01*
X92902088Y-50189878D01*
X92813849Y-50304875D01*
X92758379Y-50438790D01*
X92739460Y-50582500D01*
X92758379Y-50726209D01*
X92781746Y-50782621D01*
X92813849Y-50860125D01*
X92842921Y-50898012D01*
X92875139Y-50940000D01*
X92902089Y-50975121D01*
X92918171Y-50987461D01*
X92992785Y-51044715D01*
X93027440Y-51095140D01*
X93025838Y-51156304D01*
X93023981Y-51161142D01*
X92963993Y-51305965D01*
X92945074Y-51449676D01*
X92963993Y-51593384D01*
X92987964Y-51651254D01*
X92992765Y-51712251D01*
X92960795Y-51764420D01*
X92904267Y-51787835D01*
X92844773Y-51773551D01*
X92836233Y-51767682D01*
X92746037Y-51698473D01*
X92612121Y-51643003D01*
X92468412Y-51624084D01*
X92324702Y-51643003D01*
X92190787Y-51698473D01*
X92075790Y-51786712D01*
X91987551Y-51901709D01*
X91932081Y-52035624D01*
X91913162Y-52179334D01*
X87588163Y-52179334D01*
X87650861Y-52097625D01*
X87706330Y-51963709D01*
X87725250Y-51820000D01*
X87706330Y-51676291D01*
X87695959Y-51651254D01*
X87673953Y-51598125D01*
X87650861Y-51542375D01*
X87589396Y-51462273D01*
X87562621Y-51427378D01*
X87496893Y-51376944D01*
X87447625Y-51339139D01*
X87408401Y-51322892D01*
X87313709Y-51283669D01*
X87170000Y-51264750D01*
X87026290Y-51283669D01*
X86892375Y-51339139D01*
X86777378Y-51427378D01*
X86689139Y-51542375D01*
X86633669Y-51676290D01*
X86614750Y-51819999D01*
X84300500Y-51819999D01*
X84300500Y-49232499D01*
X84694750Y-49232499D01*
X84713669Y-49376209D01*
X84728998Y-49413215D01*
X84769139Y-49510125D01*
X84784508Y-49530154D01*
X84857378Y-49625121D01*
X84872621Y-49636817D01*
X84972375Y-49713361D01*
X85067067Y-49752583D01*
X85106290Y-49768830D01*
X85125210Y-49771320D01*
X85250000Y-49787750D01*
X85393709Y-49768830D01*
X85527625Y-49713361D01*
X85642621Y-49625121D01*
X85730861Y-49510125D01*
X85786330Y-49376209D01*
X85805250Y-49232500D01*
X85786330Y-49088791D01*
X85784914Y-49085373D01*
X85768742Y-49046330D01*
X85730861Y-48954875D01*
X85662089Y-48865250D01*
X85642621Y-48839878D01*
X85574521Y-48787624D01*
X85527625Y-48751639D01*
X85488401Y-48735392D01*
X85393709Y-48696169D01*
X85250000Y-48677250D01*
X85106290Y-48696169D01*
X84972375Y-48751639D01*
X84857378Y-48839878D01*
X84769139Y-48954875D01*
X84713669Y-49088790D01*
X84694750Y-49232499D01*
X84300500Y-49232499D01*
X84300500Y-47900000D01*
X100824750Y-47900000D01*
X100843669Y-48043709D01*
X100882892Y-48138401D01*
X100899139Y-48177625D01*
X100932485Y-48221082D01*
X100987378Y-48292621D01*
X101037306Y-48330932D01*
X101102375Y-48380861D01*
X101197067Y-48420083D01*
X101236290Y-48436330D01*
X101253008Y-48438531D01*
X101380000Y-48455250D01*
X101523709Y-48436330D01*
X101657625Y-48380861D01*
X101772621Y-48292621D01*
X101860861Y-48177625D01*
X101860861Y-48177622D01*
X101861468Y-48176833D01*
X101911892Y-48142177D01*
X101973056Y-48143778D01*
X102000277Y-48158558D01*
X102042375Y-48190861D01*
X102176290Y-48246330D01*
X102193008Y-48248531D01*
X102320000Y-48265250D01*
X102463709Y-48246330D01*
X102590255Y-48193913D01*
X102651248Y-48189113D01*
X102703417Y-48221082D01*
X102726832Y-48277610D01*
X102726290Y-48298298D01*
X102724749Y-48309997D01*
X102743669Y-48453709D01*
X102766986Y-48510000D01*
X102799139Y-48587625D01*
X102822185Y-48617659D01*
X102887378Y-48702621D01*
X102937306Y-48740932D01*
X103002375Y-48790861D01*
X103097067Y-48830083D01*
X103136290Y-48846330D01*
X103153008Y-48848531D01*
X103280000Y-48865250D01*
X103423709Y-48846330D01*
X103557625Y-48790861D01*
X103672621Y-48702621D01*
X103760861Y-48587625D01*
X103816330Y-48453709D01*
X103835250Y-48310000D01*
X103816330Y-48166291D01*
X103760861Y-48032375D01*
X103688202Y-47937684D01*
X103667779Y-47880011D01*
X103685156Y-47821345D01*
X103688179Y-47817184D01*
X103710861Y-47787625D01*
X103766330Y-47653709D01*
X103785250Y-47510000D01*
X103766330Y-47366291D01*
X103765244Y-47363670D01*
X103726369Y-47269816D01*
X103710861Y-47232375D01*
X103651297Y-47154750D01*
X103622621Y-47117378D01*
X103557552Y-47067450D01*
X103507625Y-47029139D01*
X103468401Y-47012892D01*
X103373709Y-46973669D01*
X103246717Y-46956951D01*
X103230000Y-46954750D01*
X103229999Y-46954750D01*
X103086290Y-46973669D01*
X102952375Y-47029139D01*
X102837380Y-47117377D01*
X102754819Y-47224972D01*
X102704394Y-47259627D01*
X102643230Y-47258025D01*
X102616012Y-47243248D01*
X102597625Y-47229139D01*
X102597624Y-47229138D01*
X102597622Y-47229137D01*
X102463709Y-47173669D01*
X102336717Y-47156951D01*
X102320000Y-47154750D01*
X102319999Y-47154750D01*
X102176290Y-47173669D01*
X102042375Y-47229139D01*
X101927380Y-47317377D01*
X101838531Y-47433167D01*
X101788106Y-47467822D01*
X101726942Y-47466220D01*
X101699722Y-47451441D01*
X101685059Y-47440190D01*
X101657625Y-47419139D01*
X101618401Y-47402892D01*
X101523709Y-47363669D01*
X101380000Y-47344750D01*
X101236290Y-47363669D01*
X101102375Y-47419139D01*
X100987378Y-47507378D01*
X100899139Y-47622375D01*
X100843669Y-47756290D01*
X100824750Y-47900000D01*
X84300500Y-47900000D01*
X84300500Y-44437499D01*
X88994750Y-44437499D01*
X89013669Y-44581209D01*
X89052892Y-44675901D01*
X89069139Y-44715125D01*
X89095044Y-44748885D01*
X89157378Y-44830121D01*
X89207306Y-44868432D01*
X89272375Y-44918361D01*
X89367067Y-44957583D01*
X89406290Y-44973830D01*
X89423008Y-44976031D01*
X89550000Y-44992750D01*
X89646844Y-44980000D01*
X104054750Y-44980000D01*
X104056429Y-44992750D01*
X104073669Y-45123709D01*
X104109412Y-45209999D01*
X104129139Y-45257625D01*
X104167450Y-45307552D01*
X104217378Y-45372621D01*
X104267306Y-45410932D01*
X104332375Y-45460861D01*
X104427067Y-45500083D01*
X104466290Y-45516330D01*
X104488078Y-45519198D01*
X104610000Y-45535250D01*
X104647047Y-45530372D01*
X104707204Y-45541521D01*
X104749322Y-45585903D01*
X104758120Y-45615602D01*
X104773669Y-45733708D01*
X104795552Y-45786539D01*
X104800351Y-45847535D01*
X104768381Y-45899704D01*
X104764355Y-45902964D01*
X104667379Y-45977377D01*
X104579139Y-46092375D01*
X104523669Y-46226290D01*
X104504750Y-46369999D01*
X104523669Y-46513709D01*
X104568307Y-46621475D01*
X104579139Y-46647625D01*
X104667379Y-46762621D01*
X104667381Y-46762622D01*
X104675314Y-46772961D01*
X104673325Y-46774486D01*
X104697361Y-46809455D01*
X104695762Y-46870619D01*
X104680982Y-46897843D01*
X104639138Y-46952375D01*
X104583669Y-47086290D01*
X104564750Y-47230000D01*
X104583669Y-47373709D01*
X104607970Y-47432375D01*
X104639139Y-47507625D01*
X104677450Y-47557552D01*
X104727378Y-47622621D01*
X104767893Y-47653709D01*
X104842375Y-47710861D01*
X104937067Y-47750083D01*
X104976290Y-47766330D01*
X104993008Y-47768531D01*
X105120000Y-47785250D01*
X105263709Y-47766330D01*
X105397625Y-47710861D01*
X105512621Y-47622621D01*
X105600861Y-47507625D01*
X105656330Y-47373709D01*
X105675250Y-47230000D01*
X105656330Y-47086291D01*
X105600861Y-46952375D01*
X105512621Y-46837379D01*
X105512618Y-46837377D01*
X105504686Y-46827039D01*
X105506674Y-46825513D01*
X105482638Y-46790542D01*
X105484238Y-46729377D01*
X105499015Y-46702159D01*
X105540861Y-46647625D01*
X105544020Y-46639999D01*
X115164435Y-46639999D01*
X115184632Y-46819258D01*
X115212131Y-46897843D01*
X115244211Y-46989522D01*
X115340184Y-47142262D01*
X115467738Y-47269816D01*
X115620478Y-47365789D01*
X115728851Y-47403710D01*
X115790741Y-47425367D01*
X115790742Y-47425367D01*
X115790745Y-47425368D01*
X115925046Y-47440500D01*
X115927813Y-47440500D01*
X117112187Y-47440500D01*
X117114954Y-47440500D01*
X117249255Y-47425368D01*
X117419522Y-47365789D01*
X117572262Y-47269816D01*
X117699816Y-47142262D01*
X117795789Y-46989522D01*
X117855368Y-46819255D01*
X117875565Y-46640000D01*
X119594435Y-46640000D01*
X119614632Y-46819258D01*
X119642131Y-46897843D01*
X119674211Y-46989522D01*
X119770184Y-47142262D01*
X119897738Y-47269816D01*
X120050478Y-47365789D01*
X120158851Y-47403710D01*
X120220741Y-47425367D01*
X120220742Y-47425367D01*
X120220745Y-47425368D01*
X120355046Y-47440500D01*
X120357813Y-47440500D01*
X121042187Y-47440500D01*
X121044954Y-47440500D01*
X121179255Y-47425368D01*
X121349522Y-47365789D01*
X121502262Y-47269816D01*
X121629816Y-47142262D01*
X121725789Y-46989522D01*
X121785368Y-46819255D01*
X121805565Y-46640000D01*
X121785368Y-46460745D01*
X121725789Y-46290478D01*
X121629816Y-46137738D01*
X121502262Y-46010184D01*
X121349522Y-45914211D01*
X121317380Y-45902964D01*
X121179258Y-45854632D01*
X121047699Y-45839809D01*
X121047693Y-45839808D01*
X121044954Y-45839500D01*
X120355046Y-45839500D01*
X120352307Y-45839808D01*
X120352300Y-45839809D01*
X120220741Y-45854632D01*
X120050480Y-45914210D01*
X119897739Y-46010183D01*
X119770183Y-46137739D01*
X119674210Y-46290480D01*
X119614632Y-46460741D01*
X119594435Y-46640000D01*
X117875565Y-46640000D01*
X117855368Y-46460745D01*
X117795789Y-46290478D01*
X117699816Y-46137738D01*
X117572262Y-46010184D01*
X117419522Y-45914211D01*
X117414942Y-45912608D01*
X117362084Y-45894112D01*
X117313403Y-45857046D01*
X117295807Y-45798446D01*
X117316016Y-45740694D01*
X117334515Y-45722125D01*
X117342243Y-45716194D01*
X117342250Y-45716192D01*
X117463304Y-45623304D01*
X117556192Y-45502250D01*
X117614584Y-45361280D01*
X117634500Y-45210000D01*
X117614584Y-45058720D01*
X117556192Y-44917750D01*
X117534578Y-44889582D01*
X117463304Y-44796695D01*
X117342250Y-44703808D01*
X117201279Y-44645415D01*
X117091193Y-44630923D01*
X117087980Y-44630500D01*
X117012020Y-44630500D01*
X117008807Y-44630922D01*
X117008806Y-44630923D01*
X116898720Y-44645415D01*
X116757749Y-44703808D01*
X116636695Y-44796695D01*
X116543808Y-44917749D01*
X116485415Y-45058720D01*
X116465500Y-45209999D01*
X116485415Y-45361279D01*
X116543808Y-45502250D01*
X116636695Y-45623304D01*
X116687070Y-45661958D01*
X116721726Y-45712382D01*
X116720125Y-45773547D01*
X116682877Y-45822088D01*
X116626803Y-45839500D01*
X115925046Y-45839500D01*
X115922307Y-45839808D01*
X115922300Y-45839809D01*
X115790741Y-45854632D01*
X115620480Y-45914210D01*
X115467739Y-46010183D01*
X115340183Y-46137739D01*
X115244210Y-46290480D01*
X115184632Y-46460741D01*
X115164435Y-46639999D01*
X105544020Y-46639999D01*
X105596330Y-46513709D01*
X105615250Y-46370000D01*
X105596330Y-46226291D01*
X105574446Y-46173459D01*
X105569646Y-46112466D01*
X105601615Y-46060296D01*
X105605633Y-46057042D01*
X105702621Y-45982621D01*
X105790861Y-45867625D01*
X105846330Y-45733709D01*
X105865250Y-45590000D01*
X105846330Y-45446291D01*
X105790861Y-45312375D01*
X105740932Y-45247306D01*
X105702621Y-45197378D01*
X105637552Y-45147450D01*
X105587625Y-45109139D01*
X105548401Y-45092892D01*
X105453709Y-45053669D01*
X105326717Y-45036951D01*
X105310000Y-45034750D01*
X105309999Y-45034750D01*
X105272953Y-45039627D01*
X105212793Y-45028477D01*
X105170676Y-44984094D01*
X105161879Y-44954396D01*
X105146330Y-44836291D01*
X105143774Y-44830121D01*
X105110124Y-44748882D01*
X105105324Y-44687888D01*
X105137293Y-44635719D01*
X105193821Y-44612304D01*
X105239474Y-44619534D01*
X105293293Y-44641827D01*
X105437002Y-44660747D01*
X105580711Y-44641827D01*
X105714627Y-44586358D01*
X105795082Y-44524622D01*
X112960128Y-44524622D01*
X112979047Y-44668331D01*
X112998430Y-44715124D01*
X113034517Y-44802247D01*
X113055906Y-44830121D01*
X113122756Y-44917243D01*
X113171175Y-44954396D01*
X113237753Y-45005483D01*
X113308411Y-45034750D01*
X113371668Y-45060952D01*
X113390587Y-45063442D01*
X113515378Y-45079872D01*
X113659087Y-45060952D01*
X113793003Y-45005483D01*
X113907999Y-44917243D01*
X113996239Y-44802247D01*
X114051708Y-44668331D01*
X114070628Y-44524622D01*
X114051708Y-44380913D01*
X113996239Y-44246997D01*
X113929388Y-44159875D01*
X113907999Y-44132000D01*
X113853261Y-44089999D01*
X117944750Y-44089999D01*
X117963669Y-44233709D01*
X117970089Y-44249207D01*
X118019139Y-44367625D01*
X118042146Y-44397608D01*
X118107378Y-44482621D01*
X118157306Y-44520932D01*
X118222375Y-44570861D01*
X118317067Y-44610083D01*
X118356290Y-44626330D01*
X118373008Y-44628531D01*
X118500000Y-44645250D01*
X118643709Y-44626330D01*
X118777625Y-44570861D01*
X118892621Y-44482621D01*
X118980861Y-44367625D01*
X119036330Y-44233709D01*
X119055250Y-44090000D01*
X119036330Y-43946291D01*
X118980861Y-43812375D01*
X118930932Y-43747306D01*
X118892621Y-43697378D01*
X118827552Y-43647450D01*
X118777625Y-43609139D01*
X118738401Y-43592892D01*
X118643709Y-43553669D01*
X118500000Y-43534750D01*
X118356290Y-43553669D01*
X118222375Y-43609139D01*
X118107378Y-43697378D01*
X118019139Y-43812375D01*
X117963669Y-43946290D01*
X117944750Y-44089999D01*
X113853261Y-44089999D01*
X113842930Y-44082072D01*
X113793003Y-44043761D01*
X113753779Y-44027514D01*
X113659087Y-43988291D01*
X113515378Y-43969372D01*
X113371668Y-43988291D01*
X113237753Y-44043761D01*
X113122756Y-44132000D01*
X113034517Y-44246997D01*
X112979047Y-44380912D01*
X112960128Y-44524622D01*
X105795082Y-44524622D01*
X105829623Y-44498118D01*
X105917863Y-44383122D01*
X105973332Y-44249206D01*
X105992252Y-44105497D01*
X105975822Y-43980706D01*
X105973332Y-43961787D01*
X105957085Y-43922564D01*
X105917863Y-43827872D01*
X105867934Y-43762803D01*
X105829623Y-43712875D01*
X105764554Y-43662947D01*
X105714627Y-43624636D01*
X105675403Y-43608389D01*
X105580711Y-43569166D01*
X105437002Y-43550247D01*
X105293292Y-43569166D01*
X105159377Y-43624636D01*
X105044380Y-43712875D01*
X104956141Y-43827872D01*
X104900671Y-43961787D01*
X104881752Y-44105497D01*
X104900671Y-44249207D01*
X104936876Y-44336612D01*
X104941677Y-44397608D01*
X104909707Y-44449777D01*
X104853179Y-44473192D01*
X104807527Y-44465961D01*
X104753710Y-44443669D01*
X104610000Y-44424750D01*
X104466290Y-44443669D01*
X104332375Y-44499139D01*
X104217378Y-44587378D01*
X104129139Y-44702375D01*
X104073669Y-44836290D01*
X104062865Y-44918360D01*
X104054750Y-44980000D01*
X89646844Y-44980000D01*
X89693709Y-44973830D01*
X89827625Y-44918361D01*
X89942621Y-44830121D01*
X90030861Y-44715125D01*
X90086330Y-44581209D01*
X90105250Y-44437500D01*
X90086330Y-44293791D01*
X90030861Y-44159875D01*
X89977243Y-44089999D01*
X89942621Y-44044878D01*
X89868874Y-43988291D01*
X89827625Y-43956639D01*
X89788401Y-43940392D01*
X89693709Y-43901169D01*
X89550000Y-43882250D01*
X89406290Y-43901169D01*
X89272375Y-43956639D01*
X89157378Y-44044878D01*
X89069139Y-44159875D01*
X89013669Y-44293790D01*
X88994750Y-44437499D01*
X84300500Y-44437499D01*
X84300500Y-42560000D01*
X89524750Y-42560000D01*
X89543669Y-42703709D01*
X89574131Y-42777250D01*
X89599139Y-42837625D01*
X89628684Y-42876128D01*
X89687378Y-42952621D01*
X89723060Y-42980000D01*
X89802375Y-43040861D01*
X89897067Y-43080083D01*
X89936290Y-43096330D01*
X89953008Y-43098531D01*
X90080000Y-43115250D01*
X90223709Y-43096330D01*
X90357625Y-43040861D01*
X90472621Y-42952621D01*
X90560861Y-42837625D01*
X90616330Y-42703709D01*
X90635250Y-42560000D01*
X90616330Y-42416291D01*
X90608598Y-42397625D01*
X90584646Y-42339798D01*
X90560861Y-42282375D01*
X90510932Y-42217306D01*
X90472621Y-42167378D01*
X90407552Y-42117450D01*
X90357625Y-42079139D01*
X90318401Y-42062892D01*
X90223709Y-42023669D01*
X90080000Y-42004750D01*
X89936290Y-42023669D01*
X89802375Y-42079139D01*
X89687378Y-42167378D01*
X89599139Y-42282375D01*
X89543669Y-42416290D01*
X89524750Y-42560000D01*
X84300500Y-42560000D01*
X84300500Y-41219999D01*
X92784750Y-41219999D01*
X92803669Y-41363709D01*
X92842892Y-41458401D01*
X92859139Y-41497625D01*
X92892992Y-41541744D01*
X92947377Y-41612620D01*
X92974613Y-41633519D01*
X93009268Y-41683944D01*
X93007666Y-41745109D01*
X92992888Y-41772328D01*
X92939137Y-41842377D01*
X92883669Y-41976290D01*
X92864750Y-42120000D01*
X92883669Y-42263709D01*
X92939137Y-42397622D01*
X92939138Y-42397624D01*
X92939139Y-42397625D01*
X93014817Y-42496250D01*
X93035240Y-42553923D01*
X93017863Y-42612589D01*
X93014816Y-42616782D01*
X92949139Y-42702374D01*
X92893669Y-42836290D01*
X92874750Y-42980000D01*
X92893669Y-43123709D01*
X92911912Y-43167750D01*
X92949139Y-43257625D01*
X92957675Y-43268749D01*
X93037378Y-43372621D01*
X93087306Y-43410932D01*
X93152375Y-43460861D01*
X93286291Y-43516330D01*
X93288442Y-43516613D01*
X93298146Y-43521241D01*
X93298332Y-43521318D01*
X93298327Y-43521327D01*
X93343666Y-43542950D01*
X93372864Y-43596720D01*
X93373676Y-43601844D01*
X93393669Y-43753709D01*
X93417970Y-43812375D01*
X93449139Y-43887625D01*
X93487450Y-43937552D01*
X93537378Y-44002621D01*
X93587306Y-44040932D01*
X93652375Y-44090861D01*
X93747067Y-44130083D01*
X93786290Y-44146330D01*
X93803008Y-44148531D01*
X93930000Y-44165250D01*
X94073709Y-44146330D01*
X94207625Y-44090861D01*
X94322621Y-44002621D01*
X94410861Y-43887625D01*
X94466330Y-43753709D01*
X94485250Y-43610000D01*
X94476067Y-43540249D01*
X94487217Y-43480089D01*
X94531599Y-43437972D01*
X94587141Y-43429175D01*
X94603872Y-43431378D01*
X94747581Y-43412458D01*
X94881497Y-43356989D01*
X94913413Y-43332499D01*
X98194750Y-43332499D01*
X98213669Y-43476209D01*
X98245755Y-43553670D01*
X98269139Y-43610125D01*
X98280274Y-43624636D01*
X98357378Y-43725121D01*
X98394635Y-43753709D01*
X98472375Y-43813361D01*
X98567067Y-43852583D01*
X98606290Y-43868830D01*
X98625210Y-43871320D01*
X98750000Y-43887750D01*
X98893709Y-43868830D01*
X99027625Y-43813361D01*
X99142621Y-43725121D01*
X99230861Y-43610125D01*
X99286330Y-43476209D01*
X99305250Y-43332500D01*
X99286330Y-43188791D01*
X99230861Y-43054875D01*
X99173407Y-42980000D01*
X99142621Y-42939878D01*
X99077552Y-42889950D01*
X99027625Y-42851639D01*
X98988401Y-42835392D01*
X98893709Y-42796169D01*
X98750000Y-42777250D01*
X98606290Y-42796169D01*
X98472375Y-42851639D01*
X98357378Y-42939878D01*
X98269139Y-43054875D01*
X98213669Y-43188790D01*
X98194750Y-43332499D01*
X94913413Y-43332499D01*
X94996493Y-43268749D01*
X95084733Y-43153753D01*
X95140202Y-43019837D01*
X95159122Y-42876128D01*
X95140202Y-42732419D01*
X95136917Y-42724489D01*
X95121428Y-42687095D01*
X95090531Y-42612500D01*
X105154750Y-42612500D01*
X105173669Y-42756209D01*
X105207393Y-42837624D01*
X105229139Y-42890125D01*
X105267316Y-42939878D01*
X105317378Y-43005121D01*
X105336557Y-43019837D01*
X105432375Y-43093361D01*
X105505643Y-43123709D01*
X105566290Y-43148830D01*
X105583008Y-43151031D01*
X105710000Y-43167750D01*
X105853709Y-43148830D01*
X105987625Y-43093361D01*
X106102621Y-43005121D01*
X106190861Y-42890125D01*
X106246330Y-42756209D01*
X106265250Y-42612500D01*
X106246330Y-42468791D01*
X106190861Y-42334875D01*
X106136253Y-42263709D01*
X106102621Y-42219878D01*
X106034201Y-42167378D01*
X105987625Y-42131639D01*
X105948401Y-42115392D01*
X105853709Y-42076169D01*
X105726717Y-42059451D01*
X105710000Y-42057250D01*
X105709999Y-42057250D01*
X105566290Y-42076169D01*
X105432375Y-42131639D01*
X105317378Y-42219878D01*
X105229139Y-42334875D01*
X105173669Y-42468790D01*
X105154750Y-42612500D01*
X95090531Y-42612500D01*
X95084733Y-42598503D01*
X95006269Y-42496247D01*
X94996493Y-42483506D01*
X94929741Y-42432286D01*
X94881497Y-42395267D01*
X94842273Y-42379020D01*
X94747581Y-42339797D01*
X94603872Y-42320878D01*
X94460162Y-42339797D01*
X94326247Y-42395267D01*
X94211250Y-42483506D01*
X94123011Y-42598502D01*
X94086315Y-42687095D01*
X94046578Y-42733621D01*
X93987083Y-42747904D01*
X93930555Y-42724489D01*
X93916309Y-42709476D01*
X93910861Y-42702377D01*
X93910861Y-42702375D01*
X93835183Y-42603750D01*
X93814759Y-42546074D01*
X93832137Y-42487409D01*
X93835163Y-42483242D01*
X93900861Y-42397625D01*
X93956330Y-42263709D01*
X93975250Y-42120000D01*
X93964673Y-42039664D01*
X98744415Y-42039664D01*
X98763334Y-42183374D01*
X98796610Y-42263709D01*
X98818804Y-42317290D01*
X98857115Y-42367217D01*
X98907043Y-42432286D01*
X98954617Y-42468790D01*
X99022040Y-42520526D01*
X99102459Y-42553836D01*
X99155955Y-42575995D01*
X99174874Y-42578485D01*
X99299665Y-42594915D01*
X99443374Y-42575995D01*
X99577290Y-42520526D01*
X99692286Y-42432286D01*
X99780526Y-42317290D01*
X99835995Y-42183374D01*
X99854915Y-42039665D01*
X99835995Y-41895956D01*
X99780526Y-41762040D01*
X99699200Y-41656054D01*
X99692286Y-41647043D01*
X99588844Y-41567670D01*
X99577290Y-41558804D01*
X99538066Y-41542557D01*
X99443374Y-41503334D01*
X99299665Y-41484415D01*
X99155955Y-41503334D01*
X99022040Y-41558804D01*
X98907043Y-41647043D01*
X98818804Y-41762040D01*
X98763334Y-41895955D01*
X98744415Y-42039664D01*
X93964673Y-42039664D01*
X93956330Y-41976291D01*
X93900861Y-41842375D01*
X93843361Y-41767441D01*
X93812620Y-41727377D01*
X93785386Y-41706479D01*
X93750731Y-41656054D01*
X93752333Y-41594890D01*
X93767108Y-41567675D01*
X93820861Y-41497625D01*
X93876330Y-41363709D01*
X93895250Y-41220000D01*
X93876330Y-41076291D01*
X93820861Y-40942375D01*
X93746344Y-40845263D01*
X93725922Y-40787592D01*
X93743299Y-40728926D01*
X93746314Y-40724775D01*
X93820861Y-40627625D01*
X93876330Y-40493709D01*
X93895250Y-40350000D01*
X93876330Y-40206291D01*
X93871118Y-40193709D01*
X93839051Y-40116291D01*
X93820861Y-40072375D01*
X93799910Y-40045071D01*
X101392036Y-40045071D01*
X101410955Y-40188781D01*
X101427350Y-40228361D01*
X101466425Y-40322697D01*
X101504736Y-40372624D01*
X101554664Y-40437693D01*
X101604592Y-40476004D01*
X101669661Y-40525933D01*
X101764353Y-40565155D01*
X101803576Y-40581402D01*
X101820294Y-40583603D01*
X101947286Y-40600322D01*
X102090995Y-40581402D01*
X102224911Y-40525933D01*
X102339907Y-40437693D01*
X102428147Y-40322697D01*
X102483616Y-40188781D01*
X102501887Y-40049999D01*
X103444750Y-40049999D01*
X103463669Y-40193709D01*
X103491128Y-40259999D01*
X103519139Y-40327625D01*
X103536308Y-40350000D01*
X103607378Y-40442621D01*
X103657306Y-40480932D01*
X103722375Y-40530861D01*
X103817067Y-40570083D01*
X103856290Y-40586330D01*
X103873008Y-40588531D01*
X104000000Y-40605250D01*
X104143709Y-40586330D01*
X104277625Y-40530861D01*
X104392621Y-40442621D01*
X104480861Y-40327625D01*
X104508872Y-40259999D01*
X113784750Y-40259999D01*
X113803669Y-40403709D01*
X113840949Y-40493709D01*
X113859139Y-40537625D01*
X113896512Y-40586330D01*
X113947378Y-40652621D01*
X113997306Y-40690932D01*
X114062375Y-40740861D01*
X114157067Y-40780083D01*
X114196290Y-40796330D01*
X114213008Y-40798531D01*
X114340000Y-40815250D01*
X114483709Y-40796330D01*
X114617625Y-40740861D01*
X114732621Y-40652621D01*
X114820861Y-40537625D01*
X114876330Y-40403709D01*
X114895250Y-40260000D01*
X114876330Y-40116291D01*
X114820861Y-39982375D01*
X114770932Y-39917306D01*
X114732621Y-39867378D01*
X114662625Y-39813669D01*
X114617625Y-39779139D01*
X114578401Y-39762892D01*
X114483709Y-39723669D01*
X114340000Y-39704750D01*
X114196290Y-39723669D01*
X114062375Y-39779139D01*
X113947378Y-39867378D01*
X113859139Y-39982375D01*
X113803669Y-40116290D01*
X113784750Y-40259999D01*
X104508872Y-40259999D01*
X104536330Y-40193709D01*
X104555250Y-40050000D01*
X104536330Y-39906291D01*
X104534288Y-39901362D01*
X104510240Y-39843304D01*
X104480861Y-39772375D01*
X104406334Y-39675250D01*
X104392621Y-39657378D01*
X104293447Y-39581280D01*
X104277625Y-39569139D01*
X104236416Y-39552070D01*
X104143709Y-39513669D01*
X104016717Y-39496951D01*
X104000000Y-39494750D01*
X103999999Y-39494750D01*
X103856290Y-39513669D01*
X103722375Y-39569139D01*
X103607378Y-39657378D01*
X103519139Y-39772375D01*
X103463669Y-39906290D01*
X103444750Y-40049999D01*
X102501887Y-40049999D01*
X102502536Y-40045072D01*
X102483616Y-39901363D01*
X102428147Y-39767447D01*
X102375683Y-39699075D01*
X102339907Y-39652450D01*
X102272673Y-39600860D01*
X102224911Y-39564211D01*
X102185687Y-39547964D01*
X102090995Y-39508741D01*
X101947286Y-39489822D01*
X101803576Y-39508741D01*
X101669661Y-39564211D01*
X101554664Y-39652450D01*
X101466425Y-39767447D01*
X101410955Y-39901362D01*
X101392036Y-40045071D01*
X93799910Y-40045071D01*
X93761170Y-39994584D01*
X93732621Y-39957378D01*
X93659620Y-39901363D01*
X93617625Y-39869139D01*
X93555253Y-39843304D01*
X93483709Y-39813669D01*
X93340000Y-39794750D01*
X93196290Y-39813669D01*
X93062375Y-39869139D01*
X92947378Y-39957378D01*
X92859139Y-40072375D01*
X92803669Y-40206290D01*
X92784750Y-40349999D01*
X92803669Y-40493709D01*
X92821860Y-40537625D01*
X92859139Y-40627625D01*
X92891816Y-40670210D01*
X92933652Y-40724733D01*
X92954076Y-40782409D01*
X92936698Y-40841075D01*
X92933652Y-40845267D01*
X92859139Y-40942375D01*
X92803669Y-41076290D01*
X92784750Y-41219999D01*
X84300500Y-41219999D01*
X84300500Y-37589999D01*
X87643032Y-37589999D01*
X87643033Y-37590000D01*
X88735376Y-37590000D01*
X88662455Y-37604505D01*
X88579760Y-37659760D01*
X88524505Y-37742455D01*
X88505102Y-37840000D01*
X88524505Y-37937545D01*
X88579760Y-38020240D01*
X88662455Y-38075495D01*
X88735376Y-38090000D01*
X87643033Y-38090000D01*
X87649334Y-38119646D01*
X87726283Y-38292476D01*
X87837487Y-38445536D01*
X87978077Y-38572124D01*
X88141924Y-38666720D01*
X88321844Y-38725181D01*
X88339330Y-38727019D01*
X88395225Y-38751906D01*
X88425818Y-38804894D01*
X88420445Y-38863362D01*
X88373669Y-38976289D01*
X88354750Y-39120000D01*
X88373669Y-39263709D01*
X88394173Y-39313209D01*
X88429139Y-39397625D01*
X88465497Y-39445008D01*
X88517378Y-39512621D01*
X88537245Y-39527865D01*
X88632375Y-39600861D01*
X88766291Y-39656330D01*
X88890898Y-39672735D01*
X88946121Y-39699075D01*
X88975316Y-39752845D01*
X88976127Y-39757964D01*
X88993669Y-39891210D01*
X89036489Y-39994584D01*
X89049139Y-40025125D01*
X89085395Y-40072375D01*
X89137378Y-40140121D01*
X89187306Y-40178432D01*
X89252375Y-40228361D01*
X89347067Y-40267583D01*
X89386290Y-40283830D01*
X89405210Y-40286320D01*
X89530000Y-40302750D01*
X89673709Y-40283830D01*
X89807625Y-40228361D01*
X89922621Y-40140121D01*
X90010861Y-40025125D01*
X90066330Y-39891209D01*
X90085250Y-39747500D01*
X90066330Y-39603791D01*
X90065116Y-39600861D01*
X90048573Y-39560922D01*
X90010861Y-39469875D01*
X89955421Y-39397624D01*
X89922621Y-39354878D01*
X89857552Y-39304950D01*
X89807625Y-39266639D01*
X89768401Y-39250392D01*
X89673709Y-39211169D01*
X89563173Y-39196617D01*
X89549101Y-39194764D01*
X89493877Y-39168424D01*
X89464682Y-39114653D01*
X89463876Y-39109569D01*
X89446330Y-38976291D01*
X89446329Y-38976289D01*
X89390861Y-38842375D01*
X89362252Y-38805091D01*
X89341828Y-38747415D01*
X89359206Y-38688750D01*
X89391295Y-38659087D01*
X89541920Y-38572125D01*
X89682514Y-38445533D01*
X89793715Y-38292481D01*
X89848246Y-38170000D01*
X90654750Y-38170000D01*
X90655969Y-38179258D01*
X90673669Y-38313709D01*
X90709769Y-38400860D01*
X90729139Y-38447625D01*
X90735819Y-38456330D01*
X90817378Y-38562621D01*
X90844810Y-38583670D01*
X90932375Y-38650861D01*
X91024785Y-38689138D01*
X91066290Y-38706330D01*
X91083008Y-38708531D01*
X91210000Y-38725250D01*
X91353709Y-38706330D01*
X91417276Y-38680000D01*
X92234750Y-38680000D01*
X92253669Y-38823709D01*
X92278425Y-38883474D01*
X92309139Y-38957625D01*
X92323462Y-38976291D01*
X92397378Y-39072621D01*
X92445483Y-39109533D01*
X92512375Y-39160861D01*
X92588156Y-39192250D01*
X92646290Y-39216330D01*
X92663008Y-39218531D01*
X92790000Y-39235250D01*
X92933709Y-39216330D01*
X93051877Y-39167384D01*
X93881826Y-39167384D01*
X93900745Y-39311093D01*
X93918882Y-39354878D01*
X93956215Y-39445009D01*
X93990601Y-39489822D01*
X94044454Y-39560005D01*
X94072181Y-39581280D01*
X94159451Y-39648245D01*
X94254143Y-39687467D01*
X94293366Y-39703714D01*
X94309439Y-39705830D01*
X94437076Y-39722634D01*
X94580785Y-39703714D01*
X94714701Y-39648245D01*
X94829697Y-39560005D01*
X94829698Y-39560002D01*
X94840037Y-39552070D01*
X94840671Y-39552897D01*
X94879404Y-39526270D01*
X94940569Y-39527865D01*
X94986075Y-39560922D01*
X94987379Y-39562622D01*
X95044876Y-39606740D01*
X95102375Y-39650861D01*
X95197067Y-39690083D01*
X95236290Y-39706330D01*
X95253008Y-39708531D01*
X95380000Y-39725250D01*
X95523709Y-39706330D01*
X95657625Y-39650861D01*
X95772621Y-39562621D01*
X95860861Y-39447625D01*
X95916330Y-39313709D01*
X95935250Y-39170000D01*
X95935250Y-39169999D01*
X96670250Y-39169999D01*
X96689169Y-39313709D01*
X96723928Y-39397624D01*
X96744639Y-39447625D01*
X96782950Y-39497552D01*
X96832878Y-39562621D01*
X96882713Y-39600860D01*
X96947875Y-39650861D01*
X97042567Y-39690083D01*
X97081790Y-39706330D01*
X97098508Y-39708531D01*
X97225500Y-39725250D01*
X97369209Y-39706330D01*
X97503125Y-39650861D01*
X97618121Y-39562621D01*
X97621372Y-39558383D01*
X97671792Y-39523728D01*
X97732956Y-39525327D01*
X97778456Y-39558382D01*
X97779701Y-39560005D01*
X97781327Y-39562123D01*
X97790471Y-39569139D01*
X97896321Y-39650361D01*
X97991013Y-39689583D01*
X98030236Y-39705830D01*
X98046954Y-39708031D01*
X98173946Y-39724750D01*
X98317655Y-39705830D01*
X98451571Y-39650361D01*
X98566567Y-39562121D01*
X98654807Y-39447125D01*
X98710276Y-39313209D01*
X98729196Y-39169500D01*
X98710276Y-39025791D01*
X98709399Y-39023674D01*
X98682041Y-38957625D01*
X98654807Y-38891875D01*
X98592840Y-38811118D01*
X98566567Y-38776878D01*
X98474626Y-38706330D01*
X98451571Y-38688639D01*
X98398653Y-38666720D01*
X98317655Y-38633169D01*
X98173946Y-38614250D01*
X98030236Y-38633169D01*
X97896321Y-38688639D01*
X97781323Y-38776878D01*
X97778071Y-38781118D01*
X97727646Y-38815772D01*
X97666481Y-38814169D01*
X97620990Y-38781117D01*
X97618120Y-38777378D01*
X97552960Y-38727379D01*
X97503125Y-38689139D01*
X97449000Y-38666720D01*
X97369209Y-38633669D01*
X97225500Y-38614750D01*
X97081790Y-38633669D01*
X96947875Y-38689139D01*
X96832878Y-38777378D01*
X96744639Y-38892375D01*
X96689169Y-39026290D01*
X96670250Y-39169999D01*
X95935250Y-39169999D01*
X95916330Y-39026291D01*
X95916122Y-39025790D01*
X95887888Y-38957625D01*
X95860861Y-38892375D01*
X95810932Y-38827306D01*
X95772621Y-38777378D01*
X95705387Y-38725788D01*
X95657625Y-38689139D01*
X95603500Y-38666720D01*
X95523709Y-38633669D01*
X95380000Y-38614750D01*
X95236290Y-38633669D01*
X95102375Y-38689138D01*
X94977039Y-38785313D01*
X94976405Y-38784487D01*
X94937651Y-38811118D01*
X94876486Y-38809512D01*
X94830998Y-38776459D01*
X94829697Y-38774763D01*
X94714701Y-38686523D01*
X94666892Y-38666720D01*
X94580785Y-38631053D01*
X94437076Y-38612134D01*
X94293366Y-38631053D01*
X94159451Y-38686523D01*
X94044454Y-38774762D01*
X93956215Y-38889759D01*
X93900745Y-39023674D01*
X93881826Y-39167384D01*
X93051877Y-39167384D01*
X93067625Y-39160861D01*
X93182621Y-39072621D01*
X93270861Y-38957625D01*
X93326330Y-38823709D01*
X93345250Y-38680000D01*
X93326330Y-38536291D01*
X93270861Y-38402375D01*
X93201990Y-38312621D01*
X93182621Y-38287378D01*
X93117552Y-38237450D01*
X93067625Y-38199139D01*
X93028401Y-38182892D01*
X92933709Y-38143669D01*
X92790000Y-38124750D01*
X92646290Y-38143669D01*
X92512375Y-38199139D01*
X92397378Y-38287378D01*
X92309139Y-38402375D01*
X92253669Y-38536290D01*
X92234750Y-38680000D01*
X91417276Y-38680000D01*
X91487625Y-38650861D01*
X91602621Y-38562621D01*
X91690861Y-38447625D01*
X91746330Y-38313709D01*
X91765250Y-38170000D01*
X91746330Y-38026291D01*
X91702303Y-37920000D01*
X108864750Y-37920000D01*
X108883669Y-38063709D01*
X108916790Y-38143669D01*
X108939139Y-38197625D01*
X108940301Y-38199139D01*
X109027378Y-38312621D01*
X109075465Y-38349519D01*
X109142375Y-38400861D01*
X109237067Y-38440083D01*
X109276290Y-38456330D01*
X109293008Y-38458531D01*
X109420000Y-38475250D01*
X109563709Y-38456330D01*
X109697625Y-38400861D01*
X109812621Y-38312621D01*
X109900861Y-38197625D01*
X109956330Y-38063709D01*
X109964718Y-38000000D01*
X115164435Y-38000000D01*
X115167397Y-38026290D01*
X115184632Y-38179258D01*
X115224251Y-38292481D01*
X115244211Y-38349522D01*
X115340184Y-38502262D01*
X115467738Y-38629816D01*
X115620478Y-38725789D01*
X115728851Y-38763710D01*
X115790741Y-38785367D01*
X115790742Y-38785367D01*
X115790745Y-38785368D01*
X115925046Y-38800500D01*
X115927813Y-38800500D01*
X116626803Y-38800500D01*
X116684994Y-38819407D01*
X116720958Y-38868907D01*
X116720958Y-38930093D01*
X116687070Y-38978042D01*
X116636695Y-39016695D01*
X116543808Y-39137749D01*
X116485415Y-39278720D01*
X116465500Y-39430000D01*
X116485415Y-39581279D01*
X116543808Y-39722250D01*
X116636695Y-39843304D01*
X116712360Y-39901363D01*
X116757750Y-39936192D01*
X116898720Y-39994584D01*
X117012020Y-40009500D01*
X117015261Y-40009500D01*
X117084739Y-40009500D01*
X117087980Y-40009500D01*
X117201280Y-39994584D01*
X117342250Y-39936192D01*
X117463304Y-39843304D01*
X117556192Y-39722250D01*
X117614584Y-39581280D01*
X117634500Y-39430000D01*
X117614584Y-39278720D01*
X117556192Y-39137750D01*
X117470666Y-39026290D01*
X117463304Y-39016695D01*
X117334515Y-38917873D01*
X117299859Y-38867449D01*
X117301460Y-38806285D01*
X117338707Y-38757743D01*
X117362078Y-38745889D01*
X117419522Y-38725789D01*
X117572262Y-38629816D01*
X117699816Y-38502262D01*
X117795789Y-38349522D01*
X117855368Y-38179255D01*
X117875565Y-38000000D01*
X119594435Y-38000000D01*
X119614632Y-38179258D01*
X119654251Y-38292481D01*
X119674211Y-38349522D01*
X119770184Y-38502262D01*
X119897738Y-38629816D01*
X120050478Y-38725789D01*
X120158851Y-38763710D01*
X120220741Y-38785367D01*
X120220742Y-38785367D01*
X120220745Y-38785368D01*
X120355046Y-38800500D01*
X120357813Y-38800500D01*
X121042187Y-38800500D01*
X121044954Y-38800500D01*
X121179255Y-38785368D01*
X121349522Y-38725789D01*
X121502262Y-38629816D01*
X121629816Y-38502262D01*
X121725789Y-38349522D01*
X121785368Y-38179255D01*
X121805565Y-38000000D01*
X121785368Y-37820745D01*
X121725789Y-37650478D01*
X121629816Y-37497738D01*
X121502262Y-37370184D01*
X121349522Y-37274211D01*
X121341815Y-37271514D01*
X121179258Y-37214632D01*
X121047699Y-37199809D01*
X121047693Y-37199808D01*
X121044954Y-37199500D01*
X120355046Y-37199500D01*
X120352307Y-37199808D01*
X120352300Y-37199809D01*
X120220741Y-37214632D01*
X120050480Y-37274210D01*
X119897739Y-37370183D01*
X119897737Y-37370184D01*
X119897738Y-37370184D01*
X119770184Y-37497738D01*
X119679303Y-37642375D01*
X119674210Y-37650480D01*
X119614632Y-37820741D01*
X119594435Y-38000000D01*
X117875565Y-38000000D01*
X117855368Y-37820745D01*
X117795789Y-37650478D01*
X117699816Y-37497738D01*
X117572262Y-37370184D01*
X117419522Y-37274211D01*
X117411815Y-37271514D01*
X117249258Y-37214632D01*
X117117699Y-37199809D01*
X117117693Y-37199808D01*
X117114954Y-37199500D01*
X115925046Y-37199500D01*
X115922307Y-37199808D01*
X115922300Y-37199809D01*
X115790741Y-37214632D01*
X115620480Y-37274210D01*
X115467739Y-37370183D01*
X115467738Y-37370184D01*
X115340184Y-37497738D01*
X115249303Y-37642375D01*
X115244210Y-37650480D01*
X115184632Y-37820741D01*
X115171472Y-37937545D01*
X115164435Y-38000000D01*
X109964718Y-38000000D01*
X109975250Y-37920000D01*
X109956330Y-37776291D01*
X109900861Y-37642375D01*
X109837923Y-37560353D01*
X109812621Y-37527378D01*
X109747552Y-37477450D01*
X109697625Y-37439139D01*
X109658401Y-37422892D01*
X109563709Y-37383669D01*
X109420000Y-37364750D01*
X109276290Y-37383669D01*
X109142375Y-37439139D01*
X109027378Y-37527378D01*
X108939139Y-37642375D01*
X108883669Y-37776290D01*
X108864750Y-37920000D01*
X91702303Y-37920000D01*
X91690861Y-37892375D01*
X91635894Y-37820741D01*
X91602621Y-37777378D01*
X91537552Y-37727450D01*
X91487625Y-37689139D01*
X91448401Y-37672892D01*
X91353709Y-37633669D01*
X91210000Y-37614750D01*
X91066290Y-37633669D01*
X90932375Y-37689139D01*
X90817378Y-37777378D01*
X90729139Y-37892375D01*
X90673669Y-38026290D01*
X90658216Y-38143670D01*
X90654750Y-38170000D01*
X89848246Y-38170000D01*
X89870665Y-38119646D01*
X89876967Y-38090000D01*
X88784624Y-38090000D01*
X88857545Y-38075495D01*
X88940240Y-38020240D01*
X88995495Y-37937545D01*
X89014898Y-37840000D01*
X88995495Y-37742455D01*
X88940240Y-37659760D01*
X88857545Y-37604505D01*
X88784624Y-37590000D01*
X89876967Y-37590000D01*
X89876967Y-37589999D01*
X89870665Y-37560353D01*
X89793716Y-37387523D01*
X89682512Y-37234463D01*
X89584385Y-37146109D01*
X89553792Y-37093121D01*
X89560188Y-37032271D01*
X89576528Y-37006888D01*
X89590733Y-36990854D01*
X89594306Y-36984045D01*
X89669790Y-36840225D01*
X89701241Y-36712621D01*
X89706817Y-36689999D01*
X95144750Y-36689999D01*
X95163669Y-36833709D01*
X95202892Y-36928401D01*
X95219139Y-36967625D01*
X95249267Y-37006888D01*
X95307378Y-37082621D01*
X95353724Y-37118183D01*
X95422375Y-37170861D01*
X95491517Y-37199500D01*
X95556290Y-37226330D01*
X95575209Y-37228820D01*
X95700000Y-37245250D01*
X95843709Y-37226330D01*
X95977625Y-37170861D01*
X96092621Y-37082621D01*
X96180861Y-36967625D01*
X96236330Y-36833709D01*
X96255250Y-36690000D01*
X96249468Y-36646089D01*
X96260617Y-36585932D01*
X96304999Y-36543814D01*
X96334701Y-36535016D01*
X96343709Y-36533830D01*
X96477625Y-36478361D01*
X96592621Y-36390121D01*
X96680861Y-36275125D01*
X96711564Y-36201000D01*
X101119250Y-36201000D01*
X101138169Y-36344709D01*
X101177392Y-36439401D01*
X101193639Y-36478625D01*
X101231950Y-36528552D01*
X101281878Y-36593621D01*
X101331806Y-36631932D01*
X101396875Y-36681861D01*
X101491567Y-36721083D01*
X101530790Y-36737330D01*
X101549710Y-36739820D01*
X101674500Y-36756250D01*
X101818209Y-36737330D01*
X101952125Y-36681861D01*
X102067121Y-36593621D01*
X102155361Y-36478625D01*
X102210830Y-36344709D01*
X102214083Y-36320000D01*
X110224750Y-36320000D01*
X110243669Y-36463709D01*
X110273206Y-36535016D01*
X110299139Y-36597625D01*
X110336330Y-36646093D01*
X110387378Y-36712621D01*
X110419580Y-36737330D01*
X110502375Y-36800861D01*
X110597067Y-36840083D01*
X110636290Y-36856330D01*
X110653008Y-36858531D01*
X110780000Y-36875250D01*
X110923709Y-36856330D01*
X111057625Y-36800861D01*
X111172621Y-36712621D01*
X111260861Y-36597625D01*
X111316330Y-36463709D01*
X111335250Y-36320000D01*
X111316330Y-36176291D01*
X111260861Y-36042375D01*
X111210932Y-35977306D01*
X111172621Y-35927378D01*
X111107552Y-35877450D01*
X111057625Y-35839139D01*
X111018401Y-35822892D01*
X110923709Y-35783669D01*
X110780000Y-35764750D01*
X110636290Y-35783669D01*
X110502375Y-35839139D01*
X110387378Y-35927378D01*
X110299139Y-36042375D01*
X110243669Y-36176290D01*
X110224750Y-36320000D01*
X102214083Y-36320000D01*
X102229750Y-36201000D01*
X102210830Y-36057291D01*
X102206350Y-36046476D01*
X102186064Y-35997500D01*
X102155361Y-35923375D01*
X102090724Y-35839139D01*
X102067121Y-35808378D01*
X101979121Y-35740854D01*
X101952125Y-35720139D01*
X101912901Y-35703892D01*
X101818209Y-35664669D01*
X101674500Y-35645750D01*
X101530790Y-35664669D01*
X101396875Y-35720139D01*
X101281878Y-35808378D01*
X101193639Y-35923375D01*
X101138169Y-36057290D01*
X101119250Y-36201000D01*
X96711564Y-36201000D01*
X96736330Y-36141209D01*
X96755250Y-35997500D01*
X96736330Y-35853791D01*
X96680861Y-35719875D01*
X96623983Y-35645750D01*
X96592621Y-35604878D01*
X96527552Y-35554950D01*
X96477625Y-35516639D01*
X96438401Y-35500392D01*
X96343709Y-35461169D01*
X96216717Y-35444451D01*
X96200000Y-35442250D01*
X96199999Y-35442250D01*
X96056290Y-35461169D01*
X95922375Y-35516639D01*
X95807378Y-35604878D01*
X95719139Y-35719875D01*
X95663669Y-35853790D01*
X95644750Y-35997500D01*
X95650530Y-36041409D01*
X95639379Y-36101570D01*
X95594996Y-36143687D01*
X95565303Y-36152483D01*
X95556289Y-36153669D01*
X95422375Y-36209139D01*
X95307378Y-36297378D01*
X95219139Y-36412375D01*
X95163669Y-36546290D01*
X95144750Y-36689999D01*
X89706817Y-36689999D01*
X89710500Y-36675057D01*
X89710500Y-36504942D01*
X89669790Y-36339776D01*
X89669790Y-36339775D01*
X89632048Y-36267864D01*
X89590733Y-36189145D01*
X89477931Y-36061819D01*
X89477930Y-36061818D01*
X89477929Y-36061817D01*
X89455702Y-36046474D01*
X89418553Y-35997859D01*
X89417075Y-35936692D01*
X89451832Y-35886337D01*
X89455702Y-35883525D01*
X89477929Y-35868183D01*
X89552802Y-35783669D01*
X89590733Y-35740854D01*
X89601744Y-35719875D01*
X89669790Y-35590225D01*
X89710500Y-35425056D01*
X89710500Y-35254944D01*
X89669790Y-35089775D01*
X89632048Y-35017864D01*
X89590733Y-34939145D01*
X89477929Y-34811816D01*
X89455701Y-34796473D01*
X89418553Y-34747856D01*
X89417075Y-34686689D01*
X89451833Y-34636335D01*
X89455671Y-34633546D01*
X89477929Y-34618183D01*
X89496143Y-34597624D01*
X89590733Y-34490854D01*
X89633103Y-34410125D01*
X89669790Y-34340225D01*
X89710500Y-34175056D01*
X89710500Y-34004944D01*
X89709493Y-34000860D01*
X89669790Y-33839776D01*
X89669790Y-33839775D01*
X89617360Y-33739879D01*
X89590733Y-33689145D01*
X89497456Y-33583858D01*
X89473020Y-33527764D01*
X89486223Y-33468020D01*
X89512229Y-33438956D01*
X89567546Y-33397546D01*
X89653796Y-33282331D01*
X89704091Y-33147483D01*
X89710500Y-33087873D01*
X89710500Y-33082000D01*
X95794750Y-33082000D01*
X95796951Y-33098717D01*
X95813669Y-33225709D01*
X95852892Y-33320401D01*
X95869139Y-33359625D01*
X95898236Y-33397545D01*
X95957378Y-33474621D01*
X95965201Y-33480624D01*
X95999857Y-33531049D01*
X95998255Y-33592213D01*
X95983476Y-33619433D01*
X95889138Y-33742375D01*
X95833669Y-33876290D01*
X95814750Y-34019999D01*
X95833669Y-34163709D01*
X95868461Y-34247703D01*
X95889139Y-34297625D01*
X95906308Y-34320000D01*
X95977378Y-34412621D01*
X96027306Y-34450932D01*
X96092375Y-34500861D01*
X96187067Y-34540083D01*
X96226290Y-34556330D01*
X96245209Y-34558820D01*
X96370000Y-34575250D01*
X96513709Y-34556330D01*
X96647625Y-34500861D01*
X96762621Y-34412621D01*
X96833692Y-34320000D01*
X104644750Y-34320000D01*
X104663669Y-34463709D01*
X104689107Y-34525121D01*
X104719139Y-34597625D01*
X104757450Y-34647552D01*
X104807378Y-34712621D01*
X104847373Y-34743310D01*
X104922375Y-34800861D01*
X105017067Y-34840083D01*
X105056290Y-34856330D01*
X105075210Y-34858820D01*
X105200000Y-34875250D01*
X105343709Y-34856330D01*
X105477625Y-34800861D01*
X105592621Y-34712621D01*
X105680861Y-34597625D01*
X105736330Y-34463709D01*
X105755250Y-34320000D01*
X105736330Y-34176291D01*
X105735818Y-34175056D01*
X105718191Y-34132499D01*
X117395250Y-34132499D01*
X117414169Y-34276209D01*
X117440685Y-34340223D01*
X117469639Y-34410125D01*
X117507950Y-34460052D01*
X117557878Y-34525121D01*
X117598551Y-34556330D01*
X117672875Y-34613361D01*
X117767567Y-34652583D01*
X117806790Y-34668830D01*
X117823508Y-34671031D01*
X117950500Y-34687750D01*
X118094209Y-34668830D01*
X118228125Y-34613361D01*
X118343121Y-34525121D01*
X118431361Y-34410125D01*
X118486830Y-34276209D01*
X118505750Y-34132500D01*
X118486830Y-33988791D01*
X118479079Y-33970079D01*
X118470583Y-33949567D01*
X118431361Y-33854875D01*
X118376723Y-33783670D01*
X118343121Y-33739878D01*
X118277007Y-33689148D01*
X118228125Y-33651639D01*
X118188901Y-33635392D01*
X118094209Y-33596169D01*
X117950500Y-33577250D01*
X117806790Y-33596169D01*
X117672875Y-33651639D01*
X117557878Y-33739878D01*
X117469639Y-33854875D01*
X117414169Y-33988790D01*
X117395250Y-34132499D01*
X105718191Y-34132499D01*
X105680861Y-34042375D01*
X105625385Y-33970078D01*
X105592621Y-33927378D01*
X105498132Y-33854875D01*
X105477625Y-33839139D01*
X105438401Y-33822892D01*
X105343709Y-33783669D01*
X105200000Y-33764750D01*
X105056290Y-33783669D01*
X104922375Y-33839139D01*
X104807378Y-33927378D01*
X104719139Y-34042375D01*
X104663669Y-34176290D01*
X104644750Y-34320000D01*
X96833692Y-34320000D01*
X96850861Y-34297625D01*
X96906330Y-34163709D01*
X96925250Y-34020000D01*
X96906330Y-33876291D01*
X96897459Y-33854875D01*
X96873746Y-33797625D01*
X96850861Y-33742375D01*
X96812554Y-33692453D01*
X97594750Y-33692453D01*
X97613669Y-33836163D01*
X97630291Y-33876291D01*
X97669139Y-33970079D01*
X97695892Y-34004944D01*
X97757378Y-34085075D01*
X97807306Y-34123386D01*
X97872375Y-34173315D01*
X97967067Y-34212537D01*
X98006290Y-34228784D01*
X98023008Y-34230985D01*
X98150000Y-34247704D01*
X98293709Y-34228784D01*
X98427625Y-34173315D01*
X98542621Y-34085075D01*
X98630861Y-33970079D01*
X98686330Y-33836163D01*
X98705250Y-33692454D01*
X98686330Y-33548745D01*
X98684085Y-33543326D01*
X98674424Y-33520000D01*
X101644750Y-33520000D01*
X101663669Y-33663709D01*
X101675576Y-33692454D01*
X101719139Y-33797625D01*
X101750994Y-33839139D01*
X101807378Y-33912621D01*
X101857306Y-33950932D01*
X101922375Y-34000861D01*
X102017067Y-34040083D01*
X102056290Y-34056330D01*
X102073008Y-34058531D01*
X102200000Y-34075250D01*
X102343709Y-34056330D01*
X102477625Y-34000861D01*
X102592621Y-33912621D01*
X102680861Y-33797625D01*
X102736330Y-33663709D01*
X102755250Y-33520000D01*
X102736330Y-33376291D01*
X102729426Y-33359624D01*
X102720083Y-33337067D01*
X102680861Y-33242375D01*
X102608049Y-33147485D01*
X102592621Y-33127378D01*
X102527552Y-33077450D01*
X102477625Y-33039139D01*
X102438401Y-33022892D01*
X102343709Y-32983669D01*
X102200000Y-32964750D01*
X102056290Y-32983669D01*
X101922375Y-33039139D01*
X101807378Y-33127378D01*
X101719139Y-33242375D01*
X101663669Y-33376290D01*
X101644750Y-33520000D01*
X98674424Y-33520000D01*
X98668197Y-33504967D01*
X98630861Y-33414829D01*
X98580932Y-33349760D01*
X98542621Y-33299832D01*
X98477552Y-33249904D01*
X98427625Y-33211593D01*
X98388401Y-33195346D01*
X98293709Y-33156123D01*
X98150000Y-33137204D01*
X98006290Y-33156123D01*
X97872375Y-33211593D01*
X97757378Y-33299832D01*
X97669139Y-33414829D01*
X97613669Y-33548744D01*
X97594750Y-33692453D01*
X96812554Y-33692453D01*
X96790498Y-33663709D01*
X96762620Y-33627377D01*
X96754797Y-33621374D01*
X96720142Y-33570950D01*
X96721744Y-33509785D01*
X96736524Y-33482565D01*
X96742617Y-33474623D01*
X96742621Y-33474621D01*
X96830861Y-33359625D01*
X96886330Y-33225709D01*
X96905250Y-33082000D01*
X96886330Y-32938291D01*
X96830861Y-32804375D01*
X96747955Y-32696330D01*
X96742621Y-32689378D01*
X96677552Y-32639450D01*
X96627625Y-32601139D01*
X96597287Y-32588572D01*
X96493710Y-32545669D01*
X96473318Y-32542985D01*
X96418094Y-32516643D01*
X96398014Y-32479660D01*
X96360997Y-32518669D01*
X96326679Y-32529820D01*
X96206290Y-32545669D01*
X96072375Y-32601139D01*
X95957378Y-32689378D01*
X95869139Y-32804375D01*
X95813669Y-32938290D01*
X95794750Y-33081999D01*
X95794750Y-33082000D01*
X89710500Y-33082000D01*
X89710499Y-32592128D01*
X89704091Y-32532517D01*
X89653796Y-32397669D01*
X89567546Y-32282454D01*
X89452331Y-32196204D01*
X89452330Y-32196203D01*
X89355263Y-32160000D01*
X89317483Y-32145909D01*
X89273334Y-32141162D01*
X89260498Y-32139782D01*
X89260493Y-32139781D01*
X89257873Y-32139500D01*
X89255227Y-32139500D01*
X88264775Y-32139500D01*
X88264756Y-32139500D01*
X88262128Y-32139501D01*
X88259513Y-32139782D01*
X88259496Y-32139783D01*
X88202515Y-32145909D01*
X88067669Y-32196203D01*
X87952454Y-32282454D01*
X87866203Y-32397669D01*
X87821074Y-32518669D01*
X87815909Y-32532517D01*
X87814784Y-32542985D01*
X87811315Y-32575250D01*
X87809500Y-32592127D01*
X87809500Y-32594771D01*
X87809500Y-32594772D01*
X87809500Y-33085224D01*
X87809500Y-33085242D01*
X87809501Y-33087872D01*
X87809782Y-33090487D01*
X87809783Y-33090503D01*
X87815909Y-33147484D01*
X87866203Y-33282330D01*
X87866204Y-33282331D01*
X87952454Y-33397546D01*
X88007771Y-33438956D01*
X88043023Y-33488965D01*
X88042149Y-33550144D01*
X88022544Y-33583858D01*
X87929265Y-33689148D01*
X87850209Y-33839776D01*
X87809500Y-34004942D01*
X87809500Y-34175057D01*
X87850209Y-34340223D01*
X87929266Y-34490854D01*
X88042069Y-34618182D01*
X88064297Y-34633525D01*
X88101446Y-34682142D01*
X88102924Y-34743310D01*
X88068166Y-34793664D01*
X88064297Y-34796475D01*
X88042069Y-34811817D01*
X87929266Y-34939145D01*
X87850209Y-35089776D01*
X87809500Y-35254942D01*
X87809500Y-35425057D01*
X87850209Y-35590223D01*
X87929266Y-35740854D01*
X88042069Y-35868182D01*
X88064297Y-35883525D01*
X88101446Y-35932142D01*
X88102924Y-35993310D01*
X88068166Y-36043664D01*
X88064297Y-36046475D01*
X88042069Y-36061817D01*
X87929266Y-36189145D01*
X87850209Y-36339776D01*
X87809500Y-36504942D01*
X87809500Y-36675057D01*
X87850209Y-36840223D01*
X87929266Y-36990854D01*
X87943472Y-37006888D01*
X87967909Y-37062981D01*
X87954707Y-37122725D01*
X87935615Y-37146109D01*
X87837485Y-37234466D01*
X87726284Y-37387518D01*
X87649334Y-37560353D01*
X87643032Y-37589999D01*
X84300500Y-37589999D01*
X84300500Y-31719999D01*
X93344750Y-31719999D01*
X93363669Y-31863709D01*
X93378533Y-31899593D01*
X93419139Y-31997625D01*
X93436308Y-32020000D01*
X93507378Y-32112621D01*
X93550762Y-32145910D01*
X93622375Y-32200861D01*
X93705087Y-32235121D01*
X93756290Y-32256330D01*
X93773008Y-32258531D01*
X93900000Y-32275250D01*
X94043709Y-32256330D01*
X94177625Y-32200861D01*
X94292621Y-32112621D01*
X94380861Y-31997625D01*
X94436330Y-31863709D01*
X94445442Y-31794499D01*
X95894750Y-31794499D01*
X95913669Y-31938209D01*
X95946012Y-32016291D01*
X95969139Y-32072125D01*
X96000213Y-32112621D01*
X96057378Y-32187121D01*
X96075285Y-32200861D01*
X96172375Y-32275361D01*
X96267067Y-32314583D01*
X96306290Y-32330830D01*
X96326678Y-32333514D01*
X96381903Y-32359854D01*
X96401984Y-32396838D01*
X96439005Y-32357828D01*
X96473315Y-32346680D01*
X96593709Y-32330830D01*
X96727625Y-32275361D01*
X96842621Y-32187121D01*
X96930861Y-32072125D01*
X96952452Y-32019999D01*
X98049245Y-32019999D01*
X98068164Y-32163709D01*
X98097744Y-32235121D01*
X98123634Y-32297625D01*
X98149113Y-32330830D01*
X98211873Y-32412621D01*
X98261801Y-32450932D01*
X98326870Y-32500861D01*
X98421562Y-32540083D01*
X98460785Y-32556330D01*
X98477503Y-32558531D01*
X98604495Y-32575250D01*
X98748204Y-32556330D01*
X98882120Y-32500861D01*
X98997116Y-32412621D01*
X99085356Y-32297625D01*
X99140825Y-32163709D01*
X99159745Y-32020000D01*
X99140825Y-31876291D01*
X99135613Y-31863709D01*
X99124578Y-31837067D01*
X99085356Y-31742375D01*
X99015080Y-31650790D01*
X99006801Y-31640000D01*
X103805250Y-31640000D01*
X103824169Y-31783709D01*
X103862518Y-31876290D01*
X103879639Y-31917625D01*
X103895434Y-31938209D01*
X103967878Y-32032621D01*
X104017806Y-32070932D01*
X104082875Y-32120861D01*
X104143350Y-32145910D01*
X104216790Y-32176330D01*
X104235709Y-32178820D01*
X104360500Y-32195250D01*
X104504209Y-32176330D01*
X104638125Y-32120861D01*
X104753121Y-32032621D01*
X104841361Y-31917625D01*
X104872478Y-31842500D01*
X110514750Y-31842500D01*
X110533669Y-31986209D01*
X110547666Y-32020000D01*
X110589139Y-32120125D01*
X110608924Y-32145909D01*
X110677378Y-32235121D01*
X110705019Y-32256330D01*
X110792375Y-32323361D01*
X110856085Y-32349750D01*
X110926290Y-32378830D01*
X110943008Y-32381031D01*
X111070000Y-32397750D01*
X111213709Y-32378830D01*
X111347625Y-32323361D01*
X111462621Y-32235121D01*
X111550861Y-32120125D01*
X111606330Y-31986209D01*
X111625250Y-31842500D01*
X111606330Y-31698791D01*
X111550861Y-31564875D01*
X111488549Y-31483669D01*
X111462621Y-31449878D01*
X111397552Y-31399950D01*
X111347625Y-31361639D01*
X111308401Y-31345392D01*
X111213709Y-31306169D01*
X111070000Y-31287250D01*
X110926290Y-31306169D01*
X110792375Y-31361639D01*
X110677378Y-31449878D01*
X110589139Y-31564875D01*
X110533669Y-31698790D01*
X110514750Y-31842500D01*
X104872478Y-31842500D01*
X104896830Y-31783709D01*
X104915750Y-31640000D01*
X104896830Y-31496291D01*
X104891602Y-31483670D01*
X104877605Y-31449878D01*
X104841361Y-31362375D01*
X104783715Y-31287250D01*
X104753121Y-31247378D01*
X104670093Y-31183669D01*
X104638125Y-31159139D01*
X104598901Y-31142892D01*
X104504209Y-31103669D01*
X104360500Y-31084750D01*
X104216790Y-31103669D01*
X104082875Y-31159139D01*
X103967878Y-31247378D01*
X103879639Y-31362375D01*
X103824169Y-31496290D01*
X103805250Y-31640000D01*
X99006801Y-31640000D01*
X98997116Y-31627378D01*
X98930536Y-31576290D01*
X98882120Y-31539139D01*
X98842896Y-31522892D01*
X98748204Y-31483669D01*
X98604495Y-31464750D01*
X98460785Y-31483669D01*
X98326870Y-31539139D01*
X98211873Y-31627378D01*
X98123634Y-31742375D01*
X98068164Y-31876290D01*
X98049245Y-32019999D01*
X96952452Y-32019999D01*
X96986330Y-31938209D01*
X97005250Y-31794500D01*
X96986330Y-31650791D01*
X96981860Y-31640000D01*
X96970083Y-31611567D01*
X96930861Y-31516875D01*
X96850864Y-31412621D01*
X96842621Y-31401878D01*
X96745531Y-31327379D01*
X96727625Y-31313639D01*
X96688401Y-31297392D01*
X96593709Y-31258169D01*
X96450000Y-31239250D01*
X96306290Y-31258169D01*
X96172375Y-31313639D01*
X96057378Y-31401878D01*
X95969139Y-31516875D01*
X95913669Y-31650790D01*
X95894750Y-31794499D01*
X94445442Y-31794499D01*
X94455250Y-31720000D01*
X94436330Y-31576291D01*
X94435898Y-31575249D01*
X94403193Y-31496290D01*
X94380861Y-31442375D01*
X94318910Y-31361639D01*
X94292621Y-31327378D01*
X94227552Y-31277450D01*
X94177625Y-31239139D01*
X94138401Y-31222892D01*
X94043709Y-31183669D01*
X93900000Y-31164750D01*
X93756290Y-31183669D01*
X93622375Y-31239139D01*
X93507378Y-31327378D01*
X93419139Y-31442375D01*
X93363669Y-31576290D01*
X93344750Y-31719999D01*
X84300500Y-31719999D01*
X84300500Y-30720000D01*
X105814750Y-30720000D01*
X105833669Y-30863709D01*
X105872892Y-30958401D01*
X105889139Y-30997625D01*
X105906308Y-31020000D01*
X105977378Y-31112621D01*
X106022851Y-31147513D01*
X106092375Y-31200861D01*
X106184788Y-31239139D01*
X106226290Y-31256330D01*
X106240259Y-31258169D01*
X106370000Y-31275250D01*
X106513709Y-31256330D01*
X106647625Y-31200861D01*
X106690533Y-31167936D01*
X106748204Y-31147513D01*
X106806870Y-31164889D01*
X106842261Y-31208593D01*
X106879139Y-31297625D01*
X106967378Y-31412621D01*
X107006155Y-31442375D01*
X107082375Y-31500861D01*
X107174788Y-31539139D01*
X107216290Y-31556330D01*
X107233008Y-31558531D01*
X107360000Y-31575250D01*
X107503709Y-31556330D01*
X107637625Y-31500861D01*
X107752621Y-31412621D01*
X107840861Y-31297625D01*
X107896330Y-31163709D01*
X107915250Y-31020000D01*
X107896330Y-30876291D01*
X107891118Y-30863709D01*
X107880083Y-30837067D01*
X107840861Y-30742375D01*
X107790932Y-30677306D01*
X107752621Y-30627378D01*
X107680531Y-30572062D01*
X107637625Y-30539139D01*
X107598401Y-30522892D01*
X107503709Y-30483669D01*
X107360000Y-30464750D01*
X107216290Y-30483669D01*
X107082375Y-30539138D01*
X107039469Y-30572062D01*
X106981793Y-30592486D01*
X106923128Y-30575108D01*
X106887738Y-30531405D01*
X106883965Y-30522296D01*
X106850861Y-30442375D01*
X106780737Y-30350988D01*
X106762621Y-30327378D01*
X106696442Y-30276598D01*
X106647625Y-30239139D01*
X106608401Y-30222892D01*
X106513709Y-30183669D01*
X106370000Y-30164750D01*
X106226290Y-30183669D01*
X106092375Y-30239139D01*
X105977378Y-30327378D01*
X105889139Y-30442375D01*
X105833669Y-30576290D01*
X105814750Y-30720000D01*
X84300500Y-30720000D01*
X84300500Y-29795737D01*
X100710958Y-29795737D01*
X100729877Y-29939447D01*
X100769100Y-30034139D01*
X100785347Y-30073363D01*
X100823658Y-30123290D01*
X100873586Y-30188359D01*
X100923514Y-30226670D01*
X100988583Y-30276599D01*
X101083275Y-30315821D01*
X101122498Y-30332068D01*
X101139216Y-30334269D01*
X101266208Y-30350988D01*
X101409917Y-30332068D01*
X101543833Y-30276599D01*
X101658829Y-30188359D01*
X101747069Y-30073363D01*
X101802538Y-29939447D01*
X101821458Y-29795738D01*
X101802538Y-29652029D01*
X101802054Y-29650861D01*
X101786291Y-29612805D01*
X101747069Y-29518113D01*
X101663625Y-29409367D01*
X101658829Y-29403116D01*
X101593760Y-29353188D01*
X101543833Y-29314877D01*
X101502180Y-29297624D01*
X101409917Y-29259407D01*
X101282925Y-29242689D01*
X101266208Y-29240488D01*
X101266207Y-29240488D01*
X101122498Y-29259407D01*
X100988583Y-29314877D01*
X100873586Y-29403116D01*
X100785347Y-29518113D01*
X100729877Y-29652028D01*
X100710958Y-29795737D01*
X84300500Y-29795737D01*
X84300500Y-29170000D01*
X90444750Y-29170000D01*
X90463669Y-29313709D01*
X90495456Y-29390448D01*
X90519139Y-29447625D01*
X90557450Y-29497552D01*
X90607378Y-29562621D01*
X90623837Y-29575250D01*
X90722375Y-29650861D01*
X90817067Y-29690083D01*
X90856290Y-29706330D01*
X90873008Y-29708531D01*
X91000000Y-29725250D01*
X91143709Y-29706330D01*
X91277625Y-29650861D01*
X91392621Y-29562621D01*
X91480861Y-29447625D01*
X91525996Y-29338656D01*
X91565732Y-29292131D01*
X91625227Y-29277847D01*
X91677727Y-29298000D01*
X91725919Y-29334979D01*
X91859834Y-29390448D01*
X91878754Y-29392938D01*
X92003544Y-29409368D01*
X92147253Y-29390448D01*
X92281169Y-29334979D01*
X92396165Y-29246739D01*
X92484405Y-29131743D01*
X92484405Y-29131740D01*
X92488326Y-29126632D01*
X92538750Y-29091976D01*
X92599914Y-29093577D01*
X92648456Y-29130824D01*
X92656764Y-29152462D01*
X92658682Y-29151668D01*
X92667755Y-29173572D01*
X92719139Y-29297625D01*
X92731481Y-29313709D01*
X92807378Y-29412621D01*
X92852997Y-29447625D01*
X92922375Y-29500861D01*
X93017067Y-29540083D01*
X93056290Y-29556330D01*
X93073008Y-29558531D01*
X93200000Y-29575250D01*
X93343709Y-29556330D01*
X93477625Y-29500861D01*
X93592621Y-29412621D01*
X93680861Y-29297625D01*
X93736330Y-29163709D01*
X93755250Y-29020000D01*
X93736330Y-28876291D01*
X93680861Y-28742375D01*
X93630932Y-28677306D01*
X93592621Y-28627378D01*
X93516319Y-28568830D01*
X93477625Y-28539139D01*
X93438401Y-28522892D01*
X93343709Y-28483669D01*
X93216717Y-28466951D01*
X93200000Y-28464750D01*
X93199999Y-28464750D01*
X93056290Y-28483669D01*
X92922375Y-28539139D01*
X92807380Y-28627377D01*
X92715217Y-28747486D01*
X92664792Y-28782141D01*
X92603628Y-28780539D01*
X92555086Y-28743292D01*
X92546781Y-28721654D01*
X92544862Y-28722450D01*
X92508088Y-28633670D01*
X92484405Y-28576493D01*
X92413179Y-28483670D01*
X92396165Y-28461496D01*
X92331096Y-28411568D01*
X92281169Y-28373257D01*
X92241945Y-28357010D01*
X92147253Y-28317787D01*
X92020261Y-28301069D01*
X92003544Y-28298868D01*
X92003543Y-28298868D01*
X91859834Y-28317787D01*
X91725919Y-28373257D01*
X91610922Y-28461496D01*
X91522683Y-28576492D01*
X91477547Y-28685461D01*
X91437810Y-28731987D01*
X91378315Y-28746270D01*
X91325816Y-28726117D01*
X91305344Y-28710409D01*
X91277625Y-28689139D01*
X91238401Y-28672892D01*
X91143709Y-28633669D01*
X91000000Y-28614750D01*
X90856290Y-28633669D01*
X90722375Y-28689139D01*
X90607378Y-28777378D01*
X90519139Y-28892375D01*
X90463669Y-29026290D01*
X90444750Y-29170000D01*
X84300500Y-29170000D01*
X84300500Y-26390000D01*
X84654750Y-26390000D01*
X84673669Y-26533709D01*
X84686303Y-26564209D01*
X84729139Y-26667625D01*
X84752542Y-26698124D01*
X84817378Y-26782621D01*
X84840886Y-26800659D01*
X84932375Y-26870861D01*
X85026864Y-26909999D01*
X85066290Y-26926330D01*
X85085210Y-26928820D01*
X85210000Y-26945250D01*
X85353709Y-26926330D01*
X85487625Y-26870861D01*
X85602621Y-26782621D01*
X85619980Y-26759999D01*
X88114750Y-26759999D01*
X88133669Y-26903709D01*
X88163510Y-26975750D01*
X88189139Y-27037625D01*
X88201481Y-27053709D01*
X88277378Y-27152621D01*
X88308710Y-27176663D01*
X88343366Y-27227087D01*
X88341765Y-27288252D01*
X88326985Y-27315472D01*
X88264139Y-27397375D01*
X88208669Y-27531290D01*
X88189750Y-27674999D01*
X88208669Y-27818709D01*
X88237698Y-27888790D01*
X88264139Y-27952625D01*
X88302450Y-28002552D01*
X88352378Y-28067621D01*
X88402306Y-28105932D01*
X88467375Y-28155861D01*
X88562067Y-28195083D01*
X88601290Y-28211330D01*
X88618008Y-28213531D01*
X88745000Y-28230250D01*
X88888709Y-28211330D01*
X89022625Y-28155861D01*
X89137621Y-28067621D01*
X89164571Y-28032499D01*
X94744750Y-28032499D01*
X94763669Y-28176209D01*
X94786054Y-28230250D01*
X94819139Y-28310125D01*
X94857450Y-28360052D01*
X94907378Y-28425121D01*
X94954784Y-28461496D01*
X95022375Y-28513361D01*
X95084610Y-28539139D01*
X95156290Y-28568830D01*
X95173008Y-28571031D01*
X95300000Y-28587750D01*
X95443709Y-28568830D01*
X95577625Y-28513361D01*
X95692621Y-28425121D01*
X95780861Y-28310125D01*
X95836330Y-28176209D01*
X95855250Y-28032500D01*
X95836330Y-27888791D01*
X95780861Y-27754875D01*
X95730932Y-27689806D01*
X95692621Y-27639878D01*
X95627552Y-27589950D01*
X95577625Y-27551639D01*
X95528500Y-27531291D01*
X95443709Y-27496169D01*
X95300000Y-27477250D01*
X95156290Y-27496169D01*
X95022375Y-27551639D01*
X94907378Y-27639878D01*
X94819139Y-27754875D01*
X94763669Y-27888790D01*
X94744750Y-28032499D01*
X89164571Y-28032499D01*
X89225861Y-27952625D01*
X89281330Y-27818709D01*
X89300250Y-27675000D01*
X89281330Y-27531291D01*
X89225861Y-27397375D01*
X89137621Y-27282379D01*
X89106288Y-27258336D01*
X89071633Y-27207911D01*
X89073235Y-27146747D01*
X89088013Y-27119529D01*
X89150861Y-27037625D01*
X89206330Y-26903709D01*
X89225250Y-26760000D01*
X89206330Y-26616291D01*
X89199938Y-26600860D01*
X89182181Y-26557989D01*
X89150861Y-26482375D01*
X89103383Y-26420500D01*
X93540687Y-26420500D01*
X93559606Y-26564209D01*
X93587841Y-26632374D01*
X93615076Y-26698125D01*
X93653387Y-26748052D01*
X93703315Y-26813121D01*
X93722512Y-26827851D01*
X93818312Y-26901361D01*
X93880839Y-26927260D01*
X93952227Y-26956830D01*
X93968945Y-26959031D01*
X94095937Y-26975750D01*
X94239646Y-26956830D01*
X94352708Y-26909999D01*
X105644750Y-26909999D01*
X105663669Y-27053709D01*
X105690932Y-27119526D01*
X105719139Y-27187625D01*
X105757450Y-27237552D01*
X105807378Y-27302621D01*
X105857306Y-27340932D01*
X105922375Y-27390861D01*
X105979050Y-27414336D01*
X106056290Y-27446330D01*
X106073008Y-27448531D01*
X106200000Y-27465250D01*
X106343709Y-27446330D01*
X106477625Y-27390861D01*
X106521103Y-27357499D01*
X117183032Y-27357499D01*
X117189333Y-27387143D01*
X117201441Y-27414336D01*
X117210000Y-27454603D01*
X117210000Y-31770000D01*
X117717523Y-31770000D01*
X117775714Y-31788907D01*
X117811678Y-31838407D01*
X117811678Y-31899593D01*
X117808992Y-31906871D01*
X117796012Y-31938209D01*
X117763669Y-32016291D01*
X117744750Y-32160000D01*
X117763669Y-32303709D01*
X117802245Y-32396838D01*
X117819139Y-32437625D01*
X117851394Y-32479660D01*
X117907378Y-32552621D01*
X117955435Y-32589496D01*
X118022375Y-32640861D01*
X118117067Y-32680083D01*
X118156290Y-32696330D01*
X118173008Y-32698531D01*
X118300000Y-32715250D01*
X118443709Y-32696330D01*
X118577625Y-32640861D01*
X118692621Y-32552621D01*
X118780861Y-32437625D01*
X118836330Y-32303709D01*
X118855250Y-32160000D01*
X118836330Y-32016291D01*
X118791012Y-31906884D01*
X118786212Y-31845889D01*
X118818182Y-31793720D01*
X118874710Y-31770305D01*
X118882477Y-31770000D01*
X119459999Y-31770000D01*
X119460000Y-31770000D01*
X119460000Y-26020000D01*
X118628843Y-26020000D01*
X118570652Y-26001093D01*
X118534688Y-25951593D01*
X118534688Y-25890407D01*
X118568576Y-25842458D01*
X118672621Y-25762621D01*
X118684128Y-25747625D01*
X118760861Y-25647625D01*
X118816330Y-25513709D01*
X118835250Y-25370000D01*
X118816330Y-25226291D01*
X118760861Y-25092375D01*
X118681645Y-24989139D01*
X118672621Y-24977378D01*
X118607552Y-24927450D01*
X118557625Y-24889139D01*
X118518401Y-24872892D01*
X118423709Y-24833669D01*
X118280000Y-24814750D01*
X118136290Y-24833669D01*
X118002375Y-24889139D01*
X117887378Y-24977378D01*
X117799139Y-25092375D01*
X117743669Y-25226290D01*
X117724750Y-25369999D01*
X117743669Y-25513709D01*
X117781587Y-25605249D01*
X117799139Y-25647625D01*
X117837450Y-25697552D01*
X117887378Y-25762621D01*
X117991424Y-25842458D01*
X118026080Y-25892882D01*
X118024479Y-25954047D01*
X117987231Y-26002588D01*
X117931157Y-26020000D01*
X117210000Y-26020000D01*
X117209999Y-26020001D01*
X117209999Y-26760395D01*
X117201441Y-26800659D01*
X117189335Y-26827851D01*
X117183032Y-26857499D01*
X117187937Y-26863556D01*
X117209864Y-26920677D01*
X117210000Y-26925859D01*
X117210000Y-27289140D01*
X117191093Y-27347331D01*
X117187938Y-27351442D01*
X117183032Y-27357499D01*
X106521103Y-27357499D01*
X106592621Y-27302621D01*
X106680861Y-27187625D01*
X106736330Y-27053709D01*
X106755250Y-26910000D01*
X106736330Y-26766291D01*
X106733724Y-26760000D01*
X106708095Y-26698125D01*
X106680861Y-26632375D01*
X106647017Y-26588269D01*
X106623783Y-26557989D01*
X106603359Y-26500313D01*
X106620737Y-26441647D01*
X106623754Y-26437492D01*
X106709276Y-26326040D01*
X106764745Y-26192124D01*
X106774240Y-26120000D01*
X112044750Y-26120000D01*
X112063669Y-26263709D01*
X112089488Y-26326040D01*
X112119139Y-26397625D01*
X112157450Y-26447552D01*
X112207378Y-26512621D01*
X112234861Y-26533709D01*
X112322375Y-26600861D01*
X112398458Y-26632375D01*
X112456290Y-26656330D01*
X112473008Y-26658531D01*
X112600000Y-26675250D01*
X112743709Y-26656330D01*
X112877625Y-26600861D01*
X112992621Y-26512621D01*
X113066458Y-26416394D01*
X113116882Y-26381739D01*
X113178046Y-26383340D01*
X113223542Y-26416395D01*
X113297378Y-26512621D01*
X113324861Y-26533709D01*
X113412375Y-26600861D01*
X113488458Y-26632375D01*
X113546290Y-26656330D01*
X113565210Y-26658820D01*
X113690000Y-26675250D01*
X113833709Y-26656330D01*
X113967625Y-26600861D01*
X114082621Y-26512621D01*
X114170861Y-26397625D01*
X114226330Y-26263709D01*
X114245250Y-26120000D01*
X114226330Y-25976291D01*
X114217116Y-25954047D01*
X114210083Y-25937067D01*
X114170861Y-25842375D01*
X114115932Y-25770790D01*
X114082621Y-25727378D01*
X113989330Y-25655794D01*
X113967625Y-25639139D01*
X113906231Y-25613709D01*
X113833709Y-25583669D01*
X113706717Y-25566951D01*
X113690000Y-25564750D01*
X113689999Y-25564750D01*
X113546290Y-25583669D01*
X113412375Y-25639139D01*
X113297378Y-25727378D01*
X113223542Y-25823604D01*
X113173118Y-25858260D01*
X113111953Y-25856659D01*
X113066458Y-25823604D01*
X112992621Y-25727378D01*
X112899330Y-25655794D01*
X112877625Y-25639139D01*
X112816231Y-25613709D01*
X112743709Y-25583669D01*
X112600000Y-25564750D01*
X112456290Y-25583669D01*
X112322375Y-25639139D01*
X112207378Y-25727378D01*
X112119139Y-25842375D01*
X112063669Y-25976290D01*
X112044750Y-26120000D01*
X106774240Y-26120000D01*
X106783665Y-26048415D01*
X106764745Y-25904706D01*
X106759847Y-25892882D01*
X106745507Y-25858260D01*
X106709276Y-25770790D01*
X106659347Y-25705721D01*
X106621036Y-25655793D01*
X106555165Y-25605249D01*
X106506040Y-25567554D01*
X106455172Y-25546484D01*
X106372124Y-25512084D01*
X106228415Y-25493165D01*
X106084705Y-25512084D01*
X105950790Y-25567554D01*
X105835793Y-25655793D01*
X105747554Y-25770790D01*
X105692084Y-25904705D01*
X105673165Y-26048414D01*
X105692084Y-26192124D01*
X105747553Y-26326039D01*
X105804631Y-26400424D01*
X105825055Y-26458099D01*
X105807677Y-26516765D01*
X105804631Y-26520958D01*
X105719139Y-26632374D01*
X105663669Y-26766290D01*
X105644750Y-26909999D01*
X94352708Y-26909999D01*
X94373562Y-26901361D01*
X94488558Y-26813121D01*
X94576798Y-26698125D01*
X94632267Y-26564209D01*
X94651187Y-26420500D01*
X94632267Y-26276791D01*
X94626848Y-26263709D01*
X94597197Y-26192124D01*
X94576798Y-26142875D01*
X94504316Y-26048415D01*
X94488558Y-26027878D01*
X94421326Y-25976290D01*
X94373562Y-25939639D01*
X94334338Y-25923392D01*
X94239646Y-25884169D01*
X94095937Y-25865250D01*
X93952227Y-25884169D01*
X93818312Y-25939639D01*
X93703315Y-26027878D01*
X93615076Y-26142875D01*
X93559606Y-26276790D01*
X93540687Y-26420500D01*
X89103383Y-26420500D01*
X89100932Y-26417306D01*
X89062621Y-26367378D01*
X88997552Y-26317450D01*
X88947625Y-26279139D01*
X88908401Y-26262892D01*
X88813709Y-26223669D01*
X88686717Y-26206951D01*
X88670000Y-26204750D01*
X88669999Y-26204750D01*
X88526290Y-26223669D01*
X88392375Y-26279139D01*
X88277378Y-26367378D01*
X88189139Y-26482375D01*
X88133669Y-26616290D01*
X88114750Y-26759999D01*
X85619980Y-26759999D01*
X85690861Y-26667625D01*
X85746330Y-26533709D01*
X85765250Y-26390000D01*
X85746330Y-26246291D01*
X85690861Y-26112375D01*
X85626024Y-26027878D01*
X85602621Y-25997378D01*
X85527373Y-25939639D01*
X85487625Y-25909139D01*
X85427344Y-25884170D01*
X85353709Y-25853669D01*
X85226717Y-25836951D01*
X85210000Y-25834750D01*
X85209999Y-25834750D01*
X85066290Y-25853669D01*
X84932375Y-25909139D01*
X84817378Y-25997378D01*
X84729139Y-26112375D01*
X84673669Y-26246290D01*
X84654750Y-26390000D01*
X84300500Y-26390000D01*
X84300500Y-25239500D01*
X91464750Y-25239500D01*
X91483669Y-25383209D01*
X91493317Y-25406500D01*
X91539139Y-25517125D01*
X91561667Y-25546484D01*
X91627378Y-25632121D01*
X91658230Y-25655794D01*
X91742375Y-25720361D01*
X91837067Y-25759583D01*
X91876290Y-25775830D01*
X91893008Y-25778031D01*
X92020000Y-25794750D01*
X92163709Y-25775830D01*
X92297625Y-25720361D01*
X92412621Y-25632121D01*
X92500861Y-25517125D01*
X92528665Y-25449999D01*
X96414750Y-25449999D01*
X96433669Y-25593709D01*
X96459386Y-25655794D01*
X96489139Y-25727625D01*
X96504485Y-25747624D01*
X96577378Y-25842621D01*
X96627306Y-25880932D01*
X96692375Y-25930861D01*
X96787067Y-25970083D01*
X96826290Y-25986330D01*
X96845209Y-25988820D01*
X96970000Y-26005250D01*
X97113709Y-25986330D01*
X97247625Y-25930861D01*
X97362621Y-25842621D01*
X97450861Y-25727625D01*
X97500702Y-25607294D01*
X97540439Y-25560768D01*
X97599934Y-25546484D01*
X97630046Y-25553713D01*
X97708791Y-25586330D01*
X97852500Y-25605250D01*
X97996209Y-25586330D01*
X98130125Y-25530861D01*
X98209440Y-25470000D01*
X101194750Y-25470000D01*
X101213669Y-25613709D01*
X101252892Y-25708401D01*
X101269139Y-25747625D01*
X101307450Y-25797552D01*
X101357378Y-25862621D01*
X101407306Y-25900932D01*
X101472375Y-25950861D01*
X101558006Y-25986330D01*
X101606290Y-26006330D01*
X101623008Y-26008531D01*
X101750000Y-26025250D01*
X101893709Y-26006330D01*
X102027625Y-25950861D01*
X102142621Y-25862621D01*
X102230861Y-25747625D01*
X102286330Y-25613709D01*
X102305250Y-25470000D01*
X102286506Y-25327625D01*
X102286330Y-25326290D01*
X102270083Y-25287067D01*
X102230861Y-25192375D01*
X102180932Y-25127306D01*
X102142621Y-25077378D01*
X102056301Y-25011143D01*
X102027625Y-24989139D01*
X101979340Y-24969139D01*
X101893709Y-24933669D01*
X101766717Y-24916951D01*
X101750000Y-24914750D01*
X101749999Y-24914750D01*
X101606290Y-24933669D01*
X101472375Y-24989139D01*
X101357378Y-25077378D01*
X101269139Y-25192375D01*
X101213669Y-25326290D01*
X101194750Y-25470000D01*
X98209440Y-25470000D01*
X98245121Y-25442621D01*
X98333361Y-25327625D01*
X98388830Y-25193709D01*
X98407750Y-25050000D01*
X98389944Y-24914750D01*
X98388830Y-24906290D01*
X98364221Y-24846879D01*
X98333361Y-24772375D01*
X98265740Y-24684250D01*
X98245121Y-24657378D01*
X98160727Y-24592621D01*
X98130125Y-24569139D01*
X98090901Y-24552892D01*
X98035635Y-24530000D01*
X119708672Y-24530000D01*
X119727931Y-24713238D01*
X119784867Y-24888468D01*
X119876991Y-25048032D01*
X120000276Y-25184954D01*
X120149336Y-25293252D01*
X120317655Y-25368193D01*
X120497876Y-25406500D01*
X120497878Y-25406500D01*
X120682122Y-25406500D01*
X120682124Y-25406500D01*
X120862345Y-25368193D01*
X121030664Y-25293252D01*
X121179724Y-25184954D01*
X121303009Y-25048032D01*
X121395133Y-24888468D01*
X121452069Y-24713238D01*
X121471328Y-24530000D01*
X121452069Y-24346762D01*
X121395133Y-24171532D01*
X121303009Y-24011968D01*
X121179724Y-23875046D01*
X121153908Y-23856290D01*
X121086588Y-23807379D01*
X121030664Y-23766748D01*
X121009855Y-23757483D01*
X120862346Y-23691807D01*
X120794706Y-23677430D01*
X120682124Y-23653500D01*
X120497876Y-23653500D01*
X120428840Y-23668174D01*
X120317653Y-23691807D01*
X120149337Y-23766747D01*
X120000276Y-23875045D01*
X119876991Y-24011968D01*
X119784867Y-24171531D01*
X119784867Y-24171532D01*
X119727931Y-24346762D01*
X119708672Y-24530000D01*
X98035635Y-24530000D01*
X97996209Y-24513669D01*
X97852500Y-24494750D01*
X97708790Y-24513669D01*
X97574875Y-24569139D01*
X97459878Y-24657378D01*
X97371639Y-24772374D01*
X97321796Y-24892706D01*
X97282059Y-24939232D01*
X97222564Y-24953515D01*
X97192449Y-24946284D01*
X97154286Y-24930477D01*
X97113708Y-24913669D01*
X96970000Y-24894750D01*
X96826290Y-24913669D01*
X96692375Y-24969139D01*
X96577378Y-25057378D01*
X96489139Y-25172375D01*
X96433669Y-25306290D01*
X96414750Y-25449999D01*
X92528665Y-25449999D01*
X92556330Y-25383209D01*
X92575250Y-25239500D01*
X92556330Y-25095791D01*
X92500861Y-24961875D01*
X92449354Y-24894750D01*
X92412621Y-24846878D01*
X92331365Y-24784529D01*
X92297625Y-24758639D01*
X92243766Y-24736330D01*
X92163709Y-24703169D01*
X92036717Y-24686451D01*
X92020000Y-24684250D01*
X92019999Y-24684250D01*
X91876290Y-24703169D01*
X91742375Y-24758639D01*
X91627378Y-24846878D01*
X91539139Y-24961875D01*
X91483669Y-25095790D01*
X91464750Y-25239500D01*
X84300500Y-25239500D01*
X84300500Y-23196569D01*
X88304693Y-23196569D01*
X88323612Y-23340278D01*
X88359792Y-23427624D01*
X88379082Y-23474194D01*
X88398675Y-23499728D01*
X88467321Y-23589190D01*
X88517249Y-23627501D01*
X88582318Y-23677430D01*
X88677010Y-23716652D01*
X88716233Y-23732899D01*
X88732951Y-23735100D01*
X88859943Y-23751819D01*
X89003652Y-23732899D01*
X89137568Y-23677430D01*
X89252564Y-23589190D01*
X89340804Y-23474194D01*
X89356670Y-23435889D01*
X89396403Y-23389367D01*
X89455897Y-23375082D01*
X89512426Y-23398496D01*
X89526674Y-23413510D01*
X89587378Y-23492621D01*
X89620265Y-23517856D01*
X89654921Y-23568280D01*
X89653320Y-23629445D01*
X89616073Y-23677986D01*
X89597884Y-23687862D01*
X89522374Y-23719139D01*
X89407378Y-23807378D01*
X89319139Y-23922375D01*
X89263669Y-24056290D01*
X89244750Y-24199999D01*
X89263669Y-24343709D01*
X89302892Y-24438401D01*
X89319139Y-24477625D01*
X89357450Y-24527552D01*
X89407378Y-24592621D01*
X89457306Y-24630932D01*
X89522375Y-24680861D01*
X89617067Y-24720083D01*
X89656290Y-24736330D01*
X89673008Y-24738531D01*
X89800000Y-24755250D01*
X89943709Y-24736330D01*
X90077625Y-24680861D01*
X90192621Y-24592621D01*
X90280861Y-24477625D01*
X90336330Y-24343709D01*
X90355250Y-24200000D01*
X90336330Y-24056291D01*
X90280861Y-23922375D01*
X90230152Y-23856290D01*
X90192621Y-23807378D01*
X90159734Y-23782143D01*
X90125078Y-23731719D01*
X90126679Y-23670554D01*
X90163927Y-23622013D01*
X90182112Y-23612138D01*
X90257625Y-23580861D01*
X90372621Y-23492621D01*
X90460861Y-23377625D01*
X90516330Y-23243709D01*
X90516329Y-23243709D01*
X90519689Y-23235600D01*
X90559425Y-23189074D01*
X90618920Y-23174790D01*
X90675448Y-23198205D01*
X90707418Y-23250374D01*
X90709306Y-23260563D01*
X90713669Y-23293709D01*
X90769138Y-23427624D01*
X90810729Y-23481826D01*
X90831153Y-23539502D01*
X90813775Y-23598167D01*
X90810729Y-23602360D01*
X90718639Y-23722375D01*
X90663169Y-23856290D01*
X90644250Y-24000000D01*
X90663169Y-24143709D01*
X90686486Y-24200000D01*
X90718639Y-24277625D01*
X90743992Y-24310665D01*
X90806878Y-24392621D01*
X90848517Y-24424571D01*
X90921875Y-24480861D01*
X91016567Y-24520083D01*
X91055790Y-24536330D01*
X91072508Y-24538531D01*
X91199500Y-24555250D01*
X91343209Y-24536330D01*
X91477125Y-24480861D01*
X91592121Y-24392621D01*
X91680361Y-24277625D01*
X91735830Y-24143709D01*
X91754750Y-24000000D01*
X91735830Y-23856291D01*
X91727246Y-23835568D01*
X91703173Y-23777450D01*
X91680361Y-23722375D01*
X91638769Y-23668171D01*
X91618346Y-23610498D01*
X91635723Y-23551832D01*
X91638770Y-23547638D01*
X91642617Y-23542623D01*
X91642621Y-23542621D01*
X91730861Y-23427625D01*
X91769748Y-23333740D01*
X91809485Y-23287214D01*
X91868980Y-23272930D01*
X91925508Y-23296345D01*
X91952677Y-23333739D01*
X91979139Y-23397625D01*
X92067378Y-23512621D01*
X92113014Y-23547638D01*
X92182375Y-23600861D01*
X92268006Y-23636330D01*
X92316290Y-23656330D01*
X92335209Y-23658820D01*
X92460000Y-23675250D01*
X92603709Y-23656330D01*
X92737625Y-23600861D01*
X92852621Y-23512621D01*
X92866463Y-23494582D01*
X94100000Y-23494582D01*
X94100269Y-23499728D01*
X94114818Y-23638154D01*
X94173279Y-23818075D01*
X94267875Y-23981922D01*
X94394466Y-24122514D01*
X94547518Y-24233715D01*
X94720353Y-24310665D01*
X94749999Y-24316966D01*
X94750000Y-24316965D01*
X94750000Y-23450000D01*
X94100001Y-23450000D01*
X94100000Y-23450001D01*
X94100000Y-23494582D01*
X92866463Y-23494582D01*
X92940861Y-23397625D01*
X92996330Y-23263709D01*
X93004718Y-23200000D01*
X94745102Y-23200000D01*
X94764505Y-23297545D01*
X94819760Y-23380240D01*
X94902455Y-23435495D01*
X94975376Y-23450000D01*
X95024624Y-23450000D01*
X95097545Y-23435495D01*
X95180240Y-23380240D01*
X95235495Y-23297545D01*
X95250000Y-23224623D01*
X95250000Y-24316966D01*
X95279646Y-24310665D01*
X95452476Y-24233716D01*
X95605533Y-24122514D01*
X95693889Y-24024385D01*
X95746877Y-23993792D01*
X95807728Y-24000188D01*
X95833111Y-24016526D01*
X95849148Y-24030734D01*
X95999775Y-24109790D01*
X96051399Y-24122514D01*
X96164943Y-24150500D01*
X96164944Y-24150500D01*
X96335057Y-24150500D01*
X96390112Y-24136929D01*
X96500225Y-24109790D01*
X96650852Y-24030734D01*
X96650851Y-24030734D01*
X96650854Y-24030733D01*
X96756141Y-23937456D01*
X96778183Y-23917929D01*
X96793525Y-23895702D01*
X96842141Y-23858553D01*
X96903308Y-23857075D01*
X96953663Y-23891832D01*
X96956463Y-23895686D01*
X96971817Y-23917929D01*
X96971818Y-23917930D01*
X96971819Y-23917931D01*
X97099145Y-24030733D01*
X97147840Y-24056290D01*
X97249775Y-24109790D01*
X97301399Y-24122514D01*
X97414943Y-24150500D01*
X97414944Y-24150500D01*
X97585057Y-24150500D01*
X97640112Y-24136929D01*
X97750225Y-24109790D01*
X97900852Y-24030734D01*
X97900851Y-24030734D01*
X97900854Y-24030733D01*
X98006141Y-23937456D01*
X98028183Y-23917929D01*
X98043525Y-23895702D01*
X98092141Y-23858553D01*
X98153308Y-23857075D01*
X98203663Y-23891832D01*
X98206463Y-23895686D01*
X98221817Y-23917929D01*
X98221818Y-23917930D01*
X98221819Y-23917931D01*
X98349145Y-24030733D01*
X98397840Y-24056290D01*
X98499775Y-24109790D01*
X98551399Y-24122514D01*
X98664943Y-24150500D01*
X98664944Y-24150500D01*
X98835057Y-24150500D01*
X98890112Y-24136929D01*
X99000225Y-24109790D01*
X99150852Y-24030734D01*
X99150851Y-24030734D01*
X99150854Y-24030733D01*
X99256142Y-23937456D01*
X99312236Y-23913020D01*
X99371980Y-23926223D01*
X99401042Y-23952228D01*
X99442454Y-24007546D01*
X99557669Y-24093796D01*
X99692517Y-24144091D01*
X99752127Y-24150500D01*
X100247872Y-24150499D01*
X100307483Y-24144091D01*
X100442331Y-24093796D01*
X100557546Y-24007546D01*
X100643796Y-23892331D01*
X100694091Y-23757483D01*
X100700500Y-23697873D01*
X100700499Y-22702128D01*
X100694091Y-22642517D01*
X100643796Y-22507669D01*
X100557546Y-22392454D01*
X100471295Y-22327886D01*
X100442330Y-22306203D01*
X100346366Y-22270411D01*
X100307483Y-22255909D01*
X100263334Y-22251162D01*
X100250498Y-22249782D01*
X100250493Y-22249781D01*
X100247873Y-22249500D01*
X100245227Y-22249500D01*
X99754775Y-22249500D01*
X99754756Y-22249500D01*
X99752128Y-22249501D01*
X99749513Y-22249782D01*
X99749496Y-22249783D01*
X99692515Y-22255909D01*
X99557669Y-22306203D01*
X99454448Y-22383475D01*
X99442454Y-22392454D01*
X99430885Y-22407909D01*
X99401044Y-22447771D01*
X99351035Y-22483023D01*
X99289856Y-22482149D01*
X99256142Y-22462544D01*
X99150851Y-22369265D01*
X99000223Y-22290209D01*
X98835057Y-22249500D01*
X98835056Y-22249500D01*
X98664944Y-22249500D01*
X98664943Y-22249500D01*
X98499776Y-22290209D01*
X98349145Y-22369266D01*
X98221817Y-22482069D01*
X98206475Y-22504297D01*
X98157858Y-22541446D01*
X98096690Y-22542924D01*
X98046336Y-22508166D01*
X98043525Y-22504297D01*
X98028182Y-22482069D01*
X97900854Y-22369266D01*
X97750223Y-22290209D01*
X97585057Y-22249500D01*
X97585056Y-22249500D01*
X97414944Y-22249500D01*
X97414943Y-22249500D01*
X97249776Y-22290209D01*
X97099145Y-22369266D01*
X96971817Y-22482069D01*
X96956475Y-22504297D01*
X96907858Y-22541446D01*
X96846690Y-22542924D01*
X96796336Y-22508166D01*
X96793525Y-22504297D01*
X96778182Y-22482069D01*
X96650854Y-22369266D01*
X96500223Y-22290209D01*
X96335057Y-22249500D01*
X96335056Y-22249500D01*
X96164944Y-22249500D01*
X96164943Y-22249500D01*
X95999776Y-22290209D01*
X95849148Y-22369265D01*
X95833109Y-22383475D01*
X95777014Y-22407909D01*
X95717270Y-22394705D01*
X95693890Y-22375615D01*
X95605533Y-22277485D01*
X95452481Y-22166284D01*
X95279646Y-22089334D01*
X95250000Y-22083032D01*
X95250000Y-23175376D01*
X95235495Y-23102455D01*
X95180240Y-23019760D01*
X95097545Y-22964505D01*
X95024624Y-22950000D01*
X94975376Y-22950000D01*
X94902455Y-22964505D01*
X94819760Y-23019760D01*
X94764505Y-23102455D01*
X94745102Y-23200000D01*
X93004718Y-23200000D01*
X93015250Y-23120000D01*
X92996330Y-22976291D01*
X92988045Y-22956290D01*
X92985439Y-22949999D01*
X94100000Y-22949999D01*
X94100001Y-22950000D01*
X94749999Y-22950000D01*
X94750000Y-22949999D01*
X94750000Y-22083033D01*
X94749999Y-22083032D01*
X94720353Y-22089334D01*
X94547523Y-22166283D01*
X94394463Y-22277487D01*
X94267875Y-22418077D01*
X94173279Y-22581924D01*
X94114818Y-22761845D01*
X94100269Y-22900271D01*
X94100000Y-22905417D01*
X94100000Y-22949999D01*
X92985439Y-22949999D01*
X92964842Y-22900271D01*
X92940861Y-22842375D01*
X92875640Y-22757378D01*
X92852621Y-22727378D01*
X92787552Y-22677450D01*
X92737625Y-22639139D01*
X92689340Y-22619139D01*
X92603709Y-22583669D01*
X92460000Y-22564750D01*
X92316290Y-22583669D01*
X92182375Y-22639139D01*
X92067378Y-22727378D01*
X91979139Y-22842374D01*
X91940250Y-22936260D01*
X91900513Y-22982786D01*
X91841018Y-22997069D01*
X91784490Y-22973654D01*
X91757322Y-22936259D01*
X91744547Y-22905417D01*
X91730861Y-22872375D01*
X91707840Y-22842374D01*
X91642621Y-22757378D01*
X91567187Y-22699496D01*
X91527625Y-22669139D01*
X91463353Y-22642517D01*
X91393709Y-22613669D01*
X91266717Y-22596951D01*
X91250000Y-22594750D01*
X91249999Y-22594750D01*
X91106290Y-22613669D01*
X90972375Y-22669139D01*
X90857378Y-22757378D01*
X90769139Y-22872374D01*
X90710310Y-23014400D01*
X90670573Y-23060926D01*
X90611078Y-23075209D01*
X90554550Y-23051794D01*
X90522581Y-22999625D01*
X90520693Y-22989434D01*
X90516330Y-22956290D01*
X90495997Y-22907203D01*
X90460861Y-22822375D01*
X90387967Y-22727378D01*
X90372621Y-22707378D01*
X90307552Y-22657450D01*
X90257625Y-22619139D01*
X90198744Y-22594750D01*
X90123709Y-22563669D01*
X89996717Y-22546951D01*
X89980000Y-22544750D01*
X89979999Y-22544750D01*
X89836290Y-22563669D01*
X89702375Y-22619139D01*
X89587378Y-22707378D01*
X89499139Y-22822374D01*
X89483274Y-22860677D01*
X89443537Y-22907203D01*
X89384042Y-22921486D01*
X89327514Y-22898071D01*
X89313268Y-22883058D01*
X89252564Y-22803947D01*
X89187495Y-22754019D01*
X89137568Y-22715708D01*
X89098344Y-22699461D01*
X89003652Y-22660238D01*
X88859943Y-22641319D01*
X88716233Y-22660238D01*
X88582318Y-22715708D01*
X88467321Y-22803947D01*
X88379082Y-22918944D01*
X88323612Y-23052859D01*
X88304693Y-23196569D01*
X84300500Y-23196569D01*
X84300500Y-21535272D01*
X84300578Y-21532500D01*
X84844700Y-21532500D01*
X84863866Y-21763805D01*
X84913768Y-21960860D01*
X84920844Y-21988804D01*
X84998695Y-22166284D01*
X85014076Y-22201349D01*
X85141021Y-22395653D01*
X85298216Y-22566413D01*
X85481374Y-22708970D01*
X85685497Y-22819436D01*
X85905019Y-22894798D01*
X86133951Y-22933000D01*
X86133953Y-22933000D01*
X86366047Y-22933000D01*
X86366049Y-22933000D01*
X86594981Y-22894798D01*
X86814503Y-22819436D01*
X87018626Y-22708970D01*
X87201784Y-22566413D01*
X87358979Y-22395653D01*
X87485924Y-22201349D01*
X87579157Y-21988800D01*
X87636134Y-21763805D01*
X87655300Y-21532500D01*
X87650950Y-21480000D01*
X117274750Y-21480000D01*
X117293669Y-21623709D01*
X117329580Y-21710405D01*
X117349139Y-21757625D01*
X117387450Y-21807552D01*
X117437378Y-21872621D01*
X117446200Y-21879390D01*
X117552375Y-21960861D01*
X117647067Y-22000083D01*
X117686290Y-22016330D01*
X117703008Y-22018531D01*
X117830000Y-22035250D01*
X117973709Y-22016330D01*
X118107625Y-21960861D01*
X118222621Y-21872621D01*
X118310861Y-21757625D01*
X118366330Y-21623709D01*
X118378338Y-21532500D01*
X119344700Y-21532500D01*
X119363866Y-21763805D01*
X119413768Y-21960860D01*
X119420844Y-21988804D01*
X119498695Y-22166284D01*
X119514076Y-22201349D01*
X119641021Y-22395653D01*
X119798216Y-22566413D01*
X119981374Y-22708970D01*
X120185497Y-22819436D01*
X120405019Y-22894798D01*
X120633951Y-22933000D01*
X120633953Y-22933000D01*
X120866047Y-22933000D01*
X120866049Y-22933000D01*
X121094981Y-22894798D01*
X121314503Y-22819436D01*
X121518626Y-22708970D01*
X121701784Y-22566413D01*
X121858979Y-22395653D01*
X121985924Y-22201349D01*
X122079157Y-21988800D01*
X122136134Y-21763805D01*
X122155300Y-21532500D01*
X122136134Y-21301195D01*
X122079157Y-21076200D01*
X121985924Y-20863651D01*
X121858979Y-20669347D01*
X121701784Y-20498587D01*
X121518626Y-20356030D01*
X121314503Y-20245564D01*
X121314502Y-20245563D01*
X121314501Y-20245563D01*
X121094981Y-20170202D01*
X120866049Y-20132000D01*
X120633951Y-20132000D01*
X120481329Y-20157468D01*
X120405018Y-20170202D01*
X120185498Y-20245563D01*
X119981373Y-20356030D01*
X119798217Y-20498586D01*
X119641021Y-20669346D01*
X119514073Y-20863656D01*
X119420844Y-21076195D01*
X119363866Y-21301196D01*
X119349355Y-21476327D01*
X119344700Y-21532500D01*
X118378338Y-21532500D01*
X118385250Y-21480000D01*
X118366330Y-21336291D01*
X118310861Y-21202375D01*
X118260932Y-21137306D01*
X118222621Y-21087378D01*
X118157552Y-21037450D01*
X118107625Y-20999139D01*
X118068401Y-20982892D01*
X117973709Y-20943669D01*
X117843034Y-20926466D01*
X117830000Y-20924750D01*
X117829999Y-20924750D01*
X117686290Y-20943669D01*
X117552375Y-20999139D01*
X117437378Y-21087378D01*
X117349139Y-21202375D01*
X117293669Y-21336290D01*
X117274750Y-21480000D01*
X87650950Y-21480000D01*
X87636134Y-21301195D01*
X87579157Y-21076200D01*
X87485924Y-20863651D01*
X87358979Y-20669347D01*
X87201784Y-20498587D01*
X87018626Y-20356030D01*
X86814503Y-20245564D01*
X86814502Y-20245563D01*
X86814501Y-20245563D01*
X86594981Y-20170202D01*
X86594980Y-20170201D01*
X86366049Y-20132000D01*
X86133951Y-20132000D01*
X85981329Y-20157468D01*
X85905018Y-20170202D01*
X85685498Y-20245563D01*
X85481373Y-20356030D01*
X85298217Y-20498586D01*
X85141021Y-20669346D01*
X85014073Y-20863656D01*
X84920844Y-21076195D01*
X84863866Y-21301196D01*
X84849355Y-21476327D01*
X84844700Y-21532500D01*
X84300578Y-21532500D01*
X84300656Y-21529721D01*
X84317162Y-21235802D01*
X84318405Y-21224770D01*
X84322210Y-21202375D01*
X84367253Y-20937271D01*
X84369714Y-20926485D01*
X84450451Y-20646242D01*
X84454111Y-20635783D01*
X84565711Y-20366358D01*
X84570525Y-20356363D01*
X84575101Y-20348084D01*
X84711583Y-20101136D01*
X84717479Y-20091753D01*
X84886230Y-19853921D01*
X84893149Y-19845245D01*
X85087475Y-19627793D01*
X85095293Y-19619975D01*
X85312748Y-19425646D01*
X85321424Y-19418728D01*
X85559253Y-19249979D01*
X85568636Y-19244083D01*
X85823869Y-19103022D01*
X85833858Y-19098211D01*
X86103283Y-18986611D01*
X86113742Y-18982951D01*
X86393985Y-18902214D01*
X86404771Y-18899753D01*
X86692277Y-18850904D01*
X86703296Y-18849662D01*
X86997222Y-18833155D01*
X87002773Y-18833000D01*
X87047595Y-18833000D01*
X119952405Y-18833000D01*
X119997227Y-18833000D01*
X120002777Y-18833155D01*
G37*
%TD.AperFunction*%
%TD*%
M02*
