%TF.GenerationSoftware,KiCad,Pcbnew,7.0.2-0*%
%TF.CreationDate,2023-12-01T11:24:23-06:00*%
%TF.ProjectId,Flight Computer,466c6967-6874-4204-936f-6d7075746572,1.1*%
%TF.SameCoordinates,Original*%
%TF.FileFunction,Drillmap*%
%TF.FilePolarity,Positive*%
%FSLAX45Y45*%
G04 Gerber Fmt 4.5, Leading zero omitted, Abs format (unit mm)*
G04 Created by KiCad (PCBNEW 7.0.2-0) date 2023-12-01 11:24:23*
%MOMM*%
%LPD*%
G01*
G04 APERTURE LIST*
%ADD10C,0.100000*%
%ADD11C,0.150000*%
%ADD12C,0.200000*%
%ADD13C,0.065000*%
%ADD14C,0.090000*%
G04 APERTURE END LIST*
D10*
X12300000Y-2153250D02*
G75*
G03*
X12000000Y-1853250I-300000J0D01*
G01*
X8735000Y-2153250D02*
G75*
G03*
X8735000Y-2153250I-110000J0D01*
G01*
X8700000Y-1853250D02*
G75*
G03*
X8400000Y-2153250I0J-300000D01*
G01*
D11*
X12116600Y-2453000D02*
G75*
G03*
X12116600Y-2453000I-57600J0D01*
G01*
D10*
X12000000Y-1853250D02*
X8700000Y-1853250D01*
X8735000Y-9550000D02*
G75*
G03*
X8735000Y-9550000I-110000J0D01*
G01*
X12185000Y-2153250D02*
G75*
G03*
X12185000Y-2153250I-110000J0D01*
G01*
X12000000Y-9853250D02*
G75*
G03*
X12300000Y-9553250I0J300000D01*
G01*
X8399765Y-9541118D02*
G75*
G03*
X8700000Y-9853250I312366J-2D01*
G01*
X12185000Y-9550000D02*
G75*
G03*
X12185000Y-9550000I-110000J0D01*
G01*
X8700000Y-9853250D02*
X12000000Y-9853250D01*
D11*
X9064600Y-9451000D02*
G75*
G03*
X9064600Y-9451000I-57600J0D01*
G01*
D10*
X12300000Y-9553250D02*
X12300000Y-2153250D01*
X8400000Y-2153250D02*
X8400000Y-9541118D01*
D12*
D13*
X11672500Y-3910500D02*
X11737500Y-3975500D01*
X11737500Y-3910500D02*
X11672500Y-3975500D01*
X11672500Y-4488500D02*
X11737500Y-4553500D01*
X11737500Y-4488500D02*
X11672500Y-4553500D01*
D14*
X12005000Y-8657000D02*
G75*
G03*
X12005000Y-8657000I-45000J0D01*
G01*
X12005000Y-8957000D02*
G75*
G03*
X12005000Y-8957000I-45000J0D01*
G01*
X12009000Y-6290000D02*
G75*
G03*
X12009000Y-6290000I-45000J0D01*
G01*
X12009000Y-6590000D02*
G75*
G03*
X12009000Y-6590000I-45000J0D01*
G01*
D12*
X8642383Y-10170774D02*
X8642383Y-9970774D01*
X8642383Y-9970774D02*
X8690002Y-9970774D01*
X8690002Y-9970774D02*
X8718574Y-9980298D01*
X8718574Y-9980298D02*
X8737622Y-9999345D01*
X8737622Y-9999345D02*
X8747145Y-10018393D01*
X8747145Y-10018393D02*
X8756669Y-10056488D01*
X8756669Y-10056488D02*
X8756669Y-10085060D01*
X8756669Y-10085060D02*
X8747145Y-10123155D01*
X8747145Y-10123155D02*
X8737622Y-10142202D01*
X8737622Y-10142202D02*
X8718574Y-10161250D01*
X8718574Y-10161250D02*
X8690002Y-10170774D01*
X8690002Y-10170774D02*
X8642383Y-10170774D01*
X8842383Y-10170774D02*
X8842383Y-10037440D01*
X8842383Y-10075536D02*
X8851907Y-10056488D01*
X8851907Y-10056488D02*
X8861431Y-10046964D01*
X8861431Y-10046964D02*
X8880479Y-10037440D01*
X8880479Y-10037440D02*
X8899526Y-10037440D01*
X8966193Y-10170774D02*
X8966193Y-10037440D01*
X8966193Y-9970774D02*
X8956669Y-9980298D01*
X8956669Y-9980298D02*
X8966193Y-9989821D01*
X8966193Y-9989821D02*
X8975717Y-9980298D01*
X8975717Y-9980298D02*
X8966193Y-9970774D01*
X8966193Y-9970774D02*
X8966193Y-9989821D01*
X9090002Y-10170774D02*
X9070955Y-10161250D01*
X9070955Y-10161250D02*
X9061431Y-10142202D01*
X9061431Y-10142202D02*
X9061431Y-9970774D01*
X9194764Y-10170774D02*
X9175717Y-10161250D01*
X9175717Y-10161250D02*
X9166193Y-10142202D01*
X9166193Y-10142202D02*
X9166193Y-9970774D01*
X9423336Y-10170774D02*
X9423336Y-9970774D01*
X9423336Y-9970774D02*
X9490003Y-10113631D01*
X9490003Y-10113631D02*
X9556669Y-9970774D01*
X9556669Y-9970774D02*
X9556669Y-10170774D01*
X9737622Y-10170774D02*
X9737622Y-10066012D01*
X9737622Y-10066012D02*
X9728098Y-10046964D01*
X9728098Y-10046964D02*
X9709050Y-10037440D01*
X9709050Y-10037440D02*
X9670955Y-10037440D01*
X9670955Y-10037440D02*
X9651907Y-10046964D01*
X9737622Y-10161250D02*
X9718574Y-10170774D01*
X9718574Y-10170774D02*
X9670955Y-10170774D01*
X9670955Y-10170774D02*
X9651907Y-10161250D01*
X9651907Y-10161250D02*
X9642383Y-10142202D01*
X9642383Y-10142202D02*
X9642383Y-10123155D01*
X9642383Y-10123155D02*
X9651907Y-10104107D01*
X9651907Y-10104107D02*
X9670955Y-10094583D01*
X9670955Y-10094583D02*
X9718574Y-10094583D01*
X9718574Y-10094583D02*
X9737622Y-10085060D01*
X9832860Y-10037440D02*
X9832860Y-10237440D01*
X9832860Y-10046964D02*
X9851907Y-10037440D01*
X9851907Y-10037440D02*
X9890003Y-10037440D01*
X9890003Y-10037440D02*
X9909050Y-10046964D01*
X9909050Y-10046964D02*
X9918574Y-10056488D01*
X9918574Y-10056488D02*
X9928098Y-10075536D01*
X9928098Y-10075536D02*
X9928098Y-10132679D01*
X9928098Y-10132679D02*
X9918574Y-10151726D01*
X9918574Y-10151726D02*
X9909050Y-10161250D01*
X9909050Y-10161250D02*
X9890003Y-10170774D01*
X9890003Y-10170774D02*
X9851907Y-10170774D01*
X9851907Y-10170774D02*
X9832860Y-10161250D01*
X10013812Y-10151726D02*
X10023336Y-10161250D01*
X10023336Y-10161250D02*
X10013812Y-10170774D01*
X10013812Y-10170774D02*
X10004288Y-10161250D01*
X10004288Y-10161250D02*
X10013812Y-10151726D01*
X10013812Y-10151726D02*
X10013812Y-10170774D01*
X10013812Y-10046964D02*
X10023336Y-10056488D01*
X10023336Y-10056488D02*
X10013812Y-10066012D01*
X10013812Y-10066012D02*
X10004288Y-10056488D01*
X10004288Y-10056488D02*
X10013812Y-10046964D01*
X10013812Y-10046964D02*
X10013812Y-10066012D01*
D13*
X8329764Y-10465750D02*
X8394764Y-10530750D01*
X8394764Y-10465750D02*
X8329764Y-10530750D01*
D12*
X8680479Y-10390774D02*
X8699526Y-10390774D01*
X8699526Y-10390774D02*
X8718574Y-10400298D01*
X8718574Y-10400298D02*
X8728098Y-10409821D01*
X8728098Y-10409821D02*
X8737622Y-10428869D01*
X8737622Y-10428869D02*
X8747145Y-10466964D01*
X8747145Y-10466964D02*
X8747145Y-10514583D01*
X8747145Y-10514583D02*
X8737622Y-10552679D01*
X8737622Y-10552679D02*
X8728098Y-10571726D01*
X8728098Y-10571726D02*
X8718574Y-10581250D01*
X8718574Y-10581250D02*
X8699526Y-10590774D01*
X8699526Y-10590774D02*
X8680479Y-10590774D01*
X8680479Y-10590774D02*
X8661431Y-10581250D01*
X8661431Y-10581250D02*
X8651907Y-10571726D01*
X8651907Y-10571726D02*
X8642383Y-10552679D01*
X8642383Y-10552679D02*
X8632860Y-10514583D01*
X8632860Y-10514583D02*
X8632860Y-10466964D01*
X8632860Y-10466964D02*
X8642383Y-10428869D01*
X8642383Y-10428869D02*
X8651907Y-10409821D01*
X8651907Y-10409821D02*
X8661431Y-10400298D01*
X8661431Y-10400298D02*
X8680479Y-10390774D01*
X8832860Y-10571726D02*
X8842383Y-10581250D01*
X8842383Y-10581250D02*
X8832860Y-10590774D01*
X8832860Y-10590774D02*
X8823336Y-10581250D01*
X8823336Y-10581250D02*
X8832860Y-10571726D01*
X8832860Y-10571726D02*
X8832860Y-10590774D01*
X9013812Y-10390774D02*
X8975717Y-10390774D01*
X8975717Y-10390774D02*
X8956669Y-10400298D01*
X8956669Y-10400298D02*
X8947145Y-10409821D01*
X8947145Y-10409821D02*
X8928098Y-10438393D01*
X8928098Y-10438393D02*
X8918574Y-10476488D01*
X8918574Y-10476488D02*
X8918574Y-10552679D01*
X8918574Y-10552679D02*
X8928098Y-10571726D01*
X8928098Y-10571726D02*
X8937622Y-10581250D01*
X8937622Y-10581250D02*
X8956669Y-10590774D01*
X8956669Y-10590774D02*
X8994764Y-10590774D01*
X8994764Y-10590774D02*
X9013812Y-10581250D01*
X9013812Y-10581250D02*
X9023336Y-10571726D01*
X9023336Y-10571726D02*
X9032860Y-10552679D01*
X9032860Y-10552679D02*
X9032860Y-10505060D01*
X9032860Y-10505060D02*
X9023336Y-10486012D01*
X9023336Y-10486012D02*
X9013812Y-10476488D01*
X9013812Y-10476488D02*
X8994764Y-10466964D01*
X8994764Y-10466964D02*
X8956669Y-10466964D01*
X8956669Y-10466964D02*
X8937622Y-10476488D01*
X8937622Y-10476488D02*
X8928098Y-10486012D01*
X8928098Y-10486012D02*
X8918574Y-10505060D01*
X9213812Y-10390774D02*
X9118574Y-10390774D01*
X9118574Y-10390774D02*
X9109050Y-10486012D01*
X9109050Y-10486012D02*
X9118574Y-10476488D01*
X9118574Y-10476488D02*
X9137622Y-10466964D01*
X9137622Y-10466964D02*
X9185241Y-10466964D01*
X9185241Y-10466964D02*
X9204288Y-10476488D01*
X9204288Y-10476488D02*
X9213812Y-10486012D01*
X9213812Y-10486012D02*
X9223336Y-10505060D01*
X9223336Y-10505060D02*
X9223336Y-10552679D01*
X9223336Y-10552679D02*
X9213812Y-10571726D01*
X9213812Y-10571726D02*
X9204288Y-10581250D01*
X9204288Y-10581250D02*
X9185241Y-10590774D01*
X9185241Y-10590774D02*
X9137622Y-10590774D01*
X9137622Y-10590774D02*
X9118574Y-10581250D01*
X9118574Y-10581250D02*
X9109050Y-10571726D01*
X9347145Y-10390774D02*
X9366193Y-10390774D01*
X9366193Y-10390774D02*
X9385241Y-10400298D01*
X9385241Y-10400298D02*
X9394764Y-10409821D01*
X9394764Y-10409821D02*
X9404288Y-10428869D01*
X9404288Y-10428869D02*
X9413812Y-10466964D01*
X9413812Y-10466964D02*
X9413812Y-10514583D01*
X9413812Y-10514583D02*
X9404288Y-10552679D01*
X9404288Y-10552679D02*
X9394764Y-10571726D01*
X9394764Y-10571726D02*
X9385241Y-10581250D01*
X9385241Y-10581250D02*
X9366193Y-10590774D01*
X9366193Y-10590774D02*
X9347145Y-10590774D01*
X9347145Y-10590774D02*
X9328098Y-10581250D01*
X9328098Y-10581250D02*
X9318574Y-10571726D01*
X9318574Y-10571726D02*
X9309050Y-10552679D01*
X9309050Y-10552679D02*
X9299526Y-10514583D01*
X9299526Y-10514583D02*
X9299526Y-10466964D01*
X9299526Y-10466964D02*
X9309050Y-10428869D01*
X9309050Y-10428869D02*
X9318574Y-10409821D01*
X9318574Y-10409821D02*
X9328098Y-10400298D01*
X9328098Y-10400298D02*
X9347145Y-10390774D01*
X9499526Y-10590774D02*
X9499526Y-10457440D01*
X9499526Y-10476488D02*
X9509050Y-10466964D01*
X9509050Y-10466964D02*
X9528098Y-10457440D01*
X9528098Y-10457440D02*
X9556669Y-10457440D01*
X9556669Y-10457440D02*
X9575717Y-10466964D01*
X9575717Y-10466964D02*
X9585241Y-10486012D01*
X9585241Y-10486012D02*
X9585241Y-10590774D01*
X9585241Y-10486012D02*
X9594764Y-10466964D01*
X9594764Y-10466964D02*
X9613812Y-10457440D01*
X9613812Y-10457440D02*
X9642383Y-10457440D01*
X9642383Y-10457440D02*
X9661431Y-10466964D01*
X9661431Y-10466964D02*
X9670955Y-10486012D01*
X9670955Y-10486012D02*
X9670955Y-10590774D01*
X9766193Y-10590774D02*
X9766193Y-10457440D01*
X9766193Y-10476488D02*
X9775717Y-10466964D01*
X9775717Y-10466964D02*
X9794764Y-10457440D01*
X9794764Y-10457440D02*
X9823336Y-10457440D01*
X9823336Y-10457440D02*
X9842384Y-10466964D01*
X9842384Y-10466964D02*
X9851907Y-10486012D01*
X9851907Y-10486012D02*
X9851907Y-10590774D01*
X9851907Y-10486012D02*
X9861431Y-10466964D01*
X9861431Y-10466964D02*
X9880479Y-10457440D01*
X9880479Y-10457440D02*
X9909050Y-10457440D01*
X9909050Y-10457440D02*
X9928098Y-10466964D01*
X9928098Y-10466964D02*
X9937622Y-10486012D01*
X9937622Y-10486012D02*
X9937622Y-10590774D01*
X10328098Y-10381250D02*
X10156669Y-10638393D01*
X10585241Y-10390774D02*
X10604288Y-10390774D01*
X10604288Y-10390774D02*
X10623336Y-10400298D01*
X10623336Y-10400298D02*
X10632860Y-10409821D01*
X10632860Y-10409821D02*
X10642384Y-10428869D01*
X10642384Y-10428869D02*
X10651907Y-10466964D01*
X10651907Y-10466964D02*
X10651907Y-10514583D01*
X10651907Y-10514583D02*
X10642384Y-10552679D01*
X10642384Y-10552679D02*
X10632860Y-10571726D01*
X10632860Y-10571726D02*
X10623336Y-10581250D01*
X10623336Y-10581250D02*
X10604288Y-10590774D01*
X10604288Y-10590774D02*
X10585241Y-10590774D01*
X10585241Y-10590774D02*
X10566193Y-10581250D01*
X10566193Y-10581250D02*
X10556669Y-10571726D01*
X10556669Y-10571726D02*
X10547146Y-10552679D01*
X10547146Y-10552679D02*
X10537622Y-10514583D01*
X10537622Y-10514583D02*
X10537622Y-10466964D01*
X10537622Y-10466964D02*
X10547146Y-10428869D01*
X10547146Y-10428869D02*
X10556669Y-10409821D01*
X10556669Y-10409821D02*
X10566193Y-10400298D01*
X10566193Y-10400298D02*
X10585241Y-10390774D01*
X10737622Y-10571726D02*
X10747146Y-10581250D01*
X10747146Y-10581250D02*
X10737622Y-10590774D01*
X10737622Y-10590774D02*
X10728098Y-10581250D01*
X10728098Y-10581250D02*
X10737622Y-10571726D01*
X10737622Y-10571726D02*
X10737622Y-10590774D01*
X10870955Y-10390774D02*
X10890003Y-10390774D01*
X10890003Y-10390774D02*
X10909050Y-10400298D01*
X10909050Y-10400298D02*
X10918574Y-10409821D01*
X10918574Y-10409821D02*
X10928098Y-10428869D01*
X10928098Y-10428869D02*
X10937622Y-10466964D01*
X10937622Y-10466964D02*
X10937622Y-10514583D01*
X10937622Y-10514583D02*
X10928098Y-10552679D01*
X10928098Y-10552679D02*
X10918574Y-10571726D01*
X10918574Y-10571726D02*
X10909050Y-10581250D01*
X10909050Y-10581250D02*
X10890003Y-10590774D01*
X10890003Y-10590774D02*
X10870955Y-10590774D01*
X10870955Y-10590774D02*
X10851907Y-10581250D01*
X10851907Y-10581250D02*
X10842384Y-10571726D01*
X10842384Y-10571726D02*
X10832860Y-10552679D01*
X10832860Y-10552679D02*
X10823336Y-10514583D01*
X10823336Y-10514583D02*
X10823336Y-10466964D01*
X10823336Y-10466964D02*
X10832860Y-10428869D01*
X10832860Y-10428869D02*
X10842384Y-10409821D01*
X10842384Y-10409821D02*
X10851907Y-10400298D01*
X10851907Y-10400298D02*
X10870955Y-10390774D01*
X11013812Y-10409821D02*
X11023336Y-10400298D01*
X11023336Y-10400298D02*
X11042384Y-10390774D01*
X11042384Y-10390774D02*
X11090003Y-10390774D01*
X11090003Y-10390774D02*
X11109050Y-10400298D01*
X11109050Y-10400298D02*
X11118574Y-10409821D01*
X11118574Y-10409821D02*
X11128098Y-10428869D01*
X11128098Y-10428869D02*
X11128098Y-10447917D01*
X11128098Y-10447917D02*
X11118574Y-10476488D01*
X11118574Y-10476488D02*
X11004288Y-10590774D01*
X11004288Y-10590774D02*
X11128098Y-10590774D01*
X11309050Y-10390774D02*
X11213812Y-10390774D01*
X11213812Y-10390774D02*
X11204288Y-10486012D01*
X11204288Y-10486012D02*
X11213812Y-10476488D01*
X11213812Y-10476488D02*
X11232860Y-10466964D01*
X11232860Y-10466964D02*
X11280479Y-10466964D01*
X11280479Y-10466964D02*
X11299526Y-10476488D01*
X11299526Y-10476488D02*
X11309050Y-10486012D01*
X11309050Y-10486012D02*
X11318574Y-10505060D01*
X11318574Y-10505060D02*
X11318574Y-10552679D01*
X11318574Y-10552679D02*
X11309050Y-10571726D01*
X11309050Y-10571726D02*
X11299526Y-10581250D01*
X11299526Y-10581250D02*
X11280479Y-10590774D01*
X11280479Y-10590774D02*
X11232860Y-10590774D01*
X11232860Y-10590774D02*
X11213812Y-10581250D01*
X11213812Y-10581250D02*
X11204288Y-10571726D01*
X11490003Y-10390774D02*
X11451907Y-10390774D01*
X11451907Y-10390774D02*
X11432860Y-10400298D01*
X11432860Y-10400298D02*
X11423336Y-10409821D01*
X11423336Y-10409821D02*
X11404288Y-10438393D01*
X11404288Y-10438393D02*
X11394765Y-10476488D01*
X11394765Y-10476488D02*
X11394765Y-10552679D01*
X11394765Y-10552679D02*
X11404288Y-10571726D01*
X11404288Y-10571726D02*
X11413812Y-10581250D01*
X11413812Y-10581250D02*
X11432860Y-10590774D01*
X11432860Y-10590774D02*
X11470955Y-10590774D01*
X11470955Y-10590774D02*
X11490003Y-10581250D01*
X11490003Y-10581250D02*
X11499526Y-10571726D01*
X11499526Y-10571726D02*
X11509050Y-10552679D01*
X11509050Y-10552679D02*
X11509050Y-10505060D01*
X11509050Y-10505060D02*
X11499526Y-10486012D01*
X11499526Y-10486012D02*
X11490003Y-10476488D01*
X11490003Y-10476488D02*
X11470955Y-10466964D01*
X11470955Y-10466964D02*
X11432860Y-10466964D01*
X11432860Y-10466964D02*
X11413812Y-10476488D01*
X11413812Y-10476488D02*
X11404288Y-10486012D01*
X11404288Y-10486012D02*
X11394765Y-10505060D01*
X11585241Y-10390774D02*
X11585241Y-10428869D01*
X11661431Y-10390774D02*
X11661431Y-10428869D01*
X11956669Y-10666964D02*
X11947146Y-10657440D01*
X11947146Y-10657440D02*
X11928098Y-10628869D01*
X11928098Y-10628869D02*
X11918574Y-10609821D01*
X11918574Y-10609821D02*
X11909050Y-10581250D01*
X11909050Y-10581250D02*
X11899527Y-10533631D01*
X11899527Y-10533631D02*
X11899527Y-10495536D01*
X11899527Y-10495536D02*
X11909050Y-10447917D01*
X11909050Y-10447917D02*
X11918574Y-10419345D01*
X11918574Y-10419345D02*
X11928098Y-10400298D01*
X11928098Y-10400298D02*
X11947146Y-10371726D01*
X11947146Y-10371726D02*
X11956669Y-10362202D01*
X12023336Y-10409821D02*
X12032860Y-10400298D01*
X12032860Y-10400298D02*
X12051907Y-10390774D01*
X12051907Y-10390774D02*
X12099527Y-10390774D01*
X12099527Y-10390774D02*
X12118574Y-10400298D01*
X12118574Y-10400298D02*
X12128098Y-10409821D01*
X12128098Y-10409821D02*
X12137622Y-10428869D01*
X12137622Y-10428869D02*
X12137622Y-10447917D01*
X12137622Y-10447917D02*
X12128098Y-10476488D01*
X12128098Y-10476488D02*
X12013812Y-10590774D01*
X12013812Y-10590774D02*
X12137622Y-10590774D01*
X12375717Y-10590774D02*
X12375717Y-10390774D01*
X12461431Y-10590774D02*
X12461431Y-10486012D01*
X12461431Y-10486012D02*
X12451908Y-10466964D01*
X12451908Y-10466964D02*
X12432860Y-10457440D01*
X12432860Y-10457440D02*
X12404288Y-10457440D01*
X12404288Y-10457440D02*
X12385241Y-10466964D01*
X12385241Y-10466964D02*
X12375717Y-10476488D01*
X12585241Y-10590774D02*
X12566193Y-10581250D01*
X12566193Y-10581250D02*
X12556669Y-10571726D01*
X12556669Y-10571726D02*
X12547146Y-10552679D01*
X12547146Y-10552679D02*
X12547146Y-10495536D01*
X12547146Y-10495536D02*
X12556669Y-10476488D01*
X12556669Y-10476488D02*
X12566193Y-10466964D01*
X12566193Y-10466964D02*
X12585241Y-10457440D01*
X12585241Y-10457440D02*
X12613812Y-10457440D01*
X12613812Y-10457440D02*
X12632860Y-10466964D01*
X12632860Y-10466964D02*
X12642384Y-10476488D01*
X12642384Y-10476488D02*
X12651908Y-10495536D01*
X12651908Y-10495536D02*
X12651908Y-10552679D01*
X12651908Y-10552679D02*
X12642384Y-10571726D01*
X12642384Y-10571726D02*
X12632860Y-10581250D01*
X12632860Y-10581250D02*
X12613812Y-10590774D01*
X12613812Y-10590774D02*
X12585241Y-10590774D01*
X12766193Y-10590774D02*
X12747146Y-10581250D01*
X12747146Y-10581250D02*
X12737622Y-10562202D01*
X12737622Y-10562202D02*
X12737622Y-10390774D01*
X12918574Y-10581250D02*
X12899527Y-10590774D01*
X12899527Y-10590774D02*
X12861431Y-10590774D01*
X12861431Y-10590774D02*
X12842384Y-10581250D01*
X12842384Y-10581250D02*
X12832860Y-10562202D01*
X12832860Y-10562202D02*
X12832860Y-10486012D01*
X12832860Y-10486012D02*
X12842384Y-10466964D01*
X12842384Y-10466964D02*
X12861431Y-10457440D01*
X12861431Y-10457440D02*
X12899527Y-10457440D01*
X12899527Y-10457440D02*
X12918574Y-10466964D01*
X12918574Y-10466964D02*
X12928098Y-10486012D01*
X12928098Y-10486012D02*
X12928098Y-10505060D01*
X12928098Y-10505060D02*
X12832860Y-10524107D01*
X13004289Y-10581250D02*
X13023336Y-10590774D01*
X13023336Y-10590774D02*
X13061431Y-10590774D01*
X13061431Y-10590774D02*
X13080479Y-10581250D01*
X13080479Y-10581250D02*
X13090003Y-10562202D01*
X13090003Y-10562202D02*
X13090003Y-10552679D01*
X13090003Y-10552679D02*
X13080479Y-10533631D01*
X13080479Y-10533631D02*
X13061431Y-10524107D01*
X13061431Y-10524107D02*
X13032860Y-10524107D01*
X13032860Y-10524107D02*
X13013812Y-10514583D01*
X13013812Y-10514583D02*
X13004289Y-10495536D01*
X13004289Y-10495536D02*
X13004289Y-10486012D01*
X13004289Y-10486012D02*
X13013812Y-10466964D01*
X13013812Y-10466964D02*
X13032860Y-10457440D01*
X13032860Y-10457440D02*
X13061431Y-10457440D01*
X13061431Y-10457440D02*
X13080479Y-10466964D01*
X13156670Y-10666964D02*
X13166193Y-10657440D01*
X13166193Y-10657440D02*
X13185241Y-10628869D01*
X13185241Y-10628869D02*
X13194765Y-10609821D01*
X13194765Y-10609821D02*
X13204289Y-10581250D01*
X13204289Y-10581250D02*
X13213812Y-10533631D01*
X13213812Y-10533631D02*
X13213812Y-10495536D01*
X13213812Y-10495536D02*
X13204289Y-10447917D01*
X13204289Y-10447917D02*
X13194765Y-10419345D01*
X13194765Y-10419345D02*
X13185241Y-10400298D01*
X13185241Y-10400298D02*
X13166193Y-10371726D01*
X13166193Y-10371726D02*
X13156670Y-10362202D01*
X13518574Y-10666964D02*
X13509050Y-10657440D01*
X13509050Y-10657440D02*
X13490003Y-10628869D01*
X13490003Y-10628869D02*
X13480479Y-10609821D01*
X13480479Y-10609821D02*
X13470955Y-10581250D01*
X13470955Y-10581250D02*
X13461431Y-10533631D01*
X13461431Y-10533631D02*
X13461431Y-10495536D01*
X13461431Y-10495536D02*
X13470955Y-10447917D01*
X13470955Y-10447917D02*
X13480479Y-10419345D01*
X13480479Y-10419345D02*
X13490003Y-10400298D01*
X13490003Y-10400298D02*
X13509050Y-10371726D01*
X13509050Y-10371726D02*
X13518574Y-10362202D01*
X13594765Y-10457440D02*
X13594765Y-10590774D01*
X13594765Y-10476488D02*
X13604289Y-10466964D01*
X13604289Y-10466964D02*
X13623336Y-10457440D01*
X13623336Y-10457440D02*
X13651908Y-10457440D01*
X13651908Y-10457440D02*
X13670955Y-10466964D01*
X13670955Y-10466964D02*
X13680479Y-10486012D01*
X13680479Y-10486012D02*
X13680479Y-10590774D01*
X13804289Y-10590774D02*
X13785241Y-10581250D01*
X13785241Y-10581250D02*
X13775717Y-10571726D01*
X13775717Y-10571726D02*
X13766193Y-10552679D01*
X13766193Y-10552679D02*
X13766193Y-10495536D01*
X13766193Y-10495536D02*
X13775717Y-10476488D01*
X13775717Y-10476488D02*
X13785241Y-10466964D01*
X13785241Y-10466964D02*
X13804289Y-10457440D01*
X13804289Y-10457440D02*
X13832860Y-10457440D01*
X13832860Y-10457440D02*
X13851908Y-10466964D01*
X13851908Y-10466964D02*
X13861431Y-10476488D01*
X13861431Y-10476488D02*
X13870955Y-10495536D01*
X13870955Y-10495536D02*
X13870955Y-10552679D01*
X13870955Y-10552679D02*
X13861431Y-10571726D01*
X13861431Y-10571726D02*
X13851908Y-10581250D01*
X13851908Y-10581250D02*
X13832860Y-10590774D01*
X13832860Y-10590774D02*
X13804289Y-10590774D01*
X13928098Y-10457440D02*
X14004289Y-10457440D01*
X13956670Y-10390774D02*
X13956670Y-10562202D01*
X13956670Y-10562202D02*
X13966193Y-10581250D01*
X13966193Y-10581250D02*
X13985241Y-10590774D01*
X13985241Y-10590774D02*
X14004289Y-10590774D01*
X14223336Y-10457440D02*
X14223336Y-10657440D01*
X14223336Y-10466964D02*
X14242384Y-10457440D01*
X14242384Y-10457440D02*
X14280479Y-10457440D01*
X14280479Y-10457440D02*
X14299527Y-10466964D01*
X14299527Y-10466964D02*
X14309051Y-10476488D01*
X14309051Y-10476488D02*
X14318574Y-10495536D01*
X14318574Y-10495536D02*
X14318574Y-10552679D01*
X14318574Y-10552679D02*
X14309051Y-10571726D01*
X14309051Y-10571726D02*
X14299527Y-10581250D01*
X14299527Y-10581250D02*
X14280479Y-10590774D01*
X14280479Y-10590774D02*
X14242384Y-10590774D01*
X14242384Y-10590774D02*
X14223336Y-10581250D01*
X14432860Y-10590774D02*
X14413812Y-10581250D01*
X14413812Y-10581250D02*
X14404289Y-10562202D01*
X14404289Y-10562202D02*
X14404289Y-10390774D01*
X14594765Y-10590774D02*
X14594765Y-10486012D01*
X14594765Y-10486012D02*
X14585241Y-10466964D01*
X14585241Y-10466964D02*
X14566193Y-10457440D01*
X14566193Y-10457440D02*
X14528098Y-10457440D01*
X14528098Y-10457440D02*
X14509051Y-10466964D01*
X14594765Y-10581250D02*
X14575717Y-10590774D01*
X14575717Y-10590774D02*
X14528098Y-10590774D01*
X14528098Y-10590774D02*
X14509051Y-10581250D01*
X14509051Y-10581250D02*
X14499527Y-10562202D01*
X14499527Y-10562202D02*
X14499527Y-10543155D01*
X14499527Y-10543155D02*
X14509051Y-10524107D01*
X14509051Y-10524107D02*
X14528098Y-10514583D01*
X14528098Y-10514583D02*
X14575717Y-10514583D01*
X14575717Y-10514583D02*
X14594765Y-10505060D01*
X14661432Y-10457440D02*
X14737622Y-10457440D01*
X14690003Y-10390774D02*
X14690003Y-10562202D01*
X14690003Y-10562202D02*
X14699527Y-10581250D01*
X14699527Y-10581250D02*
X14718574Y-10590774D01*
X14718574Y-10590774D02*
X14737622Y-10590774D01*
X14880479Y-10581250D02*
X14861432Y-10590774D01*
X14861432Y-10590774D02*
X14823336Y-10590774D01*
X14823336Y-10590774D02*
X14804289Y-10581250D01*
X14804289Y-10581250D02*
X14794765Y-10562202D01*
X14794765Y-10562202D02*
X14794765Y-10486012D01*
X14794765Y-10486012D02*
X14804289Y-10466964D01*
X14804289Y-10466964D02*
X14823336Y-10457440D01*
X14823336Y-10457440D02*
X14861432Y-10457440D01*
X14861432Y-10457440D02*
X14880479Y-10466964D01*
X14880479Y-10466964D02*
X14890003Y-10486012D01*
X14890003Y-10486012D02*
X14890003Y-10505060D01*
X14890003Y-10505060D02*
X14794765Y-10524107D01*
X15061432Y-10590774D02*
X15061432Y-10390774D01*
X15061432Y-10581250D02*
X15042384Y-10590774D01*
X15042384Y-10590774D02*
X15004289Y-10590774D01*
X15004289Y-10590774D02*
X14985241Y-10581250D01*
X14985241Y-10581250D02*
X14975717Y-10571726D01*
X14975717Y-10571726D02*
X14966193Y-10552679D01*
X14966193Y-10552679D02*
X14966193Y-10495536D01*
X14966193Y-10495536D02*
X14975717Y-10476488D01*
X14975717Y-10476488D02*
X14985241Y-10466964D01*
X14985241Y-10466964D02*
X15004289Y-10457440D01*
X15004289Y-10457440D02*
X15042384Y-10457440D01*
X15042384Y-10457440D02*
X15061432Y-10466964D01*
X15137622Y-10666964D02*
X15147146Y-10657440D01*
X15147146Y-10657440D02*
X15166193Y-10628869D01*
X15166193Y-10628869D02*
X15175717Y-10609821D01*
X15175717Y-10609821D02*
X15185241Y-10581250D01*
X15185241Y-10581250D02*
X15194765Y-10533631D01*
X15194765Y-10533631D02*
X15194765Y-10495536D01*
X15194765Y-10495536D02*
X15185241Y-10447917D01*
X15185241Y-10447917D02*
X15175717Y-10419345D01*
X15175717Y-10419345D02*
X15166193Y-10400298D01*
X15166193Y-10400298D02*
X15147146Y-10371726D01*
X15147146Y-10371726D02*
X15137622Y-10362202D01*
D14*
X8394764Y-10762250D02*
G75*
G03*
X8394764Y-10762250I-45000J0D01*
G01*
D12*
X8680479Y-10654774D02*
X8699526Y-10654774D01*
X8699526Y-10654774D02*
X8718574Y-10664298D01*
X8718574Y-10664298D02*
X8728098Y-10673821D01*
X8728098Y-10673821D02*
X8737622Y-10692869D01*
X8737622Y-10692869D02*
X8747145Y-10730964D01*
X8747145Y-10730964D02*
X8747145Y-10778583D01*
X8747145Y-10778583D02*
X8737622Y-10816679D01*
X8737622Y-10816679D02*
X8728098Y-10835726D01*
X8728098Y-10835726D02*
X8718574Y-10845250D01*
X8718574Y-10845250D02*
X8699526Y-10854774D01*
X8699526Y-10854774D02*
X8680479Y-10854774D01*
X8680479Y-10854774D02*
X8661431Y-10845250D01*
X8661431Y-10845250D02*
X8651907Y-10835726D01*
X8651907Y-10835726D02*
X8642383Y-10816679D01*
X8642383Y-10816679D02*
X8632860Y-10778583D01*
X8632860Y-10778583D02*
X8632860Y-10730964D01*
X8632860Y-10730964D02*
X8642383Y-10692869D01*
X8642383Y-10692869D02*
X8651907Y-10673821D01*
X8651907Y-10673821D02*
X8661431Y-10664298D01*
X8661431Y-10664298D02*
X8680479Y-10654774D01*
X8832860Y-10835726D02*
X8842383Y-10845250D01*
X8842383Y-10845250D02*
X8832860Y-10854774D01*
X8832860Y-10854774D02*
X8823336Y-10845250D01*
X8823336Y-10845250D02*
X8832860Y-10835726D01*
X8832860Y-10835726D02*
X8832860Y-10854774D01*
X8937622Y-10854774D02*
X8975717Y-10854774D01*
X8975717Y-10854774D02*
X8994764Y-10845250D01*
X8994764Y-10845250D02*
X9004288Y-10835726D01*
X9004288Y-10835726D02*
X9023336Y-10807155D01*
X9023336Y-10807155D02*
X9032860Y-10769060D01*
X9032860Y-10769060D02*
X9032860Y-10692869D01*
X9032860Y-10692869D02*
X9023336Y-10673821D01*
X9023336Y-10673821D02*
X9013812Y-10664298D01*
X9013812Y-10664298D02*
X8994764Y-10654774D01*
X8994764Y-10654774D02*
X8956669Y-10654774D01*
X8956669Y-10654774D02*
X8937622Y-10664298D01*
X8937622Y-10664298D02*
X8928098Y-10673821D01*
X8928098Y-10673821D02*
X8918574Y-10692869D01*
X8918574Y-10692869D02*
X8918574Y-10740488D01*
X8918574Y-10740488D02*
X8928098Y-10759536D01*
X8928098Y-10759536D02*
X8937622Y-10769060D01*
X8937622Y-10769060D02*
X8956669Y-10778583D01*
X8956669Y-10778583D02*
X8994764Y-10778583D01*
X8994764Y-10778583D02*
X9013812Y-10769060D01*
X9013812Y-10769060D02*
X9023336Y-10759536D01*
X9023336Y-10759536D02*
X9032860Y-10740488D01*
X9156669Y-10654774D02*
X9175717Y-10654774D01*
X9175717Y-10654774D02*
X9194764Y-10664298D01*
X9194764Y-10664298D02*
X9204288Y-10673821D01*
X9204288Y-10673821D02*
X9213812Y-10692869D01*
X9213812Y-10692869D02*
X9223336Y-10730964D01*
X9223336Y-10730964D02*
X9223336Y-10778583D01*
X9223336Y-10778583D02*
X9213812Y-10816679D01*
X9213812Y-10816679D02*
X9204288Y-10835726D01*
X9204288Y-10835726D02*
X9194764Y-10845250D01*
X9194764Y-10845250D02*
X9175717Y-10854774D01*
X9175717Y-10854774D02*
X9156669Y-10854774D01*
X9156669Y-10854774D02*
X9137622Y-10845250D01*
X9137622Y-10845250D02*
X9128098Y-10835726D01*
X9128098Y-10835726D02*
X9118574Y-10816679D01*
X9118574Y-10816679D02*
X9109050Y-10778583D01*
X9109050Y-10778583D02*
X9109050Y-10730964D01*
X9109050Y-10730964D02*
X9118574Y-10692869D01*
X9118574Y-10692869D02*
X9128098Y-10673821D01*
X9128098Y-10673821D02*
X9137622Y-10664298D01*
X9137622Y-10664298D02*
X9156669Y-10654774D01*
X9347145Y-10654774D02*
X9366193Y-10654774D01*
X9366193Y-10654774D02*
X9385241Y-10664298D01*
X9385241Y-10664298D02*
X9394764Y-10673821D01*
X9394764Y-10673821D02*
X9404288Y-10692869D01*
X9404288Y-10692869D02*
X9413812Y-10730964D01*
X9413812Y-10730964D02*
X9413812Y-10778583D01*
X9413812Y-10778583D02*
X9404288Y-10816679D01*
X9404288Y-10816679D02*
X9394764Y-10835726D01*
X9394764Y-10835726D02*
X9385241Y-10845250D01*
X9385241Y-10845250D02*
X9366193Y-10854774D01*
X9366193Y-10854774D02*
X9347145Y-10854774D01*
X9347145Y-10854774D02*
X9328098Y-10845250D01*
X9328098Y-10845250D02*
X9318574Y-10835726D01*
X9318574Y-10835726D02*
X9309050Y-10816679D01*
X9309050Y-10816679D02*
X9299526Y-10778583D01*
X9299526Y-10778583D02*
X9299526Y-10730964D01*
X9299526Y-10730964D02*
X9309050Y-10692869D01*
X9309050Y-10692869D02*
X9318574Y-10673821D01*
X9318574Y-10673821D02*
X9328098Y-10664298D01*
X9328098Y-10664298D02*
X9347145Y-10654774D01*
X9499526Y-10854774D02*
X9499526Y-10721440D01*
X9499526Y-10740488D02*
X9509050Y-10730964D01*
X9509050Y-10730964D02*
X9528098Y-10721440D01*
X9528098Y-10721440D02*
X9556669Y-10721440D01*
X9556669Y-10721440D02*
X9575717Y-10730964D01*
X9575717Y-10730964D02*
X9585241Y-10750012D01*
X9585241Y-10750012D02*
X9585241Y-10854774D01*
X9585241Y-10750012D02*
X9594764Y-10730964D01*
X9594764Y-10730964D02*
X9613812Y-10721440D01*
X9613812Y-10721440D02*
X9642383Y-10721440D01*
X9642383Y-10721440D02*
X9661431Y-10730964D01*
X9661431Y-10730964D02*
X9670955Y-10750012D01*
X9670955Y-10750012D02*
X9670955Y-10854774D01*
X9766193Y-10854774D02*
X9766193Y-10721440D01*
X9766193Y-10740488D02*
X9775717Y-10730964D01*
X9775717Y-10730964D02*
X9794764Y-10721440D01*
X9794764Y-10721440D02*
X9823336Y-10721440D01*
X9823336Y-10721440D02*
X9842384Y-10730964D01*
X9842384Y-10730964D02*
X9851907Y-10750012D01*
X9851907Y-10750012D02*
X9851907Y-10854774D01*
X9851907Y-10750012D02*
X9861431Y-10730964D01*
X9861431Y-10730964D02*
X9880479Y-10721440D01*
X9880479Y-10721440D02*
X9909050Y-10721440D01*
X9909050Y-10721440D02*
X9928098Y-10730964D01*
X9928098Y-10730964D02*
X9937622Y-10750012D01*
X9937622Y-10750012D02*
X9937622Y-10854774D01*
X10328098Y-10645250D02*
X10156669Y-10902393D01*
X10585241Y-10654774D02*
X10604288Y-10654774D01*
X10604288Y-10654774D02*
X10623336Y-10664298D01*
X10623336Y-10664298D02*
X10632860Y-10673821D01*
X10632860Y-10673821D02*
X10642384Y-10692869D01*
X10642384Y-10692869D02*
X10651907Y-10730964D01*
X10651907Y-10730964D02*
X10651907Y-10778583D01*
X10651907Y-10778583D02*
X10642384Y-10816679D01*
X10642384Y-10816679D02*
X10632860Y-10835726D01*
X10632860Y-10835726D02*
X10623336Y-10845250D01*
X10623336Y-10845250D02*
X10604288Y-10854774D01*
X10604288Y-10854774D02*
X10585241Y-10854774D01*
X10585241Y-10854774D02*
X10566193Y-10845250D01*
X10566193Y-10845250D02*
X10556669Y-10835726D01*
X10556669Y-10835726D02*
X10547146Y-10816679D01*
X10547146Y-10816679D02*
X10537622Y-10778583D01*
X10537622Y-10778583D02*
X10537622Y-10730964D01*
X10537622Y-10730964D02*
X10547146Y-10692869D01*
X10547146Y-10692869D02*
X10556669Y-10673821D01*
X10556669Y-10673821D02*
X10566193Y-10664298D01*
X10566193Y-10664298D02*
X10585241Y-10654774D01*
X10737622Y-10835726D02*
X10747146Y-10845250D01*
X10747146Y-10845250D02*
X10737622Y-10854774D01*
X10737622Y-10854774D02*
X10728098Y-10845250D01*
X10728098Y-10845250D02*
X10737622Y-10835726D01*
X10737622Y-10835726D02*
X10737622Y-10854774D01*
X10870955Y-10654774D02*
X10890003Y-10654774D01*
X10890003Y-10654774D02*
X10909050Y-10664298D01*
X10909050Y-10664298D02*
X10918574Y-10673821D01*
X10918574Y-10673821D02*
X10928098Y-10692869D01*
X10928098Y-10692869D02*
X10937622Y-10730964D01*
X10937622Y-10730964D02*
X10937622Y-10778583D01*
X10937622Y-10778583D02*
X10928098Y-10816679D01*
X10928098Y-10816679D02*
X10918574Y-10835726D01*
X10918574Y-10835726D02*
X10909050Y-10845250D01*
X10909050Y-10845250D02*
X10890003Y-10854774D01*
X10890003Y-10854774D02*
X10870955Y-10854774D01*
X10870955Y-10854774D02*
X10851907Y-10845250D01*
X10851907Y-10845250D02*
X10842384Y-10835726D01*
X10842384Y-10835726D02*
X10832860Y-10816679D01*
X10832860Y-10816679D02*
X10823336Y-10778583D01*
X10823336Y-10778583D02*
X10823336Y-10730964D01*
X10823336Y-10730964D02*
X10832860Y-10692869D01*
X10832860Y-10692869D02*
X10842384Y-10673821D01*
X10842384Y-10673821D02*
X10851907Y-10664298D01*
X10851907Y-10664298D02*
X10870955Y-10654774D01*
X11004288Y-10654774D02*
X11128098Y-10654774D01*
X11128098Y-10654774D02*
X11061431Y-10730964D01*
X11061431Y-10730964D02*
X11090003Y-10730964D01*
X11090003Y-10730964D02*
X11109050Y-10740488D01*
X11109050Y-10740488D02*
X11118574Y-10750012D01*
X11118574Y-10750012D02*
X11128098Y-10769060D01*
X11128098Y-10769060D02*
X11128098Y-10816679D01*
X11128098Y-10816679D02*
X11118574Y-10835726D01*
X11118574Y-10835726D02*
X11109050Y-10845250D01*
X11109050Y-10845250D02*
X11090003Y-10854774D01*
X11090003Y-10854774D02*
X11032860Y-10854774D01*
X11032860Y-10854774D02*
X11013812Y-10845250D01*
X11013812Y-10845250D02*
X11004288Y-10835726D01*
X11309050Y-10654774D02*
X11213812Y-10654774D01*
X11213812Y-10654774D02*
X11204288Y-10750012D01*
X11204288Y-10750012D02*
X11213812Y-10740488D01*
X11213812Y-10740488D02*
X11232860Y-10730964D01*
X11232860Y-10730964D02*
X11280479Y-10730964D01*
X11280479Y-10730964D02*
X11299526Y-10740488D01*
X11299526Y-10740488D02*
X11309050Y-10750012D01*
X11309050Y-10750012D02*
X11318574Y-10769060D01*
X11318574Y-10769060D02*
X11318574Y-10816679D01*
X11318574Y-10816679D02*
X11309050Y-10835726D01*
X11309050Y-10835726D02*
X11299526Y-10845250D01*
X11299526Y-10845250D02*
X11280479Y-10854774D01*
X11280479Y-10854774D02*
X11232860Y-10854774D01*
X11232860Y-10854774D02*
X11213812Y-10845250D01*
X11213812Y-10845250D02*
X11204288Y-10835726D01*
X11490003Y-10721440D02*
X11490003Y-10854774D01*
X11442384Y-10645250D02*
X11394765Y-10788107D01*
X11394765Y-10788107D02*
X11518574Y-10788107D01*
X11585241Y-10654774D02*
X11585241Y-10692869D01*
X11661431Y-10654774D02*
X11661431Y-10692869D01*
X11956669Y-10930964D02*
X11947146Y-10921440D01*
X11947146Y-10921440D02*
X11928098Y-10892869D01*
X11928098Y-10892869D02*
X11918574Y-10873821D01*
X11918574Y-10873821D02*
X11909050Y-10845250D01*
X11909050Y-10845250D02*
X11899527Y-10797631D01*
X11899527Y-10797631D02*
X11899527Y-10759536D01*
X11899527Y-10759536D02*
X11909050Y-10711917D01*
X11909050Y-10711917D02*
X11918574Y-10683345D01*
X11918574Y-10683345D02*
X11928098Y-10664298D01*
X11928098Y-10664298D02*
X11947146Y-10635726D01*
X11947146Y-10635726D02*
X11956669Y-10626202D01*
X12118574Y-10721440D02*
X12118574Y-10854774D01*
X12070955Y-10645250D02*
X12023336Y-10788107D01*
X12023336Y-10788107D02*
X12147146Y-10788107D01*
X12375717Y-10854774D02*
X12375717Y-10654774D01*
X12461431Y-10854774D02*
X12461431Y-10750012D01*
X12461431Y-10750012D02*
X12451908Y-10730964D01*
X12451908Y-10730964D02*
X12432860Y-10721440D01*
X12432860Y-10721440D02*
X12404288Y-10721440D01*
X12404288Y-10721440D02*
X12385241Y-10730964D01*
X12385241Y-10730964D02*
X12375717Y-10740488D01*
X12585241Y-10854774D02*
X12566193Y-10845250D01*
X12566193Y-10845250D02*
X12556669Y-10835726D01*
X12556669Y-10835726D02*
X12547146Y-10816679D01*
X12547146Y-10816679D02*
X12547146Y-10759536D01*
X12547146Y-10759536D02*
X12556669Y-10740488D01*
X12556669Y-10740488D02*
X12566193Y-10730964D01*
X12566193Y-10730964D02*
X12585241Y-10721440D01*
X12585241Y-10721440D02*
X12613812Y-10721440D01*
X12613812Y-10721440D02*
X12632860Y-10730964D01*
X12632860Y-10730964D02*
X12642384Y-10740488D01*
X12642384Y-10740488D02*
X12651908Y-10759536D01*
X12651908Y-10759536D02*
X12651908Y-10816679D01*
X12651908Y-10816679D02*
X12642384Y-10835726D01*
X12642384Y-10835726D02*
X12632860Y-10845250D01*
X12632860Y-10845250D02*
X12613812Y-10854774D01*
X12613812Y-10854774D02*
X12585241Y-10854774D01*
X12766193Y-10854774D02*
X12747146Y-10845250D01*
X12747146Y-10845250D02*
X12737622Y-10826202D01*
X12737622Y-10826202D02*
X12737622Y-10654774D01*
X12918574Y-10845250D02*
X12899527Y-10854774D01*
X12899527Y-10854774D02*
X12861431Y-10854774D01*
X12861431Y-10854774D02*
X12842384Y-10845250D01*
X12842384Y-10845250D02*
X12832860Y-10826202D01*
X12832860Y-10826202D02*
X12832860Y-10750012D01*
X12832860Y-10750012D02*
X12842384Y-10730964D01*
X12842384Y-10730964D02*
X12861431Y-10721440D01*
X12861431Y-10721440D02*
X12899527Y-10721440D01*
X12899527Y-10721440D02*
X12918574Y-10730964D01*
X12918574Y-10730964D02*
X12928098Y-10750012D01*
X12928098Y-10750012D02*
X12928098Y-10769060D01*
X12928098Y-10769060D02*
X12832860Y-10788107D01*
X13004289Y-10845250D02*
X13023336Y-10854774D01*
X13023336Y-10854774D02*
X13061431Y-10854774D01*
X13061431Y-10854774D02*
X13080479Y-10845250D01*
X13080479Y-10845250D02*
X13090003Y-10826202D01*
X13090003Y-10826202D02*
X13090003Y-10816679D01*
X13090003Y-10816679D02*
X13080479Y-10797631D01*
X13080479Y-10797631D02*
X13061431Y-10788107D01*
X13061431Y-10788107D02*
X13032860Y-10788107D01*
X13032860Y-10788107D02*
X13013812Y-10778583D01*
X13013812Y-10778583D02*
X13004289Y-10759536D01*
X13004289Y-10759536D02*
X13004289Y-10750012D01*
X13004289Y-10750012D02*
X13013812Y-10730964D01*
X13013812Y-10730964D02*
X13032860Y-10721440D01*
X13032860Y-10721440D02*
X13061431Y-10721440D01*
X13061431Y-10721440D02*
X13080479Y-10730964D01*
X13156670Y-10930964D02*
X13166193Y-10921440D01*
X13166193Y-10921440D02*
X13185241Y-10892869D01*
X13185241Y-10892869D02*
X13194765Y-10873821D01*
X13194765Y-10873821D02*
X13204289Y-10845250D01*
X13204289Y-10845250D02*
X13213812Y-10797631D01*
X13213812Y-10797631D02*
X13213812Y-10759536D01*
X13213812Y-10759536D02*
X13204289Y-10711917D01*
X13204289Y-10711917D02*
X13194765Y-10683345D01*
X13194765Y-10683345D02*
X13185241Y-10664298D01*
X13185241Y-10664298D02*
X13166193Y-10635726D01*
X13166193Y-10635726D02*
X13156670Y-10626202D01*
X13518574Y-10930964D02*
X13509050Y-10921440D01*
X13509050Y-10921440D02*
X13490003Y-10892869D01*
X13490003Y-10892869D02*
X13480479Y-10873821D01*
X13480479Y-10873821D02*
X13470955Y-10845250D01*
X13470955Y-10845250D02*
X13461431Y-10797631D01*
X13461431Y-10797631D02*
X13461431Y-10759536D01*
X13461431Y-10759536D02*
X13470955Y-10711917D01*
X13470955Y-10711917D02*
X13480479Y-10683345D01*
X13480479Y-10683345D02*
X13490003Y-10664298D01*
X13490003Y-10664298D02*
X13509050Y-10635726D01*
X13509050Y-10635726D02*
X13518574Y-10626202D01*
X13594765Y-10721440D02*
X13594765Y-10854774D01*
X13594765Y-10740488D02*
X13604289Y-10730964D01*
X13604289Y-10730964D02*
X13623336Y-10721440D01*
X13623336Y-10721440D02*
X13651908Y-10721440D01*
X13651908Y-10721440D02*
X13670955Y-10730964D01*
X13670955Y-10730964D02*
X13680479Y-10750012D01*
X13680479Y-10750012D02*
X13680479Y-10854774D01*
X13804289Y-10854774D02*
X13785241Y-10845250D01*
X13785241Y-10845250D02*
X13775717Y-10835726D01*
X13775717Y-10835726D02*
X13766193Y-10816679D01*
X13766193Y-10816679D02*
X13766193Y-10759536D01*
X13766193Y-10759536D02*
X13775717Y-10740488D01*
X13775717Y-10740488D02*
X13785241Y-10730964D01*
X13785241Y-10730964D02*
X13804289Y-10721440D01*
X13804289Y-10721440D02*
X13832860Y-10721440D01*
X13832860Y-10721440D02*
X13851908Y-10730964D01*
X13851908Y-10730964D02*
X13861431Y-10740488D01*
X13861431Y-10740488D02*
X13870955Y-10759536D01*
X13870955Y-10759536D02*
X13870955Y-10816679D01*
X13870955Y-10816679D02*
X13861431Y-10835726D01*
X13861431Y-10835726D02*
X13851908Y-10845250D01*
X13851908Y-10845250D02*
X13832860Y-10854774D01*
X13832860Y-10854774D02*
X13804289Y-10854774D01*
X13928098Y-10721440D02*
X14004289Y-10721440D01*
X13956670Y-10654774D02*
X13956670Y-10826202D01*
X13956670Y-10826202D02*
X13966193Y-10845250D01*
X13966193Y-10845250D02*
X13985241Y-10854774D01*
X13985241Y-10854774D02*
X14004289Y-10854774D01*
X14223336Y-10721440D02*
X14223336Y-10921440D01*
X14223336Y-10730964D02*
X14242384Y-10721440D01*
X14242384Y-10721440D02*
X14280479Y-10721440D01*
X14280479Y-10721440D02*
X14299527Y-10730964D01*
X14299527Y-10730964D02*
X14309051Y-10740488D01*
X14309051Y-10740488D02*
X14318574Y-10759536D01*
X14318574Y-10759536D02*
X14318574Y-10816679D01*
X14318574Y-10816679D02*
X14309051Y-10835726D01*
X14309051Y-10835726D02*
X14299527Y-10845250D01*
X14299527Y-10845250D02*
X14280479Y-10854774D01*
X14280479Y-10854774D02*
X14242384Y-10854774D01*
X14242384Y-10854774D02*
X14223336Y-10845250D01*
X14432860Y-10854774D02*
X14413812Y-10845250D01*
X14413812Y-10845250D02*
X14404289Y-10826202D01*
X14404289Y-10826202D02*
X14404289Y-10654774D01*
X14594765Y-10854774D02*
X14594765Y-10750012D01*
X14594765Y-10750012D02*
X14585241Y-10730964D01*
X14585241Y-10730964D02*
X14566193Y-10721440D01*
X14566193Y-10721440D02*
X14528098Y-10721440D01*
X14528098Y-10721440D02*
X14509051Y-10730964D01*
X14594765Y-10845250D02*
X14575717Y-10854774D01*
X14575717Y-10854774D02*
X14528098Y-10854774D01*
X14528098Y-10854774D02*
X14509051Y-10845250D01*
X14509051Y-10845250D02*
X14499527Y-10826202D01*
X14499527Y-10826202D02*
X14499527Y-10807155D01*
X14499527Y-10807155D02*
X14509051Y-10788107D01*
X14509051Y-10788107D02*
X14528098Y-10778583D01*
X14528098Y-10778583D02*
X14575717Y-10778583D01*
X14575717Y-10778583D02*
X14594765Y-10769060D01*
X14661432Y-10721440D02*
X14737622Y-10721440D01*
X14690003Y-10654774D02*
X14690003Y-10826202D01*
X14690003Y-10826202D02*
X14699527Y-10845250D01*
X14699527Y-10845250D02*
X14718574Y-10854774D01*
X14718574Y-10854774D02*
X14737622Y-10854774D01*
X14880479Y-10845250D02*
X14861432Y-10854774D01*
X14861432Y-10854774D02*
X14823336Y-10854774D01*
X14823336Y-10854774D02*
X14804289Y-10845250D01*
X14804289Y-10845250D02*
X14794765Y-10826202D01*
X14794765Y-10826202D02*
X14794765Y-10750012D01*
X14794765Y-10750012D02*
X14804289Y-10730964D01*
X14804289Y-10730964D02*
X14823336Y-10721440D01*
X14823336Y-10721440D02*
X14861432Y-10721440D01*
X14861432Y-10721440D02*
X14880479Y-10730964D01*
X14880479Y-10730964D02*
X14890003Y-10750012D01*
X14890003Y-10750012D02*
X14890003Y-10769060D01*
X14890003Y-10769060D02*
X14794765Y-10788107D01*
X15061432Y-10854774D02*
X15061432Y-10654774D01*
X15061432Y-10845250D02*
X15042384Y-10854774D01*
X15042384Y-10854774D02*
X15004289Y-10854774D01*
X15004289Y-10854774D02*
X14985241Y-10845250D01*
X14985241Y-10845250D02*
X14975717Y-10835726D01*
X14975717Y-10835726D02*
X14966193Y-10816679D01*
X14966193Y-10816679D02*
X14966193Y-10759536D01*
X14966193Y-10759536D02*
X14975717Y-10740488D01*
X14975717Y-10740488D02*
X14985241Y-10730964D01*
X14985241Y-10730964D02*
X15004289Y-10721440D01*
X15004289Y-10721440D02*
X15042384Y-10721440D01*
X15042384Y-10721440D02*
X15061432Y-10730964D01*
X15137622Y-10930964D02*
X15147146Y-10921440D01*
X15147146Y-10921440D02*
X15166193Y-10892869D01*
X15166193Y-10892869D02*
X15175717Y-10873821D01*
X15175717Y-10873821D02*
X15185241Y-10845250D01*
X15185241Y-10845250D02*
X15194765Y-10797631D01*
X15194765Y-10797631D02*
X15194765Y-10759536D01*
X15194765Y-10759536D02*
X15185241Y-10711917D01*
X15185241Y-10711917D02*
X15175717Y-10683345D01*
X15175717Y-10683345D02*
X15166193Y-10664298D01*
X15166193Y-10664298D02*
X15147146Y-10635726D01*
X15147146Y-10635726D02*
X15137622Y-10626202D01*
M02*
