M48
; DRILL file {KiCad 7.0.2-0} date 2023 December 01, Friday 11:24:21
; FORMAT={-:-/ absolute / metric / decimal}
; #@! TF.CreationDate,2023-12-01T11:24:21-06:00
; #@! TF.GenerationSoftware,Kicad,Pcbnew,7.0.2-0
; #@! TF.FileFunction,Plated,1,4,PTH
FMAT,2
METRIC
; #@! TA.AperFunction,Plated,PTH,ViaDrill
T1C0.300
; #@! TA.AperFunction,Plated,PTH,ViaDrill
T2C0.400
; #@! TA.AperFunction,Plated,PTH,ComponentDrill
T3C0.500
; #@! TA.AperFunction,Plated,PTH,ComponentDrill
T4C0.600
; #@! TA.AperFunction,Plated,PTH,ComponentDrill
T5C0.750
; #@! TA.AperFunction,Plated,PTH,ComponentDrill
T6C1.000
; #@! TA.AperFunction,Plated,PTH,ComponentDrill
T7C1.100
%
G90
G05
T1
X84.8Y-48.032
X84.82Y-51.82
X85.18Y-24.26
X85.21Y-26.39
X85.25Y-49.232
X85.55Y-73.88
X85.55Y-79.63
X85.55Y-85.38
X85.56Y-91.12
X85.88Y-55.57
X86.01Y-53.43
X86.18Y-40.5
X86.25Y-63.35
X86.53Y-41.652
X86.81Y-26.7
X87.1Y-63.35
X87.1Y-64.2
X87.17Y-51.82
X87.9Y-64.2
X88.0Y-48.732
X88.51Y-83.39
X88.59Y-88.23
X88.67Y-26.76
X88.74Y-81.1
X88.745Y-27.675
X88.76Y-77.4
X88.86Y-23.197
X88.91Y-39.12
X89.04Y-87.23
X89.05Y-75.31
X89.05Y-85.68
X89.07Y-71.28
X89.08Y-91.67
X89.09Y-93.24
X89.13Y-73.68
X89.13Y-79.69
X89.36Y-19.34
X89.45Y-41.31
X89.53Y-39.747
X89.55Y-43.47
X89.55Y-44.438
X89.8Y-24.2
X89.81Y-25.13
X89.98Y-23.1
X90.08Y-42.56
X90.27Y-86.71
X90.29Y-92.74
X90.32Y-70.8
X90.325Y-56.045
X90.41Y-80.7
X90.61Y-19.34
X90.65Y-59.37
X90.73Y-74.76
X91.0Y-29.17
X91.2Y-24.0
X91.21Y-35.18
X91.21Y-38.17
X91.25Y-23.15
X91.86Y-19.37
X92.004Y-28.854
X92.02Y-25.239
X92.46Y-23.12
X92.468Y-52.179
X92.658Y-28.293
X92.668Y-60.038
X92.79Y-38.68
X92.805Y-31.765
X92.925Y-58.645
X92.98Y-25.239
X93.108Y-53.562
X93.2Y-29.02
X93.295Y-50.582
X93.34Y-40.35
X93.34Y-41.22
X93.4Y-49.61
X93.42Y-42.12
X93.42Y-48.51
X93.43Y-42.98
X93.5Y-51.45
X93.9Y-31.72
X93.93Y-43.61
X93.95Y-55.67
X94.096Y-26.421
X94.149Y-49.136
X94.151Y-50.083
X94.35Y-58.47
X94.437Y-39.167
X94.604Y-42.876
X94.777Y-55.693
X95.099Y-51.999
X95.16Y-27.11
X95.3Y-28.032
X95.38Y-39.17
X95.7Y-36.69
X95.702Y-58.898
X96.2Y-35.997
X96.35Y-33.082
X96.37Y-34.02
X96.45Y-31.794
X96.469Y-59.617
X96.59Y-51.909
X96.725Y-58.615
X96.97Y-25.45
X97.225Y-39.17
X97.505Y-59.325
X97.64Y-62.6
X97.658Y-51.908
X97.852Y-25.05
X98.15Y-33.692
X98.174Y-39.169
X98.604Y-32.02
X98.75Y-43.332
X98.84Y-51.06
X98.9Y-47.883
X99.3Y-42.04
X100.0Y-36.22
X100.5Y-68.65
X100.7Y-28.62
X101.266Y-29.796
X101.35Y-67.9
X101.35Y-68.7
X101.38Y-47.9
X101.51Y-27.87
X101.674Y-36.201
X101.72Y-23.71
X101.75Y-25.47
X101.947Y-40.045
X102.05Y-67.15
X102.2Y-33.52
X102.2Y-68.0
X102.2Y-75.42
X102.2Y-80.5
X102.32Y-47.71
X102.5Y-85.4
X102.7Y-54.64
X102.74Y-57.85
X102.9Y-67.25
X103.23Y-47.51
X103.28Y-48.31
X103.35Y-33.008
X103.39Y-56.02
X103.84Y-50.39
X104.0Y-40.05
X104.23Y-81.87
X104.361Y-31.64
X104.4Y-55.02
X104.55Y-49.58
X104.61Y-44.98
X104.8Y-75.47
X104.8Y-80.6
X105.06Y-46.37
X105.12Y-47.23
X105.2Y-34.32
X105.31Y-45.59
X105.437Y-44.105
X105.71Y-42.612
X106.2Y-26.91
X106.228Y-26.048
X106.37Y-30.72
X106.512Y-55.02
X106.56Y-63.33
X107.36Y-31.02
X107.69Y-61.16
X107.71Y-63.33
X108.05Y-58.55
X108.76Y-52.432
X108.84Y-66.86
X108.89Y-61.16
X108.91Y-63.33
X109.05Y-44.95
X109.06Y-45.92
X109.18Y-36.92
X109.42Y-37.92
X109.86Y-66.87
X110.14Y-61.16
X110.16Y-63.33
X110.21Y-39.99
X110.675Y-52.525
X110.75Y-26.1
X110.78Y-36.32
X111.07Y-31.842
X111.199Y-51.379
X111.25Y-39.27
X112.6Y-26.12
X112.95Y-62.3
X112.99Y-48.45
X113.515Y-44.525
X113.6Y-65.85
X113.69Y-26.12
X113.73Y-68.48
X113.9Y-62.3
X114.34Y-40.26
X114.35Y-39.07
X114.43Y-36.62
X114.46Y-52.2
X114.83Y-74.45
X114.85Y-62.3
X114.95Y-46.2
X115.75Y-62.3
X116.0Y-54.06
X116.81Y-76.55
X117.02Y-77.54
X117.055Y-34.67
X117.06Y-80.98
X117.1Y-72.07
X117.72Y-48.14
X117.83Y-21.48
X117.87Y-23.04
X117.92Y-73.28
X117.92Y-79.3
X117.95Y-34.133
X118.03Y-82.64
X118.04Y-76.96
X118.2Y-71.05
X118.2Y-77.9
X118.28Y-25.37
X118.3Y-32.16
X118.41Y-71.95
X118.5Y-44.09
X121.45Y-73.87
X121.45Y-79.63
X121.805Y-34.62
T2
X114.02Y-87.08
X118.15Y-69.95
T3
X88.76Y-32.84
X88.76Y-34.09
X88.76Y-35.34
X88.76Y-36.59
X88.76Y-37.84
X95.0Y-23.2
X96.25Y-23.2
X97.5Y-23.2
X98.75Y-23.2
X100.0Y-23.2
X118.27Y-50.94
X118.27Y-52.19
X118.27Y-53.44
X118.27Y-54.69
X118.3Y-27.107
X118.3Y-28.357
X118.3Y-29.607
X118.3Y-30.857
T5
X113.8Y-57.9
X113.8Y-59.9
T6
X103.5Y-59.59
X103.5Y-64.59
T7
X95.2Y-71.42
X95.2Y-74.92
X95.2Y-78.42
X95.2Y-81.92
X95.2Y-85.42
X95.2Y-88.92
X95.2Y-92.42
X95.2Y-95.92
X100.2Y-71.42
X100.2Y-74.92
X100.2Y-78.42
X100.2Y-81.92
X100.2Y-85.42
X100.2Y-88.92
X100.2Y-92.42
X100.2Y-95.92
X106.79Y-71.42
X106.79Y-74.92
X106.79Y-78.42
X106.79Y-81.92
X106.79Y-85.42
X106.79Y-88.92
X106.79Y-92.42
X106.79Y-95.92
X111.79Y-71.42
X111.79Y-74.92
X111.79Y-78.42
X111.79Y-81.92
X111.79Y-85.42
X111.79Y-88.92
X111.79Y-92.42
X111.79Y-95.92
T4
X115.97Y-38.0G85X117.07Y-38.0
G05
X115.97Y-46.64G85X117.07Y-46.64
G05
X120.4Y-38.0G85X121.0Y-38.0
G05
X120.4Y-46.64G85X121.0Y-46.64
G05
T0
M30
