%TF.GenerationSoftware,KiCad,Pcbnew,7.0.2-0*%
%TF.CreationDate,2023-11-23T12:17:07+01:00*%
%TF.ProjectId,Flight Computer,466c6967-6874-4204-936f-6d7075746572,1.1*%
%TF.SameCoordinates,Original*%
%TF.FileFunction,Legend,Bot*%
%TF.FilePolarity,Positive*%
%FSLAX46Y46*%
G04 Gerber Fmt 4.6, Leading zero omitted, Abs format (unit mm)*
G04 Created by KiCad (PCBNEW 7.0.2-0) date 2023-11-23 12:17:07*
%MOMM*%
%LPD*%
G01*
G04 APERTURE LIST*
G04 Aperture macros list*
%AMRoundRect*
0 Rectangle with rounded corners*
0 $1 Rounding radius*
0 $2 $3 $4 $5 $6 $7 $8 $9 X,Y pos of 4 corners*
0 Add a 4 corners polygon primitive as box body*
4,1,4,$2,$3,$4,$5,$6,$7,$8,$9,$2,$3,0*
0 Add four circle primitives for the rounded corners*
1,1,$1+$1,$2,$3*
1,1,$1+$1,$4,$5*
1,1,$1+$1,$6,$7*
1,1,$1+$1,$8,$9*
0 Add four rect primitives between the rounded corners*
20,1,$1+$1,$2,$3,$4,$5,0*
20,1,$1+$1,$4,$5,$6,$7,0*
20,1,$1+$1,$6,$7,$8,$9,0*
20,1,$1+$1,$8,$9,$2,$3,0*%
G04 Aperture macros list end*
%ADD10C,0.153000*%
%ADD11C,0.200000*%
%ADD12C,0.120000*%
%ADD13C,0.100000*%
%ADD14C,0.900000*%
%ADD15RoundRect,0.200000X0.450000X-0.200000X0.450000X0.200000X-0.450000X0.200000X-0.450000X-0.200000X0*%
%ADD16O,1.300000X0.800000*%
%ADD17C,0.650000*%
%ADD18O,2.100000X1.000000*%
%ADD19O,1.800000X1.000000*%
%ADD20RoundRect,0.200000X0.200000X0.450000X-0.200000X0.450000X-0.200000X-0.450000X0.200000X-0.450000X0*%
%ADD21O,0.800000X1.300000*%
%ADD22RoundRect,0.200000X-0.450000X0.200000X-0.450000X-0.200000X0.450000X-0.200000X0.450000X0.200000X0*%
%ADD23C,1.500000*%
%ADD24RoundRect,0.250000X-0.625000X0.350000X-0.625000X-0.350000X0.625000X-0.350000X0.625000X0.350000X0*%
%ADD25O,1.750000X1.200000*%
%ADD26C,2.000000*%
%ADD27R,3.000000X1.500000*%
%ADD28R,1.500000X3.000000*%
%ADD29R,2.000000X2.000000*%
G04 APERTURE END LIST*
D10*
X95391904Y-30907619D02*
X95391904Y-29907619D01*
X95391904Y-29907619D02*
X95058571Y-30621904D01*
X95058571Y-30621904D02*
X94725238Y-29907619D01*
X94725238Y-29907619D02*
X94725238Y-30907619D01*
X94058571Y-29907619D02*
X93868095Y-29907619D01*
X93868095Y-29907619D02*
X93772857Y-29955238D01*
X93772857Y-29955238D02*
X93677619Y-30050476D01*
X93677619Y-30050476D02*
X93630000Y-30240952D01*
X93630000Y-30240952D02*
X93630000Y-30574285D01*
X93630000Y-30574285D02*
X93677619Y-30764761D01*
X93677619Y-30764761D02*
X93772857Y-30860000D01*
X93772857Y-30860000D02*
X93868095Y-30907619D01*
X93868095Y-30907619D02*
X94058571Y-30907619D01*
X94058571Y-30907619D02*
X94153809Y-30860000D01*
X94153809Y-30860000D02*
X94249047Y-30764761D01*
X94249047Y-30764761D02*
X94296666Y-30574285D01*
X94296666Y-30574285D02*
X94296666Y-30240952D01*
X94296666Y-30240952D02*
X94249047Y-30050476D01*
X94249047Y-30050476D02*
X94153809Y-29955238D01*
X94153809Y-29955238D02*
X94058571Y-29907619D01*
X93249047Y-30860000D02*
X93106190Y-30907619D01*
X93106190Y-30907619D02*
X92868095Y-30907619D01*
X92868095Y-30907619D02*
X92772857Y-30860000D01*
X92772857Y-30860000D02*
X92725238Y-30812380D01*
X92725238Y-30812380D02*
X92677619Y-30717142D01*
X92677619Y-30717142D02*
X92677619Y-30621904D01*
X92677619Y-30621904D02*
X92725238Y-30526666D01*
X92725238Y-30526666D02*
X92772857Y-30479047D01*
X92772857Y-30479047D02*
X92868095Y-30431428D01*
X92868095Y-30431428D02*
X93058571Y-30383809D01*
X93058571Y-30383809D02*
X93153809Y-30336190D01*
X93153809Y-30336190D02*
X93201428Y-30288571D01*
X93201428Y-30288571D02*
X93249047Y-30193333D01*
X93249047Y-30193333D02*
X93249047Y-30098095D01*
X93249047Y-30098095D02*
X93201428Y-30002857D01*
X93201428Y-30002857D02*
X93153809Y-29955238D01*
X93153809Y-29955238D02*
X93058571Y-29907619D01*
X93058571Y-29907619D02*
X92820476Y-29907619D01*
X92820476Y-29907619D02*
X92677619Y-29955238D01*
X92249047Y-30907619D02*
X92249047Y-29907619D01*
X102741904Y-35327619D02*
X102741904Y-34327619D01*
X102741904Y-34327619D02*
X102408571Y-35041904D01*
X102408571Y-35041904D02*
X102075238Y-34327619D01*
X102075238Y-34327619D02*
X102075238Y-35327619D01*
X101599047Y-35327619D02*
X101599047Y-34327619D01*
X101170476Y-35280000D02*
X101027619Y-35327619D01*
X101027619Y-35327619D02*
X100789524Y-35327619D01*
X100789524Y-35327619D02*
X100694286Y-35280000D01*
X100694286Y-35280000D02*
X100646667Y-35232380D01*
X100646667Y-35232380D02*
X100599048Y-35137142D01*
X100599048Y-35137142D02*
X100599048Y-35041904D01*
X100599048Y-35041904D02*
X100646667Y-34946666D01*
X100646667Y-34946666D02*
X100694286Y-34899047D01*
X100694286Y-34899047D02*
X100789524Y-34851428D01*
X100789524Y-34851428D02*
X100980000Y-34803809D01*
X100980000Y-34803809D02*
X101075238Y-34756190D01*
X101075238Y-34756190D02*
X101122857Y-34708571D01*
X101122857Y-34708571D02*
X101170476Y-34613333D01*
X101170476Y-34613333D02*
X101170476Y-34518095D01*
X101170476Y-34518095D02*
X101122857Y-34422857D01*
X101122857Y-34422857D02*
X101075238Y-34375238D01*
X101075238Y-34375238D02*
X100980000Y-34327619D01*
X100980000Y-34327619D02*
X100741905Y-34327619D01*
X100741905Y-34327619D02*
X100599048Y-34375238D01*
X99980000Y-34327619D02*
X99789524Y-34327619D01*
X99789524Y-34327619D02*
X99694286Y-34375238D01*
X99694286Y-34375238D02*
X99599048Y-34470476D01*
X99599048Y-34470476D02*
X99551429Y-34660952D01*
X99551429Y-34660952D02*
X99551429Y-34994285D01*
X99551429Y-34994285D02*
X99599048Y-35184761D01*
X99599048Y-35184761D02*
X99694286Y-35280000D01*
X99694286Y-35280000D02*
X99789524Y-35327619D01*
X99789524Y-35327619D02*
X99980000Y-35327619D01*
X99980000Y-35327619D02*
X100075238Y-35280000D01*
X100075238Y-35280000D02*
X100170476Y-35184761D01*
X100170476Y-35184761D02*
X100218095Y-34994285D01*
X100218095Y-34994285D02*
X100218095Y-34660952D01*
X100218095Y-34660952D02*
X100170476Y-34470476D01*
X100170476Y-34470476D02*
X100075238Y-34375238D01*
X100075238Y-34375238D02*
X99980000Y-34327619D01*
X91178571Y-85273809D02*
X91035714Y-85321428D01*
X91035714Y-85321428D02*
X90988095Y-85369047D01*
X90988095Y-85369047D02*
X90940476Y-85464285D01*
X90940476Y-85464285D02*
X90940476Y-85607142D01*
X90940476Y-85607142D02*
X90988095Y-85702380D01*
X90988095Y-85702380D02*
X91035714Y-85750000D01*
X91035714Y-85750000D02*
X91130952Y-85797619D01*
X91130952Y-85797619D02*
X91511904Y-85797619D01*
X91511904Y-85797619D02*
X91511904Y-84797619D01*
X91511904Y-84797619D02*
X91178571Y-84797619D01*
X91178571Y-84797619D02*
X91083333Y-84845238D01*
X91083333Y-84845238D02*
X91035714Y-84892857D01*
X91035714Y-84892857D02*
X90988095Y-84988095D01*
X90988095Y-84988095D02*
X90988095Y-85083333D01*
X90988095Y-85083333D02*
X91035714Y-85178571D01*
X91035714Y-85178571D02*
X91083333Y-85226190D01*
X91083333Y-85226190D02*
X91178571Y-85273809D01*
X91178571Y-85273809D02*
X91511904Y-85273809D01*
X90511904Y-85416666D02*
X89750000Y-85416666D01*
X117238095Y-82297619D02*
X117809523Y-82297619D01*
X117523809Y-82297619D02*
X117523809Y-81297619D01*
X117523809Y-81297619D02*
X117619047Y-81440476D01*
X117619047Y-81440476D02*
X117714285Y-81535714D01*
X117714285Y-81535714D02*
X117809523Y-81583333D01*
X116857142Y-81392857D02*
X116809523Y-81345238D01*
X116809523Y-81345238D02*
X116714285Y-81297619D01*
X116714285Y-81297619D02*
X116476190Y-81297619D01*
X116476190Y-81297619D02*
X116380952Y-81345238D01*
X116380952Y-81345238D02*
X116333333Y-81392857D01*
X116333333Y-81392857D02*
X116285714Y-81488095D01*
X116285714Y-81488095D02*
X116285714Y-81583333D01*
X116285714Y-81583333D02*
X116333333Y-81726190D01*
X116333333Y-81726190D02*
X116904761Y-82297619D01*
X116904761Y-82297619D02*
X116285714Y-82297619D01*
X115999999Y-81297619D02*
X115666666Y-82297619D01*
X115666666Y-82297619D02*
X115333333Y-81297619D01*
X117761904Y-71273809D02*
X117428571Y-71273809D01*
X117285714Y-71797619D02*
X117761904Y-71797619D01*
X117761904Y-71797619D02*
X117761904Y-70797619D01*
X117761904Y-70797619D02*
X117285714Y-70797619D01*
X116857142Y-71416666D02*
X116095238Y-71416666D01*
X116078571Y-63053809D02*
X115935714Y-63101428D01*
X115935714Y-63101428D02*
X115888095Y-63149047D01*
X115888095Y-63149047D02*
X115840476Y-63244285D01*
X115840476Y-63244285D02*
X115840476Y-63387142D01*
X115840476Y-63387142D02*
X115888095Y-63482380D01*
X115888095Y-63482380D02*
X115935714Y-63530000D01*
X115935714Y-63530000D02*
X116030952Y-63577619D01*
X116030952Y-63577619D02*
X116411904Y-63577619D01*
X116411904Y-63577619D02*
X116411904Y-62577619D01*
X116411904Y-62577619D02*
X116078571Y-62577619D01*
X116078571Y-62577619D02*
X115983333Y-62625238D01*
X115983333Y-62625238D02*
X115935714Y-62672857D01*
X115935714Y-62672857D02*
X115888095Y-62768095D01*
X115888095Y-62768095D02*
X115888095Y-62863333D01*
X115888095Y-62863333D02*
X115935714Y-62958571D01*
X115935714Y-62958571D02*
X115983333Y-63006190D01*
X115983333Y-63006190D02*
X116078571Y-63053809D01*
X116078571Y-63053809D02*
X116411904Y-63053809D01*
X114983333Y-63577619D02*
X114983333Y-63053809D01*
X114983333Y-63053809D02*
X115030952Y-62958571D01*
X115030952Y-62958571D02*
X115126190Y-62910952D01*
X115126190Y-62910952D02*
X115316666Y-62910952D01*
X115316666Y-62910952D02*
X115411904Y-62958571D01*
X114983333Y-63530000D02*
X115078571Y-63577619D01*
X115078571Y-63577619D02*
X115316666Y-63577619D01*
X115316666Y-63577619D02*
X115411904Y-63530000D01*
X115411904Y-63530000D02*
X115459523Y-63434761D01*
X115459523Y-63434761D02*
X115459523Y-63339523D01*
X115459523Y-63339523D02*
X115411904Y-63244285D01*
X115411904Y-63244285D02*
X115316666Y-63196666D01*
X115316666Y-63196666D02*
X115078571Y-63196666D01*
X115078571Y-63196666D02*
X114983333Y-63149047D01*
X114649999Y-62910952D02*
X114269047Y-62910952D01*
X114507142Y-62577619D02*
X114507142Y-63434761D01*
X114507142Y-63434761D02*
X114459523Y-63530000D01*
X114459523Y-63530000D02*
X114364285Y-63577619D01*
X114364285Y-63577619D02*
X114269047Y-63577619D01*
X114078570Y-62910952D02*
X113697618Y-62910952D01*
X113935713Y-62577619D02*
X113935713Y-63434761D01*
X113935713Y-63434761D02*
X113888094Y-63530000D01*
X113888094Y-63530000D02*
X113792856Y-63577619D01*
X113792856Y-63577619D02*
X113697618Y-63577619D01*
X97409523Y-26900000D02*
X97266666Y-26947619D01*
X97266666Y-26947619D02*
X97028571Y-26947619D01*
X97028571Y-26947619D02*
X96933333Y-26900000D01*
X96933333Y-26900000D02*
X96885714Y-26852380D01*
X96885714Y-26852380D02*
X96838095Y-26757142D01*
X96838095Y-26757142D02*
X96838095Y-26661904D01*
X96838095Y-26661904D02*
X96885714Y-26566666D01*
X96885714Y-26566666D02*
X96933333Y-26519047D01*
X96933333Y-26519047D02*
X97028571Y-26471428D01*
X97028571Y-26471428D02*
X97219047Y-26423809D01*
X97219047Y-26423809D02*
X97314285Y-26376190D01*
X97314285Y-26376190D02*
X97361904Y-26328571D01*
X97361904Y-26328571D02*
X97409523Y-26233333D01*
X97409523Y-26233333D02*
X97409523Y-26138095D01*
X97409523Y-26138095D02*
X97361904Y-26042857D01*
X97361904Y-26042857D02*
X97314285Y-25995238D01*
X97314285Y-25995238D02*
X97219047Y-25947619D01*
X97219047Y-25947619D02*
X96980952Y-25947619D01*
X96980952Y-25947619D02*
X96838095Y-25995238D01*
X95838095Y-26852380D02*
X95885714Y-26900000D01*
X95885714Y-26900000D02*
X96028571Y-26947619D01*
X96028571Y-26947619D02*
X96123809Y-26947619D01*
X96123809Y-26947619D02*
X96266666Y-26900000D01*
X96266666Y-26900000D02*
X96361904Y-26804761D01*
X96361904Y-26804761D02*
X96409523Y-26709523D01*
X96409523Y-26709523D02*
X96457142Y-26519047D01*
X96457142Y-26519047D02*
X96457142Y-26376190D01*
X96457142Y-26376190D02*
X96409523Y-26185714D01*
X96409523Y-26185714D02*
X96361904Y-26090476D01*
X96361904Y-26090476D02*
X96266666Y-25995238D01*
X96266666Y-25995238D02*
X96123809Y-25947619D01*
X96123809Y-25947619D02*
X96028571Y-25947619D01*
X96028571Y-25947619D02*
X95885714Y-25995238D01*
X95885714Y-25995238D02*
X95838095Y-26042857D01*
X95409523Y-26947619D02*
X95409523Y-25947619D01*
X94838095Y-26947619D02*
X95266666Y-26376190D01*
X94838095Y-25947619D02*
X95409523Y-26519047D01*
X87557142Y-54137619D02*
X86938095Y-54137619D01*
X86938095Y-54137619D02*
X87271428Y-54518571D01*
X87271428Y-54518571D02*
X87128571Y-54518571D01*
X87128571Y-54518571D02*
X87033333Y-54566190D01*
X87033333Y-54566190D02*
X86985714Y-54613809D01*
X86985714Y-54613809D02*
X86938095Y-54709047D01*
X86938095Y-54709047D02*
X86938095Y-54947142D01*
X86938095Y-54947142D02*
X86985714Y-55042380D01*
X86985714Y-55042380D02*
X87033333Y-55090000D01*
X87033333Y-55090000D02*
X87128571Y-55137619D01*
X87128571Y-55137619D02*
X87414285Y-55137619D01*
X87414285Y-55137619D02*
X87509523Y-55090000D01*
X87509523Y-55090000D02*
X87557142Y-55042380D01*
X86509523Y-55042380D02*
X86461904Y-55090000D01*
X86461904Y-55090000D02*
X86509523Y-55137619D01*
X86509523Y-55137619D02*
X86557142Y-55090000D01*
X86557142Y-55090000D02*
X86509523Y-55042380D01*
X86509523Y-55042380D02*
X86509523Y-55137619D01*
X86128571Y-54137619D02*
X85509524Y-54137619D01*
X85509524Y-54137619D02*
X85842857Y-54518571D01*
X85842857Y-54518571D02*
X85700000Y-54518571D01*
X85700000Y-54518571D02*
X85604762Y-54566190D01*
X85604762Y-54566190D02*
X85557143Y-54613809D01*
X85557143Y-54613809D02*
X85509524Y-54709047D01*
X85509524Y-54709047D02*
X85509524Y-54947142D01*
X85509524Y-54947142D02*
X85557143Y-55042380D01*
X85557143Y-55042380D02*
X85604762Y-55090000D01*
X85604762Y-55090000D02*
X85700000Y-55137619D01*
X85700000Y-55137619D02*
X85985714Y-55137619D01*
X85985714Y-55137619D02*
X86080952Y-55090000D01*
X86080952Y-55090000D02*
X86128571Y-55042380D01*
X85223809Y-54137619D02*
X84890476Y-55137619D01*
X84890476Y-55137619D02*
X84557143Y-54137619D01*
X87611904Y-32276666D02*
X86850000Y-32276666D01*
X87230952Y-32657619D02*
X87230952Y-31895714D01*
X86469047Y-31657619D02*
X85850000Y-31657619D01*
X85850000Y-31657619D02*
X86183333Y-32038571D01*
X86183333Y-32038571D02*
X86040476Y-32038571D01*
X86040476Y-32038571D02*
X85945238Y-32086190D01*
X85945238Y-32086190D02*
X85897619Y-32133809D01*
X85897619Y-32133809D02*
X85850000Y-32229047D01*
X85850000Y-32229047D02*
X85850000Y-32467142D01*
X85850000Y-32467142D02*
X85897619Y-32562380D01*
X85897619Y-32562380D02*
X85945238Y-32610000D01*
X85945238Y-32610000D02*
X86040476Y-32657619D01*
X86040476Y-32657619D02*
X86326190Y-32657619D01*
X86326190Y-32657619D02*
X86421428Y-32610000D01*
X86421428Y-32610000D02*
X86469047Y-32562380D01*
X85421428Y-32562380D02*
X85373809Y-32610000D01*
X85373809Y-32610000D02*
X85421428Y-32657619D01*
X85421428Y-32657619D02*
X85469047Y-32610000D01*
X85469047Y-32610000D02*
X85421428Y-32562380D01*
X85421428Y-32562380D02*
X85421428Y-32657619D01*
X85040476Y-31657619D02*
X84421429Y-31657619D01*
X84421429Y-31657619D02*
X84754762Y-32038571D01*
X84754762Y-32038571D02*
X84611905Y-32038571D01*
X84611905Y-32038571D02*
X84516667Y-32086190D01*
X84516667Y-32086190D02*
X84469048Y-32133809D01*
X84469048Y-32133809D02*
X84421429Y-32229047D01*
X84421429Y-32229047D02*
X84421429Y-32467142D01*
X84421429Y-32467142D02*
X84469048Y-32562380D01*
X84469048Y-32562380D02*
X84516667Y-32610000D01*
X84516667Y-32610000D02*
X84611905Y-32657619D01*
X84611905Y-32657619D02*
X84897619Y-32657619D01*
X84897619Y-32657619D02*
X84992857Y-32610000D01*
X84992857Y-32610000D02*
X85040476Y-32562380D01*
X87611904Y-34277619D02*
X87611904Y-33277619D01*
X87611904Y-33277619D02*
X87278571Y-33991904D01*
X87278571Y-33991904D02*
X86945238Y-33277619D01*
X86945238Y-33277619D02*
X86945238Y-34277619D01*
X86469047Y-34277619D02*
X86469047Y-33277619D01*
X86040476Y-34230000D02*
X85897619Y-34277619D01*
X85897619Y-34277619D02*
X85659524Y-34277619D01*
X85659524Y-34277619D02*
X85564286Y-34230000D01*
X85564286Y-34230000D02*
X85516667Y-34182380D01*
X85516667Y-34182380D02*
X85469048Y-34087142D01*
X85469048Y-34087142D02*
X85469048Y-33991904D01*
X85469048Y-33991904D02*
X85516667Y-33896666D01*
X85516667Y-33896666D02*
X85564286Y-33849047D01*
X85564286Y-33849047D02*
X85659524Y-33801428D01*
X85659524Y-33801428D02*
X85850000Y-33753809D01*
X85850000Y-33753809D02*
X85945238Y-33706190D01*
X85945238Y-33706190D02*
X85992857Y-33658571D01*
X85992857Y-33658571D02*
X86040476Y-33563333D01*
X86040476Y-33563333D02*
X86040476Y-33468095D01*
X86040476Y-33468095D02*
X85992857Y-33372857D01*
X85992857Y-33372857D02*
X85945238Y-33325238D01*
X85945238Y-33325238D02*
X85850000Y-33277619D01*
X85850000Y-33277619D02*
X85611905Y-33277619D01*
X85611905Y-33277619D02*
X85469048Y-33325238D01*
X84850000Y-33277619D02*
X84659524Y-33277619D01*
X84659524Y-33277619D02*
X84564286Y-33325238D01*
X84564286Y-33325238D02*
X84469048Y-33420476D01*
X84469048Y-33420476D02*
X84421429Y-33610952D01*
X84421429Y-33610952D02*
X84421429Y-33944285D01*
X84421429Y-33944285D02*
X84469048Y-34134761D01*
X84469048Y-34134761D02*
X84564286Y-34230000D01*
X84564286Y-34230000D02*
X84659524Y-34277619D01*
X84659524Y-34277619D02*
X84850000Y-34277619D01*
X84850000Y-34277619D02*
X84945238Y-34230000D01*
X84945238Y-34230000D02*
X85040476Y-34134761D01*
X85040476Y-34134761D02*
X85088095Y-33944285D01*
X85088095Y-33944285D02*
X85088095Y-33610952D01*
X85088095Y-33610952D02*
X85040476Y-33420476D01*
X85040476Y-33420476D02*
X84945238Y-33325238D01*
X84945238Y-33325238D02*
X84850000Y-33277619D01*
X87611904Y-35897619D02*
X87611904Y-34897619D01*
X87611904Y-34897619D02*
X87278571Y-35611904D01*
X87278571Y-35611904D02*
X86945238Y-34897619D01*
X86945238Y-34897619D02*
X86945238Y-35897619D01*
X86278571Y-34897619D02*
X86088095Y-34897619D01*
X86088095Y-34897619D02*
X85992857Y-34945238D01*
X85992857Y-34945238D02*
X85897619Y-35040476D01*
X85897619Y-35040476D02*
X85850000Y-35230952D01*
X85850000Y-35230952D02*
X85850000Y-35564285D01*
X85850000Y-35564285D02*
X85897619Y-35754761D01*
X85897619Y-35754761D02*
X85992857Y-35850000D01*
X85992857Y-35850000D02*
X86088095Y-35897619D01*
X86088095Y-35897619D02*
X86278571Y-35897619D01*
X86278571Y-35897619D02*
X86373809Y-35850000D01*
X86373809Y-35850000D02*
X86469047Y-35754761D01*
X86469047Y-35754761D02*
X86516666Y-35564285D01*
X86516666Y-35564285D02*
X86516666Y-35230952D01*
X86516666Y-35230952D02*
X86469047Y-35040476D01*
X86469047Y-35040476D02*
X86373809Y-34945238D01*
X86373809Y-34945238D02*
X86278571Y-34897619D01*
X85469047Y-35850000D02*
X85326190Y-35897619D01*
X85326190Y-35897619D02*
X85088095Y-35897619D01*
X85088095Y-35897619D02*
X84992857Y-35850000D01*
X84992857Y-35850000D02*
X84945238Y-35802380D01*
X84945238Y-35802380D02*
X84897619Y-35707142D01*
X84897619Y-35707142D02*
X84897619Y-35611904D01*
X84897619Y-35611904D02*
X84945238Y-35516666D01*
X84945238Y-35516666D02*
X84992857Y-35469047D01*
X84992857Y-35469047D02*
X85088095Y-35421428D01*
X85088095Y-35421428D02*
X85278571Y-35373809D01*
X85278571Y-35373809D02*
X85373809Y-35326190D01*
X85373809Y-35326190D02*
X85421428Y-35278571D01*
X85421428Y-35278571D02*
X85469047Y-35183333D01*
X85469047Y-35183333D02*
X85469047Y-35088095D01*
X85469047Y-35088095D02*
X85421428Y-34992857D01*
X85421428Y-34992857D02*
X85373809Y-34945238D01*
X85373809Y-34945238D02*
X85278571Y-34897619D01*
X85278571Y-34897619D02*
X85040476Y-34897619D01*
X85040476Y-34897619D02*
X84897619Y-34945238D01*
X84469047Y-35897619D02*
X84469047Y-34897619D01*
X87659523Y-37470000D02*
X87516666Y-37517619D01*
X87516666Y-37517619D02*
X87278571Y-37517619D01*
X87278571Y-37517619D02*
X87183333Y-37470000D01*
X87183333Y-37470000D02*
X87135714Y-37422380D01*
X87135714Y-37422380D02*
X87088095Y-37327142D01*
X87088095Y-37327142D02*
X87088095Y-37231904D01*
X87088095Y-37231904D02*
X87135714Y-37136666D01*
X87135714Y-37136666D02*
X87183333Y-37089047D01*
X87183333Y-37089047D02*
X87278571Y-37041428D01*
X87278571Y-37041428D02*
X87469047Y-36993809D01*
X87469047Y-36993809D02*
X87564285Y-36946190D01*
X87564285Y-36946190D02*
X87611904Y-36898571D01*
X87611904Y-36898571D02*
X87659523Y-36803333D01*
X87659523Y-36803333D02*
X87659523Y-36708095D01*
X87659523Y-36708095D02*
X87611904Y-36612857D01*
X87611904Y-36612857D02*
X87564285Y-36565238D01*
X87564285Y-36565238D02*
X87469047Y-36517619D01*
X87469047Y-36517619D02*
X87230952Y-36517619D01*
X87230952Y-36517619D02*
X87088095Y-36565238D01*
X86088095Y-37422380D02*
X86135714Y-37470000D01*
X86135714Y-37470000D02*
X86278571Y-37517619D01*
X86278571Y-37517619D02*
X86373809Y-37517619D01*
X86373809Y-37517619D02*
X86516666Y-37470000D01*
X86516666Y-37470000D02*
X86611904Y-37374761D01*
X86611904Y-37374761D02*
X86659523Y-37279523D01*
X86659523Y-37279523D02*
X86707142Y-37089047D01*
X86707142Y-37089047D02*
X86707142Y-36946190D01*
X86707142Y-36946190D02*
X86659523Y-36755714D01*
X86659523Y-36755714D02*
X86611904Y-36660476D01*
X86611904Y-36660476D02*
X86516666Y-36565238D01*
X86516666Y-36565238D02*
X86373809Y-36517619D01*
X86373809Y-36517619D02*
X86278571Y-36517619D01*
X86278571Y-36517619D02*
X86135714Y-36565238D01*
X86135714Y-36565238D02*
X86088095Y-36612857D01*
X85659523Y-37517619D02*
X85659523Y-36517619D01*
X85088095Y-37517619D02*
X85516666Y-36946190D01*
X85088095Y-36517619D02*
X85659523Y-37089047D01*
X87088095Y-38185238D02*
X87183333Y-38137619D01*
X87183333Y-38137619D02*
X87326190Y-38137619D01*
X87326190Y-38137619D02*
X87469047Y-38185238D01*
X87469047Y-38185238D02*
X87564285Y-38280476D01*
X87564285Y-38280476D02*
X87611904Y-38375714D01*
X87611904Y-38375714D02*
X87659523Y-38566190D01*
X87659523Y-38566190D02*
X87659523Y-38709047D01*
X87659523Y-38709047D02*
X87611904Y-38899523D01*
X87611904Y-38899523D02*
X87564285Y-38994761D01*
X87564285Y-38994761D02*
X87469047Y-39090000D01*
X87469047Y-39090000D02*
X87326190Y-39137619D01*
X87326190Y-39137619D02*
X87230952Y-39137619D01*
X87230952Y-39137619D02*
X87088095Y-39090000D01*
X87088095Y-39090000D02*
X87040476Y-39042380D01*
X87040476Y-39042380D02*
X87040476Y-38709047D01*
X87040476Y-38709047D02*
X87230952Y-38709047D01*
X86611904Y-39137619D02*
X86611904Y-38137619D01*
X86611904Y-38137619D02*
X86040476Y-39137619D01*
X86040476Y-39137619D02*
X86040476Y-38137619D01*
X85564285Y-39137619D02*
X85564285Y-38137619D01*
X85564285Y-38137619D02*
X85326190Y-38137619D01*
X85326190Y-38137619D02*
X85183333Y-38185238D01*
X85183333Y-38185238D02*
X85088095Y-38280476D01*
X85088095Y-38280476D02*
X85040476Y-38375714D01*
X85040476Y-38375714D02*
X84992857Y-38566190D01*
X84992857Y-38566190D02*
X84992857Y-38709047D01*
X84992857Y-38709047D02*
X85040476Y-38899523D01*
X85040476Y-38899523D02*
X85088095Y-38994761D01*
X85088095Y-38994761D02*
X85183333Y-39090000D01*
X85183333Y-39090000D02*
X85326190Y-39137619D01*
X85326190Y-39137619D02*
X85564285Y-39137619D01*
X90940476Y-78702380D02*
X90988095Y-78750000D01*
X90988095Y-78750000D02*
X91130952Y-78797619D01*
X91130952Y-78797619D02*
X91226190Y-78797619D01*
X91226190Y-78797619D02*
X91369047Y-78750000D01*
X91369047Y-78750000D02*
X91464285Y-78654761D01*
X91464285Y-78654761D02*
X91511904Y-78559523D01*
X91511904Y-78559523D02*
X91559523Y-78369047D01*
X91559523Y-78369047D02*
X91559523Y-78226190D01*
X91559523Y-78226190D02*
X91511904Y-78035714D01*
X91511904Y-78035714D02*
X91464285Y-77940476D01*
X91464285Y-77940476D02*
X91369047Y-77845238D01*
X91369047Y-77845238D02*
X91226190Y-77797619D01*
X91226190Y-77797619D02*
X91130952Y-77797619D01*
X91130952Y-77797619D02*
X90988095Y-77845238D01*
X90988095Y-77845238D02*
X90940476Y-77892857D01*
X90511904Y-78416666D02*
X89750000Y-78416666D01*
X110204761Y-54427619D02*
X109871428Y-55427619D01*
X109871428Y-55427619D02*
X109538095Y-54427619D01*
X109204761Y-55427619D02*
X109204761Y-54760952D01*
X109204761Y-54427619D02*
X109252380Y-54475238D01*
X109252380Y-54475238D02*
X109204761Y-54522857D01*
X109204761Y-54522857D02*
X109157142Y-54475238D01*
X109157142Y-54475238D02*
X109204761Y-54427619D01*
X109204761Y-54427619D02*
X109204761Y-54522857D01*
X108728571Y-54760952D02*
X108728571Y-55427619D01*
X108728571Y-54856190D02*
X108680952Y-54808571D01*
X108680952Y-54808571D02*
X108585714Y-54760952D01*
X108585714Y-54760952D02*
X108442857Y-54760952D01*
X108442857Y-54760952D02*
X108347619Y-54808571D01*
X108347619Y-54808571D02*
X108300000Y-54903809D01*
X108300000Y-54903809D02*
X108300000Y-55427619D01*
X121558095Y-49795238D02*
X121653333Y-49747619D01*
X121653333Y-49747619D02*
X121796190Y-49747619D01*
X121796190Y-49747619D02*
X121939047Y-49795238D01*
X121939047Y-49795238D02*
X122034285Y-49890476D01*
X122034285Y-49890476D02*
X122081904Y-49985714D01*
X122081904Y-49985714D02*
X122129523Y-50176190D01*
X122129523Y-50176190D02*
X122129523Y-50319047D01*
X122129523Y-50319047D02*
X122081904Y-50509523D01*
X122081904Y-50509523D02*
X122034285Y-50604761D01*
X122034285Y-50604761D02*
X121939047Y-50700000D01*
X121939047Y-50700000D02*
X121796190Y-50747619D01*
X121796190Y-50747619D02*
X121700952Y-50747619D01*
X121700952Y-50747619D02*
X121558095Y-50700000D01*
X121558095Y-50700000D02*
X121510476Y-50652380D01*
X121510476Y-50652380D02*
X121510476Y-50319047D01*
X121510476Y-50319047D02*
X121700952Y-50319047D01*
X121081904Y-50747619D02*
X121081904Y-49747619D01*
X121081904Y-49747619D02*
X120510476Y-50747619D01*
X120510476Y-50747619D02*
X120510476Y-49747619D01*
X120034285Y-50747619D02*
X120034285Y-49747619D01*
X120034285Y-49747619D02*
X119796190Y-49747619D01*
X119796190Y-49747619D02*
X119653333Y-49795238D01*
X119653333Y-49795238D02*
X119558095Y-49890476D01*
X119558095Y-49890476D02*
X119510476Y-49985714D01*
X119510476Y-49985714D02*
X119462857Y-50176190D01*
X119462857Y-50176190D02*
X119462857Y-50319047D01*
X119462857Y-50319047D02*
X119510476Y-50509523D01*
X119510476Y-50509523D02*
X119558095Y-50604761D01*
X119558095Y-50604761D02*
X119653333Y-50700000D01*
X119653333Y-50700000D02*
X119796190Y-50747619D01*
X119796190Y-50747619D02*
X120034285Y-50747619D01*
X122224761Y-51367619D02*
X121653333Y-51367619D01*
X121939047Y-52367619D02*
X121939047Y-51367619D01*
X121415237Y-51367619D02*
X120748571Y-52367619D01*
X120748571Y-51367619D02*
X121415237Y-52367619D01*
X121510476Y-53987619D02*
X121843809Y-53511428D01*
X122081904Y-53987619D02*
X122081904Y-52987619D01*
X122081904Y-52987619D02*
X121700952Y-52987619D01*
X121700952Y-52987619D02*
X121605714Y-53035238D01*
X121605714Y-53035238D02*
X121558095Y-53082857D01*
X121558095Y-53082857D02*
X121510476Y-53178095D01*
X121510476Y-53178095D02*
X121510476Y-53320952D01*
X121510476Y-53320952D02*
X121558095Y-53416190D01*
X121558095Y-53416190D02*
X121605714Y-53463809D01*
X121605714Y-53463809D02*
X121700952Y-53511428D01*
X121700952Y-53511428D02*
X122081904Y-53511428D01*
X121177142Y-52987619D02*
X120510476Y-53987619D01*
X120510476Y-52987619D02*
X121177142Y-53987619D01*
X121748571Y-55083809D02*
X121605714Y-55131428D01*
X121605714Y-55131428D02*
X121558095Y-55179047D01*
X121558095Y-55179047D02*
X121510476Y-55274285D01*
X121510476Y-55274285D02*
X121510476Y-55417142D01*
X121510476Y-55417142D02*
X121558095Y-55512380D01*
X121558095Y-55512380D02*
X121605714Y-55560000D01*
X121605714Y-55560000D02*
X121700952Y-55607619D01*
X121700952Y-55607619D02*
X122081904Y-55607619D01*
X122081904Y-55607619D02*
X122081904Y-54607619D01*
X122081904Y-54607619D02*
X121748571Y-54607619D01*
X121748571Y-54607619D02*
X121653333Y-54655238D01*
X121653333Y-54655238D02*
X121605714Y-54702857D01*
X121605714Y-54702857D02*
X121558095Y-54798095D01*
X121558095Y-54798095D02*
X121558095Y-54893333D01*
X121558095Y-54893333D02*
X121605714Y-54988571D01*
X121605714Y-54988571D02*
X121653333Y-55036190D01*
X121653333Y-55036190D02*
X121748571Y-55083809D01*
X121748571Y-55083809D02*
X122081904Y-55083809D01*
X120653333Y-55607619D02*
X120653333Y-55083809D01*
X120653333Y-55083809D02*
X120700952Y-54988571D01*
X120700952Y-54988571D02*
X120796190Y-54940952D01*
X120796190Y-54940952D02*
X120986666Y-54940952D01*
X120986666Y-54940952D02*
X121081904Y-54988571D01*
X120653333Y-55560000D02*
X120748571Y-55607619D01*
X120748571Y-55607619D02*
X120986666Y-55607619D01*
X120986666Y-55607619D02*
X121081904Y-55560000D01*
X121081904Y-55560000D02*
X121129523Y-55464761D01*
X121129523Y-55464761D02*
X121129523Y-55369523D01*
X121129523Y-55369523D02*
X121081904Y-55274285D01*
X121081904Y-55274285D02*
X120986666Y-55226666D01*
X120986666Y-55226666D02*
X120748571Y-55226666D01*
X120748571Y-55226666D02*
X120653333Y-55179047D01*
X120319999Y-54940952D02*
X119939047Y-54940952D01*
X120177142Y-54607619D02*
X120177142Y-55464761D01*
X120177142Y-55464761D02*
X120129523Y-55560000D01*
X120129523Y-55560000D02*
X120034285Y-55607619D01*
X120034285Y-55607619D02*
X119939047Y-55607619D01*
X90988095Y-89297619D02*
X91559523Y-89297619D01*
X91273809Y-89297619D02*
X91273809Y-88297619D01*
X91273809Y-88297619D02*
X91369047Y-88440476D01*
X91369047Y-88440476D02*
X91464285Y-88535714D01*
X91464285Y-88535714D02*
X91559523Y-88583333D01*
X90607142Y-88392857D02*
X90559523Y-88345238D01*
X90559523Y-88345238D02*
X90464285Y-88297619D01*
X90464285Y-88297619D02*
X90226190Y-88297619D01*
X90226190Y-88297619D02*
X90130952Y-88345238D01*
X90130952Y-88345238D02*
X90083333Y-88392857D01*
X90083333Y-88392857D02*
X90035714Y-88488095D01*
X90035714Y-88488095D02*
X90035714Y-88583333D01*
X90035714Y-88583333D02*
X90083333Y-88726190D01*
X90083333Y-88726190D02*
X90654761Y-89297619D01*
X90654761Y-89297619D02*
X90035714Y-89297619D01*
X89749999Y-88297619D02*
X89416666Y-89297619D01*
X89416666Y-89297619D02*
X89083333Y-88297619D01*
X117238095Y-95345238D02*
X117333333Y-95297619D01*
X117333333Y-95297619D02*
X117476190Y-95297619D01*
X117476190Y-95297619D02*
X117619047Y-95345238D01*
X117619047Y-95345238D02*
X117714285Y-95440476D01*
X117714285Y-95440476D02*
X117761904Y-95535714D01*
X117761904Y-95535714D02*
X117809523Y-95726190D01*
X117809523Y-95726190D02*
X117809523Y-95869047D01*
X117809523Y-95869047D02*
X117761904Y-96059523D01*
X117761904Y-96059523D02*
X117714285Y-96154761D01*
X117714285Y-96154761D02*
X117619047Y-96250000D01*
X117619047Y-96250000D02*
X117476190Y-96297619D01*
X117476190Y-96297619D02*
X117380952Y-96297619D01*
X117380952Y-96297619D02*
X117238095Y-96250000D01*
X117238095Y-96250000D02*
X117190476Y-96202380D01*
X117190476Y-96202380D02*
X117190476Y-95869047D01*
X117190476Y-95869047D02*
X117380952Y-95869047D01*
X116761904Y-95630952D02*
X116761904Y-96297619D01*
X116761904Y-95726190D02*
X116714285Y-95678571D01*
X116714285Y-95678571D02*
X116619047Y-95630952D01*
X116619047Y-95630952D02*
X116476190Y-95630952D01*
X116476190Y-95630952D02*
X116380952Y-95678571D01*
X116380952Y-95678571D02*
X116333333Y-95773809D01*
X116333333Y-95773809D02*
X116333333Y-96297619D01*
X115428571Y-96297619D02*
X115428571Y-95297619D01*
X115428571Y-96250000D02*
X115523809Y-96297619D01*
X115523809Y-96297619D02*
X115714285Y-96297619D01*
X115714285Y-96297619D02*
X115809523Y-96250000D01*
X115809523Y-96250000D02*
X115857142Y-96202380D01*
X115857142Y-96202380D02*
X115904761Y-96107142D01*
X115904761Y-96107142D02*
X115904761Y-95821428D01*
X115904761Y-95821428D02*
X115857142Y-95726190D01*
X115857142Y-95726190D02*
X115809523Y-95678571D01*
X115809523Y-95678571D02*
X115714285Y-95630952D01*
X115714285Y-95630952D02*
X115523809Y-95630952D01*
X115523809Y-95630952D02*
X115428571Y-95678571D01*
X90988095Y-82297619D02*
X91559523Y-82297619D01*
X91273809Y-82297619D02*
X91273809Y-81297619D01*
X91273809Y-81297619D02*
X91369047Y-81440476D01*
X91369047Y-81440476D02*
X91464285Y-81535714D01*
X91464285Y-81535714D02*
X91559523Y-81583333D01*
X90607142Y-81392857D02*
X90559523Y-81345238D01*
X90559523Y-81345238D02*
X90464285Y-81297619D01*
X90464285Y-81297619D02*
X90226190Y-81297619D01*
X90226190Y-81297619D02*
X90130952Y-81345238D01*
X90130952Y-81345238D02*
X90083333Y-81392857D01*
X90083333Y-81392857D02*
X90035714Y-81488095D01*
X90035714Y-81488095D02*
X90035714Y-81583333D01*
X90035714Y-81583333D02*
X90083333Y-81726190D01*
X90083333Y-81726190D02*
X90654761Y-82297619D01*
X90654761Y-82297619D02*
X90035714Y-82297619D01*
X89749999Y-81297619D02*
X89416666Y-82297619D01*
X89416666Y-82297619D02*
X89083333Y-81297619D01*
X91511904Y-71797619D02*
X91511904Y-70797619D01*
X91511904Y-70797619D02*
X91273809Y-70797619D01*
X91273809Y-70797619D02*
X91130952Y-70845238D01*
X91130952Y-70845238D02*
X91035714Y-70940476D01*
X91035714Y-70940476D02*
X90988095Y-71035714D01*
X90988095Y-71035714D02*
X90940476Y-71226190D01*
X90940476Y-71226190D02*
X90940476Y-71369047D01*
X90940476Y-71369047D02*
X90988095Y-71559523D01*
X90988095Y-71559523D02*
X91035714Y-71654761D01*
X91035714Y-71654761D02*
X91130952Y-71750000D01*
X91130952Y-71750000D02*
X91273809Y-71797619D01*
X91273809Y-71797619D02*
X91511904Y-71797619D01*
X90511904Y-71416666D02*
X89750000Y-71416666D01*
X122038095Y-26085238D02*
X122133333Y-26037619D01*
X122133333Y-26037619D02*
X122276190Y-26037619D01*
X122276190Y-26037619D02*
X122419047Y-26085238D01*
X122419047Y-26085238D02*
X122514285Y-26180476D01*
X122514285Y-26180476D02*
X122561904Y-26275714D01*
X122561904Y-26275714D02*
X122609523Y-26466190D01*
X122609523Y-26466190D02*
X122609523Y-26609047D01*
X122609523Y-26609047D02*
X122561904Y-26799523D01*
X122561904Y-26799523D02*
X122514285Y-26894761D01*
X122514285Y-26894761D02*
X122419047Y-26990000D01*
X122419047Y-26990000D02*
X122276190Y-27037619D01*
X122276190Y-27037619D02*
X122180952Y-27037619D01*
X122180952Y-27037619D02*
X122038095Y-26990000D01*
X122038095Y-26990000D02*
X121990476Y-26942380D01*
X121990476Y-26942380D02*
X121990476Y-26609047D01*
X121990476Y-26609047D02*
X122180952Y-26609047D01*
X121561904Y-27037619D02*
X121561904Y-26037619D01*
X121561904Y-26037619D02*
X120990476Y-27037619D01*
X120990476Y-27037619D02*
X120990476Y-26037619D01*
X120514285Y-27037619D02*
X120514285Y-26037619D01*
X120514285Y-26037619D02*
X120276190Y-26037619D01*
X120276190Y-26037619D02*
X120133333Y-26085238D01*
X120133333Y-26085238D02*
X120038095Y-26180476D01*
X120038095Y-26180476D02*
X119990476Y-26275714D01*
X119990476Y-26275714D02*
X119942857Y-26466190D01*
X119942857Y-26466190D02*
X119942857Y-26609047D01*
X119942857Y-26609047D02*
X119990476Y-26799523D01*
X119990476Y-26799523D02*
X120038095Y-26894761D01*
X120038095Y-26894761D02*
X120133333Y-26990000D01*
X120133333Y-26990000D02*
X120276190Y-27037619D01*
X120276190Y-27037619D02*
X120514285Y-27037619D01*
X122609523Y-28610000D02*
X122466666Y-28657619D01*
X122466666Y-28657619D02*
X122228571Y-28657619D01*
X122228571Y-28657619D02*
X122133333Y-28610000D01*
X122133333Y-28610000D02*
X122085714Y-28562380D01*
X122085714Y-28562380D02*
X122038095Y-28467142D01*
X122038095Y-28467142D02*
X122038095Y-28371904D01*
X122038095Y-28371904D02*
X122085714Y-28276666D01*
X122085714Y-28276666D02*
X122133333Y-28229047D01*
X122133333Y-28229047D02*
X122228571Y-28181428D01*
X122228571Y-28181428D02*
X122419047Y-28133809D01*
X122419047Y-28133809D02*
X122514285Y-28086190D01*
X122514285Y-28086190D02*
X122561904Y-28038571D01*
X122561904Y-28038571D02*
X122609523Y-27943333D01*
X122609523Y-27943333D02*
X122609523Y-27848095D01*
X122609523Y-27848095D02*
X122561904Y-27752857D01*
X122561904Y-27752857D02*
X122514285Y-27705238D01*
X122514285Y-27705238D02*
X122419047Y-27657619D01*
X122419047Y-27657619D02*
X122180952Y-27657619D01*
X122180952Y-27657619D02*
X122038095Y-27705238D01*
X121038095Y-28562380D02*
X121085714Y-28610000D01*
X121085714Y-28610000D02*
X121228571Y-28657619D01*
X121228571Y-28657619D02*
X121323809Y-28657619D01*
X121323809Y-28657619D02*
X121466666Y-28610000D01*
X121466666Y-28610000D02*
X121561904Y-28514761D01*
X121561904Y-28514761D02*
X121609523Y-28419523D01*
X121609523Y-28419523D02*
X121657142Y-28229047D01*
X121657142Y-28229047D02*
X121657142Y-28086190D01*
X121657142Y-28086190D02*
X121609523Y-27895714D01*
X121609523Y-27895714D02*
X121561904Y-27800476D01*
X121561904Y-27800476D02*
X121466666Y-27705238D01*
X121466666Y-27705238D02*
X121323809Y-27657619D01*
X121323809Y-27657619D02*
X121228571Y-27657619D01*
X121228571Y-27657619D02*
X121085714Y-27705238D01*
X121085714Y-27705238D02*
X121038095Y-27752857D01*
X120133333Y-28657619D02*
X120609523Y-28657619D01*
X120609523Y-28657619D02*
X120609523Y-27657619D01*
X122609523Y-30230000D02*
X122466666Y-30277619D01*
X122466666Y-30277619D02*
X122228571Y-30277619D01*
X122228571Y-30277619D02*
X122133333Y-30230000D01*
X122133333Y-30230000D02*
X122085714Y-30182380D01*
X122085714Y-30182380D02*
X122038095Y-30087142D01*
X122038095Y-30087142D02*
X122038095Y-29991904D01*
X122038095Y-29991904D02*
X122085714Y-29896666D01*
X122085714Y-29896666D02*
X122133333Y-29849047D01*
X122133333Y-29849047D02*
X122228571Y-29801428D01*
X122228571Y-29801428D02*
X122419047Y-29753809D01*
X122419047Y-29753809D02*
X122514285Y-29706190D01*
X122514285Y-29706190D02*
X122561904Y-29658571D01*
X122561904Y-29658571D02*
X122609523Y-29563333D01*
X122609523Y-29563333D02*
X122609523Y-29468095D01*
X122609523Y-29468095D02*
X122561904Y-29372857D01*
X122561904Y-29372857D02*
X122514285Y-29325238D01*
X122514285Y-29325238D02*
X122419047Y-29277619D01*
X122419047Y-29277619D02*
X122180952Y-29277619D01*
X122180952Y-29277619D02*
X122038095Y-29325238D01*
X121609523Y-30277619D02*
X121609523Y-29277619D01*
X121609523Y-29277619D02*
X121371428Y-29277619D01*
X121371428Y-29277619D02*
X121228571Y-29325238D01*
X121228571Y-29325238D02*
X121133333Y-29420476D01*
X121133333Y-29420476D02*
X121085714Y-29515714D01*
X121085714Y-29515714D02*
X121038095Y-29706190D01*
X121038095Y-29706190D02*
X121038095Y-29849047D01*
X121038095Y-29849047D02*
X121085714Y-30039523D01*
X121085714Y-30039523D02*
X121133333Y-30134761D01*
X121133333Y-30134761D02*
X121228571Y-30230000D01*
X121228571Y-30230000D02*
X121371428Y-30277619D01*
X121371428Y-30277619D02*
X121609523Y-30277619D01*
X120657142Y-29991904D02*
X120180952Y-29991904D01*
X120752380Y-30277619D02*
X120419047Y-29277619D01*
X120419047Y-29277619D02*
X120085714Y-30277619D01*
X122561904Y-31516666D02*
X121800000Y-31516666D01*
X122180952Y-31897619D02*
X122180952Y-31135714D01*
X121419047Y-30897619D02*
X120800000Y-30897619D01*
X120800000Y-30897619D02*
X121133333Y-31278571D01*
X121133333Y-31278571D02*
X120990476Y-31278571D01*
X120990476Y-31278571D02*
X120895238Y-31326190D01*
X120895238Y-31326190D02*
X120847619Y-31373809D01*
X120847619Y-31373809D02*
X120800000Y-31469047D01*
X120800000Y-31469047D02*
X120800000Y-31707142D01*
X120800000Y-31707142D02*
X120847619Y-31802380D01*
X120847619Y-31802380D02*
X120895238Y-31850000D01*
X120895238Y-31850000D02*
X120990476Y-31897619D01*
X120990476Y-31897619D02*
X121276190Y-31897619D01*
X121276190Y-31897619D02*
X121371428Y-31850000D01*
X121371428Y-31850000D02*
X121419047Y-31802380D01*
X120371428Y-31802380D02*
X120323809Y-31850000D01*
X120323809Y-31850000D02*
X120371428Y-31897619D01*
X120371428Y-31897619D02*
X120419047Y-31850000D01*
X120419047Y-31850000D02*
X120371428Y-31802380D01*
X120371428Y-31802380D02*
X120371428Y-31897619D01*
X119990476Y-30897619D02*
X119371429Y-30897619D01*
X119371429Y-30897619D02*
X119704762Y-31278571D01*
X119704762Y-31278571D02*
X119561905Y-31278571D01*
X119561905Y-31278571D02*
X119466667Y-31326190D01*
X119466667Y-31326190D02*
X119419048Y-31373809D01*
X119419048Y-31373809D02*
X119371429Y-31469047D01*
X119371429Y-31469047D02*
X119371429Y-31707142D01*
X119371429Y-31707142D02*
X119419048Y-31802380D01*
X119419048Y-31802380D02*
X119466667Y-31850000D01*
X119466667Y-31850000D02*
X119561905Y-31897619D01*
X119561905Y-31897619D02*
X119847619Y-31897619D01*
X119847619Y-31897619D02*
X119942857Y-31850000D01*
X119942857Y-31850000D02*
X119990476Y-31802380D01*
X117238095Y-75297619D02*
X117809523Y-75297619D01*
X117523809Y-75297619D02*
X117523809Y-74297619D01*
X117523809Y-74297619D02*
X117619047Y-74440476D01*
X117619047Y-74440476D02*
X117714285Y-74535714D01*
X117714285Y-74535714D02*
X117809523Y-74583333D01*
X116857142Y-74392857D02*
X116809523Y-74345238D01*
X116809523Y-74345238D02*
X116714285Y-74297619D01*
X116714285Y-74297619D02*
X116476190Y-74297619D01*
X116476190Y-74297619D02*
X116380952Y-74345238D01*
X116380952Y-74345238D02*
X116333333Y-74392857D01*
X116333333Y-74392857D02*
X116285714Y-74488095D01*
X116285714Y-74488095D02*
X116285714Y-74583333D01*
X116285714Y-74583333D02*
X116333333Y-74726190D01*
X116333333Y-74726190D02*
X116904761Y-75297619D01*
X116904761Y-75297619D02*
X116285714Y-75297619D01*
X115999999Y-74297619D02*
X115666666Y-75297619D01*
X115666666Y-75297619D02*
X115333333Y-74297619D01*
X90490476Y-47497619D02*
X90823809Y-47021428D01*
X91061904Y-47497619D02*
X91061904Y-46497619D01*
X91061904Y-46497619D02*
X90680952Y-46497619D01*
X90680952Y-46497619D02*
X90585714Y-46545238D01*
X90585714Y-46545238D02*
X90538095Y-46592857D01*
X90538095Y-46592857D02*
X90490476Y-46688095D01*
X90490476Y-46688095D02*
X90490476Y-46830952D01*
X90490476Y-46830952D02*
X90538095Y-46926190D01*
X90538095Y-46926190D02*
X90585714Y-46973809D01*
X90585714Y-46973809D02*
X90680952Y-47021428D01*
X90680952Y-47021428D02*
X91061904Y-47021428D01*
X90157142Y-46497619D02*
X89490476Y-47497619D01*
X89490476Y-46497619D02*
X90157142Y-47497619D01*
X117428571Y-78273809D02*
X117761904Y-78273809D01*
X117761904Y-78797619D02*
X117761904Y-77797619D01*
X117761904Y-77797619D02*
X117285714Y-77797619D01*
X116904761Y-78416666D02*
X116142857Y-78416666D01*
X117238095Y-92797619D02*
X117809523Y-92797619D01*
X117523809Y-92797619D02*
X117523809Y-91797619D01*
X117523809Y-91797619D02*
X117619047Y-91940476D01*
X117619047Y-91940476D02*
X117714285Y-92035714D01*
X117714285Y-92035714D02*
X117809523Y-92083333D01*
X116857142Y-91892857D02*
X116809523Y-91845238D01*
X116809523Y-91845238D02*
X116714285Y-91797619D01*
X116714285Y-91797619D02*
X116476190Y-91797619D01*
X116476190Y-91797619D02*
X116380952Y-91845238D01*
X116380952Y-91845238D02*
X116333333Y-91892857D01*
X116333333Y-91892857D02*
X116285714Y-91988095D01*
X116285714Y-91988095D02*
X116285714Y-92083333D01*
X116285714Y-92083333D02*
X116333333Y-92226190D01*
X116333333Y-92226190D02*
X116904761Y-92797619D01*
X116904761Y-92797619D02*
X116285714Y-92797619D01*
X115999999Y-91797619D02*
X115666666Y-92797619D01*
X115666666Y-92797619D02*
X115333333Y-91797619D01*
X90988095Y-96297619D02*
X91559523Y-96297619D01*
X91273809Y-96297619D02*
X91273809Y-95297619D01*
X91273809Y-95297619D02*
X91369047Y-95440476D01*
X91369047Y-95440476D02*
X91464285Y-95535714D01*
X91464285Y-95535714D02*
X91559523Y-95583333D01*
X90607142Y-95392857D02*
X90559523Y-95345238D01*
X90559523Y-95345238D02*
X90464285Y-95297619D01*
X90464285Y-95297619D02*
X90226190Y-95297619D01*
X90226190Y-95297619D02*
X90130952Y-95345238D01*
X90130952Y-95345238D02*
X90083333Y-95392857D01*
X90083333Y-95392857D02*
X90035714Y-95488095D01*
X90035714Y-95488095D02*
X90035714Y-95583333D01*
X90035714Y-95583333D02*
X90083333Y-95726190D01*
X90083333Y-95726190D02*
X90654761Y-96297619D01*
X90654761Y-96297619D02*
X90035714Y-96297619D01*
X89749999Y-95297619D02*
X89416666Y-96297619D01*
X89416666Y-96297619D02*
X89083333Y-95297619D01*
D11*
X95701428Y-67666000D02*
X95530000Y-67723142D01*
X95530000Y-67723142D02*
X95244285Y-67723142D01*
X95244285Y-67723142D02*
X95130000Y-67666000D01*
X95130000Y-67666000D02*
X95072857Y-67608857D01*
X95072857Y-67608857D02*
X95015714Y-67494571D01*
X95015714Y-67494571D02*
X95015714Y-67380285D01*
X95015714Y-67380285D02*
X95072857Y-67266000D01*
X95072857Y-67266000D02*
X95130000Y-67208857D01*
X95130000Y-67208857D02*
X95244285Y-67151714D01*
X95244285Y-67151714D02*
X95472857Y-67094571D01*
X95472857Y-67094571D02*
X95587142Y-67037428D01*
X95587142Y-67037428D02*
X95644285Y-66980285D01*
X95644285Y-66980285D02*
X95701428Y-66866000D01*
X95701428Y-66866000D02*
X95701428Y-66751714D01*
X95701428Y-66751714D02*
X95644285Y-66637428D01*
X95644285Y-66637428D02*
X95587142Y-66580285D01*
X95587142Y-66580285D02*
X95472857Y-66523142D01*
X95472857Y-66523142D02*
X95187142Y-66523142D01*
X95187142Y-66523142D02*
X95015714Y-66580285D01*
X94672857Y-66523142D02*
X93987143Y-66523142D01*
X94330000Y-67723142D02*
X94330000Y-66523142D01*
X92901428Y-67723142D02*
X93301428Y-67151714D01*
X93587142Y-67723142D02*
X93587142Y-66523142D01*
X93587142Y-66523142D02*
X93129999Y-66523142D01*
X93129999Y-66523142D02*
X93015714Y-66580285D01*
X93015714Y-66580285D02*
X92958571Y-66637428D01*
X92958571Y-66637428D02*
X92901428Y-66751714D01*
X92901428Y-66751714D02*
X92901428Y-66923142D01*
X92901428Y-66923142D02*
X92958571Y-67037428D01*
X92958571Y-67037428D02*
X93015714Y-67094571D01*
X93015714Y-67094571D02*
X93129999Y-67151714D01*
X93129999Y-67151714D02*
X93587142Y-67151714D01*
X92387142Y-67723142D02*
X92387142Y-66523142D01*
X91929999Y-66523142D02*
X91129999Y-67723142D01*
X91129999Y-66523142D02*
X91929999Y-67723142D01*
X89929999Y-66523142D02*
X89529999Y-67723142D01*
X89529999Y-67723142D02*
X89129999Y-66523142D01*
X88787142Y-66637428D02*
X88729999Y-66580285D01*
X88729999Y-66580285D02*
X88615714Y-66523142D01*
X88615714Y-66523142D02*
X88329999Y-66523142D01*
X88329999Y-66523142D02*
X88215714Y-66580285D01*
X88215714Y-66580285D02*
X88158571Y-66637428D01*
X88158571Y-66637428D02*
X88101428Y-66751714D01*
X88101428Y-66751714D02*
X88101428Y-66866000D01*
X88101428Y-66866000D02*
X88158571Y-67037428D01*
X88158571Y-67037428D02*
X88844285Y-67723142D01*
X88844285Y-67723142D02*
X88101428Y-67723142D01*
X87587142Y-67608857D02*
X87529999Y-67666000D01*
X87529999Y-67666000D02*
X87587142Y-67723142D01*
X87587142Y-67723142D02*
X87644285Y-67666000D01*
X87644285Y-67666000D02*
X87587142Y-67608857D01*
X87587142Y-67608857D02*
X87587142Y-67723142D01*
X86787142Y-66523142D02*
X86672856Y-66523142D01*
X86672856Y-66523142D02*
X86558570Y-66580285D01*
X86558570Y-66580285D02*
X86501428Y-66637428D01*
X86501428Y-66637428D02*
X86444285Y-66751714D01*
X86444285Y-66751714D02*
X86387142Y-66980285D01*
X86387142Y-66980285D02*
X86387142Y-67266000D01*
X86387142Y-67266000D02*
X86444285Y-67494571D01*
X86444285Y-67494571D02*
X86501428Y-67608857D01*
X86501428Y-67608857D02*
X86558570Y-67666000D01*
X86558570Y-67666000D02*
X86672856Y-67723142D01*
X86672856Y-67723142D02*
X86787142Y-67723142D01*
X86787142Y-67723142D02*
X86901428Y-67666000D01*
X86901428Y-67666000D02*
X86958570Y-67608857D01*
X86958570Y-67608857D02*
X87015713Y-67494571D01*
X87015713Y-67494571D02*
X87072856Y-67266000D01*
X87072856Y-67266000D02*
X87072856Y-66980285D01*
X87072856Y-66980285D02*
X87015713Y-66751714D01*
X87015713Y-66751714D02*
X86958570Y-66637428D01*
X86958570Y-66637428D02*
X86901428Y-66580285D01*
X86901428Y-66580285D02*
X86787142Y-66523142D01*
D10*
X121661904Y-41997619D02*
X121661904Y-42807142D01*
X121661904Y-42807142D02*
X121614285Y-42902380D01*
X121614285Y-42902380D02*
X121566666Y-42950000D01*
X121566666Y-42950000D02*
X121471428Y-42997619D01*
X121471428Y-42997619D02*
X121280952Y-42997619D01*
X121280952Y-42997619D02*
X121185714Y-42950000D01*
X121185714Y-42950000D02*
X121138095Y-42902380D01*
X121138095Y-42902380D02*
X121090476Y-42807142D01*
X121090476Y-42807142D02*
X121090476Y-41997619D01*
X120661904Y-42950000D02*
X120519047Y-42997619D01*
X120519047Y-42997619D02*
X120280952Y-42997619D01*
X120280952Y-42997619D02*
X120185714Y-42950000D01*
X120185714Y-42950000D02*
X120138095Y-42902380D01*
X120138095Y-42902380D02*
X120090476Y-42807142D01*
X120090476Y-42807142D02*
X120090476Y-42711904D01*
X120090476Y-42711904D02*
X120138095Y-42616666D01*
X120138095Y-42616666D02*
X120185714Y-42569047D01*
X120185714Y-42569047D02*
X120280952Y-42521428D01*
X120280952Y-42521428D02*
X120471428Y-42473809D01*
X120471428Y-42473809D02*
X120566666Y-42426190D01*
X120566666Y-42426190D02*
X120614285Y-42378571D01*
X120614285Y-42378571D02*
X120661904Y-42283333D01*
X120661904Y-42283333D02*
X120661904Y-42188095D01*
X120661904Y-42188095D02*
X120614285Y-42092857D01*
X120614285Y-42092857D02*
X120566666Y-42045238D01*
X120566666Y-42045238D02*
X120471428Y-41997619D01*
X120471428Y-41997619D02*
X120233333Y-41997619D01*
X120233333Y-41997619D02*
X120090476Y-42045238D01*
X119328571Y-42473809D02*
X119185714Y-42521428D01*
X119185714Y-42521428D02*
X119138095Y-42569047D01*
X119138095Y-42569047D02*
X119090476Y-42664285D01*
X119090476Y-42664285D02*
X119090476Y-42807142D01*
X119090476Y-42807142D02*
X119138095Y-42902380D01*
X119138095Y-42902380D02*
X119185714Y-42950000D01*
X119185714Y-42950000D02*
X119280952Y-42997619D01*
X119280952Y-42997619D02*
X119661904Y-42997619D01*
X119661904Y-42997619D02*
X119661904Y-41997619D01*
X119661904Y-41997619D02*
X119328571Y-41997619D01*
X119328571Y-41997619D02*
X119233333Y-42045238D01*
X119233333Y-42045238D02*
X119185714Y-42092857D01*
X119185714Y-42092857D02*
X119138095Y-42188095D01*
X119138095Y-42188095D02*
X119138095Y-42283333D01*
X119138095Y-42283333D02*
X119185714Y-42378571D01*
X119185714Y-42378571D02*
X119233333Y-42426190D01*
X119233333Y-42426190D02*
X119328571Y-42473809D01*
X119328571Y-42473809D02*
X119661904Y-42473809D01*
X117947618Y-42092857D02*
X117899999Y-42045238D01*
X117899999Y-42045238D02*
X117804761Y-41997619D01*
X117804761Y-41997619D02*
X117566666Y-41997619D01*
X117566666Y-41997619D02*
X117471428Y-42045238D01*
X117471428Y-42045238D02*
X117423809Y-42092857D01*
X117423809Y-42092857D02*
X117376190Y-42188095D01*
X117376190Y-42188095D02*
X117376190Y-42283333D01*
X117376190Y-42283333D02*
X117423809Y-42426190D01*
X117423809Y-42426190D02*
X117995237Y-42997619D01*
X117995237Y-42997619D02*
X117376190Y-42997619D01*
X116947618Y-42902380D02*
X116899999Y-42950000D01*
X116899999Y-42950000D02*
X116947618Y-42997619D01*
X116947618Y-42997619D02*
X116995237Y-42950000D01*
X116995237Y-42950000D02*
X116947618Y-42902380D01*
X116947618Y-42902380D02*
X116947618Y-42997619D01*
X116280952Y-41997619D02*
X116185714Y-41997619D01*
X116185714Y-41997619D02*
X116090476Y-42045238D01*
X116090476Y-42045238D02*
X116042857Y-42092857D01*
X116042857Y-42092857D02*
X115995238Y-42188095D01*
X115995238Y-42188095D02*
X115947619Y-42378571D01*
X115947619Y-42378571D02*
X115947619Y-42616666D01*
X115947619Y-42616666D02*
X115995238Y-42807142D01*
X115995238Y-42807142D02*
X116042857Y-42902380D01*
X116042857Y-42902380D02*
X116090476Y-42950000D01*
X116090476Y-42950000D02*
X116185714Y-42997619D01*
X116185714Y-42997619D02*
X116280952Y-42997619D01*
X116280952Y-42997619D02*
X116376190Y-42950000D01*
X116376190Y-42950000D02*
X116423809Y-42902380D01*
X116423809Y-42902380D02*
X116471428Y-42807142D01*
X116471428Y-42807142D02*
X116519047Y-42616666D01*
X116519047Y-42616666D02*
X116519047Y-42378571D01*
X116519047Y-42378571D02*
X116471428Y-42188095D01*
X116471428Y-42188095D02*
X116423809Y-42092857D01*
X116423809Y-42092857D02*
X116376190Y-42045238D01*
X116376190Y-42045238D02*
X116280952Y-41997619D01*
X117428571Y-88773809D02*
X117285714Y-88821428D01*
X117285714Y-88821428D02*
X117238095Y-88869047D01*
X117238095Y-88869047D02*
X117190476Y-88964285D01*
X117190476Y-88964285D02*
X117190476Y-89107142D01*
X117190476Y-89107142D02*
X117238095Y-89202380D01*
X117238095Y-89202380D02*
X117285714Y-89250000D01*
X117285714Y-89250000D02*
X117380952Y-89297619D01*
X117380952Y-89297619D02*
X117761904Y-89297619D01*
X117761904Y-89297619D02*
X117761904Y-88297619D01*
X117761904Y-88297619D02*
X117428571Y-88297619D01*
X117428571Y-88297619D02*
X117333333Y-88345238D01*
X117333333Y-88345238D02*
X117285714Y-88392857D01*
X117285714Y-88392857D02*
X117238095Y-88488095D01*
X117238095Y-88488095D02*
X117238095Y-88583333D01*
X117238095Y-88583333D02*
X117285714Y-88678571D01*
X117285714Y-88678571D02*
X117333333Y-88726190D01*
X117333333Y-88726190D02*
X117428571Y-88773809D01*
X117428571Y-88773809D02*
X117761904Y-88773809D01*
X116333333Y-89297619D02*
X116333333Y-88773809D01*
X116333333Y-88773809D02*
X116380952Y-88678571D01*
X116380952Y-88678571D02*
X116476190Y-88630952D01*
X116476190Y-88630952D02*
X116666666Y-88630952D01*
X116666666Y-88630952D02*
X116761904Y-88678571D01*
X116333333Y-89250000D02*
X116428571Y-89297619D01*
X116428571Y-89297619D02*
X116666666Y-89297619D01*
X116666666Y-89297619D02*
X116761904Y-89250000D01*
X116761904Y-89250000D02*
X116809523Y-89154761D01*
X116809523Y-89154761D02*
X116809523Y-89059523D01*
X116809523Y-89059523D02*
X116761904Y-88964285D01*
X116761904Y-88964285D02*
X116666666Y-88916666D01*
X116666666Y-88916666D02*
X116428571Y-88916666D01*
X116428571Y-88916666D02*
X116333333Y-88869047D01*
X115999999Y-88630952D02*
X115619047Y-88630952D01*
X115857142Y-88297619D02*
X115857142Y-89154761D01*
X115857142Y-89154761D02*
X115809523Y-89250000D01*
X115809523Y-89250000D02*
X115714285Y-89297619D01*
X115714285Y-89297619D02*
X115619047Y-89297619D01*
X115428570Y-88630952D02*
X115047618Y-88630952D01*
X115285713Y-88297619D02*
X115285713Y-89154761D01*
X115285713Y-89154761D02*
X115238094Y-89250000D01*
X115238094Y-89250000D02*
X115142856Y-89297619D01*
X115142856Y-89297619D02*
X115047618Y-89297619D01*
X115988095Y-54625238D02*
X116083333Y-54577619D01*
X116083333Y-54577619D02*
X116226190Y-54577619D01*
X116226190Y-54577619D02*
X116369047Y-54625238D01*
X116369047Y-54625238D02*
X116464285Y-54720476D01*
X116464285Y-54720476D02*
X116511904Y-54815714D01*
X116511904Y-54815714D02*
X116559523Y-55006190D01*
X116559523Y-55006190D02*
X116559523Y-55149047D01*
X116559523Y-55149047D02*
X116511904Y-55339523D01*
X116511904Y-55339523D02*
X116464285Y-55434761D01*
X116464285Y-55434761D02*
X116369047Y-55530000D01*
X116369047Y-55530000D02*
X116226190Y-55577619D01*
X116226190Y-55577619D02*
X116130952Y-55577619D01*
X116130952Y-55577619D02*
X115988095Y-55530000D01*
X115988095Y-55530000D02*
X115940476Y-55482380D01*
X115940476Y-55482380D02*
X115940476Y-55149047D01*
X115940476Y-55149047D02*
X116130952Y-55149047D01*
X115511904Y-54910952D02*
X115511904Y-55577619D01*
X115511904Y-55006190D02*
X115464285Y-54958571D01*
X115464285Y-54958571D02*
X115369047Y-54910952D01*
X115369047Y-54910952D02*
X115226190Y-54910952D01*
X115226190Y-54910952D02*
X115130952Y-54958571D01*
X115130952Y-54958571D02*
X115083333Y-55053809D01*
X115083333Y-55053809D02*
X115083333Y-55577619D01*
X114178571Y-55577619D02*
X114178571Y-54577619D01*
X114178571Y-55530000D02*
X114273809Y-55577619D01*
X114273809Y-55577619D02*
X114464285Y-55577619D01*
X114464285Y-55577619D02*
X114559523Y-55530000D01*
X114559523Y-55530000D02*
X114607142Y-55482380D01*
X114607142Y-55482380D02*
X114654761Y-55387142D01*
X114654761Y-55387142D02*
X114654761Y-55101428D01*
X114654761Y-55101428D02*
X114607142Y-55006190D01*
X114607142Y-55006190D02*
X114559523Y-54958571D01*
X114559523Y-54958571D02*
X114464285Y-54910952D01*
X114464285Y-54910952D02*
X114273809Y-54910952D01*
X114273809Y-54910952D02*
X114178571Y-54958571D01*
X94944761Y-43967619D02*
X94373333Y-43967619D01*
X94659047Y-44967619D02*
X94659047Y-43967619D01*
X94135237Y-43967619D02*
X93468571Y-44967619D01*
X93468571Y-43967619D02*
X94135237Y-44967619D01*
X90988095Y-75297619D02*
X91559523Y-75297619D01*
X91273809Y-75297619D02*
X91273809Y-74297619D01*
X91273809Y-74297619D02*
X91369047Y-74440476D01*
X91369047Y-74440476D02*
X91464285Y-74535714D01*
X91464285Y-74535714D02*
X91559523Y-74583333D01*
X90607142Y-74392857D02*
X90559523Y-74345238D01*
X90559523Y-74345238D02*
X90464285Y-74297619D01*
X90464285Y-74297619D02*
X90226190Y-74297619D01*
X90226190Y-74297619D02*
X90130952Y-74345238D01*
X90130952Y-74345238D02*
X90083333Y-74392857D01*
X90083333Y-74392857D02*
X90035714Y-74488095D01*
X90035714Y-74488095D02*
X90035714Y-74583333D01*
X90035714Y-74583333D02*
X90083333Y-74726190D01*
X90083333Y-74726190D02*
X90654761Y-75297619D01*
X90654761Y-75297619D02*
X90035714Y-75297619D01*
X89749999Y-74297619D02*
X89416666Y-75297619D01*
X89416666Y-75297619D02*
X89083333Y-74297619D01*
X91559523Y-92511904D02*
X91083333Y-92511904D01*
X91654761Y-92797619D02*
X91321428Y-91797619D01*
X91321428Y-91797619D02*
X90988095Y-92797619D01*
X90654761Y-92416666D02*
X89892857Y-92416666D01*
X115208095Y-50945238D02*
X115303333Y-50897619D01*
X115303333Y-50897619D02*
X115446190Y-50897619D01*
X115446190Y-50897619D02*
X115589047Y-50945238D01*
X115589047Y-50945238D02*
X115684285Y-51040476D01*
X115684285Y-51040476D02*
X115731904Y-51135714D01*
X115731904Y-51135714D02*
X115779523Y-51326190D01*
X115779523Y-51326190D02*
X115779523Y-51469047D01*
X115779523Y-51469047D02*
X115731904Y-51659523D01*
X115731904Y-51659523D02*
X115684285Y-51754761D01*
X115684285Y-51754761D02*
X115589047Y-51850000D01*
X115589047Y-51850000D02*
X115446190Y-51897619D01*
X115446190Y-51897619D02*
X115350952Y-51897619D01*
X115350952Y-51897619D02*
X115208095Y-51850000D01*
X115208095Y-51850000D02*
X115160476Y-51802380D01*
X115160476Y-51802380D02*
X115160476Y-51469047D01*
X115160476Y-51469047D02*
X115350952Y-51469047D01*
X114731904Y-51897619D02*
X114731904Y-50897619D01*
X114731904Y-50897619D02*
X114160476Y-51897619D01*
X114160476Y-51897619D02*
X114160476Y-50897619D01*
X113684285Y-51897619D02*
X113684285Y-50897619D01*
X113684285Y-50897619D02*
X113446190Y-50897619D01*
X113446190Y-50897619D02*
X113303333Y-50945238D01*
X113303333Y-50945238D02*
X113208095Y-51040476D01*
X113208095Y-51040476D02*
X113160476Y-51135714D01*
X113160476Y-51135714D02*
X113112857Y-51326190D01*
X113112857Y-51326190D02*
X113112857Y-51469047D01*
X113112857Y-51469047D02*
X113160476Y-51659523D01*
X113160476Y-51659523D02*
X113208095Y-51754761D01*
X113208095Y-51754761D02*
X113303333Y-51850000D01*
X113303333Y-51850000D02*
X113446190Y-51897619D01*
X113446190Y-51897619D02*
X113684285Y-51897619D01*
X117428571Y-85273809D02*
X117285714Y-85321428D01*
X117285714Y-85321428D02*
X117238095Y-85369047D01*
X117238095Y-85369047D02*
X117190476Y-85464285D01*
X117190476Y-85464285D02*
X117190476Y-85607142D01*
X117190476Y-85607142D02*
X117238095Y-85702380D01*
X117238095Y-85702380D02*
X117285714Y-85750000D01*
X117285714Y-85750000D02*
X117380952Y-85797619D01*
X117380952Y-85797619D02*
X117761904Y-85797619D01*
X117761904Y-85797619D02*
X117761904Y-84797619D01*
X117761904Y-84797619D02*
X117428571Y-84797619D01*
X117428571Y-84797619D02*
X117333333Y-84845238D01*
X117333333Y-84845238D02*
X117285714Y-84892857D01*
X117285714Y-84892857D02*
X117238095Y-84988095D01*
X117238095Y-84988095D02*
X117238095Y-85083333D01*
X117238095Y-85083333D02*
X117285714Y-85178571D01*
X117285714Y-85178571D02*
X117333333Y-85226190D01*
X117333333Y-85226190D02*
X117428571Y-85273809D01*
X117428571Y-85273809D02*
X117761904Y-85273809D01*
X116333333Y-85797619D02*
X116333333Y-85273809D01*
X116333333Y-85273809D02*
X116380952Y-85178571D01*
X116380952Y-85178571D02*
X116476190Y-85130952D01*
X116476190Y-85130952D02*
X116666666Y-85130952D01*
X116666666Y-85130952D02*
X116761904Y-85178571D01*
X116333333Y-85750000D02*
X116428571Y-85797619D01*
X116428571Y-85797619D02*
X116666666Y-85797619D01*
X116666666Y-85797619D02*
X116761904Y-85750000D01*
X116761904Y-85750000D02*
X116809523Y-85654761D01*
X116809523Y-85654761D02*
X116809523Y-85559523D01*
X116809523Y-85559523D02*
X116761904Y-85464285D01*
X116761904Y-85464285D02*
X116666666Y-85416666D01*
X116666666Y-85416666D02*
X116428571Y-85416666D01*
X116428571Y-85416666D02*
X116333333Y-85369047D01*
X115999999Y-85130952D02*
X115619047Y-85130952D01*
X115857142Y-84797619D02*
X115857142Y-85654761D01*
X115857142Y-85654761D02*
X115809523Y-85750000D01*
X115809523Y-85750000D02*
X115714285Y-85797619D01*
X115714285Y-85797619D02*
X115619047Y-85797619D01*
X115428570Y-85130952D02*
X115047618Y-85130952D01*
X115285713Y-84797619D02*
X115285713Y-85654761D01*
X115285713Y-85654761D02*
X115238094Y-85750000D01*
X115238094Y-85750000D02*
X115142856Y-85797619D01*
X115142856Y-85797619D02*
X115047618Y-85797619D01*
X93875238Y-19591904D02*
X93827619Y-19496666D01*
X93827619Y-19496666D02*
X93827619Y-19353809D01*
X93827619Y-19353809D02*
X93875238Y-19210952D01*
X93875238Y-19210952D02*
X93970476Y-19115714D01*
X93970476Y-19115714D02*
X94065714Y-19068095D01*
X94065714Y-19068095D02*
X94256190Y-19020476D01*
X94256190Y-19020476D02*
X94399047Y-19020476D01*
X94399047Y-19020476D02*
X94589523Y-19068095D01*
X94589523Y-19068095D02*
X94684761Y-19115714D01*
X94684761Y-19115714D02*
X94780000Y-19210952D01*
X94780000Y-19210952D02*
X94827619Y-19353809D01*
X94827619Y-19353809D02*
X94827619Y-19449047D01*
X94827619Y-19449047D02*
X94780000Y-19591904D01*
X94780000Y-19591904D02*
X94732380Y-19639523D01*
X94732380Y-19639523D02*
X94399047Y-19639523D01*
X94399047Y-19639523D02*
X94399047Y-19449047D01*
X94827619Y-20068095D02*
X93827619Y-20068095D01*
X93827619Y-20068095D02*
X94827619Y-20639523D01*
X94827619Y-20639523D02*
X93827619Y-20639523D01*
X94827619Y-21115714D02*
X93827619Y-21115714D01*
X93827619Y-21115714D02*
X93827619Y-21353809D01*
X93827619Y-21353809D02*
X93875238Y-21496666D01*
X93875238Y-21496666D02*
X93970476Y-21591904D01*
X93970476Y-21591904D02*
X94065714Y-21639523D01*
X94065714Y-21639523D02*
X94256190Y-21687142D01*
X94256190Y-21687142D02*
X94399047Y-21687142D01*
X94399047Y-21687142D02*
X94589523Y-21639523D01*
X94589523Y-21639523D02*
X94684761Y-21591904D01*
X94684761Y-21591904D02*
X94780000Y-21496666D01*
X94780000Y-21496666D02*
X94827619Y-21353809D01*
X94827619Y-21353809D02*
X94827619Y-21115714D01*
X96447619Y-19068095D02*
X95447619Y-19068095D01*
X95447619Y-19068095D02*
X95447619Y-19306190D01*
X95447619Y-19306190D02*
X95495238Y-19449047D01*
X95495238Y-19449047D02*
X95590476Y-19544285D01*
X95590476Y-19544285D02*
X95685714Y-19591904D01*
X95685714Y-19591904D02*
X95876190Y-19639523D01*
X95876190Y-19639523D02*
X96019047Y-19639523D01*
X96019047Y-19639523D02*
X96209523Y-19591904D01*
X96209523Y-19591904D02*
X96304761Y-19544285D01*
X96304761Y-19544285D02*
X96400000Y-19449047D01*
X96400000Y-19449047D02*
X96447619Y-19306190D01*
X96447619Y-19306190D02*
X96447619Y-19068095D01*
X96447619Y-20068095D02*
X95447619Y-20068095D01*
X95447619Y-20734761D02*
X95447619Y-20925237D01*
X95447619Y-20925237D02*
X95495238Y-21020475D01*
X95495238Y-21020475D02*
X95590476Y-21115713D01*
X95590476Y-21115713D02*
X95780952Y-21163332D01*
X95780952Y-21163332D02*
X96114285Y-21163332D01*
X96114285Y-21163332D02*
X96304761Y-21115713D01*
X96304761Y-21115713D02*
X96400000Y-21020475D01*
X96400000Y-21020475D02*
X96447619Y-20925237D01*
X96447619Y-20925237D02*
X96447619Y-20734761D01*
X96447619Y-20734761D02*
X96400000Y-20639523D01*
X96400000Y-20639523D02*
X96304761Y-20544285D01*
X96304761Y-20544285D02*
X96114285Y-20496666D01*
X96114285Y-20496666D02*
X95780952Y-20496666D01*
X95780952Y-20496666D02*
X95590476Y-20544285D01*
X95590476Y-20544285D02*
X95495238Y-20639523D01*
X95495238Y-20639523D02*
X95447619Y-20734761D01*
X97972380Y-19639523D02*
X98020000Y-19591904D01*
X98020000Y-19591904D02*
X98067619Y-19449047D01*
X98067619Y-19449047D02*
X98067619Y-19353809D01*
X98067619Y-19353809D02*
X98020000Y-19210952D01*
X98020000Y-19210952D02*
X97924761Y-19115714D01*
X97924761Y-19115714D02*
X97829523Y-19068095D01*
X97829523Y-19068095D02*
X97639047Y-19020476D01*
X97639047Y-19020476D02*
X97496190Y-19020476D01*
X97496190Y-19020476D02*
X97305714Y-19068095D01*
X97305714Y-19068095D02*
X97210476Y-19115714D01*
X97210476Y-19115714D02*
X97115238Y-19210952D01*
X97115238Y-19210952D02*
X97067619Y-19353809D01*
X97067619Y-19353809D02*
X97067619Y-19449047D01*
X97067619Y-19449047D02*
X97115238Y-19591904D01*
X97115238Y-19591904D02*
X97162857Y-19639523D01*
X98067619Y-20544285D02*
X98067619Y-20068095D01*
X98067619Y-20068095D02*
X97067619Y-20068095D01*
X98067619Y-20877619D02*
X97067619Y-20877619D01*
X98067619Y-21449047D02*
X97496190Y-21020476D01*
X97067619Y-21449047D02*
X97639047Y-20877619D01*
X99687619Y-19639523D02*
X99211428Y-19306190D01*
X99687619Y-19068095D02*
X98687619Y-19068095D01*
X98687619Y-19068095D02*
X98687619Y-19449047D01*
X98687619Y-19449047D02*
X98735238Y-19544285D01*
X98735238Y-19544285D02*
X98782857Y-19591904D01*
X98782857Y-19591904D02*
X98878095Y-19639523D01*
X98878095Y-19639523D02*
X99020952Y-19639523D01*
X99020952Y-19639523D02*
X99116190Y-19591904D01*
X99116190Y-19591904D02*
X99163809Y-19544285D01*
X99163809Y-19544285D02*
X99211428Y-19449047D01*
X99211428Y-19449047D02*
X99211428Y-19068095D01*
X99640000Y-20020476D02*
X99687619Y-20163333D01*
X99687619Y-20163333D02*
X99687619Y-20401428D01*
X99687619Y-20401428D02*
X99640000Y-20496666D01*
X99640000Y-20496666D02*
X99592380Y-20544285D01*
X99592380Y-20544285D02*
X99497142Y-20591904D01*
X99497142Y-20591904D02*
X99401904Y-20591904D01*
X99401904Y-20591904D02*
X99306666Y-20544285D01*
X99306666Y-20544285D02*
X99259047Y-20496666D01*
X99259047Y-20496666D02*
X99211428Y-20401428D01*
X99211428Y-20401428D02*
X99163809Y-20210952D01*
X99163809Y-20210952D02*
X99116190Y-20115714D01*
X99116190Y-20115714D02*
X99068571Y-20068095D01*
X99068571Y-20068095D02*
X98973333Y-20020476D01*
X98973333Y-20020476D02*
X98878095Y-20020476D01*
X98878095Y-20020476D02*
X98782857Y-20068095D01*
X98782857Y-20068095D02*
X98735238Y-20115714D01*
X98735238Y-20115714D02*
X98687619Y-20210952D01*
X98687619Y-20210952D02*
X98687619Y-20449047D01*
X98687619Y-20449047D02*
X98735238Y-20591904D01*
X98687619Y-20877619D02*
X98687619Y-21449047D01*
X99687619Y-21163333D02*
X98687619Y-21163333D01*
X100926666Y-19068095D02*
X100926666Y-19830000D01*
X101307619Y-19449047D02*
X100545714Y-19449047D01*
X100307619Y-20210952D02*
X100307619Y-20829999D01*
X100307619Y-20829999D02*
X100688571Y-20496666D01*
X100688571Y-20496666D02*
X100688571Y-20639523D01*
X100688571Y-20639523D02*
X100736190Y-20734761D01*
X100736190Y-20734761D02*
X100783809Y-20782380D01*
X100783809Y-20782380D02*
X100879047Y-20829999D01*
X100879047Y-20829999D02*
X101117142Y-20829999D01*
X101117142Y-20829999D02*
X101212380Y-20782380D01*
X101212380Y-20782380D02*
X101260000Y-20734761D01*
X101260000Y-20734761D02*
X101307619Y-20639523D01*
X101307619Y-20639523D02*
X101307619Y-20353809D01*
X101307619Y-20353809D02*
X101260000Y-20258571D01*
X101260000Y-20258571D02*
X101212380Y-20210952D01*
X101212380Y-21258571D02*
X101260000Y-21306190D01*
X101260000Y-21306190D02*
X101307619Y-21258571D01*
X101307619Y-21258571D02*
X101260000Y-21210952D01*
X101260000Y-21210952D02*
X101212380Y-21258571D01*
X101212380Y-21258571D02*
X101307619Y-21258571D01*
X100307619Y-21639523D02*
X100307619Y-22258570D01*
X100307619Y-22258570D02*
X100688571Y-21925237D01*
X100688571Y-21925237D02*
X100688571Y-22068094D01*
X100688571Y-22068094D02*
X100736190Y-22163332D01*
X100736190Y-22163332D02*
X100783809Y-22210951D01*
X100783809Y-22210951D02*
X100879047Y-22258570D01*
X100879047Y-22258570D02*
X101117142Y-22258570D01*
X101117142Y-22258570D02*
X101212380Y-22210951D01*
X101212380Y-22210951D02*
X101260000Y-22163332D01*
X101260000Y-22163332D02*
X101307619Y-22068094D01*
X101307619Y-22068094D02*
X101307619Y-21782380D01*
X101307619Y-21782380D02*
X101260000Y-21687142D01*
X101260000Y-21687142D02*
X101212380Y-21639523D01*
D12*
%TO.C,TP10*%
X93300000Y-44020000D02*
G75*
G03*
X93300000Y-44020000I-950000J0D01*
G01*
%TO.C,TP15*%
X92550000Y-55210000D02*
G75*
G03*
X92550000Y-55210000I-950000J0D01*
G01*
%TO.C,J4*%
X120160000Y-55840000D02*
X120160000Y-61960000D01*
X113940000Y-55840000D02*
X113940000Y-56760000D01*
X112340000Y-55840000D02*
X120160000Y-55840000D01*
X117900000Y-56600000D02*
X117900000Y-57600000D01*
X116300000Y-56600000D02*
X117900000Y-56600000D01*
X113940000Y-56760000D02*
X112340000Y-56760000D01*
X112340000Y-56760000D02*
X112340000Y-55840000D01*
X113940000Y-57040000D02*
X113940000Y-56760000D01*
X113940000Y-57040000D02*
X112725000Y-57040000D01*
X117900000Y-57100000D02*
X120160000Y-57100000D01*
X117900000Y-57600000D02*
X120160000Y-57600000D01*
X117900000Y-57600000D02*
X116300000Y-57600000D01*
X116300000Y-57600000D02*
X116300000Y-56600000D01*
X120160000Y-58400000D02*
X115800000Y-58400000D01*
X115800000Y-58400000D02*
X115800000Y-59400000D01*
X115800000Y-59400000D02*
X120160000Y-59400000D01*
X117900000Y-60200000D02*
X116300000Y-60200000D01*
X116300000Y-60200000D02*
X116300000Y-61200000D01*
X113940000Y-61040000D02*
X113940000Y-60760000D01*
X112340000Y-61040000D02*
X113940000Y-61040000D01*
X117900000Y-61200000D02*
X117900000Y-60200000D01*
X116300000Y-61200000D02*
X117900000Y-61200000D01*
X120160000Y-61960000D02*
X112340000Y-61960000D01*
X113940000Y-61960000D02*
X113940000Y-61040000D01*
X112340000Y-61960000D02*
X112340000Y-61040000D01*
%TO.C,TP5*%
X98550000Y-28020000D02*
G75*
G03*
X98550000Y-28020000I-950000J0D01*
G01*
%TO.C,TP4*%
X97700000Y-30420000D02*
G75*
G03*
X97700000Y-30420000I-950000J0D01*
G01*
%TO.C,TP1*%
X111250000Y-56500000D02*
G75*
G03*
X111250000Y-56500000I-950000J0D01*
G01*
%TO.C,TP11*%
X93300000Y-46970000D02*
G75*
G03*
X93300000Y-46970000I-950000J0D01*
G01*
%TO.C,TP6*%
X88550000Y-25450000D02*
G75*
G03*
X88550000Y-25450000I-950000J0D01*
G01*
%TO.C,TP7*%
X100850000Y-25920000D02*
G75*
G03*
X100850000Y-25920000I-950000J0D01*
G01*
D13*
%TO.C,J2*%
X92200000Y-68920000D02*
X95200000Y-68920000D01*
X92200000Y-98420000D02*
X92200000Y-68920000D01*
X95700000Y-98420000D02*
X92200000Y-98420000D01*
X103200000Y-92420000D02*
X103200000Y-74920000D01*
D12*
%TO.C,U11*%
X111660000Y-53092500D02*
X108600000Y-53092500D01*
X111660000Y-50032500D02*
X111660000Y-53092500D01*
X111550000Y-37372500D02*
X108600000Y-37372500D01*
X99000000Y-53092500D02*
X95940000Y-53092500D01*
X99000000Y-37372500D02*
X95940000Y-37372500D01*
X95940000Y-50032500D02*
X95940000Y-53092500D01*
X95940000Y-37372500D02*
X95940000Y-40432500D01*
%TO.C,TP9*%
X91650000Y-26820000D02*
G75*
G03*
X91650000Y-26820000I-950000J0D01*
G01*
%TO.C,BZ1*%
X102000001Y-68490000D02*
G75*
G03*
X105000000Y-68490000I1499999J6400000D01*
G01*
X109730000Y-62090000D02*
G75*
G03*
X109730000Y-62090000I-6230000J0D01*
G01*
%TO.C,G\u002A\u002A\u002A*%
G36*
X92033622Y-60085099D02*
G01*
X92073866Y-60109275D01*
X92102144Y-60146233D01*
X92103062Y-60148229D01*
X92107937Y-60162292D01*
X92111450Y-60181162D01*
X92113686Y-60207562D01*
X92114733Y-60244215D01*
X92114678Y-60293842D01*
X92113606Y-60359165D01*
X92111606Y-60442908D01*
X92109169Y-60616160D01*
X92118407Y-60992807D01*
X92147678Y-61363092D01*
X92196933Y-61726835D01*
X92266124Y-62083854D01*
X92355202Y-62433969D01*
X92464117Y-62777001D01*
X92592821Y-63112768D01*
X92741265Y-63441091D01*
X92909399Y-63761789D01*
X93097176Y-64074681D01*
X93121901Y-64113855D01*
X93152092Y-64163217D01*
X93176874Y-64205509D01*
X93194185Y-64237189D01*
X93201962Y-64254713D01*
X93204325Y-64274705D01*
X93196726Y-64317358D01*
X93175873Y-64358159D01*
X93145188Y-64389017D01*
X93137312Y-64393893D01*
X93090912Y-64410332D01*
X93041611Y-64411367D01*
X92997635Y-64396576D01*
X92994609Y-64394446D01*
X92976286Y-64375818D01*
X92950483Y-64344040D01*
X92920194Y-64302954D01*
X92888416Y-64256406D01*
X92842392Y-64185306D01*
X92655097Y-63872169D01*
X92486809Y-63549818D01*
X92337611Y-63218486D01*
X92207587Y-62878405D01*
X92096819Y-62529807D01*
X92005390Y-62172925D01*
X91933384Y-61807992D01*
X91880884Y-61435239D01*
X91879125Y-61419629D01*
X91867079Y-61304892D01*
X91857508Y-61196465D01*
X91850184Y-61089775D01*
X91844879Y-60980249D01*
X91841367Y-60863315D01*
X91839420Y-60734398D01*
X91838811Y-60588925D01*
X91838834Y-60527294D01*
X91839135Y-60429920D01*
X91839987Y-60350415D01*
X91841645Y-60286655D01*
X91844366Y-60236512D01*
X91848404Y-60197863D01*
X91854016Y-60168583D01*
X91861457Y-60146546D01*
X91870983Y-60129626D01*
X91882850Y-60115700D01*
X91897312Y-60102641D01*
X91898665Y-60101521D01*
X91940264Y-60079997D01*
X91987169Y-60074931D01*
X92033622Y-60085099D01*
G37*
G36*
X89532470Y-57950948D02*
G01*
X89637549Y-57978315D01*
X89740153Y-58021696D01*
X89836834Y-58080356D01*
X89858198Y-58096375D01*
X89920198Y-58150070D01*
X89982165Y-58212814D01*
X90037972Y-58278117D01*
X90081491Y-58339489D01*
X90083759Y-58343149D01*
X90103698Y-58374136D01*
X90119114Y-58396059D01*
X90126829Y-58404377D01*
X90127486Y-58404236D01*
X90140720Y-58397432D01*
X90166177Y-58382451D01*
X90199041Y-58362111D01*
X90205894Y-58357815D01*
X90294916Y-58306548D01*
X90393704Y-58256624D01*
X90493629Y-58212163D01*
X90586064Y-58177286D01*
X90674248Y-58150117D01*
X90765299Y-58128664D01*
X90855143Y-58115728D01*
X90950993Y-58110308D01*
X91060059Y-58111401D01*
X91084134Y-58112320D01*
X91188610Y-58119238D01*
X91273578Y-58130416D01*
X91340092Y-58146087D01*
X91389206Y-58166485D01*
X91421974Y-58191847D01*
X91428571Y-58199633D01*
X91454921Y-58246589D01*
X91461151Y-58294636D01*
X91447389Y-58340877D01*
X91413757Y-58382411D01*
X91392070Y-58398527D01*
X91362126Y-58410973D01*
X91325243Y-58415004D01*
X91277119Y-58410983D01*
X91213450Y-58399271D01*
X91189443Y-58395092D01*
X91136413Y-58389111D01*
X91074785Y-58385070D01*
X91012454Y-58383587D01*
X90937234Y-58385584D01*
X90826803Y-58397444D01*
X90720674Y-58421248D01*
X90612924Y-58458455D01*
X90497633Y-58510525D01*
X90485168Y-58516749D01*
X90445349Y-58537467D01*
X90406546Y-58559312D01*
X90365131Y-58584548D01*
X90317482Y-58615437D01*
X90259971Y-58654244D01*
X90188975Y-58703232D01*
X90182406Y-58707556D01*
X90134680Y-58727758D01*
X90085286Y-58732243D01*
X90041142Y-58720214D01*
X90000398Y-58694586D01*
X89945362Y-58641385D01*
X89899210Y-58570325D01*
X89848947Y-58486168D01*
X89779118Y-58397392D01*
X89701314Y-58324785D01*
X89617150Y-58269580D01*
X89528239Y-58233011D01*
X89436194Y-58216311D01*
X89406960Y-58216007D01*
X89332534Y-58227960D01*
X89256020Y-58255752D01*
X89181699Y-58296775D01*
X89113850Y-58348419D01*
X89056755Y-58408077D01*
X89014694Y-58473140D01*
X89006992Y-58489116D01*
X88984775Y-58543814D01*
X88970950Y-58597813D01*
X88964085Y-58658266D01*
X88962745Y-58732324D01*
X88963213Y-58759360D01*
X88977797Y-58972227D01*
X89011123Y-59185307D01*
X89062299Y-59394860D01*
X89130435Y-59597148D01*
X89214637Y-59788431D01*
X89240923Y-59839979D01*
X89317886Y-59977485D01*
X89401371Y-60106595D01*
X89493975Y-60230632D01*
X89598289Y-60352920D01*
X89716910Y-60476783D01*
X89852432Y-60605545D01*
X89854697Y-60607614D01*
X89897710Y-60647318D01*
X89927572Y-60676429D01*
X89946845Y-60698251D01*
X89958089Y-60716087D01*
X89963865Y-60733242D01*
X89966732Y-60753019D01*
X89967407Y-60761823D01*
X89960906Y-60815306D01*
X89936726Y-60859862D01*
X89896542Y-60892172D01*
X89889999Y-60895517D01*
X89860799Y-60907160D01*
X89832456Y-60911290D01*
X89802792Y-60906763D01*
X89769635Y-60892432D01*
X89730808Y-60867152D01*
X89684138Y-60829778D01*
X89627448Y-60779164D01*
X89558565Y-60714165D01*
X89441064Y-60595982D01*
X89279925Y-60411873D01*
X89138615Y-60220874D01*
X89016824Y-60022335D01*
X88914241Y-59815604D01*
X88830556Y-59600032D01*
X88765458Y-59374968D01*
X88718638Y-59139762D01*
X88689785Y-58893764D01*
X88687016Y-58852716D01*
X88686299Y-58700761D01*
X88701766Y-58562379D01*
X88733519Y-58437409D01*
X88781657Y-58325691D01*
X88846281Y-58227064D01*
X88927492Y-58141365D01*
X89025389Y-58068435D01*
X89140073Y-58008111D01*
X89271646Y-57960233D01*
X89328689Y-57947187D01*
X89428367Y-57940328D01*
X89532470Y-57950948D01*
G37*
G36*
X90594254Y-57215781D02*
G01*
X90708712Y-57227715D01*
X90818395Y-57247205D01*
X90928492Y-57274974D01*
X91044191Y-57311745D01*
X91089923Y-57328434D01*
X91246554Y-57399320D01*
X91397406Y-57488478D01*
X91540079Y-57593803D01*
X91672174Y-57713186D01*
X91791292Y-57844521D01*
X91895035Y-57985699D01*
X91981003Y-58134614D01*
X92031285Y-58248180D01*
X92075830Y-58391381D01*
X92099929Y-58536176D01*
X92103538Y-58682921D01*
X92086611Y-58831969D01*
X92049103Y-58983676D01*
X91990969Y-59138396D01*
X91912165Y-59296485D01*
X91812644Y-59458296D01*
X91793278Y-59486806D01*
X91744107Y-59555869D01*
X91692175Y-59623679D01*
X91635287Y-59692766D01*
X91571248Y-59765657D01*
X91497863Y-59844884D01*
X91412936Y-59932974D01*
X91314273Y-60032457D01*
X91249187Y-60097988D01*
X91137215Y-60214239D01*
X91038531Y-60321983D01*
X90950744Y-60423950D01*
X90871461Y-60522871D01*
X90798289Y-60621478D01*
X90734004Y-60714485D01*
X90609567Y-60915524D01*
X90506174Y-61115029D01*
X90423801Y-61313198D01*
X90362423Y-61510227D01*
X90322016Y-61706311D01*
X90302555Y-61901647D01*
X90304017Y-62096431D01*
X90326376Y-62290860D01*
X90369608Y-62485129D01*
X90433690Y-62679434D01*
X90518596Y-62873973D01*
X90519660Y-62876145D01*
X90584239Y-63001651D01*
X90650088Y-63115904D01*
X90722234Y-63227127D01*
X90805707Y-63343546D01*
X90960146Y-63536942D01*
X91136752Y-63732334D01*
X91333896Y-63927703D01*
X91551266Y-64122807D01*
X91788554Y-64317403D01*
X92045451Y-64511247D01*
X92321646Y-64704096D01*
X92616830Y-64895708D01*
X92930694Y-65085838D01*
X93262929Y-65274244D01*
X93299031Y-65294108D01*
X93379071Y-65338610D01*
X93442916Y-65375205D01*
X93492378Y-65405309D01*
X93529265Y-65430337D01*
X93555387Y-65451706D01*
X93572555Y-65470831D01*
X93582576Y-65489128D01*
X93587262Y-65508013D01*
X93588422Y-65528902D01*
X93582018Y-65580719D01*
X93561271Y-65625548D01*
X93527460Y-65655539D01*
X93518114Y-65660386D01*
X93496048Y-65669195D01*
X93473251Y-65672951D01*
X93447217Y-65670851D01*
X93415440Y-65662090D01*
X93375417Y-65645867D01*
X93324642Y-65621378D01*
X93260610Y-65587820D01*
X93180815Y-65544388D01*
X92878284Y-65373851D01*
X92546294Y-65175595D01*
X92235274Y-64977167D01*
X91945120Y-64778463D01*
X91675730Y-64579379D01*
X91427004Y-64379809D01*
X91198840Y-64179650D01*
X90991134Y-63978797D01*
X90803787Y-63777145D01*
X90636696Y-63574591D01*
X90489758Y-63371028D01*
X90362874Y-63166354D01*
X90255939Y-62960464D01*
X90168854Y-62753252D01*
X90101516Y-62544615D01*
X90053823Y-62334448D01*
X90044210Y-62267805D01*
X90035772Y-62173034D01*
X90030880Y-62068512D01*
X90029590Y-61960329D01*
X90031955Y-61854574D01*
X90038032Y-61757337D01*
X90047875Y-61674709D01*
X90056372Y-61624939D01*
X90104264Y-61414002D01*
X90171188Y-61205468D01*
X90257549Y-60998446D01*
X90363753Y-60792044D01*
X90490203Y-60585371D01*
X90637306Y-60377534D01*
X90641542Y-60371933D01*
X90708481Y-60286058D01*
X90779201Y-60200497D01*
X90856190Y-60112470D01*
X90941940Y-60019201D01*
X91038938Y-59917912D01*
X91149674Y-59805824D01*
X91169182Y-59786274D01*
X91273262Y-59680008D01*
X91363070Y-59584353D01*
X91440443Y-59496983D01*
X91507220Y-59415573D01*
X91565239Y-59337798D01*
X91616335Y-59261333D01*
X91662348Y-59183853D01*
X91705115Y-59103032D01*
X91749726Y-59005529D01*
X91796480Y-58869746D01*
X91822877Y-58738098D01*
X91828938Y-58609697D01*
X91814683Y-58483658D01*
X91780132Y-58359093D01*
X91725307Y-58235114D01*
X91649143Y-58109937D01*
X91553255Y-57987633D01*
X91442333Y-57874026D01*
X91319295Y-57771539D01*
X91187060Y-57682596D01*
X91048544Y-57609620D01*
X90906665Y-57555036D01*
X90828096Y-57532806D01*
X90651190Y-57498419D01*
X90464269Y-57482577D01*
X90267427Y-57485270D01*
X90060758Y-57506486D01*
X89844356Y-57546213D01*
X89618314Y-57604439D01*
X89382727Y-57681152D01*
X89137688Y-57776342D01*
X89082315Y-57799432D01*
X89024863Y-57822998D01*
X88981711Y-57839833D01*
X88949924Y-57850809D01*
X88926569Y-57856796D01*
X88908712Y-57858667D01*
X88893420Y-57857292D01*
X88877757Y-57853543D01*
X88868206Y-57850528D01*
X88825413Y-57825692D01*
X88795113Y-57788827D01*
X88779186Y-57744654D01*
X88779514Y-57697896D01*
X88797977Y-57653273D01*
X88799154Y-57651546D01*
X88813110Y-57634664D01*
X88832318Y-57618229D01*
X88859212Y-57600952D01*
X88896230Y-57581547D01*
X88945806Y-57558725D01*
X89010377Y-57531201D01*
X89092379Y-57497686D01*
X89293516Y-57420971D01*
X89513392Y-57348497D01*
X89724458Y-57291846D01*
X89928898Y-57250515D01*
X90128893Y-57223996D01*
X90326627Y-57211785D01*
X90330265Y-57211690D01*
X90469835Y-57210680D01*
X90594254Y-57215781D01*
G37*
G36*
X91462868Y-56387123D02*
G01*
X91765048Y-56405189D01*
X92064656Y-56443628D01*
X92360506Y-56502069D01*
X92651415Y-56580140D01*
X92936200Y-56677467D01*
X93213677Y-56793679D01*
X93482662Y-56928403D01*
X93741971Y-57081269D01*
X93990421Y-57251902D01*
X94040675Y-57289613D01*
X94274115Y-57480080D01*
X94494797Y-57685901D01*
X94701049Y-57905319D01*
X94891198Y-58136580D01*
X95063573Y-58377930D01*
X95080515Y-58403562D01*
X95140299Y-58495641D01*
X95191323Y-58577614D01*
X95236710Y-58654930D01*
X95279581Y-58733041D01*
X95323057Y-58817398D01*
X95370261Y-58913452D01*
X95439739Y-59064276D01*
X95552246Y-59346324D01*
X95644645Y-59632653D01*
X95717097Y-59922301D01*
X95769763Y-60214307D01*
X95802802Y-60507708D01*
X95816376Y-60801543D01*
X95810645Y-61094850D01*
X95785769Y-61386669D01*
X95741909Y-61676036D01*
X95679225Y-61961991D01*
X95597879Y-62243571D01*
X95498029Y-62519816D01*
X95379838Y-62789763D01*
X95243465Y-63052450D01*
X95089071Y-63306917D01*
X94916816Y-63552202D01*
X94726862Y-63787342D01*
X94519368Y-64011376D01*
X94458648Y-64071589D01*
X94246070Y-64266221D01*
X94024951Y-64443740D01*
X93792744Y-64605962D01*
X93546903Y-64754702D01*
X93284883Y-64891777D01*
X93113581Y-64975132D01*
X92975595Y-64887235D01*
X92948410Y-64869797D01*
X92904504Y-64841062D01*
X92869336Y-64817305D01*
X92845968Y-64800614D01*
X92837464Y-64793075D01*
X92837959Y-64792154D01*
X92850905Y-64784331D01*
X92877848Y-64771969D01*
X92914016Y-64757301D01*
X92936941Y-64748019D01*
X92982753Y-64728252D01*
X93039010Y-64703023D01*
X93100656Y-64674611D01*
X93162636Y-64645292D01*
X93313926Y-64568904D01*
X93569036Y-64421858D01*
X93811651Y-64258355D01*
X94041140Y-64079221D01*
X94256876Y-63885280D01*
X94458228Y-63677360D01*
X94644567Y-63456285D01*
X94815264Y-63222881D01*
X94969691Y-62977974D01*
X95107217Y-62722390D01*
X95227214Y-62456954D01*
X95329053Y-62182491D01*
X95412103Y-61899829D01*
X95475737Y-61609791D01*
X95516719Y-61333396D01*
X95539507Y-61042409D01*
X95541848Y-60751886D01*
X95524076Y-60462892D01*
X95486522Y-60176491D01*
X95429519Y-59893747D01*
X95353401Y-59615725D01*
X95258500Y-59343490D01*
X95145149Y-59078106D01*
X95013680Y-58820637D01*
X94864427Y-58572148D01*
X94697722Y-58333703D01*
X94513897Y-58106368D01*
X94313286Y-57891205D01*
X94237995Y-57817776D01*
X94014264Y-57619203D01*
X93778905Y-57438185D01*
X93532497Y-57275031D01*
X93275619Y-57130050D01*
X93008850Y-57003551D01*
X92732767Y-56895843D01*
X92447950Y-56807235D01*
X92154978Y-56738037D01*
X92057719Y-56719251D01*
X91959756Y-56702278D01*
X91868184Y-56689045D01*
X91778417Y-56679135D01*
X91685869Y-56672132D01*
X91585956Y-56667617D01*
X91474091Y-56665173D01*
X91345690Y-56664383D01*
X91299487Y-56664459D01*
X91147119Y-56666677D01*
X91009499Y-56672339D01*
X90881763Y-56681975D01*
X90759050Y-56696119D01*
X90636498Y-56715302D01*
X90509245Y-56740057D01*
X90372429Y-56770915D01*
X90159487Y-56827465D01*
X89879874Y-56920226D01*
X89609525Y-57031301D01*
X89349169Y-57159975D01*
X89099534Y-57305534D01*
X88861347Y-57467262D01*
X88635338Y-57644446D01*
X88422234Y-57836370D01*
X88222763Y-58042320D01*
X88037654Y-58261582D01*
X87867634Y-58493440D01*
X87713432Y-58737179D01*
X87575775Y-58992086D01*
X87455393Y-59257446D01*
X87353012Y-59532543D01*
X87269362Y-59816664D01*
X87223620Y-60014561D01*
X87174489Y-60304403D01*
X87145918Y-60595004D01*
X87137641Y-60885346D01*
X87149389Y-61174411D01*
X87180896Y-61461180D01*
X87231892Y-61744637D01*
X87302111Y-62023762D01*
X87391285Y-62297539D01*
X87499146Y-62564949D01*
X87625426Y-62824974D01*
X87769857Y-63076597D01*
X87932172Y-63318798D01*
X88112104Y-63550561D01*
X88309383Y-63770868D01*
X88352360Y-63814984D01*
X88563254Y-64014629D01*
X88784634Y-64196838D01*
X89018072Y-64362743D01*
X89265137Y-64513480D01*
X89527402Y-64650183D01*
X89568570Y-64669720D01*
X89838089Y-64784715D01*
X90112975Y-64879725D01*
X90394316Y-64955048D01*
X90683201Y-65010983D01*
X90980717Y-65047827D01*
X90996504Y-65049164D01*
X91076163Y-65053927D01*
X91170226Y-65057029D01*
X91273620Y-65058504D01*
X91381271Y-65058386D01*
X91488106Y-65056708D01*
X91589051Y-65053505D01*
X91679033Y-65048811D01*
X91752979Y-65042660D01*
X91770221Y-65040828D01*
X91823454Y-65035324D01*
X91868642Y-65030873D01*
X91901454Y-65027894D01*
X91917564Y-65026804D01*
X91924115Y-65028719D01*
X91946295Y-65039599D01*
X91979702Y-65058299D01*
X92021063Y-65082757D01*
X92067105Y-65110909D01*
X92114558Y-65140690D01*
X92160149Y-65170037D01*
X92200606Y-65196887D01*
X92232657Y-65219175D01*
X92253031Y-65234838D01*
X92258454Y-65241813D01*
X92253349Y-65243444D01*
X92230138Y-65248509D01*
X92191990Y-65255786D01*
X92142689Y-65264566D01*
X92086021Y-65274140D01*
X92063288Y-65277854D01*
X91989442Y-65289371D01*
X91919202Y-65299275D01*
X91846391Y-65308350D01*
X91764832Y-65317381D01*
X91668347Y-65327151D01*
X91659722Y-65327672D01*
X91628855Y-65328444D01*
X91581291Y-65328942D01*
X91519936Y-65329158D01*
X91447700Y-65329086D01*
X91367491Y-65328719D01*
X91282217Y-65328051D01*
X91214500Y-65327178D01*
X91059025Y-65322946D01*
X90918009Y-65315328D01*
X90786789Y-65303767D01*
X90660704Y-65287710D01*
X90535092Y-65266599D01*
X90405291Y-65239879D01*
X90266640Y-65206994D01*
X90143048Y-65174262D01*
X89851884Y-65082156D01*
X89570339Y-64971855D01*
X89299040Y-64844082D01*
X89038619Y-64699561D01*
X88789704Y-64539017D01*
X88552925Y-64363171D01*
X88328912Y-64172749D01*
X88118295Y-63968473D01*
X87921702Y-63751067D01*
X87739764Y-63521255D01*
X87573109Y-63279761D01*
X87422368Y-63027307D01*
X87288170Y-62764617D01*
X87171144Y-62492416D01*
X87071921Y-62211426D01*
X86991129Y-61922372D01*
X86929398Y-61625976D01*
X86887359Y-61322963D01*
X86879126Y-61236053D01*
X86863624Y-60929607D01*
X86869179Y-60624071D01*
X86895708Y-60320156D01*
X86943134Y-60018572D01*
X87011375Y-59720031D01*
X87100353Y-59425243D01*
X87177676Y-59214684D01*
X87299327Y-58935213D01*
X87438655Y-58666334D01*
X87594948Y-58408754D01*
X87767491Y-58163182D01*
X87955572Y-57930327D01*
X88158479Y-57710896D01*
X88375497Y-57505597D01*
X88605915Y-57315140D01*
X88849018Y-57140232D01*
X89104095Y-56981581D01*
X89370432Y-56839897D01*
X89647315Y-56715887D01*
X89934033Y-56610260D01*
X89963375Y-56600671D01*
X90213881Y-56527130D01*
X90462011Y-56469813D01*
X90712542Y-56427905D01*
X90970247Y-56400589D01*
X91239901Y-56387049D01*
X91462868Y-56387123D01*
G37*
%TO.C,TP3*%
X99100000Y-34770000D02*
G75*
G03*
X99100000Y-34770000I-950000J0D01*
G01*
%TO.C,TP2*%
X86830000Y-56610000D02*
G75*
G03*
X86830000Y-56610000I-950000J0D01*
G01*
%TO.C,TP13*%
X107000000Y-33020000D02*
G75*
G03*
X107000000Y-33020000I-950000J0D01*
G01*
%TO.C,G\u002A\u002A\u002A*%
G36*
X109777118Y-29809651D02*
G01*
X109777118Y-32815502D01*
X109522009Y-32815502D01*
X109266900Y-32815502D01*
X109266900Y-29809651D01*
X109266900Y-26803799D01*
X109522009Y-26803799D01*
X109777118Y-26803799D01*
X109777118Y-29809651D01*
G37*
G36*
X112100909Y-29815197D02*
G01*
X112106535Y-32815502D01*
X111230211Y-32815502D01*
X110353886Y-32815502D01*
X110353886Y-32571485D01*
X110353886Y-32327467D01*
X110963843Y-32327467D01*
X111573800Y-32327467D01*
X111579433Y-29571179D01*
X111585065Y-26814891D01*
X111840175Y-26814891D01*
X112095284Y-26814891D01*
X112100909Y-29815197D01*
G37*
G36*
X117496943Y-29809651D02*
G01*
X117496943Y-32815502D01*
X116587424Y-32815502D01*
X115677904Y-32815502D01*
X115677904Y-32571485D01*
X115677904Y-32327467D01*
X116332516Y-32327467D01*
X116987128Y-32327467D01*
X116981380Y-31190568D01*
X116975633Y-30053668D01*
X116648428Y-30047529D01*
X116321223Y-30041390D01*
X116321223Y-29809651D01*
X116321223Y-29577911D01*
X116648428Y-29571772D01*
X116975633Y-29565633D01*
X116975633Y-28434280D01*
X116975633Y-27302926D01*
X116339281Y-27297042D01*
X115702928Y-27291158D01*
X115695962Y-27056630D01*
X115694224Y-26981269D01*
X115693692Y-26896836D01*
X115695061Y-26837529D01*
X115698239Y-26812950D01*
X115702011Y-26812198D01*
X115740710Y-26810258D01*
X115817278Y-26808484D01*
X115926973Y-26806926D01*
X116065056Y-26805630D01*
X116226784Y-26804645D01*
X116407416Y-26804019D01*
X116602212Y-26803799D01*
X117496943Y-26803799D01*
X117496943Y-29809651D01*
G37*
G36*
X115078952Y-30992389D02*
G01*
X115078535Y-31213438D01*
X115077023Y-31447636D01*
X115074464Y-31652265D01*
X115070924Y-31824368D01*
X115066464Y-31960986D01*
X115061148Y-32059160D01*
X115055038Y-32115932D01*
X115050163Y-32140933D01*
X114991716Y-32334882D01*
X114901954Y-32497558D01*
X114779963Y-32629983D01*
X114624827Y-32733179D01*
X114435633Y-32808169D01*
X114424975Y-32811295D01*
X114349241Y-32830881D01*
X114273645Y-32844262D01*
X114187069Y-32852555D01*
X114078395Y-32856880D01*
X113936507Y-32858353D01*
X113852238Y-32858004D01*
X113676957Y-32851896D01*
X113532292Y-32836971D01*
X113408863Y-32811521D01*
X113297291Y-32773841D01*
X113188195Y-32722225D01*
X113184967Y-32720495D01*
X113035540Y-32615610D01*
X112916540Y-32478965D01*
X112828914Y-32311943D01*
X112773609Y-32115932D01*
X112772538Y-32109546D01*
X112766188Y-32044892D01*
X112760653Y-31942149D01*
X112756085Y-31806732D01*
X112752635Y-31644056D01*
X112750455Y-31459537D01*
X112749694Y-31258590D01*
X112749694Y-30530611D01*
X113004803Y-30530611D01*
X113259913Y-30530611D01*
X113259913Y-31259354D01*
X113260187Y-31406422D01*
X113261936Y-31622942D01*
X113265319Y-31796220D01*
X113270357Y-31926945D01*
X113277073Y-32015809D01*
X113285489Y-32063502D01*
X113312623Y-32129827D01*
X113385649Y-32234816D01*
X113489161Y-32311332D01*
X113527206Y-32329876D01*
X113568147Y-32343686D01*
X113618623Y-32352666D01*
X113687340Y-32357827D01*
X113783005Y-32360182D01*
X113914323Y-32360742D01*
X113988174Y-32360488D01*
X114117576Y-32357459D01*
X114214770Y-32349274D01*
X114288012Y-32333778D01*
X114345559Y-32308819D01*
X114395666Y-32272242D01*
X114446589Y-32221894D01*
X114461866Y-32205017D01*
X114486994Y-32172986D01*
X114507855Y-32137049D01*
X114524843Y-32093160D01*
X114538355Y-32037272D01*
X114548783Y-31965341D01*
X114556524Y-31873319D01*
X114561973Y-31757162D01*
X114565523Y-31612822D01*
X114567570Y-31436255D01*
X114568508Y-31223414D01*
X114568734Y-30970253D01*
X114568734Y-29998210D01*
X114823843Y-29998210D01*
X115078952Y-29998210D01*
X115078952Y-30992389D01*
G37*
G36*
X113960052Y-26760414D02*
G01*
X114173477Y-26770347D01*
X114353942Y-26796092D01*
X114508903Y-26839068D01*
X114645815Y-26900694D01*
X114671138Y-26915271D01*
X114811124Y-27024011D01*
X114928388Y-27164687D01*
X115015398Y-27328577D01*
X115023836Y-27349843D01*
X115034629Y-27379843D01*
X115043533Y-27411721D01*
X115050764Y-27449726D01*
X115056539Y-27498106D01*
X115061076Y-27561112D01*
X115064591Y-27642991D01*
X115067302Y-27747992D01*
X115069426Y-27880364D01*
X115071180Y-28044355D01*
X115072781Y-28244215D01*
X115074446Y-28484192D01*
X115081389Y-29510175D01*
X114825061Y-29510175D01*
X114568734Y-29510175D01*
X114568734Y-28593590D01*
X114568656Y-28419756D01*
X114568013Y-28200241D01*
X114566268Y-28018080D01*
X114562894Y-27869108D01*
X114557363Y-27749163D01*
X114549146Y-27654080D01*
X114537716Y-27579695D01*
X114522545Y-27521844D01*
X114503103Y-27476364D01*
X114478865Y-27439090D01*
X114449300Y-27405859D01*
X114413882Y-27372506D01*
X114380864Y-27344900D01*
X114316594Y-27300691D01*
X114264271Y-27275760D01*
X114259479Y-27274608D01*
X114208158Y-27268333D01*
X114124709Y-27263235D01*
X114019583Y-27259811D01*
X113903231Y-27258559D01*
X113799151Y-27258916D01*
X113705652Y-27261046D01*
X113639116Y-27266290D01*
X113590003Y-27275979D01*
X113548775Y-27291444D01*
X113505895Y-27314018D01*
X113471227Y-27334648D01*
X113414838Y-27375426D01*
X113369364Y-27422575D01*
X113333657Y-27480842D01*
X113306570Y-27554972D01*
X113286955Y-27649709D01*
X113273664Y-27769799D01*
X113265549Y-27919986D01*
X113261463Y-28105017D01*
X113260259Y-28329635D01*
X113259913Y-28912676D01*
X113014578Y-28906403D01*
X112769243Y-28900131D01*
X112771169Y-28239994D01*
X112771314Y-28202038D01*
X112772812Y-28030565D01*
X112775524Y-27869693D01*
X112779247Y-27726177D01*
X112783776Y-27606768D01*
X112788910Y-27518220D01*
X112794443Y-27467286D01*
X112833073Y-27323866D01*
X112905993Y-27176879D01*
X113015725Y-27038980D01*
X113078680Y-26978648D01*
X113195318Y-26895694D01*
X113330668Y-26834197D01*
X113490564Y-26792333D01*
X113680839Y-26768279D01*
X113907327Y-26760212D01*
X113960052Y-26760414D01*
G37*
G36*
X104734702Y-26761091D02*
G01*
X104978051Y-26777864D01*
X105186162Y-26819424D01*
X105361163Y-26887097D01*
X105505179Y-26982210D01*
X105620337Y-27106089D01*
X105708762Y-27260061D01*
X105772581Y-27445452D01*
X105778904Y-27471821D01*
X105788201Y-27522957D01*
X105795145Y-27584245D01*
X105799946Y-27661384D01*
X105802815Y-27760077D01*
X105803960Y-27886022D01*
X105803593Y-28044920D01*
X105801923Y-28242471D01*
X105799966Y-28409821D01*
X105796587Y-28587750D01*
X105791151Y-28731918D01*
X105782518Y-28848262D01*
X105769543Y-28942723D01*
X105751087Y-29021239D01*
X105726005Y-29089748D01*
X105693158Y-29154190D01*
X105651401Y-29220503D01*
X105599594Y-29294627D01*
X105581117Y-29320036D01*
X105529858Y-29384712D01*
X105473753Y-29444727D01*
X105404859Y-29507505D01*
X105315231Y-29580475D01*
X105196925Y-29671062D01*
X105086369Y-29754307D01*
X104902713Y-29571604D01*
X104833857Y-29501564D01*
X104775668Y-29439237D01*
X104737283Y-29394412D01*
X104724725Y-29373782D01*
X104733099Y-29364399D01*
X104770433Y-29331816D01*
X104830347Y-29283220D01*
X104904942Y-29225128D01*
X105005469Y-29142902D01*
X105136574Y-29010306D01*
X105225670Y-28879972D01*
X105274050Y-28750236D01*
X105279281Y-28718757D01*
X105287184Y-28625317D01*
X105292027Y-28491454D01*
X105293738Y-28319709D01*
X105292244Y-28112620D01*
X105289954Y-27960282D01*
X105287229Y-27828336D01*
X105283712Y-27728498D01*
X105278794Y-27654330D01*
X105271866Y-27599396D01*
X105262320Y-27557258D01*
X105249545Y-27521480D01*
X105232935Y-27485625D01*
X105212558Y-27448076D01*
X105145645Y-27364769D01*
X105056932Y-27306776D01*
X104939751Y-27270610D01*
X104787434Y-27252787D01*
X104703959Y-27249285D01*
X104527353Y-27253426D01*
X104385062Y-27276827D01*
X104272362Y-27321077D01*
X104184531Y-27387764D01*
X104116847Y-27478479D01*
X104116264Y-27479497D01*
X104101295Y-27507098D01*
X104089481Y-27535215D01*
X104080379Y-27569329D01*
X104073543Y-27614922D01*
X104068530Y-27677474D01*
X104064895Y-27762467D01*
X104062195Y-27875381D01*
X104059985Y-28021698D01*
X104057822Y-28206900D01*
X104050753Y-28844673D01*
X103797167Y-28844673D01*
X103543581Y-28844673D01*
X103543966Y-28240175D01*
X103544078Y-28172842D01*
X103545695Y-27967075D01*
X103549756Y-27798072D01*
X103556961Y-27659959D01*
X103568010Y-27546863D01*
X103583603Y-27452909D01*
X103604438Y-27372224D01*
X103631216Y-27298934D01*
X103664636Y-27227165D01*
X103756655Y-27083865D01*
X103877889Y-26965355D01*
X104028333Y-26874698D01*
X104209988Y-26810969D01*
X104424854Y-26773243D01*
X104674934Y-26760597D01*
X104734702Y-26761091D01*
G37*
G36*
X107491333Y-20193274D02*
G01*
X107846390Y-20206019D01*
X108168051Y-20240528D01*
X108461753Y-20298111D01*
X108732933Y-20380080D01*
X108987029Y-20487745D01*
X109229479Y-20622417D01*
X109297001Y-20666545D01*
X109523358Y-20845761D01*
X109732606Y-21060177D01*
X109919918Y-21303729D01*
X110080470Y-21570352D01*
X110209434Y-21853981D01*
X110301525Y-22139004D01*
X110368295Y-22466212D01*
X110398119Y-22799006D01*
X110391688Y-23132214D01*
X110349692Y-23460665D01*
X110272821Y-23779189D01*
X110161765Y-24082614D01*
X110017214Y-24365770D01*
X109839859Y-24623486D01*
X109756594Y-24720253D01*
X109609859Y-24866876D01*
X109443683Y-25011213D01*
X109268987Y-25144549D01*
X109096697Y-25258166D01*
X108937735Y-25343349D01*
X108783935Y-25410961D01*
X108602779Y-25481197D01*
X108424882Y-25537672D01*
X108238341Y-25583645D01*
X108031250Y-25622377D01*
X107791703Y-25657126D01*
X107744805Y-25661619D01*
X107639572Y-25666635D01*
X107505099Y-25669121D01*
X107350635Y-25669221D01*
X107185430Y-25667076D01*
X107018730Y-25662828D01*
X106859786Y-25656618D01*
X106717844Y-25648589D01*
X106602155Y-25638882D01*
X106491687Y-25625830D01*
X106332439Y-25602087D01*
X106187782Y-25574818D01*
X106065133Y-25545653D01*
X105971912Y-25516220D01*
X105915538Y-25488147D01*
X105907186Y-25481525D01*
X105863393Y-25433030D01*
X105827082Y-25363211D01*
X105795022Y-25264406D01*
X105763979Y-25128952D01*
X105746371Y-25038949D01*
X105719163Y-24887339D01*
X105695824Y-24741781D01*
X105677365Y-24609756D01*
X105664795Y-24498746D01*
X105659128Y-24416234D01*
X105661373Y-24369699D01*
X105677064Y-24332868D01*
X105703913Y-24321893D01*
X105733502Y-24349548D01*
X105760631Y-24413537D01*
X105766532Y-24433320D01*
X105824138Y-24614999D01*
X105878048Y-24759930D01*
X105931641Y-24874492D01*
X105988300Y-24965063D01*
X106051404Y-25038023D01*
X106124335Y-25099749D01*
X106164419Y-25128234D01*
X106289545Y-25202930D01*
X106424128Y-25260415D01*
X106574953Y-25302277D01*
X106748807Y-25330107D01*
X106952478Y-25345493D01*
X107192751Y-25350027D01*
X107262117Y-25349759D01*
X107426405Y-25346836D01*
X107561646Y-25339515D01*
X107679019Y-25326284D01*
X107789703Y-25305630D01*
X107904877Y-25276042D01*
X108035720Y-25236008D01*
X108330509Y-25118628D01*
X108608095Y-24962759D01*
X108863745Y-24772477D01*
X109094119Y-24551411D01*
X109295877Y-24303193D01*
X109465676Y-24031452D01*
X109600177Y-23739818D01*
X109696039Y-23431921D01*
X109741892Y-23191863D01*
X109772435Y-22862321D01*
X109770455Y-22522590D01*
X109736138Y-22183755D01*
X109669669Y-21856900D01*
X109664282Y-21836695D01*
X109576901Y-21589869D01*
X109455276Y-21356061D01*
X109304228Y-21141306D01*
X109128581Y-20951641D01*
X108933154Y-20793099D01*
X108722771Y-20671715D01*
X108701189Y-20661830D01*
X108440685Y-20565714D01*
X108155441Y-20498185D01*
X107853844Y-20459176D01*
X107544282Y-20448623D01*
X107235144Y-20466462D01*
X106934817Y-20512628D01*
X106651689Y-20587056D01*
X106394148Y-20689681D01*
X106329408Y-20722647D01*
X106166322Y-20827579D01*
X106040110Y-20949177D01*
X105946821Y-21093035D01*
X105882504Y-21264747D01*
X105843210Y-21469908D01*
X105841548Y-21483019D01*
X105826928Y-21584299D01*
X105812940Y-21649085D01*
X105797595Y-21684414D01*
X105778901Y-21697327D01*
X105773198Y-21698202D01*
X105759920Y-21696572D01*
X105749001Y-21685713D01*
X105739929Y-21661237D01*
X105732194Y-21618757D01*
X105725283Y-21553883D01*
X105718685Y-21462228D01*
X105711891Y-21339404D01*
X105704388Y-21181023D01*
X105695666Y-20982697D01*
X105688564Y-20810543D01*
X105683644Y-20667925D01*
X105681382Y-20560533D01*
X105681811Y-20483718D01*
X105684960Y-20432827D01*
X105690859Y-20403211D01*
X105699540Y-20390218D01*
X105720075Y-20382395D01*
X105777136Y-20369914D01*
X105850464Y-20359725D01*
X105877691Y-20356622D01*
X105960193Y-20346008D01*
X106070044Y-20330884D01*
X106196195Y-20312789D01*
X106327598Y-20293263D01*
X106455969Y-20273931D01*
X106626611Y-20248879D01*
X106767181Y-20229598D01*
X106886069Y-20215338D01*
X106991664Y-20205351D01*
X107092357Y-20198887D01*
X107196536Y-20195197D01*
X107312591Y-20193533D01*
X107448912Y-20193144D01*
X107491333Y-20193274D01*
G37*
G36*
X102292289Y-20246373D02*
G01*
X102310145Y-20250385D01*
X102385332Y-20263307D01*
X102480765Y-20274136D01*
X102599458Y-20282964D01*
X102744421Y-20289889D01*
X102918669Y-20295005D01*
X103125213Y-20298406D01*
X103367067Y-20300189D01*
X103647242Y-20300447D01*
X103968751Y-20299277D01*
X104063730Y-20298821D01*
X104282291Y-20298211D01*
X104485692Y-20298250D01*
X104669760Y-20298898D01*
X104830323Y-20300119D01*
X104963209Y-20301875D01*
X105064246Y-20304129D01*
X105129262Y-20306842D01*
X105154085Y-20309977D01*
X105161701Y-20332379D01*
X105132795Y-20353646D01*
X105063660Y-20373036D01*
X104952227Y-20391383D01*
X104836172Y-20412209D01*
X104748528Y-20442749D01*
X104681074Y-20488526D01*
X104621609Y-20555601D01*
X104620406Y-20557228D01*
X104603715Y-20585117D01*
X104590883Y-20621728D01*
X104580878Y-20674187D01*
X104572667Y-20749618D01*
X104565216Y-20855147D01*
X104557492Y-20997898D01*
X104556358Y-21023379D01*
X104553301Y-21127840D01*
X104550906Y-21267747D01*
X104549142Y-21438899D01*
X104547979Y-21637096D01*
X104547388Y-21858138D01*
X104547337Y-22097823D01*
X104547798Y-22351950D01*
X104548739Y-22616320D01*
X104550131Y-22886731D01*
X104551944Y-23158983D01*
X104554148Y-23428875D01*
X104556712Y-23692207D01*
X104559606Y-23944777D01*
X104562801Y-24182385D01*
X104566266Y-24400831D01*
X104569971Y-24595913D01*
X104573886Y-24763431D01*
X104577981Y-24899185D01*
X104582226Y-24998973D01*
X104586590Y-25058595D01*
X104587101Y-25062991D01*
X104608172Y-25204228D01*
X104637255Y-25308053D01*
X104680065Y-25381186D01*
X104742317Y-25430349D01*
X104829727Y-25462263D01*
X104948008Y-25483649D01*
X105004545Y-25493675D01*
X105041156Y-25509795D01*
X105047833Y-25533703D01*
X105043919Y-25541279D01*
X105030926Y-25548879D01*
X105005138Y-25555097D01*
X104962611Y-25560113D01*
X104899397Y-25564103D01*
X104811549Y-25567246D01*
X104695121Y-25569720D01*
X104546166Y-25571704D01*
X104360737Y-25573376D01*
X104134888Y-25574913D01*
X104052435Y-25575479D01*
X103861344Y-25577247D01*
X103686166Y-25579493D01*
X103531642Y-25582117D01*
X103402516Y-25585019D01*
X103303529Y-25588098D01*
X103239423Y-25591255D01*
X103214943Y-25594388D01*
X103210971Y-25595790D01*
X103172078Y-25599258D01*
X103097797Y-25601665D01*
X102994823Y-25602912D01*
X102869851Y-25602901D01*
X102729575Y-25601533D01*
X102712740Y-25601297D01*
X102546757Y-25599018D01*
X102419003Y-25595205D01*
X102323882Y-25586695D01*
X102255796Y-25570324D01*
X102209148Y-25542929D01*
X102178341Y-25501348D01*
X102157778Y-25442416D01*
X102141862Y-25362970D01*
X102124995Y-25259847D01*
X102114990Y-25196796D01*
X102096331Y-25066435D01*
X102080318Y-24939068D01*
X102069602Y-24835022D01*
X102064790Y-24774823D01*
X102061453Y-24707951D01*
X102064711Y-24671031D01*
X102075830Y-24655304D01*
X102096079Y-24652009D01*
X102113713Y-24655995D01*
X102134484Y-24679032D01*
X102154134Y-24729746D01*
X102176627Y-24816220D01*
X102196719Y-24891246D01*
X102257381Y-25040679D01*
X102338718Y-25153506D01*
X102443377Y-25232829D01*
X102574004Y-25281748D01*
X102653210Y-25296535D01*
X102780075Y-25310475D01*
X102927312Y-25319017D01*
X103085705Y-25322298D01*
X103246036Y-25320455D01*
X103399089Y-25313627D01*
X103535647Y-25301951D01*
X103646494Y-25285564D01*
X103722412Y-25264605D01*
X103724071Y-25263902D01*
X103792626Y-25224946D01*
X103851201Y-25176606D01*
X103857325Y-25169919D01*
X103881524Y-25139003D01*
X103901819Y-25102440D01*
X103918548Y-25056359D01*
X103932051Y-24996888D01*
X103942667Y-24920154D01*
X103950735Y-24822287D01*
X103956593Y-24699415D01*
X103960582Y-24547666D01*
X103963040Y-24363168D01*
X103964306Y-24142050D01*
X103964719Y-23880439D01*
X103964719Y-23879632D01*
X103964655Y-23642829D01*
X103964198Y-23446608D01*
X103963221Y-23287196D01*
X103961595Y-23160821D01*
X103959193Y-23063710D01*
X103955889Y-22992092D01*
X103951554Y-22942193D01*
X103946061Y-22910241D01*
X103939282Y-22892464D01*
X103931091Y-22885090D01*
X103917042Y-22882240D01*
X103859657Y-22879210D01*
X103769525Y-22879360D01*
X103654275Y-22882256D01*
X103521539Y-22887467D01*
X103378946Y-22894559D01*
X103234125Y-22903100D01*
X103094708Y-22912658D01*
X102968323Y-22922800D01*
X102862602Y-22933093D01*
X102785173Y-22943105D01*
X102743667Y-22952404D01*
X102684398Y-22983102D01*
X102595747Y-23064050D01*
X102541499Y-23172234D01*
X102522804Y-23305811D01*
X102522319Y-23324930D01*
X102514926Y-23389366D01*
X102501545Y-23431736D01*
X102497271Y-23438070D01*
X102473615Y-23454324D01*
X102453387Y-23431793D01*
X102436180Y-23369090D01*
X102421584Y-23264829D01*
X102409194Y-23117624D01*
X102408792Y-23111717D01*
X102399339Y-22988773D01*
X102388417Y-22870616D01*
X102377347Y-22770415D01*
X102367448Y-22701341D01*
X102352380Y-22600604D01*
X102346666Y-22511660D01*
X102352802Y-22454116D01*
X102370717Y-22433668D01*
X102384921Y-22438547D01*
X102427021Y-22466041D01*
X102479907Y-22509692D01*
X102486985Y-22516007D01*
X102523714Y-22545262D01*
X102563690Y-22568630D01*
X102612050Y-22586766D01*
X102673935Y-22600321D01*
X102754485Y-22609947D01*
X102858837Y-22616299D01*
X102992134Y-22620027D01*
X103159512Y-22621786D01*
X103366113Y-22622227D01*
X103953974Y-22622227D01*
X103953974Y-21590699D01*
X103953974Y-20559170D01*
X103443755Y-20566075D01*
X103245376Y-20569929D01*
X103045172Y-20577980D01*
X102881839Y-20591287D01*
X102751325Y-20611450D01*
X102649578Y-20640067D01*
X102572547Y-20678738D01*
X102516180Y-20729061D01*
X102476426Y-20792636D01*
X102449233Y-20871061D01*
X102430548Y-20965936D01*
X102415451Y-21050047D01*
X102395366Y-21117634D01*
X102372931Y-21145106D01*
X102346976Y-21134830D01*
X102343513Y-21128185D01*
X102332564Y-21084239D01*
X102319383Y-21007949D01*
X102305331Y-20907755D01*
X102291766Y-20792096D01*
X102288416Y-20760786D01*
X102274715Y-20634371D01*
X102261619Y-20515834D01*
X102250474Y-20417258D01*
X102242625Y-20350724D01*
X102227810Y-20231010D01*
X102292289Y-20246373D01*
G37*
G36*
X108579214Y-29682132D02*
G01*
X108579214Y-32564801D01*
X108812252Y-32742859D01*
X109050545Y-32932257D01*
X109350966Y-33189821D01*
X109652455Y-33467454D01*
X109946892Y-33757118D01*
X110226154Y-34050773D01*
X110482120Y-34340382D01*
X110706667Y-34617904D01*
X110724071Y-34648279D01*
X110709198Y-34656725D01*
X110687293Y-34643459D01*
X110638654Y-34603660D01*
X110569263Y-34542191D01*
X110484656Y-34463963D01*
X110390368Y-34373887D01*
X110307653Y-34294245D01*
X109834674Y-33862039D01*
X109356746Y-33465942D01*
X108864924Y-33099218D01*
X108350259Y-32755134D01*
X107803807Y-32426955D01*
X107760172Y-32402399D01*
X107656994Y-32346044D01*
X107537274Y-32282357D01*
X107407206Y-32214461D01*
X107272983Y-32145481D01*
X107140797Y-32078541D01*
X107016842Y-32016766D01*
X106907311Y-31963279D01*
X106818396Y-31921207D01*
X106756292Y-31893672D01*
X106727190Y-31883799D01*
X106710682Y-31878266D01*
X106663463Y-31858535D01*
X106598253Y-31829427D01*
X106375568Y-31734072D01*
X106100827Y-31629105D01*
X105799681Y-31524765D01*
X105481337Y-31423726D01*
X105155005Y-31328662D01*
X104829893Y-31242245D01*
X104515212Y-31167152D01*
X104220169Y-31106054D01*
X103953974Y-31061628D01*
X103880962Y-31051058D01*
X103770137Y-31034509D01*
X103665589Y-31018433D01*
X103499444Y-30995296D01*
X103245445Y-30967977D01*
X102965166Y-30945301D01*
X102668616Y-30927649D01*
X102365798Y-30915402D01*
X102066718Y-30908940D01*
X101781382Y-30908646D01*
X101519796Y-30914898D01*
X101291965Y-30928079D01*
X101237327Y-30932600D01*
X101122774Y-30942797D01*
X101025855Y-30952387D01*
X100955438Y-30960462D01*
X100920393Y-30966115D01*
X100910125Y-30968216D01*
X100894973Y-30962356D01*
X100886346Y-30936170D01*
X100882470Y-30881650D01*
X100881572Y-30790787D01*
X100881572Y-30604305D01*
X101064585Y-30577594D01*
X101089276Y-30574095D01*
X101264487Y-30553604D01*
X101467239Y-30535895D01*
X101683070Y-30521931D01*
X101897515Y-30512670D01*
X102096113Y-30509075D01*
X102367860Y-30508428D01*
X102367860Y-30275502D01*
X102367860Y-30042576D01*
X102046201Y-30042576D01*
X101724541Y-30042576D01*
X101724541Y-29809651D01*
X101724541Y-29576725D01*
X102046201Y-29576725D01*
X102367860Y-29576725D01*
X102367860Y-28434280D01*
X102367860Y-27291834D01*
X101724541Y-27291834D01*
X101081223Y-27291834D01*
X101081223Y-27047817D01*
X101081223Y-26803799D01*
X101976300Y-26803799D01*
X102871377Y-26803799D01*
X102887619Y-28650371D01*
X102889135Y-28817451D01*
X102892756Y-29175562D01*
X102896505Y-29490025D01*
X102900394Y-29761343D01*
X102904434Y-29990021D01*
X102908634Y-30176560D01*
X102913007Y-30321465D01*
X102917561Y-30425239D01*
X102922309Y-30488384D01*
X102927261Y-30511404D01*
X102934338Y-30514165D01*
X102979255Y-30522872D01*
X103052328Y-30532048D01*
X103141750Y-30540113D01*
X103159830Y-30541478D01*
X103266581Y-30550103D01*
X103368967Y-30559175D01*
X103447039Y-30566942D01*
X103561240Y-30579525D01*
X103577110Y-30505156D01*
X103582550Y-30482197D01*
X103633936Y-30344556D01*
X103714734Y-30203056D01*
X103816808Y-30072387D01*
X103852105Y-30036363D01*
X103917920Y-29975318D01*
X103996787Y-29906581D01*
X104081032Y-29836380D01*
X104162982Y-29770941D01*
X104234964Y-29716491D01*
X104289303Y-29679254D01*
X104318327Y-29665459D01*
X104337620Y-29679580D01*
X104381603Y-29719355D01*
X104443513Y-29778586D01*
X104516718Y-29851070D01*
X104701366Y-30036681D01*
X104473524Y-30211550D01*
X104450129Y-30229744D01*
X104337221Y-30324718D01*
X104240396Y-30417917D01*
X104164829Y-30503580D01*
X104115694Y-30575951D01*
X104098166Y-30629271D01*
X104105451Y-30638451D01*
X104150352Y-30657978D01*
X104232530Y-30681082D01*
X104347729Y-30706448D01*
X104440096Y-30725850D01*
X104586003Y-30758823D01*
X104737852Y-30795231D01*
X104874585Y-30830131D01*
X104879113Y-30831335D01*
X104992139Y-30860849D01*
X105096794Y-30887256D01*
X105181596Y-30907712D01*
X105235065Y-30919376D01*
X105318253Y-30934850D01*
X105318253Y-30766006D01*
X105318253Y-30597162D01*
X105573362Y-30597162D01*
X105828472Y-30597162D01*
X105828472Y-30863363D01*
X105829777Y-30979482D01*
X105834334Y-31065347D01*
X105842518Y-31114131D01*
X105854696Y-31129563D01*
X105877321Y-31135606D01*
X105935632Y-31155831D01*
X106021689Y-31187718D01*
X106128344Y-31228613D01*
X106248451Y-31275861D01*
X106281019Y-31288930D01*
X106517077Y-31388932D01*
X106770312Y-31504241D01*
X107028867Y-31629002D01*
X107280883Y-31757359D01*
X107514504Y-31883457D01*
X107717873Y-32001442D01*
X107761328Y-32027754D01*
X107859262Y-32086353D01*
X107942482Y-32135198D01*
X108003290Y-32169803D01*
X108033986Y-32185679D01*
X108036496Y-32186110D01*
X108041710Y-32182178D01*
X108046340Y-32169520D01*
X108050421Y-32145760D01*
X108053987Y-32108521D01*
X108057072Y-32055428D01*
X108059709Y-31984105D01*
X108061934Y-31892175D01*
X108063780Y-31777263D01*
X108065280Y-31636992D01*
X108066471Y-31468987D01*
X108067384Y-31270871D01*
X108068055Y-31040269D01*
X108068518Y-30774804D01*
X108068806Y-30472101D01*
X108068954Y-30129783D01*
X108068996Y-29745474D01*
X108068996Y-27291834D01*
X107729179Y-27291834D01*
X107595852Y-27293658D01*
X107422702Y-27304499D01*
X107284611Y-27326764D01*
X107176405Y-27362360D01*
X107092907Y-27413194D01*
X107028944Y-27481175D01*
X106979339Y-27568209D01*
X106974747Y-27578790D01*
X106965673Y-27604634D01*
X106958243Y-27636678D01*
X106952291Y-27679160D01*
X106947652Y-27736323D01*
X106944161Y-27812407D01*
X106941651Y-27911653D01*
X106939959Y-28038301D01*
X106938918Y-28196594D01*
X106938363Y-28390771D01*
X106938129Y-28625074D01*
X106938336Y-28841464D01*
X106939562Y-29080118D01*
X106941894Y-29276690D01*
X106945362Y-29432457D01*
X106949997Y-29548696D01*
X106955829Y-29626683D01*
X106962889Y-29667694D01*
X106986651Y-29724889D01*
X107065418Y-29836719D01*
X107173707Y-29922992D01*
X107303928Y-29978545D01*
X107448493Y-29998210D01*
X107558777Y-29998210D01*
X107558777Y-30241944D01*
X107558777Y-30485679D01*
X107386856Y-30472921D01*
X107177191Y-30445311D01*
X106979307Y-30389251D01*
X106814359Y-30305730D01*
X106680913Y-30194182D01*
X106668347Y-30180723D01*
X106599014Y-30100511D01*
X106548765Y-30025998D01*
X106508051Y-29940845D01*
X106467320Y-29828710D01*
X106458762Y-29802804D01*
X106448345Y-29768114D01*
X106439789Y-29731989D01*
X106432912Y-29690136D01*
X106427529Y-29638263D01*
X106423459Y-29572075D01*
X106420518Y-29487280D01*
X106418522Y-29379584D01*
X106417289Y-29244695D01*
X106416635Y-29078318D01*
X106416377Y-28876161D01*
X106416332Y-28633930D01*
X106416342Y-28503037D01*
X106416591Y-28267258D01*
X106417530Y-28069429D01*
X106419615Y-27905246D01*
X106423304Y-27770403D01*
X106429056Y-27660597D01*
X106437329Y-27571522D01*
X106448579Y-27498874D01*
X106463266Y-27438348D01*
X106481846Y-27385640D01*
X106504779Y-27336446D01*
X106532522Y-27286460D01*
X106565532Y-27231379D01*
X106632400Y-27137261D01*
X106756376Y-27019357D01*
X106912307Y-26926772D01*
X107104017Y-26856847D01*
X107113577Y-26854242D01*
X107163792Y-26843290D01*
X107226158Y-26834380D01*
X107306043Y-26827197D01*
X107408816Y-26821422D01*
X107539849Y-26816740D01*
X107704509Y-26812832D01*
X107908166Y-26809383D01*
X108579214Y-26799463D01*
X108579214Y-29682132D01*
G37*
G36*
X116505327Y-23021528D02*
G01*
X116506460Y-23235573D01*
X116508366Y-23564971D01*
X116510300Y-23854362D01*
X116512318Y-24106491D01*
X116514475Y-24324099D01*
X116516829Y-24509931D01*
X116519435Y-24666729D01*
X116522349Y-24797237D01*
X116525627Y-24904198D01*
X116529325Y-24990354D01*
X116533499Y-25058450D01*
X116538205Y-25111228D01*
X116543500Y-25151432D01*
X116549438Y-25181805D01*
X116570294Y-25260313D01*
X116605381Y-25347888D01*
X116651890Y-25405754D01*
X116717887Y-25442708D01*
X116811440Y-25467547D01*
X116903700Y-25486357D01*
X116964614Y-25501312D01*
X116994993Y-25514156D01*
X117001578Y-25527799D01*
X116991110Y-25545153D01*
X116983003Y-25550007D01*
X116952517Y-25556638D01*
X116897587Y-25561941D01*
X116814894Y-25566022D01*
X116701118Y-25568987D01*
X116552939Y-25570942D01*
X116367039Y-25571992D01*
X116140096Y-25572243D01*
X116126360Y-25572234D01*
X115938908Y-25571593D01*
X115765250Y-25570065D01*
X115610482Y-25567764D01*
X115479699Y-25564803D01*
X115377997Y-25561297D01*
X115310471Y-25557358D01*
X115282216Y-25553101D01*
X115267794Y-25541359D01*
X115268027Y-25521921D01*
X115305207Y-25504623D01*
X115381806Y-25488557D01*
X115500296Y-25472811D01*
X115500978Y-25472733D01*
X115625389Y-25455213D01*
X115714239Y-25432538D01*
X115776293Y-25400140D01*
X115820311Y-25353454D01*
X115855057Y-25287911D01*
X115859682Y-25275972D01*
X115878979Y-25197605D01*
X115896248Y-25081106D01*
X115911183Y-24931530D01*
X115923483Y-24753935D01*
X115932846Y-24553378D01*
X115938967Y-24334915D01*
X115941545Y-24103602D01*
X115940277Y-23864498D01*
X115933013Y-23332096D01*
X115526868Y-23326045D01*
X115446476Y-23325240D01*
X115302403Y-23325957D01*
X115180433Y-23329461D01*
X115087971Y-23335487D01*
X115032425Y-23343769D01*
X114998001Y-23355488D01*
X114963550Y-23375467D01*
X114926081Y-23408789D01*
X114880018Y-23461225D01*
X114819781Y-23538546D01*
X114739793Y-23646522D01*
X114689473Y-23715164D01*
X114484669Y-23993186D01*
X114296212Y-24246782D01*
X114125404Y-24474250D01*
X113973546Y-24673888D01*
X113841940Y-24843995D01*
X113731888Y-24982871D01*
X113644691Y-25088814D01*
X113581651Y-25160122D01*
X113491163Y-25250840D01*
X113352620Y-25366960D01*
X113211875Y-25454180D01*
X113057746Y-25520185D01*
X113055896Y-25520836D01*
X113023141Y-25531956D01*
X112990827Y-25541285D01*
X112954882Y-25548999D01*
X112911231Y-25555275D01*
X112855800Y-25560289D01*
X112784518Y-25564218D01*
X112693309Y-25567239D01*
X112578101Y-25569528D01*
X112434821Y-25571262D01*
X112259394Y-25572618D01*
X112047747Y-25573771D01*
X111795808Y-25574899D01*
X111745453Y-25575105D01*
X111528133Y-25575740D01*
X111324559Y-25575936D01*
X111139104Y-25575715D01*
X110976143Y-25575100D01*
X110840050Y-25574111D01*
X110735200Y-25572771D01*
X110665966Y-25571102D01*
X110636725Y-25569125D01*
X110626124Y-25564595D01*
X110602967Y-25538731D01*
X110597240Y-25509121D01*
X110614541Y-25494584D01*
X110673089Y-25491074D01*
X110761548Y-25481879D01*
X110858259Y-25469051D01*
X110950114Y-25454517D01*
X111024005Y-25440206D01*
X111066825Y-25428047D01*
X111068447Y-25427298D01*
X111130633Y-25379422D01*
X111178870Y-25298643D01*
X111214645Y-25181480D01*
X111239446Y-25024455D01*
X111241297Y-25003281D01*
X111245185Y-24926505D01*
X111248710Y-24812377D01*
X111251873Y-24664791D01*
X111254670Y-24487635D01*
X111257101Y-24284803D01*
X111259164Y-24060185D01*
X111260858Y-23817672D01*
X111262181Y-23561156D01*
X111263132Y-23294528D01*
X111263710Y-23021678D01*
X111263914Y-22746499D01*
X111263741Y-22472882D01*
X111263190Y-22204717D01*
X111262260Y-21945896D01*
X111260950Y-21700310D01*
X111259259Y-21471851D01*
X111257184Y-21264410D01*
X111254724Y-21081877D01*
X111251879Y-20928145D01*
X111248646Y-20807104D01*
X111245024Y-20722646D01*
X111241012Y-20678661D01*
X111217187Y-20585780D01*
X111173872Y-20502892D01*
X111107781Y-20445029D01*
X111011950Y-20406469D01*
X110879416Y-20381490D01*
X110817977Y-20370616D01*
X110785059Y-20354683D01*
X110779898Y-20330232D01*
X110780990Y-20326363D01*
X110788535Y-20317202D01*
X110806151Y-20309875D01*
X110838126Y-20304179D01*
X110888745Y-20299913D01*
X110962296Y-20296875D01*
X111063066Y-20294864D01*
X111195341Y-20293677D01*
X111363409Y-20293113D01*
X111571557Y-20292970D01*
X111757274Y-20293192D01*
X111938419Y-20294104D01*
X112082046Y-20295844D01*
X112191858Y-20298547D01*
X112271560Y-20302346D01*
X112324856Y-20307375D01*
X112355450Y-20313767D01*
X112367047Y-20321655D01*
X112371490Y-20335129D01*
X112369602Y-20353359D01*
X112347880Y-20366238D01*
X112298257Y-20377355D01*
X112212665Y-20390297D01*
X112204369Y-20391495D01*
X112090457Y-20415451D01*
X112010368Y-20452079D01*
X111954541Y-20507716D01*
X111913418Y-20588699D01*
X111907077Y-20606912D01*
X111901167Y-20629581D01*
X111895991Y-20658529D01*
X111891500Y-20696476D01*
X111887644Y-20746143D01*
X111884377Y-20810250D01*
X111881650Y-20891518D01*
X111879415Y-20992667D01*
X111877623Y-21116418D01*
X111876227Y-21265491D01*
X111875177Y-21442608D01*
X111874427Y-21650489D01*
X111873927Y-21891854D01*
X111873630Y-22169424D01*
X111873487Y-22485919D01*
X111873450Y-22844061D01*
X111873470Y-23063379D01*
X111873641Y-23412195D01*
X111874058Y-23720872D01*
X111874811Y-23992096D01*
X111875989Y-24228554D01*
X111877678Y-24432932D01*
X111879969Y-24607916D01*
X111882949Y-24756192D01*
X111886707Y-24880448D01*
X111891332Y-24983368D01*
X111896911Y-25067640D01*
X111903534Y-25135950D01*
X111911288Y-25190983D01*
X111920263Y-25235427D01*
X111930546Y-25271968D01*
X111942227Y-25303291D01*
X111955394Y-25332084D01*
X111990601Y-25383685D01*
X112042480Y-25434152D01*
X112064466Y-25449296D01*
X112101618Y-25464623D01*
X112148394Y-25464992D01*
X112221389Y-25452064D01*
X112269637Y-25440445D01*
X112430008Y-25383137D01*
X112594454Y-25299606D01*
X112746961Y-25197605D01*
X112757958Y-25189065D01*
X112819395Y-25138405D01*
X112884974Y-25078962D01*
X112956756Y-25008321D01*
X113036803Y-24924069D01*
X113127176Y-24823789D01*
X113229939Y-24705069D01*
X113347152Y-24565494D01*
X113480878Y-24402649D01*
X113633179Y-24214121D01*
X113806115Y-23997495D01*
X114001751Y-23750356D01*
X114222146Y-23470291D01*
X114462000Y-23164818D01*
X114272573Y-22965762D01*
X114164089Y-22847460D01*
X113996627Y-22640585D01*
X113863279Y-22437522D01*
X113759282Y-22230609D01*
X113679873Y-22012183D01*
X113663009Y-21947663D01*
X113653639Y-21891386D01*
X114207074Y-21891386D01*
X114212182Y-22070490D01*
X114228365Y-22236224D01*
X114255483Y-22373755D01*
X114279014Y-22452712D01*
X114362608Y-22659066D01*
X114467954Y-22827164D01*
X114595423Y-22957521D01*
X114745389Y-23050652D01*
X114752476Y-23053908D01*
X114809335Y-23077270D01*
X114865796Y-23093088D01*
X114933048Y-23103102D01*
X115022283Y-23109049D01*
X115144690Y-23112668D01*
X115299147Y-23112651D01*
X115493281Y-23101773D01*
X115659854Y-23079007D01*
X115793609Y-23045141D01*
X115889288Y-23000965D01*
X115944490Y-22964795D01*
X115938751Y-21773370D01*
X115933013Y-20581945D01*
X115867528Y-20550562D01*
X115820054Y-20535073D01*
X115727097Y-20519614D01*
X115609975Y-20510012D01*
X115479983Y-20506503D01*
X115348417Y-20509326D01*
X115226573Y-20518720D01*
X115125747Y-20534922D01*
X115117776Y-20536759D01*
X114901967Y-20607196D01*
X114714766Y-20711219D01*
X114555914Y-20849104D01*
X114425152Y-21021128D01*
X114322219Y-21227564D01*
X114246856Y-21468690D01*
X114230654Y-21552391D01*
X114213184Y-21713742D01*
X114207074Y-21891386D01*
X113653639Y-21891386D01*
X113638300Y-21799259D01*
X113626177Y-21637820D01*
X113626855Y-21477174D01*
X113640548Y-21331152D01*
X113667471Y-21213581D01*
X113670647Y-21204342D01*
X113769247Y-20980820D01*
X113898805Y-20789067D01*
X114059256Y-20629151D01*
X114250534Y-20501138D01*
X114472570Y-20405095D01*
X114526829Y-20387223D01*
X114597972Y-20365800D01*
X114668596Y-20347929D01*
X114743189Y-20333288D01*
X114826240Y-20321555D01*
X114922236Y-20312406D01*
X115035668Y-20305519D01*
X115171023Y-20300572D01*
X115332789Y-20297240D01*
X115525456Y-20295202D01*
X115753511Y-20294135D01*
X116021443Y-20293716D01*
X116240007Y-20293640D01*
X116449964Y-20293843D01*
X116622444Y-20294470D01*
X116761112Y-20295643D01*
X116869634Y-20297485D01*
X116951676Y-20300119D01*
X117010902Y-20303665D01*
X117050979Y-20308246D01*
X117075571Y-20313984D01*
X117088344Y-20321002D01*
X117092963Y-20329422D01*
X117092242Y-20344418D01*
X117073524Y-20359998D01*
X117026716Y-20371435D01*
X116943694Y-20381569D01*
X116834128Y-20399056D01*
X116713020Y-20437717D01*
X116622017Y-20491515D01*
X116567801Y-20557328D01*
X116567247Y-20558502D01*
X116555185Y-20588846D01*
X116544544Y-20626997D01*
X116535257Y-20675567D01*
X116527257Y-20737166D01*
X116520479Y-20814407D01*
X116514857Y-20909899D01*
X116510324Y-21026255D01*
X116506814Y-21166086D01*
X116504261Y-21332003D01*
X116502598Y-21526616D01*
X116501760Y-21752537D01*
X116501680Y-22012378D01*
X116502292Y-22308750D01*
X116503530Y-22644263D01*
X116505057Y-22964795D01*
X116505327Y-23021528D01*
G37*
%TO.C,TP14*%
X103150000Y-32270000D02*
G75*
G03*
X103150000Y-32270000I-950000J0D01*
G01*
D13*
%TO.C,J1*%
X114790000Y-98420000D02*
X111790000Y-98420000D01*
X114790000Y-68920000D02*
X114790000Y-98420000D01*
X111290000Y-68920000D02*
X114790000Y-68920000D01*
X103790000Y-74920000D02*
X103790000Y-92420000D01*
D12*
%TO.C,TP8*%
X90270000Y-29050000D02*
G75*
G03*
X90270000Y-29050000I-950000J0D01*
G01*
%TO.C,TP12*%
X115410000Y-53420000D02*
G75*
G03*
X115410000Y-53420000I-950000J0D01*
G01*
%TD*%
%LPC*%
D14*
%TO.C,SW1*%
X119640000Y-65900000D03*
X119640000Y-62900000D03*
%TD*%
D15*
%TO.C,J8*%
X118270000Y-54690000D03*
D16*
X118270000Y-53440000D03*
X118270000Y-52190000D03*
X118270000Y-50940000D03*
%TD*%
D17*
%TO.C,J7*%
X117160000Y-45212500D03*
X117160000Y-39432500D03*
D18*
X116640000Y-46642500D03*
D19*
X120840000Y-46642500D03*
D18*
X116640000Y-38002500D03*
D19*
X120840000Y-38002500D03*
%TD*%
D20*
%TO.C,J3*%
X100000000Y-23200000D03*
D21*
X98750000Y-23200000D03*
X97500000Y-23200000D03*
X96250000Y-23200000D03*
X95000000Y-23200000D03*
%TD*%
D15*
%TO.C,J9*%
X118300000Y-30857500D03*
D16*
X118300000Y-29607500D03*
X118300000Y-28357500D03*
X118300000Y-27107500D03*
%TD*%
D14*
%TO.C,SW2*%
X119600000Y-89570000D03*
X119600000Y-86570000D03*
%TD*%
D22*
%TO.C,J5*%
X88760000Y-32840000D03*
D16*
X88760000Y-34090000D03*
X88760000Y-35340000D03*
X88760000Y-36590000D03*
X88760000Y-37840000D03*
%TD*%
D23*
%TO.C,TP10*%
X92350000Y-44020000D03*
%TD*%
%TO.C,TP15*%
X91600000Y-55210000D03*
%TD*%
D24*
%TO.C,J4*%
X113800000Y-57900000D03*
D25*
X113800000Y-59900000D03*
%TD*%
D23*
%TO.C,TP5*%
X97600000Y-28020000D03*
%TD*%
%TO.C,TP4*%
X96750000Y-30420000D03*
%TD*%
%TO.C,TP1*%
X110300000Y-56500000D03*
%TD*%
%TO.C,TP11*%
X92350000Y-46970000D03*
%TD*%
%TO.C,TP6*%
X87600000Y-25450000D03*
%TD*%
%TO.C,TP7*%
X99900000Y-25920000D03*
%TD*%
D26*
%TO.C,J2*%
X95200000Y-95920000D03*
X100200000Y-95920000D03*
X95200000Y-92420000D03*
X100200000Y-92420000D03*
X95200000Y-88920000D03*
X100200000Y-88920000D03*
X95200000Y-85420000D03*
X100200000Y-85420000D03*
X95200000Y-81920000D03*
X100200000Y-81920000D03*
X95200000Y-78420000D03*
X100200000Y-78420000D03*
X95200000Y-74920000D03*
X100200000Y-74920000D03*
X95200000Y-71420000D03*
X100200000Y-71420000D03*
%TD*%
D27*
%TO.C,U11*%
X111000000Y-41432500D03*
X111000000Y-43332500D03*
X111000000Y-45232500D03*
X111000000Y-47132500D03*
X111000000Y-49032500D03*
D28*
X107600000Y-52432500D03*
X105700000Y-52432500D03*
X103800000Y-52432500D03*
X101900000Y-52432500D03*
X100000000Y-52432500D03*
D27*
X96600000Y-49032500D03*
X96600000Y-47132500D03*
X96600000Y-45232500D03*
X96600000Y-43332500D03*
X96600000Y-41432500D03*
D28*
X100000000Y-38032500D03*
X101900000Y-38032500D03*
X103800000Y-38032500D03*
X105700000Y-38032500D03*
X107600000Y-38032500D03*
%TD*%
D23*
%TO.C,TP9*%
X90700000Y-26820000D03*
%TD*%
D29*
%TO.C,BZ1*%
X103500000Y-64590000D03*
D26*
X103500000Y-59590000D03*
%TD*%
D23*
%TO.C,TP3*%
X98150000Y-34770000D03*
%TD*%
%TO.C,TP2*%
X85880000Y-56610000D03*
%TD*%
%TO.C,TP13*%
X106050000Y-33020000D03*
%TD*%
%TO.C,TP14*%
X102200000Y-32270000D03*
%TD*%
D26*
%TO.C,J1*%
X111790000Y-71420000D03*
X106790000Y-71420000D03*
X111790000Y-74920000D03*
X106790000Y-74920000D03*
X111790000Y-78420000D03*
X106790000Y-78420000D03*
X111790000Y-81920000D03*
X106790000Y-81920000D03*
X111790000Y-85420000D03*
X106790000Y-85420000D03*
X111790000Y-88920000D03*
X106790000Y-88920000D03*
X111790000Y-92420000D03*
X106790000Y-92420000D03*
X111790000Y-95920000D03*
X106790000Y-95920000D03*
%TD*%
D23*
%TO.C,TP8*%
X89320000Y-29050000D03*
%TD*%
%TO.C,TP12*%
X114460000Y-53420000D03*
%TD*%
%LPD*%
M02*
